<?xml version="1.0" encoding="utf-8" standalone="no"?>
<!DOCTYPE svg PUBLIC "-//W3C//DTD SVG 1.1//EN"
  "http://www.w3.org/Graphics/SVG/1.1/DTD/svg11.dtd">
<svg xmlns:xlink="http://www.w3.org/1999/xlink" width="460.8pt" height="345.6pt" viewBox="0 0 460.8 345.6" xmlns="http://www.w3.org/2000/svg" version="1.1">
 <metadata>
  <rdf:RDF xmlns:dc="http://purl.org/dc/elements/1.1/" xmlns:cc="http://creativecommons.org/ns#" xmlns:rdf="http://www.w3.org/1999/02/22-rdf-syntax-ns#">
   <cc:Work>
    <dc:type rdf:resource="http://purl.org/dc/dcmitype/StillImage"/>
    <dc:date>2024-01-20T11:51:40.396791</dc:date>
    <dc:format>image/svg+xml</dc:format>
    <dc:creator>
     <cc:Agent>
      <dc:title>Matplotlib v3.8.0, https://matplotlib.org/</dc:title>
     </cc:Agent>
    </dc:creator>
   </cc:Work>
  </rdf:RDF>
 </metadata>
 <defs>
  <style type="text/css">*{stroke-linejoin: round; stroke-linecap: butt}</style>
 </defs>
 <g id="figure_1">
  <g id="patch_1">
   <path d="M 0 345.6 
L 460.8 345.6 
L 460.8 0 
L 0 0 
z
" style="fill: #ffffff"/>
  </g>
  <g id="axes_1">
   <g id="patch_2">
    <path d="M 57.26 288.645994 
L 450 288.645994 
L 450 26.16 
L 57.26 26.16 
z
" style="fill: #ffffff"/>
   </g>
   <g id="patch_3">
    <path d="M 75.111818 288.645994 
L 76.171273 288.645994 
L 76.171273 269.682894 
L 75.111818 269.682894 
z
" clip-path="url(#p2f27eedb8f)" style="fill: #1f77b4; opacity: 0.5"/>
   </g>
   <g id="patch_4">
    <path d="M 76.171273 288.645994 
L 77.230728 288.645994 
L 77.230728 236.038687 
L 76.171273 236.038687 
z
" clip-path="url(#p2f27eedb8f)" style="fill: #1f77b4; opacity: 0.5"/>
   </g>
   <g id="patch_5">
    <path d="M 77.230728 288.645994 
L 78.290183 288.645994 
L 78.290183 207.797942 
L 77.230728 207.797942 
z
" clip-path="url(#p2f27eedb8f)" style="fill: #1f77b4; opacity: 0.5"/>
   </g>
   <g id="patch_6">
    <path d="M 78.290183 288.645994 
L 79.349639 288.645994 
L 79.349639 160.492147 
L 78.290183 160.492147 
z
" clip-path="url(#p2f27eedb8f)" style="fill: #1f77b4; opacity: 0.5"/>
   </g>
   <g id="patch_7">
    <path d="M 79.349639 288.645994 
L 80.409094 288.645994 
L 80.409094 138.572436 
L 79.349639 138.572436 
z
" clip-path="url(#p2f27eedb8f)" style="fill: #1f77b4; opacity: 0.5"/>
   </g>
   <g id="patch_8">
    <path d="M 80.409094 288.645994 
L 81.468549 288.645994 
L 81.468549 109.108265 
L 80.409094 109.108265 
z
" clip-path="url(#p2f27eedb8f)" style="fill: #1f77b4; opacity: 0.5"/>
   </g>
   <g id="patch_9">
    <path d="M 81.468549 288.645994 
L 82.528004 288.645994 
L 82.528004 52.830681 
L 81.468549 52.830681 
z
" clip-path="url(#p2f27eedb8f)" style="fill: #1f77b4; opacity: 0.5"/>
   </g>
   <g id="patch_10">
    <path d="M 82.528004 288.645994 
L 83.587459 288.645994 
L 83.587459 38.659333 
L 82.528004 38.659333 
z
" clip-path="url(#p2f27eedb8f)" style="fill: #1f77b4; opacity: 0.5"/>
   </g>
   <g id="patch_11">
    <path d="M 83.587459 288.645994 
L 84.646914 288.645994 
L 84.646914 81.988995 
L 83.587459 81.988995 
z
" clip-path="url(#p2f27eedb8f)" style="fill: #1f77b4; opacity: 0.5"/>
   </g>
   <g id="patch_12">
    <path d="M 84.646914 288.645994 
L 85.706369 288.645994 
L 85.706369 113.492208 
L 84.646914 113.492208 
z
" clip-path="url(#p2f27eedb8f)" style="fill: #1f77b4; opacity: 0.5"/>
   </g>
   <g id="patch_13">
    <path d="M 85.706369 288.645994 
L 86.765824 288.645994 
L 86.765824 104.214563 
L 85.706369 104.214563 
z
" clip-path="url(#p2f27eedb8f)" style="fill: #1f77b4; opacity: 0.5"/>
   </g>
   <g id="patch_14">
    <path d="M 86.765824 288.645994 
L 87.825279 288.645994 
L 87.825279 87.698315 
L 86.765824 87.698315 
z
" clip-path="url(#p2f27eedb8f)" style="fill: #1f77b4; opacity: 0.5"/>
   </g>
   <g id="patch_15">
    <path d="M 87.825279 288.645994 
L 88.884734 288.645994 
L 88.884734 103.500897 
L 87.825279 103.500897 
z
" clip-path="url(#p2f27eedb8f)" style="fill: #1f77b4; opacity: 0.5"/>
   </g>
   <g id="patch_16">
    <path d="M 88.884734 288.645994 
L 89.944189 288.645994 
L 89.944189 119.915193 
L 88.884734 119.915193 
z
" clip-path="url(#p2f27eedb8f)" style="fill: #1f77b4; opacity: 0.5"/>
   </g>
   <g id="patch_17">
    <path d="M 89.944189 288.645994 
L 91.003644 288.645994 
L 91.003644 105.53994 
L 89.944189 105.53994 
z
" clip-path="url(#p2f27eedb8f)" style="fill: #1f77b4; opacity: 0.5"/>
   </g>
   <g id="patch_18">
    <path d="M 91.003644 288.645994 
L 92.0631 288.645994 
L 92.0631 118.589815 
L 91.003644 118.589815 
z
" clip-path="url(#p2f27eedb8f)" style="fill: #1f77b4; opacity: 0.5"/>
   </g>
   <g id="patch_19">
    <path d="M 92.0631 288.645994 
L 93.122555 288.645994 
L 93.122555 142.650521 
L 92.0631 142.650521 
z
" clip-path="url(#p2f27eedb8f)" style="fill: #1f77b4; opacity: 0.5"/>
   </g>
   <g id="patch_20">
    <path d="M 93.122555 288.645994 
L 94.18201 288.645994 
L 94.18201 153.763305 
L 93.122555 153.763305 
z
" clip-path="url(#p2f27eedb8f)" style="fill: #1f77b4; opacity: 0.5"/>
   </g>
   <g id="patch_21">
    <path d="M 94.18201 288.645994 
L 95.241465 288.645994 
L 95.241465 161.001908 
L 94.18201 161.001908 
z
" clip-path="url(#p2f27eedb8f)" style="fill: #1f77b4; opacity: 0.5"/>
   </g>
   <g id="patch_22">
    <path d="M 95.241465 288.645994 
L 96.30092 288.645994 
L 96.30092 147.646176 
L 95.241465 147.646176 
z
" clip-path="url(#p2f27eedb8f)" style="fill: #1f77b4; opacity: 0.5"/>
   </g>
   <g id="patch_23">
    <path d="M 96.30092 288.645994 
L 97.360375 288.645994 
L 97.360375 147.34032 
L 96.30092 147.34032 
z
" clip-path="url(#p2f27eedb8f)" style="fill: #1f77b4; opacity: 0.5"/>
   </g>
   <g id="patch_24">
    <path d="M 97.360375 288.645994 
L 98.41983 288.645994 
L 98.41983 175.275208 
L 97.360375 175.275208 
z
" clip-path="url(#p2f27eedb8f)" style="fill: #1f77b4; opacity: 0.5"/>
   </g>
   <g id="patch_25">
    <path d="M 98.41983 288.645994 
L 99.479285 288.645994 
L 99.479285 167.119036 
L 98.41983 167.119036 
z
" clip-path="url(#p2f27eedb8f)" style="fill: #1f77b4; opacity: 0.5"/>
   </g>
   <g id="patch_26">
    <path d="M 99.479285 288.645994 
L 100.53874 288.645994 
L 100.53874 178.639629 
L 99.479285 178.639629 
z
" clip-path="url(#p2f27eedb8f)" style="fill: #1f77b4; opacity: 0.5"/>
   </g>
   <g id="patch_27">
    <path d="M 100.53874 288.645994 
L 101.598195 288.645994 
L 101.598195 192.50512 
L 100.53874 192.50512 
z
" clip-path="url(#p2f27eedb8f)" style="fill: #1f77b4; opacity: 0.5"/>
   </g>
   <g id="patch_28">
    <path d="M 101.598195 288.645994 
L 102.65765 288.645994 
L 102.65765 187.815322 
L 101.598195 187.815322 
z
" clip-path="url(#p2f27eedb8f)" style="fill: #1f77b4; opacity: 0.5"/>
   </g>
   <g id="patch_29">
    <path d="M 102.65765 288.645994 
L 103.717105 288.645994 
L 103.717105 204.025713 
L 102.65765 204.025713 
z
" clip-path="url(#p2f27eedb8f)" style="fill: #1f77b4; opacity: 0.5"/>
   </g>
   <g id="patch_30">
    <path d="M 103.717105 288.645994 
L 104.776561 288.645994 
L 104.776561 203.719856 
L 103.717105 203.719856 
z
" clip-path="url(#p2f27eedb8f)" style="fill: #1f77b4; opacity: 0.5"/>
   </g>
   <g id="patch_31">
    <path d="M 104.776561 288.645994 
L 105.836016 288.645994 
L 105.836016 214.83264 
L 104.776561 214.83264 
z
" clip-path="url(#p2f27eedb8f)" style="fill: #1f77b4; opacity: 0.5"/>
   </g>
   <g id="patch_32">
    <path d="M 105.836016 288.645994 
L 106.895471 288.645994 
L 106.895471 211.672124 
L 105.836016 211.672124 
z
" clip-path="url(#p2f27eedb8f)" style="fill: #1f77b4; opacity: 0.5"/>
   </g>
   <g id="patch_33">
    <path d="M 106.895471 288.645994 
L 107.954926 288.645994 
L 107.954926 214.83264 
L 106.895471 214.83264 
z
" clip-path="url(#p2f27eedb8f)" style="fill: #1f77b4; opacity: 0.5"/>
   </g>
   <g id="patch_34">
    <path d="M 107.954926 288.645994 
L 109.014381 288.645994 
L 109.014381 220.949769 
L 107.954926 220.949769 
z
" clip-path="url(#p2f27eedb8f)" style="fill: #1f77b4; opacity: 0.5"/>
   </g>
   <g id="patch_35">
    <path d="M 109.014381 288.645994 
L 110.073836 288.645994 
L 110.073836 223.090764 
L 109.014381 223.090764 
z
" clip-path="url(#p2f27eedb8f)" style="fill: #1f77b4; opacity: 0.5"/>
   </g>
   <g id="patch_36">
    <path d="M 110.073836 288.645994 
L 111.133291 288.645994 
L 111.133291 210.958459 
L 110.073836 210.958459 
z
" clip-path="url(#p2f27eedb8f)" style="fill: #1f77b4; opacity: 0.5"/>
   </g>
   <g id="patch_37">
    <path d="M 111.133291 288.645994 
L 112.192746 288.645994 
L 112.192746 233.184026 
L 111.133291 233.184026 
z
" clip-path="url(#p2f27eedb8f)" style="fill: #1f77b4; opacity: 0.5"/>
   </g>
   <g id="patch_38">
    <path d="M 112.192746 288.645994 
L 113.252201 288.645994 
L 113.252201 241.136294 
L 112.192746 241.136294 
z
" clip-path="url(#p2f27eedb8f)" style="fill: #1f77b4; opacity: 0.5"/>
   </g>
   <g id="patch_39">
    <path d="M 113.252201 288.645994 
L 114.311656 288.645994 
L 114.311656 247.661231 
L 113.252201 247.661231 
z
" clip-path="url(#p2f27eedb8f)" style="fill: #1f77b4; opacity: 0.5"/>
   </g>
   <g id="patch_40">
    <path d="M 114.311656 288.645994 
L 115.371111 288.645994 
L 115.371111 246.64171 
L 114.311656 246.64171 
z
" clip-path="url(#p2f27eedb8f)" style="fill: #1f77b4; opacity: 0.5"/>
   </g>
   <g id="patch_41">
    <path d="M 115.371111 288.645994 
L 116.430566 288.645994 
L 116.430566 244.806571 
L 115.371111 244.806571 
z
" clip-path="url(#p2f27eedb8f)" style="fill: #1f77b4; opacity: 0.5"/>
   </g>
   <g id="patch_42">
    <path d="M 116.430566 288.645994 
L 117.490022 288.645994 
L 117.490022 249.700274 
L 116.430566 249.700274 
z
" clip-path="url(#p2f27eedb8f)" style="fill: #1f77b4; opacity: 0.5"/>
   </g>
   <g id="patch_43">
    <path d="M 117.490022 288.645994 
L 118.549477 288.645994 
L 118.549477 248.986609 
L 117.490022 248.986609 
z
" clip-path="url(#p2f27eedb8f)" style="fill: #1f77b4; opacity: 0.5"/>
   </g>
   <g id="patch_44">
    <path d="M 118.549477 288.645994 
L 119.608932 288.645994 
L 119.608932 259.283776 
L 118.549477 259.283776 
z
" clip-path="url(#p2f27eedb8f)" style="fill: #1f77b4; opacity: 0.5"/>
   </g>
   <g id="patch_45">
    <path d="M 119.608932 288.645994 
L 120.668387 288.645994 
L 120.668387 255.817403 
L 119.608932 255.817403 
z
" clip-path="url(#p2f27eedb8f)" style="fill: #1f77b4; opacity: 0.5"/>
   </g>
   <g id="patch_46">
    <path d="M 120.668387 288.645994 
L 121.727842 288.645994 
L 121.727842 252.554934 
L 120.668387 252.554934 
z
" clip-path="url(#p2f27eedb8f)" style="fill: #1f77b4; opacity: 0.5"/>
   </g>
   <g id="patch_47">
    <path d="M 121.727842 288.645994 
L 122.787297 288.645994 
L 122.787297 261.628675 
L 121.727842 261.628675 
z
" clip-path="url(#p2f27eedb8f)" style="fill: #1f77b4; opacity: 0.5"/>
   </g>
   <g id="patch_48">
    <path d="M 122.787297 288.645994 
L 123.846752 288.645994 
L 123.846752 258.366206 
L 122.787297 258.366206 
z
" clip-path="url(#p2f27eedb8f)" style="fill: #1f77b4; opacity: 0.5"/>
   </g>
   <g id="patch_49">
    <path d="M 123.846752 288.645994 
L 124.906207 288.645994 
L 124.906207 261.730627 
L 123.846752 261.730627 
z
" clip-path="url(#p2f27eedb8f)" style="fill: #1f77b4; opacity: 0.5"/>
   </g>
   <g id="patch_50">
    <path d="M 124.906207 288.645994 
L 125.965662 288.645994 
L 125.965662 267.337995 
L 124.906207 267.337995 
z
" clip-path="url(#p2f27eedb8f)" style="fill: #1f77b4; opacity: 0.5"/>
   </g>
   <g id="patch_51">
    <path d="M 125.965662 288.645994 
L 127.025117 288.645994 
L 127.025117 267.847756 
L 125.965662 267.847756 
z
" clip-path="url(#p2f27eedb8f)" style="fill: #1f77b4; opacity: 0.5"/>
   </g>
   <g id="patch_52">
    <path d="M 127.025117 288.645994 
L 128.084572 288.645994 
L 128.084572 271.721937 
L 127.025117 271.721937 
z
" clip-path="url(#p2f27eedb8f)" style="fill: #1f77b4; opacity: 0.5"/>
   </g>
   <g id="patch_53">
    <path d="M 128.084572 288.645994 
L 129.144028 288.645994 
L 129.144028 271.925842 
L 128.084572 271.925842 
z
" clip-path="url(#p2f27eedb8f)" style="fill: #1f77b4; opacity: 0.5"/>
   </g>
   <g id="patch_54">
    <path d="M 129.144028 288.645994 
L 130.203483 288.645994 
L 130.203483 273.862932 
L 129.144028 273.862932 
z
" clip-path="url(#p2f27eedb8f)" style="fill: #1f77b4; opacity: 0.5"/>
   </g>
   <g id="patch_55">
    <path d="M 130.203483 288.645994 
L 131.262938 288.645994 
L 131.262938 276.411736 
L 130.203483 276.411736 
z
" clip-path="url(#p2f27eedb8f)" style="fill: #1f77b4; opacity: 0.5"/>
   </g>
   <g id="patch_56">
    <path d="M 131.262938 288.645994 
L 132.322393 288.645994 
L 132.322393 270.804368 
L 131.262938 270.804368 
z
" clip-path="url(#p2f27eedb8f)" style="fill: #1f77b4; opacity: 0.5"/>
   </g>
   <g id="patch_57">
    <path d="M 132.322393 288.645994 
L 133.381848 288.645994 
L 133.381848 275.494167 
L 132.322393 275.494167 
z
" clip-path="url(#p2f27eedb8f)" style="fill: #1f77b4; opacity: 0.5"/>
   </g>
   <g id="patch_58">
    <path d="M 133.381848 288.645994 
L 134.441303 288.645994 
L 134.441303 274.270741 
L 133.381848 274.270741 
z
" clip-path="url(#p2f27eedb8f)" style="fill: #1f77b4; opacity: 0.5"/>
   </g>
   <g id="patch_59">
    <path d="M 134.441303 288.645994 
L 135.500758 288.645994 
L 135.500758 270.39656 
L 134.441303 270.39656 
z
" clip-path="url(#p2f27eedb8f)" style="fill: #1f77b4; opacity: 0.5"/>
   </g>
   <g id="patch_60">
    <path d="M 135.500758 288.645994 
L 136.560213 288.645994 
L 136.560213 275.698071 
L 135.500758 275.698071 
z
" clip-path="url(#p2f27eedb8f)" style="fill: #1f77b4; opacity: 0.5"/>
   </g>
   <g id="patch_61">
    <path d="M 136.560213 288.645994 
L 137.619668 288.645994 
L 137.619668 272.843411 
L 136.560213 272.843411 
z
" clip-path="url(#p2f27eedb8f)" style="fill: #1f77b4; opacity: 0.5"/>
   </g>
   <g id="patch_62">
    <path d="M 137.619668 288.645994 
L 138.679123 288.645994 
L 138.679123 277.941018 
L 137.619668 277.941018 
z
" clip-path="url(#p2f27eedb8f)" style="fill: #1f77b4; opacity: 0.5"/>
   </g>
   <g id="patch_63">
    <path d="M 138.679123 288.645994 
L 139.738578 288.645994 
L 139.738578 275.494167 
L 138.679123 275.494167 
z
" clip-path="url(#p2f27eedb8f)" style="fill: #1f77b4; opacity: 0.5"/>
   </g>
   <g id="patch_64">
    <path d="M 139.738578 288.645994 
L 140.798033 288.645994 
L 140.798033 276.411736 
L 139.738578 276.411736 
z
" clip-path="url(#p2f27eedb8f)" style="fill: #1f77b4; opacity: 0.5"/>
   </g>
   <g id="patch_65">
    <path d="M 140.798033 288.645994 
L 141.857489 288.645994 
L 141.857489 277.329305 
L 140.798033 277.329305 
z
" clip-path="url(#p2f27eedb8f)" style="fill: #1f77b4; opacity: 0.5"/>
   </g>
   <g id="patch_66">
    <path d="M 141.857489 288.645994 
L 142.916944 288.645994 
L 142.916944 279.164444 
L 141.857489 279.164444 
z
" clip-path="url(#p2f27eedb8f)" style="fill: #1f77b4; opacity: 0.5"/>
   </g>
   <g id="patch_67">
    <path d="M 142.916944 288.645994 
L 143.976399 288.645994 
L 143.976399 280.285918 
L 142.916944 280.285918 
z
" clip-path="url(#p2f27eedb8f)" style="fill: #1f77b4; opacity: 0.5"/>
   </g>
   <g id="patch_68">
    <path d="M 143.976399 288.645994 
L 145.035854 288.645994 
L 145.035854 282.019104 
L 143.976399 282.019104 
z
" clip-path="url(#p2f27eedb8f)" style="fill: #1f77b4; opacity: 0.5"/>
   </g>
   <g id="patch_69">
    <path d="M 145.035854 288.645994 
L 146.095309 288.645994 
L 146.095309 280.38787 
L 145.035854 280.38787 
z
" clip-path="url(#p2f27eedb8f)" style="fill: #1f77b4; opacity: 0.5"/>
   </g>
   <g id="patch_70">
    <path d="M 146.095309 288.645994 
L 147.154764 288.645994 
L 147.154764 282.324961 
L 146.095309 282.324961 
z
" clip-path="url(#p2f27eedb8f)" style="fill: #1f77b4; opacity: 0.5"/>
   </g>
   <g id="patch_71">
    <path d="M 147.154764 288.645994 
L 148.214219 288.645994 
L 148.214219 282.223008 
L 147.154764 282.223008 
z
" clip-path="url(#p2f27eedb8f)" style="fill: #1f77b4; opacity: 0.5"/>
   </g>
   <g id="patch_72">
    <path d="M 148.214219 288.645994 
L 149.273674 288.645994 
L 149.273674 283.854243 
L 148.214219 283.854243 
z
" clip-path="url(#p2f27eedb8f)" style="fill: #1f77b4; opacity: 0.5"/>
   </g>
   <g id="patch_73">
    <path d="M 149.273674 288.645994 
L 150.333129 288.645994 
L 150.333129 284.465956 
L 149.273674 284.465956 
z
" clip-path="url(#p2f27eedb8f)" style="fill: #1f77b4; opacity: 0.5"/>
   </g>
   <g id="patch_74">
    <path d="M 150.333129 288.645994 
L 151.392584 288.645994 
L 151.392584 284.058147 
L 150.333129 284.058147 
z
" clip-path="url(#p2f27eedb8f)" style="fill: #1f77b4; opacity: 0.5"/>
   </g>
   <g id="patch_75">
    <path d="M 151.392584 288.645994 
L 152.452039 288.645994 
L 152.452039 284.465956 
L 151.392584 284.465956 
z
" clip-path="url(#p2f27eedb8f)" style="fill: #1f77b4; opacity: 0.5"/>
   </g>
   <g id="patch_76">
    <path d="M 152.452039 288.645994 
L 153.511494 288.645994 
L 153.511494 286.199142 
L 152.452039 286.199142 
z
" clip-path="url(#p2f27eedb8f)" style="fill: #1f77b4; opacity: 0.5"/>
   </g>
   <g id="patch_77">
    <path d="M 153.511494 288.645994 
L 154.57095 288.645994 
L 154.57095 285.281573 
L 153.511494 285.281573 
z
" clip-path="url(#p2f27eedb8f)" style="fill: #1f77b4; opacity: 0.5"/>
   </g>
   <g id="patch_78">
    <path d="M 154.57095 288.645994 
L 155.630405 288.645994 
L 155.630405 285.077668 
L 154.57095 285.077668 
z
" clip-path="url(#p2f27eedb8f)" style="fill: #1f77b4; opacity: 0.5"/>
   </g>
   <g id="patch_79">
    <path d="M 155.630405 288.645994 
L 156.68986 288.645994 
L 156.68986 285.587429 
L 155.630405 285.587429 
z
" clip-path="url(#p2f27eedb8f)" style="fill: #1f77b4; opacity: 0.5"/>
   </g>
   <g id="patch_80">
    <path d="M 156.68986 288.645994 
L 157.749315 288.645994 
L 157.749315 286.708903 
L 156.68986 286.708903 
z
" clip-path="url(#p2f27eedb8f)" style="fill: #1f77b4; opacity: 0.5"/>
   </g>
   <g id="patch_81">
    <path d="M 157.749315 288.645994 
L 158.80877 288.645994 
L 158.80877 285.995238 
L 157.749315 285.995238 
z
" clip-path="url(#p2f27eedb8f)" style="fill: #1f77b4; opacity: 0.5"/>
   </g>
   <g id="patch_82">
    <path d="M 158.80877 288.645994 
L 159.868225 288.645994 
L 159.868225 285.485477 
L 158.80877 285.485477 
z
" clip-path="url(#p2f27eedb8f)" style="fill: #1f77b4; opacity: 0.5"/>
   </g>
   <g id="patch_83">
    <path d="M 159.868225 288.645994 
L 160.92768 288.645994 
L 160.92768 285.995238 
L 159.868225 285.995238 
z
" clip-path="url(#p2f27eedb8f)" style="fill: #1f77b4; opacity: 0.5"/>
   </g>
   <g id="patch_84">
    <path d="M 160.92768 288.645994 
L 161.987135 288.645994 
L 161.987135 285.791333 
L 160.92768 285.791333 
z
" clip-path="url(#p2f27eedb8f)" style="fill: #1f77b4; opacity: 0.5"/>
   </g>
   <g id="patch_85">
    <path d="M 161.987135 288.645994 
L 163.04659 288.645994 
L 163.04659 287.626472 
L 161.987135 287.626472 
z
" clip-path="url(#p2f27eedb8f)" style="fill: #1f77b4; opacity: 0.5"/>
   </g>
   <g id="patch_86">
    <path d="M 163.04659 288.645994 
L 164.106045 288.645994 
L 164.106045 285.485477 
L 163.04659 285.485477 
z
" clip-path="url(#p2f27eedb8f)" style="fill: #1f77b4; opacity: 0.5"/>
   </g>
   <g id="patch_87">
    <path d="M 164.106045 288.645994 
L 165.1655 288.645994 
L 165.1655 286.504998 
L 164.106045 286.504998 
z
" clip-path="url(#p2f27eedb8f)" style="fill: #1f77b4; opacity: 0.5"/>
   </g>
   <g id="patch_88">
    <path d="M 165.1655 288.645994 
L 166.224955 288.645994 
L 166.224955 286.09719 
L 165.1655 286.09719 
z
" clip-path="url(#p2f27eedb8f)" style="fill: #1f77b4; opacity: 0.5"/>
   </g>
   <g id="patch_89">
    <path d="M 166.224955 288.645994 
L 167.284411 288.645994 
L 167.284411 285.893286 
L 166.224955 285.893286 
z
" clip-path="url(#p2f27eedb8f)" style="fill: #1f77b4; opacity: 0.5"/>
   </g>
   <g id="patch_90">
    <path d="M 167.284411 288.645994 
L 168.343866 288.645994 
L 168.343866 287.218664 
L 167.284411 287.218664 
z
" clip-path="url(#p2f27eedb8f)" style="fill: #1f77b4; opacity: 0.5"/>
   </g>
   <g id="patch_91">
    <path d="M 168.343866 288.645994 
L 169.403321 288.645994 
L 169.403321 287.422568 
L 168.343866 287.422568 
z
" clip-path="url(#p2f27eedb8f)" style="fill: #1f77b4; opacity: 0.5"/>
   </g>
   <g id="patch_92">
    <path d="M 169.403321 288.645994 
L 170.462776 288.645994 
L 170.462776 286.606951 
L 169.403321 286.606951 
z
" clip-path="url(#p2f27eedb8f)" style="fill: #1f77b4; opacity: 0.5"/>
   </g>
   <g id="patch_93">
    <path d="M 170.462776 288.645994 
L 171.522231 288.645994 
L 171.522231 287.52452 
L 170.462776 287.52452 
z
" clip-path="url(#p2f27eedb8f)" style="fill: #1f77b4; opacity: 0.5"/>
   </g>
   <g id="patch_94">
    <path d="M 171.522231 288.645994 
L 172.581686 288.645994 
L 172.581686 288.136233 
L 171.522231 288.136233 
z
" clip-path="url(#p2f27eedb8f)" style="fill: #1f77b4; opacity: 0.5"/>
   </g>
   <g id="patch_95">
    <path d="M 172.581686 288.645994 
L 173.641141 288.645994 
L 173.641141 286.403046 
L 172.581686 286.403046 
z
" clip-path="url(#p2f27eedb8f)" style="fill: #1f77b4; opacity: 0.5"/>
   </g>
   <g id="patch_96">
    <path d="M 173.641141 288.645994 
L 174.700596 288.645994 
L 174.700596 287.218664 
L 173.641141 287.218664 
z
" clip-path="url(#p2f27eedb8f)" style="fill: #1f77b4; opacity: 0.5"/>
   </g>
   <g id="patch_97">
    <path d="M 174.700596 288.645994 
L 175.760051 288.645994 
L 175.760051 286.912807 
L 174.700596 286.912807 
z
" clip-path="url(#p2f27eedb8f)" style="fill: #1f77b4; opacity: 0.5"/>
   </g>
   <g id="patch_98">
    <path d="M 175.760051 288.645994 
L 176.819506 288.645994 
L 176.819506 287.932329 
L 175.760051 287.932329 
z
" clip-path="url(#p2f27eedb8f)" style="fill: #1f77b4; opacity: 0.5"/>
   </g>
   <g id="patch_99">
    <path d="M 176.819506 288.645994 
L 177.878961 288.645994 
L 177.878961 288.034281 
L 176.819506 288.034281 
z
" clip-path="url(#p2f27eedb8f)" style="fill: #1f77b4; opacity: 0.5"/>
   </g>
   <g id="patch_100">
    <path d="M 177.878961 288.645994 
L 178.938417 288.645994 
L 178.938417 287.728424 
L 177.878961 287.728424 
z
" clip-path="url(#p2f27eedb8f)" style="fill: #1f77b4; opacity: 0.5"/>
   </g>
   <g id="patch_101">
    <path d="M 178.938417 288.645994 
L 179.997872 288.645994 
L 179.997872 288.340137 
L 178.938417 288.340137 
z
" clip-path="url(#p2f27eedb8f)" style="fill: #1f77b4; opacity: 0.5"/>
   </g>
   <g id="patch_102">
    <path d="M 179.997872 288.645994 
L 181.057327 288.645994 
L 181.057327 288.136233 
L 179.997872 288.136233 
z
" clip-path="url(#p2f27eedb8f)" style="fill: #1f77b4; opacity: 0.5"/>
   </g>
   <g id="patch_103">
    <path d="M 181.057327 288.645994 
L 182.116782 288.645994 
L 182.116782 288.136233 
L 181.057327 288.136233 
z
" clip-path="url(#p2f27eedb8f)" style="fill: #1f77b4; opacity: 0.5"/>
   </g>
   <g id="patch_104">
    <path d="M 182.116782 288.645994 
L 183.176237 288.645994 
L 183.176237 288.238185 
L 182.116782 288.238185 
z
" clip-path="url(#p2f27eedb8f)" style="fill: #1f77b4; opacity: 0.5"/>
   </g>
   <g id="patch_105">
    <path d="M 183.176237 288.645994 
L 184.235692 288.645994 
L 184.235692 288.136233 
L 183.176237 288.136233 
z
" clip-path="url(#p2f27eedb8f)" style="fill: #1f77b4; opacity: 0.5"/>
   </g>
   <g id="patch_106">
    <path d="M 184.235692 288.645994 
L 185.295147 288.645994 
L 185.295147 287.728424 
L 184.235692 287.728424 
z
" clip-path="url(#p2f27eedb8f)" style="fill: #1f77b4; opacity: 0.5"/>
   </g>
   <g id="patch_107">
    <path d="M 185.295147 288.645994 
L 186.354602 288.645994 
L 186.354602 288.136233 
L 185.295147 288.136233 
z
" clip-path="url(#p2f27eedb8f)" style="fill: #1f77b4; opacity: 0.5"/>
   </g>
   <g id="patch_108">
    <path d="M 186.354602 288.645994 
L 187.414057 288.645994 
L 187.414057 288.340137 
L 186.354602 288.340137 
z
" clip-path="url(#p2f27eedb8f)" style="fill: #1f77b4; opacity: 0.5"/>
   </g>
   <g id="patch_109">
    <path d="M 187.414057 288.645994 
L 188.473512 288.645994 
L 188.473512 288.442089 
L 187.414057 288.442089 
z
" clip-path="url(#p2f27eedb8f)" style="fill: #1f77b4; opacity: 0.5"/>
   </g>
   <g id="patch_110">
    <path d="M 188.473512 288.645994 
L 189.532967 288.645994 
L 189.532967 288.340137 
L 188.473512 288.340137 
z
" clip-path="url(#p2f27eedb8f)" style="fill: #1f77b4; opacity: 0.5"/>
   </g>
   <g id="patch_111">
    <path d="M 189.532967 288.645994 
L 190.592422 288.645994 
L 190.592422 288.442089 
L 189.532967 288.442089 
z
" clip-path="url(#p2f27eedb8f)" style="fill: #1f77b4; opacity: 0.5"/>
   </g>
   <g id="patch_112">
    <path d="M 190.592422 288.645994 
L 191.651878 288.645994 
L 191.651878 288.442089 
L 190.592422 288.442089 
z
" clip-path="url(#p2f27eedb8f)" style="fill: #1f77b4; opacity: 0.5"/>
   </g>
   <g id="patch_113">
    <path d="M 191.651878 288.645994 
L 192.711333 288.645994 
L 192.711333 288.645994 
L 191.651878 288.645994 
z
" clip-path="url(#p2f27eedb8f)" style="fill: #1f77b4; opacity: 0.5"/>
   </g>
   <g id="patch_114">
    <path d="M 192.711333 288.645994 
L 193.770788 288.645994 
L 193.770788 287.728424 
L 192.711333 287.728424 
z
" clip-path="url(#p2f27eedb8f)" style="fill: #1f77b4; opacity: 0.5"/>
   </g>
   <g id="patch_115">
    <path d="M 193.770788 288.645994 
L 194.830243 288.645994 
L 194.830243 288.340137 
L 193.770788 288.340137 
z
" clip-path="url(#p2f27eedb8f)" style="fill: #1f77b4; opacity: 0.5"/>
   </g>
   <g id="patch_116">
    <path d="M 194.830243 288.645994 
L 195.889698 288.645994 
L 195.889698 287.932329 
L 194.830243 287.932329 
z
" clip-path="url(#p2f27eedb8f)" style="fill: #1f77b4; opacity: 0.5"/>
   </g>
   <g id="patch_117">
    <path d="M 195.889698 288.645994 
L 196.949153 288.645994 
L 196.949153 288.544041 
L 195.889698 288.544041 
z
" clip-path="url(#p2f27eedb8f)" style="fill: #1f77b4; opacity: 0.5"/>
   </g>
   <g id="patch_118">
    <path d="M 196.949153 288.645994 
L 198.008608 288.645994 
L 198.008608 287.728424 
L 196.949153 287.728424 
z
" clip-path="url(#p2f27eedb8f)" style="fill: #1f77b4; opacity: 0.5"/>
   </g>
   <g id="patch_119">
    <path d="M 198.008608 288.645994 
L 199.068063 288.645994 
L 199.068063 288.544041 
L 198.008608 288.544041 
z
" clip-path="url(#p2f27eedb8f)" style="fill: #1f77b4; opacity: 0.5"/>
   </g>
   <g id="patch_120">
    <path d="M 199.068063 288.645994 
L 200.127518 288.645994 
L 200.127518 288.544041 
L 199.068063 288.544041 
z
" clip-path="url(#p2f27eedb8f)" style="fill: #1f77b4; opacity: 0.5"/>
   </g>
   <g id="patch_121">
    <path d="M 200.127518 288.645994 
L 201.186973 288.645994 
L 201.186973 288.238185 
L 200.127518 288.238185 
z
" clip-path="url(#p2f27eedb8f)" style="fill: #1f77b4; opacity: 0.5"/>
   </g>
   <g id="patch_122">
    <path d="M 201.186973 288.645994 
L 202.246428 288.645994 
L 202.246428 288.442089 
L 201.186973 288.442089 
z
" clip-path="url(#p2f27eedb8f)" style="fill: #1f77b4; opacity: 0.5"/>
   </g>
   <g id="patch_123">
    <path d="M 202.246428 288.645994 
L 203.305883 288.645994 
L 203.305883 288.544041 
L 202.246428 288.544041 
z
" clip-path="url(#p2f27eedb8f)" style="fill: #1f77b4; opacity: 0.5"/>
   </g>
   <g id="patch_124">
    <path d="M 203.305883 288.645994 
L 204.365339 288.645994 
L 204.365339 288.645994 
L 203.305883 288.645994 
z
" clip-path="url(#p2f27eedb8f)" style="fill: #1f77b4; opacity: 0.5"/>
   </g>
   <g id="patch_125">
    <path d="M 204.365339 288.645994 
L 205.424794 288.645994 
L 205.424794 288.645994 
L 204.365339 288.645994 
z
" clip-path="url(#p2f27eedb8f)" style="fill: #1f77b4; opacity: 0.5"/>
   </g>
   <g id="patch_126">
    <path d="M 205.424794 288.645994 
L 206.484249 288.645994 
L 206.484249 288.442089 
L 205.424794 288.442089 
z
" clip-path="url(#p2f27eedb8f)" style="fill: #1f77b4; opacity: 0.5"/>
   </g>
   <g id="patch_127">
    <path d="M 206.484249 288.645994 
L 207.543704 288.645994 
L 207.543704 288.034281 
L 206.484249 288.034281 
z
" clip-path="url(#p2f27eedb8f)" style="fill: #1f77b4; opacity: 0.5"/>
   </g>
   <g id="patch_128">
    <path d="M 207.543704 288.645994 
L 208.603159 288.645994 
L 208.603159 288.544041 
L 207.543704 288.544041 
z
" clip-path="url(#p2f27eedb8f)" style="fill: #1f77b4; opacity: 0.5"/>
   </g>
   <g id="patch_129">
    <path d="M 208.603159 288.645994 
L 209.662614 288.645994 
L 209.662614 288.340137 
L 208.603159 288.340137 
z
" clip-path="url(#p2f27eedb8f)" style="fill: #1f77b4; opacity: 0.5"/>
   </g>
   <g id="patch_130">
    <path d="M 209.662614 288.645994 
L 210.722069 288.645994 
L 210.722069 288.340137 
L 209.662614 288.340137 
z
" clip-path="url(#p2f27eedb8f)" style="fill: #1f77b4; opacity: 0.5"/>
   </g>
   <g id="patch_131">
    <path d="M 210.722069 288.645994 
L 211.781524 288.645994 
L 211.781524 288.544041 
L 210.722069 288.544041 
z
" clip-path="url(#p2f27eedb8f)" style="fill: #1f77b4; opacity: 0.5"/>
   </g>
   <g id="patch_132">
    <path d="M 211.781524 288.645994 
L 212.840979 288.645994 
L 212.840979 288.645994 
L 211.781524 288.645994 
z
" clip-path="url(#p2f27eedb8f)" style="fill: #1f77b4; opacity: 0.5"/>
   </g>
   <g id="patch_133">
    <path d="M 212.840979 288.645994 
L 213.900434 288.645994 
L 213.900434 288.544041 
L 212.840979 288.544041 
z
" clip-path="url(#p2f27eedb8f)" style="fill: #1f77b4; opacity: 0.5"/>
   </g>
   <g id="patch_134">
    <path d="M 213.900434 288.645994 
L 214.959889 288.645994 
L 214.959889 288.645994 
L 213.900434 288.645994 
z
" clip-path="url(#p2f27eedb8f)" style="fill: #1f77b4; opacity: 0.5"/>
   </g>
   <g id="patch_135">
    <path d="M 214.959889 288.645994 
L 216.019344 288.645994 
L 216.019344 288.442089 
L 214.959889 288.442089 
z
" clip-path="url(#p2f27eedb8f)" style="fill: #1f77b4; opacity: 0.5"/>
   </g>
   <g id="patch_136">
    <path d="M 216.019344 288.645994 
L 217.0788 288.645994 
L 217.0788 288.645994 
L 216.019344 288.645994 
z
" clip-path="url(#p2f27eedb8f)" style="fill: #1f77b4; opacity: 0.5"/>
   </g>
   <g id="patch_137">
    <path d="M 217.0788 288.645994 
L 218.138255 288.645994 
L 218.138255 288.442089 
L 217.0788 288.442089 
z
" clip-path="url(#p2f27eedb8f)" style="fill: #1f77b4; opacity: 0.5"/>
   </g>
   <g id="patch_138">
    <path d="M 218.138255 288.645994 
L 219.19771 288.645994 
L 219.19771 288.544041 
L 218.138255 288.544041 
z
" clip-path="url(#p2f27eedb8f)" style="fill: #1f77b4; opacity: 0.5"/>
   </g>
   <g id="patch_139">
    <path d="M 219.19771 288.645994 
L 220.257165 288.645994 
L 220.257165 288.544041 
L 219.19771 288.544041 
z
" clip-path="url(#p2f27eedb8f)" style="fill: #1f77b4; opacity: 0.5"/>
   </g>
   <g id="patch_140">
    <path d="M 220.257165 288.645994 
L 221.31662 288.645994 
L 221.31662 288.645994 
L 220.257165 288.645994 
z
" clip-path="url(#p2f27eedb8f)" style="fill: #1f77b4; opacity: 0.5"/>
   </g>
   <g id="patch_141">
    <path d="M 221.31662 288.645994 
L 222.376075 288.645994 
L 222.376075 288.238185 
L 221.31662 288.238185 
z
" clip-path="url(#p2f27eedb8f)" style="fill: #1f77b4; opacity: 0.5"/>
   </g>
   <g id="patch_142">
    <path d="M 222.376075 288.645994 
L 223.43553 288.645994 
L 223.43553 288.645994 
L 222.376075 288.645994 
z
" clip-path="url(#p2f27eedb8f)" style="fill: #1f77b4; opacity: 0.5"/>
   </g>
   <g id="patch_143">
    <path d="M 223.43553 288.645994 
L 224.494985 288.645994 
L 224.494985 288.442089 
L 223.43553 288.442089 
z
" clip-path="url(#p2f27eedb8f)" style="fill: #1f77b4; opacity: 0.5"/>
   </g>
   <g id="patch_144">
    <path d="M 224.494985 288.645994 
L 225.55444 288.645994 
L 225.55444 288.544041 
L 224.494985 288.544041 
z
" clip-path="url(#p2f27eedb8f)" style="fill: #1f77b4; opacity: 0.5"/>
   </g>
   <g id="patch_145">
    <path d="M 225.55444 288.645994 
L 226.613895 288.645994 
L 226.613895 288.340137 
L 225.55444 288.340137 
z
" clip-path="url(#p2f27eedb8f)" style="fill: #1f77b4; opacity: 0.5"/>
   </g>
   <g id="patch_146">
    <path d="M 226.613895 288.645994 
L 227.67335 288.645994 
L 227.67335 288.645994 
L 226.613895 288.645994 
z
" clip-path="url(#p2f27eedb8f)" style="fill: #1f77b4; opacity: 0.5"/>
   </g>
   <g id="patch_147">
    <path d="M 227.67335 288.645994 
L 228.732806 288.645994 
L 228.732806 288.645994 
L 227.67335 288.645994 
z
" clip-path="url(#p2f27eedb8f)" style="fill: #1f77b4; opacity: 0.5"/>
   </g>
   <g id="patch_148">
    <path d="M 228.732806 288.645994 
L 229.792261 288.645994 
L 229.792261 288.645994 
L 228.732806 288.645994 
z
" clip-path="url(#p2f27eedb8f)" style="fill: #1f77b4; opacity: 0.5"/>
   </g>
   <g id="patch_149">
    <path d="M 229.792261 288.645994 
L 230.851716 288.645994 
L 230.851716 288.442089 
L 229.792261 288.442089 
z
" clip-path="url(#p2f27eedb8f)" style="fill: #1f77b4; opacity: 0.5"/>
   </g>
   <g id="patch_150">
    <path d="M 230.851716 288.645994 
L 231.911171 288.645994 
L 231.911171 288.238185 
L 230.851716 288.238185 
z
" clip-path="url(#p2f27eedb8f)" style="fill: #1f77b4; opacity: 0.5"/>
   </g>
   <g id="patch_151">
    <path d="M 231.911171 288.645994 
L 232.970626 288.645994 
L 232.970626 288.442089 
L 231.911171 288.442089 
z
" clip-path="url(#p2f27eedb8f)" style="fill: #1f77b4; opacity: 0.5"/>
   </g>
   <g id="patch_152">
    <path d="M 232.970626 288.645994 
L 234.030081 288.645994 
L 234.030081 288.645994 
L 232.970626 288.645994 
z
" clip-path="url(#p2f27eedb8f)" style="fill: #1f77b4; opacity: 0.5"/>
   </g>
   <g id="patch_153">
    <path d="M 234.030081 288.645994 
L 235.089536 288.645994 
L 235.089536 288.645994 
L 234.030081 288.645994 
z
" clip-path="url(#p2f27eedb8f)" style="fill: #1f77b4; opacity: 0.5"/>
   </g>
   <g id="patch_154">
    <path d="M 235.089536 288.645994 
L 236.148991 288.645994 
L 236.148991 288.442089 
L 235.089536 288.442089 
z
" clip-path="url(#p2f27eedb8f)" style="fill: #1f77b4; opacity: 0.5"/>
   </g>
   <g id="patch_155">
    <path d="M 236.148991 288.645994 
L 237.208446 288.645994 
L 237.208446 288.340137 
L 236.148991 288.340137 
z
" clip-path="url(#p2f27eedb8f)" style="fill: #1f77b4; opacity: 0.5"/>
   </g>
   <g id="patch_156">
    <path d="M 237.208446 288.645994 
L 238.267901 288.645994 
L 238.267901 288.442089 
L 237.208446 288.442089 
z
" clip-path="url(#p2f27eedb8f)" style="fill: #1f77b4; opacity: 0.5"/>
   </g>
   <g id="patch_157">
    <path d="M 238.267901 288.645994 
L 239.327356 288.645994 
L 239.327356 288.544041 
L 238.267901 288.544041 
z
" clip-path="url(#p2f27eedb8f)" style="fill: #1f77b4; opacity: 0.5"/>
   </g>
   <g id="patch_158">
    <path d="M 239.327356 288.645994 
L 240.386811 288.645994 
L 240.386811 288.645994 
L 239.327356 288.645994 
z
" clip-path="url(#p2f27eedb8f)" style="fill: #1f77b4; opacity: 0.5"/>
   </g>
   <g id="patch_159">
    <path d="M 240.386811 288.645994 
L 241.446267 288.645994 
L 241.446267 288.645994 
L 240.386811 288.645994 
z
" clip-path="url(#p2f27eedb8f)" style="fill: #1f77b4; opacity: 0.5"/>
   </g>
   <g id="patch_160">
    <path d="M 241.446267 288.645994 
L 242.505722 288.645994 
L 242.505722 288.645994 
L 241.446267 288.645994 
z
" clip-path="url(#p2f27eedb8f)" style="fill: #1f77b4; opacity: 0.5"/>
   </g>
   <g id="patch_161">
    <path d="M 242.505722 288.645994 
L 243.565177 288.645994 
L 243.565177 288.645994 
L 242.505722 288.645994 
z
" clip-path="url(#p2f27eedb8f)" style="fill: #1f77b4; opacity: 0.5"/>
   </g>
   <g id="patch_162">
    <path d="M 243.565177 288.645994 
L 244.624632 288.645994 
L 244.624632 288.645994 
L 243.565177 288.645994 
z
" clip-path="url(#p2f27eedb8f)" style="fill: #1f77b4; opacity: 0.5"/>
   </g>
   <g id="patch_163">
    <path d="M 244.624632 288.645994 
L 245.684087 288.645994 
L 245.684087 288.442089 
L 244.624632 288.442089 
z
" clip-path="url(#p2f27eedb8f)" style="fill: #1f77b4; opacity: 0.5"/>
   </g>
   <g id="patch_164">
    <path d="M 245.684087 288.645994 
L 246.743542 288.645994 
L 246.743542 288.645994 
L 245.684087 288.645994 
z
" clip-path="url(#p2f27eedb8f)" style="fill: #1f77b4; opacity: 0.5"/>
   </g>
   <g id="patch_165">
    <path d="M 246.743542 288.645994 
L 247.802997 288.645994 
L 247.802997 288.645994 
L 246.743542 288.645994 
z
" clip-path="url(#p2f27eedb8f)" style="fill: #1f77b4; opacity: 0.5"/>
   </g>
   <g id="patch_166">
    <path d="M 247.802997 288.645994 
L 248.862452 288.645994 
L 248.862452 288.645994 
L 247.802997 288.645994 
z
" clip-path="url(#p2f27eedb8f)" style="fill: #1f77b4; opacity: 0.5"/>
   </g>
   <g id="patch_167">
    <path d="M 248.862452 288.645994 
L 249.921907 288.645994 
L 249.921907 288.645994 
L 248.862452 288.645994 
z
" clip-path="url(#p2f27eedb8f)" style="fill: #1f77b4; opacity: 0.5"/>
   </g>
   <g id="patch_168">
    <path d="M 249.921907 288.645994 
L 250.981362 288.645994 
L 250.981362 288.645994 
L 249.921907 288.645994 
z
" clip-path="url(#p2f27eedb8f)" style="fill: #1f77b4; opacity: 0.5"/>
   </g>
   <g id="patch_169">
    <path d="M 250.981362 288.645994 
L 252.040817 288.645994 
L 252.040817 288.645994 
L 250.981362 288.645994 
z
" clip-path="url(#p2f27eedb8f)" style="fill: #1f77b4; opacity: 0.5"/>
   </g>
   <g id="patch_170">
    <path d="M 252.040817 288.645994 
L 253.100272 288.645994 
L 253.100272 288.645994 
L 252.040817 288.645994 
z
" clip-path="url(#p2f27eedb8f)" style="fill: #1f77b4; opacity: 0.5"/>
   </g>
   <g id="patch_171">
    <path d="M 253.100272 288.645994 
L 254.159728 288.645994 
L 254.159728 288.645994 
L 253.100272 288.645994 
z
" clip-path="url(#p2f27eedb8f)" style="fill: #1f77b4; opacity: 0.5"/>
   </g>
   <g id="patch_172">
    <path d="M 254.159728 288.645994 
L 255.219183 288.645994 
L 255.219183 288.645994 
L 254.159728 288.645994 
z
" clip-path="url(#p2f27eedb8f)" style="fill: #1f77b4; opacity: 0.5"/>
   </g>
   <g id="patch_173">
    <path d="M 255.219183 288.645994 
L 256.278638 288.645994 
L 256.278638 288.645994 
L 255.219183 288.645994 
z
" clip-path="url(#p2f27eedb8f)" style="fill: #1f77b4; opacity: 0.5"/>
   </g>
   <g id="patch_174">
    <path d="M 256.278638 288.645994 
L 257.338093 288.645994 
L 257.338093 288.544041 
L 256.278638 288.544041 
z
" clip-path="url(#p2f27eedb8f)" style="fill: #1f77b4; opacity: 0.5"/>
   </g>
   <g id="patch_175">
    <path d="M 257.338093 288.645994 
L 258.397548 288.645994 
L 258.397548 288.645994 
L 257.338093 288.645994 
z
" clip-path="url(#p2f27eedb8f)" style="fill: #1f77b4; opacity: 0.5"/>
   </g>
   <g id="patch_176">
    <path d="M 258.397548 288.645994 
L 259.457003 288.645994 
L 259.457003 288.645994 
L 258.397548 288.645994 
z
" clip-path="url(#p2f27eedb8f)" style="fill: #1f77b4; opacity: 0.5"/>
   </g>
   <g id="patch_177">
    <path d="M 259.457003 288.645994 
L 260.516458 288.645994 
L 260.516458 288.645994 
L 259.457003 288.645994 
z
" clip-path="url(#p2f27eedb8f)" style="fill: #1f77b4; opacity: 0.5"/>
   </g>
   <g id="patch_178">
    <path d="M 260.516458 288.645994 
L 261.575913 288.645994 
L 261.575913 288.645994 
L 260.516458 288.645994 
z
" clip-path="url(#p2f27eedb8f)" style="fill: #1f77b4; opacity: 0.5"/>
   </g>
   <g id="patch_179">
    <path d="M 261.575913 288.645994 
L 262.635368 288.645994 
L 262.635368 288.645994 
L 261.575913 288.645994 
z
" clip-path="url(#p2f27eedb8f)" style="fill: #1f77b4; opacity: 0.5"/>
   </g>
   <g id="patch_180">
    <path d="M 262.635368 288.645994 
L 263.694823 288.645994 
L 263.694823 288.645994 
L 262.635368 288.645994 
z
" clip-path="url(#p2f27eedb8f)" style="fill: #1f77b4; opacity: 0.5"/>
   </g>
   <g id="patch_181">
    <path d="M 263.694823 288.645994 
L 264.754278 288.645994 
L 264.754278 288.645994 
L 263.694823 288.645994 
z
" clip-path="url(#p2f27eedb8f)" style="fill: #1f77b4; opacity: 0.5"/>
   </g>
   <g id="patch_182">
    <path d="M 264.754278 288.645994 
L 265.813733 288.645994 
L 265.813733 288.645994 
L 264.754278 288.645994 
z
" clip-path="url(#p2f27eedb8f)" style="fill: #1f77b4; opacity: 0.5"/>
   </g>
   <g id="patch_183">
    <path d="M 265.813733 288.645994 
L 266.873189 288.645994 
L 266.873189 288.645994 
L 265.813733 288.645994 
z
" clip-path="url(#p2f27eedb8f)" style="fill: #1f77b4; opacity: 0.5"/>
   </g>
   <g id="patch_184">
    <path d="M 266.873189 288.645994 
L 267.932644 288.645994 
L 267.932644 288.645994 
L 266.873189 288.645994 
z
" clip-path="url(#p2f27eedb8f)" style="fill: #1f77b4; opacity: 0.5"/>
   </g>
   <g id="patch_185">
    <path d="M 267.932644 288.645994 
L 268.992099 288.645994 
L 268.992099 288.645994 
L 267.932644 288.645994 
z
" clip-path="url(#p2f27eedb8f)" style="fill: #1f77b4; opacity: 0.5"/>
   </g>
   <g id="patch_186">
    <path d="M 268.992099 288.645994 
L 270.051554 288.645994 
L 270.051554 288.645994 
L 268.992099 288.645994 
z
" clip-path="url(#p2f27eedb8f)" style="fill: #1f77b4; opacity: 0.5"/>
   </g>
   <g id="patch_187">
    <path d="M 270.051554 288.645994 
L 271.111009 288.645994 
L 271.111009 288.645994 
L 270.051554 288.645994 
z
" clip-path="url(#p2f27eedb8f)" style="fill: #1f77b4; opacity: 0.5"/>
   </g>
   <g id="patch_188">
    <path d="M 271.111009 288.645994 
L 272.170464 288.645994 
L 272.170464 288.645994 
L 271.111009 288.645994 
z
" clip-path="url(#p2f27eedb8f)" style="fill: #1f77b4; opacity: 0.5"/>
   </g>
   <g id="patch_189">
    <path d="M 272.170464 288.645994 
L 273.229919 288.645994 
L 273.229919 288.645994 
L 272.170464 288.645994 
z
" clip-path="url(#p2f27eedb8f)" style="fill: #1f77b4; opacity: 0.5"/>
   </g>
   <g id="patch_190">
    <path d="M 273.229919 288.645994 
L 274.289374 288.645994 
L 274.289374 288.544041 
L 273.229919 288.544041 
z
" clip-path="url(#p2f27eedb8f)" style="fill: #1f77b4; opacity: 0.5"/>
   </g>
   <g id="patch_191">
    <path d="M 274.289374 288.645994 
L 275.348829 288.645994 
L 275.348829 288.645994 
L 274.289374 288.645994 
z
" clip-path="url(#p2f27eedb8f)" style="fill: #1f77b4; opacity: 0.5"/>
   </g>
   <g id="patch_192">
    <path d="M 275.348829 288.645994 
L 276.408284 288.645994 
L 276.408284 288.645994 
L 275.348829 288.645994 
z
" clip-path="url(#p2f27eedb8f)" style="fill: #1f77b4; opacity: 0.5"/>
   </g>
   <g id="patch_193">
    <path d="M 276.408284 288.645994 
L 277.467739 288.645994 
L 277.467739 288.645994 
L 276.408284 288.645994 
z
" clip-path="url(#p2f27eedb8f)" style="fill: #1f77b4; opacity: 0.5"/>
   </g>
   <g id="patch_194">
    <path d="M 277.467739 288.645994 
L 278.527194 288.645994 
L 278.527194 288.544041 
L 277.467739 288.544041 
z
" clip-path="url(#p2f27eedb8f)" style="fill: #1f77b4; opacity: 0.5"/>
   </g>
   <g id="patch_195">
    <path d="M 278.527194 288.645994 
L 279.58665 288.645994 
L 279.58665 288.442089 
L 278.527194 288.442089 
z
" clip-path="url(#p2f27eedb8f)" style="fill: #1f77b4; opacity: 0.5"/>
   </g>
   <g id="patch_196">
    <path d="M 279.58665 288.645994 
L 280.646105 288.645994 
L 280.646105 288.645994 
L 279.58665 288.645994 
z
" clip-path="url(#p2f27eedb8f)" style="fill: #1f77b4; opacity: 0.5"/>
   </g>
   <g id="patch_197">
    <path d="M 280.646105 288.645994 
L 281.70556 288.645994 
L 281.70556 288.645994 
L 280.646105 288.645994 
z
" clip-path="url(#p2f27eedb8f)" style="fill: #1f77b4; opacity: 0.5"/>
   </g>
   <g id="patch_198">
    <path d="M 281.70556 288.645994 
L 282.765015 288.645994 
L 282.765015 288.645994 
L 281.70556 288.645994 
z
" clip-path="url(#p2f27eedb8f)" style="fill: #1f77b4; opacity: 0.5"/>
   </g>
   <g id="patch_199">
    <path d="M 282.765015 288.645994 
L 283.82447 288.645994 
L 283.82447 288.645994 
L 282.765015 288.645994 
z
" clip-path="url(#p2f27eedb8f)" style="fill: #1f77b4; opacity: 0.5"/>
   </g>
   <g id="patch_200">
    <path d="M 283.82447 288.645994 
L 284.883925 288.645994 
L 284.883925 288.442089 
L 283.82447 288.442089 
z
" clip-path="url(#p2f27eedb8f)" style="fill: #1f77b4; opacity: 0.5"/>
   </g>
   <g id="patch_201">
    <path d="M 284.883925 288.645994 
L 285.94338 288.645994 
L 285.94338 288.645994 
L 284.883925 288.645994 
z
" clip-path="url(#p2f27eedb8f)" style="fill: #1f77b4; opacity: 0.5"/>
   </g>
   <g id="patch_202">
    <path d="M 285.94338 288.645994 
L 287.002835 288.645994 
L 287.002835 288.645994 
L 285.94338 288.645994 
z
" clip-path="url(#p2f27eedb8f)" style="fill: #1f77b4; opacity: 0.5"/>
   </g>
   <g id="patch_203">
    <path d="M 287.002835 288.645994 
L 288.06229 288.645994 
L 288.06229 288.645994 
L 287.002835 288.645994 
z
" clip-path="url(#p2f27eedb8f)" style="fill: #1f77b4; opacity: 0.5"/>
   </g>
   <g id="patch_204">
    <path d="M 288.06229 288.645994 
L 289.121745 288.645994 
L 289.121745 288.645994 
L 288.06229 288.645994 
z
" clip-path="url(#p2f27eedb8f)" style="fill: #1f77b4; opacity: 0.5"/>
   </g>
   <g id="patch_205">
    <path d="M 289.121745 288.645994 
L 290.1812 288.645994 
L 290.1812 288.645994 
L 289.121745 288.645994 
z
" clip-path="url(#p2f27eedb8f)" style="fill: #1f77b4; opacity: 0.5"/>
   </g>
   <g id="patch_206">
    <path d="M 290.1812 288.645994 
L 291.240656 288.645994 
L 291.240656 288.645994 
L 290.1812 288.645994 
z
" clip-path="url(#p2f27eedb8f)" style="fill: #1f77b4; opacity: 0.5"/>
   </g>
   <g id="patch_207">
    <path d="M 291.240656 288.645994 
L 292.300111 288.645994 
L 292.300111 288.645994 
L 291.240656 288.645994 
z
" clip-path="url(#p2f27eedb8f)" style="fill: #1f77b4; opacity: 0.5"/>
   </g>
   <g id="patch_208">
    <path d="M 292.300111 288.645994 
L 293.359566 288.645994 
L 293.359566 288.645994 
L 292.300111 288.645994 
z
" clip-path="url(#p2f27eedb8f)" style="fill: #1f77b4; opacity: 0.5"/>
   </g>
   <g id="patch_209">
    <path d="M 293.359566 288.645994 
L 294.419021 288.645994 
L 294.419021 288.645994 
L 293.359566 288.645994 
z
" clip-path="url(#p2f27eedb8f)" style="fill: #1f77b4; opacity: 0.5"/>
   </g>
   <g id="patch_210">
    <path d="M 294.419021 288.645994 
L 295.478476 288.645994 
L 295.478476 288.645994 
L 294.419021 288.645994 
z
" clip-path="url(#p2f27eedb8f)" style="fill: #1f77b4; opacity: 0.5"/>
   </g>
   <g id="patch_211">
    <path d="M 295.478476 288.645994 
L 296.537931 288.645994 
L 296.537931 288.645994 
L 295.478476 288.645994 
z
" clip-path="url(#p2f27eedb8f)" style="fill: #1f77b4; opacity: 0.5"/>
   </g>
   <g id="patch_212">
    <path d="M 296.537931 288.645994 
L 297.597386 288.645994 
L 297.597386 288.645994 
L 296.537931 288.645994 
z
" clip-path="url(#p2f27eedb8f)" style="fill: #1f77b4; opacity: 0.5"/>
   </g>
   <g id="patch_213">
    <path d="M 297.597386 288.645994 
L 298.656841 288.645994 
L 298.656841 288.645994 
L 297.597386 288.645994 
z
" clip-path="url(#p2f27eedb8f)" style="fill: #1f77b4; opacity: 0.5"/>
   </g>
   <g id="patch_214">
    <path d="M 298.656841 288.645994 
L 299.716296 288.645994 
L 299.716296 288.645994 
L 298.656841 288.645994 
z
" clip-path="url(#p2f27eedb8f)" style="fill: #1f77b4; opacity: 0.5"/>
   </g>
   <g id="patch_215">
    <path d="M 299.716296 288.645994 
L 300.775751 288.645994 
L 300.775751 288.645994 
L 299.716296 288.645994 
z
" clip-path="url(#p2f27eedb8f)" style="fill: #1f77b4; opacity: 0.5"/>
   </g>
   <g id="patch_216">
    <path d="M 300.775751 288.645994 
L 301.835206 288.645994 
L 301.835206 288.645994 
L 300.775751 288.645994 
z
" clip-path="url(#p2f27eedb8f)" style="fill: #1f77b4; opacity: 0.5"/>
   </g>
   <g id="patch_217">
    <path d="M 301.835206 288.645994 
L 302.894661 288.645994 
L 302.894661 288.645994 
L 301.835206 288.645994 
z
" clip-path="url(#p2f27eedb8f)" style="fill: #1f77b4; opacity: 0.5"/>
   </g>
   <g id="patch_218">
    <path d="M 302.894661 288.645994 
L 303.954117 288.645994 
L 303.954117 288.645994 
L 302.894661 288.645994 
z
" clip-path="url(#p2f27eedb8f)" style="fill: #1f77b4; opacity: 0.5"/>
   </g>
   <g id="patch_219">
    <path d="M 303.954117 288.645994 
L 305.013572 288.645994 
L 305.013572 288.645994 
L 303.954117 288.645994 
z
" clip-path="url(#p2f27eedb8f)" style="fill: #1f77b4; opacity: 0.5"/>
   </g>
   <g id="patch_220">
    <path d="M 305.013572 288.645994 
L 306.073027 288.645994 
L 306.073027 288.645994 
L 305.013572 288.645994 
z
" clip-path="url(#p2f27eedb8f)" style="fill: #1f77b4; opacity: 0.5"/>
   </g>
   <g id="patch_221">
    <path d="M 306.073027 288.645994 
L 307.132482 288.645994 
L 307.132482 288.544041 
L 306.073027 288.544041 
z
" clip-path="url(#p2f27eedb8f)" style="fill: #1f77b4; opacity: 0.5"/>
   </g>
   <g id="patch_222">
    <path d="M 307.132482 288.645994 
L 308.191937 288.645994 
L 308.191937 288.645994 
L 307.132482 288.645994 
z
" clip-path="url(#p2f27eedb8f)" style="fill: #1f77b4; opacity: 0.5"/>
   </g>
   <g id="patch_223">
    <path d="M 308.191937 288.645994 
L 309.251392 288.645994 
L 309.251392 288.645994 
L 308.191937 288.645994 
z
" clip-path="url(#p2f27eedb8f)" style="fill: #1f77b4; opacity: 0.5"/>
   </g>
   <g id="patch_224">
    <path d="M 309.251392 288.645994 
L 310.310847 288.645994 
L 310.310847 288.645994 
L 309.251392 288.645994 
z
" clip-path="url(#p2f27eedb8f)" style="fill: #1f77b4; opacity: 0.5"/>
   </g>
   <g id="patch_225">
    <path d="M 310.310847 288.645994 
L 311.370302 288.645994 
L 311.370302 288.645994 
L 310.310847 288.645994 
z
" clip-path="url(#p2f27eedb8f)" style="fill: #1f77b4; opacity: 0.5"/>
   </g>
   <g id="patch_226">
    <path d="M 311.370302 288.645994 
L 312.429757 288.645994 
L 312.429757 288.645994 
L 311.370302 288.645994 
z
" clip-path="url(#p2f27eedb8f)" style="fill: #1f77b4; opacity: 0.5"/>
   </g>
   <g id="patch_227">
    <path d="M 312.429757 288.645994 
L 313.489212 288.645994 
L 313.489212 288.645994 
L 312.429757 288.645994 
z
" clip-path="url(#p2f27eedb8f)" style="fill: #1f77b4; opacity: 0.5"/>
   </g>
   <g id="patch_228">
    <path d="M 313.489212 288.645994 
L 314.548667 288.645994 
L 314.548667 288.442089 
L 313.489212 288.442089 
z
" clip-path="url(#p2f27eedb8f)" style="fill: #1f77b4; opacity: 0.5"/>
   </g>
   <g id="patch_229">
    <path d="M 314.548667 288.645994 
L 315.608122 288.645994 
L 315.608122 288.645994 
L 314.548667 288.645994 
z
" clip-path="url(#p2f27eedb8f)" style="fill: #1f77b4; opacity: 0.5"/>
   </g>
   <g id="patch_230">
    <path d="M 315.608122 288.645994 
L 316.667578 288.645994 
L 316.667578 288.645994 
L 315.608122 288.645994 
z
" clip-path="url(#p2f27eedb8f)" style="fill: #1f77b4; opacity: 0.5"/>
   </g>
   <g id="patch_231">
    <path d="M 316.667578 288.645994 
L 317.727033 288.645994 
L 317.727033 288.645994 
L 316.667578 288.645994 
z
" clip-path="url(#p2f27eedb8f)" style="fill: #1f77b4; opacity: 0.5"/>
   </g>
   <g id="patch_232">
    <path d="M 317.727033 288.645994 
L 318.786488 288.645994 
L 318.786488 288.645994 
L 317.727033 288.645994 
z
" clip-path="url(#p2f27eedb8f)" style="fill: #1f77b4; opacity: 0.5"/>
   </g>
   <g id="patch_233">
    <path d="M 318.786488 288.645994 
L 319.845943 288.645994 
L 319.845943 288.645994 
L 318.786488 288.645994 
z
" clip-path="url(#p2f27eedb8f)" style="fill: #1f77b4; opacity: 0.5"/>
   </g>
   <g id="patch_234">
    <path d="M 319.845943 288.645994 
L 320.905398 288.645994 
L 320.905398 288.645994 
L 319.845943 288.645994 
z
" clip-path="url(#p2f27eedb8f)" style="fill: #1f77b4; opacity: 0.5"/>
   </g>
   <g id="patch_235">
    <path d="M 320.905398 288.645994 
L 321.964853 288.645994 
L 321.964853 288.645994 
L 320.905398 288.645994 
z
" clip-path="url(#p2f27eedb8f)" style="fill: #1f77b4; opacity: 0.5"/>
   </g>
   <g id="patch_236">
    <path d="M 321.964853 288.645994 
L 323.024308 288.645994 
L 323.024308 288.645994 
L 321.964853 288.645994 
z
" clip-path="url(#p2f27eedb8f)" style="fill: #1f77b4; opacity: 0.5"/>
   </g>
   <g id="patch_237">
    <path d="M 323.024308 288.645994 
L 324.083763 288.645994 
L 324.083763 288.645994 
L 323.024308 288.645994 
z
" clip-path="url(#p2f27eedb8f)" style="fill: #1f77b4; opacity: 0.5"/>
   </g>
   <g id="patch_238">
    <path d="M 324.083763 288.645994 
L 325.143218 288.645994 
L 325.143218 288.645994 
L 324.083763 288.645994 
z
" clip-path="url(#p2f27eedb8f)" style="fill: #1f77b4; opacity: 0.5"/>
   </g>
   <g id="patch_239">
    <path d="M 325.143218 288.645994 
L 326.202673 288.645994 
L 326.202673 288.645994 
L 325.143218 288.645994 
z
" clip-path="url(#p2f27eedb8f)" style="fill: #1f77b4; opacity: 0.5"/>
   </g>
   <g id="patch_240">
    <path d="M 326.202673 288.645994 
L 327.262128 288.645994 
L 327.262128 288.645994 
L 326.202673 288.645994 
z
" clip-path="url(#p2f27eedb8f)" style="fill: #1f77b4; opacity: 0.5"/>
   </g>
   <g id="patch_241">
    <path d="M 327.262128 288.645994 
L 328.321583 288.645994 
L 328.321583 288.645994 
L 327.262128 288.645994 
z
" clip-path="url(#p2f27eedb8f)" style="fill: #1f77b4; opacity: 0.5"/>
   </g>
   <g id="patch_242">
    <path d="M 328.321583 288.645994 
L 329.381039 288.645994 
L 329.381039 288.645994 
L 328.321583 288.645994 
z
" clip-path="url(#p2f27eedb8f)" style="fill: #1f77b4; opacity: 0.5"/>
   </g>
   <g id="patch_243">
    <path d="M 329.381039 288.645994 
L 330.440494 288.645994 
L 330.440494 288.645994 
L 329.381039 288.645994 
z
" clip-path="url(#p2f27eedb8f)" style="fill: #1f77b4; opacity: 0.5"/>
   </g>
   <g id="patch_244">
    <path d="M 330.440494 288.645994 
L 331.499949 288.645994 
L 331.499949 288.645994 
L 330.440494 288.645994 
z
" clip-path="url(#p2f27eedb8f)" style="fill: #1f77b4; opacity: 0.5"/>
   </g>
   <g id="patch_245">
    <path d="M 331.499949 288.645994 
L 332.559404 288.645994 
L 332.559404 288.645994 
L 331.499949 288.645994 
z
" clip-path="url(#p2f27eedb8f)" style="fill: #1f77b4; opacity: 0.5"/>
   </g>
   <g id="patch_246">
    <path d="M 332.559404 288.645994 
L 333.618859 288.645994 
L 333.618859 288.645994 
L 332.559404 288.645994 
z
" clip-path="url(#p2f27eedb8f)" style="fill: #1f77b4; opacity: 0.5"/>
   </g>
   <g id="patch_247">
    <path d="M 333.618859 288.645994 
L 334.678314 288.645994 
L 334.678314 288.645994 
L 333.618859 288.645994 
z
" clip-path="url(#p2f27eedb8f)" style="fill: #1f77b4; opacity: 0.5"/>
   </g>
   <g id="patch_248">
    <path d="M 334.678314 288.645994 
L 335.737769 288.645994 
L 335.737769 288.645994 
L 334.678314 288.645994 
z
" clip-path="url(#p2f27eedb8f)" style="fill: #1f77b4; opacity: 0.5"/>
   </g>
   <g id="patch_249">
    <path d="M 335.737769 288.645994 
L 336.797224 288.645994 
L 336.797224 288.645994 
L 335.737769 288.645994 
z
" clip-path="url(#p2f27eedb8f)" style="fill: #1f77b4; opacity: 0.5"/>
   </g>
   <g id="patch_250">
    <path d="M 336.797224 288.645994 
L 337.856679 288.645994 
L 337.856679 288.645994 
L 336.797224 288.645994 
z
" clip-path="url(#p2f27eedb8f)" style="fill: #1f77b4; opacity: 0.5"/>
   </g>
   <g id="patch_251">
    <path d="M 337.856679 288.645994 
L 338.916134 288.645994 
L 338.916134 288.645994 
L 337.856679 288.645994 
z
" clip-path="url(#p2f27eedb8f)" style="fill: #1f77b4; opacity: 0.5"/>
   </g>
   <g id="patch_252">
    <path d="M 338.916134 288.645994 
L 339.975589 288.645994 
L 339.975589 288.645994 
L 338.916134 288.645994 
z
" clip-path="url(#p2f27eedb8f)" style="fill: #1f77b4; opacity: 0.5"/>
   </g>
   <g id="patch_253">
    <path d="M 339.975589 288.645994 
L 341.035045 288.645994 
L 341.035045 288.645994 
L 339.975589 288.645994 
z
" clip-path="url(#p2f27eedb8f)" style="fill: #1f77b4; opacity: 0.5"/>
   </g>
   <g id="patch_254">
    <path d="M 341.035045 288.645994 
L 342.0945 288.645994 
L 342.0945 288.645994 
L 341.035045 288.645994 
z
" clip-path="url(#p2f27eedb8f)" style="fill: #1f77b4; opacity: 0.5"/>
   </g>
   <g id="patch_255">
    <path d="M 342.0945 288.645994 
L 343.153955 288.645994 
L 343.153955 288.645994 
L 342.0945 288.645994 
z
" clip-path="url(#p2f27eedb8f)" style="fill: #1f77b4; opacity: 0.5"/>
   </g>
   <g id="patch_256">
    <path d="M 343.153955 288.645994 
L 344.21341 288.645994 
L 344.21341 288.645994 
L 343.153955 288.645994 
z
" clip-path="url(#p2f27eedb8f)" style="fill: #1f77b4; opacity: 0.5"/>
   </g>
   <g id="patch_257">
    <path d="M 344.21341 288.645994 
L 345.272865 288.645994 
L 345.272865 288.645994 
L 344.21341 288.645994 
z
" clip-path="url(#p2f27eedb8f)" style="fill: #1f77b4; opacity: 0.5"/>
   </g>
   <g id="patch_258">
    <path d="M 345.272865 288.645994 
L 346.33232 288.645994 
L 346.33232 288.645994 
L 345.272865 288.645994 
z
" clip-path="url(#p2f27eedb8f)" style="fill: #1f77b4; opacity: 0.5"/>
   </g>
   <g id="patch_259">
    <path d="M 346.33232 288.645994 
L 347.391775 288.645994 
L 347.391775 288.645994 
L 346.33232 288.645994 
z
" clip-path="url(#p2f27eedb8f)" style="fill: #1f77b4; opacity: 0.5"/>
   </g>
   <g id="patch_260">
    <path d="M 347.391775 288.645994 
L 348.45123 288.645994 
L 348.45123 288.645994 
L 347.391775 288.645994 
z
" clip-path="url(#p2f27eedb8f)" style="fill: #1f77b4; opacity: 0.5"/>
   </g>
   <g id="patch_261">
    <path d="M 348.45123 288.645994 
L 349.510685 288.645994 
L 349.510685 288.645994 
L 348.45123 288.645994 
z
" clip-path="url(#p2f27eedb8f)" style="fill: #1f77b4; opacity: 0.5"/>
   </g>
   <g id="patch_262">
    <path d="M 349.510685 288.645994 
L 350.57014 288.645994 
L 350.57014 288.645994 
L 349.510685 288.645994 
z
" clip-path="url(#p2f27eedb8f)" style="fill: #1f77b4; opacity: 0.5"/>
   </g>
   <g id="patch_263">
    <path d="M 350.57014 288.645994 
L 351.629595 288.645994 
L 351.629595 288.645994 
L 350.57014 288.645994 
z
" clip-path="url(#p2f27eedb8f)" style="fill: #1f77b4; opacity: 0.5"/>
   </g>
   <g id="patch_264">
    <path d="M 351.629595 288.645994 
L 352.68905 288.645994 
L 352.68905 288.645994 
L 351.629595 288.645994 
z
" clip-path="url(#p2f27eedb8f)" style="fill: #1f77b4; opacity: 0.5"/>
   </g>
   <g id="patch_265">
    <path d="M 352.68905 288.645994 
L 353.748506 288.645994 
L 353.748506 288.645994 
L 352.68905 288.645994 
z
" clip-path="url(#p2f27eedb8f)" style="fill: #1f77b4; opacity: 0.5"/>
   </g>
   <g id="patch_266">
    <path d="M 353.748506 288.645994 
L 354.807961 288.645994 
L 354.807961 288.645994 
L 353.748506 288.645994 
z
" clip-path="url(#p2f27eedb8f)" style="fill: #1f77b4; opacity: 0.5"/>
   </g>
   <g id="patch_267">
    <path d="M 354.807961 288.645994 
L 355.867416 288.645994 
L 355.867416 288.645994 
L 354.807961 288.645994 
z
" clip-path="url(#p2f27eedb8f)" style="fill: #1f77b4; opacity: 0.5"/>
   </g>
   <g id="patch_268">
    <path d="M 355.867416 288.645994 
L 356.926871 288.645994 
L 356.926871 288.645994 
L 355.867416 288.645994 
z
" clip-path="url(#p2f27eedb8f)" style="fill: #1f77b4; opacity: 0.5"/>
   </g>
   <g id="patch_269">
    <path d="M 356.926871 288.645994 
L 357.986326 288.645994 
L 357.986326 288.645994 
L 356.926871 288.645994 
z
" clip-path="url(#p2f27eedb8f)" style="fill: #1f77b4; opacity: 0.5"/>
   </g>
   <g id="patch_270">
    <path d="M 357.986326 288.645994 
L 359.045781 288.645994 
L 359.045781 288.645994 
L 357.986326 288.645994 
z
" clip-path="url(#p2f27eedb8f)" style="fill: #1f77b4; opacity: 0.5"/>
   </g>
   <g id="patch_271">
    <path d="M 359.045781 288.645994 
L 360.105236 288.645994 
L 360.105236 288.645994 
L 359.045781 288.645994 
z
" clip-path="url(#p2f27eedb8f)" style="fill: #1f77b4; opacity: 0.5"/>
   </g>
   <g id="patch_272">
    <path d="M 360.105236 288.645994 
L 361.164691 288.645994 
L 361.164691 288.645994 
L 360.105236 288.645994 
z
" clip-path="url(#p2f27eedb8f)" style="fill: #1f77b4; opacity: 0.5"/>
   </g>
   <g id="patch_273">
    <path d="M 361.164691 288.645994 
L 362.224146 288.645994 
L 362.224146 288.645994 
L 361.164691 288.645994 
z
" clip-path="url(#p2f27eedb8f)" style="fill: #1f77b4; opacity: 0.5"/>
   </g>
   <g id="patch_274">
    <path d="M 362.224146 288.645994 
L 363.283601 288.645994 
L 363.283601 288.645994 
L 362.224146 288.645994 
z
" clip-path="url(#p2f27eedb8f)" style="fill: #1f77b4; opacity: 0.5"/>
   </g>
   <g id="patch_275">
    <path d="M 363.283601 288.645994 
L 364.343056 288.645994 
L 364.343056 288.645994 
L 363.283601 288.645994 
z
" clip-path="url(#p2f27eedb8f)" style="fill: #1f77b4; opacity: 0.5"/>
   </g>
   <g id="patch_276">
    <path d="M 364.343056 288.645994 
L 365.402511 288.645994 
L 365.402511 288.645994 
L 364.343056 288.645994 
z
" clip-path="url(#p2f27eedb8f)" style="fill: #1f77b4; opacity: 0.5"/>
   </g>
   <g id="patch_277">
    <path d="M 365.402511 288.645994 
L 366.461967 288.645994 
L 366.461967 288.645994 
L 365.402511 288.645994 
z
" clip-path="url(#p2f27eedb8f)" style="fill: #1f77b4; opacity: 0.5"/>
   </g>
   <g id="patch_278">
    <path d="M 366.461967 288.645994 
L 367.521422 288.645994 
L 367.521422 288.645994 
L 366.461967 288.645994 
z
" clip-path="url(#p2f27eedb8f)" style="fill: #1f77b4; opacity: 0.5"/>
   </g>
   <g id="patch_279">
    <path d="M 367.521422 288.645994 
L 368.580877 288.645994 
L 368.580877 288.645994 
L 367.521422 288.645994 
z
" clip-path="url(#p2f27eedb8f)" style="fill: #1f77b4; opacity: 0.5"/>
   </g>
   <g id="patch_280">
    <path d="M 368.580877 288.645994 
L 369.640332 288.645994 
L 369.640332 288.645994 
L 368.580877 288.645994 
z
" clip-path="url(#p2f27eedb8f)" style="fill: #1f77b4; opacity: 0.5"/>
   </g>
   <g id="patch_281">
    <path d="M 369.640332 288.645994 
L 370.699787 288.645994 
L 370.699787 288.645994 
L 369.640332 288.645994 
z
" clip-path="url(#p2f27eedb8f)" style="fill: #1f77b4; opacity: 0.5"/>
   </g>
   <g id="patch_282">
    <path d="M 370.699787 288.645994 
L 371.759242 288.645994 
L 371.759242 288.645994 
L 370.699787 288.645994 
z
" clip-path="url(#p2f27eedb8f)" style="fill: #1f77b4; opacity: 0.5"/>
   </g>
   <g id="patch_283">
    <path d="M 371.759242 288.645994 
L 372.818697 288.645994 
L 372.818697 288.645994 
L 371.759242 288.645994 
z
" clip-path="url(#p2f27eedb8f)" style="fill: #1f77b4; opacity: 0.5"/>
   </g>
   <g id="patch_284">
    <path d="M 372.818697 288.645994 
L 373.878152 288.645994 
L 373.878152 288.645994 
L 372.818697 288.645994 
z
" clip-path="url(#p2f27eedb8f)" style="fill: #1f77b4; opacity: 0.5"/>
   </g>
   <g id="patch_285">
    <path d="M 373.878152 288.645994 
L 374.937607 288.645994 
L 374.937607 288.645994 
L 373.878152 288.645994 
z
" clip-path="url(#p2f27eedb8f)" style="fill: #1f77b4; opacity: 0.5"/>
   </g>
   <g id="patch_286">
    <path d="M 374.937607 288.645994 
L 375.997062 288.645994 
L 375.997062 288.645994 
L 374.937607 288.645994 
z
" clip-path="url(#p2f27eedb8f)" style="fill: #1f77b4; opacity: 0.5"/>
   </g>
   <g id="patch_287">
    <path d="M 375.997062 288.645994 
L 377.056517 288.645994 
L 377.056517 288.645994 
L 375.997062 288.645994 
z
" clip-path="url(#p2f27eedb8f)" style="fill: #1f77b4; opacity: 0.5"/>
   </g>
   <g id="patch_288">
    <path d="M 377.056517 288.645994 
L 378.115972 288.645994 
L 378.115972 288.645994 
L 377.056517 288.645994 
z
" clip-path="url(#p2f27eedb8f)" style="fill: #1f77b4; opacity: 0.5"/>
   </g>
   <g id="patch_289">
    <path d="M 378.115972 288.645994 
L 379.175428 288.645994 
L 379.175428 288.645994 
L 378.115972 288.645994 
z
" clip-path="url(#p2f27eedb8f)" style="fill: #1f77b4; opacity: 0.5"/>
   </g>
   <g id="patch_290">
    <path d="M 379.175428 288.645994 
L 380.234883 288.645994 
L 380.234883 288.645994 
L 379.175428 288.645994 
z
" clip-path="url(#p2f27eedb8f)" style="fill: #1f77b4; opacity: 0.5"/>
   </g>
   <g id="patch_291">
    <path d="M 380.234883 288.645994 
L 381.294338 288.645994 
L 381.294338 288.645994 
L 380.234883 288.645994 
z
" clip-path="url(#p2f27eedb8f)" style="fill: #1f77b4; opacity: 0.5"/>
   </g>
   <g id="patch_292">
    <path d="M 381.294338 288.645994 
L 382.353793 288.645994 
L 382.353793 288.645994 
L 381.294338 288.645994 
z
" clip-path="url(#p2f27eedb8f)" style="fill: #1f77b4; opacity: 0.5"/>
   </g>
   <g id="patch_293">
    <path d="M 382.353793 288.645994 
L 383.413248 288.645994 
L 383.413248 288.645994 
L 382.353793 288.645994 
z
" clip-path="url(#p2f27eedb8f)" style="fill: #1f77b4; opacity: 0.5"/>
   </g>
   <g id="patch_294">
    <path d="M 383.413248 288.645994 
L 384.472703 288.645994 
L 384.472703 288.645994 
L 383.413248 288.645994 
z
" clip-path="url(#p2f27eedb8f)" style="fill: #1f77b4; opacity: 0.5"/>
   </g>
   <g id="patch_295">
    <path d="M 384.472703 288.645994 
L 385.532158 288.645994 
L 385.532158 288.645994 
L 384.472703 288.645994 
z
" clip-path="url(#p2f27eedb8f)" style="fill: #1f77b4; opacity: 0.5"/>
   </g>
   <g id="patch_296">
    <path d="M 385.532158 288.645994 
L 386.591613 288.645994 
L 386.591613 288.645994 
L 385.532158 288.645994 
z
" clip-path="url(#p2f27eedb8f)" style="fill: #1f77b4; opacity: 0.5"/>
   </g>
   <g id="patch_297">
    <path d="M 386.591613 288.645994 
L 387.651068 288.645994 
L 387.651068 288.645994 
L 386.591613 288.645994 
z
" clip-path="url(#p2f27eedb8f)" style="fill: #1f77b4; opacity: 0.5"/>
   </g>
   <g id="patch_298">
    <path d="M 387.651068 288.645994 
L 388.710523 288.645994 
L 388.710523 288.645994 
L 387.651068 288.645994 
z
" clip-path="url(#p2f27eedb8f)" style="fill: #1f77b4; opacity: 0.5"/>
   </g>
   <g id="patch_299">
    <path d="M 388.710523 288.645994 
L 389.769978 288.645994 
L 389.769978 288.645994 
L 388.710523 288.645994 
z
" clip-path="url(#p2f27eedb8f)" style="fill: #1f77b4; opacity: 0.5"/>
   </g>
   <g id="patch_300">
    <path d="M 389.769978 288.645994 
L 390.829434 288.645994 
L 390.829434 288.645994 
L 389.769978 288.645994 
z
" clip-path="url(#p2f27eedb8f)" style="fill: #1f77b4; opacity: 0.5"/>
   </g>
   <g id="patch_301">
    <path d="M 390.829434 288.645994 
L 391.888889 288.645994 
L 391.888889 288.645994 
L 390.829434 288.645994 
z
" clip-path="url(#p2f27eedb8f)" style="fill: #1f77b4; opacity: 0.5"/>
   </g>
   <g id="patch_302">
    <path d="M 391.888889 288.645994 
L 392.948344 288.645994 
L 392.948344 288.645994 
L 391.888889 288.645994 
z
" clip-path="url(#p2f27eedb8f)" style="fill: #1f77b4; opacity: 0.5"/>
   </g>
   <g id="patch_303">
    <path d="M 392.948344 288.645994 
L 394.007799 288.645994 
L 394.007799 288.544041 
L 392.948344 288.544041 
z
" clip-path="url(#p2f27eedb8f)" style="fill: #1f77b4; opacity: 0.5"/>
   </g>
   <g id="patch_304">
    <path d="M 394.007799 288.645994 
L 395.067254 288.645994 
L 395.067254 288.645994 
L 394.007799 288.645994 
z
" clip-path="url(#p2f27eedb8f)" style="fill: #1f77b4; opacity: 0.5"/>
   </g>
   <g id="patch_305">
    <path d="M 395.067254 288.645994 
L 396.126709 288.645994 
L 396.126709 288.645994 
L 395.067254 288.645994 
z
" clip-path="url(#p2f27eedb8f)" style="fill: #1f77b4; opacity: 0.5"/>
   </g>
   <g id="patch_306">
    <path d="M 396.126709 288.645994 
L 397.186164 288.645994 
L 397.186164 288.645994 
L 396.126709 288.645994 
z
" clip-path="url(#p2f27eedb8f)" style="fill: #1f77b4; opacity: 0.5"/>
   </g>
   <g id="patch_307">
    <path d="M 397.186164 288.645994 
L 398.245619 288.645994 
L 398.245619 288.645994 
L 397.186164 288.645994 
z
" clip-path="url(#p2f27eedb8f)" style="fill: #1f77b4; opacity: 0.5"/>
   </g>
   <g id="patch_308">
    <path d="M 398.245619 288.645994 
L 399.305074 288.645994 
L 399.305074 288.645994 
L 398.245619 288.645994 
z
" clip-path="url(#p2f27eedb8f)" style="fill: #1f77b4; opacity: 0.5"/>
   </g>
   <g id="patch_309">
    <path d="M 399.305074 288.645994 
L 400.364529 288.645994 
L 400.364529 288.645994 
L 399.305074 288.645994 
z
" clip-path="url(#p2f27eedb8f)" style="fill: #1f77b4; opacity: 0.5"/>
   </g>
   <g id="patch_310">
    <path d="M 400.364529 288.645994 
L 401.423984 288.645994 
L 401.423984 288.645994 
L 400.364529 288.645994 
z
" clip-path="url(#p2f27eedb8f)" style="fill: #1f77b4; opacity: 0.5"/>
   </g>
   <g id="patch_311">
    <path d="M 401.423984 288.645994 
L 402.483439 288.645994 
L 402.483439 288.645994 
L 401.423984 288.645994 
z
" clip-path="url(#p2f27eedb8f)" style="fill: #1f77b4; opacity: 0.5"/>
   </g>
   <g id="patch_312">
    <path d="M 402.483439 288.645994 
L 403.542895 288.645994 
L 403.542895 288.645994 
L 402.483439 288.645994 
z
" clip-path="url(#p2f27eedb8f)" style="fill: #1f77b4; opacity: 0.5"/>
   </g>
   <g id="patch_313">
    <path d="M 403.542895 288.645994 
L 404.60235 288.645994 
L 404.60235 288.645994 
L 403.542895 288.645994 
z
" clip-path="url(#p2f27eedb8f)" style="fill: #1f77b4; opacity: 0.5"/>
   </g>
   <g id="patch_314">
    <path d="M 404.60235 288.645994 
L 405.661805 288.645994 
L 405.661805 288.645994 
L 404.60235 288.645994 
z
" clip-path="url(#p2f27eedb8f)" style="fill: #1f77b4; opacity: 0.5"/>
   </g>
   <g id="patch_315">
    <path d="M 405.661805 288.645994 
L 406.72126 288.645994 
L 406.72126 288.645994 
L 405.661805 288.645994 
z
" clip-path="url(#p2f27eedb8f)" style="fill: #1f77b4; opacity: 0.5"/>
   </g>
   <g id="patch_316">
    <path d="M 406.72126 288.645994 
L 407.780715 288.645994 
L 407.780715 288.645994 
L 406.72126 288.645994 
z
" clip-path="url(#p2f27eedb8f)" style="fill: #1f77b4; opacity: 0.5"/>
   </g>
   <g id="patch_317">
    <path d="M 407.780715 288.645994 
L 408.84017 288.645994 
L 408.84017 288.645994 
L 407.780715 288.645994 
z
" clip-path="url(#p2f27eedb8f)" style="fill: #1f77b4; opacity: 0.5"/>
   </g>
   <g id="patch_318">
    <path d="M 408.84017 288.645994 
L 409.899625 288.645994 
L 409.899625 288.645994 
L 408.84017 288.645994 
z
" clip-path="url(#p2f27eedb8f)" style="fill: #1f77b4; opacity: 0.5"/>
   </g>
   <g id="patch_319">
    <path d="M 409.899625 288.645994 
L 410.95908 288.645994 
L 410.95908 288.645994 
L 409.899625 288.645994 
z
" clip-path="url(#p2f27eedb8f)" style="fill: #1f77b4; opacity: 0.5"/>
   </g>
   <g id="patch_320">
    <path d="M 410.95908 288.645994 
L 412.018535 288.645994 
L 412.018535 288.645994 
L 410.95908 288.645994 
z
" clip-path="url(#p2f27eedb8f)" style="fill: #1f77b4; opacity: 0.5"/>
   </g>
   <g id="patch_321">
    <path d="M 412.018535 288.645994 
L 413.07799 288.645994 
L 413.07799 288.645994 
L 412.018535 288.645994 
z
" clip-path="url(#p2f27eedb8f)" style="fill: #1f77b4; opacity: 0.5"/>
   </g>
   <g id="patch_322">
    <path d="M 413.07799 288.645994 
L 414.137445 288.645994 
L 414.137445 288.645994 
L 413.07799 288.645994 
z
" clip-path="url(#p2f27eedb8f)" style="fill: #1f77b4; opacity: 0.5"/>
   </g>
   <g id="patch_323">
    <path d="M 414.137445 288.645994 
L 415.1969 288.645994 
L 415.1969 288.645994 
L 414.137445 288.645994 
z
" clip-path="url(#p2f27eedb8f)" style="fill: #1f77b4; opacity: 0.5"/>
   </g>
   <g id="patch_324">
    <path d="M 415.1969 288.645994 
L 416.256356 288.645994 
L 416.256356 288.645994 
L 415.1969 288.645994 
z
" clip-path="url(#p2f27eedb8f)" style="fill: #1f77b4; opacity: 0.5"/>
   </g>
   <g id="patch_325">
    <path d="M 416.256356 288.645994 
L 417.315811 288.645994 
L 417.315811 288.645994 
L 416.256356 288.645994 
z
" clip-path="url(#p2f27eedb8f)" style="fill: #1f77b4; opacity: 0.5"/>
   </g>
   <g id="patch_326">
    <path d="M 417.315811 288.645994 
L 418.375266 288.645994 
L 418.375266 288.645994 
L 417.315811 288.645994 
z
" clip-path="url(#p2f27eedb8f)" style="fill: #1f77b4; opacity: 0.5"/>
   </g>
   <g id="patch_327">
    <path d="M 418.375266 288.645994 
L 419.434721 288.645994 
L 419.434721 288.645994 
L 418.375266 288.645994 
z
" clip-path="url(#p2f27eedb8f)" style="fill: #1f77b4; opacity: 0.5"/>
   </g>
   <g id="patch_328">
    <path d="M 419.434721 288.645994 
L 420.494176 288.645994 
L 420.494176 288.645994 
L 419.434721 288.645994 
z
" clip-path="url(#p2f27eedb8f)" style="fill: #1f77b4; opacity: 0.5"/>
   </g>
   <g id="patch_329">
    <path d="M 420.494176 288.645994 
L 421.553631 288.645994 
L 421.553631 288.645994 
L 420.494176 288.645994 
z
" clip-path="url(#p2f27eedb8f)" style="fill: #1f77b4; opacity: 0.5"/>
   </g>
   <g id="patch_330">
    <path d="M 421.553631 288.645994 
L 422.613086 288.645994 
L 422.613086 288.645994 
L 421.553631 288.645994 
z
" clip-path="url(#p2f27eedb8f)" style="fill: #1f77b4; opacity: 0.5"/>
   </g>
   <g id="patch_331">
    <path d="M 422.613086 288.645994 
L 423.672541 288.645994 
L 423.672541 288.645994 
L 422.613086 288.645994 
z
" clip-path="url(#p2f27eedb8f)" style="fill: #1f77b4; opacity: 0.5"/>
   </g>
   <g id="patch_332">
    <path d="M 423.672541 288.645994 
L 424.731996 288.645994 
L 424.731996 288.645994 
L 423.672541 288.645994 
z
" clip-path="url(#p2f27eedb8f)" style="fill: #1f77b4; opacity: 0.5"/>
   </g>
   <g id="patch_333">
    <path d="M 424.731996 288.645994 
L 425.791451 288.645994 
L 425.791451 288.645994 
L 424.731996 288.645994 
z
" clip-path="url(#p2f27eedb8f)" style="fill: #1f77b4; opacity: 0.5"/>
   </g>
   <g id="patch_334">
    <path d="M 425.791451 288.645994 
L 426.850906 288.645994 
L 426.850906 288.645994 
L 425.791451 288.645994 
z
" clip-path="url(#p2f27eedb8f)" style="fill: #1f77b4; opacity: 0.5"/>
   </g>
   <g id="patch_335">
    <path d="M 426.850906 288.645994 
L 427.910361 288.645994 
L 427.910361 288.645994 
L 426.850906 288.645994 
z
" clip-path="url(#p2f27eedb8f)" style="fill: #1f77b4; opacity: 0.5"/>
   </g>
   <g id="patch_336">
    <path d="M 427.910361 288.645994 
L 428.969817 288.645994 
L 428.969817 288.645994 
L 427.910361 288.645994 
z
" clip-path="url(#p2f27eedb8f)" style="fill: #1f77b4; opacity: 0.5"/>
   </g>
   <g id="patch_337">
    <path d="M 428.969817 288.645994 
L 430.029272 288.645994 
L 430.029272 288.645994 
L 428.969817 288.645994 
z
" clip-path="url(#p2f27eedb8f)" style="fill: #1f77b4; opacity: 0.5"/>
   </g>
   <g id="patch_338">
    <path d="M 430.029272 288.645994 
L 431.088727 288.645994 
L 431.088727 288.645994 
L 430.029272 288.645994 
z
" clip-path="url(#p2f27eedb8f)" style="fill: #1f77b4; opacity: 0.5"/>
   </g>
   <g id="patch_339">
    <path d="M 431.088727 288.645994 
L 432.148182 288.645994 
L 432.148182 288.034281 
L 431.088727 288.034281 
z
" clip-path="url(#p2f27eedb8f)" style="fill: #1f77b4; opacity: 0.5"/>
   </g>
   <g id="matplotlib.axis_1">
    <g id="xtick_1">
     <g id="line2d_1">
      <defs>
       <path id="m6a6ef8c28b" d="M 0 0 
L 0 3.5 
" style="stroke: #000000; stroke-width: 0.8"/>
      </defs>
      <g>
       <use xlink:href="#m6a6ef8c28b" x="73.909197" y="288.645994" style="stroke: #000000; stroke-width: 0.8"/>
      </g>
     </g>
     <g id="text_1">
      <!-- 0 -->
      <g transform="translate(73.610886 305.517867) rotate(-45) scale(0.1 -0.1)">
       <defs>
        <path id="DejaVuSans-30" d="M 2034 4250 
Q 1547 4250 1301 3770 
Q 1056 3291 1056 2328 
Q 1056 1369 1301 889 
Q 1547 409 2034 409 
Q 2525 409 2770 889 
Q 3016 1369 3016 2328 
Q 3016 3291 2770 3770 
Q 2525 4250 2034 4250 
z
M 2034 4750 
Q 2819 4750 3233 4129 
Q 3647 3509 3647 2328 
Q 3647 1150 3233 529 
Q 2819 -91 2034 -91 
Q 1250 -91 836 529 
Q 422 1150 422 2328 
Q 422 3509 836 4129 
Q 1250 4750 2034 4750 
z
" transform="scale(0.015625)"/>
       </defs>
       <use xlink:href="#DejaVuSans-30"/>
      </g>
     </g>
    </g>
    <g id="xtick_2">
     <g id="line2d_2">
      <g>
       <use xlink:href="#m6a6ef8c28b" x="153.278632" y="288.645994" style="stroke: #000000; stroke-width: 0.8"/>
      </g>
     </g>
     <g id="text_2">
      <!-- 1000 -->
      <g transform="translate(146.231871 319.014768) rotate(-45) scale(0.1 -0.1)">
       <defs>
        <path id="DejaVuSans-31" d="M 794 531 
L 1825 531 
L 1825 4091 
L 703 3866 
L 703 4441 
L 1819 4666 
L 2450 4666 
L 2450 531 
L 3481 531 
L 3481 0 
L 794 0 
L 794 531 
z
" transform="scale(0.015625)"/>
       </defs>
       <use xlink:href="#DejaVuSans-31"/>
       <use xlink:href="#DejaVuSans-30" x="63.623047"/>
       <use xlink:href="#DejaVuSans-30" x="127.246094"/>
       <use xlink:href="#DejaVuSans-30" x="190.869141"/>
      </g>
     </g>
    </g>
    <g id="xtick_3">
     <g id="line2d_3">
      <g>
       <use xlink:href="#m6a6ef8c28b" x="232.648067" y="288.645994" style="stroke: #000000; stroke-width: 0.8"/>
      </g>
     </g>
     <g id="text_3">
      <!-- 2000 -->
      <g transform="translate(225.601306 319.014768) rotate(-45) scale(0.1 -0.1)">
       <defs>
        <path id="DejaVuSans-32" d="M 1228 531 
L 3431 531 
L 3431 0 
L 469 0 
L 469 531 
Q 828 903 1448 1529 
Q 2069 2156 2228 2338 
Q 2531 2678 2651 2914 
Q 2772 3150 2772 3378 
Q 2772 3750 2511 3984 
Q 2250 4219 1831 4219 
Q 1534 4219 1204 4116 
Q 875 4013 500 3803 
L 500 4441 
Q 881 4594 1212 4672 
Q 1544 4750 1819 4750 
Q 2544 4750 2975 4387 
Q 3406 4025 3406 3419 
Q 3406 3131 3298 2873 
Q 3191 2616 2906 2266 
Q 2828 2175 2409 1742 
Q 1991 1309 1228 531 
z
" transform="scale(0.015625)"/>
       </defs>
       <use xlink:href="#DejaVuSans-32"/>
       <use xlink:href="#DejaVuSans-30" x="63.623047"/>
       <use xlink:href="#DejaVuSans-30" x="127.246094"/>
       <use xlink:href="#DejaVuSans-30" x="190.869141"/>
      </g>
     </g>
    </g>
    <g id="xtick_4">
     <g id="line2d_4">
      <g>
       <use xlink:href="#m6a6ef8c28b" x="312.017503" y="288.645994" style="stroke: #000000; stroke-width: 0.8"/>
      </g>
     </g>
     <g id="text_4">
      <!-- 3000 -->
      <g transform="translate(304.970742 319.014768) rotate(-45) scale(0.1 -0.1)">
       <defs>
        <path id="DejaVuSans-33" d="M 2597 2516 
Q 3050 2419 3304 2112 
Q 3559 1806 3559 1356 
Q 3559 666 3084 287 
Q 2609 -91 1734 -91 
Q 1441 -91 1130 -33 
Q 819 25 488 141 
L 488 750 
Q 750 597 1062 519 
Q 1375 441 1716 441 
Q 2309 441 2620 675 
Q 2931 909 2931 1356 
Q 2931 1769 2642 2001 
Q 2353 2234 1838 2234 
L 1294 2234 
L 1294 2753 
L 1863 2753 
Q 2328 2753 2575 2939 
Q 2822 3125 2822 3475 
Q 2822 3834 2567 4026 
Q 2313 4219 1838 4219 
Q 1578 4219 1281 4162 
Q 984 4106 628 3988 
L 628 4550 
Q 988 4650 1302 4700 
Q 1616 4750 1894 4750 
Q 2613 4750 3031 4423 
Q 3450 4097 3450 3541 
Q 3450 3153 3228 2886 
Q 3006 2619 2597 2516 
z
" transform="scale(0.015625)"/>
       </defs>
       <use xlink:href="#DejaVuSans-33"/>
       <use xlink:href="#DejaVuSans-30" x="63.623047"/>
       <use xlink:href="#DejaVuSans-30" x="127.246094"/>
       <use xlink:href="#DejaVuSans-30" x="190.869141"/>
      </g>
     </g>
    </g>
    <g id="xtick_5">
     <g id="line2d_5">
      <g>
       <use xlink:href="#m6a6ef8c28b" x="391.386938" y="288.645994" style="stroke: #000000; stroke-width: 0.8"/>
      </g>
     </g>
     <g id="text_5">
      <!-- 4000 -->
      <g transform="translate(384.340177 319.014768) rotate(-45) scale(0.1 -0.1)">
       <defs>
        <path id="DejaVuSans-34" d="M 2419 4116 
L 825 1625 
L 2419 1625 
L 2419 4116 
z
M 2253 4666 
L 3047 4666 
L 3047 1625 
L 3713 1625 
L 3713 1100 
L 3047 1100 
L 3047 0 
L 2419 0 
L 2419 1100 
L 313 1100 
L 313 1709 
L 2253 4666 
z
" transform="scale(0.015625)"/>
       </defs>
       <use xlink:href="#DejaVuSans-34"/>
       <use xlink:href="#DejaVuSans-30" x="63.623047"/>
       <use xlink:href="#DejaVuSans-30" x="127.246094"/>
       <use xlink:href="#DejaVuSans-30" x="190.869141"/>
      </g>
     </g>
    </g>
    <g id="text_6">
     <!-- Werte -->
     <g transform="translate(238.81125 332.083766) scale(0.1 -0.1)">
      <defs>
       <path id="DejaVuSans-57" d="M 213 4666 
L 850 4666 
L 1831 722 
L 2809 4666 
L 3519 4666 
L 4500 722 
L 5478 4666 
L 6119 4666 
L 4947 0 
L 4153 0 
L 3169 4050 
L 2175 0 
L 1381 0 
L 213 4666 
z
" transform="scale(0.015625)"/>
       <path id="DejaVuSans-65" d="M 3597 1894 
L 3597 1613 
L 953 1613 
Q 991 1019 1311 708 
Q 1631 397 2203 397 
Q 2534 397 2845 478 
Q 3156 559 3463 722 
L 3463 178 
Q 3153 47 2828 -22 
Q 2503 -91 2169 -91 
Q 1331 -91 842 396 
Q 353 884 353 1716 
Q 353 2575 817 3079 
Q 1281 3584 2069 3584 
Q 2775 3584 3186 3129 
Q 3597 2675 3597 1894 
z
M 3022 2063 
Q 3016 2534 2758 2815 
Q 2500 3097 2075 3097 
Q 1594 3097 1305 2825 
Q 1016 2553 972 2059 
L 3022 2063 
z
" transform="scale(0.015625)"/>
       <path id="DejaVuSans-72" d="M 2631 2963 
Q 2534 3019 2420 3045 
Q 2306 3072 2169 3072 
Q 1681 3072 1420 2755 
Q 1159 2438 1159 1844 
L 1159 0 
L 581 0 
L 581 3500 
L 1159 3500 
L 1159 2956 
Q 1341 3275 1631 3429 
Q 1922 3584 2338 3584 
Q 2397 3584 2469 3576 
Q 2541 3569 2628 3553 
L 2631 2963 
z
" transform="scale(0.015625)"/>
       <path id="DejaVuSans-74" d="M 1172 4494 
L 1172 3500 
L 2356 3500 
L 2356 3053 
L 1172 3053 
L 1172 1153 
Q 1172 725 1289 603 
Q 1406 481 1766 481 
L 2356 481 
L 2356 0 
L 1766 0 
Q 1100 0 847 248 
Q 594 497 594 1153 
L 594 3053 
L 172 3053 
L 172 3500 
L 594 3500 
L 594 4494 
L 1172 4494 
z
" transform="scale(0.015625)"/>
      </defs>
      <use xlink:href="#DejaVuSans-57"/>
      <use xlink:href="#DejaVuSans-65" x="93.001953"/>
      <use xlink:href="#DejaVuSans-72" x="154.525391"/>
      <use xlink:href="#DejaVuSans-74" x="195.638672"/>
      <use xlink:href="#DejaVuSans-65" x="234.847656"/>
     </g>
    </g>
   </g>
   <g id="matplotlib.axis_2">
    <g id="ytick_1">
     <g id="line2d_6">
      <defs>
       <path id="mf3cd3a1f76" d="M 0 0 
L -3.5 0 
" style="stroke: #000000; stroke-width: 0.8"/>
      </defs>
      <g>
       <use xlink:href="#mf3cd3a1f76" x="57.26" y="288.645994" style="stroke: #000000; stroke-width: 0.8"/>
      </g>
     </g>
     <g id="text_7">
      <!-- 0 -->
      <g transform="translate(43.8975 292.445212) scale(0.1 -0.1)">
       <use xlink:href="#DejaVuSans-30"/>
      </g>
     </g>
    </g>
    <g id="ytick_2">
     <g id="line2d_7">
      <g>
       <use xlink:href="#mf3cd3a1f76" x="57.26" y="237.669921" style="stroke: #000000; stroke-width: 0.8"/>
      </g>
     </g>
     <g id="text_8">
      <!-- 500 -->
      <g transform="translate(31.1725 241.46914) scale(0.1 -0.1)">
       <defs>
        <path id="DejaVuSans-35" d="M 691 4666 
L 3169 4666 
L 3169 4134 
L 1269 4134 
L 1269 2991 
Q 1406 3038 1543 3061 
Q 1681 3084 1819 3084 
Q 2600 3084 3056 2656 
Q 3513 2228 3513 1497 
Q 3513 744 3044 326 
Q 2575 -91 1722 -91 
Q 1428 -91 1123 -41 
Q 819 9 494 109 
L 494 744 
Q 775 591 1075 516 
Q 1375 441 1709 441 
Q 2250 441 2565 725 
Q 2881 1009 2881 1497 
Q 2881 1984 2565 2268 
Q 2250 2553 1709 2553 
Q 1456 2553 1204 2497 
Q 953 2441 691 2322 
L 691 4666 
z
" transform="scale(0.015625)"/>
       </defs>
       <use xlink:href="#DejaVuSans-35"/>
       <use xlink:href="#DejaVuSans-30" x="63.623047"/>
       <use xlink:href="#DejaVuSans-30" x="127.246094"/>
      </g>
     </g>
    </g>
    <g id="ytick_3">
     <g id="line2d_8">
      <g>
       <use xlink:href="#mf3cd3a1f76" x="57.26" y="186.693848" style="stroke: #000000; stroke-width: 0.8"/>
      </g>
     </g>
     <g id="text_9">
      <!-- 1000 -->
      <g transform="translate(24.81 190.493067) scale(0.1 -0.1)">
       <use xlink:href="#DejaVuSans-31"/>
       <use xlink:href="#DejaVuSans-30" x="63.623047"/>
       <use xlink:href="#DejaVuSans-30" x="127.246094"/>
       <use xlink:href="#DejaVuSans-30" x="190.869141"/>
      </g>
     </g>
    </g>
    <g id="ytick_4">
     <g id="line2d_9">
      <g>
       <use xlink:href="#mf3cd3a1f76" x="57.26" y="135.717775" style="stroke: #000000; stroke-width: 0.8"/>
      </g>
     </g>
     <g id="text_10">
      <!-- 1500 -->
      <g transform="translate(24.81 139.516994) scale(0.1 -0.1)">
       <use xlink:href="#DejaVuSans-31"/>
       <use xlink:href="#DejaVuSans-35" x="63.623047"/>
       <use xlink:href="#DejaVuSans-30" x="127.246094"/>
       <use xlink:href="#DejaVuSans-30" x="190.869141"/>
      </g>
     </g>
    </g>
    <g id="ytick_5">
     <g id="line2d_10">
      <g>
       <use xlink:href="#mf3cd3a1f76" x="57.26" y="84.741703" style="stroke: #000000; stroke-width: 0.8"/>
      </g>
     </g>
     <g id="text_11">
      <!-- 2000 -->
      <g transform="translate(24.81 88.540921) scale(0.1 -0.1)">
       <use xlink:href="#DejaVuSans-32"/>
       <use xlink:href="#DejaVuSans-30" x="63.623047"/>
       <use xlink:href="#DejaVuSans-30" x="127.246094"/>
       <use xlink:href="#DejaVuSans-30" x="190.869141"/>
      </g>
     </g>
    </g>
    <g id="ytick_6">
     <g id="line2d_11">
      <g>
       <use xlink:href="#mf3cd3a1f76" x="57.26" y="33.76563" style="stroke: #000000; stroke-width: 0.8"/>
      </g>
     </g>
     <g id="text_12">
      <!-- 2500 -->
      <g transform="translate(24.81 37.564849) scale(0.1 -0.1)">
       <use xlink:href="#DejaVuSans-32"/>
       <use xlink:href="#DejaVuSans-35" x="63.623047"/>
       <use xlink:href="#DejaVuSans-30" x="127.246094"/>
       <use xlink:href="#DejaVuSans-30" x="190.869141"/>
      </g>
     </g>
    </g>
    <g id="text_13">
     <!-- Hufigkeit -->
     <g transform="translate(18.730313 182.859247) rotate(-90) scale(0.1 -0.1)">
      <defs>
       <path id="DejaVuSans-48" d="M 628 4666 
L 1259 4666 
L 1259 2753 
L 3553 2753 
L 3553 4666 
L 4184 4666 
L 4184 0 
L 3553 0 
L 3553 2222 
L 1259 2222 
L 1259 0 
L 628 0 
L 628 4666 
z
" transform="scale(0.015625)"/>
       <path id="DejaVuSans-e4" d="M 2194 1759 
Q 1497 1759 1228 1600 
Q 959 1441 959 1056 
Q 959 750 1161 570 
Q 1363 391 1709 391 
Q 2188 391 2477 730 
Q 2766 1069 2766 1631 
L 2766 1759 
L 2194 1759 
z
M 3341 1997 
L 3341 0 
L 2766 0 
L 2766 531 
Q 2569 213 2275 61 
Q 1981 -91 1556 -91 
Q 1019 -91 701 211 
Q 384 513 384 1019 
Q 384 1609 779 1909 
Q 1175 2209 1959 2209 
L 2766 2209 
L 2766 2266 
Q 2766 2663 2505 2880 
Q 2244 3097 1772 3097 
Q 1472 3097 1187 3025 
Q 903 2953 641 2809 
L 641 3341 
Q 956 3463 1253 3523 
Q 1550 3584 1831 3584 
Q 2591 3584 2966 3190 
Q 3341 2797 3341 1997 
z
M 2150 4850 
L 2784 4850 
L 2784 4219 
L 2150 4219 
L 2150 4850 
z
M 928 4850 
L 1563 4850 
L 1563 4219 
L 928 4219 
L 928 4850 
z
" transform="scale(0.015625)"/>
       <path id="DejaVuSans-75" d="M 544 1381 
L 544 3500 
L 1119 3500 
L 1119 1403 
Q 1119 906 1312 657 
Q 1506 409 1894 409 
Q 2359 409 2629 706 
Q 2900 1003 2900 1516 
L 2900 3500 
L 3475 3500 
L 3475 0 
L 2900 0 
L 2900 538 
Q 2691 219 2414 64 
Q 2138 -91 1772 -91 
Q 1169 -91 856 284 
Q 544 659 544 1381 
z
M 1991 3584 
L 1991 3584 
z
" transform="scale(0.015625)"/>
       <path id="DejaVuSans-66" d="M 2375 4863 
L 2375 4384 
L 1825 4384 
Q 1516 4384 1395 4259 
Q 1275 4134 1275 3809 
L 1275 3500 
L 2222 3500 
L 2222 3053 
L 1275 3053 
L 1275 0 
L 697 0 
L 697 3053 
L 147 3053 
L 147 3500 
L 697 3500 
L 697 3744 
Q 697 4328 969 4595 
Q 1241 4863 1831 4863 
L 2375 4863 
z
" transform="scale(0.015625)"/>
       <path id="DejaVuSans-69" d="M 603 3500 
L 1178 3500 
L 1178 0 
L 603 0 
L 603 3500 
z
M 603 4863 
L 1178 4863 
L 1178 4134 
L 603 4134 
L 603 4863 
z
" transform="scale(0.015625)"/>
       <path id="DejaVuSans-67" d="M 2906 1791 
Q 2906 2416 2648 2759 
Q 2391 3103 1925 3103 
Q 1463 3103 1205 2759 
Q 947 2416 947 1791 
Q 947 1169 1205 825 
Q 1463 481 1925 481 
Q 2391 481 2648 825 
Q 2906 1169 2906 1791 
z
M 3481 434 
Q 3481 -459 3084 -895 
Q 2688 -1331 1869 -1331 
Q 1566 -1331 1297 -1286 
Q 1028 -1241 775 -1147 
L 775 -588 
Q 1028 -725 1275 -790 
Q 1522 -856 1778 -856 
Q 2344 -856 2625 -561 
Q 2906 -266 2906 331 
L 2906 616 
Q 2728 306 2450 153 
Q 2172 0 1784 0 
Q 1141 0 747 490 
Q 353 981 353 1791 
Q 353 2603 747 3093 
Q 1141 3584 1784 3584 
Q 2172 3584 2450 3431 
Q 2728 3278 2906 2969 
L 2906 3500 
L 3481 3500 
L 3481 434 
z
" transform="scale(0.015625)"/>
       <path id="DejaVuSans-6b" d="M 581 4863 
L 1159 4863 
L 1159 1991 
L 2875 3500 
L 3609 3500 
L 1753 1863 
L 3688 0 
L 2938 0 
L 1159 1709 
L 1159 0 
L 581 0 
L 581 4863 
z
" transform="scale(0.015625)"/>
      </defs>
      <use xlink:href="#DejaVuSans-48"/>
      <use xlink:href="#DejaVuSans-e4" x="75.195312"/>
      <use xlink:href="#DejaVuSans-75" x="136.474609"/>
      <use xlink:href="#DejaVuSans-66" x="199.853516"/>
      <use xlink:href="#DejaVuSans-69" x="235.058594"/>
      <use xlink:href="#DejaVuSans-67" x="262.841797"/>
      <use xlink:href="#DejaVuSans-6b" x="326.318359"/>
      <use xlink:href="#DejaVuSans-65" x="380.603516"/>
      <use xlink:href="#DejaVuSans-69" x="442.126953"/>
      <use xlink:href="#DejaVuSans-74" x="469.910156"/>
     </g>
    </g>
   </g>
   <g id="patch_340">
    <path d="M 57.26 288.645994 
L 57.26 26.16 
" style="fill: none; stroke: #000000; stroke-width: 0.8; stroke-linejoin: miter; stroke-linecap: square"/>
   </g>
   <g id="patch_341">
    <path d="M 450 288.645994 
L 450 26.16 
" style="fill: none; stroke: #000000; stroke-width: 0.8; stroke-linejoin: miter; stroke-linecap: square"/>
   </g>
   <g id="patch_342">
    <path d="M 57.26 288.645994 
L 450 288.645994 
" style="fill: none; stroke: #000000; stroke-width: 0.8; stroke-linejoin: miter; stroke-linecap: square"/>
   </g>
   <g id="patch_343">
    <path d="M 57.26 26.16 
L 450 26.16 
" style="fill: none; stroke: #000000; stroke-width: 0.8; stroke-linejoin: miter; stroke-linecap: square"/>
   </g>
   <g id="text_14">
    <!-- attr_index -->
    <g transform="translate(223.365625 20.16) scale(0.12 -0.12)">
     <defs>
      <path id="DejaVuSans-61" d="M 2194 1759 
Q 1497 1759 1228 1600 
Q 959 1441 959 1056 
Q 959 750 1161 570 
Q 1363 391 1709 391 
Q 2188 391 2477 730 
Q 2766 1069 2766 1631 
L 2766 1759 
L 2194 1759 
z
M 3341 1997 
L 3341 0 
L 2766 0 
L 2766 531 
Q 2569 213 2275 61 
Q 1981 -91 1556 -91 
Q 1019 -91 701 211 
Q 384 513 384 1019 
Q 384 1609 779 1909 
Q 1175 2209 1959 2209 
L 2766 2209 
L 2766 2266 
Q 2766 2663 2505 2880 
Q 2244 3097 1772 3097 
Q 1472 3097 1187 3025 
Q 903 2953 641 2809 
L 641 3341 
Q 956 3463 1253 3523 
Q 1550 3584 1831 3584 
Q 2591 3584 2966 3190 
Q 3341 2797 3341 1997 
z
" transform="scale(0.015625)"/>
      <path id="DejaVuSans-5f" d="M 3263 -1063 
L 3263 -1509 
L -63 -1509 
L -63 -1063 
L 3263 -1063 
z
" transform="scale(0.015625)"/>
      <path id="DejaVuSans-6e" d="M 3513 2113 
L 3513 0 
L 2938 0 
L 2938 2094 
Q 2938 2591 2744 2837 
Q 2550 3084 2163 3084 
Q 1697 3084 1428 2787 
Q 1159 2491 1159 1978 
L 1159 0 
L 581 0 
L 581 3500 
L 1159 3500 
L 1159 2956 
Q 1366 3272 1645 3428 
Q 1925 3584 2291 3584 
Q 2894 3584 3203 3211 
Q 3513 2838 3513 2113 
z
" transform="scale(0.015625)"/>
      <path id="DejaVuSans-64" d="M 2906 2969 
L 2906 4863 
L 3481 4863 
L 3481 0 
L 2906 0 
L 2906 525 
Q 2725 213 2448 61 
Q 2172 -91 1784 -91 
Q 1150 -91 751 415 
Q 353 922 353 1747 
Q 353 2572 751 3078 
Q 1150 3584 1784 3584 
Q 2172 3584 2448 3432 
Q 2725 3281 2906 2969 
z
M 947 1747 
Q 947 1113 1208 752 
Q 1469 391 1925 391 
Q 2381 391 2643 752 
Q 2906 1113 2906 1747 
Q 2906 2381 2643 2742 
Q 2381 3103 1925 3103 
Q 1469 3103 1208 2742 
Q 947 2381 947 1747 
z
" transform="scale(0.015625)"/>
      <path id="DejaVuSans-78" d="M 3513 3500 
L 2247 1797 
L 3578 0 
L 2900 0 
L 1881 1375 
L 863 0 
L 184 0 
L 1544 1831 
L 300 3500 
L 978 3500 
L 1906 2253 
L 2834 3500 
L 3513 3500 
z
" transform="scale(0.015625)"/>
     </defs>
     <use xlink:href="#DejaVuSans-61"/>
     <use xlink:href="#DejaVuSans-74" x="61.279297"/>
     <use xlink:href="#DejaVuSans-74" x="100.488281"/>
     <use xlink:href="#DejaVuSans-72" x="139.697266"/>
     <use xlink:href="#DejaVuSans-5f" x="180.810547"/>
     <use xlink:href="#DejaVuSans-69" x="230.810547"/>
     <use xlink:href="#DejaVuSans-6e" x="258.59375"/>
     <use xlink:href="#DejaVuSans-64" x="321.972656"/>
     <use xlink:href="#DejaVuSans-65" x="385.449219"/>
     <use xlink:href="#DejaVuSans-78" x="445.222656"/>
    </g>
   </g>
  </g>
 </g>
 <defs>
  <clipPath id="p2f27eedb8f">
   <rect x="57.26" y="26.16" width="392.74" height="262.485994"/>
  </clipPath>
 </defs>
</svg>
