<?xml version="1.0" encoding="utf-8" standalone="no"?>
<!DOCTYPE svg PUBLIC "-//W3C//DTD SVG 1.1//EN"
  "http://www.w3.org/Graphics/SVG/1.1/DTD/svg11.dtd">
<svg xmlns:xlink="http://www.w3.org/1999/xlink" width="460.8pt" height="345.6pt" viewBox="0 0 460.8 345.6" xmlns="http://www.w3.org/2000/svg" version="1.1">
 <metadata>
  <rdf:RDF xmlns:dc="http://purl.org/dc/elements/1.1/" xmlns:cc="http://creativecommons.org/ns#" xmlns:rdf="http://www.w3.org/1999/02/22-rdf-syntax-ns#">
   <cc:Work>
    <dc:type rdf:resource="http://purl.org/dc/dcmitype/StillImage"/>
    <dc:date>2024-01-20T11:51:41.188008</dc:date>
    <dc:format>image/svg+xml</dc:format>
    <dc:creator>
     <cc:Agent>
      <dc:title>Matplotlib v3.8.0, https://matplotlib.org/</dc:title>
     </cc:Agent>
    </dc:creator>
   </cc:Work>
  </rdf:RDF>
 </metadata>
 <defs>
  <style type="text/css">*{stroke-linejoin: round; stroke-linecap: butt}</style>
 </defs>
 <g id="figure_1">
  <g id="patch_1">
   <path d="M 0 345.6 
L 460.8 345.6 
L 460.8 0 
L 0 0 
z
" style="fill: #ffffff"/>
  </g>
  <g id="axes_1">
   <g id="patch_2">
    <path d="M 57.26 293.132586 
L 450 293.132586 
L 450 26.16 
L 57.26 26.16 
z
" style="fill: #ffffff"/>
   </g>
   <g id="patch_3">
    <path d="M 75.111818 293.132586 
L 77.237035 293.132586 
L 77.237035 272.09216 
L 75.111818 272.09216 
z
" clip-path="url(#p90c18efff1)" style="fill: #1f77b4; opacity: 0.5"/>
   </g>
   <g id="patch_4">
    <path d="M 77.237035 293.132586 
L 79.362251 293.132586 
L 79.362251 207.069639 
L 77.237035 207.069639 
z
" clip-path="url(#p90c18efff1)" style="fill: #1f77b4; opacity: 0.5"/>
   </g>
   <g id="patch_5">
    <path d="M 79.362251 293.132586 
L 81.487468 293.132586 
L 81.487468 157.003565 
L 79.362251 157.003565 
z
" clip-path="url(#p90c18efff1)" style="fill: #1f77b4; opacity: 0.5"/>
   </g>
   <g id="patch_6">
    <path d="M 81.487468 293.132586 
L 83.612684 293.132586 
L 83.612684 142.173867 
L 81.487468 142.173867 
z
" clip-path="url(#p90c18efff1)" style="fill: #1f77b4; opacity: 0.5"/>
   </g>
   <g id="patch_7">
    <path d="M 83.612684 293.132586 
L 85.7379 293.132586 
L 85.7379 40.647474 
L 83.612684 40.647474 
z
" clip-path="url(#p90c18efff1)" style="fill: #1f77b4; opacity: 0.5"/>
   </g>
   <g id="patch_8">
    <path d="M 85.7379 293.132586 
L 87.863117 293.132586 
L 87.863117 38.87298 
L 85.7379 38.87298 
z
" clip-path="url(#p90c18efff1)" style="fill: #1f77b4; opacity: 0.5"/>
   </g>
   <g id="patch_9">
    <path d="M 87.863117 293.132586 
L 89.988333 293.132586 
L 89.988333 43.816213 
L 87.863117 43.816213 
z
" clip-path="url(#p90c18efff1)" style="fill: #1f77b4; opacity: 0.5"/>
   </g>
   <g id="patch_10">
    <path d="M 89.988333 293.132586 
L 92.11355 293.132586 
L 92.11355 71.067367 
L 89.988333 71.067367 
z
" clip-path="url(#p90c18efff1)" style="fill: #1f77b4; opacity: 0.5"/>
   </g>
   <g id="patch_11">
    <path d="M 92.11355 293.132586 
L 94.238766 293.132586 
L 94.238766 82.855076 
L 92.11355 82.855076 
z
" clip-path="url(#p90c18efff1)" style="fill: #1f77b4; opacity: 0.5"/>
   </g>
   <g id="patch_12">
    <path d="M 94.238766 293.132586 
L 96.363983 293.132586 
L 96.363983 76.897847 
L 94.238766 76.897847 
z
" clip-path="url(#p90c18efff1)" style="fill: #1f77b4; opacity: 0.5"/>
   </g>
   <g id="patch_13">
    <path d="M 96.363983 293.132586 
L 98.489199 293.132586 
L 98.489199 88.939054 
L 96.363983 88.939054 
z
" clip-path="url(#p90c18efff1)" style="fill: #1f77b4; opacity: 0.5"/>
   </g>
   <g id="patch_14">
    <path d="M 98.489199 293.132586 
L 100.614416 293.132586 
L 100.614416 103.515253 
L 98.489199 103.515253 
z
" clip-path="url(#p90c18efff1)" style="fill: #1f77b4; opacity: 0.5"/>
   </g>
   <g id="patch_15">
    <path d="M 100.614416 293.132586 
L 102.739632 293.132586 
L 102.739632 105.543246 
L 100.614416 105.543246 
z
" clip-path="url(#p90c18efff1)" style="fill: #1f77b4; opacity: 0.5"/>
   </g>
   <g id="patch_16">
    <path d="M 102.739632 293.132586 
L 104.864848 293.132586 
L 104.864848 127.09067 
L 102.739632 127.09067 
z
" clip-path="url(#p90c18efff1)" style="fill: #1f77b4; opacity: 0.5"/>
   </g>
   <g id="patch_17">
    <path d="M 104.864848 293.132586 
L 106.990065 293.132586 
L 106.990065 113.528468 
L 104.864848 113.528468 
z
" clip-path="url(#p90c18efff1)" style="fill: #1f77b4; opacity: 0.5"/>
   </g>
   <g id="patch_18">
    <path d="M 106.990065 293.132586 
L 109.115281 293.132586 
L 109.115281 100.853512 
L 106.990065 100.853512 
z
" clip-path="url(#p90c18efff1)" style="fill: #1f77b4; opacity: 0.5"/>
   </g>
   <g id="patch_19">
    <path d="M 109.115281 293.132586 
L 111.240498 293.132586 
L 111.240498 98.445271 
L 109.115281 98.445271 
z
" clip-path="url(#p90c18efff1)" style="fill: #1f77b4; opacity: 0.5"/>
   </g>
   <g id="patch_20">
    <path d="M 111.240498 293.132586 
L 113.365714 293.132586 
L 113.365714 104.4025 
L 111.240498 104.4025 
z
" clip-path="url(#p90c18efff1)" style="fill: #1f77b4; opacity: 0.5"/>
   </g>
   <g id="patch_21">
    <path d="M 113.365714 293.132586 
L 115.490931 293.132586 
L 115.490931 107.19099 
L 113.365714 107.19099 
z
" clip-path="url(#p90c18efff1)" style="fill: #1f77b4; opacity: 0.5"/>
   </g>
   <g id="patch_22">
    <path d="M 115.490931 293.132586 
L 117.616147 293.132586 
L 117.616147 99.332518 
L 115.490931 99.332518 
z
" clip-path="url(#p90c18efff1)" style="fill: #1f77b4; opacity: 0.5"/>
   </g>
   <g id="patch_23">
    <path d="M 117.616147 293.132586 
L 119.741364 293.132586 
L 119.741364 96.417278 
L 117.616147 96.417278 
z
" clip-path="url(#p90c18efff1)" style="fill: #1f77b4; opacity: 0.5"/>
   </g>
   <g id="patch_24">
    <path d="M 119.741364 293.132586 
L 121.86658 293.132586 
L 121.86658 105.543246 
L 119.741364 105.543246 
z
" clip-path="url(#p90c18efff1)" style="fill: #1f77b4; opacity: 0.5"/>
   </g>
   <g id="patch_25">
    <path d="M 121.86658 293.132586 
L 123.991797 293.132586 
L 123.991797 125.062677 
L 121.86658 125.062677 
z
" clip-path="url(#p90c18efff1)" style="fill: #1f77b4; opacity: 0.5"/>
   </g>
   <g id="patch_26">
    <path d="M 123.991797 293.132586 
L 126.117013 293.132586 
L 126.117013 132.7944 
L 123.991797 132.7944 
z
" clip-path="url(#p90c18efff1)" style="fill: #1f77b4; opacity: 0.5"/>
   </g>
   <g id="patch_27">
    <path d="M 126.117013 293.132586 
L 128.242229 293.132586 
L 128.242229 143.061114 
L 126.117013 143.061114 
z
" clip-path="url(#p90c18efff1)" style="fill: #1f77b4; opacity: 0.5"/>
   </g>
   <g id="patch_28">
    <path d="M 128.242229 293.132586 
L 130.367446 293.132586 
L 130.367446 164.481789 
L 128.242229 164.481789 
z
" clip-path="url(#p90c18efff1)" style="fill: #1f77b4; opacity: 0.5"/>
   </g>
   <g id="patch_29">
    <path d="M 130.367446 293.132586 
L 132.492662 293.132586 
L 132.492662 177.536993 
L 130.367446 177.536993 
z
" clip-path="url(#p90c18efff1)" style="fill: #1f77b4; opacity: 0.5"/>
   </g>
   <g id="patch_30">
    <path d="M 132.492662 293.132586 
L 134.617879 293.132586 
L 134.617879 160.299053 
L 132.492662 160.299053 
z
" clip-path="url(#p90c18efff1)" style="fill: #1f77b4; opacity: 0.5"/>
   </g>
   <g id="patch_31">
    <path d="M 134.617879 293.132586 
L 136.743095 293.132586 
L 136.743095 191.352694 
L 134.617879 191.352694 
z
" clip-path="url(#p90c18efff1)" style="fill: #1f77b4; opacity: 0.5"/>
   </g>
   <g id="patch_32">
    <path d="M 136.743095 293.132586 
L 138.868312 293.132586 
L 138.868312 200.351912 
L 136.743095 200.351912 
z
" clip-path="url(#p90c18efff1)" style="fill: #1f77b4; opacity: 0.5"/>
   </g>
   <g id="patch_33">
    <path d="M 138.868312 293.132586 
L 140.993528 293.132586 
L 140.993528 193.507436 
L 138.868312 193.507436 
z
" clip-path="url(#p90c18efff1)" style="fill: #1f77b4; opacity: 0.5"/>
   </g>
   <g id="patch_34">
    <path d="M 140.993528 293.132586 
L 143.118745 293.132586 
L 143.118745 212.39312 
L 140.993528 212.39312 
z
" clip-path="url(#p90c18efff1)" style="fill: #1f77b4; opacity: 0.5"/>
   </g>
   <g id="patch_35">
    <path d="M 143.118745 293.132586 
L 145.243961 293.132586 
L 145.243961 202.886903 
L 143.118745 202.886903 
z
" clip-path="url(#p90c18efff1)" style="fill: #1f77b4; opacity: 0.5"/>
   </g>
   <g id="patch_36">
    <path d="M 145.243961 293.132586 
L 147.369177 293.132586 
L 147.369177 221.645837 
L 145.243961 221.645837 
z
" clip-path="url(#p90c18efff1)" style="fill: #1f77b4; opacity: 0.5"/>
   </g>
   <g id="patch_37">
    <path d="M 147.369177 293.132586 
L 149.494394 293.132586 
L 149.494394 225.321575 
L 147.369177 225.321575 
z
" clip-path="url(#p90c18efff1)" style="fill: #1f77b4; opacity: 0.5"/>
   </g>
   <g id="patch_38">
    <path d="M 149.494394 293.132586 
L 151.61961 293.132586 
L 151.61961 228.110065 
L 149.494394 228.110065 
z
" clip-path="url(#p90c18efff1)" style="fill: #1f77b4; opacity: 0.5"/>
   </g>
   <g id="patch_39">
    <path d="M 151.61961 293.132586 
L 153.744827 293.132586 
L 153.744827 220.505091 
L 151.61961 220.505091 
z
" clip-path="url(#p90c18efff1)" style="fill: #1f77b4; opacity: 0.5"/>
   </g>
   <g id="patch_40">
    <path d="M 153.744827 293.132586 
L 155.870043 293.132586 
L 155.870043 232.799798 
L 153.744827 232.799798 
z
" clip-path="url(#p90c18efff1)" style="fill: #1f77b4; opacity: 0.5"/>
   </g>
   <g id="patch_41">
    <path d="M 155.870043 293.132586 
L 157.99526 293.132586 
L 157.99526 239.644274 
L 155.870043 239.644274 
z
" clip-path="url(#p90c18efff1)" style="fill: #1f77b4; opacity: 0.5"/>
   </g>
   <g id="patch_42">
    <path d="M 157.99526 293.132586 
L 160.120476 293.132586 
L 160.120476 237.99653 
L 157.99526 237.99653 
z
" clip-path="url(#p90c18efff1)" style="fill: #1f77b4; opacity: 0.5"/>
   </g>
   <g id="patch_43">
    <path d="M 160.120476 293.132586 
L 162.245693 293.132586 
L 162.245693 239.264026 
L 160.120476 239.264026 
z
" clip-path="url(#p90c18efff1)" style="fill: #1f77b4; opacity: 0.5"/>
   </g>
   <g id="patch_44">
    <path d="M 162.245693 293.132586 
L 164.370909 293.132586 
L 164.370909 243.70026 
L 162.245693 243.70026 
z
" clip-path="url(#p90c18efff1)" style="fill: #1f77b4; opacity: 0.5"/>
   </g>
   <g id="patch_45">
    <path d="M 164.370909 293.132586 
L 166.496126 293.132586 
L 166.496126 250.671485 
L 164.370909 250.671485 
z
" clip-path="url(#p90c18efff1)" style="fill: #1f77b4; opacity: 0.5"/>
   </g>
   <g id="patch_46">
    <path d="M 166.496126 293.132586 
L 168.621342 293.132586 
L 168.621342 251.938981 
L 166.496126 251.938981 
z
" clip-path="url(#p90c18efff1)" style="fill: #1f77b4; opacity: 0.5"/>
   </g>
   <g id="patch_47">
    <path d="M 168.621342 293.132586 
L 170.746558 293.132586 
L 170.746558 258.783457 
L 168.621342 258.783457 
z
" clip-path="url(#p90c18efff1)" style="fill: #1f77b4; opacity: 0.5"/>
   </g>
   <g id="patch_48">
    <path d="M 170.746558 293.132586 
L 172.871775 293.132586 
L 172.871775 259.417205 
L 170.746558 259.417205 
z
" clip-path="url(#p90c18efff1)" style="fill: #1f77b4; opacity: 0.5"/>
   </g>
   <g id="patch_49">
    <path d="M 172.871775 293.132586 
L 174.996991 293.132586 
L 174.996991 262.712693 
L 172.871775 262.712693 
z
" clip-path="url(#p90c18efff1)" style="fill: #1f77b4; opacity: 0.5"/>
   </g>
   <g id="patch_50">
    <path d="M 174.996991 293.132586 
L 177.122208 293.132586 
L 177.122208 264.487187 
L 174.996991 264.487187 
z
" clip-path="url(#p90c18efff1)" style="fill: #1f77b4; opacity: 0.5"/>
   </g>
   <g id="patch_51">
    <path d="M 177.122208 293.132586 
L 179.247424 293.132586 
L 179.247424 267.022178 
L 177.122208 267.022178 
z
" clip-path="url(#p90c18efff1)" style="fill: #1f77b4; opacity: 0.5"/>
   </g>
   <g id="patch_52">
    <path d="M 179.247424 293.132586 
L 181.372641 293.132586 
L 181.372641 269.810668 
L 179.247424 269.810668 
z
" clip-path="url(#p90c18efff1)" style="fill: #1f77b4; opacity: 0.5"/>
   </g>
   <g id="patch_53">
    <path d="M 181.372641 293.132586 
L 183.497857 293.132586 
L 183.497857 269.17692 
L 181.372641 269.17692 
z
" clip-path="url(#p90c18efff1)" style="fill: #1f77b4; opacity: 0.5"/>
   </g>
   <g id="patch_54">
    <path d="M 183.497857 293.132586 
L 185.623074 293.132586 
L 185.623074 267.275677 
L 183.497857 267.275677 
z
" clip-path="url(#p90c18efff1)" style="fill: #1f77b4; opacity: 0.5"/>
   </g>
   <g id="patch_55">
    <path d="M 185.623074 293.132586 
L 187.74829 293.132586 
L 187.74829 273.613155 
L 185.623074 273.613155 
z
" clip-path="url(#p90c18efff1)" style="fill: #1f77b4; opacity: 0.5"/>
   </g>
   <g id="patch_56">
    <path d="M 187.74829 293.132586 
L 189.873506 293.132586 
L 189.873506 274.88065 
L 187.74829 274.88065 
z
" clip-path="url(#p90c18efff1)" style="fill: #1f77b4; opacity: 0.5"/>
   </g>
   <g id="patch_57">
    <path d="M 189.873506 293.132586 
L 191.998723 293.132586 
L 191.998723 274.500402 
L 189.873506 274.500402 
z
" clip-path="url(#p90c18efff1)" style="fill: #1f77b4; opacity: 0.5"/>
   </g>
   <g id="patch_58">
    <path d="M 191.998723 293.132586 
L 194.123939 293.132586 
L 194.123939 276.274895 
L 191.998723 276.274895 
z
" clip-path="url(#p90c18efff1)" style="fill: #1f77b4; opacity: 0.5"/>
   </g>
   <g id="patch_59">
    <path d="M 194.123939 293.132586 
L 196.249156 293.132586 
L 196.249156 280.077382 
L 194.123939 280.077382 
z
" clip-path="url(#p90c18efff1)" style="fill: #1f77b4; opacity: 0.5"/>
   </g>
   <g id="patch_60">
    <path d="M 196.249156 293.132586 
L 198.374372 293.132586 
L 198.374372 282.358874 
L 196.249156 282.358874 
z
" clip-path="url(#p90c18efff1)" style="fill: #1f77b4; opacity: 0.5"/>
   </g>
   <g id="patch_61">
    <path d="M 198.374372 293.132586 
L 200.499589 293.132586 
L 200.499589 275.387648 
L 198.374372 275.387648 
z
" clip-path="url(#p90c18efff1)" style="fill: #1f77b4; opacity: 0.5"/>
   </g>
   <g id="patch_62">
    <path d="M 200.499589 293.132586 
L 202.624805 293.132586 
L 202.624805 282.612373 
L 200.499589 282.612373 
z
" clip-path="url(#p90c18efff1)" style="fill: #1f77b4; opacity: 0.5"/>
   </g>
   <g id="patch_63">
    <path d="M 202.624805 293.132586 
L 204.750022 293.132586 
L 204.750022 279.697133 
L 202.624805 279.697133 
z
" clip-path="url(#p90c18efff1)" style="fill: #1f77b4; opacity: 0.5"/>
   </g>
   <g id="patch_64">
    <path d="M 204.750022 293.132586 
L 206.875238 293.132586 
L 206.875238 283.119371 
L 204.750022 283.119371 
z
" clip-path="url(#p90c18efff1)" style="fill: #1f77b4; opacity: 0.5"/>
   </g>
   <g id="patch_65">
    <path d="M 206.875238 293.132586 
L 209.000455 293.132586 
L 209.000455 282.865872 
L 206.875238 282.865872 
z
" clip-path="url(#p90c18efff1)" style="fill: #1f77b4; opacity: 0.5"/>
   </g>
   <g id="patch_66">
    <path d="M 209.000455 293.132586 
L 211.125671 293.132586 
L 211.125671 282.612373 
L 209.000455 282.612373 
z
" clip-path="url(#p90c18efff1)" style="fill: #1f77b4; opacity: 0.5"/>
   </g>
   <g id="patch_67">
    <path d="M 211.125671 293.132586 
L 213.250887 293.132586 
L 213.250887 285.907861 
L 211.125671 285.907861 
z
" clip-path="url(#p90c18efff1)" style="fill: #1f77b4; opacity: 0.5"/>
   </g>
   <g id="patch_68">
    <path d="M 213.250887 293.132586 
L 215.376104 293.132586 
L 215.376104 287.048607 
L 213.250887 287.048607 
z
" clip-path="url(#p90c18efff1)" style="fill: #1f77b4; opacity: 0.5"/>
   </g>
   <g id="patch_69">
    <path d="M 215.376104 293.132586 
L 217.50132 293.132586 
L 217.50132 285.781112 
L 215.376104 285.781112 
z
" clip-path="url(#p90c18efff1)" style="fill: #1f77b4; opacity: 0.5"/>
   </g>
   <g id="patch_70">
    <path d="M 217.50132 293.132586 
L 219.626537 293.132586 
L 219.626537 286.161361 
L 217.50132 286.161361 
z
" clip-path="url(#p90c18efff1)" style="fill: #1f77b4; opacity: 0.5"/>
   </g>
   <g id="patch_71">
    <path d="M 219.626537 293.132586 
L 221.751753 293.132586 
L 221.751753 285.020615 
L 219.626537 285.020615 
z
" clip-path="url(#p90c18efff1)" style="fill: #1f77b4; opacity: 0.5"/>
   </g>
   <g id="patch_72">
    <path d="M 221.751753 293.132586 
L 223.87697 293.132586 
L 223.87697 288.442853 
L 221.751753 288.442853 
z
" clip-path="url(#p90c18efff1)" style="fill: #1f77b4; opacity: 0.5"/>
   </g>
   <g id="patch_73">
    <path d="M 223.87697 293.132586 
L 226.002186 293.132586 
L 226.002186 287.048607 
L 223.87697 287.048607 
z
" clip-path="url(#p90c18efff1)" style="fill: #1f77b4; opacity: 0.5"/>
   </g>
   <g id="patch_74">
    <path d="M 226.002186 293.132586 
L 228.127403 293.132586 
L 228.127403 289.20335 
L 226.002186 289.20335 
z
" clip-path="url(#p90c18efff1)" style="fill: #1f77b4; opacity: 0.5"/>
   </g>
   <g id="patch_75">
    <path d="M 228.127403 293.132586 
L 230.252619 293.132586 
L 230.252619 287.302107 
L 228.127403 287.302107 
z
" clip-path="url(#p90c18efff1)" style="fill: #1f77b4; opacity: 0.5"/>
   </g>
   <g id="patch_76">
    <path d="M 230.252619 293.132586 
L 232.377835 293.132586 
L 232.377835 288.316103 
L 230.252619 288.316103 
z
" clip-path="url(#p90c18efff1)" style="fill: #1f77b4; opacity: 0.5"/>
   </g>
   <g id="patch_77">
    <path d="M 232.377835 293.132586 
L 234.503052 293.132586 
L 234.503052 289.456849 
L 232.377835 289.456849 
z
" clip-path="url(#p90c18efff1)" style="fill: #1f77b4; opacity: 0.5"/>
   </g>
   <g id="patch_78">
    <path d="M 234.503052 293.132586 
L 236.628268 293.132586 
L 236.628268 290.090597 
L 234.503052 290.090597 
z
" clip-path="url(#p90c18efff1)" style="fill: #1f77b4; opacity: 0.5"/>
   </g>
   <g id="patch_79">
    <path d="M 236.628268 293.132586 
L 238.753485 293.132586 
L 238.753485 290.217346 
L 236.628268 290.217346 
z
" clip-path="url(#p90c18efff1)" style="fill: #1f77b4; opacity: 0.5"/>
   </g>
   <g id="patch_80">
    <path d="M 238.753485 293.132586 
L 240.878701 293.132586 
L 240.878701 291.99184 
L 238.753485 291.99184 
z
" clip-path="url(#p90c18efff1)" style="fill: #1f77b4; opacity: 0.5"/>
   </g>
   <g id="patch_81">
    <path d="M 240.878701 293.132586 
L 243.003918 293.132586 
L 243.003918 290.470845 
L 240.878701 290.470845 
z
" clip-path="url(#p90c18efff1)" style="fill: #1f77b4; opacity: 0.5"/>
   </g>
   <g id="patch_82">
    <path d="M 243.003918 293.132586 
L 245.129134 293.132586 
L 245.129134 290.851094 
L 243.003918 290.851094 
z
" clip-path="url(#p90c18efff1)" style="fill: #1f77b4; opacity: 0.5"/>
   </g>
   <g id="patch_83">
    <path d="M 245.129134 293.132586 
L 247.254351 293.132586 
L 247.254351 292.245339 
L 245.129134 292.245339 
z
" clip-path="url(#p90c18efff1)" style="fill: #1f77b4; opacity: 0.5"/>
   </g>
   <g id="patch_84">
    <path d="M 247.254351 293.132586 
L 249.379567 293.132586 
L 249.379567 290.851094 
L 247.254351 290.851094 
z
" clip-path="url(#p90c18efff1)" style="fill: #1f77b4; opacity: 0.5"/>
   </g>
   <g id="patch_85">
    <path d="M 249.379567 293.132586 
L 251.504784 293.132586 
L 251.504784 291.865091 
L 249.379567 291.865091 
z
" clip-path="url(#p90c18efff1)" style="fill: #1f77b4; opacity: 0.5"/>
   </g>
   <g id="patch_86">
    <path d="M 251.504784 293.132586 
L 253.63 293.132586 
L 253.63 292.245339 
L 251.504784 292.245339 
z
" clip-path="url(#p90c18efff1)" style="fill: #1f77b4; opacity: 0.5"/>
   </g>
   <g id="patch_87">
    <path d="M 253.63 293.132586 
L 255.755216 293.132586 
L 255.755216 290.724345 
L 253.63 290.724345 
z
" clip-path="url(#p90c18efff1)" style="fill: #1f77b4; opacity: 0.5"/>
   </g>
   <g id="patch_88">
    <path d="M 255.755216 293.132586 
L 257.880433 293.132586 
L 257.880433 291.484842 
L 255.755216 291.484842 
z
" clip-path="url(#p90c18efff1)" style="fill: #1f77b4; opacity: 0.5"/>
   </g>
   <g id="patch_89">
    <path d="M 257.880433 293.132586 
L 260.005649 293.132586 
L 260.005649 292.245339 
L 257.880433 292.245339 
z
" clip-path="url(#p90c18efff1)" style="fill: #1f77b4; opacity: 0.5"/>
   </g>
   <g id="patch_90">
    <path d="M 260.005649 293.132586 
L 262.130866 293.132586 
L 262.130866 290.977844 
L 260.005649 290.977844 
z
" clip-path="url(#p90c18efff1)" style="fill: #1f77b4; opacity: 0.5"/>
   </g>
   <g id="patch_91">
    <path d="M 262.130866 293.132586 
L 264.256082 293.132586 
L 264.256082 292.245339 
L 262.130866 292.245339 
z
" clip-path="url(#p90c18efff1)" style="fill: #1f77b4; opacity: 0.5"/>
   </g>
   <g id="patch_92">
    <path d="M 264.256082 293.132586 
L 266.381299 293.132586 
L 266.381299 292.11859 
L 264.256082 292.11859 
z
" clip-path="url(#p90c18efff1)" style="fill: #1f77b4; opacity: 0.5"/>
   </g>
   <g id="patch_93">
    <path d="M 266.381299 293.132586 
L 268.506515 293.132586 
L 268.506515 291.99184 
L 266.381299 291.99184 
z
" clip-path="url(#p90c18efff1)" style="fill: #1f77b4; opacity: 0.5"/>
   </g>
   <g id="patch_94">
    <path d="M 268.506515 293.132586 
L 270.631732 293.132586 
L 270.631732 292.372089 
L 268.506515 292.372089 
z
" clip-path="url(#p90c18efff1)" style="fill: #1f77b4; opacity: 0.5"/>
   </g>
   <g id="patch_95">
    <path d="M 270.631732 293.132586 
L 272.756948 293.132586 
L 272.756948 291.738341 
L 270.631732 291.738341 
z
" clip-path="url(#p90c18efff1)" style="fill: #1f77b4; opacity: 0.5"/>
   </g>
   <g id="patch_96">
    <path d="M 272.756948 293.132586 
L 274.882165 293.132586 
L 274.882165 290.851094 
L 272.756948 290.851094 
z
" clip-path="url(#p90c18efff1)" style="fill: #1f77b4; opacity: 0.5"/>
   </g>
   <g id="patch_97">
    <path d="M 274.882165 293.132586 
L 277.007381 293.132586 
L 277.007381 291.99184 
L 274.882165 291.99184 
z
" clip-path="url(#p90c18efff1)" style="fill: #1f77b4; opacity: 0.5"/>
   </g>
   <g id="patch_98">
    <path d="M 277.007381 293.132586 
L 279.132597 293.132586 
L 279.132597 290.977844 
L 277.007381 290.977844 
z
" clip-path="url(#p90c18efff1)" style="fill: #1f77b4; opacity: 0.5"/>
   </g>
   <g id="patch_99">
    <path d="M 279.132597 293.132586 
L 281.257814 293.132586 
L 281.257814 290.470845 
L 279.132597 290.470845 
z
" clip-path="url(#p90c18efff1)" style="fill: #1f77b4; opacity: 0.5"/>
   </g>
   <g id="patch_100">
    <path d="M 281.257814 293.132586 
L 283.38303 293.132586 
L 283.38303 292.498838 
L 281.257814 292.498838 
z
" clip-path="url(#p90c18efff1)" style="fill: #1f77b4; opacity: 0.5"/>
   </g>
   <g id="patch_101">
    <path d="M 283.38303 293.132586 
L 285.508247 293.132586 
L 285.508247 291.104593 
L 283.38303 291.104593 
z
" clip-path="url(#p90c18efff1)" style="fill: #1f77b4; opacity: 0.5"/>
   </g>
   <g id="patch_102">
    <path d="M 285.508247 293.132586 
L 287.633463 293.132586 
L 287.633463 291.865091 
L 285.508247 291.865091 
z
" clip-path="url(#p90c18efff1)" style="fill: #1f77b4; opacity: 0.5"/>
   </g>
   <g id="patch_103">
    <path d="M 287.633463 293.132586 
L 289.75868 293.132586 
L 289.75868 291.865091 
L 287.633463 291.865091 
z
" clip-path="url(#p90c18efff1)" style="fill: #1f77b4; opacity: 0.5"/>
   </g>
   <g id="patch_104">
    <path d="M 289.75868 293.132586 
L 291.883896 293.132586 
L 291.883896 291.738341 
L 289.75868 291.738341 
z
" clip-path="url(#p90c18efff1)" style="fill: #1f77b4; opacity: 0.5"/>
   </g>
   <g id="patch_105">
    <path d="M 291.883896 293.132586 
L 294.009113 293.132586 
L 294.009113 291.99184 
L 291.883896 291.99184 
z
" clip-path="url(#p90c18efff1)" style="fill: #1f77b4; opacity: 0.5"/>
   </g>
   <g id="patch_106">
    <path d="M 294.009113 293.132586 
L 296.134329 293.132586 
L 296.134329 292.245339 
L 294.009113 292.245339 
z
" clip-path="url(#p90c18efff1)" style="fill: #1f77b4; opacity: 0.5"/>
   </g>
   <g id="patch_107">
    <path d="M 296.134329 293.132586 
L 298.259545 293.132586 
L 298.259545 291.865091 
L 296.134329 291.865091 
z
" clip-path="url(#p90c18efff1)" style="fill: #1f77b4; opacity: 0.5"/>
   </g>
   <g id="patch_108">
    <path d="M 298.259545 293.132586 
L 300.384762 293.132586 
L 300.384762 291.738341 
L 298.259545 291.738341 
z
" clip-path="url(#p90c18efff1)" style="fill: #1f77b4; opacity: 0.5"/>
   </g>
   <g id="patch_109">
    <path d="M 300.384762 293.132586 
L 302.509978 293.132586 
L 302.509978 292.245339 
L 300.384762 292.245339 
z
" clip-path="url(#p90c18efff1)" style="fill: #1f77b4; opacity: 0.5"/>
   </g>
   <g id="patch_110">
    <path d="M 302.509978 293.132586 
L 304.635195 293.132586 
L 304.635195 291.484842 
L 302.509978 291.484842 
z
" clip-path="url(#p90c18efff1)" style="fill: #1f77b4; opacity: 0.5"/>
   </g>
   <g id="patch_111">
    <path d="M 304.635195 293.132586 
L 306.760411 293.132586 
L 306.760411 292.625588 
L 304.635195 292.625588 
z
" clip-path="url(#p90c18efff1)" style="fill: #1f77b4; opacity: 0.5"/>
   </g>
   <g id="patch_112">
    <path d="M 306.760411 293.132586 
L 308.885628 293.132586 
L 308.885628 292.11859 
L 306.760411 292.11859 
z
" clip-path="url(#p90c18efff1)" style="fill: #1f77b4; opacity: 0.5"/>
   </g>
   <g id="patch_113">
    <path d="M 308.885628 293.132586 
L 311.010844 293.132586 
L 311.010844 291.611591 
L 308.885628 291.611591 
z
" clip-path="url(#p90c18efff1)" style="fill: #1f77b4; opacity: 0.5"/>
   </g>
   <g id="patch_114">
    <path d="M 311.010844 293.132586 
L 313.136061 293.132586 
L 313.136061 292.11859 
L 311.010844 292.11859 
z
" clip-path="url(#p90c18efff1)" style="fill: #1f77b4; opacity: 0.5"/>
   </g>
   <g id="patch_115">
    <path d="M 313.136061 293.132586 
L 315.261277 293.132586 
L 315.261277 292.11859 
L 313.136061 292.11859 
z
" clip-path="url(#p90c18efff1)" style="fill: #1f77b4; opacity: 0.5"/>
   </g>
   <g id="patch_116">
    <path d="M 315.261277 293.132586 
L 317.386494 293.132586 
L 317.386494 292.11859 
L 315.261277 292.11859 
z
" clip-path="url(#p90c18efff1)" style="fill: #1f77b4; opacity: 0.5"/>
   </g>
   <g id="patch_117">
    <path d="M 317.386494 293.132586 
L 319.51171 293.132586 
L 319.51171 292.372089 
L 317.386494 292.372089 
z
" clip-path="url(#p90c18efff1)" style="fill: #1f77b4; opacity: 0.5"/>
   </g>
   <g id="patch_118">
    <path d="M 319.51171 293.132586 
L 321.636926 293.132586 
L 321.636926 293.005837 
L 319.51171 293.005837 
z
" clip-path="url(#p90c18efff1)" style="fill: #1f77b4; opacity: 0.5"/>
   </g>
   <g id="patch_119">
    <path d="M 321.636926 293.132586 
L 323.762143 293.132586 
L 323.762143 292.625588 
L 321.636926 292.625588 
z
" clip-path="url(#p90c18efff1)" style="fill: #1f77b4; opacity: 0.5"/>
   </g>
   <g id="patch_120">
    <path d="M 323.762143 293.132586 
L 325.887359 293.132586 
L 325.887359 292.879087 
L 323.762143 292.879087 
z
" clip-path="url(#p90c18efff1)" style="fill: #1f77b4; opacity: 0.5"/>
   </g>
   <g id="patch_121">
    <path d="M 325.887359 293.132586 
L 328.012576 293.132586 
L 328.012576 292.625588 
L 325.887359 292.625588 
z
" clip-path="url(#p90c18efff1)" style="fill: #1f77b4; opacity: 0.5"/>
   </g>
   <g id="patch_122">
    <path d="M 328.012576 293.132586 
L 330.137792 293.132586 
L 330.137792 292.879087 
L 328.012576 292.879087 
z
" clip-path="url(#p90c18efff1)" style="fill: #1f77b4; opacity: 0.5"/>
   </g>
   <g id="patch_123">
    <path d="M 330.137792 293.132586 
L 332.263009 293.132586 
L 332.263009 292.879087 
L 330.137792 292.879087 
z
" clip-path="url(#p90c18efff1)" style="fill: #1f77b4; opacity: 0.5"/>
   </g>
   <g id="patch_124">
    <path d="M 332.263009 293.132586 
L 334.388225 293.132586 
L 334.388225 292.752337 
L 332.263009 292.752337 
z
" clip-path="url(#p90c18efff1)" style="fill: #1f77b4; opacity: 0.5"/>
   </g>
   <g id="patch_125">
    <path d="M 334.388225 293.132586 
L 336.513442 293.132586 
L 336.513442 292.752337 
L 334.388225 292.752337 
z
" clip-path="url(#p90c18efff1)" style="fill: #1f77b4; opacity: 0.5"/>
   </g>
   <g id="patch_126">
    <path d="M 336.513442 293.132586 
L 338.638658 293.132586 
L 338.638658 292.752337 
L 336.513442 292.752337 
z
" clip-path="url(#p90c18efff1)" style="fill: #1f77b4; opacity: 0.5"/>
   </g>
   <g id="patch_127">
    <path d="M 338.638658 293.132586 
L 340.763874 293.132586 
L 340.763874 292.879087 
L 338.638658 292.879087 
z
" clip-path="url(#p90c18efff1)" style="fill: #1f77b4; opacity: 0.5"/>
   </g>
   <g id="patch_128">
    <path d="M 340.763874 293.132586 
L 342.889091 293.132586 
L 342.889091 292.498838 
L 340.763874 292.498838 
z
" clip-path="url(#p90c18efff1)" style="fill: #1f77b4; opacity: 0.5"/>
   </g>
   <g id="patch_129">
    <path d="M 342.889091 293.132586 
L 345.014307 293.132586 
L 345.014307 292.879087 
L 342.889091 292.879087 
z
" clip-path="url(#p90c18efff1)" style="fill: #1f77b4; opacity: 0.5"/>
   </g>
   <g id="patch_130">
    <path d="M 345.014307 293.132586 
L 347.139524 293.132586 
L 347.139524 291.865091 
L 345.014307 291.865091 
z
" clip-path="url(#p90c18efff1)" style="fill: #1f77b4; opacity: 0.5"/>
   </g>
   <g id="patch_131">
    <path d="M 347.139524 293.132586 
L 349.26474 293.132586 
L 349.26474 292.498838 
L 347.139524 292.498838 
z
" clip-path="url(#p90c18efff1)" style="fill: #1f77b4; opacity: 0.5"/>
   </g>
   <g id="patch_132">
    <path d="M 349.26474 293.132586 
L 351.389957 293.132586 
L 351.389957 292.752337 
L 349.26474 292.752337 
z
" clip-path="url(#p90c18efff1)" style="fill: #1f77b4; opacity: 0.5"/>
   </g>
   <g id="patch_133">
    <path d="M 351.389957 293.132586 
L 353.515173 293.132586 
L 353.515173 293.005837 
L 351.389957 293.005837 
z
" clip-path="url(#p90c18efff1)" style="fill: #1f77b4; opacity: 0.5"/>
   </g>
   <g id="patch_134">
    <path d="M 353.515173 293.132586 
L 355.64039 293.132586 
L 355.64039 292.879087 
L 353.515173 292.879087 
z
" clip-path="url(#p90c18efff1)" style="fill: #1f77b4; opacity: 0.5"/>
   </g>
   <g id="patch_135">
    <path d="M 355.64039 293.132586 
L 357.765606 293.132586 
L 357.765606 292.625588 
L 355.64039 292.625588 
z
" clip-path="url(#p90c18efff1)" style="fill: #1f77b4; opacity: 0.5"/>
   </g>
   <g id="patch_136">
    <path d="M 357.765606 293.132586 
L 359.890823 293.132586 
L 359.890823 292.752337 
L 357.765606 292.752337 
z
" clip-path="url(#p90c18efff1)" style="fill: #1f77b4; opacity: 0.5"/>
   </g>
   <g id="patch_137">
    <path d="M 359.890823 293.132586 
L 362.016039 293.132586 
L 362.016039 293.005837 
L 359.890823 293.005837 
z
" clip-path="url(#p90c18efff1)" style="fill: #1f77b4; opacity: 0.5"/>
   </g>
   <g id="patch_138">
    <path d="M 362.016039 293.132586 
L 364.141255 293.132586 
L 364.141255 292.625588 
L 362.016039 292.625588 
z
" clip-path="url(#p90c18efff1)" style="fill: #1f77b4; opacity: 0.5"/>
   </g>
   <g id="patch_139">
    <path d="M 364.141255 293.132586 
L 366.266472 293.132586 
L 366.266472 292.372089 
L 364.141255 292.372089 
z
" clip-path="url(#p90c18efff1)" style="fill: #1f77b4; opacity: 0.5"/>
   </g>
   <g id="patch_140">
    <path d="M 366.266472 293.132586 
L 368.391688 293.132586 
L 368.391688 293.132586 
L 366.266472 293.132586 
z
" clip-path="url(#p90c18efff1)" style="fill: #1f77b4; opacity: 0.5"/>
   </g>
   <g id="patch_141">
    <path d="M 368.391688 293.132586 
L 370.516905 293.132586 
L 370.516905 293.132586 
L 368.391688 293.132586 
z
" clip-path="url(#p90c18efff1)" style="fill: #1f77b4; opacity: 0.5"/>
   </g>
   <g id="patch_142">
    <path d="M 370.516905 293.132586 
L 372.642121 293.132586 
L 372.642121 293.005837 
L 370.516905 293.005837 
z
" clip-path="url(#p90c18efff1)" style="fill: #1f77b4; opacity: 0.5"/>
   </g>
   <g id="patch_143">
    <path d="M 372.642121 293.132586 
L 374.767338 293.132586 
L 374.767338 293.005837 
L 372.642121 293.005837 
z
" clip-path="url(#p90c18efff1)" style="fill: #1f77b4; opacity: 0.5"/>
   </g>
   <g id="patch_144">
    <path d="M 374.767338 293.132586 
L 376.892554 293.132586 
L 376.892554 292.625588 
L 374.767338 292.625588 
z
" clip-path="url(#p90c18efff1)" style="fill: #1f77b4; opacity: 0.5"/>
   </g>
   <g id="patch_145">
    <path d="M 376.892554 293.132586 
L 379.017771 293.132586 
L 379.017771 292.879087 
L 376.892554 292.879087 
z
" clip-path="url(#p90c18efff1)" style="fill: #1f77b4; opacity: 0.5"/>
   </g>
   <g id="patch_146">
    <path d="M 379.017771 293.132586 
L 381.142987 293.132586 
L 381.142987 292.879087 
L 379.017771 292.879087 
z
" clip-path="url(#p90c18efff1)" style="fill: #1f77b4; opacity: 0.5"/>
   </g>
   <g id="patch_147">
    <path d="M 381.142987 293.132586 
L 383.268203 293.132586 
L 383.268203 293.132586 
L 381.142987 293.132586 
z
" clip-path="url(#p90c18efff1)" style="fill: #1f77b4; opacity: 0.5"/>
   </g>
   <g id="patch_148">
    <path d="M 383.268203 293.132586 
L 385.39342 293.132586 
L 385.39342 293.132586 
L 383.268203 293.132586 
z
" clip-path="url(#p90c18efff1)" style="fill: #1f77b4; opacity: 0.5"/>
   </g>
   <g id="patch_149">
    <path d="M 385.39342 293.132586 
L 387.518636 293.132586 
L 387.518636 293.005837 
L 385.39342 293.005837 
z
" clip-path="url(#p90c18efff1)" style="fill: #1f77b4; opacity: 0.5"/>
   </g>
   <g id="patch_150">
    <path d="M 387.518636 293.132586 
L 389.643853 293.132586 
L 389.643853 292.879087 
L 387.518636 292.879087 
z
" clip-path="url(#p90c18efff1)" style="fill: #1f77b4; opacity: 0.5"/>
   </g>
   <g id="patch_151">
    <path d="M 389.643853 293.132586 
L 391.769069 293.132586 
L 391.769069 293.132586 
L 389.643853 293.132586 
z
" clip-path="url(#p90c18efff1)" style="fill: #1f77b4; opacity: 0.5"/>
   </g>
   <g id="patch_152">
    <path d="M 391.769069 293.132586 
L 393.894286 293.132586 
L 393.894286 292.879087 
L 391.769069 292.879087 
z
" clip-path="url(#p90c18efff1)" style="fill: #1f77b4; opacity: 0.5"/>
   </g>
   <g id="patch_153">
    <path d="M 393.894286 293.132586 
L 396.019502 293.132586 
L 396.019502 292.879087 
L 393.894286 292.879087 
z
" clip-path="url(#p90c18efff1)" style="fill: #1f77b4; opacity: 0.5"/>
   </g>
   <g id="patch_154">
    <path d="M 396.019502 293.132586 
L 398.144719 293.132586 
L 398.144719 293.132586 
L 396.019502 293.132586 
z
" clip-path="url(#p90c18efff1)" style="fill: #1f77b4; opacity: 0.5"/>
   </g>
   <g id="patch_155">
    <path d="M 398.144719 293.132586 
L 400.269935 293.132586 
L 400.269935 293.005837 
L 398.144719 293.005837 
z
" clip-path="url(#p90c18efff1)" style="fill: #1f77b4; opacity: 0.5"/>
   </g>
   <g id="patch_156">
    <path d="M 400.269935 293.132586 
L 402.395152 293.132586 
L 402.395152 293.132586 
L 400.269935 293.132586 
z
" clip-path="url(#p90c18efff1)" style="fill: #1f77b4; opacity: 0.5"/>
   </g>
   <g id="patch_157">
    <path d="M 402.395152 293.132586 
L 404.520368 293.132586 
L 404.520368 293.132586 
L 402.395152 293.132586 
z
" clip-path="url(#p90c18efff1)" style="fill: #1f77b4; opacity: 0.5"/>
   </g>
   <g id="patch_158">
    <path d="M 404.520368 293.132586 
L 406.645584 293.132586 
L 406.645584 293.132586 
L 404.520368 293.132586 
z
" clip-path="url(#p90c18efff1)" style="fill: #1f77b4; opacity: 0.5"/>
   </g>
   <g id="patch_159">
    <path d="M 406.645584 293.132586 
L 408.770801 293.132586 
L 408.770801 293.132586 
L 406.645584 293.132586 
z
" clip-path="url(#p90c18efff1)" style="fill: #1f77b4; opacity: 0.5"/>
   </g>
   <g id="patch_160">
    <path d="M 408.770801 293.132586 
L 410.896017 293.132586 
L 410.896017 293.132586 
L 408.770801 293.132586 
z
" clip-path="url(#p90c18efff1)" style="fill: #1f77b4; opacity: 0.5"/>
   </g>
   <g id="patch_161">
    <path d="M 410.896017 293.132586 
L 413.021234 293.132586 
L 413.021234 293.132586 
L 410.896017 293.132586 
z
" clip-path="url(#p90c18efff1)" style="fill: #1f77b4; opacity: 0.5"/>
   </g>
   <g id="patch_162">
    <path d="M 413.021234 293.132586 
L 415.14645 293.132586 
L 415.14645 293.132586 
L 413.021234 293.132586 
z
" clip-path="url(#p90c18efff1)" style="fill: #1f77b4; opacity: 0.5"/>
   </g>
   <g id="patch_163">
    <path d="M 415.14645 293.132586 
L 417.271667 293.132586 
L 417.271667 293.132586 
L 415.14645 293.132586 
z
" clip-path="url(#p90c18efff1)" style="fill: #1f77b4; opacity: 0.5"/>
   </g>
   <g id="patch_164">
    <path d="M 417.271667 293.132586 
L 419.396883 293.132586 
L 419.396883 292.879087 
L 417.271667 292.879087 
z
" clip-path="url(#p90c18efff1)" style="fill: #1f77b4; opacity: 0.5"/>
   </g>
   <g id="patch_165">
    <path d="M 419.396883 293.132586 
L 421.5221 293.132586 
L 421.5221 293.132586 
L 419.396883 293.132586 
z
" clip-path="url(#p90c18efff1)" style="fill: #1f77b4; opacity: 0.5"/>
   </g>
   <g id="patch_166">
    <path d="M 421.5221 293.132586 
L 423.647316 293.132586 
L 423.647316 293.132586 
L 421.5221 293.132586 
z
" clip-path="url(#p90c18efff1)" style="fill: #1f77b4; opacity: 0.5"/>
   </g>
   <g id="patch_167">
    <path d="M 423.647316 293.132586 
L 425.772532 293.132586 
L 425.772532 293.132586 
L 423.647316 293.132586 
z
" clip-path="url(#p90c18efff1)" style="fill: #1f77b4; opacity: 0.5"/>
   </g>
   <g id="patch_168">
    <path d="M 425.772532 293.132586 
L 427.897749 293.132586 
L 427.897749 293.005837 
L 425.772532 293.005837 
z
" clip-path="url(#p90c18efff1)" style="fill: #1f77b4; opacity: 0.5"/>
   </g>
   <g id="patch_169">
    <path d="M 427.897749 293.132586 
L 430.022965 293.132586 
L 430.022965 292.625588 
L 427.897749 292.625588 
z
" clip-path="url(#p90c18efff1)" style="fill: #1f77b4; opacity: 0.5"/>
   </g>
   <g id="patch_170">
    <path d="M 430.022965 293.132586 
L 432.148182 293.132586 
L 432.148182 290.090597 
L 430.022965 290.090597 
z
" clip-path="url(#p90c18efff1)" style="fill: #1f77b4; opacity: 0.5"/>
   </g>
   <g id="matplotlib.axis_1">
    <g id="xtick_1">
     <g id="line2d_1">
      <defs>
       <path id="m49bfd3ffda" d="M 0 0 
L 0 3.5 
" style="stroke: #000000; stroke-width: 0.8"/>
      </defs>
      <g>
       <use xlink:href="#m49bfd3ffda" x="71.773666" y="293.132586" style="stroke: #000000; stroke-width: 0.8"/>
      </g>
     </g>
     <g id="text_1">
      <!-- 0 -->
      <g transform="translate(71.475355 310.00446) rotate(-45) scale(0.1 -0.1)">
       <defs>
        <path id="DejaVuSans-30" d="M 2034 4250 
Q 1547 4250 1301 3770 
Q 1056 3291 1056 2328 
Q 1056 1369 1301 889 
Q 1547 409 2034 409 
Q 2525 409 2770 889 
Q 3016 1369 3016 2328 
Q 3016 3291 2770 3770 
Q 2525 4250 2034 4250 
z
M 2034 4750 
Q 2819 4750 3233 4129 
Q 3647 3509 3647 2328 
Q 3647 1150 3233 529 
Q 2819 -91 2034 -91 
Q 1250 -91 836 529 
Q 422 1150 422 2328 
Q 422 3509 836 4129 
Q 1250 4750 2034 4750 
z
" transform="scale(0.015625)"/>
       </defs>
       <use xlink:href="#DejaVuSans-30"/>
      </g>
     </g>
    </g>
    <g id="xtick_2">
     <g id="line2d_2">
      <g>
       <use xlink:href="#m49bfd3ffda" x="143.848569" y="293.132586" style="stroke: #000000; stroke-width: 0.8"/>
      </g>
     </g>
     <g id="text_2">
      <!-- 20 -->
      <g transform="translate(141.300775 314.503427) rotate(-45) scale(0.1 -0.1)">
       <defs>
        <path id="DejaVuSans-32" d="M 1228 531 
L 3431 531 
L 3431 0 
L 469 0 
L 469 531 
Q 828 903 1448 1529 
Q 2069 2156 2228 2338 
Q 2531 2678 2651 2914 
Q 2772 3150 2772 3378 
Q 2772 3750 2511 3984 
Q 2250 4219 1831 4219 
Q 1534 4219 1204 4116 
Q 875 4013 500 3803 
L 500 4441 
Q 881 4594 1212 4672 
Q 1544 4750 1819 4750 
Q 2544 4750 2975 4387 
Q 3406 4025 3406 3419 
Q 3406 3131 3298 2873 
Q 3191 2616 2906 2266 
Q 2828 2175 2409 1742 
Q 1991 1309 1228 531 
z
" transform="scale(0.015625)"/>
       </defs>
       <use xlink:href="#DejaVuSans-32"/>
       <use xlink:href="#DejaVuSans-30" x="63.623047"/>
      </g>
     </g>
    </g>
    <g id="xtick_3">
     <g id="line2d_3">
      <g>
       <use xlink:href="#m49bfd3ffda" x="215.923472" y="293.132586" style="stroke: #000000; stroke-width: 0.8"/>
      </g>
     </g>
     <g id="text_3">
      <!-- 40 -->
      <g transform="translate(213.375678 314.503427) rotate(-45) scale(0.1 -0.1)">
       <defs>
        <path id="DejaVuSans-34" d="M 2419 4116 
L 825 1625 
L 2419 1625 
L 2419 4116 
z
M 2253 4666 
L 3047 4666 
L 3047 1625 
L 3713 1625 
L 3713 1100 
L 3047 1100 
L 3047 0 
L 2419 0 
L 2419 1100 
L 313 1100 
L 313 1709 
L 2253 4666 
z
" transform="scale(0.015625)"/>
       </defs>
       <use xlink:href="#DejaVuSans-34"/>
       <use xlink:href="#DejaVuSans-30" x="63.623047"/>
      </g>
     </g>
    </g>
    <g id="xtick_4">
     <g id="line2d_4">
      <g>
       <use xlink:href="#m49bfd3ffda" x="287.998375" y="293.132586" style="stroke: #000000; stroke-width: 0.8"/>
      </g>
     </g>
     <g id="text_4">
      <!-- 60 -->
      <g transform="translate(285.450581 314.503427) rotate(-45) scale(0.1 -0.1)">
       <defs>
        <path id="DejaVuSans-36" d="M 2113 2584 
Q 1688 2584 1439 2293 
Q 1191 2003 1191 1497 
Q 1191 994 1439 701 
Q 1688 409 2113 409 
Q 2538 409 2786 701 
Q 3034 994 3034 1497 
Q 3034 2003 2786 2293 
Q 2538 2584 2113 2584 
z
M 3366 4563 
L 3366 3988 
Q 3128 4100 2886 4159 
Q 2644 4219 2406 4219 
Q 1781 4219 1451 3797 
Q 1122 3375 1075 2522 
Q 1259 2794 1537 2939 
Q 1816 3084 2150 3084 
Q 2853 3084 3261 2657 
Q 3669 2231 3669 1497 
Q 3669 778 3244 343 
Q 2819 -91 2113 -91 
Q 1303 -91 875 529 
Q 447 1150 447 2328 
Q 447 3434 972 4092 
Q 1497 4750 2381 4750 
Q 2619 4750 2861 4703 
Q 3103 4656 3366 4563 
z
" transform="scale(0.015625)"/>
       </defs>
       <use xlink:href="#DejaVuSans-36"/>
       <use xlink:href="#DejaVuSans-30" x="63.623047"/>
      </g>
     </g>
    </g>
    <g id="xtick_5">
     <g id="line2d_5">
      <g>
       <use xlink:href="#m49bfd3ffda" x="360.073279" y="293.132586" style="stroke: #000000; stroke-width: 0.8"/>
      </g>
     </g>
     <g id="text_5">
      <!-- 80 -->
      <g transform="translate(357.525484 314.503427) rotate(-45) scale(0.1 -0.1)">
       <defs>
        <path id="DejaVuSans-38" d="M 2034 2216 
Q 1584 2216 1326 1975 
Q 1069 1734 1069 1313 
Q 1069 891 1326 650 
Q 1584 409 2034 409 
Q 2484 409 2743 651 
Q 3003 894 3003 1313 
Q 3003 1734 2745 1975 
Q 2488 2216 2034 2216 
z
M 1403 2484 
Q 997 2584 770 2862 
Q 544 3141 544 3541 
Q 544 4100 942 4425 
Q 1341 4750 2034 4750 
Q 2731 4750 3128 4425 
Q 3525 4100 3525 3541 
Q 3525 3141 3298 2862 
Q 3072 2584 2669 2484 
Q 3125 2378 3379 2068 
Q 3634 1759 3634 1313 
Q 3634 634 3220 271 
Q 2806 -91 2034 -91 
Q 1263 -91 848 271 
Q 434 634 434 1313 
Q 434 1759 690 2068 
Q 947 2378 1403 2484 
z
M 1172 3481 
Q 1172 3119 1398 2916 
Q 1625 2713 2034 2713 
Q 2441 2713 2670 2916 
Q 2900 3119 2900 3481 
Q 2900 3844 2670 4047 
Q 2441 4250 2034 4250 
Q 1625 4250 1398 4047 
Q 1172 3844 1172 3481 
z
" transform="scale(0.015625)"/>
       </defs>
       <use xlink:href="#DejaVuSans-38"/>
       <use xlink:href="#DejaVuSans-30" x="63.623047"/>
      </g>
     </g>
    </g>
    <g id="xtick_6">
     <g id="line2d_6">
      <g>
       <use xlink:href="#m49bfd3ffda" x="432.148182" y="293.132586" style="stroke: #000000; stroke-width: 0.8"/>
      </g>
     </g>
     <g id="text_6">
      <!-- 100 -->
      <g transform="translate(427.350904 319.002393) rotate(-45) scale(0.1 -0.1)">
       <defs>
        <path id="DejaVuSans-31" d="M 794 531 
L 1825 531 
L 1825 4091 
L 703 3866 
L 703 4441 
L 1819 4666 
L 2450 4666 
L 2450 531 
L 3481 531 
L 3481 0 
L 794 0 
L 794 531 
z
" transform="scale(0.015625)"/>
       </defs>
       <use xlink:href="#DejaVuSans-31"/>
       <use xlink:href="#DejaVuSans-30" x="63.623047"/>
       <use xlink:href="#DejaVuSans-30" x="127.246094"/>
      </g>
     </g>
    </g>
    <g id="text_7">
     <!-- Werte -->
     <g transform="translate(238.81125 332.071392) scale(0.1 -0.1)">
      <defs>
       <path id="DejaVuSans-57" d="M 213 4666 
L 850 4666 
L 1831 722 
L 2809 4666 
L 3519 4666 
L 4500 722 
L 5478 4666 
L 6119 4666 
L 4947 0 
L 4153 0 
L 3169 4050 
L 2175 0 
L 1381 0 
L 213 4666 
z
" transform="scale(0.015625)"/>
       <path id="DejaVuSans-65" d="M 3597 1894 
L 3597 1613 
L 953 1613 
Q 991 1019 1311 708 
Q 1631 397 2203 397 
Q 2534 397 2845 478 
Q 3156 559 3463 722 
L 3463 178 
Q 3153 47 2828 -22 
Q 2503 -91 2169 -91 
Q 1331 -91 842 396 
Q 353 884 353 1716 
Q 353 2575 817 3079 
Q 1281 3584 2069 3584 
Q 2775 3584 3186 3129 
Q 3597 2675 3597 1894 
z
M 3022 2063 
Q 3016 2534 2758 2815 
Q 2500 3097 2075 3097 
Q 1594 3097 1305 2825 
Q 1016 2553 972 2059 
L 3022 2063 
z
" transform="scale(0.015625)"/>
       <path id="DejaVuSans-72" d="M 2631 2963 
Q 2534 3019 2420 3045 
Q 2306 3072 2169 3072 
Q 1681 3072 1420 2755 
Q 1159 2438 1159 1844 
L 1159 0 
L 581 0 
L 581 3500 
L 1159 3500 
L 1159 2956 
Q 1341 3275 1631 3429 
Q 1922 3584 2338 3584 
Q 2397 3584 2469 3576 
Q 2541 3569 2628 3553 
L 2631 2963 
z
" transform="scale(0.015625)"/>
       <path id="DejaVuSans-74" d="M 1172 4494 
L 1172 3500 
L 2356 3500 
L 2356 3053 
L 1172 3053 
L 1172 1153 
Q 1172 725 1289 603 
Q 1406 481 1766 481 
L 2356 481 
L 2356 0 
L 1766 0 
Q 1100 0 847 248 
Q 594 497 594 1153 
L 594 3053 
L 172 3053 
L 172 3500 
L 594 3500 
L 594 4494 
L 1172 4494 
z
" transform="scale(0.015625)"/>
      </defs>
      <use xlink:href="#DejaVuSans-57"/>
      <use xlink:href="#DejaVuSans-65" x="93.001953"/>
      <use xlink:href="#DejaVuSans-72" x="154.525391"/>
      <use xlink:href="#DejaVuSans-74" x="195.638672"/>
      <use xlink:href="#DejaVuSans-65" x="234.847656"/>
     </g>
    </g>
   </g>
   <g id="matplotlib.axis_2">
    <g id="ytick_1">
     <g id="line2d_7">
      <defs>
       <path id="m366e0b19a9" d="M 0 0 
L -3.5 0 
" style="stroke: #000000; stroke-width: 0.8"/>
      </defs>
      <g>
       <use xlink:href="#m366e0b19a9" x="57.26" y="293.132586" style="stroke: #000000; stroke-width: 0.8"/>
      </g>
     </g>
     <g id="text_8">
      <!-- 0 -->
      <g transform="translate(43.8975 296.931805) scale(0.1 -0.1)">
       <use xlink:href="#DejaVuSans-30"/>
      </g>
     </g>
    </g>
    <g id="ytick_2">
     <g id="line2d_8">
      <g>
       <use xlink:href="#m366e0b19a9" x="57.26" y="261.445198" style="stroke: #000000; stroke-width: 0.8"/>
      </g>
     </g>
     <g id="text_9">
      <!-- 250 -->
      <g transform="translate(31.1725 265.244416) scale(0.1 -0.1)">
       <defs>
        <path id="DejaVuSans-35" d="M 691 4666 
L 3169 4666 
L 3169 4134 
L 1269 4134 
L 1269 2991 
Q 1406 3038 1543 3061 
Q 1681 3084 1819 3084 
Q 2600 3084 3056 2656 
Q 3513 2228 3513 1497 
Q 3513 744 3044 326 
Q 2575 -91 1722 -91 
Q 1428 -91 1123 -41 
Q 819 9 494 109 
L 494 744 
Q 775 591 1075 516 
Q 1375 441 1709 441 
Q 2250 441 2565 725 
Q 2881 1009 2881 1497 
Q 2881 1984 2565 2268 
Q 2250 2553 1709 2553 
Q 1456 2553 1204 2497 
Q 953 2441 691 2322 
L 691 4666 
z
" transform="scale(0.015625)"/>
       </defs>
       <use xlink:href="#DejaVuSans-32"/>
       <use xlink:href="#DejaVuSans-35" x="63.623047"/>
       <use xlink:href="#DejaVuSans-30" x="127.246094"/>
      </g>
     </g>
    </g>
    <g id="ytick_3">
     <g id="line2d_9">
      <g>
       <use xlink:href="#m366e0b19a9" x="57.26" y="229.757809" style="stroke: #000000; stroke-width: 0.8"/>
      </g>
     </g>
     <g id="text_10">
      <!-- 500 -->
      <g transform="translate(31.1725 233.557028) scale(0.1 -0.1)">
       <use xlink:href="#DejaVuSans-35"/>
       <use xlink:href="#DejaVuSans-30" x="63.623047"/>
       <use xlink:href="#DejaVuSans-30" x="127.246094"/>
      </g>
     </g>
    </g>
    <g id="ytick_4">
     <g id="line2d_10">
      <g>
       <use xlink:href="#m366e0b19a9" x="57.26" y="198.07042" style="stroke: #000000; stroke-width: 0.8"/>
      </g>
     </g>
     <g id="text_11">
      <!-- 750 -->
      <g transform="translate(31.1725 201.869639) scale(0.1 -0.1)">
       <defs>
        <path id="DejaVuSans-37" d="M 525 4666 
L 3525 4666 
L 3525 4397 
L 1831 0 
L 1172 0 
L 2766 4134 
L 525 4134 
L 525 4666 
z
" transform="scale(0.015625)"/>
       </defs>
       <use xlink:href="#DejaVuSans-37"/>
       <use xlink:href="#DejaVuSans-35" x="63.623047"/>
       <use xlink:href="#DejaVuSans-30" x="127.246094"/>
      </g>
     </g>
    </g>
    <g id="ytick_5">
     <g id="line2d_11">
      <g>
       <use xlink:href="#m366e0b19a9" x="57.26" y="166.383032" style="stroke: #000000; stroke-width: 0.8"/>
      </g>
     </g>
     <g id="text_12">
      <!-- 1000 -->
      <g transform="translate(24.81 170.182251) scale(0.1 -0.1)">
       <use xlink:href="#DejaVuSans-31"/>
       <use xlink:href="#DejaVuSans-30" x="63.623047"/>
       <use xlink:href="#DejaVuSans-30" x="127.246094"/>
       <use xlink:href="#DejaVuSans-30" x="190.869141"/>
      </g>
     </g>
    </g>
    <g id="ytick_6">
     <g id="line2d_12">
      <g>
       <use xlink:href="#m366e0b19a9" x="57.26" y="134.695643" style="stroke: #000000; stroke-width: 0.8"/>
      </g>
     </g>
     <g id="text_13">
      <!-- 1250 -->
      <g transform="translate(24.81 138.494862) scale(0.1 -0.1)">
       <use xlink:href="#DejaVuSans-31"/>
       <use xlink:href="#DejaVuSans-32" x="63.623047"/>
       <use xlink:href="#DejaVuSans-35" x="127.246094"/>
       <use xlink:href="#DejaVuSans-30" x="190.869141"/>
      </g>
     </g>
    </g>
    <g id="ytick_7">
     <g id="line2d_13">
      <g>
       <use xlink:href="#m366e0b19a9" x="57.26" y="103.008255" style="stroke: #000000; stroke-width: 0.8"/>
      </g>
     </g>
     <g id="text_14">
      <!-- 1500 -->
      <g transform="translate(24.81 106.807473) scale(0.1 -0.1)">
       <use xlink:href="#DejaVuSans-31"/>
       <use xlink:href="#DejaVuSans-35" x="63.623047"/>
       <use xlink:href="#DejaVuSans-30" x="127.246094"/>
       <use xlink:href="#DejaVuSans-30" x="190.869141"/>
      </g>
     </g>
    </g>
    <g id="ytick_8">
     <g id="line2d_14">
      <g>
       <use xlink:href="#m366e0b19a9" x="57.26" y="71.320866" style="stroke: #000000; stroke-width: 0.8"/>
      </g>
     </g>
     <g id="text_15">
      <!-- 1750 -->
      <g transform="translate(24.81 75.120085) scale(0.1 -0.1)">
       <use xlink:href="#DejaVuSans-31"/>
       <use xlink:href="#DejaVuSans-37" x="63.623047"/>
       <use xlink:href="#DejaVuSans-35" x="127.246094"/>
       <use xlink:href="#DejaVuSans-30" x="190.869141"/>
      </g>
     </g>
    </g>
    <g id="ytick_9">
     <g id="line2d_15">
      <g>
       <use xlink:href="#m366e0b19a9" x="57.26" y="39.633478" style="stroke: #000000; stroke-width: 0.8"/>
      </g>
     </g>
     <g id="text_16">
      <!-- 2000 -->
      <g transform="translate(24.81 43.432696) scale(0.1 -0.1)">
       <use xlink:href="#DejaVuSans-32"/>
       <use xlink:href="#DejaVuSans-30" x="63.623047"/>
       <use xlink:href="#DejaVuSans-30" x="127.246094"/>
       <use xlink:href="#DejaVuSans-30" x="190.869141"/>
      </g>
     </g>
    </g>
    <g id="text_17">
     <!-- Hufigkeit -->
     <g transform="translate(18.730313 185.102543) rotate(-90) scale(0.1 -0.1)">
      <defs>
       <path id="DejaVuSans-48" d="M 628 4666 
L 1259 4666 
L 1259 2753 
L 3553 2753 
L 3553 4666 
L 4184 4666 
L 4184 0 
L 3553 0 
L 3553 2222 
L 1259 2222 
L 1259 0 
L 628 0 
L 628 4666 
z
" transform="scale(0.015625)"/>
       <path id="DejaVuSans-e4" d="M 2194 1759 
Q 1497 1759 1228 1600 
Q 959 1441 959 1056 
Q 959 750 1161 570 
Q 1363 391 1709 391 
Q 2188 391 2477 730 
Q 2766 1069 2766 1631 
L 2766 1759 
L 2194 1759 
z
M 3341 1997 
L 3341 0 
L 2766 0 
L 2766 531 
Q 2569 213 2275 61 
Q 1981 -91 1556 -91 
Q 1019 -91 701 211 
Q 384 513 384 1019 
Q 384 1609 779 1909 
Q 1175 2209 1959 2209 
L 2766 2209 
L 2766 2266 
Q 2766 2663 2505 2880 
Q 2244 3097 1772 3097 
Q 1472 3097 1187 3025 
Q 903 2953 641 2809 
L 641 3341 
Q 956 3463 1253 3523 
Q 1550 3584 1831 3584 
Q 2591 3584 2966 3190 
Q 3341 2797 3341 1997 
z
M 2150 4850 
L 2784 4850 
L 2784 4219 
L 2150 4219 
L 2150 4850 
z
M 928 4850 
L 1563 4850 
L 1563 4219 
L 928 4219 
L 928 4850 
z
" transform="scale(0.015625)"/>
       <path id="DejaVuSans-75" d="M 544 1381 
L 544 3500 
L 1119 3500 
L 1119 1403 
Q 1119 906 1312 657 
Q 1506 409 1894 409 
Q 2359 409 2629 706 
Q 2900 1003 2900 1516 
L 2900 3500 
L 3475 3500 
L 3475 0 
L 2900 0 
L 2900 538 
Q 2691 219 2414 64 
Q 2138 -91 1772 -91 
Q 1169 -91 856 284 
Q 544 659 544 1381 
z
M 1991 3584 
L 1991 3584 
z
" transform="scale(0.015625)"/>
       <path id="DejaVuSans-66" d="M 2375 4863 
L 2375 4384 
L 1825 4384 
Q 1516 4384 1395 4259 
Q 1275 4134 1275 3809 
L 1275 3500 
L 2222 3500 
L 2222 3053 
L 1275 3053 
L 1275 0 
L 697 0 
L 697 3053 
L 147 3053 
L 147 3500 
L 697 3500 
L 697 3744 
Q 697 4328 969 4595 
Q 1241 4863 1831 4863 
L 2375 4863 
z
" transform="scale(0.015625)"/>
       <path id="DejaVuSans-69" d="M 603 3500 
L 1178 3500 
L 1178 0 
L 603 0 
L 603 3500 
z
M 603 4863 
L 1178 4863 
L 1178 4134 
L 603 4134 
L 603 4863 
z
" transform="scale(0.015625)"/>
       <path id="DejaVuSans-67" d="M 2906 1791 
Q 2906 2416 2648 2759 
Q 2391 3103 1925 3103 
Q 1463 3103 1205 2759 
Q 947 2416 947 1791 
Q 947 1169 1205 825 
Q 1463 481 1925 481 
Q 2391 481 2648 825 
Q 2906 1169 2906 1791 
z
M 3481 434 
Q 3481 -459 3084 -895 
Q 2688 -1331 1869 -1331 
Q 1566 -1331 1297 -1286 
Q 1028 -1241 775 -1147 
L 775 -588 
Q 1028 -725 1275 -790 
Q 1522 -856 1778 -856 
Q 2344 -856 2625 -561 
Q 2906 -266 2906 331 
L 2906 616 
Q 2728 306 2450 153 
Q 2172 0 1784 0 
Q 1141 0 747 490 
Q 353 981 353 1791 
Q 353 2603 747 3093 
Q 1141 3584 1784 3584 
Q 2172 3584 2450 3431 
Q 2728 3278 2906 2969 
L 2906 3500 
L 3481 3500 
L 3481 434 
z
" transform="scale(0.015625)"/>
       <path id="DejaVuSans-6b" d="M 581 4863 
L 1159 4863 
L 1159 1991 
L 2875 3500 
L 3609 3500 
L 1753 1863 
L 3688 0 
L 2938 0 
L 1159 1709 
L 1159 0 
L 581 0 
L 581 4863 
z
" transform="scale(0.015625)"/>
      </defs>
      <use xlink:href="#DejaVuSans-48"/>
      <use xlink:href="#DejaVuSans-e4" x="75.195312"/>
      <use xlink:href="#DejaVuSans-75" x="136.474609"/>
      <use xlink:href="#DejaVuSans-66" x="199.853516"/>
      <use xlink:href="#DejaVuSans-69" x="235.058594"/>
      <use xlink:href="#DejaVuSans-67" x="262.841797"/>
      <use xlink:href="#DejaVuSans-6b" x="326.318359"/>
      <use xlink:href="#DejaVuSans-65" x="380.603516"/>
      <use xlink:href="#DejaVuSans-69" x="442.126953"/>
      <use xlink:href="#DejaVuSans-74" x="469.910156"/>
     </g>
    </g>
   </g>
   <g id="patch_171">
    <path d="M 57.26 293.132586 
L 57.26 26.16 
" style="fill: none; stroke: #000000; stroke-width: 0.8; stroke-linejoin: miter; stroke-linecap: square"/>
   </g>
   <g id="patch_172">
    <path d="M 450 293.132586 
L 450 26.16 
" style="fill: none; stroke: #000000; stroke-width: 0.8; stroke-linejoin: miter; stroke-linecap: square"/>
   </g>
   <g id="patch_173">
    <path d="M 57.26 293.132586 
L 450 293.132586 
" style="fill: none; stroke: #000000; stroke-width: 0.8; stroke-linejoin: miter; stroke-linecap: square"/>
   </g>
   <g id="patch_174">
    <path d="M 57.26 26.16 
L 450 26.16 
" style="fill: none; stroke: #000000; stroke-width: 0.8; stroke-linejoin: miter; stroke-linecap: square"/>
   </g>
   <g id="text_18">
    <!-- attr_index_norm -->
    <g transform="translate(204.685937 20.16) scale(0.12 -0.12)">
     <defs>
      <path id="DejaVuSans-61" d="M 2194 1759 
Q 1497 1759 1228 1600 
Q 959 1441 959 1056 
Q 959 750 1161 570 
Q 1363 391 1709 391 
Q 2188 391 2477 730 
Q 2766 1069 2766 1631 
L 2766 1759 
L 2194 1759 
z
M 3341 1997 
L 3341 0 
L 2766 0 
L 2766 531 
Q 2569 213 2275 61 
Q 1981 -91 1556 -91 
Q 1019 -91 701 211 
Q 384 513 384 1019 
Q 384 1609 779 1909 
Q 1175 2209 1959 2209 
L 2766 2209 
L 2766 2266 
Q 2766 2663 2505 2880 
Q 2244 3097 1772 3097 
Q 1472 3097 1187 3025 
Q 903 2953 641 2809 
L 641 3341 
Q 956 3463 1253 3523 
Q 1550 3584 1831 3584 
Q 2591 3584 2966 3190 
Q 3341 2797 3341 1997 
z
" transform="scale(0.015625)"/>
      <path id="DejaVuSans-5f" d="M 3263 -1063 
L 3263 -1509 
L -63 -1509 
L -63 -1063 
L 3263 -1063 
z
" transform="scale(0.015625)"/>
      <path id="DejaVuSans-6e" d="M 3513 2113 
L 3513 0 
L 2938 0 
L 2938 2094 
Q 2938 2591 2744 2837 
Q 2550 3084 2163 3084 
Q 1697 3084 1428 2787 
Q 1159 2491 1159 1978 
L 1159 0 
L 581 0 
L 581 3500 
L 1159 3500 
L 1159 2956 
Q 1366 3272 1645 3428 
Q 1925 3584 2291 3584 
Q 2894 3584 3203 3211 
Q 3513 2838 3513 2113 
z
" transform="scale(0.015625)"/>
      <path id="DejaVuSans-64" d="M 2906 2969 
L 2906 4863 
L 3481 4863 
L 3481 0 
L 2906 0 
L 2906 525 
Q 2725 213 2448 61 
Q 2172 -91 1784 -91 
Q 1150 -91 751 415 
Q 353 922 353 1747 
Q 353 2572 751 3078 
Q 1150 3584 1784 3584 
Q 2172 3584 2448 3432 
Q 2725 3281 2906 2969 
z
M 947 1747 
Q 947 1113 1208 752 
Q 1469 391 1925 391 
Q 2381 391 2643 752 
Q 2906 1113 2906 1747 
Q 2906 2381 2643 2742 
Q 2381 3103 1925 3103 
Q 1469 3103 1208 2742 
Q 947 2381 947 1747 
z
" transform="scale(0.015625)"/>
      <path id="DejaVuSans-78" d="M 3513 3500 
L 2247 1797 
L 3578 0 
L 2900 0 
L 1881 1375 
L 863 0 
L 184 0 
L 1544 1831 
L 300 3500 
L 978 3500 
L 1906 2253 
L 2834 3500 
L 3513 3500 
z
" transform="scale(0.015625)"/>
      <path id="DejaVuSans-6f" d="M 1959 3097 
Q 1497 3097 1228 2736 
Q 959 2375 959 1747 
Q 959 1119 1226 758 
Q 1494 397 1959 397 
Q 2419 397 2687 759 
Q 2956 1122 2956 1747 
Q 2956 2369 2687 2733 
Q 2419 3097 1959 3097 
z
M 1959 3584 
Q 2709 3584 3137 3096 
Q 3566 2609 3566 1747 
Q 3566 888 3137 398 
Q 2709 -91 1959 -91 
Q 1206 -91 779 398 
Q 353 888 353 1747 
Q 353 2609 779 3096 
Q 1206 3584 1959 3584 
z
" transform="scale(0.015625)"/>
      <path id="DejaVuSans-6d" d="M 3328 2828 
Q 3544 3216 3844 3400 
Q 4144 3584 4550 3584 
Q 5097 3584 5394 3201 
Q 5691 2819 5691 2113 
L 5691 0 
L 5113 0 
L 5113 2094 
Q 5113 2597 4934 2840 
Q 4756 3084 4391 3084 
Q 3944 3084 3684 2787 
Q 3425 2491 3425 1978 
L 3425 0 
L 2847 0 
L 2847 2094 
Q 2847 2600 2669 2842 
Q 2491 3084 2119 3084 
Q 1678 3084 1418 2786 
Q 1159 2488 1159 1978 
L 1159 0 
L 581 0 
L 581 3500 
L 1159 3500 
L 1159 2956 
Q 1356 3278 1631 3431 
Q 1906 3584 2284 3584 
Q 2666 3584 2933 3390 
Q 3200 3197 3328 2828 
z
" transform="scale(0.015625)"/>
     </defs>
     <use xlink:href="#DejaVuSans-61"/>
     <use xlink:href="#DejaVuSans-74" x="61.279297"/>
     <use xlink:href="#DejaVuSans-74" x="100.488281"/>
     <use xlink:href="#DejaVuSans-72" x="139.697266"/>
     <use xlink:href="#DejaVuSans-5f" x="180.810547"/>
     <use xlink:href="#DejaVuSans-69" x="230.810547"/>
     <use xlink:href="#DejaVuSans-6e" x="258.59375"/>
     <use xlink:href="#DejaVuSans-64" x="321.972656"/>
     <use xlink:href="#DejaVuSans-65" x="385.449219"/>
     <use xlink:href="#DejaVuSans-78" x="445.222656"/>
     <use xlink:href="#DejaVuSans-5f" x="504.402344"/>
     <use xlink:href="#DejaVuSans-6e" x="554.402344"/>
     <use xlink:href="#DejaVuSans-6f" x="617.78125"/>
     <use xlink:href="#DejaVuSans-72" x="678.962891"/>
     <use xlink:href="#DejaVuSans-6d" x="718.326172"/>
    </g>
   </g>
  </g>
 </g>
 <defs>
  <clipPath id="p90c18efff1">
   <rect x="57.26" y="26.16" width="392.74" height="266.972586"/>
  </clipPath>
 </defs>
</svg>
