<?xml version="1.0" encoding="utf-8" standalone="no"?>
<!DOCTYPE svg PUBLIC "-//W3C//DTD SVG 1.1//EN"
  "http://www.w3.org/Graphics/SVG/1.1/DTD/svg11.dtd">
<svg xmlns:xlink="http://www.w3.org/1999/xlink" width="460.8pt" height="345.6pt" viewBox="0 0 460.8 345.6" xmlns="http://www.w3.org/2000/svg" version="1.1">
 <metadata>
  <rdf:RDF xmlns:dc="http://purl.org/dc/elements/1.1/" xmlns:cc="http://creativecommons.org/ns#" xmlns:rdf="http://www.w3.org/1999/02/22-rdf-syntax-ns#">
   <cc:Work>
    <dc:type rdf:resource="http://purl.org/dc/dcmitype/StillImage"/>
    <dc:date>2024-01-20T11:51:38.257440</dc:date>
    <dc:format>image/svg+xml</dc:format>
    <dc:creator>
     <cc:Agent>
      <dc:title>Matplotlib v3.8.0, https://matplotlib.org/</dc:title>
     </cc:Agent>
    </dc:creator>
   </cc:Work>
  </rdf:RDF>
 </metadata>
 <defs>
  <style type="text/css">*{stroke-linejoin: round; stroke-linecap: butt}</style>
 </defs>
 <g id="figure_1">
  <g id="patch_1">
   <path d="M 0 345.6 
L 460.8 345.6 
L 460.8 0 
L 0 0 
z
" style="fill: #ffffff"/>
  </g>
  <g id="axes_1">
   <g id="patch_2">
    <path d="M 57.26 297.619179 
L 450 297.619179 
L 450 26.16 
L 57.26 26.16 
z
" style="fill: #ffffff"/>
   </g>
   <g id="patch_3">
    <path d="M 75.111818 297.619179 
L 77.237035 297.619179 
L 77.237035 269.613646 
L 75.111818 269.613646 
z
" clip-path="url(#p707cbb0bef)" style="fill: #1f77b4; opacity: 0.5"/>
   </g>
   <g id="patch_4">
    <path d="M 77.237035 297.619179 
L 79.362251 297.619179 
L 79.362251 205.563957 
L 77.237035 205.563957 
z
" clip-path="url(#p707cbb0bef)" style="fill: #1f77b4; opacity: 0.5"/>
   </g>
   <g id="patch_5">
    <path d="M 79.362251 297.619179 
L 81.487468 297.619179 
L 81.487468 151.368066 
L 79.362251 151.368066 
z
" clip-path="url(#p707cbb0bef)" style="fill: #1f77b4; opacity: 0.5"/>
   </g>
   <g id="patch_6">
    <path d="M 81.487468 297.619179 
L 83.612684 297.619179 
L 83.612684 141.254958 
L 81.487468 141.254958 
z
" clip-path="url(#p707cbb0bef)" style="fill: #1f77b4; opacity: 0.5"/>
   </g>
   <g id="patch_7">
    <path d="M 83.612684 297.619179 
L 85.7379 297.619179 
L 85.7379 121.677016 
L 83.612684 121.677016 
z
" clip-path="url(#p707cbb0bef)" style="fill: #1f77b4; opacity: 0.5"/>
   </g>
   <g id="patch_8">
    <path d="M 85.7379 297.619179 
L 87.863117 297.619179 
L 87.863117 88.355619 
L 85.7379 88.355619 
z
" clip-path="url(#p707cbb0bef)" style="fill: #1f77b4; opacity: 0.5"/>
   </g>
   <g id="patch_9">
    <path d="M 87.863117 297.619179 
L 89.988333 297.619179 
L 89.988333 59.572156 
L 87.863117 59.572156 
z
" clip-path="url(#p707cbb0bef)" style="fill: #1f77b4; opacity: 0.5"/>
   </g>
   <g id="patch_10">
    <path d="M 89.988333 297.619179 
L 92.11355 297.619179 
L 92.11355 39.086628 
L 89.988333 39.086628 
z
" clip-path="url(#p707cbb0bef)" style="fill: #1f77b4; opacity: 0.5"/>
   </g>
   <g id="patch_11">
    <path d="M 92.11355 297.619179 
L 94.238766 297.619179 
L 94.238766 57.886638 
L 92.11355 57.886638 
z
" clip-path="url(#p707cbb0bef)" style="fill: #1f77b4; opacity: 0.5"/>
   </g>
   <g id="patch_12">
    <path d="M 94.238766 297.619179 
L 96.363983 297.619179 
L 96.363983 65.665952 
L 94.238766 65.665952 
z
" clip-path="url(#p707cbb0bef)" style="fill: #1f77b4; opacity: 0.5"/>
   </g>
   <g id="patch_13">
    <path d="M 96.363983 297.619179 
L 98.489199 297.619179 
L 98.489199 80.576305 
L 96.363983 80.576305 
z
" clip-path="url(#p707cbb0bef)" style="fill: #1f77b4; opacity: 0.5"/>
   </g>
   <g id="patch_14">
    <path d="M 98.489199 297.619179 
L 100.614416 297.619179 
L 100.614416 77.853545 
L 98.489199 77.853545 
z
" clip-path="url(#p707cbb0bef)" style="fill: #1f77b4; opacity: 0.5"/>
   </g>
   <g id="patch_15">
    <path d="M 100.614416 297.619179 
L 102.739632 297.619179 
L 102.739632 73.574922 
L 100.614416 73.574922 
z
" clip-path="url(#p707cbb0bef)" style="fill: #1f77b4; opacity: 0.5"/>
   </g>
   <g id="patch_16">
    <path d="M 102.739632 297.619179 
L 104.864848 297.619179 
L 104.864848 81.613547 
L 102.739632 81.613547 
z
" clip-path="url(#p707cbb0bef)" style="fill: #1f77b4; opacity: 0.5"/>
   </g>
   <g id="patch_17">
    <path d="M 104.864848 297.619179 
L 106.990065 297.619179 
L 106.990065 81.094926 
L 104.864848 81.094926 
z
" clip-path="url(#p707cbb0bef)" style="fill: #1f77b4; opacity: 0.5"/>
   </g>
   <g id="patch_18">
    <path d="M 106.990065 297.619179 
L 109.115281 297.619179 
L 109.115281 89.522516 
L 106.990065 89.522516 
z
" clip-path="url(#p707cbb0bef)" style="fill: #1f77b4; opacity: 0.5"/>
   </g>
   <g id="patch_19">
    <path d="M 109.115281 297.619179 
L 111.240498 297.619179 
L 111.240498 79.928029 
L 109.115281 79.928029 
z
" clip-path="url(#p707cbb0bef)" style="fill: #1f77b4; opacity: 0.5"/>
   </g>
   <g id="patch_20">
    <path d="M 111.240498 297.619179 
L 113.365714 297.619179 
L 113.365714 103.784593 
L 111.240498 103.784593 
z
" clip-path="url(#p707cbb0bef)" style="fill: #1f77b4; opacity: 0.5"/>
   </g>
   <g id="patch_21">
    <path d="M 113.365714 297.619179 
L 115.490931 297.619179 
L 115.490931 128.808054 
L 113.365714 128.808054 
z
" clip-path="url(#p707cbb0bef)" style="fill: #1f77b4; opacity: 0.5"/>
   </g>
   <g id="patch_22">
    <path d="M 115.490931 297.619179 
L 117.616147 297.619179 
L 117.616147 135.939093 
L 115.490931 135.939093 
z
" clip-path="url(#p707cbb0bef)" style="fill: #1f77b4; opacity: 0.5"/>
   </g>
   <g id="patch_23">
    <path d="M 117.616147 297.619179 
L 119.741364 297.619179 
L 119.741364 126.863226 
L 117.616147 126.863226 
z
" clip-path="url(#p707cbb0bef)" style="fill: #1f77b4; opacity: 0.5"/>
   </g>
   <g id="patch_24">
    <path d="M 119.741364 297.619179 
L 121.86658 297.619179 
L 121.86658 145.01496 
L 119.741364 145.01496 
z
" clip-path="url(#p707cbb0bef)" style="fill: #1f77b4; opacity: 0.5"/>
   </g>
   <g id="patch_25">
    <path d="M 121.86658 297.619179 
L 123.991797 297.619179 
L 123.991797 154.090827 
L 121.86658 154.090827 
z
" clip-path="url(#p707cbb0bef)" style="fill: #1f77b4; opacity: 0.5"/>
   </g>
   <g id="patch_26">
    <path d="M 123.991797 297.619179 
L 126.117013 297.619179 
L 126.117013 159.406691 
L 123.991797 159.406691 
z
" clip-path="url(#p707cbb0bef)" style="fill: #1f77b4; opacity: 0.5"/>
   </g>
   <g id="patch_27">
    <path d="M 126.117013 297.619179 
L 128.242229 297.619179 
L 128.242229 154.220482 
L 126.117013 154.220482 
z
" clip-path="url(#p707cbb0bef)" style="fill: #1f77b4; opacity: 0.5"/>
   </g>
   <g id="patch_28">
    <path d="M 128.242229 297.619179 
L 130.367446 297.619179 
L 130.367446 159.017726 
L 128.242229 159.017726 
z
" clip-path="url(#p707cbb0bef)" style="fill: #1f77b4; opacity: 0.5"/>
   </g>
   <g id="patch_29">
    <path d="M 130.367446 297.619179 
L 132.492662 297.619179 
L 132.492662 150.201169 
L 130.367446 150.201169 
z
" clip-path="url(#p707cbb0bef)" style="fill: #1f77b4; opacity: 0.5"/>
   </g>
   <g id="patch_30">
    <path d="M 132.492662 297.619179 
L 134.617879 297.619179 
L 134.617879 157.202552 
L 132.492662 157.202552 
z
" clip-path="url(#p707cbb0bef)" style="fill: #1f77b4; opacity: 0.5"/>
   </g>
   <g id="patch_31">
    <path d="M 134.617879 297.619179 
L 136.743095 297.619179 
L 136.743095 171.98325 
L 134.617879 171.98325 
z
" clip-path="url(#p707cbb0bef)" style="fill: #1f77b4; opacity: 0.5"/>
   </g>
   <g id="patch_32">
    <path d="M 136.743095 297.619179 
L 138.868312 297.619179 
L 138.868312 182.61498 
L 136.743095 182.61498 
z
" clip-path="url(#p707cbb0bef)" style="fill: #1f77b4; opacity: 0.5"/>
   </g>
   <g id="patch_33">
    <path d="M 138.868312 297.619179 
L 140.993528 297.619179 
L 140.993528 200.507403 
L 138.868312 200.507403 
z
" clip-path="url(#p707cbb0bef)" style="fill: #1f77b4; opacity: 0.5"/>
   </g>
   <g id="patch_34">
    <path d="M 140.993528 297.619179 
L 143.118745 297.619179 
L 143.118745 196.099125 
L 140.993528 196.099125 
z
" clip-path="url(#p707cbb0bef)" style="fill: #1f77b4; opacity: 0.5"/>
   </g>
   <g id="patch_35">
    <path d="M 143.118745 297.619179 
L 145.243961 297.619179 
L 145.243961 211.398443 
L 143.118745 211.398443 
z
" clip-path="url(#p707cbb0bef)" style="fill: #1f77b4; opacity: 0.5"/>
   </g>
   <g id="patch_36">
    <path d="M 145.243961 297.619179 
L 147.369177 297.619179 
L 147.369177 218.399826 
L 145.243961 218.399826 
z
" clip-path="url(#p707cbb0bef)" style="fill: #1f77b4; opacity: 0.5"/>
   </g>
   <g id="patch_37">
    <path d="M 147.369177 297.619179 
L 149.494394 297.619179 
L 149.494394 232.791558 
L 147.369177 232.791558 
z
" clip-path="url(#p707cbb0bef)" style="fill: #1f77b4; opacity: 0.5"/>
   </g>
   <g id="patch_38">
    <path d="M 149.494394 297.619179 
L 151.61961 297.619179 
L 151.61961 231.754316 
L 149.494394 231.754316 
z
" clip-path="url(#p707cbb0bef)" style="fill: #1f77b4; opacity: 0.5"/>
   </g>
   <g id="patch_39">
    <path d="M 151.61961 297.619179 
L 153.744827 297.619179 
L 153.744827 229.420522 
L 151.61961 229.420522 
z
" clip-path="url(#p707cbb0bef)" style="fill: #1f77b4; opacity: 0.5"/>
   </g>
   <g id="patch_40">
    <path d="M 153.744827 297.619179 
L 155.870043 297.619179 
L 155.870043 240.052251 
L 153.744827 240.052251 
z
" clip-path="url(#p707cbb0bef)" style="fill: #1f77b4; opacity: 0.5"/>
   </g>
   <g id="patch_41">
    <path d="M 155.870043 297.619179 
L 157.99526 297.619179 
L 157.99526 243.812253 
L 155.870043 243.812253 
z
" clip-path="url(#p707cbb0bef)" style="fill: #1f77b4; opacity: 0.5"/>
   </g>
   <g id="patch_42">
    <path d="M 157.99526 297.619179 
L 160.120476 297.619179 
L 160.120476 236.032939 
L 157.99526 236.032939 
z
" clip-path="url(#p707cbb0bef)" style="fill: #1f77b4; opacity: 0.5"/>
   </g>
   <g id="patch_43">
    <path d="M 160.120476 297.619179 
L 162.245693 297.619179 
L 162.245693 242.904667 
L 160.120476 242.904667 
z
" clip-path="url(#p707cbb0bef)" style="fill: #1f77b4; opacity: 0.5"/>
   </g>
   <g id="patch_44">
    <path d="M 162.245693 297.619179 
L 164.370909 297.619179 
L 164.370909 260.278469 
L 162.245693 260.278469 
z
" clip-path="url(#p707cbb0bef)" style="fill: #1f77b4; opacity: 0.5"/>
   </g>
   <g id="patch_45">
    <path d="M 164.370909 297.619179 
L 166.496126 297.619179 
L 166.496126 262.093642 
L 164.370909 262.093642 
z
" clip-path="url(#p707cbb0bef)" style="fill: #1f77b4; opacity: 0.5"/>
   </g>
   <g id="patch_46">
    <path d="M 166.496126 297.619179 
L 168.621342 297.619179 
L 168.621342 267.668818 
L 166.496126 267.668818 
z
" clip-path="url(#p707cbb0bef)" style="fill: #1f77b4; opacity: 0.5"/>
   </g>
   <g id="patch_47">
    <path d="M 168.621342 297.619179 
L 170.746558 297.619179 
L 170.746558 263.779161 
L 168.621342 263.779161 
z
" clip-path="url(#p707cbb0bef)" style="fill: #1f77b4; opacity: 0.5"/>
   </g>
   <g id="patch_48">
    <path d="M 170.746558 297.619179 
L 172.871775 297.619179 
L 172.871775 264.297782 
L 170.746558 264.297782 
z
" clip-path="url(#p707cbb0bef)" style="fill: #1f77b4; opacity: 0.5"/>
   </g>
   <g id="patch_49">
    <path d="M 172.871775 297.619179 
L 174.996991 297.619179 
L 174.996991 265.075713 
L 172.871775 265.075713 
z
" clip-path="url(#p707cbb0bef)" style="fill: #1f77b4; opacity: 0.5"/>
   </g>
   <g id="patch_50">
    <path d="M 174.996991 297.619179 
L 177.122208 297.619179 
L 177.122208 264.816403 
L 174.996991 264.816403 
z
" clip-path="url(#p707cbb0bef)" style="fill: #1f77b4; opacity: 0.5"/>
   </g>
   <g id="patch_51">
    <path d="M 177.122208 297.619179 
L 179.247424 297.619179 
L 179.247424 263.649505 
L 177.122208 263.649505 
z
" clip-path="url(#p707cbb0bef)" style="fill: #1f77b4; opacity: 0.5"/>
   </g>
   <g id="patch_52">
    <path d="M 179.247424 297.619179 
L 181.372641 297.619179 
L 181.372641 262.093642 
L 179.247424 262.093642 
z
" clip-path="url(#p707cbb0bef)" style="fill: #1f77b4; opacity: 0.5"/>
   </g>
   <g id="patch_53">
    <path d="M 181.372641 297.619179 
L 183.497857 297.619179 
L 183.497857 269.354336 
L 181.372641 269.354336 
z
" clip-path="url(#p707cbb0bef)" style="fill: #1f77b4; opacity: 0.5"/>
   </g>
   <g id="patch_54">
    <path d="M 183.497857 297.619179 
L 185.623074 297.619179 
L 185.623074 269.872957 
L 183.497857 269.872957 
z
" clip-path="url(#p707cbb0bef)" style="fill: #1f77b4; opacity: 0.5"/>
   </g>
   <g id="patch_55">
    <path d="M 185.623074 297.619179 
L 187.74829 297.619179 
L 187.74829 275.707443 
L 185.623074 275.707443 
z
" clip-path="url(#p707cbb0bef)" style="fill: #1f77b4; opacity: 0.5"/>
   </g>
   <g id="patch_56">
    <path d="M 187.74829 297.619179 
L 189.873506 297.619179 
L 189.873506 272.595717 
L 187.74829 272.595717 
z
" clip-path="url(#p707cbb0bef)" style="fill: #1f77b4; opacity: 0.5"/>
   </g>
   <g id="patch_57">
    <path d="M 189.873506 297.619179 
L 191.998723 297.619179 
L 191.998723 276.096409 
L 189.873506 276.096409 
z
" clip-path="url(#p707cbb0bef)" style="fill: #1f77b4; opacity: 0.5"/>
   </g>
   <g id="patch_58">
    <path d="M 191.998723 297.619179 
L 194.123939 297.619179 
L 194.123939 278.689513 
L 191.998723 278.689513 
z
" clip-path="url(#p707cbb0bef)" style="fill: #1f77b4; opacity: 0.5"/>
   </g>
   <g id="patch_59">
    <path d="M 194.123939 297.619179 
L 196.249156 297.619179 
L 196.249156 285.04262 
L 194.123939 285.04262 
z
" clip-path="url(#p707cbb0bef)" style="fill: #1f77b4; opacity: 0.5"/>
   </g>
   <g id="patch_60">
    <path d="M 196.249156 297.619179 
L 198.374372 297.619179 
L 198.374372 284.264689 
L 196.249156 284.264689 
z
" clip-path="url(#p707cbb0bef)" style="fill: #1f77b4; opacity: 0.5"/>
   </g>
   <g id="patch_61">
    <path d="M 198.374372 297.619179 
L 200.499589 297.619179 
L 200.499589 284.135034 
L 198.374372 284.135034 
z
" clip-path="url(#p707cbb0bef)" style="fill: #1f77b4; opacity: 0.5"/>
   </g>
   <g id="patch_62">
    <path d="M 200.499589 297.619179 
L 202.624805 297.619179 
L 202.624805 288.672967 
L 200.499589 288.672967 
z
" clip-path="url(#p707cbb0bef)" style="fill: #1f77b4; opacity: 0.5"/>
   </g>
   <g id="patch_63">
    <path d="M 202.624805 297.619179 
L 204.750022 297.619179 
L 204.750022 284.912965 
L 202.624805 284.912965 
z
" clip-path="url(#p707cbb0bef)" style="fill: #1f77b4; opacity: 0.5"/>
   </g>
   <g id="patch_64">
    <path d="M 204.750022 297.619179 
L 206.875238 297.619179 
L 206.875238 287.50607 
L 204.750022 287.50607 
z
" clip-path="url(#p707cbb0bef)" style="fill: #1f77b4; opacity: 0.5"/>
   </g>
   <g id="patch_65">
    <path d="M 206.875238 297.619179 
L 209.000455 297.619179 
L 209.000455 284.653654 
L 206.875238 284.653654 
z
" clip-path="url(#p707cbb0bef)" style="fill: #1f77b4; opacity: 0.5"/>
   </g>
   <g id="patch_66">
    <path d="M 209.000455 297.619179 
L 211.125671 297.619179 
L 211.125671 285.950207 
L 209.000455 285.950207 
z
" clip-path="url(#p707cbb0bef)" style="fill: #1f77b4; opacity: 0.5"/>
   </g>
   <g id="patch_67">
    <path d="M 211.125671 297.619179 
L 213.250887 297.619179 
L 213.250887 289.580554 
L 211.125671 289.580554 
z
" clip-path="url(#p707cbb0bef)" style="fill: #1f77b4; opacity: 0.5"/>
   </g>
   <g id="patch_68">
    <path d="M 213.250887 297.619179 
L 215.376104 297.619179 
L 215.376104 285.950207 
L 213.250887 285.950207 
z
" clip-path="url(#p707cbb0bef)" style="fill: #1f77b4; opacity: 0.5"/>
   </g>
   <g id="patch_69">
    <path d="M 215.376104 297.619179 
L 217.50132 297.619179 
L 217.50132 289.839864 
L 215.376104 289.839864 
z
" clip-path="url(#p707cbb0bef)" style="fill: #1f77b4; opacity: 0.5"/>
   </g>
   <g id="patch_70">
    <path d="M 217.50132 297.619179 
L 219.626537 297.619179 
L 219.626537 291.395727 
L 217.50132 291.395727 
z
" clip-path="url(#p707cbb0bef)" style="fill: #1f77b4; opacity: 0.5"/>
   </g>
   <g id="patch_71">
    <path d="M 219.626537 297.619179 
L 221.751753 297.619179 
L 221.751753 293.081245 
L 219.626537 293.081245 
z
" clip-path="url(#p707cbb0bef)" style="fill: #1f77b4; opacity: 0.5"/>
   </g>
   <g id="patch_72">
    <path d="M 221.751753 297.619179 
L 223.87697 297.619179 
L 223.87697 292.173658 
L 221.751753 292.173658 
z
" clip-path="url(#p707cbb0bef)" style="fill: #1f77b4; opacity: 0.5"/>
   </g>
   <g id="patch_73">
    <path d="M 223.87697 297.619179 
L 226.002186 297.619179 
L 226.002186 294.637108 
L 223.87697 294.637108 
z
" clip-path="url(#p707cbb0bef)" style="fill: #1f77b4; opacity: 0.5"/>
   </g>
   <g id="patch_74">
    <path d="M 226.002186 297.619179 
L 228.127403 297.619179 
L 228.127403 293.340556 
L 226.002186 293.340556 
z
" clip-path="url(#p707cbb0bef)" style="fill: #1f77b4; opacity: 0.5"/>
   </g>
   <g id="patch_75">
    <path d="M 228.127403 297.619179 
L 230.252619 297.619179 
L 230.252619 292.432969 
L 228.127403 292.432969 
z
" clip-path="url(#p707cbb0bef)" style="fill: #1f77b4; opacity: 0.5"/>
   </g>
   <g id="patch_76">
    <path d="M 230.252619 297.619179 
L 232.377835 297.619179 
L 232.377835 291.784693 
L 230.252619 291.784693 
z
" clip-path="url(#p707cbb0bef)" style="fill: #1f77b4; opacity: 0.5"/>
   </g>
   <g id="patch_77">
    <path d="M 232.377835 297.619179 
L 234.503052 297.619179 
L 234.503052 295.804005 
L 232.377835 295.804005 
z
" clip-path="url(#p707cbb0bef)" style="fill: #1f77b4; opacity: 0.5"/>
   </g>
   <g id="patch_78">
    <path d="M 234.503052 297.619179 
L 236.628268 297.619179 
L 236.628268 292.044003 
L 234.503052 292.044003 
z
" clip-path="url(#p707cbb0bef)" style="fill: #1f77b4; opacity: 0.5"/>
   </g>
   <g id="patch_79">
    <path d="M 236.628268 297.619179 
L 238.753485 297.619179 
L 238.753485 295.804005 
L 236.628268 295.804005 
z
" clip-path="url(#p707cbb0bef)" style="fill: #1f77b4; opacity: 0.5"/>
   </g>
   <g id="patch_80">
    <path d="M 238.753485 297.619179 
L 240.878701 297.619179 
L 240.878701 296.452281 
L 238.753485 296.452281 
z
" clip-path="url(#p707cbb0bef)" style="fill: #1f77b4; opacity: 0.5"/>
   </g>
   <g id="patch_81">
    <path d="M 240.878701 297.619179 
L 243.003918 297.619179 
L 243.003918 293.988832 
L 240.878701 293.988832 
z
" clip-path="url(#p707cbb0bef)" style="fill: #1f77b4; opacity: 0.5"/>
   </g>
   <g id="patch_82">
    <path d="M 243.003918 297.619179 
L 245.129134 297.619179 
L 245.129134 295.544695 
L 243.003918 295.544695 
z
" clip-path="url(#p707cbb0bef)" style="fill: #1f77b4; opacity: 0.5"/>
   </g>
   <g id="patch_83">
    <path d="M 245.129134 297.619179 
L 247.254351 297.619179 
L 247.254351 295.026074 
L 245.129134 295.026074 
z
" clip-path="url(#p707cbb0bef)" style="fill: #1f77b4; opacity: 0.5"/>
   </g>
   <g id="patch_84">
    <path d="M 247.254351 297.619179 
L 249.379567 297.619179 
L 249.379567 296.452281 
L 247.254351 296.452281 
z
" clip-path="url(#p707cbb0bef)" style="fill: #1f77b4; opacity: 0.5"/>
   </g>
   <g id="patch_85">
    <path d="M 249.379567 297.619179 
L 251.504784 297.619179 
L 251.504784 296.711592 
L 249.379567 296.711592 
z
" clip-path="url(#p707cbb0bef)" style="fill: #1f77b4; opacity: 0.5"/>
   </g>
   <g id="patch_86">
    <path d="M 251.504784 297.619179 
L 253.63 297.619179 
L 253.63 294.896419 
L 251.504784 294.896419 
z
" clip-path="url(#p707cbb0bef)" style="fill: #1f77b4; opacity: 0.5"/>
   </g>
   <g id="patch_87">
    <path d="M 253.63 297.619179 
L 255.755216 297.619179 
L 255.755216 296.452281 
L 253.63 296.452281 
z
" clip-path="url(#p707cbb0bef)" style="fill: #1f77b4; opacity: 0.5"/>
   </g>
   <g id="patch_88">
    <path d="M 255.755216 297.619179 
L 257.880433 297.619179 
L 257.880433 296.322626 
L 255.755216 296.322626 
z
" clip-path="url(#p707cbb0bef)" style="fill: #1f77b4; opacity: 0.5"/>
   </g>
   <g id="patch_89">
    <path d="M 257.880433 297.619179 
L 260.005649 297.619179 
L 260.005649 296.841247 
L 257.880433 296.841247 
z
" clip-path="url(#p707cbb0bef)" style="fill: #1f77b4; opacity: 0.5"/>
   </g>
   <g id="patch_90">
    <path d="M 260.005649 297.619179 
L 262.130866 297.619179 
L 262.130866 296.711592 
L 260.005649 296.711592 
z
" clip-path="url(#p707cbb0bef)" style="fill: #1f77b4; opacity: 0.5"/>
   </g>
   <g id="patch_91">
    <path d="M 262.130866 297.619179 
L 264.256082 297.619179 
L 264.256082 296.192971 
L 262.130866 296.192971 
z
" clip-path="url(#p707cbb0bef)" style="fill: #1f77b4; opacity: 0.5"/>
   </g>
   <g id="patch_92">
    <path d="M 264.256082 297.619179 
L 266.381299 297.619179 
L 266.381299 295.155729 
L 264.256082 295.155729 
z
" clip-path="url(#p707cbb0bef)" style="fill: #1f77b4; opacity: 0.5"/>
   </g>
   <g id="patch_93">
    <path d="M 266.381299 297.619179 
L 268.506515 297.619179 
L 268.506515 295.415039 
L 266.381299 295.415039 
z
" clip-path="url(#p707cbb0bef)" style="fill: #1f77b4; opacity: 0.5"/>
   </g>
   <g id="patch_94">
    <path d="M 268.506515 297.619179 
L 270.631732 297.619179 
L 270.631732 296.711592 
L 268.506515 296.711592 
z
" clip-path="url(#p707cbb0bef)" style="fill: #1f77b4; opacity: 0.5"/>
   </g>
   <g id="patch_95">
    <path d="M 270.631732 297.619179 
L 272.756948 297.619179 
L 272.756948 294.377798 
L 270.631732 294.377798 
z
" clip-path="url(#p707cbb0bef)" style="fill: #1f77b4; opacity: 0.5"/>
   </g>
   <g id="patch_96">
    <path d="M 272.756948 297.619179 
L 274.882165 297.619179 
L 274.882165 294.637108 
L 272.756948 294.637108 
z
" clip-path="url(#p707cbb0bef)" style="fill: #1f77b4; opacity: 0.5"/>
   </g>
   <g id="patch_97">
    <path d="M 274.882165 297.619179 
L 277.007381 297.619179 
L 277.007381 295.155729 
L 274.882165 295.155729 
z
" clip-path="url(#p707cbb0bef)" style="fill: #1f77b4; opacity: 0.5"/>
   </g>
   <g id="patch_98">
    <path d="M 277.007381 297.619179 
L 279.132597 297.619179 
L 279.132597 296.711592 
L 277.007381 296.711592 
z
" clip-path="url(#p707cbb0bef)" style="fill: #1f77b4; opacity: 0.5"/>
   </g>
   <g id="patch_99">
    <path d="M 279.132597 297.619179 
L 281.257814 297.619179 
L 281.257814 295.285384 
L 279.132597 295.285384 
z
" clip-path="url(#p707cbb0bef)" style="fill: #1f77b4; opacity: 0.5"/>
   </g>
   <g id="patch_100">
    <path d="M 281.257814 297.619179 
L 283.38303 297.619179 
L 283.38303 295.93366 
L 281.257814 295.93366 
z
" clip-path="url(#p707cbb0bef)" style="fill: #1f77b4; opacity: 0.5"/>
   </g>
   <g id="patch_101">
    <path d="M 283.38303 297.619179 
L 285.508247 297.619179 
L 285.508247 294.507453 
L 283.38303 294.507453 
z
" clip-path="url(#p707cbb0bef)" style="fill: #1f77b4; opacity: 0.5"/>
   </g>
   <g id="patch_102">
    <path d="M 285.508247 297.619179 
L 287.633463 297.619179 
L 287.633463 293.988832 
L 285.508247 293.988832 
z
" clip-path="url(#p707cbb0bef)" style="fill: #1f77b4; opacity: 0.5"/>
   </g>
   <g id="patch_103">
    <path d="M 287.633463 297.619179 
L 289.75868 297.619179 
L 289.75868 296.322626 
L 287.633463 296.322626 
z
" clip-path="url(#p707cbb0bef)" style="fill: #1f77b4; opacity: 0.5"/>
   </g>
   <g id="patch_104">
    <path d="M 289.75868 297.619179 
L 291.883896 297.619179 
L 291.883896 296.063316 
L 289.75868 296.063316 
z
" clip-path="url(#p707cbb0bef)" style="fill: #1f77b4; opacity: 0.5"/>
   </g>
   <g id="patch_105">
    <path d="M 291.883896 297.619179 
L 294.009113 297.619179 
L 294.009113 295.155729 
L 291.883896 295.155729 
z
" clip-path="url(#p707cbb0bef)" style="fill: #1f77b4; opacity: 0.5"/>
   </g>
   <g id="patch_106">
    <path d="M 294.009113 297.619179 
L 296.134329 297.619179 
L 296.134329 296.581937 
L 294.009113 296.581937 
z
" clip-path="url(#p707cbb0bef)" style="fill: #1f77b4; opacity: 0.5"/>
   </g>
   <g id="patch_107">
    <path d="M 296.134329 297.619179 
L 298.259545 297.619179 
L 298.259545 297.359868 
L 296.134329 297.359868 
z
" clip-path="url(#p707cbb0bef)" style="fill: #1f77b4; opacity: 0.5"/>
   </g>
   <g id="patch_108">
    <path d="M 298.259545 297.619179 
L 300.384762 297.619179 
L 300.384762 296.711592 
L 298.259545 296.711592 
z
" clip-path="url(#p707cbb0bef)" style="fill: #1f77b4; opacity: 0.5"/>
   </g>
   <g id="patch_109">
    <path d="M 300.384762 297.619179 
L 302.509978 297.619179 
L 302.509978 296.711592 
L 300.384762 296.711592 
z
" clip-path="url(#p707cbb0bef)" style="fill: #1f77b4; opacity: 0.5"/>
   </g>
   <g id="patch_110">
    <path d="M 302.509978 297.619179 
L 304.635195 297.619179 
L 304.635195 297.100558 
L 302.509978 297.100558 
z
" clip-path="url(#p707cbb0bef)" style="fill: #1f77b4; opacity: 0.5"/>
   </g>
   <g id="patch_111">
    <path d="M 304.635195 297.619179 
L 306.760411 297.619179 
L 306.760411 297.100558 
L 304.635195 297.100558 
z
" clip-path="url(#p707cbb0bef)" style="fill: #1f77b4; opacity: 0.5"/>
   </g>
   <g id="patch_112">
    <path d="M 306.760411 297.619179 
L 308.885628 297.619179 
L 308.885628 296.841247 
L 306.760411 296.841247 
z
" clip-path="url(#p707cbb0bef)" style="fill: #1f77b4; opacity: 0.5"/>
   </g>
   <g id="patch_113">
    <path d="M 308.885628 297.619179 
L 311.010844 297.619179 
L 311.010844 297.230213 
L 308.885628 297.230213 
z
" clip-path="url(#p707cbb0bef)" style="fill: #1f77b4; opacity: 0.5"/>
   </g>
   <g id="patch_114">
    <path d="M 311.010844 297.619179 
L 313.136061 297.619179 
L 313.136061 297.100558 
L 311.010844 297.100558 
z
" clip-path="url(#p707cbb0bef)" style="fill: #1f77b4; opacity: 0.5"/>
   </g>
   <g id="patch_115">
    <path d="M 313.136061 297.619179 
L 315.261277 297.619179 
L 315.261277 296.711592 
L 313.136061 296.711592 
z
" clip-path="url(#p707cbb0bef)" style="fill: #1f77b4; opacity: 0.5"/>
   </g>
   <g id="patch_116">
    <path d="M 315.261277 297.619179 
L 317.386494 297.619179 
L 317.386494 297.230213 
L 315.261277 297.230213 
z
" clip-path="url(#p707cbb0bef)" style="fill: #1f77b4; opacity: 0.5"/>
   </g>
   <g id="patch_117">
    <path d="M 317.386494 297.619179 
L 319.51171 297.619179 
L 319.51171 297.359868 
L 317.386494 297.359868 
z
" clip-path="url(#p707cbb0bef)" style="fill: #1f77b4; opacity: 0.5"/>
   </g>
   <g id="patch_118">
    <path d="M 319.51171 297.619179 
L 321.636926 297.619179 
L 321.636926 297.359868 
L 319.51171 297.359868 
z
" clip-path="url(#p707cbb0bef)" style="fill: #1f77b4; opacity: 0.5"/>
   </g>
   <g id="patch_119">
    <path d="M 321.636926 297.619179 
L 323.762143 297.619179 
L 323.762143 297.359868 
L 321.636926 297.359868 
z
" clip-path="url(#p707cbb0bef)" style="fill: #1f77b4; opacity: 0.5"/>
   </g>
   <g id="patch_120">
    <path d="M 323.762143 297.619179 
L 325.887359 297.619179 
L 325.887359 297.359868 
L 323.762143 297.359868 
z
" clip-path="url(#p707cbb0bef)" style="fill: #1f77b4; opacity: 0.5"/>
   </g>
   <g id="patch_121">
    <path d="M 325.887359 297.619179 
L 328.012576 297.619179 
L 328.012576 297.489523 
L 325.887359 297.489523 
z
" clip-path="url(#p707cbb0bef)" style="fill: #1f77b4; opacity: 0.5"/>
   </g>
   <g id="patch_122">
    <path d="M 328.012576 297.619179 
L 330.137792 297.619179 
L 330.137792 297.619179 
L 328.012576 297.619179 
z
" clip-path="url(#p707cbb0bef)" style="fill: #1f77b4; opacity: 0.5"/>
   </g>
   <g id="patch_123">
    <path d="M 330.137792 297.619179 
L 332.263009 297.619179 
L 332.263009 297.359868 
L 330.137792 297.359868 
z
" clip-path="url(#p707cbb0bef)" style="fill: #1f77b4; opacity: 0.5"/>
   </g>
   <g id="patch_124">
    <path d="M 332.263009 297.619179 
L 334.388225 297.619179 
L 334.388225 297.359868 
L 332.263009 297.359868 
z
" clip-path="url(#p707cbb0bef)" style="fill: #1f77b4; opacity: 0.5"/>
   </g>
   <g id="patch_125">
    <path d="M 334.388225 297.619179 
L 336.513442 297.619179 
L 336.513442 297.489523 
L 334.388225 297.489523 
z
" clip-path="url(#p707cbb0bef)" style="fill: #1f77b4; opacity: 0.5"/>
   </g>
   <g id="patch_126">
    <path d="M 336.513442 297.619179 
L 338.638658 297.619179 
L 338.638658 297.359868 
L 336.513442 297.359868 
z
" clip-path="url(#p707cbb0bef)" style="fill: #1f77b4; opacity: 0.5"/>
   </g>
   <g id="patch_127">
    <path d="M 338.638658 297.619179 
L 340.763874 297.619179 
L 340.763874 297.359868 
L 338.638658 297.359868 
z
" clip-path="url(#p707cbb0bef)" style="fill: #1f77b4; opacity: 0.5"/>
   </g>
   <g id="patch_128">
    <path d="M 340.763874 297.619179 
L 342.889091 297.619179 
L 342.889091 297.619179 
L 340.763874 297.619179 
z
" clip-path="url(#p707cbb0bef)" style="fill: #1f77b4; opacity: 0.5"/>
   </g>
   <g id="patch_129">
    <path d="M 342.889091 297.619179 
L 345.014307 297.619179 
L 345.014307 297.619179 
L 342.889091 297.619179 
z
" clip-path="url(#p707cbb0bef)" style="fill: #1f77b4; opacity: 0.5"/>
   </g>
   <g id="patch_130">
    <path d="M 345.014307 297.619179 
L 347.139524 297.619179 
L 347.139524 297.489523 
L 345.014307 297.489523 
z
" clip-path="url(#p707cbb0bef)" style="fill: #1f77b4; opacity: 0.5"/>
   </g>
   <g id="patch_131">
    <path d="M 347.139524 297.619179 
L 349.26474 297.619179 
L 349.26474 297.619179 
L 347.139524 297.619179 
z
" clip-path="url(#p707cbb0bef)" style="fill: #1f77b4; opacity: 0.5"/>
   </g>
   <g id="patch_132">
    <path d="M 349.26474 297.619179 
L 351.389957 297.619179 
L 351.389957 297.359868 
L 349.26474 297.359868 
z
" clip-path="url(#p707cbb0bef)" style="fill: #1f77b4; opacity: 0.5"/>
   </g>
   <g id="patch_133">
    <path d="M 351.389957 297.619179 
L 353.515173 297.619179 
L 353.515173 297.359868 
L 351.389957 297.359868 
z
" clip-path="url(#p707cbb0bef)" style="fill: #1f77b4; opacity: 0.5"/>
   </g>
   <g id="patch_134">
    <path d="M 353.515173 297.619179 
L 355.64039 297.619179 
L 355.64039 297.489523 
L 353.515173 297.489523 
z
" clip-path="url(#p707cbb0bef)" style="fill: #1f77b4; opacity: 0.5"/>
   </g>
   <g id="patch_135">
    <path d="M 355.64039 297.619179 
L 357.765606 297.619179 
L 357.765606 297.619179 
L 355.64039 297.619179 
z
" clip-path="url(#p707cbb0bef)" style="fill: #1f77b4; opacity: 0.5"/>
   </g>
   <g id="patch_136">
    <path d="M 357.765606 297.619179 
L 359.890823 297.619179 
L 359.890823 297.489523 
L 357.765606 297.489523 
z
" clip-path="url(#p707cbb0bef)" style="fill: #1f77b4; opacity: 0.5"/>
   </g>
   <g id="patch_137">
    <path d="M 359.890823 297.619179 
L 362.016039 297.619179 
L 362.016039 297.359868 
L 359.890823 297.359868 
z
" clip-path="url(#p707cbb0bef)" style="fill: #1f77b4; opacity: 0.5"/>
   </g>
   <g id="patch_138">
    <path d="M 362.016039 297.619179 
L 364.141255 297.619179 
L 364.141255 297.619179 
L 362.016039 297.619179 
z
" clip-path="url(#p707cbb0bef)" style="fill: #1f77b4; opacity: 0.5"/>
   </g>
   <g id="patch_139">
    <path d="M 364.141255 297.619179 
L 366.266472 297.619179 
L 366.266472 297.359868 
L 364.141255 297.359868 
z
" clip-path="url(#p707cbb0bef)" style="fill: #1f77b4; opacity: 0.5"/>
   </g>
   <g id="patch_140">
    <path d="M 366.266472 297.619179 
L 368.391688 297.619179 
L 368.391688 297.619179 
L 366.266472 297.619179 
z
" clip-path="url(#p707cbb0bef)" style="fill: #1f77b4; opacity: 0.5"/>
   </g>
   <g id="patch_141">
    <path d="M 368.391688 297.619179 
L 370.516905 297.619179 
L 370.516905 297.359868 
L 368.391688 297.359868 
z
" clip-path="url(#p707cbb0bef)" style="fill: #1f77b4; opacity: 0.5"/>
   </g>
   <g id="patch_142">
    <path d="M 370.516905 297.619179 
L 372.642121 297.619179 
L 372.642121 297.619179 
L 370.516905 297.619179 
z
" clip-path="url(#p707cbb0bef)" style="fill: #1f77b4; opacity: 0.5"/>
   </g>
   <g id="patch_143">
    <path d="M 372.642121 297.619179 
L 374.767338 297.619179 
L 374.767338 297.619179 
L 372.642121 297.619179 
z
" clip-path="url(#p707cbb0bef)" style="fill: #1f77b4; opacity: 0.5"/>
   </g>
   <g id="patch_144">
    <path d="M 374.767338 297.619179 
L 376.892554 297.619179 
L 376.892554 297.359868 
L 374.767338 297.359868 
z
" clip-path="url(#p707cbb0bef)" style="fill: #1f77b4; opacity: 0.5"/>
   </g>
   <g id="patch_145">
    <path d="M 376.892554 297.619179 
L 379.017771 297.619179 
L 379.017771 297.619179 
L 376.892554 297.619179 
z
" clip-path="url(#p707cbb0bef)" style="fill: #1f77b4; opacity: 0.5"/>
   </g>
   <g id="patch_146">
    <path d="M 379.017771 297.619179 
L 381.142987 297.619179 
L 381.142987 297.619179 
L 379.017771 297.619179 
z
" clip-path="url(#p707cbb0bef)" style="fill: #1f77b4; opacity: 0.5"/>
   </g>
   <g id="patch_147">
    <path d="M 381.142987 297.619179 
L 383.268203 297.619179 
L 383.268203 297.619179 
L 381.142987 297.619179 
z
" clip-path="url(#p707cbb0bef)" style="fill: #1f77b4; opacity: 0.5"/>
   </g>
   <g id="patch_148">
    <path d="M 383.268203 297.619179 
L 385.39342 297.619179 
L 385.39342 297.619179 
L 383.268203 297.619179 
z
" clip-path="url(#p707cbb0bef)" style="fill: #1f77b4; opacity: 0.5"/>
   </g>
   <g id="patch_149">
    <path d="M 385.39342 297.619179 
L 387.518636 297.619179 
L 387.518636 297.619179 
L 385.39342 297.619179 
z
" clip-path="url(#p707cbb0bef)" style="fill: #1f77b4; opacity: 0.5"/>
   </g>
   <g id="patch_150">
    <path d="M 387.518636 297.619179 
L 389.643853 297.619179 
L 389.643853 297.619179 
L 387.518636 297.619179 
z
" clip-path="url(#p707cbb0bef)" style="fill: #1f77b4; opacity: 0.5"/>
   </g>
   <g id="patch_151">
    <path d="M 389.643853 297.619179 
L 391.769069 297.619179 
L 391.769069 297.619179 
L 389.643853 297.619179 
z
" clip-path="url(#p707cbb0bef)" style="fill: #1f77b4; opacity: 0.5"/>
   </g>
   <g id="patch_152">
    <path d="M 391.769069 297.619179 
L 393.894286 297.619179 
L 393.894286 297.619179 
L 391.769069 297.619179 
z
" clip-path="url(#p707cbb0bef)" style="fill: #1f77b4; opacity: 0.5"/>
   </g>
   <g id="patch_153">
    <path d="M 393.894286 297.619179 
L 396.019502 297.619179 
L 396.019502 297.230213 
L 393.894286 297.230213 
z
" clip-path="url(#p707cbb0bef)" style="fill: #1f77b4; opacity: 0.5"/>
   </g>
   <g id="patch_154">
    <path d="M 396.019502 297.619179 
L 398.144719 297.619179 
L 398.144719 297.619179 
L 396.019502 297.619179 
z
" clip-path="url(#p707cbb0bef)" style="fill: #1f77b4; opacity: 0.5"/>
   </g>
   <g id="patch_155">
    <path d="M 398.144719 297.619179 
L 400.269935 297.619179 
L 400.269935 297.619179 
L 398.144719 297.619179 
z
" clip-path="url(#p707cbb0bef)" style="fill: #1f77b4; opacity: 0.5"/>
   </g>
   <g id="patch_156">
    <path d="M 400.269935 297.619179 
L 402.395152 297.619179 
L 402.395152 297.619179 
L 400.269935 297.619179 
z
" clip-path="url(#p707cbb0bef)" style="fill: #1f77b4; opacity: 0.5"/>
   </g>
   <g id="patch_157">
    <path d="M 402.395152 297.619179 
L 404.520368 297.619179 
L 404.520368 297.619179 
L 402.395152 297.619179 
z
" clip-path="url(#p707cbb0bef)" style="fill: #1f77b4; opacity: 0.5"/>
   </g>
   <g id="patch_158">
    <path d="M 404.520368 297.619179 
L 406.645584 297.619179 
L 406.645584 297.619179 
L 404.520368 297.619179 
z
" clip-path="url(#p707cbb0bef)" style="fill: #1f77b4; opacity: 0.5"/>
   </g>
   <g id="patch_159">
    <path d="M 406.645584 297.619179 
L 408.770801 297.619179 
L 408.770801 297.619179 
L 406.645584 297.619179 
z
" clip-path="url(#p707cbb0bef)" style="fill: #1f77b4; opacity: 0.5"/>
   </g>
   <g id="patch_160">
    <path d="M 408.770801 297.619179 
L 410.896017 297.619179 
L 410.896017 297.619179 
L 408.770801 297.619179 
z
" clip-path="url(#p707cbb0bef)" style="fill: #1f77b4; opacity: 0.5"/>
   </g>
   <g id="patch_161">
    <path d="M 410.896017 297.619179 
L 413.021234 297.619179 
L 413.021234 297.619179 
L 410.896017 297.619179 
z
" clip-path="url(#p707cbb0bef)" style="fill: #1f77b4; opacity: 0.5"/>
   </g>
   <g id="patch_162">
    <path d="M 413.021234 297.619179 
L 415.14645 297.619179 
L 415.14645 297.619179 
L 413.021234 297.619179 
z
" clip-path="url(#p707cbb0bef)" style="fill: #1f77b4; opacity: 0.5"/>
   </g>
   <g id="patch_163">
    <path d="M 415.14645 297.619179 
L 417.271667 297.619179 
L 417.271667 297.619179 
L 415.14645 297.619179 
z
" clip-path="url(#p707cbb0bef)" style="fill: #1f77b4; opacity: 0.5"/>
   </g>
   <g id="patch_164">
    <path d="M 417.271667 297.619179 
L 419.396883 297.619179 
L 419.396883 297.619179 
L 417.271667 297.619179 
z
" clip-path="url(#p707cbb0bef)" style="fill: #1f77b4; opacity: 0.5"/>
   </g>
   <g id="patch_165">
    <path d="M 419.396883 297.619179 
L 421.5221 297.619179 
L 421.5221 297.619179 
L 419.396883 297.619179 
z
" clip-path="url(#p707cbb0bef)" style="fill: #1f77b4; opacity: 0.5"/>
   </g>
   <g id="patch_166">
    <path d="M 421.5221 297.619179 
L 423.647316 297.619179 
L 423.647316 297.619179 
L 421.5221 297.619179 
z
" clip-path="url(#p707cbb0bef)" style="fill: #1f77b4; opacity: 0.5"/>
   </g>
   <g id="patch_167">
    <path d="M 423.647316 297.619179 
L 425.772532 297.619179 
L 425.772532 297.619179 
L 423.647316 297.619179 
z
" clip-path="url(#p707cbb0bef)" style="fill: #1f77b4; opacity: 0.5"/>
   </g>
   <g id="patch_168">
    <path d="M 425.772532 297.619179 
L 427.897749 297.619179 
L 427.897749 297.619179 
L 425.772532 297.619179 
z
" clip-path="url(#p707cbb0bef)" style="fill: #1f77b4; opacity: 0.5"/>
   </g>
   <g id="patch_169">
    <path d="M 427.897749 297.619179 
L 430.022965 297.619179 
L 430.022965 297.619179 
L 427.897749 297.619179 
z
" clip-path="url(#p707cbb0bef)" style="fill: #1f77b4; opacity: 0.5"/>
   </g>
   <g id="patch_170">
    <path d="M 430.022965 297.619179 
L 432.148182 297.619179 
L 432.148182 297.489523 
L 430.022965 297.489523 
z
" clip-path="url(#p707cbb0bef)" style="fill: #1f77b4; opacity: 0.5"/>
   </g>
   <g id="matplotlib.axis_1">
    <g id="xtick_1">
     <g id="line2d_1">
      <defs>
       <path id="m457be13872" d="M 0 0 
L 0 3.5 
" style="stroke: #000000; stroke-width: 0.8"/>
      </defs>
      <g>
       <use xlink:href="#m457be13872" x="74.899252" y="297.619179" style="stroke: #000000; stroke-width: 0.8"/>
      </g>
     </g>
     <g id="text_1">
      <!-- 0 -->
      <g transform="translate(74.600941 314.491052) rotate(-45) scale(0.1 -0.1)">
       <defs>
        <path id="DejaVuSans-30" d="M 2034 4250 
Q 1547 4250 1301 3770 
Q 1056 3291 1056 2328 
Q 1056 1369 1301 889 
Q 1547 409 2034 409 
Q 2525 409 2770 889 
Q 3016 1369 3016 2328 
Q 3016 3291 2770 3770 
Q 2525 4250 2034 4250 
z
M 2034 4750 
Q 2819 4750 3233 4129 
Q 3647 3509 3647 2328 
Q 3647 1150 3233 529 
Q 2819 -91 2034 -91 
Q 1250 -91 836 529 
Q 422 1150 422 2328 
Q 422 3509 836 4129 
Q 1250 4750 2034 4750 
z
" transform="scale(0.015625)"/>
       </defs>
       <use xlink:href="#DejaVuSans-30"/>
      </g>
     </g>
    </g>
    <g id="xtick_2">
     <g id="line2d_2">
      <g>
       <use xlink:href="#m457be13872" x="145.54493" y="297.619179" style="stroke: #000000; stroke-width: 0.8"/>
      </g>
     </g>
     <g id="text_2">
      <!-- 5 -->
      <g transform="translate(145.246619 314.491052) rotate(-45) scale(0.1 -0.1)">
       <defs>
        <path id="DejaVuSans-35" d="M 691 4666 
L 3169 4666 
L 3169 4134 
L 1269 4134 
L 1269 2991 
Q 1406 3038 1543 3061 
Q 1681 3084 1819 3084 
Q 2600 3084 3056 2656 
Q 3513 2228 3513 1497 
Q 3513 744 3044 326 
Q 2575 -91 1722 -91 
Q 1428 -91 1123 -41 
Q 819 9 494 109 
L 494 744 
Q 775 591 1075 516 
Q 1375 441 1709 441 
Q 2250 441 2565 725 
Q 2881 1009 2881 1497 
Q 2881 1984 2565 2268 
Q 2250 2553 1709 2553 
Q 1456 2553 1204 2497 
Q 953 2441 691 2322 
L 691 4666 
z
" transform="scale(0.015625)"/>
       </defs>
       <use xlink:href="#DejaVuSans-35"/>
      </g>
     </g>
    </g>
    <g id="xtick_3">
     <g id="line2d_3">
      <g>
       <use xlink:href="#m457be13872" x="216.190608" y="297.619179" style="stroke: #000000; stroke-width: 0.8"/>
      </g>
     </g>
     <g id="text_3">
      <!-- 10 -->
      <g transform="translate(213.642814 318.990019) rotate(-45) scale(0.1 -0.1)">
       <defs>
        <path id="DejaVuSans-31" d="M 794 531 
L 1825 531 
L 1825 4091 
L 703 3866 
L 703 4441 
L 1819 4666 
L 2450 4666 
L 2450 531 
L 3481 531 
L 3481 0 
L 794 0 
L 794 531 
z
" transform="scale(0.015625)"/>
       </defs>
       <use xlink:href="#DejaVuSans-31"/>
       <use xlink:href="#DejaVuSans-30" x="63.623047"/>
      </g>
     </g>
    </g>
    <g id="xtick_4">
     <g id="line2d_4">
      <g>
       <use xlink:href="#m457be13872" x="286.836285" y="297.619179" style="stroke: #000000; stroke-width: 0.8"/>
      </g>
     </g>
     <g id="text_4">
      <!-- 15 -->
      <g transform="translate(284.288491 318.990019) rotate(-45) scale(0.1 -0.1)">
       <use xlink:href="#DejaVuSans-31"/>
       <use xlink:href="#DejaVuSans-35" x="63.623047"/>
      </g>
     </g>
    </g>
    <g id="xtick_5">
     <g id="line2d_5">
      <g>
       <use xlink:href="#m457be13872" x="357.481963" y="297.619179" style="stroke: #000000; stroke-width: 0.8"/>
      </g>
     </g>
     <g id="text_5">
      <!-- 20 -->
      <g transform="translate(354.934169 318.990019) rotate(-45) scale(0.1 -0.1)">
       <defs>
        <path id="DejaVuSans-32" d="M 1228 531 
L 3431 531 
L 3431 0 
L 469 0 
L 469 531 
Q 828 903 1448 1529 
Q 2069 2156 2228 2338 
Q 2531 2678 2651 2914 
Q 2772 3150 2772 3378 
Q 2772 3750 2511 3984 
Q 2250 4219 1831 4219 
Q 1534 4219 1204 4116 
Q 875 4013 500 3803 
L 500 4441 
Q 881 4594 1212 4672 
Q 1544 4750 1819 4750 
Q 2544 4750 2975 4387 
Q 3406 4025 3406 3419 
Q 3406 3131 3298 2873 
Q 3191 2616 2906 2266 
Q 2828 2175 2409 1742 
Q 1991 1309 1228 531 
z
" transform="scale(0.015625)"/>
       </defs>
       <use xlink:href="#DejaVuSans-32"/>
       <use xlink:href="#DejaVuSans-30" x="63.623047"/>
      </g>
     </g>
    </g>
    <g id="xtick_6">
     <g id="line2d_6">
      <g>
       <use xlink:href="#m457be13872" x="428.127641" y="297.619179" style="stroke: #000000; stroke-width: 0.8"/>
      </g>
     </g>
     <g id="text_6">
      <!-- 25 -->
      <g transform="translate(425.579847 318.990019) rotate(-45) scale(0.1 -0.1)">
       <use xlink:href="#DejaVuSans-32"/>
       <use xlink:href="#DejaVuSans-35" x="63.623047"/>
      </g>
     </g>
    </g>
    <g id="text_7">
     <!-- Werte -->
     <g transform="translate(238.81125 332.059018) scale(0.1 -0.1)">
      <defs>
       <path id="DejaVuSans-57" d="M 213 4666 
L 850 4666 
L 1831 722 
L 2809 4666 
L 3519 4666 
L 4500 722 
L 5478 4666 
L 6119 4666 
L 4947 0 
L 4153 0 
L 3169 4050 
L 2175 0 
L 1381 0 
L 213 4666 
z
" transform="scale(0.015625)"/>
       <path id="DejaVuSans-65" d="M 3597 1894 
L 3597 1613 
L 953 1613 
Q 991 1019 1311 708 
Q 1631 397 2203 397 
Q 2534 397 2845 478 
Q 3156 559 3463 722 
L 3463 178 
Q 3153 47 2828 -22 
Q 2503 -91 2169 -91 
Q 1331 -91 842 396 
Q 353 884 353 1716 
Q 353 2575 817 3079 
Q 1281 3584 2069 3584 
Q 2775 3584 3186 3129 
Q 3597 2675 3597 1894 
z
M 3022 2063 
Q 3016 2534 2758 2815 
Q 2500 3097 2075 3097 
Q 1594 3097 1305 2825 
Q 1016 2553 972 2059 
L 3022 2063 
z
" transform="scale(0.015625)"/>
       <path id="DejaVuSans-72" d="M 2631 2963 
Q 2534 3019 2420 3045 
Q 2306 3072 2169 3072 
Q 1681 3072 1420 2755 
Q 1159 2438 1159 1844 
L 1159 0 
L 581 0 
L 581 3500 
L 1159 3500 
L 1159 2956 
Q 1341 3275 1631 3429 
Q 1922 3584 2338 3584 
Q 2397 3584 2469 3576 
Q 2541 3569 2628 3553 
L 2631 2963 
z
" transform="scale(0.015625)"/>
       <path id="DejaVuSans-74" d="M 1172 4494 
L 1172 3500 
L 2356 3500 
L 2356 3053 
L 1172 3053 
L 1172 1153 
Q 1172 725 1289 603 
Q 1406 481 1766 481 
L 2356 481 
L 2356 0 
L 1766 0 
Q 1100 0 847 248 
Q 594 497 594 1153 
L 594 3053 
L 172 3053 
L 172 3500 
L 594 3500 
L 594 4494 
L 1172 4494 
z
" transform="scale(0.015625)"/>
      </defs>
      <use xlink:href="#DejaVuSans-57"/>
      <use xlink:href="#DejaVuSans-65" x="93.001953"/>
      <use xlink:href="#DejaVuSans-72" x="154.525391"/>
      <use xlink:href="#DejaVuSans-74" x="195.638672"/>
      <use xlink:href="#DejaVuSans-65" x="234.847656"/>
     </g>
    </g>
   </g>
   <g id="matplotlib.axis_2">
    <g id="ytick_1">
     <g id="line2d_7">
      <defs>
       <path id="m4f485960e4" d="M 0 0 
L -3.5 0 
" style="stroke: #000000; stroke-width: 0.8"/>
      </defs>
      <g>
       <use xlink:href="#m4f485960e4" x="57.26" y="297.619179" style="stroke: #000000; stroke-width: 0.8"/>
      </g>
     </g>
     <g id="text_8">
      <!-- 0 -->
      <g transform="translate(43.8975 301.418397) scale(0.1 -0.1)">
       <use xlink:href="#DejaVuSans-30"/>
      </g>
     </g>
    </g>
    <g id="ytick_2">
     <g id="line2d_8">
      <g>
       <use xlink:href="#m4f485960e4" x="57.26" y="265.205368" style="stroke: #000000; stroke-width: 0.8"/>
      </g>
     </g>
     <g id="text_9">
      <!-- 250 -->
      <g transform="translate(31.1725 269.004587) scale(0.1 -0.1)">
       <use xlink:href="#DejaVuSans-32"/>
       <use xlink:href="#DejaVuSans-35" x="63.623047"/>
       <use xlink:href="#DejaVuSans-30" x="127.246094"/>
      </g>
     </g>
    </g>
    <g id="ytick_3">
     <g id="line2d_9">
      <g>
       <use xlink:href="#m4f485960e4" x="57.26" y="232.791558" style="stroke: #000000; stroke-width: 0.8"/>
      </g>
     </g>
     <g id="text_10">
      <!-- 500 -->
      <g transform="translate(31.1725 236.590777) scale(0.1 -0.1)">
       <use xlink:href="#DejaVuSans-35"/>
       <use xlink:href="#DejaVuSans-30" x="63.623047"/>
       <use xlink:href="#DejaVuSans-30" x="127.246094"/>
      </g>
     </g>
    </g>
    <g id="ytick_4">
     <g id="line2d_10">
      <g>
       <use xlink:href="#m4f485960e4" x="57.26" y="200.377748" style="stroke: #000000; stroke-width: 0.8"/>
      </g>
     </g>
     <g id="text_11">
      <!-- 750 -->
      <g transform="translate(31.1725 204.176966) scale(0.1 -0.1)">
       <defs>
        <path id="DejaVuSans-37" d="M 525 4666 
L 3525 4666 
L 3525 4397 
L 1831 0 
L 1172 0 
L 2766 4134 
L 525 4134 
L 525 4666 
z
" transform="scale(0.015625)"/>
       </defs>
       <use xlink:href="#DejaVuSans-37"/>
       <use xlink:href="#DejaVuSans-35" x="63.623047"/>
       <use xlink:href="#DejaVuSans-30" x="127.246094"/>
      </g>
     </g>
    </g>
    <g id="ytick_5">
     <g id="line2d_11">
      <g>
       <use xlink:href="#m4f485960e4" x="57.26" y="167.963937" style="stroke: #000000; stroke-width: 0.8"/>
      </g>
     </g>
     <g id="text_12">
      <!-- 1000 -->
      <g transform="translate(24.81 171.763156) scale(0.1 -0.1)">
       <use xlink:href="#DejaVuSans-31"/>
       <use xlink:href="#DejaVuSans-30" x="63.623047"/>
       <use xlink:href="#DejaVuSans-30" x="127.246094"/>
       <use xlink:href="#DejaVuSans-30" x="190.869141"/>
      </g>
     </g>
    </g>
    <g id="ytick_6">
     <g id="line2d_12">
      <g>
       <use xlink:href="#m4f485960e4" x="57.26" y="135.550127" style="stroke: #000000; stroke-width: 0.8"/>
      </g>
     </g>
     <g id="text_13">
      <!-- 1250 -->
      <g transform="translate(24.81 139.349346) scale(0.1 -0.1)">
       <use xlink:href="#DejaVuSans-31"/>
       <use xlink:href="#DejaVuSans-32" x="63.623047"/>
       <use xlink:href="#DejaVuSans-35" x="127.246094"/>
       <use xlink:href="#DejaVuSans-30" x="190.869141"/>
      </g>
     </g>
    </g>
    <g id="ytick_7">
     <g id="line2d_13">
      <g>
       <use xlink:href="#m4f485960e4" x="57.26" y="103.136317" style="stroke: #000000; stroke-width: 0.8"/>
      </g>
     </g>
     <g id="text_14">
      <!-- 1500 -->
      <g transform="translate(24.81 106.935535) scale(0.1 -0.1)">
       <use xlink:href="#DejaVuSans-31"/>
       <use xlink:href="#DejaVuSans-35" x="63.623047"/>
       <use xlink:href="#DejaVuSans-30" x="127.246094"/>
       <use xlink:href="#DejaVuSans-30" x="190.869141"/>
      </g>
     </g>
    </g>
    <g id="ytick_8">
     <g id="line2d_14">
      <g>
       <use xlink:href="#m4f485960e4" x="57.26" y="70.722506" style="stroke: #000000; stroke-width: 0.8"/>
      </g>
     </g>
     <g id="text_15">
      <!-- 1750 -->
      <g transform="translate(24.81 74.521725) scale(0.1 -0.1)">
       <use xlink:href="#DejaVuSans-31"/>
       <use xlink:href="#DejaVuSans-37" x="63.623047"/>
       <use xlink:href="#DejaVuSans-35" x="127.246094"/>
       <use xlink:href="#DejaVuSans-30" x="190.869141"/>
      </g>
     </g>
    </g>
    <g id="ytick_9">
     <g id="line2d_15">
      <g>
       <use xlink:href="#m4f485960e4" x="57.26" y="38.308696" style="stroke: #000000; stroke-width: 0.8"/>
      </g>
     </g>
     <g id="text_16">
      <!-- 2000 -->
      <g transform="translate(24.81 42.107915) scale(0.1 -0.1)">
       <use xlink:href="#DejaVuSans-32"/>
       <use xlink:href="#DejaVuSans-30" x="63.623047"/>
       <use xlink:href="#DejaVuSans-30" x="127.246094"/>
       <use xlink:href="#DejaVuSans-30" x="190.869141"/>
      </g>
     </g>
    </g>
    <g id="text_17">
     <!-- Häufigkeit -->
     <g transform="translate(18.730313 187.345839) rotate(-90) scale(0.1 -0.1)">
      <defs>
       <path id="DejaVuSans-48" d="M 628 4666 
L 1259 4666 
L 1259 2753 
L 3553 2753 
L 3553 4666 
L 4184 4666 
L 4184 0 
L 3553 0 
L 3553 2222 
L 1259 2222 
L 1259 0 
L 628 0 
L 628 4666 
z
" transform="scale(0.015625)"/>
       <path id="DejaVuSans-e4" d="M 2194 1759 
Q 1497 1759 1228 1600 
Q 959 1441 959 1056 
Q 959 750 1161 570 
Q 1363 391 1709 391 
Q 2188 391 2477 730 
Q 2766 1069 2766 1631 
L 2766 1759 
L 2194 1759 
z
M 3341 1997 
L 3341 0 
L 2766 0 
L 2766 531 
Q 2569 213 2275 61 
Q 1981 -91 1556 -91 
Q 1019 -91 701 211 
Q 384 513 384 1019 
Q 384 1609 779 1909 
Q 1175 2209 1959 2209 
L 2766 2209 
L 2766 2266 
Q 2766 2663 2505 2880 
Q 2244 3097 1772 3097 
Q 1472 3097 1187 3025 
Q 903 2953 641 2809 
L 641 3341 
Q 956 3463 1253 3523 
Q 1550 3584 1831 3584 
Q 2591 3584 2966 3190 
Q 3341 2797 3341 1997 
z
M 2150 4850 
L 2784 4850 
L 2784 4219 
L 2150 4219 
L 2150 4850 
z
M 928 4850 
L 1563 4850 
L 1563 4219 
L 928 4219 
L 928 4850 
z
" transform="scale(0.015625)"/>
       <path id="DejaVuSans-75" d="M 544 1381 
L 544 3500 
L 1119 3500 
L 1119 1403 
Q 1119 906 1312 657 
Q 1506 409 1894 409 
Q 2359 409 2629 706 
Q 2900 1003 2900 1516 
L 2900 3500 
L 3475 3500 
L 3475 0 
L 2900 0 
L 2900 538 
Q 2691 219 2414 64 
Q 2138 -91 1772 -91 
Q 1169 -91 856 284 
Q 544 659 544 1381 
z
M 1991 3584 
L 1991 3584 
z
" transform="scale(0.015625)"/>
       <path id="DejaVuSans-66" d="M 2375 4863 
L 2375 4384 
L 1825 4384 
Q 1516 4384 1395 4259 
Q 1275 4134 1275 3809 
L 1275 3500 
L 2222 3500 
L 2222 3053 
L 1275 3053 
L 1275 0 
L 697 0 
L 697 3053 
L 147 3053 
L 147 3500 
L 697 3500 
L 697 3744 
Q 697 4328 969 4595 
Q 1241 4863 1831 4863 
L 2375 4863 
z
" transform="scale(0.015625)"/>
       <path id="DejaVuSans-69" d="M 603 3500 
L 1178 3500 
L 1178 0 
L 603 0 
L 603 3500 
z
M 603 4863 
L 1178 4863 
L 1178 4134 
L 603 4134 
L 603 4863 
z
" transform="scale(0.015625)"/>
       <path id="DejaVuSans-67" d="M 2906 1791 
Q 2906 2416 2648 2759 
Q 2391 3103 1925 3103 
Q 1463 3103 1205 2759 
Q 947 2416 947 1791 
Q 947 1169 1205 825 
Q 1463 481 1925 481 
Q 2391 481 2648 825 
Q 2906 1169 2906 1791 
z
M 3481 434 
Q 3481 -459 3084 -895 
Q 2688 -1331 1869 -1331 
Q 1566 -1331 1297 -1286 
Q 1028 -1241 775 -1147 
L 775 -588 
Q 1028 -725 1275 -790 
Q 1522 -856 1778 -856 
Q 2344 -856 2625 -561 
Q 2906 -266 2906 331 
L 2906 616 
Q 2728 306 2450 153 
Q 2172 0 1784 0 
Q 1141 0 747 490 
Q 353 981 353 1791 
Q 353 2603 747 3093 
Q 1141 3584 1784 3584 
Q 2172 3584 2450 3431 
Q 2728 3278 2906 2969 
L 2906 3500 
L 3481 3500 
L 3481 434 
z
" transform="scale(0.015625)"/>
       <path id="DejaVuSans-6b" d="M 581 4863 
L 1159 4863 
L 1159 1991 
L 2875 3500 
L 3609 3500 
L 1753 1863 
L 3688 0 
L 2938 0 
L 1159 1709 
L 1159 0 
L 581 0 
L 581 4863 
z
" transform="scale(0.015625)"/>
      </defs>
      <use xlink:href="#DejaVuSans-48"/>
      <use xlink:href="#DejaVuSans-e4" x="75.195312"/>
      <use xlink:href="#DejaVuSans-75" x="136.474609"/>
      <use xlink:href="#DejaVuSans-66" x="199.853516"/>
      <use xlink:href="#DejaVuSans-69" x="235.058594"/>
      <use xlink:href="#DejaVuSans-67" x="262.841797"/>
      <use xlink:href="#DejaVuSans-6b" x="326.318359"/>
      <use xlink:href="#DejaVuSans-65" x="380.603516"/>
      <use xlink:href="#DejaVuSans-69" x="442.126953"/>
      <use xlink:href="#DejaVuSans-74" x="469.910156"/>
     </g>
    </g>
   </g>
   <g id="patch_171">
    <path d="M 57.26 297.619179 
L 57.26 26.16 
" style="fill: none; stroke: #000000; stroke-width: 0.8; stroke-linejoin: miter; stroke-linecap: square"/>
   </g>
   <g id="patch_172">
    <path d="M 450 297.619179 
L 450 26.16 
" style="fill: none; stroke: #000000; stroke-width: 0.8; stroke-linejoin: miter; stroke-linecap: square"/>
   </g>
   <g id="patch_173">
    <path d="M 57.26 297.619179 
L 450 297.619179 
" style="fill: none; stroke: #000000; stroke-width: 0.8; stroke-linejoin: miter; stroke-linecap: square"/>
   </g>
   <g id="patch_174">
    <path d="M 57.26 26.16 
L 450 26.16 
" style="fill: none; stroke: #000000; stroke-width: 0.8; stroke-linejoin: miter; stroke-linecap: square"/>
   </g>
   <g id="text_18">
    <!-- dist -->
    <g transform="translate(242.67625 20.16) scale(0.12 -0.12)">
     <defs>
      <path id="DejaVuSans-64" d="M 2906 2969 
L 2906 4863 
L 3481 4863 
L 3481 0 
L 2906 0 
L 2906 525 
Q 2725 213 2448 61 
Q 2172 -91 1784 -91 
Q 1150 -91 751 415 
Q 353 922 353 1747 
Q 353 2572 751 3078 
Q 1150 3584 1784 3584 
Q 2172 3584 2448 3432 
Q 2725 3281 2906 2969 
z
M 947 1747 
Q 947 1113 1208 752 
Q 1469 391 1925 391 
Q 2381 391 2643 752 
Q 2906 1113 2906 1747 
Q 2906 2381 2643 2742 
Q 2381 3103 1925 3103 
Q 1469 3103 1208 2742 
Q 947 2381 947 1747 
z
" transform="scale(0.015625)"/>
      <path id="DejaVuSans-73" d="M 2834 3397 
L 2834 2853 
Q 2591 2978 2328 3040 
Q 2066 3103 1784 3103 
Q 1356 3103 1142 2972 
Q 928 2841 928 2578 
Q 928 2378 1081 2264 
Q 1234 2150 1697 2047 
L 1894 2003 
Q 2506 1872 2764 1633 
Q 3022 1394 3022 966 
Q 3022 478 2636 193 
Q 2250 -91 1575 -91 
Q 1294 -91 989 -36 
Q 684 19 347 128 
L 347 722 
Q 666 556 975 473 
Q 1284 391 1588 391 
Q 1994 391 2212 530 
Q 2431 669 2431 922 
Q 2431 1156 2273 1281 
Q 2116 1406 1581 1522 
L 1381 1569 
Q 847 1681 609 1914 
Q 372 2147 372 2553 
Q 372 3047 722 3315 
Q 1072 3584 1716 3584 
Q 2034 3584 2315 3537 
Q 2597 3491 2834 3397 
z
" transform="scale(0.015625)"/>
     </defs>
     <use xlink:href="#DejaVuSans-64"/>
     <use xlink:href="#DejaVuSans-69" x="63.476562"/>
     <use xlink:href="#DejaVuSans-73" x="91.259766"/>
     <use xlink:href="#DejaVuSans-74" x="143.359375"/>
    </g>
   </g>
  </g>
 </g>
 <defs>
  <clipPath id="p707cbb0bef">
   <rect x="57.26" y="26.16" width="392.74" height="271.459179"/>
  </clipPath>
 </defs>
</svg>
