<?xml version="1.0" encoding="utf-8" standalone="no"?>
<!DOCTYPE svg PUBLIC "-//W3C//DTD SVG 1.1//EN"
  "http://www.w3.org/Graphics/SVG/1.1/DTD/svg11.dtd">
<svg xmlns:xlink="http://www.w3.org/1999/xlink" width="720pt" height="288pt" viewBox="0 0 720 288" xmlns="http://www.w3.org/2000/svg" version="1.1">
 <metadata>
  <rdf:RDF xmlns:dc="http://purl.org/dc/elements/1.1/" xmlns:cc="http://creativecommons.org/ns#" xmlns:rdf="http://www.w3.org/1999/02/22-rdf-syntax-ns#">
   <cc:Work>
    <dc:type rdf:resource="http://purl.org/dc/dcmitype/StillImage"/>
    <dc:date>2024-01-22T22:22:20.221250</dc:date>
    <dc:format>image/svg+xml</dc:format>
    <dc:creator>
     <cc:Agent>
      <dc:title>Matplotlib v3.8.2, https://matplotlib.org/</dc:title>
     </cc:Agent>
    </dc:creator>
   </cc:Work>
  </rdf:RDF>
 </metadata>
 <defs>
  <style type="text/css">*{stroke-linejoin: round; stroke-linecap: butt}</style>
 </defs>
 <g id="figure_1">
  <g id="patch_1">
   <path d="M 0 288 
L 720 288 
L 720 0 
L 0 0 
z
" style="fill: #ffffff"/>
  </g>
  <g id="axes_1">
   <g id="patch_2">
    <path d="M 90 256.32 
L 648 256.32 
L 648 34.56 
L 90 34.56 
z
" style="fill: #ffffff"/>
   </g>
   <g id="matplotlib.axis_1">
    <g id="xtick_1">
     <g id="line2d_1">
      <path d="M 110.620832 256.32 
L 110.620832 34.56 
" clip-path="url(#p87bfa62d13)" style="fill: none; stroke: #cccccc; stroke-linecap: round"/>
     </g>
     <g id="text_1">
      <!-- 0 -->
      <g style="fill: #262626" transform="translate(107.121457 274.178281) scale(0.11 -0.11)">
       <defs>
        <path id="DejaVuSans-30" d="M 2034 4250 
Q 1547 4250 1301 3770 
Q 1056 3291 1056 2328 
Q 1056 1369 1301 889 
Q 1547 409 2034 409 
Q 2525 409 2770 889 
Q 3016 1369 3016 2328 
Q 3016 3291 2770 3770 
Q 2525 4250 2034 4250 
z
M 2034 4750 
Q 2819 4750 3233 4129 
Q 3647 3509 3647 2328 
Q 3647 1150 3233 529 
Q 2819 -91 2034 -91 
Q 1250 -91 836 529 
Q 422 1150 422 2328 
Q 422 3509 836 4129 
Q 1250 4750 2034 4750 
z
" transform="scale(0.015625)"/>
       </defs>
       <use xlink:href="#DejaVuSans-30"/>
      </g>
     </g>
    </g>
    <g id="xtick_2">
     <g id="line2d_2">
      <path d="M 213.023938 256.32 
L 213.023938 34.56 
" clip-path="url(#p87bfa62d13)" style="fill: none; stroke: #cccccc; stroke-linecap: round"/>
     </g>
     <g id="text_2">
      <!-- 20 -->
      <g style="fill: #262626" transform="translate(206.025188 274.178281) scale(0.11 -0.11)">
       <defs>
        <path id="DejaVuSans-32" d="M 1228 531 
L 3431 531 
L 3431 0 
L 469 0 
L 469 531 
Q 828 903 1448 1529 
Q 2069 2156 2228 2338 
Q 2531 2678 2651 2914 
Q 2772 3150 2772 3378 
Q 2772 3750 2511 3984 
Q 2250 4219 1831 4219 
Q 1534 4219 1204 4116 
Q 875 4013 500 3803 
L 500 4441 
Q 881 4594 1212 4672 
Q 1544 4750 1819 4750 
Q 2544 4750 2975 4387 
Q 3406 4025 3406 3419 
Q 3406 3131 3298 2873 
Q 3191 2616 2906 2266 
Q 2828 2175 2409 1742 
Q 1991 1309 1228 531 
z
" transform="scale(0.015625)"/>
       </defs>
       <use xlink:href="#DejaVuSans-32"/>
       <use xlink:href="#DejaVuSans-30" x="63.623047"/>
      </g>
     </g>
    </g>
    <g id="xtick_3">
     <g id="line2d_3">
      <path d="M 315.427045 256.32 
L 315.427045 34.56 
" clip-path="url(#p87bfa62d13)" style="fill: none; stroke: #cccccc; stroke-linecap: round"/>
     </g>
     <g id="text_3">
      <!-- 40 -->
      <g style="fill: #262626" transform="translate(308.428295 274.178281) scale(0.11 -0.11)">
       <defs>
        <path id="DejaVuSans-34" d="M 2419 4116 
L 825 1625 
L 2419 1625 
L 2419 4116 
z
M 2253 4666 
L 3047 4666 
L 3047 1625 
L 3713 1625 
L 3713 1100 
L 3047 1100 
L 3047 0 
L 2419 0 
L 2419 1100 
L 313 1100 
L 313 1709 
L 2253 4666 
z
" transform="scale(0.015625)"/>
       </defs>
       <use xlink:href="#DejaVuSans-34"/>
       <use xlink:href="#DejaVuSans-30" x="63.623047"/>
      </g>
     </g>
    </g>
    <g id="xtick_4">
     <g id="line2d_4">
      <path d="M 417.830151 256.32 
L 417.830151 34.56 
" clip-path="url(#p87bfa62d13)" style="fill: none; stroke: #cccccc; stroke-linecap: round"/>
     </g>
     <g id="text_4">
      <!-- 60 -->
      <g style="fill: #262626" transform="translate(410.831401 274.178281) scale(0.11 -0.11)">
       <defs>
        <path id="DejaVuSans-36" d="M 2113 2584 
Q 1688 2584 1439 2293 
Q 1191 2003 1191 1497 
Q 1191 994 1439 701 
Q 1688 409 2113 409 
Q 2538 409 2786 701 
Q 3034 994 3034 1497 
Q 3034 2003 2786 2293 
Q 2538 2584 2113 2584 
z
M 3366 4563 
L 3366 3988 
Q 3128 4100 2886 4159 
Q 2644 4219 2406 4219 
Q 1781 4219 1451 3797 
Q 1122 3375 1075 2522 
Q 1259 2794 1537 2939 
Q 1816 3084 2150 3084 
Q 2853 3084 3261 2657 
Q 3669 2231 3669 1497 
Q 3669 778 3244 343 
Q 2819 -91 2113 -91 
Q 1303 -91 875 529 
Q 447 1150 447 2328 
Q 447 3434 972 4092 
Q 1497 4750 2381 4750 
Q 2619 4750 2861 4703 
Q 3103 4656 3366 4563 
z
" transform="scale(0.015625)"/>
       </defs>
       <use xlink:href="#DejaVuSans-36"/>
       <use xlink:href="#DejaVuSans-30" x="63.623047"/>
      </g>
     </g>
    </g>
    <g id="xtick_5">
     <g id="line2d_5">
      <path d="M 520.233257 256.32 
L 520.233257 34.56 
" clip-path="url(#p87bfa62d13)" style="fill: none; stroke: #cccccc; stroke-linecap: round"/>
     </g>
     <g id="text_5">
      <!-- 80 -->
      <g style="fill: #262626" transform="translate(513.234507 274.178281) scale(0.11 -0.11)">
       <defs>
        <path id="DejaVuSans-38" d="M 2034 2216 
Q 1584 2216 1326 1975 
Q 1069 1734 1069 1313 
Q 1069 891 1326 650 
Q 1584 409 2034 409 
Q 2484 409 2743 651 
Q 3003 894 3003 1313 
Q 3003 1734 2745 1975 
Q 2488 2216 2034 2216 
z
M 1403 2484 
Q 997 2584 770 2862 
Q 544 3141 544 3541 
Q 544 4100 942 4425 
Q 1341 4750 2034 4750 
Q 2731 4750 3128 4425 
Q 3525 4100 3525 3541 
Q 3525 3141 3298 2862 
Q 3072 2584 2669 2484 
Q 3125 2378 3379 2068 
Q 3634 1759 3634 1313 
Q 3634 634 3220 271 
Q 2806 -91 2034 -91 
Q 1263 -91 848 271 
Q 434 634 434 1313 
Q 434 1759 690 2068 
Q 947 2378 1403 2484 
z
M 1172 3481 
Q 1172 3119 1398 2916 
Q 1625 2713 2034 2713 
Q 2441 2713 2670 2916 
Q 2900 3119 2900 3481 
Q 2900 3844 2670 4047 
Q 2441 4250 2034 4250 
Q 1625 4250 1398 4047 
Q 1172 3844 1172 3481 
z
" transform="scale(0.015625)"/>
       </defs>
       <use xlink:href="#DejaVuSans-38"/>
       <use xlink:href="#DejaVuSans-30" x="63.623047"/>
      </g>
     </g>
    </g>
    <g id="xtick_6">
     <g id="line2d_6">
      <path d="M 622.636364 256.32 
L 622.636364 34.56 
" clip-path="url(#p87bfa62d13)" style="fill: none; stroke: #cccccc; stroke-linecap: round"/>
     </g>
     <g id="text_6">
      <!-- 100 -->
      <g style="fill: #262626" transform="translate(612.138239 274.178281) scale(0.11 -0.11)">
       <defs>
        <path id="DejaVuSans-31" d="M 794 531 
L 1825 531 
L 1825 4091 
L 703 3866 
L 703 4441 
L 1819 4666 
L 2450 4666 
L 2450 531 
L 3481 531 
L 3481 0 
L 794 0 
L 794 531 
z
" transform="scale(0.015625)"/>
       </defs>
       <use xlink:href="#DejaVuSans-31"/>
       <use xlink:href="#DejaVuSans-30" x="63.623047"/>
       <use xlink:href="#DejaVuSans-30" x="127.246094"/>
      </g>
     </g>
    </g>
    <g id="text_7">
     <!-- attr_index_norm -->
     <g style="fill: #262626" transform="translate(320.055938 289.584063) scale(0.12 -0.12)">
      <defs>
       <path id="DejaVuSans-61" d="M 2194 1759 
Q 1497 1759 1228 1600 
Q 959 1441 959 1056 
Q 959 750 1161 570 
Q 1363 391 1709 391 
Q 2188 391 2477 730 
Q 2766 1069 2766 1631 
L 2766 1759 
L 2194 1759 
z
M 3341 1997 
L 3341 0 
L 2766 0 
L 2766 531 
Q 2569 213 2275 61 
Q 1981 -91 1556 -91 
Q 1019 -91 701 211 
Q 384 513 384 1019 
Q 384 1609 779 1909 
Q 1175 2209 1959 2209 
L 2766 2209 
L 2766 2266 
Q 2766 2663 2505 2880 
Q 2244 3097 1772 3097 
Q 1472 3097 1187 3025 
Q 903 2953 641 2809 
L 641 3341 
Q 956 3463 1253 3523 
Q 1550 3584 1831 3584 
Q 2591 3584 2966 3190 
Q 3341 2797 3341 1997 
z
" transform="scale(0.015625)"/>
       <path id="DejaVuSans-74" d="M 1172 4494 
L 1172 3500 
L 2356 3500 
L 2356 3053 
L 1172 3053 
L 1172 1153 
Q 1172 725 1289 603 
Q 1406 481 1766 481 
L 2356 481 
L 2356 0 
L 1766 0 
Q 1100 0 847 248 
Q 594 497 594 1153 
L 594 3053 
L 172 3053 
L 172 3500 
L 594 3500 
L 594 4494 
L 1172 4494 
z
" transform="scale(0.015625)"/>
       <path id="DejaVuSans-72" d="M 2631 2963 
Q 2534 3019 2420 3045 
Q 2306 3072 2169 3072 
Q 1681 3072 1420 2755 
Q 1159 2438 1159 1844 
L 1159 0 
L 581 0 
L 581 3500 
L 1159 3500 
L 1159 2956 
Q 1341 3275 1631 3429 
Q 1922 3584 2338 3584 
Q 2397 3584 2469 3576 
Q 2541 3569 2628 3553 
L 2631 2963 
z
" transform="scale(0.015625)"/>
       <path id="DejaVuSans-5f" d="M 3263 -1063 
L 3263 -1509 
L -63 -1509 
L -63 -1063 
L 3263 -1063 
z
" transform="scale(0.015625)"/>
       <path id="DejaVuSans-69" d="M 603 3500 
L 1178 3500 
L 1178 0 
L 603 0 
L 603 3500 
z
M 603 4863 
L 1178 4863 
L 1178 4134 
L 603 4134 
L 603 4863 
z
" transform="scale(0.015625)"/>
       <path id="DejaVuSans-6e" d="M 3513 2113 
L 3513 0 
L 2938 0 
L 2938 2094 
Q 2938 2591 2744 2837 
Q 2550 3084 2163 3084 
Q 1697 3084 1428 2787 
Q 1159 2491 1159 1978 
L 1159 0 
L 581 0 
L 581 3500 
L 1159 3500 
L 1159 2956 
Q 1366 3272 1645 3428 
Q 1925 3584 2291 3584 
Q 2894 3584 3203 3211 
Q 3513 2838 3513 2113 
z
" transform="scale(0.015625)"/>
       <path id="DejaVuSans-64" d="M 2906 2969 
L 2906 4863 
L 3481 4863 
L 3481 0 
L 2906 0 
L 2906 525 
Q 2725 213 2448 61 
Q 2172 -91 1784 -91 
Q 1150 -91 751 415 
Q 353 922 353 1747 
Q 353 2572 751 3078 
Q 1150 3584 1784 3584 
Q 2172 3584 2448 3432 
Q 2725 3281 2906 2969 
z
M 947 1747 
Q 947 1113 1208 752 
Q 1469 391 1925 391 
Q 2381 391 2643 752 
Q 2906 1113 2906 1747 
Q 2906 2381 2643 2742 
Q 2381 3103 1925 3103 
Q 1469 3103 1208 2742 
Q 947 2381 947 1747 
z
" transform="scale(0.015625)"/>
       <path id="DejaVuSans-65" d="M 3597 1894 
L 3597 1613 
L 953 1613 
Q 991 1019 1311 708 
Q 1631 397 2203 397 
Q 2534 397 2845 478 
Q 3156 559 3463 722 
L 3463 178 
Q 3153 47 2828 -22 
Q 2503 -91 2169 -91 
Q 1331 -91 842 396 
Q 353 884 353 1716 
Q 353 2575 817 3079 
Q 1281 3584 2069 3584 
Q 2775 3584 3186 3129 
Q 3597 2675 3597 1894 
z
M 3022 2063 
Q 3016 2534 2758 2815 
Q 2500 3097 2075 3097 
Q 1594 3097 1305 2825 
Q 1016 2553 972 2059 
L 3022 2063 
z
" transform="scale(0.015625)"/>
       <path id="DejaVuSans-78" d="M 3513 3500 
L 2247 1797 
L 3578 0 
L 2900 0 
L 1881 1375 
L 863 0 
L 184 0 
L 1544 1831 
L 300 3500 
L 978 3500 
L 1906 2253 
L 2834 3500 
L 3513 3500 
z
" transform="scale(0.015625)"/>
       <path id="DejaVuSans-6f" d="M 1959 3097 
Q 1497 3097 1228 2736 
Q 959 2375 959 1747 
Q 959 1119 1226 758 
Q 1494 397 1959 397 
Q 2419 397 2687 759 
Q 2956 1122 2956 1747 
Q 2956 2369 2687 2733 
Q 2419 3097 1959 3097 
z
M 1959 3584 
Q 2709 3584 3137 3096 
Q 3566 2609 3566 1747 
Q 3566 888 3137 398 
Q 2709 -91 1959 -91 
Q 1206 -91 779 398 
Q 353 888 353 1747 
Q 353 2609 779 3096 
Q 1206 3584 1959 3584 
z
" transform="scale(0.015625)"/>
       <path id="DejaVuSans-6d" d="M 3328 2828 
Q 3544 3216 3844 3400 
Q 4144 3584 4550 3584 
Q 5097 3584 5394 3201 
Q 5691 2819 5691 2113 
L 5691 0 
L 5113 0 
L 5113 2094 
Q 5113 2597 4934 2840 
Q 4756 3084 4391 3084 
Q 3944 3084 3684 2787 
Q 3425 2491 3425 1978 
L 3425 0 
L 2847 0 
L 2847 2094 
Q 2847 2600 2669 2842 
Q 2491 3084 2119 3084 
Q 1678 3084 1418 2786 
Q 1159 2488 1159 1978 
L 1159 0 
L 581 0 
L 581 3500 
L 1159 3500 
L 1159 2956 
Q 1356 3278 1631 3431 
Q 1906 3584 2284 3584 
Q 2666 3584 2933 3390 
Q 3200 3197 3328 2828 
z
" transform="scale(0.015625)"/>
      </defs>
      <use xlink:href="#DejaVuSans-61"/>
      <use xlink:href="#DejaVuSans-74" x="61.279297"/>
      <use xlink:href="#DejaVuSans-74" x="100.488281"/>
      <use xlink:href="#DejaVuSans-72" x="139.697266"/>
      <use xlink:href="#DejaVuSans-5f" x="180.810547"/>
      <use xlink:href="#DejaVuSans-69" x="230.810547"/>
      <use xlink:href="#DejaVuSans-6e" x="258.59375"/>
      <use xlink:href="#DejaVuSans-64" x="321.972656"/>
      <use xlink:href="#DejaVuSans-65" x="385.449219"/>
      <use xlink:href="#DejaVuSans-78" x="445.222656"/>
      <use xlink:href="#DejaVuSans-5f" x="504.402344"/>
      <use xlink:href="#DejaVuSans-6e" x="554.402344"/>
      <use xlink:href="#DejaVuSans-6f" x="617.78125"/>
      <use xlink:href="#DejaVuSans-72" x="678.962891"/>
      <use xlink:href="#DejaVuSans-6d" x="718.326172"/>
     </g>
    </g>
   </g>
   <g id="matplotlib.axis_2">
    <g id="ytick_1">
     <g id="line2d_7">
      <path d="M 90 256.32 
L 648 256.32 
" clip-path="url(#p87bfa62d13)" style="fill: none; stroke: #cccccc; stroke-linecap: round"/>
     </g>
     <g id="text_8">
      <!-- 0 -->
      <g style="fill: #262626" transform="translate(73.50125 260.499141) scale(0.11 -0.11)">
       <use xlink:href="#DejaVuSans-30"/>
      </g>
     </g>
    </g>
    <g id="ytick_2">
     <g id="line2d_8">
      <path d="M 90 229.998963 
L 648 229.998963 
" clip-path="url(#p87bfa62d13)" style="fill: none; stroke: #cccccc; stroke-linecap: round"/>
     </g>
     <g id="text_9">
      <!-- 250 -->
      <g style="fill: #262626" transform="translate(59.50375 234.178104) scale(0.11 -0.11)">
       <defs>
        <path id="DejaVuSans-35" d="M 691 4666 
L 3169 4666 
L 3169 4134 
L 1269 4134 
L 1269 2991 
Q 1406 3038 1543 3061 
Q 1681 3084 1819 3084 
Q 2600 3084 3056 2656 
Q 3513 2228 3513 1497 
Q 3513 744 3044 326 
Q 2575 -91 1722 -91 
Q 1428 -91 1123 -41 
Q 819 9 494 109 
L 494 744 
Q 775 591 1075 516 
Q 1375 441 1709 441 
Q 2250 441 2565 725 
Q 2881 1009 2881 1497 
Q 2881 1984 2565 2268 
Q 2250 2553 1709 2553 
Q 1456 2553 1204 2497 
Q 953 2441 691 2322 
L 691 4666 
z
" transform="scale(0.015625)"/>
       </defs>
       <use xlink:href="#DejaVuSans-32"/>
       <use xlink:href="#DejaVuSans-35" x="63.623047"/>
       <use xlink:href="#DejaVuSans-30" x="127.246094"/>
      </g>
     </g>
    </g>
    <g id="ytick_3">
     <g id="line2d_9">
      <path d="M 90 203.677926 
L 648 203.677926 
" clip-path="url(#p87bfa62d13)" style="fill: none; stroke: #cccccc; stroke-linecap: round"/>
     </g>
     <g id="text_10">
      <!-- 500 -->
      <g style="fill: #262626" transform="translate(59.50375 207.857067) scale(0.11 -0.11)">
       <use xlink:href="#DejaVuSans-35"/>
       <use xlink:href="#DejaVuSans-30" x="63.623047"/>
       <use xlink:href="#DejaVuSans-30" x="127.246094"/>
      </g>
     </g>
    </g>
    <g id="ytick_4">
     <g id="line2d_10">
      <path d="M 90 177.356889 
L 648 177.356889 
" clip-path="url(#p87bfa62d13)" style="fill: none; stroke: #cccccc; stroke-linecap: round"/>
     </g>
     <g id="text_11">
      <!-- 750 -->
      <g style="fill: #262626" transform="translate(59.50375 181.53603) scale(0.11 -0.11)">
       <defs>
        <path id="DejaVuSans-37" d="M 525 4666 
L 3525 4666 
L 3525 4397 
L 1831 0 
L 1172 0 
L 2766 4134 
L 525 4134 
L 525 4666 
z
" transform="scale(0.015625)"/>
       </defs>
       <use xlink:href="#DejaVuSans-37"/>
       <use xlink:href="#DejaVuSans-35" x="63.623047"/>
       <use xlink:href="#DejaVuSans-30" x="127.246094"/>
      </g>
     </g>
    </g>
    <g id="ytick_5">
     <g id="line2d_11">
      <path d="M 90 151.035852 
L 648 151.035852 
" clip-path="url(#p87bfa62d13)" style="fill: none; stroke: #cccccc; stroke-linecap: round"/>
     </g>
     <g id="text_12">
      <!-- 1000 -->
      <g style="fill: #262626" transform="translate(52.505 155.214993) scale(0.11 -0.11)">
       <use xlink:href="#DejaVuSans-31"/>
       <use xlink:href="#DejaVuSans-30" x="63.623047"/>
       <use xlink:href="#DejaVuSans-30" x="127.246094"/>
       <use xlink:href="#DejaVuSans-30" x="190.869141"/>
      </g>
     </g>
    </g>
    <g id="ytick_6">
     <g id="line2d_12">
      <path d="M 90 124.714816 
L 648 124.714816 
" clip-path="url(#p87bfa62d13)" style="fill: none; stroke: #cccccc; stroke-linecap: round"/>
     </g>
     <g id="text_13">
      <!-- 1250 -->
      <g style="fill: #262626" transform="translate(52.505 128.893956) scale(0.11 -0.11)">
       <use xlink:href="#DejaVuSans-31"/>
       <use xlink:href="#DejaVuSans-32" x="63.623047"/>
       <use xlink:href="#DejaVuSans-35" x="127.246094"/>
       <use xlink:href="#DejaVuSans-30" x="190.869141"/>
      </g>
     </g>
    </g>
    <g id="ytick_7">
     <g id="line2d_13">
      <path d="M 90 98.393779 
L 648 98.393779 
" clip-path="url(#p87bfa62d13)" style="fill: none; stroke: #cccccc; stroke-linecap: round"/>
     </g>
     <g id="text_14">
      <!-- 1500 -->
      <g style="fill: #262626" transform="translate(52.505 102.572919) scale(0.11 -0.11)">
       <use xlink:href="#DejaVuSans-31"/>
       <use xlink:href="#DejaVuSans-35" x="63.623047"/>
       <use xlink:href="#DejaVuSans-30" x="127.246094"/>
       <use xlink:href="#DejaVuSans-30" x="190.869141"/>
      </g>
     </g>
    </g>
    <g id="ytick_8">
     <g id="line2d_14">
      <path d="M 90 72.072742 
L 648 72.072742 
" clip-path="url(#p87bfa62d13)" style="fill: none; stroke: #cccccc; stroke-linecap: round"/>
     </g>
     <g id="text_15">
      <!-- 1750 -->
      <g style="fill: #262626" transform="translate(52.505 76.251882) scale(0.11 -0.11)">
       <use xlink:href="#DejaVuSans-31"/>
       <use xlink:href="#DejaVuSans-37" x="63.623047"/>
       <use xlink:href="#DejaVuSans-35" x="127.246094"/>
       <use xlink:href="#DejaVuSans-30" x="190.869141"/>
      </g>
     </g>
    </g>
    <g id="ytick_9">
     <g id="line2d_15">
      <path d="M 90 45.751705 
L 648 45.751705 
" clip-path="url(#p87bfa62d13)" style="fill: none; stroke: #cccccc; stroke-linecap: round"/>
     </g>
     <g id="text_16">
      <!-- 2000 -->
      <g style="fill: #262626" transform="translate(52.505 49.930846) scale(0.11 -0.11)">
       <use xlink:href="#DejaVuSans-32"/>
       <use xlink:href="#DejaVuSans-30" x="63.623047"/>
       <use xlink:href="#DejaVuSans-30" x="127.246094"/>
       <use xlink:href="#DejaVuSans-30" x="190.869141"/>
      </g>
     </g>
    </g>
    <g id="text_17">
     <!-- Häufigkeit -->
     <g style="fill: #262626" transform="translate(46.009375 175.9875) rotate(-90) scale(0.12 -0.12)">
      <defs>
       <path id="DejaVuSans-48" d="M 628 4666 
L 1259 4666 
L 1259 2753 
L 3553 2753 
L 3553 4666 
L 4184 4666 
L 4184 0 
L 3553 0 
L 3553 2222 
L 1259 2222 
L 1259 0 
L 628 0 
L 628 4666 
z
" transform="scale(0.015625)"/>
       <path id="DejaVuSans-e4" d="M 2194 1759 
Q 1497 1759 1228 1600 
Q 959 1441 959 1056 
Q 959 750 1161 570 
Q 1363 391 1709 391 
Q 2188 391 2477 730 
Q 2766 1069 2766 1631 
L 2766 1759 
L 2194 1759 
z
M 3341 1997 
L 3341 0 
L 2766 0 
L 2766 531 
Q 2569 213 2275 61 
Q 1981 -91 1556 -91 
Q 1019 -91 701 211 
Q 384 513 384 1019 
Q 384 1609 779 1909 
Q 1175 2209 1959 2209 
L 2766 2209 
L 2766 2266 
Q 2766 2663 2505 2880 
Q 2244 3097 1772 3097 
Q 1472 3097 1187 3025 
Q 903 2953 641 2809 
L 641 3341 
Q 956 3463 1253 3523 
Q 1550 3584 1831 3584 
Q 2591 3584 2966 3190 
Q 3341 2797 3341 1997 
z
M 2150 4850 
L 2784 4850 
L 2784 4219 
L 2150 4219 
L 2150 4850 
z
M 928 4850 
L 1562 4850 
L 1562 4219 
L 928 4219 
L 928 4850 
z
" transform="scale(0.015625)"/>
       <path id="DejaVuSans-75" d="M 544 1381 
L 544 3500 
L 1119 3500 
L 1119 1403 
Q 1119 906 1312 657 
Q 1506 409 1894 409 
Q 2359 409 2629 706 
Q 2900 1003 2900 1516 
L 2900 3500 
L 3475 3500 
L 3475 0 
L 2900 0 
L 2900 538 
Q 2691 219 2414 64 
Q 2138 -91 1772 -91 
Q 1169 -91 856 284 
Q 544 659 544 1381 
z
M 1991 3584 
L 1991 3584 
z
" transform="scale(0.015625)"/>
       <path id="DejaVuSans-66" d="M 2375 4863 
L 2375 4384 
L 1825 4384 
Q 1516 4384 1395 4259 
Q 1275 4134 1275 3809 
L 1275 3500 
L 2222 3500 
L 2222 3053 
L 1275 3053 
L 1275 0 
L 697 0 
L 697 3053 
L 147 3053 
L 147 3500 
L 697 3500 
L 697 3744 
Q 697 4328 969 4595 
Q 1241 4863 1831 4863 
L 2375 4863 
z
" transform="scale(0.015625)"/>
       <path id="DejaVuSans-67" d="M 2906 1791 
Q 2906 2416 2648 2759 
Q 2391 3103 1925 3103 
Q 1463 3103 1205 2759 
Q 947 2416 947 1791 
Q 947 1169 1205 825 
Q 1463 481 1925 481 
Q 2391 481 2648 825 
Q 2906 1169 2906 1791 
z
M 3481 434 
Q 3481 -459 3084 -895 
Q 2688 -1331 1869 -1331 
Q 1566 -1331 1297 -1286 
Q 1028 -1241 775 -1147 
L 775 -588 
Q 1028 -725 1275 -790 
Q 1522 -856 1778 -856 
Q 2344 -856 2625 -561 
Q 2906 -266 2906 331 
L 2906 616 
Q 2728 306 2450 153 
Q 2172 0 1784 0 
Q 1141 0 747 490 
Q 353 981 353 1791 
Q 353 2603 747 3093 
Q 1141 3584 1784 3584 
Q 2172 3584 2450 3431 
Q 2728 3278 2906 2969 
L 2906 3500 
L 3481 3500 
L 3481 434 
z
" transform="scale(0.015625)"/>
       <path id="DejaVuSans-6b" d="M 581 4863 
L 1159 4863 
L 1159 1991 
L 2875 3500 
L 3609 3500 
L 1753 1863 
L 3688 0 
L 2938 0 
L 1159 1709 
L 1159 0 
L 581 0 
L 581 4863 
z
" transform="scale(0.015625)"/>
      </defs>
      <use xlink:href="#DejaVuSans-48"/>
      <use xlink:href="#DejaVuSans-e4" x="75.195312"/>
      <use xlink:href="#DejaVuSans-75" x="136.474609"/>
      <use xlink:href="#DejaVuSans-66" x="199.853516"/>
      <use xlink:href="#DejaVuSans-69" x="235.058594"/>
      <use xlink:href="#DejaVuSans-67" x="262.841797"/>
      <use xlink:href="#DejaVuSans-6b" x="326.318359"/>
      <use xlink:href="#DejaVuSans-65" x="380.603516"/>
      <use xlink:href="#DejaVuSans-69" x="442.126953"/>
      <use xlink:href="#DejaVuSans-74" x="469.910156"/>
     </g>
    </g>
   </g>
   <g id="patch_3">
    <path d="M 115.363636 256.32 
L 118.383117 256.32 
L 118.383117 238.842832 
L 115.363636 238.842832 
z
" clip-path="url(#p87bfa62d13)" style="fill: #4c72b0; fill-opacity: 0.5; stroke: #ffffff; stroke-width: 0.301948; stroke-linejoin: miter"/>
   </g>
   <g id="patch_4">
    <path d="M 118.383117 256.32 
L 121.402597 256.32 
L 121.402597 185.042632 
L 118.383117 185.042632 
z
" clip-path="url(#p87bfa62d13)" style="fill: #4c72b0; fill-opacity: 0.5; stroke: #ffffff; stroke-width: 0.301948; stroke-linejoin: miter"/>
   </g>
   <g id="patch_5">
    <path d="M 121.402597 256.32 
L 124.422078 256.32 
L 124.422078 143.244826 
L 121.402597 143.244826 
z
" clip-path="url(#p87bfa62d13)" style="fill: #4c72b0; fill-opacity: 0.5; stroke: #ffffff; stroke-width: 0.301948; stroke-linejoin: miter"/>
   </g>
   <g id="patch_6">
    <path d="M 124.422078 256.32 
L 127.441558 256.32 
L 127.441558 131.031864 
L 124.422078 131.031864 
z
" clip-path="url(#p87bfa62d13)" style="fill: #4c72b0; fill-opacity: 0.5; stroke: #ffffff; stroke-width: 0.301948; stroke-linejoin: miter"/>
   </g>
   <g id="patch_7">
    <path d="M 127.441558 256.32 
L 130.461039 256.32 
L 130.461039 46.593978 
L 127.441558 46.593978 
z
" clip-path="url(#p87bfa62d13)" style="fill: #4c72b0; fill-opacity: 0.5; stroke: #ffffff; stroke-width: 0.301948; stroke-linejoin: miter"/>
   </g>
   <g id="patch_8">
    <path d="M 130.461039 256.32 
L 133.480519 256.32 
L 133.480519 45.12 
L 130.461039 45.12 
z
" clip-path="url(#p87bfa62d13)" style="fill: #4c72b0; fill-opacity: 0.5; stroke: #ffffff; stroke-width: 0.301948; stroke-linejoin: miter"/>
   </g>
   <g id="patch_9">
    <path d="M 133.480519 256.32 
L 136.5 256.32 
L 136.5 49.541934 
L 133.480519 49.541934 
z
" clip-path="url(#p87bfa62d13)" style="fill: #4c72b0; fill-opacity: 0.5; stroke: #ffffff; stroke-width: 0.301948; stroke-linejoin: miter"/>
   </g>
   <g id="patch_10">
    <path d="M 136.5 256.32 
L 139.519481 256.32 
L 139.519481 72.28331 
L 136.5 72.28331 
z
" clip-path="url(#p87bfa62d13)" style="fill: #4c72b0; fill-opacity: 0.5; stroke: #ffffff; stroke-width: 0.301948; stroke-linejoin: miter"/>
   </g>
   <g id="patch_11">
    <path d="M 139.519481 256.32 
L 142.538961 256.32 
L 142.538961 81.969452 
L 139.519481 81.969452 
z
" clip-path="url(#p87bfa62d13)" style="fill: #4c72b0; fill-opacity: 0.5; stroke: #ffffff; stroke-width: 0.301948; stroke-linejoin: miter"/>
   </g>
   <g id="patch_12">
    <path d="M 142.538961 256.32 
L 145.558442 256.32 
L 145.558442 77.021097 
L 142.538961 77.021097 
z
" clip-path="url(#p87bfa62d13)" style="fill: #4c72b0; fill-opacity: 0.5; stroke: #ffffff; stroke-width: 0.301948; stroke-linejoin: miter"/>
   </g>
   <g id="patch_13">
    <path d="M 145.558442 256.32 
L 148.577922 256.32 
L 148.577922 87.233659 
L 145.558442 87.233659 
z
" clip-path="url(#p87bfa62d13)" style="fill: #4c72b0; fill-opacity: 0.5; stroke: #ffffff; stroke-width: 0.301948; stroke-linejoin: miter"/>
   </g>
   <g id="patch_14">
    <path d="M 148.577922 256.32 
L 151.597403 256.32 
L 151.597403 99.130768 
L 148.577922 99.130768 
z
" clip-path="url(#p87bfa62d13)" style="fill: #4c72b0; fill-opacity: 0.5; stroke: #ffffff; stroke-width: 0.301948; stroke-linejoin: miter"/>
   </g>
   <g id="patch_15">
    <path d="M 151.597403 256.32 
L 154.616883 256.32 
L 154.616883 100.71003 
L 151.597403 100.71003 
z
" clip-path="url(#p87bfa62d13)" style="fill: #4c72b0; fill-opacity: 0.5; stroke: #ffffff; stroke-width: 0.301948; stroke-linejoin: miter"/>
   </g>
   <g id="patch_16">
    <path d="M 154.616883 256.32 
L 157.636364 256.32 
L 157.636364 118.503051 
L 154.616883 118.503051 
z
" clip-path="url(#p87bfa62d13)" style="fill: #4c72b0; fill-opacity: 0.5; stroke: #ffffff; stroke-width: 0.301948; stroke-linejoin: miter"/>
   </g>
   <g id="patch_17">
    <path d="M 157.636364 256.32 
L 160.655844 256.32 
L 160.655844 108.185204 
L 157.636364 108.185204 
z
" clip-path="url(#p87bfa62d13)" style="fill: #4c72b0; fill-opacity: 0.5; stroke: #ffffff; stroke-width: 0.301948; stroke-linejoin: miter"/>
   </g>
   <g id="patch_18">
    <path d="M 160.655844 256.32 
L 163.675325 256.32 
L 163.675325 97.025085 
L 160.655844 97.025085 
z
" clip-path="url(#p87bfa62d13)" style="fill: #4c72b0; fill-opacity: 0.5; stroke: #ffffff; stroke-width: 0.301948; stroke-linejoin: miter"/>
   </g>
   <g id="patch_19">
    <path d="M 163.675325 256.32 
L 166.694805 256.32 
L 166.694805 95.024686 
L 163.675325 95.024686 
z
" clip-path="url(#p87bfa62d13)" style="fill: #4c72b0; fill-opacity: 0.5; stroke: #ffffff; stroke-width: 0.301948; stroke-linejoin: miter"/>
   </g>
   <g id="patch_20">
    <path d="M 166.694805 256.32 
L 169.714286 256.32 
L 169.714286 100.815314 
L 166.694805 100.815314 
z
" clip-path="url(#p87bfa62d13)" style="fill: #4c72b0; fill-opacity: 0.5; stroke: #ffffff; stroke-width: 0.301948; stroke-linejoin: miter"/>
   </g>
   <g id="patch_21">
    <path d="M 169.714286 256.32 
L 172.733766 256.32 
L 172.733766 102.078724 
L 169.714286 102.078724 
z
" clip-path="url(#p87bfa62d13)" style="fill: #4c72b0; fill-opacity: 0.5; stroke: #ffffff; stroke-width: 0.301948; stroke-linejoin: miter"/>
   </g>
   <g id="patch_22">
    <path d="M 172.733766 256.32 
L 175.753247 256.32 
L 175.753247 96.498664 
L 172.733766 96.498664 
z
" clip-path="url(#p87bfa62d13)" style="fill: #4c72b0; fill-opacity: 0.5; stroke: #ffffff; stroke-width: 0.301948; stroke-linejoin: miter"/>
   </g>
   <g id="patch_23">
    <path d="M 175.753247 256.32 
L 178.772727 256.32 
L 178.772727 93.86656 
L 175.753247 93.86656 
z
" clip-path="url(#p87bfa62d13)" style="fill: #4c72b0; fill-opacity: 0.5; stroke: #ffffff; stroke-width: 0.301948; stroke-linejoin: miter"/>
   </g>
   <g id="patch_24">
    <path d="M 178.772727 256.32 
L 181.792208 256.32 
L 181.792208 101.236451 
L 178.772727 101.236451 
z
" clip-path="url(#p87bfa62d13)" style="fill: #4c72b0; fill-opacity: 0.5; stroke: #ffffff; stroke-width: 0.301948; stroke-linejoin: miter"/>
   </g>
   <g id="patch_25">
    <path d="M 181.792208 256.32 
L 184.811688 256.32 
L 184.811688 117.029073 
L 181.792208 117.029073 
z
" clip-path="url(#p87bfa62d13)" style="fill: #4c72b0; fill-opacity: 0.5; stroke: #ffffff; stroke-width: 0.301948; stroke-linejoin: miter"/>
   </g>
   <g id="patch_26">
    <path d="M 184.811688 256.32 
L 187.831169 256.32 
L 187.831169 123.661974 
L 184.811688 123.661974 
z
" clip-path="url(#p87bfa62d13)" style="fill: #4c72b0; fill-opacity: 0.5; stroke: #ffffff; stroke-width: 0.301948; stroke-linejoin: miter"/>
   </g>
   <g id="patch_27">
    <path d="M 187.831169 256.32 
L 190.850649 256.32 
L 190.850649 133.032263 
L 187.831169 133.032263 
z
" clip-path="url(#p87bfa62d13)" style="fill: #4c72b0; fill-opacity: 0.5; stroke: #ffffff; stroke-width: 0.301948; stroke-linejoin: miter"/>
   </g>
   <g id="patch_28">
    <path d="M 190.850649 256.32 
L 193.87013 256.32 
L 193.87013 150.404148 
L 190.850649 150.404148 
z
" clip-path="url(#p87bfa62d13)" style="fill: #4c72b0; fill-opacity: 0.5; stroke: #ffffff; stroke-width: 0.301948; stroke-linejoin: miter"/>
   </g>
   <g id="patch_29">
    <path d="M 193.87013 256.32 
L 196.88961 256.32 
L 196.88961 160.721994 
L 193.87013 160.721994 
z
" clip-path="url(#p87bfa62d13)" style="fill: #4c72b0; fill-opacity: 0.5; stroke: #ffffff; stroke-width: 0.301948; stroke-linejoin: miter"/>
   </g>
   <g id="patch_30">
    <path d="M 196.88961 256.32 
L 199.909091 256.32 
L 199.909091 146.298066 
L 196.88961 146.298066 
z
" clip-path="url(#p87bfa62d13)" style="fill: #4c72b0; fill-opacity: 0.5; stroke: #ffffff; stroke-width: 0.301948; stroke-linejoin: miter"/>
   </g>
   <g id="patch_31">
    <path d="M 199.909091 256.32 
L 202.928571 256.32 
L 202.928571 172.197966 
L 199.909091 172.197966 
z
" clip-path="url(#p87bfa62d13)" style="fill: #4c72b0; fill-opacity: 0.5; stroke: #ffffff; stroke-width: 0.301948; stroke-linejoin: miter"/>
   </g>
   <g id="patch_32">
    <path d="M 202.928571 256.32 
L 205.948052 256.32 
L 205.948052 180.094277 
L 202.928571 180.094277 
z
" clip-path="url(#p87bfa62d13)" style="fill: #4c72b0; fill-opacity: 0.5; stroke: #ffffff; stroke-width: 0.301948; stroke-linejoin: miter"/>
   </g>
   <g id="patch_33">
    <path d="M 205.948052 256.32 
L 208.967532 256.32 
L 208.967532 174.408933 
L 205.948052 174.408933 
z
" clip-path="url(#p87bfa62d13)" style="fill: #4c72b0; fill-opacity: 0.5; stroke: #ffffff; stroke-width: 0.301948; stroke-linejoin: miter"/>
   </g>
   <g id="patch_34">
    <path d="M 208.967532 256.32 
L 211.987013 256.32 
L 211.987013 189.780419 
L 208.967532 189.780419 
z
" clip-path="url(#p87bfa62d13)" style="fill: #4c72b0; fill-opacity: 0.5; stroke: #ffffff; stroke-width: 0.301948; stroke-linejoin: miter"/>
   </g>
   <g id="patch_35">
    <path d="M 211.987013 256.32 
L 215.006494 256.32 
L 215.006494 181.568255 
L 211.987013 181.568255 
z
" clip-path="url(#p87bfa62d13)" style="fill: #4c72b0; fill-opacity: 0.5; stroke: #ffffff; stroke-width: 0.301948; stroke-linejoin: miter"/>
   </g>
   <g id="patch_36">
    <path d="M 215.006494 256.32 
L 218.025974 256.32 
L 218.025974 197.466162 
L 215.006494 197.466162 
z
" clip-path="url(#p87bfa62d13)" style="fill: #4c72b0; fill-opacity: 0.5; stroke: #ffffff; stroke-width: 0.301948; stroke-linejoin: miter"/>
   </g>
   <g id="patch_37">
    <path d="M 218.025974 256.32 
L 221.045455 256.32 
L 221.045455 200.308833 
L 218.025974 200.308833 
z
" clip-path="url(#p87bfa62d13)" style="fill: #4c72b0; fill-opacity: 0.5; stroke: #ffffff; stroke-width: 0.301948; stroke-linejoin: miter"/>
   </g>
   <g id="patch_38">
    <path d="M 221.045455 256.32 
L 224.064935 256.32 
L 224.064935 203.572642 
L 221.045455 203.572642 
z
" clip-path="url(#p87bfa62d13)" style="fill: #4c72b0; fill-opacity: 0.5; stroke: #ffffff; stroke-width: 0.301948; stroke-linejoin: miter"/>
   </g>
   <g id="patch_39">
    <path d="M 224.064935 256.32 
L 227.084416 256.32 
L 227.084416 198.097866 
L 224.064935 198.097866 
z
" clip-path="url(#p87bfa62d13)" style="fill: #4c72b0; fill-opacity: 0.5; stroke: #ffffff; stroke-width: 0.301948; stroke-linejoin: miter"/>
   </g>
   <g id="patch_40">
    <path d="M 227.084416 256.32 
L 230.103896 256.32 
L 230.103896 207.678724 
L 227.084416 207.678724 
z
" clip-path="url(#p87bfa62d13)" style="fill: #4c72b0; fill-opacity: 0.5; stroke: #ffffff; stroke-width: 0.301948; stroke-linejoin: miter"/>
   </g>
   <g id="patch_41">
    <path d="M 230.103896 256.32 
L 233.123377 256.32 
L 233.123377 212.732363 
L 230.103896 212.732363 
z
" clip-path="url(#p87bfa62d13)" style="fill: #4c72b0; fill-opacity: 0.5; stroke: #ffffff; stroke-width: 0.301948; stroke-linejoin: miter"/>
   </g>
   <g id="patch_42">
    <path d="M 233.123377 256.32 
L 236.142857 256.32 
L 236.142857 211.468953 
L 233.123377 211.468953 
z
" clip-path="url(#p87bfa62d13)" style="fill: #4c72b0; fill-opacity: 0.5; stroke: #ffffff; stroke-width: 0.301948; stroke-linejoin: miter"/>
   </g>
   <g id="patch_43">
    <path d="M 236.142857 256.32 
L 239.162338 256.32 
L 239.162338 212.205942 
L 236.142857 212.205942 
z
" clip-path="url(#p87bfa62d13)" style="fill: #4c72b0; fill-opacity: 0.5; stroke: #ffffff; stroke-width: 0.301948; stroke-linejoin: miter"/>
   </g>
   <g id="patch_44">
    <path d="M 239.162338 256.32 
L 242.181818 256.32 
L 242.181818 215.890887 
L 239.162338 215.890887 
z
" clip-path="url(#p87bfa62d13)" style="fill: #4c72b0; fill-opacity: 0.5; stroke: #ffffff; stroke-width: 0.301948; stroke-linejoin: miter"/>
   </g>
   <g id="patch_45">
    <path d="M 242.181818 256.32 
L 245.201299 256.32 
L 245.201299 221.892084 
L 242.181818 221.892084 
z
" clip-path="url(#p87bfa62d13)" style="fill: #4c72b0; fill-opacity: 0.5; stroke: #ffffff; stroke-width: 0.301948; stroke-linejoin: miter"/>
   </g>
   <g id="patch_46">
    <path d="M 245.201299 256.32 
L 248.220779 256.32 
L 248.220779 222.839641 
L 245.201299 222.839641 
z
" clip-path="url(#p87bfa62d13)" style="fill: #4c72b0; fill-opacity: 0.5; stroke: #ffffff; stroke-width: 0.301948; stroke-linejoin: miter"/>
   </g>
   <g id="patch_47">
    <path d="M 248.220779 256.32 
L 251.24026 256.32 
L 251.24026 228.735553 
L 248.220779 228.735553 
z
" clip-path="url(#p87bfa62d13)" style="fill: #4c72b0; fill-opacity: 0.5; stroke: #ffffff; stroke-width: 0.301948; stroke-linejoin: miter"/>
   </g>
   <g id="patch_48">
    <path d="M 251.24026 256.32 
L 254.25974 256.32 
L 254.25974 228.946122 
L 251.24026 228.946122 
z
" clip-path="url(#p87bfa62d13)" style="fill: #4c72b0; fill-opacity: 0.5; stroke: #ffffff; stroke-width: 0.301948; stroke-linejoin: miter"/>
   </g>
   <g id="patch_49">
    <path d="M 254.25974 256.32 
L 257.279221 256.32 
L 257.279221 231.157089 
L 254.25974 231.157089 
z
" clip-path="url(#p87bfa62d13)" style="fill: #4c72b0; fill-opacity: 0.5; stroke: #ffffff; stroke-width: 0.301948; stroke-linejoin: miter"/>
   </g>
   <g id="patch_50">
    <path d="M 257.279221 256.32 
L 260.298701 256.32 
L 260.298701 232.946919 
L 257.279221 232.946919 
z
" clip-path="url(#p87bfa62d13)" style="fill: #4c72b0; fill-opacity: 0.5; stroke: #ffffff; stroke-width: 0.301948; stroke-linejoin: miter"/>
   </g>
   <g id="patch_51">
    <path d="M 260.298701 256.32 
L 263.318182 256.32 
L 263.318182 234.842034 
L 260.298701 234.842034 
z
" clip-path="url(#p87bfa62d13)" style="fill: #4c72b0; fill-opacity: 0.5; stroke: #ffffff; stroke-width: 0.301948; stroke-linejoin: miter"/>
   </g>
   <g id="patch_52">
    <path d="M 263.318182 256.32 
L 266.337662 256.32 
L 266.337662 237.474138 
L 263.318182 237.474138 
z
" clip-path="url(#p87bfa62d13)" style="fill: #4c72b0; fill-opacity: 0.5; stroke: #ffffff; stroke-width: 0.301948; stroke-linejoin: miter"/>
   </g>
   <g id="patch_53">
    <path d="M 266.337662 256.32 
L 269.357143 256.32 
L 269.357143 236.947717 
L 266.337662 236.947717 
z
" clip-path="url(#p87bfa62d13)" style="fill: #4c72b0; fill-opacity: 0.5; stroke: #ffffff; stroke-width: 0.301948; stroke-linejoin: miter"/>
   </g>
   <g id="patch_54">
    <path d="M 269.357143 256.32 
L 272.376623 256.32 
L 272.376623 235.157886 
L 269.357143 235.157886 
z
" clip-path="url(#p87bfa62d13)" style="fill: #4c72b0; fill-opacity: 0.5; stroke: #ffffff; stroke-width: 0.301948; stroke-linejoin: miter"/>
   </g>
   <g id="patch_55">
    <path d="M 272.376623 256.32 
L 275.396104 256.32 
L 275.396104 240.211525 
L 272.376623 240.211525 
z
" clip-path="url(#p87bfa62d13)" style="fill: #4c72b0; fill-opacity: 0.5; stroke: #ffffff; stroke-width: 0.301948; stroke-linejoin: miter"/>
   </g>
   <g id="patch_56">
    <path d="M 275.396104 256.32 
L 278.415584 256.32 
L 278.415584 241.369651 
L 275.396104 241.369651 
z
" clip-path="url(#p87bfa62d13)" style="fill: #4c72b0; fill-opacity: 0.5; stroke: #ffffff; stroke-width: 0.301948; stroke-linejoin: miter"/>
   </g>
   <g id="patch_57">
    <path d="M 278.415584 256.32 
L 281.435065 256.32 
L 281.435065 241.264367 
L 278.415584 241.264367 
z
" clip-path="url(#p87bfa62d13)" style="fill: #4c72b0; fill-opacity: 0.5; stroke: #ffffff; stroke-width: 0.301948; stroke-linejoin: miter"/>
   </g>
   <g id="patch_58">
    <path d="M 281.435065 256.32 
L 284.454545 256.32 
L 284.454545 242.633061 
L 281.435065 242.633061 
z
" clip-path="url(#p87bfa62d13)" style="fill: #4c72b0; fill-opacity: 0.5; stroke: #ffffff; stroke-width: 0.301948; stroke-linejoin: miter"/>
   </g>
   <g id="patch_59">
    <path d="M 284.454545 256.32 
L 287.474026 256.32 
L 287.474026 245.581017 
L 284.454545 245.581017 
z
" clip-path="url(#p87bfa62d13)" style="fill: #4c72b0; fill-opacity: 0.5; stroke: #ffffff; stroke-width: 0.301948; stroke-linejoin: miter"/>
   </g>
   <g id="patch_60">
    <path d="M 287.474026 256.32 
L 290.493506 256.32 
L 290.493506 247.791984 
L 287.474026 247.791984 
z
" clip-path="url(#p87bfa62d13)" style="fill: #4c72b0; fill-opacity: 0.5; stroke: #ffffff; stroke-width: 0.301948; stroke-linejoin: miter"/>
   </g>
   <g id="patch_61">
    <path d="M 290.493506 256.32 
L 293.512987 256.32 
L 293.512987 242.211924 
L 290.493506 242.211924 
z
" clip-path="url(#p87bfa62d13)" style="fill: #4c72b0; fill-opacity: 0.5; stroke: #ffffff; stroke-width: 0.301948; stroke-linejoin: miter"/>
   </g>
   <g id="patch_62">
    <path d="M 293.512987 256.32 
L 296.532468 256.32 
L 296.532468 247.897268 
L 293.512987 247.897268 
z
" clip-path="url(#p87bfa62d13)" style="fill: #4c72b0; fill-opacity: 0.5; stroke: #ffffff; stroke-width: 0.301948; stroke-linejoin: miter"/>
   </g>
   <g id="patch_63">
    <path d="M 296.532468 256.32 
L 299.551948 256.32 
L 299.551948 245.791585 
L 296.532468 245.791585 
z
" clip-path="url(#p87bfa62d13)" style="fill: #4c72b0; fill-opacity: 0.5; stroke: #ffffff; stroke-width: 0.301948; stroke-linejoin: miter"/>
   </g>
   <g id="patch_64">
    <path d="M 299.551948 256.32 
L 302.571429 256.32 
L 302.571429 248.423689 
L 299.551948 248.423689 
z
" clip-path="url(#p87bfa62d13)" style="fill: #4c72b0; fill-opacity: 0.5; stroke: #ffffff; stroke-width: 0.301948; stroke-linejoin: miter"/>
   </g>
   <g id="patch_65">
    <path d="M 302.571429 256.32 
L 305.590909 256.32 
L 305.590909 248.002552 
L 302.571429 248.002552 
z
" clip-path="url(#p87bfa62d13)" style="fill: #4c72b0; fill-opacity: 0.5; stroke: #ffffff; stroke-width: 0.301948; stroke-linejoin: miter"/>
   </g>
   <g id="patch_66">
    <path d="M 305.590909 256.32 
L 308.61039 256.32 
L 308.61039 247.791984 
L 305.590909 247.791984 
z
" clip-path="url(#p87bfa62d13)" style="fill: #4c72b0; fill-opacity: 0.5; stroke: #ffffff; stroke-width: 0.301948; stroke-linejoin: miter"/>
   </g>
   <g id="patch_67">
    <path d="M 308.61039 256.32 
L 311.62987 256.32 
L 311.62987 250.529372 
L 308.61039 250.529372 
z
" clip-path="url(#p87bfa62d13)" style="fill: #4c72b0; fill-opacity: 0.5; stroke: #ffffff; stroke-width: 0.301948; stroke-linejoin: miter"/>
   </g>
   <g id="patch_68">
    <path d="M 311.62987 256.32 
L 314.649351 256.32 
L 314.649351 251.476929 
L 311.62987 251.476929 
z
" clip-path="url(#p87bfa62d13)" style="fill: #4c72b0; fill-opacity: 0.5; stroke: #ffffff; stroke-width: 0.301948; stroke-linejoin: miter"/>
   </g>
   <g id="patch_69">
    <path d="M 314.649351 256.32 
L 317.668831 256.32 
L 317.668831 250.634656 
L 314.649351 250.634656 
z
" clip-path="url(#p87bfa62d13)" style="fill: #4c72b0; fill-opacity: 0.5; stroke: #ffffff; stroke-width: 0.301948; stroke-linejoin: miter"/>
   </g>
   <g id="patch_70">
    <path d="M 317.668831 256.32 
L 320.688312 256.32 
L 320.688312 250.950508 
L 317.668831 250.950508 
z
" clip-path="url(#p87bfa62d13)" style="fill: #4c72b0; fill-opacity: 0.5; stroke: #ffffff; stroke-width: 0.301948; stroke-linejoin: miter"/>
   </g>
   <g id="patch_71">
    <path d="M 320.688312 256.32 
L 323.707792 256.32 
L 323.707792 250.318804 
L 320.688312 250.318804 
z
" clip-path="url(#p87bfa62d13)" style="fill: #4c72b0; fill-opacity: 0.5; stroke: #ffffff; stroke-width: 0.301948; stroke-linejoin: miter"/>
   </g>
   <g id="patch_72">
    <path d="M 323.707792 256.32 
L 326.727273 256.32 
L 326.727273 252.529771 
L 323.707792 252.529771 
z
" clip-path="url(#p87bfa62d13)" style="fill: #4c72b0; fill-opacity: 0.5; stroke: #ffffff; stroke-width: 0.301948; stroke-linejoin: miter"/>
   </g>
   <g id="patch_73">
    <path d="M 326.727273 256.32 
L 329.746753 256.32 
L 329.746753 251.266361 
L 326.727273 251.266361 
z
" clip-path="url(#p87bfa62d13)" style="fill: #4c72b0; fill-opacity: 0.5; stroke: #ffffff; stroke-width: 0.301948; stroke-linejoin: miter"/>
   </g>
   <g id="patch_74">
    <path d="M 329.746753 256.32 
L 332.766234 256.32 
L 332.766234 253.161476 
L 329.746753 253.161476 
z
" clip-path="url(#p87bfa62d13)" style="fill: #4c72b0; fill-opacity: 0.5; stroke: #ffffff; stroke-width: 0.301948; stroke-linejoin: miter"/>
   </g>
   <g id="patch_75">
    <path d="M 332.766234 256.32 
L 335.785714 256.32 
L 335.785714 251.792782 
L 332.766234 251.792782 
z
" clip-path="url(#p87bfa62d13)" style="fill: #4c72b0; fill-opacity: 0.5; stroke: #ffffff; stroke-width: 0.301948; stroke-linejoin: miter"/>
   </g>
   <g id="patch_76">
    <path d="M 335.785714 256.32 
L 338.805195 256.32 
L 338.805195 252.635055 
L 335.785714 252.635055 
z
" clip-path="url(#p87bfa62d13)" style="fill: #4c72b0; fill-opacity: 0.5; stroke: #ffffff; stroke-width: 0.301948; stroke-linejoin: miter"/>
   </g>
   <g id="patch_77">
    <path d="M 338.805195 256.32 
L 341.824675 256.32 
L 341.824675 253.26676 
L 338.805195 253.26676 
z
" clip-path="url(#p87bfa62d13)" style="fill: #4c72b0; fill-opacity: 0.5; stroke: #ffffff; stroke-width: 0.301948; stroke-linejoin: miter"/>
   </g>
   <g id="patch_78">
    <path d="M 341.824675 256.32 
L 344.844156 256.32 
L 344.844156 253.79318 
L 341.824675 253.79318 
z
" clip-path="url(#p87bfa62d13)" style="fill: #4c72b0; fill-opacity: 0.5; stroke: #ffffff; stroke-width: 0.301948; stroke-linejoin: miter"/>
   </g>
   <g id="patch_79">
    <path d="M 344.844156 256.32 
L 347.863636 256.32 
L 347.863636 253.898465 
L 344.844156 253.898465 
z
" clip-path="url(#p87bfa62d13)" style="fill: #4c72b0; fill-opacity: 0.5; stroke: #ffffff; stroke-width: 0.301948; stroke-linejoin: miter"/>
   </g>
   <g id="patch_80">
    <path d="M 347.863636 256.32 
L 350.883117 256.32 
L 350.883117 255.372443 
L 347.863636 255.372443 
z
" clip-path="url(#p87bfa62d13)" style="fill: #4c72b0; fill-opacity: 0.5; stroke: #ffffff; stroke-width: 0.301948; stroke-linejoin: miter"/>
   </g>
   <g id="patch_81">
    <path d="M 350.883117 256.32 
L 353.902597 256.32 
L 353.902597 254.214317 
L 350.883117 254.214317 
z
" clip-path="url(#p87bfa62d13)" style="fill: #4c72b0; fill-opacity: 0.5; stroke: #ffffff; stroke-width: 0.301948; stroke-linejoin: miter"/>
   </g>
   <g id="patch_82">
    <path d="M 353.902597 256.32 
L 356.922078 256.32 
L 356.922078 254.424885 
L 353.902597 254.424885 
z
" clip-path="url(#p87bfa62d13)" style="fill: #4c72b0; fill-opacity: 0.5; stroke: #ffffff; stroke-width: 0.301948; stroke-linejoin: miter"/>
   </g>
   <g id="patch_83">
    <path d="M 356.922078 256.32 
L 359.941558 256.32 
L 359.941558 255.688295 
L 356.922078 255.688295 
z
" clip-path="url(#p87bfa62d13)" style="fill: #4c72b0; fill-opacity: 0.5; stroke: #ffffff; stroke-width: 0.301948; stroke-linejoin: miter"/>
   </g>
   <g id="patch_84">
    <path d="M 359.941558 256.32 
L 362.961039 256.32 
L 362.961039 254.424885 
L 359.941558 254.424885 
z
" clip-path="url(#p87bfa62d13)" style="fill: #4c72b0; fill-opacity: 0.5; stroke: #ffffff; stroke-width: 0.301948; stroke-linejoin: miter"/>
   </g>
   <g id="patch_85">
    <path d="M 362.961039 256.32 
L 365.980519 256.32 
L 365.980519 255.267159 
L 362.961039 255.267159 
z
" clip-path="url(#p87bfa62d13)" style="fill: #4c72b0; fill-opacity: 0.5; stroke: #ffffff; stroke-width: 0.301948; stroke-linejoin: miter"/>
   </g>
   <g id="patch_86">
    <path d="M 365.980519 256.32 
L 369 256.32 
L 369 255.583011 
L 365.980519 255.583011 
z
" clip-path="url(#p87bfa62d13)" style="fill: #4c72b0; fill-opacity: 0.5; stroke: #ffffff; stroke-width: 0.301948; stroke-linejoin: miter"/>
   </g>
   <g id="patch_87">
    <path d="M 369 256.32 
L 372.019481 256.32 
L 372.019481 254.319601 
L 369 254.319601 
z
" clip-path="url(#p87bfa62d13)" style="fill: #4c72b0; fill-opacity: 0.5; stroke: #ffffff; stroke-width: 0.301948; stroke-linejoin: miter"/>
   </g>
   <g id="patch_88">
    <path d="M 372.019481 256.32 
L 375.038961 256.32 
L 375.038961 255.05659 
L 372.019481 255.05659 
z
" clip-path="url(#p87bfa62d13)" style="fill: #4c72b0; fill-opacity: 0.5; stroke: #ffffff; stroke-width: 0.301948; stroke-linejoin: miter"/>
   </g>
   <g id="patch_89">
    <path d="M 375.038961 256.32 
L 378.058442 256.32 
L 378.058442 255.688295 
L 375.038961 255.688295 
z
" clip-path="url(#p87bfa62d13)" style="fill: #4c72b0; fill-opacity: 0.5; stroke: #ffffff; stroke-width: 0.301948; stroke-linejoin: miter"/>
   </g>
   <g id="patch_90">
    <path d="M 378.058442 256.32 
L 381.077922 256.32 
L 381.077922 254.530169 
L 378.058442 254.530169 
z
" clip-path="url(#p87bfa62d13)" style="fill: #4c72b0; fill-opacity: 0.5; stroke: #ffffff; stroke-width: 0.301948; stroke-linejoin: miter"/>
   </g>
   <g id="patch_91">
    <path d="M 381.077922 256.32 
L 384.097403 256.32 
L 384.097403 255.688295 
L 381.077922 255.688295 
z
" clip-path="url(#p87bfa62d13)" style="fill: #4c72b0; fill-opacity: 0.5; stroke: #ffffff; stroke-width: 0.301948; stroke-linejoin: miter"/>
   </g>
   <g id="patch_92">
    <path d="M 384.097403 256.32 
L 387.116883 256.32 
L 387.116883 255.583011 
L 384.097403 255.583011 
z
" clip-path="url(#p87bfa62d13)" style="fill: #4c72b0; fill-opacity: 0.5; stroke: #ffffff; stroke-width: 0.301948; stroke-linejoin: miter"/>
   </g>
   <g id="patch_93">
    <path d="M 387.116883 256.32 
L 390.136364 256.32 
L 390.136364 255.583011 
L 387.116883 255.583011 
z
" clip-path="url(#p87bfa62d13)" style="fill: #4c72b0; fill-opacity: 0.5; stroke: #ffffff; stroke-width: 0.301948; stroke-linejoin: miter"/>
   </g>
   <g id="patch_94">
    <path d="M 390.136364 256.32 
L 393.155844 256.32 
L 393.155844 255.688295 
L 390.136364 255.688295 
z
" clip-path="url(#p87bfa62d13)" style="fill: #4c72b0; fill-opacity: 0.5; stroke: #ffffff; stroke-width: 0.301948; stroke-linejoin: miter"/>
   </g>
   <g id="patch_95">
    <path d="M 393.155844 256.32 
L 396.175325 256.32 
L 396.175325 255.477727 
L 393.155844 255.477727 
z
" clip-path="url(#p87bfa62d13)" style="fill: #4c72b0; fill-opacity: 0.5; stroke: #ffffff; stroke-width: 0.301948; stroke-linejoin: miter"/>
   </g>
   <g id="patch_96">
    <path d="M 396.175325 256.32 
L 399.194805 256.32 
L 399.194805 254.635454 
L 396.175325 254.635454 
z
" clip-path="url(#p87bfa62d13)" style="fill: #4c72b0; fill-opacity: 0.5; stroke: #ffffff; stroke-width: 0.301948; stroke-linejoin: miter"/>
   </g>
   <g id="patch_97">
    <path d="M 399.194805 256.32 
L 402.214286 256.32 
L 402.214286 255.477727 
L 399.194805 255.477727 
z
" clip-path="url(#p87bfa62d13)" style="fill: #4c72b0; fill-opacity: 0.5; stroke: #ffffff; stroke-width: 0.301948; stroke-linejoin: miter"/>
   </g>
   <g id="patch_98">
    <path d="M 402.214286 256.32 
L 405.233766 256.32 
L 405.233766 254.635454 
L 402.214286 254.635454 
z
" clip-path="url(#p87bfa62d13)" style="fill: #4c72b0; fill-opacity: 0.5; stroke: #ffffff; stroke-width: 0.301948; stroke-linejoin: miter"/>
   </g>
   <g id="patch_99">
    <path d="M 405.233766 256.32 
L 408.253247 256.32 
L 408.253247 254.109033 
L 405.233766 254.109033 
z
" clip-path="url(#p87bfa62d13)" style="fill: #4c72b0; fill-opacity: 0.5; stroke: #ffffff; stroke-width: 0.301948; stroke-linejoin: miter"/>
   </g>
   <g id="patch_100">
    <path d="M 408.253247 256.32 
L 411.272727 256.32 
L 411.272727 255.793579 
L 408.253247 255.793579 
z
" clip-path="url(#p87bfa62d13)" style="fill: #4c72b0; fill-opacity: 0.5; stroke: #ffffff; stroke-width: 0.301948; stroke-linejoin: miter"/>
   </g>
   <g id="patch_101">
    <path d="M 411.272727 256.32 
L 414.292208 256.32 
L 414.292208 254.951306 
L 411.272727 254.951306 
z
" clip-path="url(#p87bfa62d13)" style="fill: #4c72b0; fill-opacity: 0.5; stroke: #ffffff; stroke-width: 0.301948; stroke-linejoin: miter"/>
   </g>
   <g id="patch_102">
    <path d="M 414.292208 256.32 
L 417.311688 256.32 
L 417.311688 255.372443 
L 414.292208 255.372443 
z
" clip-path="url(#p87bfa62d13)" style="fill: #4c72b0; fill-opacity: 0.5; stroke: #ffffff; stroke-width: 0.301948; stroke-linejoin: miter"/>
   </g>
   <g id="patch_103">
    <path d="M 417.311688 256.32 
L 420.331169 256.32 
L 420.331169 255.477727 
L 417.311688 255.477727 
z
" clip-path="url(#p87bfa62d13)" style="fill: #4c72b0; fill-opacity: 0.5; stroke: #ffffff; stroke-width: 0.301948; stroke-linejoin: miter"/>
   </g>
   <g id="patch_104">
    <path d="M 420.331169 256.32 
L 423.350649 256.32 
L 423.350649 255.793579 
L 420.331169 255.793579 
z
" clip-path="url(#p87bfa62d13)" style="fill: #4c72b0; fill-opacity: 0.5; stroke: #ffffff; stroke-width: 0.301948; stroke-linejoin: miter"/>
   </g>
   <g id="patch_105">
    <path d="M 423.350649 256.32 
L 426.37013 256.32 
L 426.37013 255.372443 
L 423.350649 255.372443 
z
" clip-path="url(#p87bfa62d13)" style="fill: #4c72b0; fill-opacity: 0.5; stroke: #ffffff; stroke-width: 0.301948; stroke-linejoin: miter"/>
   </g>
   <g id="patch_106">
    <path d="M 426.37013 256.32 
L 429.38961 256.32 
L 429.38961 255.688295 
L 426.37013 255.688295 
z
" clip-path="url(#p87bfa62d13)" style="fill: #4c72b0; fill-opacity: 0.5; stroke: #ffffff; stroke-width: 0.301948; stroke-linejoin: miter"/>
   </g>
   <g id="patch_107">
    <path d="M 429.38961 256.32 
L 432.409091 256.32 
L 432.409091 255.267159 
L 429.38961 255.267159 
z
" clip-path="url(#p87bfa62d13)" style="fill: #4c72b0; fill-opacity: 0.5; stroke: #ffffff; stroke-width: 0.301948; stroke-linejoin: miter"/>
   </g>
   <g id="patch_108">
    <path d="M 432.409091 256.32 
L 435.428571 256.32 
L 435.428571 255.583011 
L 432.409091 255.583011 
z
" clip-path="url(#p87bfa62d13)" style="fill: #4c72b0; fill-opacity: 0.5; stroke: #ffffff; stroke-width: 0.301948; stroke-linejoin: miter"/>
   </g>
   <g id="patch_109">
    <path d="M 435.428571 256.32 
L 438.448052 256.32 
L 438.448052 255.583011 
L 435.428571 255.583011 
z
" clip-path="url(#p87bfa62d13)" style="fill: #4c72b0; fill-opacity: 0.5; stroke: #ffffff; stroke-width: 0.301948; stroke-linejoin: miter"/>
   </g>
   <g id="patch_110">
    <path d="M 438.448052 256.32 
L 441.467532 256.32 
L 441.467532 254.951306 
L 438.448052 254.951306 
z
" clip-path="url(#p87bfa62d13)" style="fill: #4c72b0; fill-opacity: 0.5; stroke: #ffffff; stroke-width: 0.301948; stroke-linejoin: miter"/>
   </g>
   <g id="patch_111">
    <path d="M 441.467532 256.32 
L 444.487013 256.32 
L 444.487013 255.898863 
L 441.467532 255.898863 
z
" clip-path="url(#p87bfa62d13)" style="fill: #4c72b0; fill-opacity: 0.5; stroke: #ffffff; stroke-width: 0.301948; stroke-linejoin: miter"/>
   </g>
   <g id="patch_112">
    <path d="M 444.487013 256.32 
L 447.506494 256.32 
L 447.506494 255.477727 
L 444.487013 255.477727 
z
" clip-path="url(#p87bfa62d13)" style="fill: #4c72b0; fill-opacity: 0.5; stroke: #ffffff; stroke-width: 0.301948; stroke-linejoin: miter"/>
   </g>
   <g id="patch_113">
    <path d="M 447.506494 256.32 
L 450.525974 256.32 
L 450.525974 255.161874 
L 447.506494 255.161874 
z
" clip-path="url(#p87bfa62d13)" style="fill: #4c72b0; fill-opacity: 0.5; stroke: #ffffff; stroke-width: 0.301948; stroke-linejoin: miter"/>
   </g>
   <g id="patch_114">
    <path d="M 450.525974 256.32 
L 453.545455 256.32 
L 453.545455 255.688295 
L 450.525974 255.688295 
z
" clip-path="url(#p87bfa62d13)" style="fill: #4c72b0; fill-opacity: 0.5; stroke: #ffffff; stroke-width: 0.301948; stroke-linejoin: miter"/>
   </g>
   <g id="patch_115">
    <path d="M 453.545455 256.32 
L 456.564935 256.32 
L 456.564935 255.583011 
L 453.545455 255.583011 
z
" clip-path="url(#p87bfa62d13)" style="fill: #4c72b0; fill-opacity: 0.5; stroke: #ffffff; stroke-width: 0.301948; stroke-linejoin: miter"/>
   </g>
   <g id="patch_116">
    <path d="M 456.564935 256.32 
L 459.584416 256.32 
L 459.584416 255.688295 
L 456.564935 255.688295 
z
" clip-path="url(#p87bfa62d13)" style="fill: #4c72b0; fill-opacity: 0.5; stroke: #ffffff; stroke-width: 0.301948; stroke-linejoin: miter"/>
   </g>
   <g id="patch_117">
    <path d="M 459.584416 256.32 
L 462.603896 256.32 
L 462.603896 256.004148 
L 459.584416 256.004148 
z
" clip-path="url(#p87bfa62d13)" style="fill: #4c72b0; fill-opacity: 0.5; stroke: #ffffff; stroke-width: 0.301948; stroke-linejoin: miter"/>
   </g>
   <g id="patch_118">
    <path d="M 462.603896 256.32 
L 465.623377 256.32 
L 465.623377 256.214716 
L 462.603896 256.214716 
z
" clip-path="url(#p87bfa62d13)" style="fill: #4c72b0; fill-opacity: 0.5; stroke: #ffffff; stroke-width: 0.301948; stroke-linejoin: miter"/>
   </g>
   <g id="patch_119">
    <path d="M 465.623377 256.32 
L 468.642857 256.32 
L 468.642857 255.898863 
L 465.623377 255.898863 
z
" clip-path="url(#p87bfa62d13)" style="fill: #4c72b0; fill-opacity: 0.5; stroke: #ffffff; stroke-width: 0.301948; stroke-linejoin: miter"/>
   </g>
   <g id="patch_120">
    <path d="M 468.642857 256.32 
L 471.662338 256.32 
L 471.662338 256.109432 
L 468.642857 256.109432 
z
" clip-path="url(#p87bfa62d13)" style="fill: #4c72b0; fill-opacity: 0.5; stroke: #ffffff; stroke-width: 0.301948; stroke-linejoin: miter"/>
   </g>
   <g id="patch_121">
    <path d="M 471.662338 256.32 
L 474.681818 256.32 
L 474.681818 256.109432 
L 471.662338 256.109432 
z
" clip-path="url(#p87bfa62d13)" style="fill: #4c72b0; fill-opacity: 0.5; stroke: #ffffff; stroke-width: 0.301948; stroke-linejoin: miter"/>
   </g>
   <g id="patch_122">
    <path d="M 474.681818 256.32 
L 477.701299 256.32 
L 477.701299 256.109432 
L 474.681818 256.109432 
z
" clip-path="url(#p87bfa62d13)" style="fill: #4c72b0; fill-opacity: 0.5; stroke: #ffffff; stroke-width: 0.301948; stroke-linejoin: miter"/>
   </g>
   <g id="patch_123">
    <path d="M 477.701299 256.32 
L 480.720779 256.32 
L 480.720779 256.109432 
L 477.701299 256.109432 
z
" clip-path="url(#p87bfa62d13)" style="fill: #4c72b0; fill-opacity: 0.5; stroke: #ffffff; stroke-width: 0.301948; stroke-linejoin: miter"/>
   </g>
   <g id="patch_124">
    <path d="M 480.720779 256.32 
L 483.74026 256.32 
L 483.74026 256.004148 
L 480.720779 256.004148 
z
" clip-path="url(#p87bfa62d13)" style="fill: #4c72b0; fill-opacity: 0.5; stroke: #ffffff; stroke-width: 0.301948; stroke-linejoin: miter"/>
   </g>
   <g id="patch_125">
    <path d="M 483.74026 256.32 
L 486.75974 256.32 
L 486.75974 256.004148 
L 483.74026 256.004148 
z
" clip-path="url(#p87bfa62d13)" style="fill: #4c72b0; fill-opacity: 0.5; stroke: #ffffff; stroke-width: 0.301948; stroke-linejoin: miter"/>
   </g>
   <g id="patch_126">
    <path d="M 486.75974 256.32 
L 489.779221 256.32 
L 489.779221 256.004148 
L 486.75974 256.004148 
z
" clip-path="url(#p87bfa62d13)" style="fill: #4c72b0; fill-opacity: 0.5; stroke: #ffffff; stroke-width: 0.301948; stroke-linejoin: miter"/>
   </g>
   <g id="patch_127">
    <path d="M 489.779221 256.32 
L 492.798701 256.32 
L 492.798701 256.109432 
L 489.779221 256.109432 
z
" clip-path="url(#p87bfa62d13)" style="fill: #4c72b0; fill-opacity: 0.5; stroke: #ffffff; stroke-width: 0.301948; stroke-linejoin: miter"/>
   </g>
   <g id="patch_128">
    <path d="M 492.798701 256.32 
L 495.818182 256.32 
L 495.818182 255.793579 
L 492.798701 255.793579 
z
" clip-path="url(#p87bfa62d13)" style="fill: #4c72b0; fill-opacity: 0.5; stroke: #ffffff; stroke-width: 0.301948; stroke-linejoin: miter"/>
   </g>
   <g id="patch_129">
    <path d="M 495.818182 256.32 
L 498.837662 256.32 
L 498.837662 256.109432 
L 495.818182 256.109432 
z
" clip-path="url(#p87bfa62d13)" style="fill: #4c72b0; fill-opacity: 0.5; stroke: #ffffff; stroke-width: 0.301948; stroke-linejoin: miter"/>
   </g>
   <g id="patch_130">
    <path d="M 498.837662 256.32 
L 501.857143 256.32 
L 501.857143 255.372443 
L 498.837662 255.372443 
z
" clip-path="url(#p87bfa62d13)" style="fill: #4c72b0; fill-opacity: 0.5; stroke: #ffffff; stroke-width: 0.301948; stroke-linejoin: miter"/>
   </g>
   <g id="patch_131">
    <path d="M 501.857143 256.32 
L 504.876623 256.32 
L 504.876623 256.004148 
L 501.857143 256.004148 
z
" clip-path="url(#p87bfa62d13)" style="fill: #4c72b0; fill-opacity: 0.5; stroke: #ffffff; stroke-width: 0.301948; stroke-linejoin: miter"/>
   </g>
   <g id="patch_132">
    <path d="M 504.876623 256.32 
L 507.896104 256.32 
L 507.896104 256.004148 
L 504.876623 256.004148 
z
" clip-path="url(#p87bfa62d13)" style="fill: #4c72b0; fill-opacity: 0.5; stroke: #ffffff; stroke-width: 0.301948; stroke-linejoin: miter"/>
   </g>
   <g id="patch_133">
    <path d="M 507.896104 256.32 
L 510.915584 256.32 
L 510.915584 256.214716 
L 507.896104 256.214716 
z
" clip-path="url(#p87bfa62d13)" style="fill: #4c72b0; fill-opacity: 0.5; stroke: #ffffff; stroke-width: 0.301948; stroke-linejoin: miter"/>
   </g>
   <g id="patch_134">
    <path d="M 510.915584 256.32 
L 513.935065 256.32 
L 513.935065 256.214716 
L 510.915584 256.214716 
z
" clip-path="url(#p87bfa62d13)" style="fill: #4c72b0; fill-opacity: 0.5; stroke: #ffffff; stroke-width: 0.301948; stroke-linejoin: miter"/>
   </g>
   <g id="patch_135">
    <path d="M 513.935065 256.32 
L 516.954545 256.32 
L 516.954545 255.898863 
L 513.935065 255.898863 
z
" clip-path="url(#p87bfa62d13)" style="fill: #4c72b0; fill-opacity: 0.5; stroke: #ffffff; stroke-width: 0.301948; stroke-linejoin: miter"/>
   </g>
   <g id="patch_136">
    <path d="M 516.954545 256.32 
L 519.974026 256.32 
L 519.974026 256.004148 
L 516.954545 256.004148 
z
" clip-path="url(#p87bfa62d13)" style="fill: #4c72b0; fill-opacity: 0.5; stroke: #ffffff; stroke-width: 0.301948; stroke-linejoin: miter"/>
   </g>
   <g id="patch_137">
    <path d="M 519.974026 256.32 
L 522.993506 256.32 
L 522.993506 256.214716 
L 519.974026 256.214716 
z
" clip-path="url(#p87bfa62d13)" style="fill: #4c72b0; fill-opacity: 0.5; stroke: #ffffff; stroke-width: 0.301948; stroke-linejoin: miter"/>
   </g>
   <g id="patch_138">
    <path d="M 522.993506 256.32 
L 526.012987 256.32 
L 526.012987 255.898863 
L 522.993506 255.898863 
z
" clip-path="url(#p87bfa62d13)" style="fill: #4c72b0; fill-opacity: 0.5; stroke: #ffffff; stroke-width: 0.301948; stroke-linejoin: miter"/>
   </g>
   <g id="patch_139">
    <path d="M 526.012987 256.32 
L 529.032468 256.32 
L 529.032468 255.898863 
L 526.012987 255.898863 
z
" clip-path="url(#p87bfa62d13)" style="fill: #4c72b0; fill-opacity: 0.5; stroke: #ffffff; stroke-width: 0.301948; stroke-linejoin: miter"/>
   </g>
   <g id="patch_140">
    <path d="M 529.032468 256.32 
L 532.051948 256.32 
L 532.051948 256.32 
L 529.032468 256.32 
z
" clip-path="url(#p87bfa62d13)" style="fill: #4c72b0; fill-opacity: 0.5; stroke: #ffffff; stroke-width: 0.301948; stroke-linejoin: miter"/>
   </g>
   <g id="patch_141">
    <path d="M 532.051948 256.32 
L 535.071429 256.32 
L 535.071429 256.32 
L 532.051948 256.32 
z
" clip-path="url(#p87bfa62d13)" style="fill: #4c72b0; fill-opacity: 0.5; stroke: #ffffff; stroke-width: 0.301948; stroke-linejoin: miter"/>
   </g>
   <g id="patch_142">
    <path d="M 535.071429 256.32 
L 538.090909 256.32 
L 538.090909 256.214716 
L 535.071429 256.214716 
z
" clip-path="url(#p87bfa62d13)" style="fill: #4c72b0; fill-opacity: 0.5; stroke: #ffffff; stroke-width: 0.301948; stroke-linejoin: miter"/>
   </g>
   <g id="patch_143">
    <path d="M 538.090909 256.32 
L 541.11039 256.32 
L 541.11039 256.214716 
L 538.090909 256.214716 
z
" clip-path="url(#p87bfa62d13)" style="fill: #4c72b0; fill-opacity: 0.5; stroke: #ffffff; stroke-width: 0.301948; stroke-linejoin: miter"/>
   </g>
   <g id="patch_144">
    <path d="M 541.11039 256.32 
L 544.12987 256.32 
L 544.12987 255.898863 
L 541.11039 255.898863 
z
" clip-path="url(#p87bfa62d13)" style="fill: #4c72b0; fill-opacity: 0.5; stroke: #ffffff; stroke-width: 0.301948; stroke-linejoin: miter"/>
   </g>
   <g id="patch_145">
    <path d="M 544.12987 256.32 
L 547.149351 256.32 
L 547.149351 256.109432 
L 544.12987 256.109432 
z
" clip-path="url(#p87bfa62d13)" style="fill: #4c72b0; fill-opacity: 0.5; stroke: #ffffff; stroke-width: 0.301948; stroke-linejoin: miter"/>
   </g>
   <g id="patch_146">
    <path d="M 547.149351 256.32 
L 550.168831 256.32 
L 550.168831 256.109432 
L 547.149351 256.109432 
z
" clip-path="url(#p87bfa62d13)" style="fill: #4c72b0; fill-opacity: 0.5; stroke: #ffffff; stroke-width: 0.301948; stroke-linejoin: miter"/>
   </g>
   <g id="patch_147">
    <path d="M 550.168831 256.32 
L 553.188312 256.32 
L 553.188312 256.32 
L 550.168831 256.32 
z
" clip-path="url(#p87bfa62d13)" style="fill: #4c72b0; fill-opacity: 0.5; stroke: #ffffff; stroke-width: 0.301948; stroke-linejoin: miter"/>
   </g>
   <g id="patch_148">
    <path d="M 553.188312 256.32 
L 556.207792 256.32 
L 556.207792 256.32 
L 553.188312 256.32 
z
" clip-path="url(#p87bfa62d13)" style="fill: #4c72b0; fill-opacity: 0.5; stroke: #ffffff; stroke-width: 0.301948; stroke-linejoin: miter"/>
   </g>
   <g id="patch_149">
    <path d="M 556.207792 256.32 
L 559.227273 256.32 
L 559.227273 256.214716 
L 556.207792 256.214716 
z
" clip-path="url(#p87bfa62d13)" style="fill: #4c72b0; fill-opacity: 0.5; stroke: #ffffff; stroke-width: 0.301948; stroke-linejoin: miter"/>
   </g>
   <g id="patch_150">
    <path d="M 559.227273 256.32 
L 562.246753 256.32 
L 562.246753 256.109432 
L 559.227273 256.109432 
z
" clip-path="url(#p87bfa62d13)" style="fill: #4c72b0; fill-opacity: 0.5; stroke: #ffffff; stroke-width: 0.301948; stroke-linejoin: miter"/>
   </g>
   <g id="patch_151">
    <path d="M 562.246753 256.32 
L 565.266234 256.32 
L 565.266234 256.32 
L 562.246753 256.32 
z
" clip-path="url(#p87bfa62d13)" style="fill: #4c72b0; fill-opacity: 0.5; stroke: #ffffff; stroke-width: 0.301948; stroke-linejoin: miter"/>
   </g>
   <g id="patch_152">
    <path d="M 565.266234 256.32 
L 568.285714 256.32 
L 568.285714 256.214716 
L 565.266234 256.214716 
z
" clip-path="url(#p87bfa62d13)" style="fill: #4c72b0; fill-opacity: 0.5; stroke: #ffffff; stroke-width: 0.301948; stroke-linejoin: miter"/>
   </g>
   <g id="patch_153">
    <path d="M 568.285714 256.32 
L 571.305195 256.32 
L 571.305195 256.109432 
L 568.285714 256.109432 
z
" clip-path="url(#p87bfa62d13)" style="fill: #4c72b0; fill-opacity: 0.5; stroke: #ffffff; stroke-width: 0.301948; stroke-linejoin: miter"/>
   </g>
   <g id="patch_154">
    <path d="M 571.305195 256.32 
L 574.324675 256.32 
L 574.324675 256.32 
L 571.305195 256.32 
z
" clip-path="url(#p87bfa62d13)" style="fill: #4c72b0; fill-opacity: 0.5; stroke: #ffffff; stroke-width: 0.301948; stroke-linejoin: miter"/>
   </g>
   <g id="patch_155">
    <path d="M 574.324675 256.32 
L 577.344156 256.32 
L 577.344156 256.32 
L 574.324675 256.32 
z
" clip-path="url(#p87bfa62d13)" style="fill: #4c72b0; fill-opacity: 0.5; stroke: #ffffff; stroke-width: 0.301948; stroke-linejoin: miter"/>
   </g>
   <g id="patch_156">
    <path d="M 577.344156 256.32 
L 580.363636 256.32 
L 580.363636 256.32 
L 577.344156 256.32 
z
" clip-path="url(#p87bfa62d13)" style="fill: #4c72b0; fill-opacity: 0.5; stroke: #ffffff; stroke-width: 0.301948; stroke-linejoin: miter"/>
   </g>
   <g id="patch_157">
    <path d="M 580.363636 256.32 
L 583.383117 256.32 
L 583.383117 256.32 
L 580.363636 256.32 
z
" clip-path="url(#p87bfa62d13)" style="fill: #4c72b0; fill-opacity: 0.5; stroke: #ffffff; stroke-width: 0.301948; stroke-linejoin: miter"/>
   </g>
   <g id="patch_158">
    <path d="M 583.383117 256.32 
L 586.402597 256.32 
L 586.402597 256.32 
L 583.383117 256.32 
z
" clip-path="url(#p87bfa62d13)" style="fill: #4c72b0; fill-opacity: 0.5; stroke: #ffffff; stroke-width: 0.301948; stroke-linejoin: miter"/>
   </g>
   <g id="patch_159">
    <path d="M 586.402597 256.32 
L 589.422078 256.32 
L 589.422078 256.32 
L 586.402597 256.32 
z
" clip-path="url(#p87bfa62d13)" style="fill: #4c72b0; fill-opacity: 0.5; stroke: #ffffff; stroke-width: 0.301948; stroke-linejoin: miter"/>
   </g>
   <g id="patch_160">
    <path d="M 589.422078 256.32 
L 592.441558 256.32 
L 592.441558 256.32 
L 589.422078 256.32 
z
" clip-path="url(#p87bfa62d13)" style="fill: #4c72b0; fill-opacity: 0.5; stroke: #ffffff; stroke-width: 0.301948; stroke-linejoin: miter"/>
   </g>
   <g id="patch_161">
    <path d="M 592.441558 256.32 
L 595.461039 256.32 
L 595.461039 256.32 
L 592.441558 256.32 
z
" clip-path="url(#p87bfa62d13)" style="fill: #4c72b0; fill-opacity: 0.5; stroke: #ffffff; stroke-width: 0.301948; stroke-linejoin: miter"/>
   </g>
   <g id="patch_162">
    <path d="M 595.461039 256.32 
L 598.480519 256.32 
L 598.480519 256.32 
L 595.461039 256.32 
z
" clip-path="url(#p87bfa62d13)" style="fill: #4c72b0; fill-opacity: 0.5; stroke: #ffffff; stroke-width: 0.301948; stroke-linejoin: miter"/>
   </g>
   <g id="patch_163">
    <path d="M 598.480519 256.32 
L 601.5 256.32 
L 601.5 256.32 
L 598.480519 256.32 
z
" clip-path="url(#p87bfa62d13)" style="fill: #4c72b0; fill-opacity: 0.5; stroke: #ffffff; stroke-width: 0.301948; stroke-linejoin: miter"/>
   </g>
   <g id="patch_164">
    <path d="M 601.5 256.32 
L 604.519481 256.32 
L 604.519481 256.109432 
L 601.5 256.109432 
z
" clip-path="url(#p87bfa62d13)" style="fill: #4c72b0; fill-opacity: 0.5; stroke: #ffffff; stroke-width: 0.301948; stroke-linejoin: miter"/>
   </g>
   <g id="patch_165">
    <path d="M 604.519481 256.32 
L 607.538961 256.32 
L 607.538961 256.32 
L 604.519481 256.32 
z
" clip-path="url(#p87bfa62d13)" style="fill: #4c72b0; fill-opacity: 0.5; stroke: #ffffff; stroke-width: 0.301948; stroke-linejoin: miter"/>
   </g>
   <g id="patch_166">
    <path d="M 607.538961 256.32 
L 610.558442 256.32 
L 610.558442 256.32 
L 607.538961 256.32 
z
" clip-path="url(#p87bfa62d13)" style="fill: #4c72b0; fill-opacity: 0.5; stroke: #ffffff; stroke-width: 0.301948; stroke-linejoin: miter"/>
   </g>
   <g id="patch_167">
    <path d="M 610.558442 256.32 
L 613.577922 256.32 
L 613.577922 256.32 
L 610.558442 256.32 
z
" clip-path="url(#p87bfa62d13)" style="fill: #4c72b0; fill-opacity: 0.5; stroke: #ffffff; stroke-width: 0.301948; stroke-linejoin: miter"/>
   </g>
   <g id="patch_168">
    <path d="M 613.577922 256.32 
L 616.597403 256.32 
L 616.597403 256.32 
L 613.577922 256.32 
z
" clip-path="url(#p87bfa62d13)" style="fill: #4c72b0; fill-opacity: 0.5; stroke: #ffffff; stroke-width: 0.301948; stroke-linejoin: miter"/>
   </g>
   <g id="patch_169">
    <path d="M 616.597403 256.32 
L 619.616883 256.32 
L 619.616883 256.214716 
L 616.597403 256.214716 
z
" clip-path="url(#p87bfa62d13)" style="fill: #4c72b0; fill-opacity: 0.5; stroke: #ffffff; stroke-width: 0.301948; stroke-linejoin: miter"/>
   </g>
   <g id="patch_170">
    <path d="M 619.616883 256.32 
L 622.636364 256.32 
L 622.636364 253.79318 
L 619.616883 253.79318 
z
" clip-path="url(#p87bfa62d13)" style="fill: #4c72b0; fill-opacity: 0.5; stroke: #ffffff; stroke-width: 0.301948; stroke-linejoin: miter"/>
   </g>
   <g id="line2d_16">
    <path d="M 115.363636 224.332668 
L 117.912746 203.391402 
L 120.461855 177.621651 
L 125.560073 121.223228 
L 128.109182 96.685801 
L 130.658291 78.640736 
L 133.207401 68.707577 
L 135.75651 66.324312 
L 138.305619 69.150947 
L 140.854728 74.472521 
L 148.502056 92.209128 
L 151.051165 97.509857 
L 153.600274 101.619915 
L 156.149383 103.840553 
L 158.698492 104.034823 
L 161.247602 102.826312 
L 163.796711 101.21068 
L 166.34582 99.940266 
L 168.894929 99.275183 
L 171.444038 99.253942 
L 173.993148 100.074713 
L 176.542257 102.162518 
L 179.091366 105.917601 
L 181.640475 111.437828 
L 184.189584 118.440503 
L 191.836912 142.444668 
L 194.386021 149.681853 
L 196.93513 156.293769 
L 199.484239 162.466234 
L 202.033349 168.277956 
L 204.582458 173.624989 
L 207.131567 178.406575 
L 209.680676 182.70097 
L 214.778894 190.57884 
L 217.328004 194.23859 
L 219.877113 197.548643 
L 222.426222 200.479014 
L 227.52444 205.746589 
L 230.07355 208.215207 
L 232.622659 210.482938 
L 237.720877 214.632531 
L 240.269986 216.891252 
L 245.368205 222.04512 
L 247.917314 224.616147 
L 250.466423 226.94398 
L 253.015532 228.971329 
L 255.564641 230.746112 
L 258.113751 232.338878 
L 260.66286 233.765206 
L 263.211969 234.996731 
L 268.310187 236.996903 
L 273.408406 239.052695 
L 281.055733 242.404054 
L 283.604842 243.423578 
L 286.153952 244.310361 
L 288.703061 245.01598 
L 293.801279 246.018474 
L 298.899497 246.981657 
L 303.997716 248.150704 
L 309.095934 249.424483 
L 311.645043 249.952418 
L 316.743262 250.616084 
L 321.84148 251.188304 
L 329.488808 252.159184 
L 339.685244 253.154545 
L 347.332572 254.219271 
L 352.43079 254.612553 
L 362.627227 255.007302 
L 393.216537 255.383875 
L 405.962083 254.954177 
L 413.609411 255.248392 
L 421.256738 255.487584 
L 431.453175 255.500393 
L 449.296939 255.502324 
L 462.042485 255.916821 
L 469.689813 256.05904 
L 482.435359 256.043456 
L 505.377341 255.967596 
L 515.573778 256.051722 
L 528.319324 256.121077 
L 538.515761 256.161114 
L 546.163088 256.130243 
L 561.457743 256.219629 
L 576.752398 256.296792 
L 597.145272 256.290919 
L 612.439927 256.192846 
L 622.636364 255.761254 
L 622.636364 255.761254 
" clip-path="url(#p87bfa62d13)" style="fill: none; stroke: #4c72b0; stroke-width: 1.5; stroke-linecap: round"/>
   </g>
   <g id="patch_171">
    <path d="M 90 256.32 
L 90 34.56 
" style="fill: none; stroke: #cccccc; stroke-width: 1.25; stroke-linejoin: miter; stroke-linecap: square"/>
   </g>
   <g id="patch_172">
    <path d="M 648 256.32 
L 648 34.56 
" style="fill: none; stroke: #cccccc; stroke-width: 1.25; stroke-linejoin: miter; stroke-linecap: square"/>
   </g>
   <g id="patch_173">
    <path d="M 90 256.32 
L 648 256.32 
" style="fill: none; stroke: #cccccc; stroke-width: 1.25; stroke-linejoin: miter; stroke-linecap: square"/>
   </g>
   <g id="patch_174">
    <path d="M 90 34.56 
L 648 34.56 
" style="fill: none; stroke: #cccccc; stroke-width: 1.25; stroke-linejoin: miter; stroke-linecap: square"/>
   </g>
   <g id="text_18">
    <!-- Histogramm von attr_index_norm -->
    <g style="fill: #262626" transform="translate(268.247813 28.56) scale(0.12 -0.12)">
     <defs>
      <path id="DejaVuSans-73" d="M 2834 3397 
L 2834 2853 
Q 2591 2978 2328 3040 
Q 2066 3103 1784 3103 
Q 1356 3103 1142 2972 
Q 928 2841 928 2578 
Q 928 2378 1081 2264 
Q 1234 2150 1697 2047 
L 1894 2003 
Q 2506 1872 2764 1633 
Q 3022 1394 3022 966 
Q 3022 478 2636 193 
Q 2250 -91 1575 -91 
Q 1294 -91 989 -36 
Q 684 19 347 128 
L 347 722 
Q 666 556 975 473 
Q 1284 391 1588 391 
Q 1994 391 2212 530 
Q 2431 669 2431 922 
Q 2431 1156 2273 1281 
Q 2116 1406 1581 1522 
L 1381 1569 
Q 847 1681 609 1914 
Q 372 2147 372 2553 
Q 372 3047 722 3315 
Q 1072 3584 1716 3584 
Q 2034 3584 2315 3537 
Q 2597 3491 2834 3397 
z
" transform="scale(0.015625)"/>
      <path id="DejaVuSans-20" transform="scale(0.015625)"/>
      <path id="DejaVuSans-76" d="M 191 3500 
L 800 3500 
L 1894 563 
L 2988 3500 
L 3597 3500 
L 2284 0 
L 1503 0 
L 191 3500 
z
" transform="scale(0.015625)"/>
     </defs>
     <use xlink:href="#DejaVuSans-48"/>
     <use xlink:href="#DejaVuSans-69" x="75.195312"/>
     <use xlink:href="#DejaVuSans-73" x="102.978516"/>
     <use xlink:href="#DejaVuSans-74" x="155.078125"/>
     <use xlink:href="#DejaVuSans-6f" x="194.287109"/>
     <use xlink:href="#DejaVuSans-67" x="255.46875"/>
     <use xlink:href="#DejaVuSans-72" x="318.945312"/>
     <use xlink:href="#DejaVuSans-61" x="360.058594"/>
     <use xlink:href="#DejaVuSans-6d" x="421.337891"/>
     <use xlink:href="#DejaVuSans-6d" x="518.75"/>
     <use xlink:href="#DejaVuSans-20" x="616.162109"/>
     <use xlink:href="#DejaVuSans-76" x="647.949219"/>
     <use xlink:href="#DejaVuSans-6f" x="707.128906"/>
     <use xlink:href="#DejaVuSans-6e" x="768.310547"/>
     <use xlink:href="#DejaVuSans-20" x="831.689453"/>
     <use xlink:href="#DejaVuSans-61" x="863.476562"/>
     <use xlink:href="#DejaVuSans-74" x="924.755859"/>
     <use xlink:href="#DejaVuSans-74" x="963.964844"/>
     <use xlink:href="#DejaVuSans-72" x="1003.173828"/>
     <use xlink:href="#DejaVuSans-5f" x="1044.287109"/>
     <use xlink:href="#DejaVuSans-69" x="1094.287109"/>
     <use xlink:href="#DejaVuSans-6e" x="1122.070312"/>
     <use xlink:href="#DejaVuSans-64" x="1185.449219"/>
     <use xlink:href="#DejaVuSans-65" x="1248.925781"/>
     <use xlink:href="#DejaVuSans-78" x="1308.699219"/>
     <use xlink:href="#DejaVuSans-5f" x="1367.878906"/>
     <use xlink:href="#DejaVuSans-6e" x="1417.878906"/>
     <use xlink:href="#DejaVuSans-6f" x="1481.257812"/>
     <use xlink:href="#DejaVuSans-72" x="1542.439453"/>
     <use xlink:href="#DejaVuSans-6d" x="1581.802734"/>
    </g>
   </g>
  </g>
 </g>
 <defs>
  <clipPath id="p87bfa62d13">
   <rect x="90" y="34.56" width="558" height="221.76"/>
  </clipPath>
 </defs>
</svg>
