<?xml version="1.0" encoding="utf-8" standalone="no"?>
<!DOCTYPE svg PUBLIC "-//W3C//DTD SVG 1.1//EN"
  "http://www.w3.org/Graphics/SVG/1.1/DTD/svg11.dtd">
<svg xmlns:xlink="http://www.w3.org/1999/xlink" width="720pt" height="288pt" viewBox="0 0 720 288" xmlns="http://www.w3.org/2000/svg" version="1.1">
 <metadata>
  <rdf:RDF xmlns:dc="http://purl.org/dc/elements/1.1/" xmlns:cc="http://creativecommons.org/ns#" xmlns:rdf="http://www.w3.org/1999/02/22-rdf-syntax-ns#">
   <cc:Work>
    <dc:type rdf:resource="http://purl.org/dc/dcmitype/StillImage"/>
    <dc:date>2024-01-22T22:20:44.095886</dc:date>
    <dc:format>image/svg+xml</dc:format>
    <dc:creator>
     <cc:Agent>
      <dc:title>Matplotlib v3.8.2, https://matplotlib.org/</dc:title>
     </cc:Agent>
    </dc:creator>
   </cc:Work>
  </rdf:RDF>
 </metadata>
 <defs>
  <style type="text/css">*{stroke-linejoin: round; stroke-linecap: butt}</style>
 </defs>
 <g id="figure_1">
  <g id="patch_1">
   <path d="M 0 288 
L 720 288 
L 720 0 
L 0 0 
z
" style="fill: #ffffff"/>
  </g>
  <g id="axes_1">
   <g id="patch_2">
    <path d="M 90 256.32 
L 648 256.32 
L 648 34.56 
L 90 34.56 
z
" style="fill: #ffffff"/>
   </g>
   <g id="matplotlib.axis_1">
    <g id="xtick_1">
     <g id="line2d_1">
      <path d="M 115.363636 256.32 
L 115.363636 34.56 
" clip-path="url(#p6be24c6532)" style="fill: none; stroke: #cccccc; stroke-linecap: round"/>
     </g>
     <g id="text_1">
      <!-- 2 -->
      <g style="fill: #262626" transform="translate(111.864261 274.178281) scale(0.11 -0.11)">
       <defs>
        <path id="DejaVuSans-32" d="M 1228 531 
L 3431 531 
L 3431 0 
L 469 0 
L 469 531 
Q 828 903 1448 1529 
Q 2069 2156 2228 2338 
Q 2531 2678 2651 2914 
Q 2772 3150 2772 3378 
Q 2772 3750 2511 3984 
Q 2250 4219 1831 4219 
Q 1534 4219 1204 4116 
Q 875 4013 500 3803 
L 500 4441 
Q 881 4594 1212 4672 
Q 1544 4750 1819 4750 
Q 2544 4750 2975 4387 
Q 3406 4025 3406 3419 
Q 3406 3131 3298 2873 
Q 3191 2616 2906 2266 
Q 2828 2175 2409 1742 
Q 1991 1309 1228 531 
z
" transform="scale(0.015625)"/>
       </defs>
       <use xlink:href="#DejaVuSans-32"/>
      </g>
     </g>
    </g>
    <g id="xtick_2">
     <g id="line2d_2">
      <path d="M 178.772727 256.32 
L 178.772727 34.56 
" clip-path="url(#p6be24c6532)" style="fill: none; stroke: #cccccc; stroke-linecap: round"/>
     </g>
     <g id="text_2">
      <!-- 3 -->
      <g style="fill: #262626" transform="translate(175.273352 274.178281) scale(0.11 -0.11)">
       <defs>
        <path id="DejaVuSans-33" d="M 2597 2516 
Q 3050 2419 3304 2112 
Q 3559 1806 3559 1356 
Q 3559 666 3084 287 
Q 2609 -91 1734 -91 
Q 1441 -91 1130 -33 
Q 819 25 488 141 
L 488 750 
Q 750 597 1062 519 
Q 1375 441 1716 441 
Q 2309 441 2620 675 
Q 2931 909 2931 1356 
Q 2931 1769 2642 2001 
Q 2353 2234 1838 2234 
L 1294 2234 
L 1294 2753 
L 1863 2753 
Q 2328 2753 2575 2939 
Q 2822 3125 2822 3475 
Q 2822 3834 2567 4026 
Q 2313 4219 1838 4219 
Q 1578 4219 1281 4162 
Q 984 4106 628 3988 
L 628 4550 
Q 988 4650 1302 4700 
Q 1616 4750 1894 4750 
Q 2613 4750 3031 4423 
Q 3450 4097 3450 3541 
Q 3450 3153 3228 2886 
Q 3006 2619 2597 2516 
z
" transform="scale(0.015625)"/>
       </defs>
       <use xlink:href="#DejaVuSans-33"/>
      </g>
     </g>
    </g>
    <g id="xtick_3">
     <g id="line2d_3">
      <path d="M 242.181818 256.32 
L 242.181818 34.56 
" clip-path="url(#p6be24c6532)" style="fill: none; stroke: #cccccc; stroke-linecap: round"/>
     </g>
     <g id="text_3">
      <!-- 4 -->
      <g style="fill: #262626" transform="translate(238.682443 274.178281) scale(0.11 -0.11)">
       <defs>
        <path id="DejaVuSans-34" d="M 2419 4116 
L 825 1625 
L 2419 1625 
L 2419 4116 
z
M 2253 4666 
L 3047 4666 
L 3047 1625 
L 3713 1625 
L 3713 1100 
L 3047 1100 
L 3047 0 
L 2419 0 
L 2419 1100 
L 313 1100 
L 313 1709 
L 2253 4666 
z
" transform="scale(0.015625)"/>
       </defs>
       <use xlink:href="#DejaVuSans-34"/>
      </g>
     </g>
    </g>
    <g id="xtick_4">
     <g id="line2d_4">
      <path d="M 305.590909 256.32 
L 305.590909 34.56 
" clip-path="url(#p6be24c6532)" style="fill: none; stroke: #cccccc; stroke-linecap: round"/>
     </g>
     <g id="text_4">
      <!-- 5 -->
      <g style="fill: #262626" transform="translate(302.091534 274.178281) scale(0.11 -0.11)">
       <defs>
        <path id="DejaVuSans-35" d="M 691 4666 
L 3169 4666 
L 3169 4134 
L 1269 4134 
L 1269 2991 
Q 1406 3038 1543 3061 
Q 1681 3084 1819 3084 
Q 2600 3084 3056 2656 
Q 3513 2228 3513 1497 
Q 3513 744 3044 326 
Q 2575 -91 1722 -91 
Q 1428 -91 1123 -41 
Q 819 9 494 109 
L 494 744 
Q 775 591 1075 516 
Q 1375 441 1709 441 
Q 2250 441 2565 725 
Q 2881 1009 2881 1497 
Q 2881 1984 2565 2268 
Q 2250 2553 1709 2553 
Q 1456 2553 1204 2497 
Q 953 2441 691 2322 
L 691 4666 
z
" transform="scale(0.015625)"/>
       </defs>
       <use xlink:href="#DejaVuSans-35"/>
      </g>
     </g>
    </g>
    <g id="xtick_5">
     <g id="line2d_5">
      <path d="M 369 256.32 
L 369 34.56 
" clip-path="url(#p6be24c6532)" style="fill: none; stroke: #cccccc; stroke-linecap: round"/>
     </g>
     <g id="text_5">
      <!-- 6 -->
      <g style="fill: #262626" transform="translate(365.500625 274.178281) scale(0.11 -0.11)">
       <defs>
        <path id="DejaVuSans-36" d="M 2113 2584 
Q 1688 2584 1439 2293 
Q 1191 2003 1191 1497 
Q 1191 994 1439 701 
Q 1688 409 2113 409 
Q 2538 409 2786 701 
Q 3034 994 3034 1497 
Q 3034 2003 2786 2293 
Q 2538 2584 2113 2584 
z
M 3366 4563 
L 3366 3988 
Q 3128 4100 2886 4159 
Q 2644 4219 2406 4219 
Q 1781 4219 1451 3797 
Q 1122 3375 1075 2522 
Q 1259 2794 1537 2939 
Q 1816 3084 2150 3084 
Q 2853 3084 3261 2657 
Q 3669 2231 3669 1497 
Q 3669 778 3244 343 
Q 2819 -91 2113 -91 
Q 1303 -91 875 529 
Q 447 1150 447 2328 
Q 447 3434 972 4092 
Q 1497 4750 2381 4750 
Q 2619 4750 2861 4703 
Q 3103 4656 3366 4563 
z
" transform="scale(0.015625)"/>
       </defs>
       <use xlink:href="#DejaVuSans-36"/>
      </g>
     </g>
    </g>
    <g id="xtick_6">
     <g id="line2d_6">
      <path d="M 432.409091 256.32 
L 432.409091 34.56 
" clip-path="url(#p6be24c6532)" style="fill: none; stroke: #cccccc; stroke-linecap: round"/>
     </g>
     <g id="text_6">
      <!-- 7 -->
      <g style="fill: #262626" transform="translate(428.909716 274.178281) scale(0.11 -0.11)">
       <defs>
        <path id="DejaVuSans-37" d="M 525 4666 
L 3525 4666 
L 3525 4397 
L 1831 0 
L 1172 0 
L 2766 4134 
L 525 4134 
L 525 4666 
z
" transform="scale(0.015625)"/>
       </defs>
       <use xlink:href="#DejaVuSans-37"/>
      </g>
     </g>
    </g>
    <g id="xtick_7">
     <g id="line2d_7">
      <path d="M 495.818182 256.32 
L 495.818182 34.56 
" clip-path="url(#p6be24c6532)" style="fill: none; stroke: #cccccc; stroke-linecap: round"/>
     </g>
     <g id="text_7">
      <!-- 8 -->
      <g style="fill: #262626" transform="translate(492.318807 274.178281) scale(0.11 -0.11)">
       <defs>
        <path id="DejaVuSans-38" d="M 2034 2216 
Q 1584 2216 1326 1975 
Q 1069 1734 1069 1313 
Q 1069 891 1326 650 
Q 1584 409 2034 409 
Q 2484 409 2743 651 
Q 3003 894 3003 1313 
Q 3003 1734 2745 1975 
Q 2488 2216 2034 2216 
z
M 1403 2484 
Q 997 2584 770 2862 
Q 544 3141 544 3541 
Q 544 4100 942 4425 
Q 1341 4750 2034 4750 
Q 2731 4750 3128 4425 
Q 3525 4100 3525 3541 
Q 3525 3141 3298 2862 
Q 3072 2584 2669 2484 
Q 3125 2378 3379 2068 
Q 3634 1759 3634 1313 
Q 3634 634 3220 271 
Q 2806 -91 2034 -91 
Q 1263 -91 848 271 
Q 434 634 434 1313 
Q 434 1759 690 2068 
Q 947 2378 1403 2484 
z
M 1172 3481 
Q 1172 3119 1398 2916 
Q 1625 2713 2034 2713 
Q 2441 2713 2670 2916 
Q 2900 3119 2900 3481 
Q 2900 3844 2670 4047 
Q 2441 4250 2034 4250 
Q 1625 4250 1398 4047 
Q 1172 3844 1172 3481 
z
" transform="scale(0.015625)"/>
       </defs>
       <use xlink:href="#DejaVuSans-38"/>
      </g>
     </g>
    </g>
    <g id="xtick_8">
     <g id="line2d_8">
      <path d="M 559.227273 256.32 
L 559.227273 34.56 
" clip-path="url(#p6be24c6532)" style="fill: none; stroke: #cccccc; stroke-linecap: round"/>
     </g>
     <g id="text_8">
      <!-- 9 -->
      <g style="fill: #262626" transform="translate(555.727898 274.178281) scale(0.11 -0.11)">
       <defs>
        <path id="DejaVuSans-39" d="M 703 97 
L 703 672 
Q 941 559 1184 500 
Q 1428 441 1663 441 
Q 2288 441 2617 861 
Q 2947 1281 2994 2138 
Q 2813 1869 2534 1725 
Q 2256 1581 1919 1581 
Q 1219 1581 811 2004 
Q 403 2428 403 3163 
Q 403 3881 828 4315 
Q 1253 4750 1959 4750 
Q 2769 4750 3195 4129 
Q 3622 3509 3622 2328 
Q 3622 1225 3098 567 
Q 2575 -91 1691 -91 
Q 1453 -91 1209 -44 
Q 966 3 703 97 
z
M 1959 2075 
Q 2384 2075 2632 2365 
Q 2881 2656 2881 3163 
Q 2881 3666 2632 3958 
Q 2384 4250 1959 4250 
Q 1534 4250 1286 3958 
Q 1038 3666 1038 3163 
Q 1038 2656 1286 2365 
Q 1534 2075 1959 2075 
z
" transform="scale(0.015625)"/>
       </defs>
       <use xlink:href="#DejaVuSans-39"/>
      </g>
     </g>
    </g>
    <g id="xtick_9">
     <g id="line2d_9">
      <path d="M 622.636364 256.32 
L 622.636364 34.56 
" clip-path="url(#p6be24c6532)" style="fill: none; stroke: #cccccc; stroke-linecap: round"/>
     </g>
     <g id="text_9">
      <!-- 10 -->
      <g style="fill: #262626" transform="translate(615.637614 274.178281) scale(0.11 -0.11)">
       <defs>
        <path id="DejaVuSans-31" d="M 794 531 
L 1825 531 
L 1825 4091 
L 703 3866 
L 703 4441 
L 1819 4666 
L 2450 4666 
L 2450 531 
L 3481 531 
L 3481 0 
L 794 0 
L 794 531 
z
" transform="scale(0.015625)"/>
        <path id="DejaVuSans-30" d="M 2034 4250 
Q 1547 4250 1301 3770 
Q 1056 3291 1056 2328 
Q 1056 1369 1301 889 
Q 1547 409 2034 409 
Q 2525 409 2770 889 
Q 3016 1369 3016 2328 
Q 3016 3291 2770 3770 
Q 2525 4250 2034 4250 
z
M 2034 4750 
Q 2819 4750 3233 4129 
Q 3647 3509 3647 2328 
Q 3647 1150 3233 529 
Q 2819 -91 2034 -91 
Q 1250 -91 836 529 
Q 422 1150 422 2328 
Q 422 3509 836 4129 
Q 1250 4750 2034 4750 
z
" transform="scale(0.015625)"/>
       </defs>
       <use xlink:href="#DejaVuSans-31"/>
       <use xlink:href="#DejaVuSans-30" x="63.623047"/>
      </g>
     </g>
    </g>
    <g id="text_10">
     <!-- cleanliness_rating -->
     <g style="fill: #262626" transform="translate(315.009375 289.584063) scale(0.12 -0.12)">
      <defs>
       <path id="DejaVuSans-63" d="M 3122 3366 
L 3122 2828 
Q 2878 2963 2633 3030 
Q 2388 3097 2138 3097 
Q 1578 3097 1268 2742 
Q 959 2388 959 1747 
Q 959 1106 1268 751 
Q 1578 397 2138 397 
Q 2388 397 2633 464 
Q 2878 531 3122 666 
L 3122 134 
Q 2881 22 2623 -34 
Q 2366 -91 2075 -91 
Q 1284 -91 818 406 
Q 353 903 353 1747 
Q 353 2603 823 3093 
Q 1294 3584 2113 3584 
Q 2378 3584 2631 3529 
Q 2884 3475 3122 3366 
z
" transform="scale(0.015625)"/>
       <path id="DejaVuSans-6c" d="M 603 4863 
L 1178 4863 
L 1178 0 
L 603 0 
L 603 4863 
z
" transform="scale(0.015625)"/>
       <path id="DejaVuSans-65" d="M 3597 1894 
L 3597 1613 
L 953 1613 
Q 991 1019 1311 708 
Q 1631 397 2203 397 
Q 2534 397 2845 478 
Q 3156 559 3463 722 
L 3463 178 
Q 3153 47 2828 -22 
Q 2503 -91 2169 -91 
Q 1331 -91 842 396 
Q 353 884 353 1716 
Q 353 2575 817 3079 
Q 1281 3584 2069 3584 
Q 2775 3584 3186 3129 
Q 3597 2675 3597 1894 
z
M 3022 2063 
Q 3016 2534 2758 2815 
Q 2500 3097 2075 3097 
Q 1594 3097 1305 2825 
Q 1016 2553 972 2059 
L 3022 2063 
z
" transform="scale(0.015625)"/>
       <path id="DejaVuSans-61" d="M 2194 1759 
Q 1497 1759 1228 1600 
Q 959 1441 959 1056 
Q 959 750 1161 570 
Q 1363 391 1709 391 
Q 2188 391 2477 730 
Q 2766 1069 2766 1631 
L 2766 1759 
L 2194 1759 
z
M 3341 1997 
L 3341 0 
L 2766 0 
L 2766 531 
Q 2569 213 2275 61 
Q 1981 -91 1556 -91 
Q 1019 -91 701 211 
Q 384 513 384 1019 
Q 384 1609 779 1909 
Q 1175 2209 1959 2209 
L 2766 2209 
L 2766 2266 
Q 2766 2663 2505 2880 
Q 2244 3097 1772 3097 
Q 1472 3097 1187 3025 
Q 903 2953 641 2809 
L 641 3341 
Q 956 3463 1253 3523 
Q 1550 3584 1831 3584 
Q 2591 3584 2966 3190 
Q 3341 2797 3341 1997 
z
" transform="scale(0.015625)"/>
       <path id="DejaVuSans-6e" d="M 3513 2113 
L 3513 0 
L 2938 0 
L 2938 2094 
Q 2938 2591 2744 2837 
Q 2550 3084 2163 3084 
Q 1697 3084 1428 2787 
Q 1159 2491 1159 1978 
L 1159 0 
L 581 0 
L 581 3500 
L 1159 3500 
L 1159 2956 
Q 1366 3272 1645 3428 
Q 1925 3584 2291 3584 
Q 2894 3584 3203 3211 
Q 3513 2838 3513 2113 
z
" transform="scale(0.015625)"/>
       <path id="DejaVuSans-69" d="M 603 3500 
L 1178 3500 
L 1178 0 
L 603 0 
L 603 3500 
z
M 603 4863 
L 1178 4863 
L 1178 4134 
L 603 4134 
L 603 4863 
z
" transform="scale(0.015625)"/>
       <path id="DejaVuSans-73" d="M 2834 3397 
L 2834 2853 
Q 2591 2978 2328 3040 
Q 2066 3103 1784 3103 
Q 1356 3103 1142 2972 
Q 928 2841 928 2578 
Q 928 2378 1081 2264 
Q 1234 2150 1697 2047 
L 1894 2003 
Q 2506 1872 2764 1633 
Q 3022 1394 3022 966 
Q 3022 478 2636 193 
Q 2250 -91 1575 -91 
Q 1294 -91 989 -36 
Q 684 19 347 128 
L 347 722 
Q 666 556 975 473 
Q 1284 391 1588 391 
Q 1994 391 2212 530 
Q 2431 669 2431 922 
Q 2431 1156 2273 1281 
Q 2116 1406 1581 1522 
L 1381 1569 
Q 847 1681 609 1914 
Q 372 2147 372 2553 
Q 372 3047 722 3315 
Q 1072 3584 1716 3584 
Q 2034 3584 2315 3537 
Q 2597 3491 2834 3397 
z
" transform="scale(0.015625)"/>
       <path id="DejaVuSans-5f" d="M 3263 -1063 
L 3263 -1509 
L -63 -1509 
L -63 -1063 
L 3263 -1063 
z
" transform="scale(0.015625)"/>
       <path id="DejaVuSans-72" d="M 2631 2963 
Q 2534 3019 2420 3045 
Q 2306 3072 2169 3072 
Q 1681 3072 1420 2755 
Q 1159 2438 1159 1844 
L 1159 0 
L 581 0 
L 581 3500 
L 1159 3500 
L 1159 2956 
Q 1341 3275 1631 3429 
Q 1922 3584 2338 3584 
Q 2397 3584 2469 3576 
Q 2541 3569 2628 3553 
L 2631 2963 
z
" transform="scale(0.015625)"/>
       <path id="DejaVuSans-74" d="M 1172 4494 
L 1172 3500 
L 2356 3500 
L 2356 3053 
L 1172 3053 
L 1172 1153 
Q 1172 725 1289 603 
Q 1406 481 1766 481 
L 2356 481 
L 2356 0 
L 1766 0 
Q 1100 0 847 248 
Q 594 497 594 1153 
L 594 3053 
L 172 3053 
L 172 3500 
L 594 3500 
L 594 4494 
L 1172 4494 
z
" transform="scale(0.015625)"/>
       <path id="DejaVuSans-67" d="M 2906 1791 
Q 2906 2416 2648 2759 
Q 2391 3103 1925 3103 
Q 1463 3103 1205 2759 
Q 947 2416 947 1791 
Q 947 1169 1205 825 
Q 1463 481 1925 481 
Q 2391 481 2648 825 
Q 2906 1169 2906 1791 
z
M 3481 434 
Q 3481 -459 3084 -895 
Q 2688 -1331 1869 -1331 
Q 1566 -1331 1297 -1286 
Q 1028 -1241 775 -1147 
L 775 -588 
Q 1028 -725 1275 -790 
Q 1522 -856 1778 -856 
Q 2344 -856 2625 -561 
Q 2906 -266 2906 331 
L 2906 616 
Q 2728 306 2450 153 
Q 2172 0 1784 0 
Q 1141 0 747 490 
Q 353 981 353 1791 
Q 353 2603 747 3093 
Q 1141 3584 1784 3584 
Q 2172 3584 2450 3431 
Q 2728 3278 2906 2969 
L 2906 3500 
L 3481 3500 
L 3481 434 
z
" transform="scale(0.015625)"/>
      </defs>
      <use xlink:href="#DejaVuSans-63"/>
      <use xlink:href="#DejaVuSans-6c" x="54.980469"/>
      <use xlink:href="#DejaVuSans-65" x="82.763672"/>
      <use xlink:href="#DejaVuSans-61" x="144.287109"/>
      <use xlink:href="#DejaVuSans-6e" x="205.566406"/>
      <use xlink:href="#DejaVuSans-6c" x="268.945312"/>
      <use xlink:href="#DejaVuSans-69" x="296.728516"/>
      <use xlink:href="#DejaVuSans-6e" x="324.511719"/>
      <use xlink:href="#DejaVuSans-65" x="387.890625"/>
      <use xlink:href="#DejaVuSans-73" x="449.414062"/>
      <use xlink:href="#DejaVuSans-73" x="501.513672"/>
      <use xlink:href="#DejaVuSans-5f" x="553.613281"/>
      <use xlink:href="#DejaVuSans-72" x="603.613281"/>
      <use xlink:href="#DejaVuSans-61" x="644.726562"/>
      <use xlink:href="#DejaVuSans-74" x="706.005859"/>
      <use xlink:href="#DejaVuSans-69" x="745.214844"/>
      <use xlink:href="#DejaVuSans-6e" x="772.998047"/>
      <use xlink:href="#DejaVuSans-67" x="836.376953"/>
     </g>
    </g>
   </g>
   <g id="matplotlib.axis_2">
    <g id="ytick_1">
     <g id="line2d_10">
      <path d="M 90 256.32 
L 648 256.32 
" clip-path="url(#p6be24c6532)" style="fill: none; stroke: #cccccc; stroke-linecap: round"/>
     </g>
     <g id="text_11">
      <!-- 0 -->
      <g style="fill: #262626" transform="translate(73.50125 260.499141) scale(0.11 -0.11)">
       <use xlink:href="#DejaVuSans-30"/>
      </g>
     </g>
    </g>
    <g id="ytick_2">
     <g id="line2d_11">
      <path d="M 90 220.85996 
L 648 220.85996 
" clip-path="url(#p6be24c6532)" style="fill: none; stroke: #cccccc; stroke-linecap: round"/>
     </g>
     <g id="text_12">
      <!-- 5000 -->
      <g style="fill: #262626" transform="translate(52.505 225.0391) scale(0.11 -0.11)">
       <use xlink:href="#DejaVuSans-35"/>
       <use xlink:href="#DejaVuSans-30" x="63.623047"/>
       <use xlink:href="#DejaVuSans-30" x="127.246094"/>
       <use xlink:href="#DejaVuSans-30" x="190.869141"/>
      </g>
     </g>
    </g>
    <g id="ytick_3">
     <g id="line2d_12">
      <path d="M 90 185.399919 
L 648 185.399919 
" clip-path="url(#p6be24c6532)" style="fill: none; stroke: #cccccc; stroke-linecap: round"/>
     </g>
     <g id="text_13">
      <!-- 10000 -->
      <g style="fill: #262626" transform="translate(45.50625 189.57906) scale(0.11 -0.11)">
       <use xlink:href="#DejaVuSans-31"/>
       <use xlink:href="#DejaVuSans-30" x="63.623047"/>
       <use xlink:href="#DejaVuSans-30" x="127.246094"/>
       <use xlink:href="#DejaVuSans-30" x="190.869141"/>
       <use xlink:href="#DejaVuSans-30" x="254.492188"/>
      </g>
     </g>
    </g>
    <g id="ytick_4">
     <g id="line2d_13">
      <path d="M 90 149.939879 
L 648 149.939879 
" clip-path="url(#p6be24c6532)" style="fill: none; stroke: #cccccc; stroke-linecap: round"/>
     </g>
     <g id="text_14">
      <!-- 15000 -->
      <g style="fill: #262626" transform="translate(45.50625 154.11902) scale(0.11 -0.11)">
       <use xlink:href="#DejaVuSans-31"/>
       <use xlink:href="#DejaVuSans-35" x="63.623047"/>
       <use xlink:href="#DejaVuSans-30" x="127.246094"/>
       <use xlink:href="#DejaVuSans-30" x="190.869141"/>
       <use xlink:href="#DejaVuSans-30" x="254.492188"/>
      </g>
     </g>
    </g>
    <g id="ytick_5">
     <g id="line2d_14">
      <path d="M 90 114.479839 
L 648 114.479839 
" clip-path="url(#p6be24c6532)" style="fill: none; stroke: #cccccc; stroke-linecap: round"/>
     </g>
     <g id="text_15">
      <!-- 20000 -->
      <g style="fill: #262626" transform="translate(45.50625 118.658979) scale(0.11 -0.11)">
       <use xlink:href="#DejaVuSans-32"/>
       <use xlink:href="#DejaVuSans-30" x="63.623047"/>
       <use xlink:href="#DejaVuSans-30" x="127.246094"/>
       <use xlink:href="#DejaVuSans-30" x="190.869141"/>
       <use xlink:href="#DejaVuSans-30" x="254.492188"/>
      </g>
     </g>
    </g>
    <g id="ytick_6">
     <g id="line2d_15">
      <path d="M 90 79.019799 
L 648 79.019799 
" clip-path="url(#p6be24c6532)" style="fill: none; stroke: #cccccc; stroke-linecap: round"/>
     </g>
     <g id="text_16">
      <!-- 25000 -->
      <g style="fill: #262626" transform="translate(45.50625 83.198939) scale(0.11 -0.11)">
       <use xlink:href="#DejaVuSans-32"/>
       <use xlink:href="#DejaVuSans-35" x="63.623047"/>
       <use xlink:href="#DejaVuSans-30" x="127.246094"/>
       <use xlink:href="#DejaVuSans-30" x="190.869141"/>
       <use xlink:href="#DejaVuSans-30" x="254.492188"/>
      </g>
     </g>
    </g>
    <g id="ytick_7">
     <g id="line2d_16">
      <path d="M 90 43.559758 
L 648 43.559758 
" clip-path="url(#p6be24c6532)" style="fill: none; stroke: #cccccc; stroke-linecap: round"/>
     </g>
     <g id="text_17">
      <!-- 30000 -->
      <g style="fill: #262626" transform="translate(45.50625 47.738899) scale(0.11 -0.11)">
       <use xlink:href="#DejaVuSans-33"/>
       <use xlink:href="#DejaVuSans-30" x="63.623047"/>
       <use xlink:href="#DejaVuSans-30" x="127.246094"/>
       <use xlink:href="#DejaVuSans-30" x="190.869141"/>
       <use xlink:href="#DejaVuSans-30" x="254.492188"/>
      </g>
     </g>
    </g>
    <g id="text_18">
     <!-- Häufigkeit -->
     <g style="fill: #262626" transform="translate(39.010625 175.9875) rotate(-90) scale(0.12 -0.12)">
      <defs>
       <path id="DejaVuSans-48" d="M 628 4666 
L 1259 4666 
L 1259 2753 
L 3553 2753 
L 3553 4666 
L 4184 4666 
L 4184 0 
L 3553 0 
L 3553 2222 
L 1259 2222 
L 1259 0 
L 628 0 
L 628 4666 
z
" transform="scale(0.015625)"/>
       <path id="DejaVuSans-e4" d="M 2194 1759 
Q 1497 1759 1228 1600 
Q 959 1441 959 1056 
Q 959 750 1161 570 
Q 1363 391 1709 391 
Q 2188 391 2477 730 
Q 2766 1069 2766 1631 
L 2766 1759 
L 2194 1759 
z
M 3341 1997 
L 3341 0 
L 2766 0 
L 2766 531 
Q 2569 213 2275 61 
Q 1981 -91 1556 -91 
Q 1019 -91 701 211 
Q 384 513 384 1019 
Q 384 1609 779 1909 
Q 1175 2209 1959 2209 
L 2766 2209 
L 2766 2266 
Q 2766 2663 2505 2880 
Q 2244 3097 1772 3097 
Q 1472 3097 1187 3025 
Q 903 2953 641 2809 
L 641 3341 
Q 956 3463 1253 3523 
Q 1550 3584 1831 3584 
Q 2591 3584 2966 3190 
Q 3341 2797 3341 1997 
z
M 2150 4850 
L 2784 4850 
L 2784 4219 
L 2150 4219 
L 2150 4850 
z
M 928 4850 
L 1562 4850 
L 1562 4219 
L 928 4219 
L 928 4850 
z
" transform="scale(0.015625)"/>
       <path id="DejaVuSans-75" d="M 544 1381 
L 544 3500 
L 1119 3500 
L 1119 1403 
Q 1119 906 1312 657 
Q 1506 409 1894 409 
Q 2359 409 2629 706 
Q 2900 1003 2900 1516 
L 2900 3500 
L 3475 3500 
L 3475 0 
L 2900 0 
L 2900 538 
Q 2691 219 2414 64 
Q 2138 -91 1772 -91 
Q 1169 -91 856 284 
Q 544 659 544 1381 
z
M 1991 3584 
L 1991 3584 
z
" transform="scale(0.015625)"/>
       <path id="DejaVuSans-66" d="M 2375 4863 
L 2375 4384 
L 1825 4384 
Q 1516 4384 1395 4259 
Q 1275 4134 1275 3809 
L 1275 3500 
L 2222 3500 
L 2222 3053 
L 1275 3053 
L 1275 0 
L 697 0 
L 697 3053 
L 147 3053 
L 147 3500 
L 697 3500 
L 697 3744 
Q 697 4328 969 4595 
Q 1241 4863 1831 4863 
L 2375 4863 
z
" transform="scale(0.015625)"/>
       <path id="DejaVuSans-6b" d="M 581 4863 
L 1159 4863 
L 1159 1991 
L 2875 3500 
L 3609 3500 
L 1753 1863 
L 3688 0 
L 2938 0 
L 1159 1709 
L 1159 0 
L 581 0 
L 581 4863 
z
" transform="scale(0.015625)"/>
      </defs>
      <use xlink:href="#DejaVuSans-48"/>
      <use xlink:href="#DejaVuSans-e4" x="75.195312"/>
      <use xlink:href="#DejaVuSans-75" x="136.474609"/>
      <use xlink:href="#DejaVuSans-66" x="199.853516"/>
      <use xlink:href="#DejaVuSans-69" x="235.058594"/>
      <use xlink:href="#DejaVuSans-67" x="262.841797"/>
      <use xlink:href="#DejaVuSans-6b" x="326.318359"/>
      <use xlink:href="#DejaVuSans-65" x="380.603516"/>
      <use xlink:href="#DejaVuSans-69" x="442.126953"/>
      <use xlink:href="#DejaVuSans-74" x="469.910156"/>
     </g>
    </g>
   </g>
   <g id="patch_3">
    <path d="M 115.363636 256.32 
L 118.768151 256.32 
L 118.768151 255.334211 
L 115.363636 255.334211 
z
" clip-path="url(#p6be24c6532)" style="fill: #4c72b0; fill-opacity: 0.5; stroke: #ffffff; stroke-width: 0.340451; stroke-linejoin: miter"/>
   </g>
   <g id="patch_4">
    <path d="M 118.768151 256.32 
L 122.172666 256.32 
L 122.172666 256.32 
L 118.768151 256.32 
z
" clip-path="url(#p6be24c6532)" style="fill: #4c72b0; fill-opacity: 0.5; stroke: #ffffff; stroke-width: 0.340451; stroke-linejoin: miter"/>
   </g>
   <g id="patch_5">
    <path d="M 122.172666 256.32 
L 125.577181 256.32 
L 125.577181 256.32 
L 122.172666 256.32 
z
" clip-path="url(#p6be24c6532)" style="fill: #4c72b0; fill-opacity: 0.5; stroke: #ffffff; stroke-width: 0.340451; stroke-linejoin: miter"/>
   </g>
   <g id="patch_6">
    <path d="M 125.577181 256.32 
L 128.981696 256.32 
L 128.981696 256.32 
L 125.577181 256.32 
z
" clip-path="url(#p6be24c6532)" style="fill: #4c72b0; fill-opacity: 0.5; stroke: #ffffff; stroke-width: 0.340451; stroke-linejoin: miter"/>
   </g>
   <g id="patch_7">
    <path d="M 128.981696 256.32 
L 132.386211 256.32 
L 132.386211 256.32 
L 128.981696 256.32 
z
" clip-path="url(#p6be24c6532)" style="fill: #4c72b0; fill-opacity: 0.5; stroke: #ffffff; stroke-width: 0.340451; stroke-linejoin: miter"/>
   </g>
   <g id="patch_8">
    <path d="M 132.386211 256.32 
L 135.790726 256.32 
L 135.790726 256.32 
L 132.386211 256.32 
z
" clip-path="url(#p6be24c6532)" style="fill: #4c72b0; fill-opacity: 0.5; stroke: #ffffff; stroke-width: 0.340451; stroke-linejoin: miter"/>
   </g>
   <g id="patch_9">
    <path d="M 135.790726 256.32 
L 139.195241 256.32 
L 139.195241 256.32 
L 135.790726 256.32 
z
" clip-path="url(#p6be24c6532)" style="fill: #4c72b0; fill-opacity: 0.5; stroke: #ffffff; stroke-width: 0.340451; stroke-linejoin: miter"/>
   </g>
   <g id="patch_10">
    <path d="M 139.195241 256.32 
L 142.599756 256.32 
L 142.599756 256.32 
L 139.195241 256.32 
z
" clip-path="url(#p6be24c6532)" style="fill: #4c72b0; fill-opacity: 0.5; stroke: #ffffff; stroke-width: 0.340451; stroke-linejoin: miter"/>
   </g>
   <g id="patch_11">
    <path d="M 142.599756 256.32 
L 146.004271 256.32 
L 146.004271 256.32 
L 142.599756 256.32 
z
" clip-path="url(#p6be24c6532)" style="fill: #4c72b0; fill-opacity: 0.5; stroke: #ffffff; stroke-width: 0.340451; stroke-linejoin: miter"/>
   </g>
   <g id="patch_12">
    <path d="M 146.004271 256.32 
L 149.408786 256.32 
L 149.408786 256.32 
L 146.004271 256.32 
z
" clip-path="url(#p6be24c6532)" style="fill: #4c72b0; fill-opacity: 0.5; stroke: #ffffff; stroke-width: 0.340451; stroke-linejoin: miter"/>
   </g>
   <g id="patch_13">
    <path d="M 149.408786 256.32 
L 152.813301 256.32 
L 152.813301 256.32 
L 149.408786 256.32 
z
" clip-path="url(#p6be24c6532)" style="fill: #4c72b0; fill-opacity: 0.5; stroke: #ffffff; stroke-width: 0.340451; stroke-linejoin: miter"/>
   </g>
   <g id="patch_14">
    <path d="M 152.813301 256.32 
L 156.217816 256.32 
L 156.217816 256.32 
L 152.813301 256.32 
z
" clip-path="url(#p6be24c6532)" style="fill: #4c72b0; fill-opacity: 0.5; stroke: #ffffff; stroke-width: 0.340451; stroke-linejoin: miter"/>
   </g>
   <g id="patch_15">
    <path d="M 156.217816 256.32 
L 159.622331 256.32 
L 159.622331 256.32 
L 156.217816 256.32 
z
" clip-path="url(#p6be24c6532)" style="fill: #4c72b0; fill-opacity: 0.5; stroke: #ffffff; stroke-width: 0.340451; stroke-linejoin: miter"/>
   </g>
   <g id="patch_16">
    <path d="M 159.622331 256.32 
L 163.026846 256.32 
L 163.026846 256.32 
L 159.622331 256.32 
z
" clip-path="url(#p6be24c6532)" style="fill: #4c72b0; fill-opacity: 0.5; stroke: #ffffff; stroke-width: 0.340451; stroke-linejoin: miter"/>
   </g>
   <g id="patch_17">
    <path d="M 163.026846 256.32 
L 166.431361 256.32 
L 166.431361 256.32 
L 163.026846 256.32 
z
" clip-path="url(#p6be24c6532)" style="fill: #4c72b0; fill-opacity: 0.5; stroke: #ffffff; stroke-width: 0.340451; stroke-linejoin: miter"/>
   </g>
   <g id="patch_18">
    <path d="M 166.431361 256.32 
L 169.835876 256.32 
L 169.835876 256.32 
L 166.431361 256.32 
z
" clip-path="url(#p6be24c6532)" style="fill: #4c72b0; fill-opacity: 0.5; stroke: #ffffff; stroke-width: 0.340451; stroke-linejoin: miter"/>
   </g>
   <g id="patch_19">
    <path d="M 169.835876 256.32 
L 173.24039 256.32 
L 173.24039 256.32 
L 169.835876 256.32 
z
" clip-path="url(#p6be24c6532)" style="fill: #4c72b0; fill-opacity: 0.5; stroke: #ffffff; stroke-width: 0.340451; stroke-linejoin: miter"/>
   </g>
   <g id="patch_20">
    <path d="M 173.24039 256.32 
L 176.644905 256.32 
L 176.644905 256.32 
L 173.24039 256.32 
z
" clip-path="url(#p6be24c6532)" style="fill: #4c72b0; fill-opacity: 0.5; stroke: #ffffff; stroke-width: 0.340451; stroke-linejoin: miter"/>
   </g>
   <g id="patch_21">
    <path d="M 176.644905 256.32 
L 180.04942 256.32 
L 180.04942 256.24908 
L 176.644905 256.24908 
z
" clip-path="url(#p6be24c6532)" style="fill: #4c72b0; fill-opacity: 0.5; stroke: #ffffff; stroke-width: 0.340451; stroke-linejoin: miter"/>
   </g>
   <g id="patch_22">
    <path d="M 180.04942 256.32 
L 183.453935 256.32 
L 183.453935 256.32 
L 180.04942 256.32 
z
" clip-path="url(#p6be24c6532)" style="fill: #4c72b0; fill-opacity: 0.5; stroke: #ffffff; stroke-width: 0.340451; stroke-linejoin: miter"/>
   </g>
   <g id="patch_23">
    <path d="M 183.453935 256.32 
L 186.85845 256.32 
L 186.85845 256.32 
L 183.453935 256.32 
z
" clip-path="url(#p6be24c6532)" style="fill: #4c72b0; fill-opacity: 0.5; stroke: #ffffff; stroke-width: 0.340451; stroke-linejoin: miter"/>
   </g>
   <g id="patch_24">
    <path d="M 186.85845 256.32 
L 190.262965 256.32 
L 190.262965 256.32 
L 186.85845 256.32 
z
" clip-path="url(#p6be24c6532)" style="fill: #4c72b0; fill-opacity: 0.5; stroke: #ffffff; stroke-width: 0.340451; stroke-linejoin: miter"/>
   </g>
   <g id="patch_25">
    <path d="M 190.262965 256.32 
L 193.66748 256.32 
L 193.66748 256.32 
L 190.262965 256.32 
z
" clip-path="url(#p6be24c6532)" style="fill: #4c72b0; fill-opacity: 0.5; stroke: #ffffff; stroke-width: 0.340451; stroke-linejoin: miter"/>
   </g>
   <g id="patch_26">
    <path d="M 193.66748 256.32 
L 197.071995 256.32 
L 197.071995 256.32 
L 193.66748 256.32 
z
" clip-path="url(#p6be24c6532)" style="fill: #4c72b0; fill-opacity: 0.5; stroke: #ffffff; stroke-width: 0.340451; stroke-linejoin: miter"/>
   </g>
   <g id="patch_27">
    <path d="M 197.071995 256.32 
L 200.47651 256.32 
L 200.47651 256.32 
L 197.071995 256.32 
z
" clip-path="url(#p6be24c6532)" style="fill: #4c72b0; fill-opacity: 0.5; stroke: #ffffff; stroke-width: 0.340451; stroke-linejoin: miter"/>
   </g>
   <g id="patch_28">
    <path d="M 200.47651 256.32 
L 203.881025 256.32 
L 203.881025 256.32 
L 200.47651 256.32 
z
" clip-path="url(#p6be24c6532)" style="fill: #4c72b0; fill-opacity: 0.5; stroke: #ffffff; stroke-width: 0.340451; stroke-linejoin: miter"/>
   </g>
   <g id="patch_29">
    <path d="M 203.881025 256.32 
L 207.28554 256.32 
L 207.28554 256.32 
L 203.881025 256.32 
z
" clip-path="url(#p6be24c6532)" style="fill: #4c72b0; fill-opacity: 0.5; stroke: #ffffff; stroke-width: 0.340451; stroke-linejoin: miter"/>
   </g>
   <g id="patch_30">
    <path d="M 207.28554 256.32 
L 210.690055 256.32 
L 210.690055 256.32 
L 207.28554 256.32 
z
" clip-path="url(#p6be24c6532)" style="fill: #4c72b0; fill-opacity: 0.5; stroke: #ffffff; stroke-width: 0.340451; stroke-linejoin: miter"/>
   </g>
   <g id="patch_31">
    <path d="M 210.690055 256.32 
L 214.09457 256.32 
L 214.09457 256.32 
L 210.690055 256.32 
z
" clip-path="url(#p6be24c6532)" style="fill: #4c72b0; fill-opacity: 0.5; stroke: #ffffff; stroke-width: 0.340451; stroke-linejoin: miter"/>
   </g>
   <g id="patch_32">
    <path d="M 214.09457 256.32 
L 217.499085 256.32 
L 217.499085 256.32 
L 214.09457 256.32 
z
" clip-path="url(#p6be24c6532)" style="fill: #4c72b0; fill-opacity: 0.5; stroke: #ffffff; stroke-width: 0.340451; stroke-linejoin: miter"/>
   </g>
   <g id="patch_33">
    <path d="M 217.499085 256.32 
L 220.9036 256.32 
L 220.9036 256.32 
L 217.499085 256.32 
z
" clip-path="url(#p6be24c6532)" style="fill: #4c72b0; fill-opacity: 0.5; stroke: #ffffff; stroke-width: 0.340451; stroke-linejoin: miter"/>
   </g>
   <g id="patch_34">
    <path d="M 220.9036 256.32 
L 224.308115 256.32 
L 224.308115 256.32 
L 220.9036 256.32 
z
" clip-path="url(#p6be24c6532)" style="fill: #4c72b0; fill-opacity: 0.5; stroke: #ffffff; stroke-width: 0.340451; stroke-linejoin: miter"/>
   </g>
   <g id="patch_35">
    <path d="M 224.308115 256.32 
L 227.71263 256.32 
L 227.71263 256.32 
L 224.308115 256.32 
z
" clip-path="url(#p6be24c6532)" style="fill: #4c72b0; fill-opacity: 0.5; stroke: #ffffff; stroke-width: 0.340451; stroke-linejoin: miter"/>
   </g>
   <g id="patch_36">
    <path d="M 227.71263 256.32 
L 231.117145 256.32 
L 231.117145 256.32 
L 227.71263 256.32 
z
" clip-path="url(#p6be24c6532)" style="fill: #4c72b0; fill-opacity: 0.5; stroke: #ffffff; stroke-width: 0.340451; stroke-linejoin: miter"/>
   </g>
   <g id="patch_37">
    <path d="M 231.117145 256.32 
L 234.52166 256.32 
L 234.52166 256.32 
L 231.117145 256.32 
z
" clip-path="url(#p6be24c6532)" style="fill: #4c72b0; fill-opacity: 0.5; stroke: #ffffff; stroke-width: 0.340451; stroke-linejoin: miter"/>
   </g>
   <g id="patch_38">
    <path d="M 234.52166 256.32 
L 237.926174 256.32 
L 237.926174 256.32 
L 234.52166 256.32 
z
" clip-path="url(#p6be24c6532)" style="fill: #4c72b0; fill-opacity: 0.5; stroke: #ffffff; stroke-width: 0.340451; stroke-linejoin: miter"/>
   </g>
   <g id="patch_39">
    <path d="M 237.926174 256.32 
L 241.330689 256.32 
L 241.330689 256.32 
L 237.926174 256.32 
z
" clip-path="url(#p6be24c6532)" style="fill: #4c72b0; fill-opacity: 0.5; stroke: #ffffff; stroke-width: 0.340451; stroke-linejoin: miter"/>
   </g>
   <g id="patch_40">
    <path d="M 241.330689 256.32 
L 244.735204 256.32 
L 244.735204 255.312935 
L 241.330689 255.312935 
z
" clip-path="url(#p6be24c6532)" style="fill: #4c72b0; fill-opacity: 0.5; stroke: #ffffff; stroke-width: 0.340451; stroke-linejoin: miter"/>
   </g>
   <g id="patch_41">
    <path d="M 244.735204 256.32 
L 248.139719 256.32 
L 248.139719 256.32 
L 244.735204 256.32 
z
" clip-path="url(#p6be24c6532)" style="fill: #4c72b0; fill-opacity: 0.5; stroke: #ffffff; stroke-width: 0.340451; stroke-linejoin: miter"/>
   </g>
   <g id="patch_42">
    <path d="M 248.139719 256.32 
L 251.544234 256.32 
L 251.544234 256.32 
L 248.139719 256.32 
z
" clip-path="url(#p6be24c6532)" style="fill: #4c72b0; fill-opacity: 0.5; stroke: #ffffff; stroke-width: 0.340451; stroke-linejoin: miter"/>
   </g>
   <g id="patch_43">
    <path d="M 251.544234 256.32 
L 254.948749 256.32 
L 254.948749 256.32 
L 251.544234 256.32 
z
" clip-path="url(#p6be24c6532)" style="fill: #4c72b0; fill-opacity: 0.5; stroke: #ffffff; stroke-width: 0.340451; stroke-linejoin: miter"/>
   </g>
   <g id="patch_44">
    <path d="M 254.948749 256.32 
L 258.353264 256.32 
L 258.353264 256.32 
L 254.948749 256.32 
z
" clip-path="url(#p6be24c6532)" style="fill: #4c72b0; fill-opacity: 0.5; stroke: #ffffff; stroke-width: 0.340451; stroke-linejoin: miter"/>
   </g>
   <g id="patch_45">
    <path d="M 258.353264 256.32 
L 261.757779 256.32 
L 261.757779 256.32 
L 258.353264 256.32 
z
" clip-path="url(#p6be24c6532)" style="fill: #4c72b0; fill-opacity: 0.5; stroke: #ffffff; stroke-width: 0.340451; stroke-linejoin: miter"/>
   </g>
   <g id="patch_46">
    <path d="M 261.757779 256.32 
L 265.162294 256.32 
L 265.162294 256.32 
L 261.757779 256.32 
z
" clip-path="url(#p6be24c6532)" style="fill: #4c72b0; fill-opacity: 0.5; stroke: #ffffff; stroke-width: 0.340451; stroke-linejoin: miter"/>
   </g>
   <g id="patch_47">
    <path d="M 265.162294 256.32 
L 268.566809 256.32 
L 268.566809 256.32 
L 265.162294 256.32 
z
" clip-path="url(#p6be24c6532)" style="fill: #4c72b0; fill-opacity: 0.5; stroke: #ffffff; stroke-width: 0.340451; stroke-linejoin: miter"/>
   </g>
   <g id="patch_48">
    <path d="M 268.566809 256.32 
L 271.971324 256.32 
L 271.971324 256.32 
L 268.566809 256.32 
z
" clip-path="url(#p6be24c6532)" style="fill: #4c72b0; fill-opacity: 0.5; stroke: #ffffff; stroke-width: 0.340451; stroke-linejoin: miter"/>
   </g>
   <g id="patch_49">
    <path d="M 271.971324 256.32 
L 275.375839 256.32 
L 275.375839 256.32 
L 271.971324 256.32 
z
" clip-path="url(#p6be24c6532)" style="fill: #4c72b0; fill-opacity: 0.5; stroke: #ffffff; stroke-width: 0.340451; stroke-linejoin: miter"/>
   </g>
   <g id="patch_50">
    <path d="M 275.375839 256.32 
L 278.780354 256.32 
L 278.780354 256.32 
L 275.375839 256.32 
z
" clip-path="url(#p6be24c6532)" style="fill: #4c72b0; fill-opacity: 0.5; stroke: #ffffff; stroke-width: 0.340451; stroke-linejoin: miter"/>
   </g>
   <g id="patch_51">
    <path d="M 278.780354 256.32 
L 282.184869 256.32 
L 282.184869 256.32 
L 278.780354 256.32 
z
" clip-path="url(#p6be24c6532)" style="fill: #4c72b0; fill-opacity: 0.5; stroke: #ffffff; stroke-width: 0.340451; stroke-linejoin: miter"/>
   </g>
   <g id="patch_52">
    <path d="M 282.184869 256.32 
L 285.589384 256.32 
L 285.589384 256.32 
L 282.184869 256.32 
z
" clip-path="url(#p6be24c6532)" style="fill: #4c72b0; fill-opacity: 0.5; stroke: #ffffff; stroke-width: 0.340451; stroke-linejoin: miter"/>
   </g>
   <g id="patch_53">
    <path d="M 285.589384 256.32 
L 288.993899 256.32 
L 288.993899 256.32 
L 285.589384 256.32 
z
" clip-path="url(#p6be24c6532)" style="fill: #4c72b0; fill-opacity: 0.5; stroke: #ffffff; stroke-width: 0.340451; stroke-linejoin: miter"/>
   </g>
   <g id="patch_54">
    <path d="M 288.993899 256.32 
L 292.398414 256.32 
L 292.398414 256.32 
L 288.993899 256.32 
z
" clip-path="url(#p6be24c6532)" style="fill: #4c72b0; fill-opacity: 0.5; stroke: #ffffff; stroke-width: 0.340451; stroke-linejoin: miter"/>
   </g>
   <g id="patch_55">
    <path d="M 292.398414 256.32 
L 295.802929 256.32 
L 295.802929 256.32 
L 292.398414 256.32 
z
" clip-path="url(#p6be24c6532)" style="fill: #4c72b0; fill-opacity: 0.5; stroke: #ffffff; stroke-width: 0.340451; stroke-linejoin: miter"/>
   </g>
   <g id="patch_56">
    <path d="M 295.802929 256.32 
L 299.207444 256.32 
L 299.207444 256.32 
L 295.802929 256.32 
z
" clip-path="url(#p6be24c6532)" style="fill: #4c72b0; fill-opacity: 0.5; stroke: #ffffff; stroke-width: 0.340451; stroke-linejoin: miter"/>
   </g>
   <g id="patch_57">
    <path d="M 299.207444 256.32 
L 302.611959 256.32 
L 302.611959 256.32 
L 299.207444 256.32 
z
" clip-path="url(#p6be24c6532)" style="fill: #4c72b0; fill-opacity: 0.5; stroke: #ffffff; stroke-width: 0.340451; stroke-linejoin: miter"/>
   </g>
   <g id="patch_58">
    <path d="M 302.611959 256.32 
L 306.016473 256.32 
L 306.016473 255.710087 
L 302.611959 255.710087 
z
" clip-path="url(#p6be24c6532)" style="fill: #4c72b0; fill-opacity: 0.5; stroke: #ffffff; stroke-width: 0.340451; stroke-linejoin: miter"/>
   </g>
   <g id="patch_59">
    <path d="M 306.016473 256.32 
L 309.420988 256.32 
L 309.420988 256.32 
L 306.016473 256.32 
z
" clip-path="url(#p6be24c6532)" style="fill: #4c72b0; fill-opacity: 0.5; stroke: #ffffff; stroke-width: 0.340451; stroke-linejoin: miter"/>
   </g>
   <g id="patch_60">
    <path d="M 309.420988 256.32 
L 312.825503 256.32 
L 312.825503 256.32 
L 309.420988 256.32 
z
" clip-path="url(#p6be24c6532)" style="fill: #4c72b0; fill-opacity: 0.5; stroke: #ffffff; stroke-width: 0.340451; stroke-linejoin: miter"/>
   </g>
   <g id="patch_61">
    <path d="M 312.825503 256.32 
L 316.230018 256.32 
L 316.230018 256.32 
L 312.825503 256.32 
z
" clip-path="url(#p6be24c6532)" style="fill: #4c72b0; fill-opacity: 0.5; stroke: #ffffff; stroke-width: 0.340451; stroke-linejoin: miter"/>
   </g>
   <g id="patch_62">
    <path d="M 316.230018 256.32 
L 319.634533 256.32 
L 319.634533 256.32 
L 316.230018 256.32 
z
" clip-path="url(#p6be24c6532)" style="fill: #4c72b0; fill-opacity: 0.5; stroke: #ffffff; stroke-width: 0.340451; stroke-linejoin: miter"/>
   </g>
   <g id="patch_63">
    <path d="M 319.634533 256.32 
L 323.039048 256.32 
L 323.039048 256.32 
L 319.634533 256.32 
z
" clip-path="url(#p6be24c6532)" style="fill: #4c72b0; fill-opacity: 0.5; stroke: #ffffff; stroke-width: 0.340451; stroke-linejoin: miter"/>
   </g>
   <g id="patch_64">
    <path d="M 323.039048 256.32 
L 326.443563 256.32 
L 326.443563 256.32 
L 323.039048 256.32 
z
" clip-path="url(#p6be24c6532)" style="fill: #4c72b0; fill-opacity: 0.5; stroke: #ffffff; stroke-width: 0.340451; stroke-linejoin: miter"/>
   </g>
   <g id="patch_65">
    <path d="M 326.443563 256.32 
L 329.848078 256.32 
L 329.848078 256.32 
L 326.443563 256.32 
z
" clip-path="url(#p6be24c6532)" style="fill: #4c72b0; fill-opacity: 0.5; stroke: #ffffff; stroke-width: 0.340451; stroke-linejoin: miter"/>
   </g>
   <g id="patch_66">
    <path d="M 329.848078 256.32 
L 333.252593 256.32 
L 333.252593 256.32 
L 329.848078 256.32 
z
" clip-path="url(#p6be24c6532)" style="fill: #4c72b0; fill-opacity: 0.5; stroke: #ffffff; stroke-width: 0.340451; stroke-linejoin: miter"/>
   </g>
   <g id="patch_67">
    <path d="M 333.252593 256.32 
L 336.657108 256.32 
L 336.657108 256.32 
L 333.252593 256.32 
z
" clip-path="url(#p6be24c6532)" style="fill: #4c72b0; fill-opacity: 0.5; stroke: #ffffff; stroke-width: 0.340451; stroke-linejoin: miter"/>
   </g>
   <g id="patch_68">
    <path d="M 336.657108 256.32 
L 340.061623 256.32 
L 340.061623 256.32 
L 336.657108 256.32 
z
" clip-path="url(#p6be24c6532)" style="fill: #4c72b0; fill-opacity: 0.5; stroke: #ffffff; stroke-width: 0.340451; stroke-linejoin: miter"/>
   </g>
   <g id="patch_69">
    <path d="M 340.061623 256.32 
L 343.466138 256.32 
L 343.466138 256.32 
L 340.061623 256.32 
z
" clip-path="url(#p6be24c6532)" style="fill: #4c72b0; fill-opacity: 0.5; stroke: #ffffff; stroke-width: 0.340451; stroke-linejoin: miter"/>
   </g>
   <g id="patch_70">
    <path d="M 343.466138 256.32 
L 346.870653 256.32 
L 346.870653 256.32 
L 343.466138 256.32 
z
" clip-path="url(#p6be24c6532)" style="fill: #4c72b0; fill-opacity: 0.5; stroke: #ffffff; stroke-width: 0.340451; stroke-linejoin: miter"/>
   </g>
   <g id="patch_71">
    <path d="M 346.870653 256.32 
L 350.275168 256.32 
L 350.275168 256.32 
L 346.870653 256.32 
z
" clip-path="url(#p6be24c6532)" style="fill: #4c72b0; fill-opacity: 0.5; stroke: #ffffff; stroke-width: 0.340451; stroke-linejoin: miter"/>
   </g>
   <g id="patch_72">
    <path d="M 350.275168 256.32 
L 353.679683 256.32 
L 353.679683 256.32 
L 350.275168 256.32 
z
" clip-path="url(#p6be24c6532)" style="fill: #4c72b0; fill-opacity: 0.5; stroke: #ffffff; stroke-width: 0.340451; stroke-linejoin: miter"/>
   </g>
   <g id="patch_73">
    <path d="M 353.679683 256.32 
L 357.084198 256.32 
L 357.084198 256.32 
L 353.679683 256.32 
z
" clip-path="url(#p6be24c6532)" style="fill: #4c72b0; fill-opacity: 0.5; stroke: #ffffff; stroke-width: 0.340451; stroke-linejoin: miter"/>
   </g>
   <g id="patch_74">
    <path d="M 357.084198 256.32 
L 360.488713 256.32 
L 360.488713 256.32 
L 357.084198 256.32 
z
" clip-path="url(#p6be24c6532)" style="fill: #4c72b0; fill-opacity: 0.5; stroke: #ffffff; stroke-width: 0.340451; stroke-linejoin: miter"/>
   </g>
   <g id="patch_75">
    <path d="M 360.488713 256.32 
L 363.893228 256.32 
L 363.893228 256.32 
L 360.488713 256.32 
z
" clip-path="url(#p6be24c6532)" style="fill: #4c72b0; fill-opacity: 0.5; stroke: #ffffff; stroke-width: 0.340451; stroke-linejoin: miter"/>
   </g>
   <g id="patch_76">
    <path d="M 363.893228 256.32 
L 367.297743 256.32 
L 367.297743 256.32 
L 363.893228 256.32 
z
" clip-path="url(#p6be24c6532)" style="fill: #4c72b0; fill-opacity: 0.5; stroke: #ffffff; stroke-width: 0.340451; stroke-linejoin: miter"/>
   </g>
   <g id="patch_77">
    <path d="M 367.297743 256.32 
L 370.702257 256.32 
L 370.702257 252.78818 
L 367.297743 252.78818 
z
" clip-path="url(#p6be24c6532)" style="fill: #4c72b0; fill-opacity: 0.5; stroke: #ffffff; stroke-width: 0.340451; stroke-linejoin: miter"/>
   </g>
   <g id="patch_78">
    <path d="M 370.702257 256.32 
L 374.106772 256.32 
L 374.106772 256.32 
L 370.702257 256.32 
z
" clip-path="url(#p6be24c6532)" style="fill: #4c72b0; fill-opacity: 0.5; stroke: #ffffff; stroke-width: 0.340451; stroke-linejoin: miter"/>
   </g>
   <g id="patch_79">
    <path d="M 374.106772 256.32 
L 377.511287 256.32 
L 377.511287 256.32 
L 374.106772 256.32 
z
" clip-path="url(#p6be24c6532)" style="fill: #4c72b0; fill-opacity: 0.5; stroke: #ffffff; stroke-width: 0.340451; stroke-linejoin: miter"/>
   </g>
   <g id="patch_80">
    <path d="M 377.511287 256.32 
L 380.915802 256.32 
L 380.915802 256.32 
L 377.511287 256.32 
z
" clip-path="url(#p6be24c6532)" style="fill: #4c72b0; fill-opacity: 0.5; stroke: #ffffff; stroke-width: 0.340451; stroke-linejoin: miter"/>
   </g>
   <g id="patch_81">
    <path d="M 380.915802 256.32 
L 384.320317 256.32 
L 384.320317 256.32 
L 380.915802 256.32 
z
" clip-path="url(#p6be24c6532)" style="fill: #4c72b0; fill-opacity: 0.5; stroke: #ffffff; stroke-width: 0.340451; stroke-linejoin: miter"/>
   </g>
   <g id="patch_82">
    <path d="M 384.320317 256.32 
L 387.724832 256.32 
L 387.724832 256.32 
L 384.320317 256.32 
z
" clip-path="url(#p6be24c6532)" style="fill: #4c72b0; fill-opacity: 0.5; stroke: #ffffff; stroke-width: 0.340451; stroke-linejoin: miter"/>
   </g>
   <g id="patch_83">
    <path d="M 387.724832 256.32 
L 391.129347 256.32 
L 391.129347 256.32 
L 387.724832 256.32 
z
" clip-path="url(#p6be24c6532)" style="fill: #4c72b0; fill-opacity: 0.5; stroke: #ffffff; stroke-width: 0.340451; stroke-linejoin: miter"/>
   </g>
   <g id="patch_84">
    <path d="M 391.129347 256.32 
L 394.533862 256.32 
L 394.533862 256.32 
L 391.129347 256.32 
z
" clip-path="url(#p6be24c6532)" style="fill: #4c72b0; fill-opacity: 0.5; stroke: #ffffff; stroke-width: 0.340451; stroke-linejoin: miter"/>
   </g>
   <g id="patch_85">
    <path d="M 394.533862 256.32 
L 397.938377 256.32 
L 397.938377 256.32 
L 394.533862 256.32 
z
" clip-path="url(#p6be24c6532)" style="fill: #4c72b0; fill-opacity: 0.5; stroke: #ffffff; stroke-width: 0.340451; stroke-linejoin: miter"/>
   </g>
   <g id="patch_86">
    <path d="M 397.938377 256.32 
L 401.342892 256.32 
L 401.342892 256.32 
L 397.938377 256.32 
z
" clip-path="url(#p6be24c6532)" style="fill: #4c72b0; fill-opacity: 0.5; stroke: #ffffff; stroke-width: 0.340451; stroke-linejoin: miter"/>
   </g>
   <g id="patch_87">
    <path d="M 401.342892 256.32 
L 404.747407 256.32 
L 404.747407 256.32 
L 401.342892 256.32 
z
" clip-path="url(#p6be24c6532)" style="fill: #4c72b0; fill-opacity: 0.5; stroke: #ffffff; stroke-width: 0.340451; stroke-linejoin: miter"/>
   </g>
   <g id="patch_88">
    <path d="M 404.747407 256.32 
L 408.151922 256.32 
L 408.151922 256.32 
L 404.747407 256.32 
z
" clip-path="url(#p6be24c6532)" style="fill: #4c72b0; fill-opacity: 0.5; stroke: #ffffff; stroke-width: 0.340451; stroke-linejoin: miter"/>
   </g>
   <g id="patch_89">
    <path d="M 408.151922 256.32 
L 411.556437 256.32 
L 411.556437 256.32 
L 408.151922 256.32 
z
" clip-path="url(#p6be24c6532)" style="fill: #4c72b0; fill-opacity: 0.5; stroke: #ffffff; stroke-width: 0.340451; stroke-linejoin: miter"/>
   </g>
   <g id="patch_90">
    <path d="M 411.556437 256.32 
L 414.960952 256.32 
L 414.960952 256.32 
L 411.556437 256.32 
z
" clip-path="url(#p6be24c6532)" style="fill: #4c72b0; fill-opacity: 0.5; stroke: #ffffff; stroke-width: 0.340451; stroke-linejoin: miter"/>
   </g>
   <g id="patch_91">
    <path d="M 414.960952 256.32 
L 418.365467 256.32 
L 418.365467 256.32 
L 414.960952 256.32 
z
" clip-path="url(#p6be24c6532)" style="fill: #4c72b0; fill-opacity: 0.5; stroke: #ffffff; stroke-width: 0.340451; stroke-linejoin: miter"/>
   </g>
   <g id="patch_92">
    <path d="M 418.365467 256.32 
L 421.769982 256.32 
L 421.769982 256.32 
L 418.365467 256.32 
z
" clip-path="url(#p6be24c6532)" style="fill: #4c72b0; fill-opacity: 0.5; stroke: #ffffff; stroke-width: 0.340451; stroke-linejoin: miter"/>
   </g>
   <g id="patch_93">
    <path d="M 421.769982 256.32 
L 425.174497 256.32 
L 425.174497 256.32 
L 421.769982 256.32 
z
" clip-path="url(#p6be24c6532)" style="fill: #4c72b0; fill-opacity: 0.5; stroke: #ffffff; stroke-width: 0.340451; stroke-linejoin: miter"/>
   </g>
   <g id="patch_94">
    <path d="M 425.174497 256.32 
L 428.579012 256.32 
L 428.579012 256.32 
L 425.174497 256.32 
z
" clip-path="url(#p6be24c6532)" style="fill: #4c72b0; fill-opacity: 0.5; stroke: #ffffff; stroke-width: 0.340451; stroke-linejoin: miter"/>
   </g>
   <g id="patch_95">
    <path d="M 428.579012 256.32 
L 431.983527 256.32 
L 431.983527 256.32 
L 428.579012 256.32 
z
" clip-path="url(#p6be24c6532)" style="fill: #4c72b0; fill-opacity: 0.5; stroke: #ffffff; stroke-width: 0.340451; stroke-linejoin: miter"/>
   </g>
   <g id="patch_96">
    <path d="M 431.983527 256.32 
L 435.388041 256.32 
L 435.388041 249.660604 
L 431.983527 249.660604 
z
" clip-path="url(#p6be24c6532)" style="fill: #4c72b0; fill-opacity: 0.5; stroke: #ffffff; stroke-width: 0.340451; stroke-linejoin: miter"/>
   </g>
   <g id="patch_97">
    <path d="M 435.388041 256.32 
L 438.792556 256.32 
L 438.792556 256.32 
L 435.388041 256.32 
z
" clip-path="url(#p6be24c6532)" style="fill: #4c72b0; fill-opacity: 0.5; stroke: #ffffff; stroke-width: 0.340451; stroke-linejoin: miter"/>
   </g>
   <g id="patch_98">
    <path d="M 438.792556 256.32 
L 442.197071 256.32 
L 442.197071 256.32 
L 438.792556 256.32 
z
" clip-path="url(#p6be24c6532)" style="fill: #4c72b0; fill-opacity: 0.5; stroke: #ffffff; stroke-width: 0.340451; stroke-linejoin: miter"/>
   </g>
   <g id="patch_99">
    <path d="M 442.197071 256.32 
L 445.601586 256.32 
L 445.601586 256.32 
L 442.197071 256.32 
z
" clip-path="url(#p6be24c6532)" style="fill: #4c72b0; fill-opacity: 0.5; stroke: #ffffff; stroke-width: 0.340451; stroke-linejoin: miter"/>
   </g>
   <g id="patch_100">
    <path d="M 445.601586 256.32 
L 449.006101 256.32 
L 449.006101 256.32 
L 445.601586 256.32 
z
" clip-path="url(#p6be24c6532)" style="fill: #4c72b0; fill-opacity: 0.5; stroke: #ffffff; stroke-width: 0.340451; stroke-linejoin: miter"/>
   </g>
   <g id="patch_101">
    <path d="M 449.006101 256.32 
L 452.410616 256.32 
L 452.410616 256.32 
L 449.006101 256.32 
z
" clip-path="url(#p6be24c6532)" style="fill: #4c72b0; fill-opacity: 0.5; stroke: #ffffff; stroke-width: 0.340451; stroke-linejoin: miter"/>
   </g>
   <g id="patch_102">
    <path d="M 452.410616 256.32 
L 455.815131 256.32 
L 455.815131 256.32 
L 452.410616 256.32 
z
" clip-path="url(#p6be24c6532)" style="fill: #4c72b0; fill-opacity: 0.5; stroke: #ffffff; stroke-width: 0.340451; stroke-linejoin: miter"/>
   </g>
   <g id="patch_103">
    <path d="M 455.815131 256.32 
L 459.219646 256.32 
L 459.219646 256.32 
L 455.815131 256.32 
z
" clip-path="url(#p6be24c6532)" style="fill: #4c72b0; fill-opacity: 0.5; stroke: #ffffff; stroke-width: 0.340451; stroke-linejoin: miter"/>
   </g>
   <g id="patch_104">
    <path d="M 459.219646 256.32 
L 462.624161 256.32 
L 462.624161 256.32 
L 459.219646 256.32 
z
" clip-path="url(#p6be24c6532)" style="fill: #4c72b0; fill-opacity: 0.5; stroke: #ffffff; stroke-width: 0.340451; stroke-linejoin: miter"/>
   </g>
   <g id="patch_105">
    <path d="M 462.624161 256.32 
L 466.028676 256.32 
L 466.028676 256.32 
L 462.624161 256.32 
z
" clip-path="url(#p6be24c6532)" style="fill: #4c72b0; fill-opacity: 0.5; stroke: #ffffff; stroke-width: 0.340451; stroke-linejoin: miter"/>
   </g>
   <g id="patch_106">
    <path d="M 466.028676 256.32 
L 469.433191 256.32 
L 469.433191 256.32 
L 466.028676 256.32 
z
" clip-path="url(#p6be24c6532)" style="fill: #4c72b0; fill-opacity: 0.5; stroke: #ffffff; stroke-width: 0.340451; stroke-linejoin: miter"/>
   </g>
   <g id="patch_107">
    <path d="M 469.433191 256.32 
L 472.837706 256.32 
L 472.837706 256.32 
L 469.433191 256.32 
z
" clip-path="url(#p6be24c6532)" style="fill: #4c72b0; fill-opacity: 0.5; stroke: #ffffff; stroke-width: 0.340451; stroke-linejoin: miter"/>
   </g>
   <g id="patch_108">
    <path d="M 472.837706 256.32 
L 476.242221 256.32 
L 476.242221 256.32 
L 472.837706 256.32 
z
" clip-path="url(#p6be24c6532)" style="fill: #4c72b0; fill-opacity: 0.5; stroke: #ffffff; stroke-width: 0.340451; stroke-linejoin: miter"/>
   </g>
   <g id="patch_109">
    <path d="M 476.242221 256.32 
L 479.646736 256.32 
L 479.646736 256.32 
L 476.242221 256.32 
z
" clip-path="url(#p6be24c6532)" style="fill: #4c72b0; fill-opacity: 0.5; stroke: #ffffff; stroke-width: 0.340451; stroke-linejoin: miter"/>
   </g>
   <g id="patch_110">
    <path d="M 479.646736 256.32 
L 483.051251 256.32 
L 483.051251 256.32 
L 479.646736 256.32 
z
" clip-path="url(#p6be24c6532)" style="fill: #4c72b0; fill-opacity: 0.5; stroke: #ffffff; stroke-width: 0.340451; stroke-linejoin: miter"/>
   </g>
   <g id="patch_111">
    <path d="M 483.051251 256.32 
L 486.455766 256.32 
L 486.455766 256.32 
L 483.051251 256.32 
z
" clip-path="url(#p6be24c6532)" style="fill: #4c72b0; fill-opacity: 0.5; stroke: #ffffff; stroke-width: 0.340451; stroke-linejoin: miter"/>
   </g>
   <g id="patch_112">
    <path d="M 486.455766 256.32 
L 489.860281 256.32 
L 489.860281 256.32 
L 486.455766 256.32 
z
" clip-path="url(#p6be24c6532)" style="fill: #4c72b0; fill-opacity: 0.5; stroke: #ffffff; stroke-width: 0.340451; stroke-linejoin: miter"/>
   </g>
   <g id="patch_113">
    <path d="M 489.860281 256.32 
L 493.264796 256.32 
L 493.264796 256.32 
L 489.860281 256.32 
z
" clip-path="url(#p6be24c6532)" style="fill: #4c72b0; fill-opacity: 0.5; stroke: #ffffff; stroke-width: 0.340451; stroke-linejoin: miter"/>
   </g>
   <g id="patch_114">
    <path d="M 493.264796 256.32 
L 496.669311 256.32 
L 496.669311 225.540685 
L 493.264796 225.540685 
z
" clip-path="url(#p6be24c6532)" style="fill: #4c72b0; fill-opacity: 0.5; stroke: #ffffff; stroke-width: 0.340451; stroke-linejoin: miter"/>
   </g>
   <g id="patch_115">
    <path d="M 496.669311 256.32 
L 500.073826 256.32 
L 500.073826 256.32 
L 496.669311 256.32 
z
" clip-path="url(#p6be24c6532)" style="fill: #4c72b0; fill-opacity: 0.5; stroke: #ffffff; stroke-width: 0.340451; stroke-linejoin: miter"/>
   </g>
   <g id="patch_116">
    <path d="M 500.073826 256.32 
L 503.47834 256.32 
L 503.47834 256.32 
L 500.073826 256.32 
z
" clip-path="url(#p6be24c6532)" style="fill: #4c72b0; fill-opacity: 0.5; stroke: #ffffff; stroke-width: 0.340451; stroke-linejoin: miter"/>
   </g>
   <g id="patch_117">
    <path d="M 503.47834 256.32 
L 506.882855 256.32 
L 506.882855 256.32 
L 503.47834 256.32 
z
" clip-path="url(#p6be24c6532)" style="fill: #4c72b0; fill-opacity: 0.5; stroke: #ffffff; stroke-width: 0.340451; stroke-linejoin: miter"/>
   </g>
   <g id="patch_118">
    <path d="M 506.882855 256.32 
L 510.28737 256.32 
L 510.28737 256.32 
L 506.882855 256.32 
z
" clip-path="url(#p6be24c6532)" style="fill: #4c72b0; fill-opacity: 0.5; stroke: #ffffff; stroke-width: 0.340451; stroke-linejoin: miter"/>
   </g>
   <g id="patch_119">
    <path d="M 510.28737 256.32 
L 513.691885 256.32 
L 513.691885 256.32 
L 510.28737 256.32 
z
" clip-path="url(#p6be24c6532)" style="fill: #4c72b0; fill-opacity: 0.5; stroke: #ffffff; stroke-width: 0.340451; stroke-linejoin: miter"/>
   </g>
   <g id="patch_120">
    <path d="M 513.691885 256.32 
L 517.0964 256.32 
L 517.0964 256.32 
L 513.691885 256.32 
z
" clip-path="url(#p6be24c6532)" style="fill: #4c72b0; fill-opacity: 0.5; stroke: #ffffff; stroke-width: 0.340451; stroke-linejoin: miter"/>
   </g>
   <g id="patch_121">
    <path d="M 517.0964 256.32 
L 520.500915 256.32 
L 520.500915 256.32 
L 517.0964 256.32 
z
" clip-path="url(#p6be24c6532)" style="fill: #4c72b0; fill-opacity: 0.5; stroke: #ffffff; stroke-width: 0.340451; stroke-linejoin: miter"/>
   </g>
   <g id="patch_122">
    <path d="M 520.500915 256.32 
L 523.90543 256.32 
L 523.90543 256.32 
L 520.500915 256.32 
z
" clip-path="url(#p6be24c6532)" style="fill: #4c72b0; fill-opacity: 0.5; stroke: #ffffff; stroke-width: 0.340451; stroke-linejoin: miter"/>
   </g>
   <g id="patch_123">
    <path d="M 523.90543 256.32 
L 527.309945 256.32 
L 527.309945 256.32 
L 523.90543 256.32 
z
" clip-path="url(#p6be24c6532)" style="fill: #4c72b0; fill-opacity: 0.5; stroke: #ffffff; stroke-width: 0.340451; stroke-linejoin: miter"/>
   </g>
   <g id="patch_124">
    <path d="M 527.309945 256.32 
L 530.71446 256.32 
L 530.71446 256.32 
L 527.309945 256.32 
z
" clip-path="url(#p6be24c6532)" style="fill: #4c72b0; fill-opacity: 0.5; stroke: #ffffff; stroke-width: 0.340451; stroke-linejoin: miter"/>
   </g>
   <g id="patch_125">
    <path d="M 530.71446 256.32 
L 534.118975 256.32 
L 534.118975 256.32 
L 530.71446 256.32 
z
" clip-path="url(#p6be24c6532)" style="fill: #4c72b0; fill-opacity: 0.5; stroke: #ffffff; stroke-width: 0.340451; stroke-linejoin: miter"/>
   </g>
   <g id="patch_126">
    <path d="M 534.118975 256.32 
L 537.52349 256.32 
L 537.52349 256.32 
L 534.118975 256.32 
z
" clip-path="url(#p6be24c6532)" style="fill: #4c72b0; fill-opacity: 0.5; stroke: #ffffff; stroke-width: 0.340451; stroke-linejoin: miter"/>
   </g>
   <g id="patch_127">
    <path d="M 537.52349 256.32 
L 540.928005 256.32 
L 540.928005 256.32 
L 537.52349 256.32 
z
" clip-path="url(#p6be24c6532)" style="fill: #4c72b0; fill-opacity: 0.5; stroke: #ffffff; stroke-width: 0.340451; stroke-linejoin: miter"/>
   </g>
   <g id="patch_128">
    <path d="M 540.928005 256.32 
L 544.33252 256.32 
L 544.33252 256.32 
L 540.928005 256.32 
z
" clip-path="url(#p6be24c6532)" style="fill: #4c72b0; fill-opacity: 0.5; stroke: #ffffff; stroke-width: 0.340451; stroke-linejoin: miter"/>
   </g>
   <g id="patch_129">
    <path d="M 544.33252 256.32 
L 547.737035 256.32 
L 547.737035 256.32 
L 544.33252 256.32 
z
" clip-path="url(#p6be24c6532)" style="fill: #4c72b0; fill-opacity: 0.5; stroke: #ffffff; stroke-width: 0.340451; stroke-linejoin: miter"/>
   </g>
   <g id="patch_130">
    <path d="M 547.737035 256.32 
L 551.14155 256.32 
L 551.14155 256.32 
L 547.737035 256.32 
z
" clip-path="url(#p6be24c6532)" style="fill: #4c72b0; fill-opacity: 0.5; stroke: #ffffff; stroke-width: 0.340451; stroke-linejoin: miter"/>
   </g>
   <g id="patch_131">
    <path d="M 551.14155 256.32 
L 554.546065 256.32 
L 554.546065 256.32 
L 551.14155 256.32 
z
" clip-path="url(#p6be24c6532)" style="fill: #4c72b0; fill-opacity: 0.5; stroke: #ffffff; stroke-width: 0.340451; stroke-linejoin: miter"/>
   </g>
   <g id="patch_132">
    <path d="M 554.546065 256.32 
L 557.95058 256.32 
L 557.95058 256.32 
L 554.546065 256.32 
z
" clip-path="url(#p6be24c6532)" style="fill: #4c72b0; fill-opacity: 0.5; stroke: #ffffff; stroke-width: 0.340451; stroke-linejoin: miter"/>
   </g>
   <g id="patch_133">
    <path d="M 557.95058 256.32 
L 561.355095 256.32 
L 561.355095 147.315836 
L 557.95058 147.315836 
z
" clip-path="url(#p6be24c6532)" style="fill: #4c72b0; fill-opacity: 0.5; stroke: #ffffff; stroke-width: 0.340451; stroke-linejoin: miter"/>
   </g>
   <g id="patch_134">
    <path d="M 561.355095 256.32 
L 564.75961 256.32 
L 564.75961 256.32 
L 561.355095 256.32 
z
" clip-path="url(#p6be24c6532)" style="fill: #4c72b0; fill-opacity: 0.5; stroke: #ffffff; stroke-width: 0.340451; stroke-linejoin: miter"/>
   </g>
   <g id="patch_135">
    <path d="M 564.75961 256.32 
L 568.164124 256.32 
L 568.164124 256.32 
L 564.75961 256.32 
z
" clip-path="url(#p6be24c6532)" style="fill: #4c72b0; fill-opacity: 0.5; stroke: #ffffff; stroke-width: 0.340451; stroke-linejoin: miter"/>
   </g>
   <g id="patch_136">
    <path d="M 568.164124 256.32 
L 571.568639 256.32 
L 571.568639 256.32 
L 568.164124 256.32 
z
" clip-path="url(#p6be24c6532)" style="fill: #4c72b0; fill-opacity: 0.5; stroke: #ffffff; stroke-width: 0.340451; stroke-linejoin: miter"/>
   </g>
   <g id="patch_137">
    <path d="M 571.568639 256.32 
L 574.973154 256.32 
L 574.973154 256.32 
L 571.568639 256.32 
z
" clip-path="url(#p6be24c6532)" style="fill: #4c72b0; fill-opacity: 0.5; stroke: #ffffff; stroke-width: 0.340451; stroke-linejoin: miter"/>
   </g>
   <g id="patch_138">
    <path d="M 574.973154 256.32 
L 578.377669 256.32 
L 578.377669 256.32 
L 574.973154 256.32 
z
" clip-path="url(#p6be24c6532)" style="fill: #4c72b0; fill-opacity: 0.5; stroke: #ffffff; stroke-width: 0.340451; stroke-linejoin: miter"/>
   </g>
   <g id="patch_139">
    <path d="M 578.377669 256.32 
L 581.782184 256.32 
L 581.782184 256.32 
L 578.377669 256.32 
z
" clip-path="url(#p6be24c6532)" style="fill: #4c72b0; fill-opacity: 0.5; stroke: #ffffff; stroke-width: 0.340451; stroke-linejoin: miter"/>
   </g>
   <g id="patch_140">
    <path d="M 581.782184 256.32 
L 585.186699 256.32 
L 585.186699 256.32 
L 581.782184 256.32 
z
" clip-path="url(#p6be24c6532)" style="fill: #4c72b0; fill-opacity: 0.5; stroke: #ffffff; stroke-width: 0.340451; stroke-linejoin: miter"/>
   </g>
   <g id="patch_141">
    <path d="M 585.186699 256.32 
L 588.591214 256.32 
L 588.591214 256.32 
L 585.186699 256.32 
z
" clip-path="url(#p6be24c6532)" style="fill: #4c72b0; fill-opacity: 0.5; stroke: #ffffff; stroke-width: 0.340451; stroke-linejoin: miter"/>
   </g>
   <g id="patch_142">
    <path d="M 588.591214 256.32 
L 591.995729 256.32 
L 591.995729 256.32 
L 588.591214 256.32 
z
" clip-path="url(#p6be24c6532)" style="fill: #4c72b0; fill-opacity: 0.5; stroke: #ffffff; stroke-width: 0.340451; stroke-linejoin: miter"/>
   </g>
   <g id="patch_143">
    <path d="M 591.995729 256.32 
L 595.400244 256.32 
L 595.400244 256.32 
L 591.995729 256.32 
z
" clip-path="url(#p6be24c6532)" style="fill: #4c72b0; fill-opacity: 0.5; stroke: #ffffff; stroke-width: 0.340451; stroke-linejoin: miter"/>
   </g>
   <g id="patch_144">
    <path d="M 595.400244 256.32 
L 598.804759 256.32 
L 598.804759 256.32 
L 595.400244 256.32 
z
" clip-path="url(#p6be24c6532)" style="fill: #4c72b0; fill-opacity: 0.5; stroke: #ffffff; stroke-width: 0.340451; stroke-linejoin: miter"/>
   </g>
   <g id="patch_145">
    <path d="M 598.804759 256.32 
L 602.209274 256.32 
L 602.209274 256.32 
L 598.804759 256.32 
z
" clip-path="url(#p6be24c6532)" style="fill: #4c72b0; fill-opacity: 0.5; stroke: #ffffff; stroke-width: 0.340451; stroke-linejoin: miter"/>
   </g>
   <g id="patch_146">
    <path d="M 602.209274 256.32 
L 605.613789 256.32 
L 605.613789 256.32 
L 602.209274 256.32 
z
" clip-path="url(#p6be24c6532)" style="fill: #4c72b0; fill-opacity: 0.5; stroke: #ffffff; stroke-width: 0.340451; stroke-linejoin: miter"/>
   </g>
   <g id="patch_147">
    <path d="M 605.613789 256.32 
L 609.018304 256.32 
L 609.018304 256.32 
L 605.613789 256.32 
z
" clip-path="url(#p6be24c6532)" style="fill: #4c72b0; fill-opacity: 0.5; stroke: #ffffff; stroke-width: 0.340451; stroke-linejoin: miter"/>
   </g>
   <g id="patch_148">
    <path d="M 609.018304 256.32 
L 612.422819 256.32 
L 612.422819 256.32 
L 609.018304 256.32 
z
" clip-path="url(#p6be24c6532)" style="fill: #4c72b0; fill-opacity: 0.5; stroke: #ffffff; stroke-width: 0.340451; stroke-linejoin: miter"/>
   </g>
   <g id="patch_149">
    <path d="M 612.422819 256.32 
L 615.827334 256.32 
L 615.827334 256.32 
L 612.422819 256.32 
z
" clip-path="url(#p6be24c6532)" style="fill: #4c72b0; fill-opacity: 0.5; stroke: #ffffff; stroke-width: 0.340451; stroke-linejoin: miter"/>
   </g>
   <g id="patch_150">
    <path d="M 615.827334 256.32 
L 619.231849 256.32 
L 619.231849 256.32 
L 615.827334 256.32 
z
" clip-path="url(#p6be24c6532)" style="fill: #4c72b0; fill-opacity: 0.5; stroke: #ffffff; stroke-width: 0.340451; stroke-linejoin: miter"/>
   </g>
   <g id="patch_151">
    <path d="M 619.231849 256.32 
L 622.636364 256.32 
L 622.636364 45.12 
L 619.231849 45.12 
z
" clip-path="url(#p6be24c6532)" style="fill: #4c72b0; fill-opacity: 0.5; stroke: #ffffff; stroke-width: 0.340451; stroke-linejoin: miter"/>
   </g>
   <g id="line2d_17">
    <path d="M 115.363636 256.126284 
L 173.993148 256.309027 
L 237.720877 256.159312 
L 245.368205 256.142054 
L 263.211969 256.318068 
L 298.899497 256.244989 
L 309.095934 256.214608 
L 332.037917 256.31992 
L 354.979899 256.231307 
L 362.627227 255.866293 
L 367.725445 255.637667 
L 372.823664 255.724444 
L 383.020101 256.231307 
L 393.216537 256.318501 
L 416.15852 256.237506 
L 421.256738 255.96399 
L 431.453175 255.023827 
L 434.002284 255.045679 
L 439.100503 255.50099 
L 444.198721 256.014505 
L 449.296939 256.253866 
L 459.493376 256.319388 
L 474.788031 256.260941 
L 477.33714 256.150523 
L 479.886249 255.89552 
L 482.435359 255.392036 
L 484.984468 254.549356 
L 487.533577 253.371116 
L 490.082686 252.033425 
L 492.631795 250.88137 
L 495.180905 250.297251 
L 497.730014 250.498615 
L 500.279123 251.408839 
L 505.377341 253.995772 
L 507.92645 255.016187 
L 510.47556 255.681621 
L 513.024669 256.047185 
L 518.122887 256.286869 
L 530.868433 256.315251 
L 535.966651 256.245626 
L 538.515761 256.079602 
L 541.06487 255.641784 
L 543.613979 254.649943 
L 546.163088 252.730608 
L 548.712197 249.586563 
L 551.261307 245.294988 
L 553.810416 240.563941 
L 556.359525 236.666388 
L 558.908634 234.922479 
L 561.457743 235.986562 
L 564.006852 239.455074 
L 569.105071 248.605451 
L 571.65418 252.065358 
L 574.203289 254.271944 
L 576.752398 255.459508 
L 579.301508 256.004443 
L 581.850617 256.218996 
L 586.948835 256.313052 
L 597.145272 256.273821 
L 599.694381 256.151891 
L 602.24349 255.785784 
L 604.792599 254.838268 
L 607.341709 252.732856 
L 609.890818 248.740261 
L 612.439927 242.340681 
L 614.989036 233.816812 
L 617.538145 224.70244 
L 620.087254 217.546149 
L 622.636364 214.817353 
L 622.636364 214.817353 
" clip-path="url(#p6be24c6532)" style="fill: none; stroke: #4c72b0; stroke-width: 1.5; stroke-linecap: round"/>
   </g>
   <g id="patch_152">
    <path d="M 90 256.32 
L 90 34.56 
" style="fill: none; stroke: #cccccc; stroke-width: 1.25; stroke-linejoin: miter; stroke-linecap: square"/>
   </g>
   <g id="patch_153">
    <path d="M 648 256.32 
L 648 34.56 
" style="fill: none; stroke: #cccccc; stroke-width: 1.25; stroke-linejoin: miter; stroke-linecap: square"/>
   </g>
   <g id="patch_154">
    <path d="M 90 256.32 
L 648 256.32 
" style="fill: none; stroke: #cccccc; stroke-width: 1.25; stroke-linejoin: miter; stroke-linecap: square"/>
   </g>
   <g id="patch_155">
    <path d="M 90 34.56 
L 648 34.56 
" style="fill: none; stroke: #cccccc; stroke-width: 1.25; stroke-linejoin: miter; stroke-linecap: square"/>
   </g>
   <g id="text_19">
    <!-- Histogramm von cleanliness_rating -->
    <g style="fill: #262626" transform="translate(263.20125 28.56) scale(0.12 -0.12)">
     <defs>
      <path id="DejaVuSans-6f" d="M 1959 3097 
Q 1497 3097 1228 2736 
Q 959 2375 959 1747 
Q 959 1119 1226 758 
Q 1494 397 1959 397 
Q 2419 397 2687 759 
Q 2956 1122 2956 1747 
Q 2956 2369 2687 2733 
Q 2419 3097 1959 3097 
z
M 1959 3584 
Q 2709 3584 3137 3096 
Q 3566 2609 3566 1747 
Q 3566 888 3137 398 
Q 2709 -91 1959 -91 
Q 1206 -91 779 398 
Q 353 888 353 1747 
Q 353 2609 779 3096 
Q 1206 3584 1959 3584 
z
" transform="scale(0.015625)"/>
      <path id="DejaVuSans-6d" d="M 3328 2828 
Q 3544 3216 3844 3400 
Q 4144 3584 4550 3584 
Q 5097 3584 5394 3201 
Q 5691 2819 5691 2113 
L 5691 0 
L 5113 0 
L 5113 2094 
Q 5113 2597 4934 2840 
Q 4756 3084 4391 3084 
Q 3944 3084 3684 2787 
Q 3425 2491 3425 1978 
L 3425 0 
L 2847 0 
L 2847 2094 
Q 2847 2600 2669 2842 
Q 2491 3084 2119 3084 
Q 1678 3084 1418 2786 
Q 1159 2488 1159 1978 
L 1159 0 
L 581 0 
L 581 3500 
L 1159 3500 
L 1159 2956 
Q 1356 3278 1631 3431 
Q 1906 3584 2284 3584 
Q 2666 3584 2933 3390 
Q 3200 3197 3328 2828 
z
" transform="scale(0.015625)"/>
      <path id="DejaVuSans-20" transform="scale(0.015625)"/>
      <path id="DejaVuSans-76" d="M 191 3500 
L 800 3500 
L 1894 563 
L 2988 3500 
L 3597 3500 
L 2284 0 
L 1503 0 
L 191 3500 
z
" transform="scale(0.015625)"/>
     </defs>
     <use xlink:href="#DejaVuSans-48"/>
     <use xlink:href="#DejaVuSans-69" x="75.195312"/>
     <use xlink:href="#DejaVuSans-73" x="102.978516"/>
     <use xlink:href="#DejaVuSans-74" x="155.078125"/>
     <use xlink:href="#DejaVuSans-6f" x="194.287109"/>
     <use xlink:href="#DejaVuSans-67" x="255.46875"/>
     <use xlink:href="#DejaVuSans-72" x="318.945312"/>
     <use xlink:href="#DejaVuSans-61" x="360.058594"/>
     <use xlink:href="#DejaVuSans-6d" x="421.337891"/>
     <use xlink:href="#DejaVuSans-6d" x="518.75"/>
     <use xlink:href="#DejaVuSans-20" x="616.162109"/>
     <use xlink:href="#DejaVuSans-76" x="647.949219"/>
     <use xlink:href="#DejaVuSans-6f" x="707.128906"/>
     <use xlink:href="#DejaVuSans-6e" x="768.310547"/>
     <use xlink:href="#DejaVuSans-20" x="831.689453"/>
     <use xlink:href="#DejaVuSans-63" x="863.476562"/>
     <use xlink:href="#DejaVuSans-6c" x="918.457031"/>
     <use xlink:href="#DejaVuSans-65" x="946.240234"/>
     <use xlink:href="#DejaVuSans-61" x="1007.763672"/>
     <use xlink:href="#DejaVuSans-6e" x="1069.042969"/>
     <use xlink:href="#DejaVuSans-6c" x="1132.421875"/>
     <use xlink:href="#DejaVuSans-69" x="1160.205078"/>
     <use xlink:href="#DejaVuSans-6e" x="1187.988281"/>
     <use xlink:href="#DejaVuSans-65" x="1251.367188"/>
     <use xlink:href="#DejaVuSans-73" x="1312.890625"/>
     <use xlink:href="#DejaVuSans-73" x="1364.990234"/>
     <use xlink:href="#DejaVuSans-5f" x="1417.089844"/>
     <use xlink:href="#DejaVuSans-72" x="1467.089844"/>
     <use xlink:href="#DejaVuSans-61" x="1508.203125"/>
     <use xlink:href="#DejaVuSans-74" x="1569.482422"/>
     <use xlink:href="#DejaVuSans-69" x="1608.691406"/>
     <use xlink:href="#DejaVuSans-6e" x="1636.474609"/>
     <use xlink:href="#DejaVuSans-67" x="1699.853516"/>
    </g>
   </g>
  </g>
 </g>
 <defs>
  <clipPath id="p6be24c6532">
   <rect x="90" y="34.56" width="558" height="221.76"/>
  </clipPath>
 </defs>
</svg>
