<?xml version="1.0" encoding="utf-8" standalone="no"?>
<!DOCTYPE svg PUBLIC "-//W3C//DTD SVG 1.1//EN"
  "http://www.w3.org/Graphics/SVG/1.1/DTD/svg11.dtd">
<svg xmlns:xlink="http://www.w3.org/1999/xlink" width="720pt" height="288pt" viewBox="0 0 720 288" xmlns="http://www.w3.org/2000/svg" version="1.1">
 <metadata>
  <rdf:RDF xmlns:dc="http://purl.org/dc/elements/1.1/" xmlns:cc="http://creativecommons.org/ns#" xmlns:rdf="http://www.w3.org/1999/02/22-rdf-syntax-ns#">
   <cc:Work>
    <dc:type rdf:resource="http://purl.org/dc/dcmitype/StillImage"/>
    <dc:date>2024-01-22T22:21:25.287970</dc:date>
    <dc:format>image/svg+xml</dc:format>
    <dc:creator>
     <cc:Agent>
      <dc:title>Matplotlib v3.8.2, https://matplotlib.org/</dc:title>
     </cc:Agent>
    </dc:creator>
   </cc:Work>
  </rdf:RDF>
 </metadata>
 <defs>
  <style type="text/css">*{stroke-linejoin: round; stroke-linecap: butt}</style>
 </defs>
 <g id="figure_1">
  <g id="patch_1">
   <path d="M 0 288 
L 720 288 
L 720 0 
L 0 0 
z
" style="fill: #ffffff"/>
  </g>
  <g id="axes_1">
   <g id="patch_2">
    <path d="M 90 256.32 
L 648 256.32 
L 648 34.56 
L 90 34.56 
z
" style="fill: #ffffff"/>
   </g>
   <g id="matplotlib.axis_1">
    <g id="xtick_1">
     <g id="line2d_1">
      <path d="M 115.061338 256.32 
L 115.061338 34.56 
" clip-path="url(#pc92f6722ba)" style="fill: none; stroke: #cccccc; stroke-linecap: round"/>
     </g>
     <g id="text_1">
      <!-- 0 -->
      <g style="fill: #262626" transform="translate(111.561963 274.178281) scale(0.11 -0.11)">
       <defs>
        <path id="DejaVuSans-30" d="M 2034 4250 
Q 1547 4250 1301 3770 
Q 1056 3291 1056 2328 
Q 1056 1369 1301 889 
Q 1547 409 2034 409 
Q 2525 409 2770 889 
Q 3016 1369 3016 2328 
Q 3016 3291 2770 3770 
Q 2525 4250 2034 4250 
z
M 2034 4750 
Q 2819 4750 3233 4129 
Q 3647 3509 3647 2328 
Q 3647 1150 3233 529 
Q 2819 -91 2034 -91 
Q 1250 -91 836 529 
Q 422 1150 422 2328 
Q 422 3509 836 4129 
Q 1250 4750 2034 4750 
z
" transform="scale(0.015625)"/>
       </defs>
       <use xlink:href="#DejaVuSans-30"/>
      </g>
     </g>
    </g>
    <g id="xtick_2">
     <g id="line2d_2">
      <path d="M 215.433876 256.32 
L 215.433876 34.56 
" clip-path="url(#pc92f6722ba)" style="fill: none; stroke: #cccccc; stroke-linecap: round"/>
     </g>
     <g id="text_2">
      <!-- 5 -->
      <g style="fill: #262626" transform="translate(211.934501 274.178281) scale(0.11 -0.11)">
       <defs>
        <path id="DejaVuSans-35" d="M 691 4666 
L 3169 4666 
L 3169 4134 
L 1269 4134 
L 1269 2991 
Q 1406 3038 1543 3061 
Q 1681 3084 1819 3084 
Q 2600 3084 3056 2656 
Q 3513 2228 3513 1497 
Q 3513 744 3044 326 
Q 2575 -91 1722 -91 
Q 1428 -91 1123 -41 
Q 819 9 494 109 
L 494 744 
Q 775 591 1075 516 
Q 1375 441 1709 441 
Q 2250 441 2565 725 
Q 2881 1009 2881 1497 
Q 2881 1984 2565 2268 
Q 2250 2553 1709 2553 
Q 1456 2553 1204 2497 
Q 953 2441 691 2322 
L 691 4666 
z
" transform="scale(0.015625)"/>
       </defs>
       <use xlink:href="#DejaVuSans-35"/>
      </g>
     </g>
    </g>
    <g id="xtick_3">
     <g id="line2d_3">
      <path d="M 315.806414 256.32 
L 315.806414 34.56 
" clip-path="url(#pc92f6722ba)" style="fill: none; stroke: #cccccc; stroke-linecap: round"/>
     </g>
     <g id="text_3">
      <!-- 10 -->
      <g style="fill: #262626" transform="translate(308.807664 274.178281) scale(0.11 -0.11)">
       <defs>
        <path id="DejaVuSans-31" d="M 794 531 
L 1825 531 
L 1825 4091 
L 703 3866 
L 703 4441 
L 1819 4666 
L 2450 4666 
L 2450 531 
L 3481 531 
L 3481 0 
L 794 0 
L 794 531 
z
" transform="scale(0.015625)"/>
       </defs>
       <use xlink:href="#DejaVuSans-31"/>
       <use xlink:href="#DejaVuSans-30" x="63.623047"/>
      </g>
     </g>
    </g>
    <g id="xtick_4">
     <g id="line2d_4">
      <path d="M 416.178952 256.32 
L 416.178952 34.56 
" clip-path="url(#pc92f6722ba)" style="fill: none; stroke: #cccccc; stroke-linecap: round"/>
     </g>
     <g id="text_4">
      <!-- 15 -->
      <g style="fill: #262626" transform="translate(409.180202 274.178281) scale(0.11 -0.11)">
       <use xlink:href="#DejaVuSans-31"/>
       <use xlink:href="#DejaVuSans-35" x="63.623047"/>
      </g>
     </g>
    </g>
    <g id="xtick_5">
     <g id="line2d_5">
      <path d="M 516.551489 256.32 
L 516.551489 34.56 
" clip-path="url(#pc92f6722ba)" style="fill: none; stroke: #cccccc; stroke-linecap: round"/>
     </g>
     <g id="text_5">
      <!-- 20 -->
      <g style="fill: #262626" transform="translate(509.552739 274.178281) scale(0.11 -0.11)">
       <defs>
        <path id="DejaVuSans-32" d="M 1228 531 
L 3431 531 
L 3431 0 
L 469 0 
L 469 531 
Q 828 903 1448 1529 
Q 2069 2156 2228 2338 
Q 2531 2678 2651 2914 
Q 2772 3150 2772 3378 
Q 2772 3750 2511 3984 
Q 2250 4219 1831 4219 
Q 1534 4219 1204 4116 
Q 875 4013 500 3803 
L 500 4441 
Q 881 4594 1212 4672 
Q 1544 4750 1819 4750 
Q 2544 4750 2975 4387 
Q 3406 4025 3406 3419 
Q 3406 3131 3298 2873 
Q 3191 2616 2906 2266 
Q 2828 2175 2409 1742 
Q 1991 1309 1228 531 
z
" transform="scale(0.015625)"/>
       </defs>
       <use xlink:href="#DejaVuSans-32"/>
       <use xlink:href="#DejaVuSans-30" x="63.623047"/>
      </g>
     </g>
    </g>
    <g id="xtick_6">
     <g id="line2d_6">
      <path d="M 616.924027 256.32 
L 616.924027 34.56 
" clip-path="url(#pc92f6722ba)" style="fill: none; stroke: #cccccc; stroke-linecap: round"/>
     </g>
     <g id="text_6">
      <!-- 25 -->
      <g style="fill: #262626" transform="translate(609.925277 274.178281) scale(0.11 -0.11)">
       <use xlink:href="#DejaVuSans-32"/>
       <use xlink:href="#DejaVuSans-35" x="63.623047"/>
      </g>
     </g>
    </g>
    <g id="text_7">
     <!-- dist -->
     <g style="fill: #262626" transform="translate(358.04625 289.584063) scale(0.12 -0.12)">
      <defs>
       <path id="DejaVuSans-64" d="M 2906 2969 
L 2906 4863 
L 3481 4863 
L 3481 0 
L 2906 0 
L 2906 525 
Q 2725 213 2448 61 
Q 2172 -91 1784 -91 
Q 1150 -91 751 415 
Q 353 922 353 1747 
Q 353 2572 751 3078 
Q 1150 3584 1784 3584 
Q 2172 3584 2448 3432 
Q 2725 3281 2906 2969 
z
M 947 1747 
Q 947 1113 1208 752 
Q 1469 391 1925 391 
Q 2381 391 2643 752 
Q 2906 1113 2906 1747 
Q 2906 2381 2643 2742 
Q 2381 3103 1925 3103 
Q 1469 3103 1208 2742 
Q 947 2381 947 1747 
z
" transform="scale(0.015625)"/>
       <path id="DejaVuSans-69" d="M 603 3500 
L 1178 3500 
L 1178 0 
L 603 0 
L 603 3500 
z
M 603 4863 
L 1178 4863 
L 1178 4134 
L 603 4134 
L 603 4863 
z
" transform="scale(0.015625)"/>
       <path id="DejaVuSans-73" d="M 2834 3397 
L 2834 2853 
Q 2591 2978 2328 3040 
Q 2066 3103 1784 3103 
Q 1356 3103 1142 2972 
Q 928 2841 928 2578 
Q 928 2378 1081 2264 
Q 1234 2150 1697 2047 
L 1894 2003 
Q 2506 1872 2764 1633 
Q 3022 1394 3022 966 
Q 3022 478 2636 193 
Q 2250 -91 1575 -91 
Q 1294 -91 989 -36 
Q 684 19 347 128 
L 347 722 
Q 666 556 975 473 
Q 1284 391 1588 391 
Q 1994 391 2212 530 
Q 2431 669 2431 922 
Q 2431 1156 2273 1281 
Q 2116 1406 1581 1522 
L 1381 1569 
Q 847 1681 609 1914 
Q 372 2147 372 2553 
Q 372 3047 722 3315 
Q 1072 3584 1716 3584 
Q 2034 3584 2315 3537 
Q 2597 3491 2834 3397 
z
" transform="scale(0.015625)"/>
       <path id="DejaVuSans-74" d="M 1172 4494 
L 1172 3500 
L 2356 3500 
L 2356 3053 
L 1172 3053 
L 1172 1153 
Q 1172 725 1289 603 
Q 1406 481 1766 481 
L 2356 481 
L 2356 0 
L 1766 0 
Q 1100 0 847 248 
Q 594 497 594 1153 
L 594 3053 
L 172 3053 
L 172 3500 
L 594 3500 
L 594 4494 
L 1172 4494 
z
" transform="scale(0.015625)"/>
      </defs>
      <use xlink:href="#DejaVuSans-64"/>
      <use xlink:href="#DejaVuSans-69" x="63.476562"/>
      <use xlink:href="#DejaVuSans-73" x="91.259766"/>
      <use xlink:href="#DejaVuSans-74" x="143.359375"/>
     </g>
    </g>
   </g>
   <g id="matplotlib.axis_2">
    <g id="ytick_1">
     <g id="line2d_7">
      <path d="M 90 256.32 
L 648 256.32 
" clip-path="url(#pc92f6722ba)" style="fill: none; stroke: #cccccc; stroke-linecap: round"/>
     </g>
     <g id="text_8">
      <!-- 0 -->
      <g style="fill: #262626" transform="translate(73.50125 260.499141) scale(0.11 -0.11)">
       <use xlink:href="#DejaVuSans-30"/>
      </g>
     </g>
    </g>
    <g id="ytick_2">
     <g id="line2d_8">
      <path d="M 90 229.449771 
L 648 229.449771 
" clip-path="url(#pc92f6722ba)" style="fill: none; stroke: #cccccc; stroke-linecap: round"/>
     </g>
     <g id="text_9">
      <!-- 250 -->
      <g style="fill: #262626" transform="translate(59.50375 233.628912) scale(0.11 -0.11)">
       <use xlink:href="#DejaVuSans-32"/>
       <use xlink:href="#DejaVuSans-35" x="63.623047"/>
       <use xlink:href="#DejaVuSans-30" x="127.246094"/>
      </g>
     </g>
    </g>
    <g id="ytick_3">
     <g id="line2d_9">
      <path d="M 90 202.579542 
L 648 202.579542 
" clip-path="url(#pc92f6722ba)" style="fill: none; stroke: #cccccc; stroke-linecap: round"/>
     </g>
     <g id="text_10">
      <!-- 500 -->
      <g style="fill: #262626" transform="translate(59.50375 206.758683) scale(0.11 -0.11)">
       <use xlink:href="#DejaVuSans-35"/>
       <use xlink:href="#DejaVuSans-30" x="63.623047"/>
       <use xlink:href="#DejaVuSans-30" x="127.246094"/>
      </g>
     </g>
    </g>
    <g id="ytick_4">
     <g id="line2d_10">
      <path d="M 90 175.709313 
L 648 175.709313 
" clip-path="url(#pc92f6722ba)" style="fill: none; stroke: #cccccc; stroke-linecap: round"/>
     </g>
     <g id="text_11">
      <!-- 750 -->
      <g style="fill: #262626" transform="translate(59.50375 179.888454) scale(0.11 -0.11)">
       <defs>
        <path id="DejaVuSans-37" d="M 525 4666 
L 3525 4666 
L 3525 4397 
L 1831 0 
L 1172 0 
L 2766 4134 
L 525 4134 
L 525 4666 
z
" transform="scale(0.015625)"/>
       </defs>
       <use xlink:href="#DejaVuSans-37"/>
       <use xlink:href="#DejaVuSans-35" x="63.623047"/>
       <use xlink:href="#DejaVuSans-30" x="127.246094"/>
      </g>
     </g>
    </g>
    <g id="ytick_5">
     <g id="line2d_11">
      <path d="M 90 148.839084 
L 648 148.839084 
" clip-path="url(#pc92f6722ba)" style="fill: none; stroke: #cccccc; stroke-linecap: round"/>
     </g>
     <g id="text_12">
      <!-- 1000 -->
      <g style="fill: #262626" transform="translate(52.505 153.018225) scale(0.11 -0.11)">
       <use xlink:href="#DejaVuSans-31"/>
       <use xlink:href="#DejaVuSans-30" x="63.623047"/>
       <use xlink:href="#DejaVuSans-30" x="127.246094"/>
       <use xlink:href="#DejaVuSans-30" x="190.869141"/>
      </g>
     </g>
    </g>
    <g id="ytick_6">
     <g id="line2d_12">
      <path d="M 90 121.968855 
L 648 121.968855 
" clip-path="url(#pc92f6722ba)" style="fill: none; stroke: #cccccc; stroke-linecap: round"/>
     </g>
     <g id="text_13">
      <!-- 1250 -->
      <g style="fill: #262626" transform="translate(52.505 126.147996) scale(0.11 -0.11)">
       <use xlink:href="#DejaVuSans-31"/>
       <use xlink:href="#DejaVuSans-32" x="63.623047"/>
       <use xlink:href="#DejaVuSans-35" x="127.246094"/>
       <use xlink:href="#DejaVuSans-30" x="190.869141"/>
      </g>
     </g>
    </g>
    <g id="ytick_7">
     <g id="line2d_13">
      <path d="M 90 95.098626 
L 648 95.098626 
" clip-path="url(#pc92f6722ba)" style="fill: none; stroke: #cccccc; stroke-linecap: round"/>
     </g>
     <g id="text_14">
      <!-- 1500 -->
      <g style="fill: #262626" transform="translate(52.505 99.277767) scale(0.11 -0.11)">
       <use xlink:href="#DejaVuSans-31"/>
       <use xlink:href="#DejaVuSans-35" x="63.623047"/>
       <use xlink:href="#DejaVuSans-30" x="127.246094"/>
       <use xlink:href="#DejaVuSans-30" x="190.869141"/>
      </g>
     </g>
    </g>
    <g id="ytick_8">
     <g id="line2d_14">
      <path d="M 90 68.228397 
L 648 68.228397 
" clip-path="url(#pc92f6722ba)" style="fill: none; stroke: #cccccc; stroke-linecap: round"/>
     </g>
     <g id="text_15">
      <!-- 1750 -->
      <g style="fill: #262626" transform="translate(52.505 72.407538) scale(0.11 -0.11)">
       <use xlink:href="#DejaVuSans-31"/>
       <use xlink:href="#DejaVuSans-37" x="63.623047"/>
       <use xlink:href="#DejaVuSans-35" x="127.246094"/>
       <use xlink:href="#DejaVuSans-30" x="190.869141"/>
      </g>
     </g>
    </g>
    <g id="ytick_9">
     <g id="line2d_15">
      <path d="M 90 41.358168 
L 648 41.358168 
" clip-path="url(#pc92f6722ba)" style="fill: none; stroke: #cccccc; stroke-linecap: round"/>
     </g>
     <g id="text_16">
      <!-- 2000 -->
      <g style="fill: #262626" transform="translate(52.505 45.537309) scale(0.11 -0.11)">
       <use xlink:href="#DejaVuSans-32"/>
       <use xlink:href="#DejaVuSans-30" x="63.623047"/>
       <use xlink:href="#DejaVuSans-30" x="127.246094"/>
       <use xlink:href="#DejaVuSans-30" x="190.869141"/>
      </g>
     </g>
    </g>
    <g id="text_17">
     <!-- Häufigkeit -->
     <g style="fill: #262626" transform="translate(46.009375 175.9875) rotate(-90) scale(0.12 -0.12)">
      <defs>
       <path id="DejaVuSans-48" d="M 628 4666 
L 1259 4666 
L 1259 2753 
L 3553 2753 
L 3553 4666 
L 4184 4666 
L 4184 0 
L 3553 0 
L 3553 2222 
L 1259 2222 
L 1259 0 
L 628 0 
L 628 4666 
z
" transform="scale(0.015625)"/>
       <path id="DejaVuSans-e4" d="M 2194 1759 
Q 1497 1759 1228 1600 
Q 959 1441 959 1056 
Q 959 750 1161 570 
Q 1363 391 1709 391 
Q 2188 391 2477 730 
Q 2766 1069 2766 1631 
L 2766 1759 
L 2194 1759 
z
M 3341 1997 
L 3341 0 
L 2766 0 
L 2766 531 
Q 2569 213 2275 61 
Q 1981 -91 1556 -91 
Q 1019 -91 701 211 
Q 384 513 384 1019 
Q 384 1609 779 1909 
Q 1175 2209 1959 2209 
L 2766 2209 
L 2766 2266 
Q 2766 2663 2505 2880 
Q 2244 3097 1772 3097 
Q 1472 3097 1187 3025 
Q 903 2953 641 2809 
L 641 3341 
Q 956 3463 1253 3523 
Q 1550 3584 1831 3584 
Q 2591 3584 2966 3190 
Q 3341 2797 3341 1997 
z
M 2150 4850 
L 2784 4850 
L 2784 4219 
L 2150 4219 
L 2150 4850 
z
M 928 4850 
L 1562 4850 
L 1562 4219 
L 928 4219 
L 928 4850 
z
" transform="scale(0.015625)"/>
       <path id="DejaVuSans-75" d="M 544 1381 
L 544 3500 
L 1119 3500 
L 1119 1403 
Q 1119 906 1312 657 
Q 1506 409 1894 409 
Q 2359 409 2629 706 
Q 2900 1003 2900 1516 
L 2900 3500 
L 3475 3500 
L 3475 0 
L 2900 0 
L 2900 538 
Q 2691 219 2414 64 
Q 2138 -91 1772 -91 
Q 1169 -91 856 284 
Q 544 659 544 1381 
z
M 1991 3584 
L 1991 3584 
z
" transform="scale(0.015625)"/>
       <path id="DejaVuSans-66" d="M 2375 4863 
L 2375 4384 
L 1825 4384 
Q 1516 4384 1395 4259 
Q 1275 4134 1275 3809 
L 1275 3500 
L 2222 3500 
L 2222 3053 
L 1275 3053 
L 1275 0 
L 697 0 
L 697 3053 
L 147 3053 
L 147 3500 
L 697 3500 
L 697 3744 
Q 697 4328 969 4595 
Q 1241 4863 1831 4863 
L 2375 4863 
z
" transform="scale(0.015625)"/>
       <path id="DejaVuSans-67" d="M 2906 1791 
Q 2906 2416 2648 2759 
Q 2391 3103 1925 3103 
Q 1463 3103 1205 2759 
Q 947 2416 947 1791 
Q 947 1169 1205 825 
Q 1463 481 1925 481 
Q 2391 481 2648 825 
Q 2906 1169 2906 1791 
z
M 3481 434 
Q 3481 -459 3084 -895 
Q 2688 -1331 1869 -1331 
Q 1566 -1331 1297 -1286 
Q 1028 -1241 775 -1147 
L 775 -588 
Q 1028 -725 1275 -790 
Q 1522 -856 1778 -856 
Q 2344 -856 2625 -561 
Q 2906 -266 2906 331 
L 2906 616 
Q 2728 306 2450 153 
Q 2172 0 1784 0 
Q 1141 0 747 490 
Q 353 981 353 1791 
Q 353 2603 747 3093 
Q 1141 3584 1784 3584 
Q 2172 3584 2450 3431 
Q 2728 3278 2906 2969 
L 2906 3500 
L 3481 3500 
L 3481 434 
z
" transform="scale(0.015625)"/>
       <path id="DejaVuSans-6b" d="M 581 4863 
L 1159 4863 
L 1159 1991 
L 2875 3500 
L 3609 3500 
L 1753 1863 
L 3688 0 
L 2938 0 
L 1159 1709 
L 1159 0 
L 581 0 
L 581 4863 
z
" transform="scale(0.015625)"/>
       <path id="DejaVuSans-65" d="M 3597 1894 
L 3597 1613 
L 953 1613 
Q 991 1019 1311 708 
Q 1631 397 2203 397 
Q 2534 397 2845 478 
Q 3156 559 3463 722 
L 3463 178 
Q 3153 47 2828 -22 
Q 2503 -91 2169 -91 
Q 1331 -91 842 396 
Q 353 884 353 1716 
Q 353 2575 817 3079 
Q 1281 3584 2069 3584 
Q 2775 3584 3186 3129 
Q 3597 2675 3597 1894 
z
M 3022 2063 
Q 3016 2534 2758 2815 
Q 2500 3097 2075 3097 
Q 1594 3097 1305 2825 
Q 1016 2553 972 2059 
L 3022 2063 
z
" transform="scale(0.015625)"/>
      </defs>
      <use xlink:href="#DejaVuSans-48"/>
      <use xlink:href="#DejaVuSans-e4" x="75.195312"/>
      <use xlink:href="#DejaVuSans-75" x="136.474609"/>
      <use xlink:href="#DejaVuSans-66" x="199.853516"/>
      <use xlink:href="#DejaVuSans-69" x="235.058594"/>
      <use xlink:href="#DejaVuSans-67" x="262.841797"/>
      <use xlink:href="#DejaVuSans-6b" x="326.318359"/>
      <use xlink:href="#DejaVuSans-65" x="380.603516"/>
      <use xlink:href="#DejaVuSans-69" x="442.126953"/>
      <use xlink:href="#DejaVuSans-74" x="469.910156"/>
     </g>
    </g>
   </g>
   <g id="patch_3">
    <path d="M 115.363636 256.32 
L 118.383117 256.32 
L 118.383117 233.641527 
L 115.363636 233.641527 
z
" clip-path="url(#pc92f6722ba)" style="fill: #4c72b0; fill-opacity: 0.5; stroke: #ffffff; stroke-width: 0.301948; stroke-linejoin: miter"/>
   </g>
   <g id="patch_4">
    <path d="M 118.383117 256.32 
L 121.402597 256.32 
L 121.402597 180.653435 
L 118.383117 180.653435 
z
" clip-path="url(#pc92f6722ba)" style="fill: #4c72b0; fill-opacity: 0.5; stroke: #ffffff; stroke-width: 0.301948; stroke-linejoin: miter"/>
   </g>
   <g id="patch_5">
    <path d="M 121.402597 256.32 
L 124.422078 256.32 
L 124.422078 136.156336 
L 121.402597 136.156336 
z
" clip-path="url(#pc92f6722ba)" style="fill: #4c72b0; fill-opacity: 0.5; stroke: #ffffff; stroke-width: 0.301948; stroke-linejoin: miter"/>
   </g>
   <g id="patch_6">
    <path d="M 124.422078 256.32 
L 127.441558 256.32 
L 127.441558 127.880305 
L 124.422078 127.880305 
z
" clip-path="url(#pc92f6722ba)" style="fill: #4c72b0; fill-opacity: 0.5; stroke: #ffffff; stroke-width: 0.301948; stroke-linejoin: miter"/>
   </g>
   <g id="patch_7">
    <path d="M 127.441558 256.32 
L 130.461039 256.32 
L 130.461039 112.510534 
L 127.441558 112.510534 
z
" clip-path="url(#pc92f6722ba)" style="fill: #4c72b0; fill-opacity: 0.5; stroke: #ffffff; stroke-width: 0.301948; stroke-linejoin: miter"/>
   </g>
   <g id="patch_8">
    <path d="M 130.461039 256.32 
L 133.480519 256.32 
L 133.480519 83.81313 
L 130.461039 83.81313 
z
" clip-path="url(#pc92f6722ba)" style="fill: #4c72b0; fill-opacity: 0.5; stroke: #ffffff; stroke-width: 0.301948; stroke-linejoin: miter"/>
   </g>
   <g id="patch_9">
    <path d="M 133.480519 256.32 
L 136.5 256.32 
L 136.5 60.059847 
L 133.480519 60.059847 
z
" clip-path="url(#pc92f6722ba)" style="fill: #4c72b0; fill-opacity: 0.5; stroke: #ffffff; stroke-width: 0.301948; stroke-linejoin: miter"/>
   </g>
   <g id="patch_10">
    <path d="M 136.5 256.32 
L 139.519481 256.32 
L 139.519481 45.12 
L 136.5 45.12 
z
" clip-path="url(#pc92f6722ba)" style="fill: #4c72b0; fill-opacity: 0.5; stroke: #ffffff; stroke-width: 0.301948; stroke-linejoin: miter"/>
   </g>
   <g id="patch_11">
    <path d="M 139.519481 256.32 
L 142.538961 256.32 
L 142.538961 58.770076 
L 139.519481 58.770076 
z
" clip-path="url(#pc92f6722ba)" style="fill: #4c72b0; fill-opacity: 0.5; stroke: #ffffff; stroke-width: 0.301948; stroke-linejoin: miter"/>
   </g>
   <g id="patch_12">
    <path d="M 142.538961 256.32 
L 145.558442 256.32 
L 145.558442 65.971298 
L 142.538961 65.971298 
z
" clip-path="url(#pc92f6722ba)" style="fill: #4c72b0; fill-opacity: 0.5; stroke: #ffffff; stroke-width: 0.301948; stroke-linejoin: miter"/>
   </g>
   <g id="patch_13">
    <path d="M 145.558442 256.32 
L 148.577922 256.32 
L 148.577922 77.901679 
L 145.558442 77.901679 
z
" clip-path="url(#pc92f6722ba)" style="fill: #4c72b0; fill-opacity: 0.5; stroke: #ffffff; stroke-width: 0.301948; stroke-linejoin: miter"/>
   </g>
   <g id="patch_14">
    <path d="M 148.577922 256.32 
L 151.597403 256.32 
L 151.597403 75.537099 
L 148.577922 75.537099 
z
" clip-path="url(#pc92f6722ba)" style="fill: #4c72b0; fill-opacity: 0.5; stroke: #ffffff; stroke-width: 0.301948; stroke-linejoin: miter"/>
   </g>
   <g id="patch_15">
    <path d="M 151.597403 256.32 
L 154.616883 256.32 
L 154.616883 73.387481 
L 151.597403 73.387481 
z
" clip-path="url(#pc92f6722ba)" style="fill: #4c72b0; fill-opacity: 0.5; stroke: #ffffff; stroke-width: 0.301948; stroke-linejoin: miter"/>
   </g>
   <g id="patch_16">
    <path d="M 154.616883 256.32 
L 157.636364 256.32 
L 157.636364 79.728855 
L 154.616883 79.728855 
z
" clip-path="url(#pc92f6722ba)" style="fill: #4c72b0; fill-opacity: 0.5; stroke: #ffffff; stroke-width: 0.301948; stroke-linejoin: miter"/>
   </g>
   <g id="patch_17">
    <path d="M 157.636364 256.32 
L 160.655844 256.32 
L 160.655844 78.654046 
L 157.636364 78.654046 
z
" clip-path="url(#pc92f6722ba)" style="fill: #4c72b0; fill-opacity: 0.5; stroke: #ffffff; stroke-width: 0.301948; stroke-linejoin: miter"/>
   </g>
   <g id="patch_18">
    <path d="M 160.655844 256.32 
L 163.675325 256.32 
L 163.675325 84.672977 
L 160.655844 84.672977 
z
" clip-path="url(#pc92f6722ba)" style="fill: #4c72b0; fill-opacity: 0.5; stroke: #ffffff; stroke-width: 0.301948; stroke-linejoin: miter"/>
   </g>
   <g id="patch_19">
    <path d="M 163.675325 256.32 
L 166.694805 256.32 
L 166.694805 76.396947 
L 163.675325 76.396947 
z
" clip-path="url(#pc92f6722ba)" style="fill: #4c72b0; fill-opacity: 0.5; stroke: #ffffff; stroke-width: 0.301948; stroke-linejoin: miter"/>
   </g>
   <g id="patch_20">
    <path d="M 166.694805 256.32 
L 169.714286 256.32 
L 169.714286 96.603359 
L 166.694805 96.603359 
z
" clip-path="url(#pc92f6722ba)" style="fill: #4c72b0; fill-opacity: 0.5; stroke: #ffffff; stroke-width: 0.301948; stroke-linejoin: miter"/>
   </g>
   <g id="patch_21">
    <path d="M 169.714286 256.32 
L 172.733766 256.32 
L 172.733766 116.809771 
L 169.714286 116.809771 
z
" clip-path="url(#pc92f6722ba)" style="fill: #4c72b0; fill-opacity: 0.5; stroke: #ffffff; stroke-width: 0.301948; stroke-linejoin: miter"/>
   </g>
   <g id="patch_22">
    <path d="M 172.733766 256.32 
L 175.753247 256.32 
L 175.753247 123.366107 
L 172.733766 123.366107 
z
" clip-path="url(#pc92f6722ba)" style="fill: #4c72b0; fill-opacity: 0.5; stroke: #ffffff; stroke-width: 0.301948; stroke-linejoin: miter"/>
   </g>
   <g id="patch_23">
    <path d="M 175.753247 256.32 
L 178.772727 256.32 
L 178.772727 114.982595 
L 175.753247 114.982595 
z
" clip-path="url(#pc92f6722ba)" style="fill: #4c72b0; fill-opacity: 0.5; stroke: #ffffff; stroke-width: 0.301948; stroke-linejoin: miter"/>
   </g>
   <g id="patch_24">
    <path d="M 178.772727 256.32 
L 181.792208 256.32 
L 181.792208 130.889771 
L 178.772727 130.889771 
z
" clip-path="url(#pc92f6722ba)" style="fill: #4c72b0; fill-opacity: 0.5; stroke: #ffffff; stroke-width: 0.301948; stroke-linejoin: miter"/>
   </g>
   <g id="patch_25">
    <path d="M 181.792208 256.32 
L 184.811688 256.32 
L 184.811688 138.305954 
L 181.792208 138.305954 
z
" clip-path="url(#pc92f6722ba)" style="fill: #4c72b0; fill-opacity: 0.5; stroke: #ffffff; stroke-width: 0.301948; stroke-linejoin: miter"/>
   </g>
   <g id="patch_26">
    <path d="M 184.811688 256.32 
L 187.831169 256.32 
L 187.831169 141.960305 
L 184.811688 141.960305 
z
" clip-path="url(#pc92f6722ba)" style="fill: #4c72b0; fill-opacity: 0.5; stroke: #ffffff; stroke-width: 0.301948; stroke-linejoin: miter"/>
   </g>
   <g id="patch_27">
    <path d="M 187.831169 256.32 
L 190.850649 256.32 
L 190.850649 138.520916 
L 187.831169 138.520916 
z
" clip-path="url(#pc92f6722ba)" style="fill: #4c72b0; fill-opacity: 0.5; stroke: #ffffff; stroke-width: 0.301948; stroke-linejoin: miter"/>
   </g>
   <g id="patch_28">
    <path d="M 190.850649 256.32 
L 193.87013 256.32 
L 193.87013 143.035115 
L 190.850649 143.035115 
z
" clip-path="url(#pc92f6722ba)" style="fill: #4c72b0; fill-opacity: 0.5; stroke: #ffffff; stroke-width: 0.301948; stroke-linejoin: miter"/>
   </g>
   <g id="patch_29">
    <path d="M 193.87013 256.32 
L 196.88961 256.32 
L 196.88961 135.296489 
L 193.87013 135.296489 
z
" clip-path="url(#pc92f6722ba)" style="fill: #4c72b0; fill-opacity: 0.5; stroke: #ffffff; stroke-width: 0.301948; stroke-linejoin: miter"/>
   </g>
   <g id="patch_30">
    <path d="M 196.88961 256.32 
L 199.909091 256.32 
L 199.909091 139.918168 
L 196.88961 139.918168 
z
" clip-path="url(#pc92f6722ba)" style="fill: #4c72b0; fill-opacity: 0.5; stroke: #ffffff; stroke-width: 0.301948; stroke-linejoin: miter"/>
   </g>
   <g id="patch_31">
    <path d="M 199.909091 256.32 
L 202.928571 256.32 
L 202.928571 152.385954 
L 199.909091 152.385954 
z
" clip-path="url(#pc92f6722ba)" style="fill: #4c72b0; fill-opacity: 0.5; stroke: #ffffff; stroke-width: 0.301948; stroke-linejoin: miter"/>
   </g>
   <g id="patch_32">
    <path d="M 202.928571 256.32 
L 205.948052 256.32 
L 205.948052 162.274198 
L 202.928571 162.274198 
z
" clip-path="url(#pc92f6722ba)" style="fill: #4c72b0; fill-opacity: 0.5; stroke: #ffffff; stroke-width: 0.301948; stroke-linejoin: miter"/>
   </g>
   <g id="patch_33">
    <path d="M 205.948052 256.32 
L 208.967532 256.32 
L 208.967532 176.999084 
L 205.948052 176.999084 
z
" clip-path="url(#pc92f6722ba)" style="fill: #4c72b0; fill-opacity: 0.5; stroke: #ffffff; stroke-width: 0.301948; stroke-linejoin: miter"/>
   </g>
   <g id="patch_34">
    <path d="M 208.967532 256.32 
L 211.987013 256.32 
L 211.987013 172.807328 
L 208.967532 172.807328 
z
" clip-path="url(#pc92f6722ba)" style="fill: #4c72b0; fill-opacity: 0.5; stroke: #ffffff; stroke-width: 0.301948; stroke-linejoin: miter"/>
   </g>
   <g id="patch_35">
    <path d="M 211.987013 256.32 
L 215.006494 256.32 
L 215.006494 186.027481 
L 211.987013 186.027481 
z
" clip-path="url(#pc92f6722ba)" style="fill: #4c72b0; fill-opacity: 0.5; stroke: #ffffff; stroke-width: 0.301948; stroke-linejoin: miter"/>
   </g>
   <g id="patch_36">
    <path d="M 215.006494 256.32 
L 218.025974 256.32 
L 218.025974 190.64916 
L 215.006494 190.64916 
z
" clip-path="url(#pc92f6722ba)" style="fill: #4c72b0; fill-opacity: 0.5; stroke: #ffffff; stroke-width: 0.301948; stroke-linejoin: miter"/>
   </g>
   <g id="patch_37">
    <path d="M 218.025974 256.32 
L 221.045455 256.32 
L 221.045455 202.794504 
L 218.025974 202.794504 
z
" clip-path="url(#pc92f6722ba)" style="fill: #4c72b0; fill-opacity: 0.5; stroke: #ffffff; stroke-width: 0.301948; stroke-linejoin: miter"/>
   </g>
   <g id="patch_38">
    <path d="M 221.045455 256.32 
L 224.064935 256.32 
L 224.064935 202.042137 
L 221.045455 202.042137 
z
" clip-path="url(#pc92f6722ba)" style="fill: #4c72b0; fill-opacity: 0.5; stroke: #ffffff; stroke-width: 0.301948; stroke-linejoin: miter"/>
   </g>
   <g id="patch_39">
    <path d="M 224.064935 256.32 
L 227.084416 256.32 
L 227.084416 200.107481 
L 224.064935 200.107481 
z
" clip-path="url(#pc92f6722ba)" style="fill: #4c72b0; fill-opacity: 0.5; stroke: #ffffff; stroke-width: 0.301948; stroke-linejoin: miter"/>
   </g>
   <g id="patch_40">
    <path d="M 227.084416 256.32 
L 230.103896 256.32 
L 230.103896 209.135878 
L 227.084416 209.135878 
z
" clip-path="url(#pc92f6722ba)" style="fill: #4c72b0; fill-opacity: 0.5; stroke: #ffffff; stroke-width: 0.301948; stroke-linejoin: miter"/>
   </g>
   <g id="patch_41">
    <path d="M 230.103896 256.32 
L 233.123377 256.32 
L 233.123377 212.360305 
L 230.103896 212.360305 
z
" clip-path="url(#pc92f6722ba)" style="fill: #4c72b0; fill-opacity: 0.5; stroke: #ffffff; stroke-width: 0.301948; stroke-linejoin: miter"/>
   </g>
   <g id="patch_42">
    <path d="M 233.123377 256.32 
L 236.142857 256.32 
L 236.142857 205.589008 
L 233.123377 205.589008 
z
" clip-path="url(#pc92f6722ba)" style="fill: #4c72b0; fill-opacity: 0.5; stroke: #ffffff; stroke-width: 0.301948; stroke-linejoin: miter"/>
   </g>
   <g id="patch_43">
    <path d="M 236.142857 256.32 
L 239.162338 256.32 
L 239.162338 211.070534 
L 236.142857 211.070534 
z
" clip-path="url(#pc92f6722ba)" style="fill: #4c72b0; fill-opacity: 0.5; stroke: #ffffff; stroke-width: 0.301948; stroke-linejoin: miter"/>
   </g>
   <g id="patch_44">
    <path d="M 239.162338 256.32 
L 242.181818 256.32 
L 242.181818 225.580458 
L 239.162338 225.580458 
z
" clip-path="url(#pc92f6722ba)" style="fill: #4c72b0; fill-opacity: 0.5; stroke: #ffffff; stroke-width: 0.301948; stroke-linejoin: miter"/>
   </g>
   <g id="patch_45">
    <path d="M 242.181818 256.32 
L 245.201299 256.32 
L 245.201299 226.870229 
L 242.181818 226.870229 
z
" clip-path="url(#pc92f6722ba)" style="fill: #4c72b0; fill-opacity: 0.5; stroke: #ffffff; stroke-width: 0.301948; stroke-linejoin: miter"/>
   </g>
   <g id="patch_46">
    <path d="M 245.201299 256.32 
L 248.220779 256.32 
L 248.220779 231.70687 
L 245.201299 231.70687 
z
" clip-path="url(#pc92f6722ba)" style="fill: #4c72b0; fill-opacity: 0.5; stroke: #ffffff; stroke-width: 0.301948; stroke-linejoin: miter"/>
   </g>
   <g id="patch_47">
    <path d="M 248.220779 256.32 
L 251.24026 256.32 
L 251.24026 228.267481 
L 248.220779 228.267481 
z
" clip-path="url(#pc92f6722ba)" style="fill: #4c72b0; fill-opacity: 0.5; stroke: #ffffff; stroke-width: 0.301948; stroke-linejoin: miter"/>
   </g>
   <g id="patch_48">
    <path d="M 251.24026 256.32 
L 254.25974 256.32 
L 254.25974 228.697405 
L 251.24026 228.697405 
z
" clip-path="url(#pc92f6722ba)" style="fill: #4c72b0; fill-opacity: 0.5; stroke: #ffffff; stroke-width: 0.301948; stroke-linejoin: miter"/>
   </g>
   <g id="patch_49">
    <path d="M 254.25974 256.32 
L 257.279221 256.32 
L 257.279221 229.557252 
L 254.25974 229.557252 
z
" clip-path="url(#pc92f6722ba)" style="fill: #4c72b0; fill-opacity: 0.5; stroke: #ffffff; stroke-width: 0.301948; stroke-linejoin: miter"/>
   </g>
   <g id="patch_50">
    <path d="M 257.279221 256.32 
L 260.298701 256.32 
L 260.298701 229.127328 
L 257.279221 229.127328 
z
" clip-path="url(#pc92f6722ba)" style="fill: #4c72b0; fill-opacity: 0.5; stroke: #ffffff; stroke-width: 0.301948; stroke-linejoin: miter"/>
   </g>
   <g id="patch_51">
    <path d="M 260.298701 256.32 
L 263.318182 256.32 
L 263.318182 228.16 
L 260.298701 228.16 
z
" clip-path="url(#pc92f6722ba)" style="fill: #4c72b0; fill-opacity: 0.5; stroke: #ffffff; stroke-width: 0.301948; stroke-linejoin: miter"/>
   </g>
   <g id="patch_52">
    <path d="M 263.318182 256.32 
L 266.337662 256.32 
L 266.337662 226.870229 
L 263.318182 226.870229 
z
" clip-path="url(#pc92f6722ba)" style="fill: #4c72b0; fill-opacity: 0.5; stroke: #ffffff; stroke-width: 0.301948; stroke-linejoin: miter"/>
   </g>
   <g id="patch_53">
    <path d="M 266.337662 256.32 
L 269.357143 256.32 
L 269.357143 233.319084 
L 266.337662 233.319084 
z
" clip-path="url(#pc92f6722ba)" style="fill: #4c72b0; fill-opacity: 0.5; stroke: #ffffff; stroke-width: 0.301948; stroke-linejoin: miter"/>
   </g>
   <g id="patch_54">
    <path d="M 269.357143 256.32 
L 272.376623 256.32 
L 272.376623 233.534046 
L 269.357143 233.534046 
z
" clip-path="url(#pc92f6722ba)" style="fill: #4c72b0; fill-opacity: 0.5; stroke: #ffffff; stroke-width: 0.301948; stroke-linejoin: miter"/>
   </g>
   <g id="patch_55">
    <path d="M 272.376623 256.32 
L 275.396104 256.32 
L 275.396104 238.155725 
L 272.376623 238.155725 
z
" clip-path="url(#pc92f6722ba)" style="fill: #4c72b0; fill-opacity: 0.5; stroke: #ffffff; stroke-width: 0.301948; stroke-linejoin: miter"/>
   </g>
   <g id="patch_56">
    <path d="M 275.396104 256.32 
L 278.415584 256.32 
L 278.415584 235.576183 
L 275.396104 235.576183 
z
" clip-path="url(#pc92f6722ba)" style="fill: #4c72b0; fill-opacity: 0.5; stroke: #ffffff; stroke-width: 0.301948; stroke-linejoin: miter"/>
   </g>
   <g id="patch_57">
    <path d="M 278.415584 256.32 
L 281.435065 256.32 
L 281.435065 238.69313 
L 278.415584 238.69313 
z
" clip-path="url(#pc92f6722ba)" style="fill: #4c72b0; fill-opacity: 0.5; stroke: #ffffff; stroke-width: 0.301948; stroke-linejoin: miter"/>
   </g>
   <g id="patch_58">
    <path d="M 281.435065 256.32 
L 284.454545 256.32 
L 284.454545 240.842748 
L 281.435065 240.842748 
z
" clip-path="url(#pc92f6722ba)" style="fill: #4c72b0; fill-opacity: 0.5; stroke: #ffffff; stroke-width: 0.301948; stroke-linejoin: miter"/>
   </g>
   <g id="patch_59">
    <path d="M 284.454545 256.32 
L 287.474026 256.32 
L 287.474026 246.109313 
L 284.454545 246.109313 
z
" clip-path="url(#pc92f6722ba)" style="fill: #4c72b0; fill-opacity: 0.5; stroke: #ffffff; stroke-width: 0.301948; stroke-linejoin: miter"/>
   </g>
   <g id="patch_60">
    <path d="M 287.474026 256.32 
L 290.493506 256.32 
L 290.493506 245.249466 
L 287.474026 245.249466 
z
" clip-path="url(#pc92f6722ba)" style="fill: #4c72b0; fill-opacity: 0.5; stroke: #ffffff; stroke-width: 0.301948; stroke-linejoin: miter"/>
   </g>
   <g id="patch_61">
    <path d="M 290.493506 256.32 
L 293.512987 256.32 
L 293.512987 245.356947 
L 290.493506 245.356947 
z
" clip-path="url(#pc92f6722ba)" style="fill: #4c72b0; fill-opacity: 0.5; stroke: #ffffff; stroke-width: 0.301948; stroke-linejoin: miter"/>
   </g>
   <g id="patch_62">
    <path d="M 293.512987 256.32 
L 296.532468 256.32 
L 296.532468 248.903817 
L 293.512987 248.903817 
z
" clip-path="url(#pc92f6722ba)" style="fill: #4c72b0; fill-opacity: 0.5; stroke: #ffffff; stroke-width: 0.301948; stroke-linejoin: miter"/>
   </g>
   <g id="patch_63">
    <path d="M 296.532468 256.32 
L 299.551948 256.32 
L 299.551948 245.78687 
L 296.532468 245.78687 
z
" clip-path="url(#pc92f6722ba)" style="fill: #4c72b0; fill-opacity: 0.5; stroke: #ffffff; stroke-width: 0.301948; stroke-linejoin: miter"/>
   </g>
   <g id="patch_64">
    <path d="M 299.551948 256.32 
L 302.571429 256.32 
L 302.571429 247.936489 
L 299.551948 247.936489 
z
" clip-path="url(#pc92f6722ba)" style="fill: #4c72b0; fill-opacity: 0.5; stroke: #ffffff; stroke-width: 0.301948; stroke-linejoin: miter"/>
   </g>
   <g id="patch_65">
    <path d="M 302.571429 256.32 
L 305.590909 256.32 
L 305.590909 245.571908 
L 302.571429 245.571908 
z
" clip-path="url(#pc92f6722ba)" style="fill: #4c72b0; fill-opacity: 0.5; stroke: #ffffff; stroke-width: 0.301948; stroke-linejoin: miter"/>
   </g>
   <g id="patch_66">
    <path d="M 305.590909 256.32 
L 308.61039 256.32 
L 308.61039 246.646718 
L 305.590909 246.646718 
z
" clip-path="url(#pc92f6722ba)" style="fill: #4c72b0; fill-opacity: 0.5; stroke: #ffffff; stroke-width: 0.301948; stroke-linejoin: miter"/>
   </g>
   <g id="patch_67">
    <path d="M 308.61039 256.32 
L 311.62987 256.32 
L 311.62987 249.871145 
L 308.61039 249.871145 
z
" clip-path="url(#pc92f6722ba)" style="fill: #4c72b0; fill-opacity: 0.5; stroke: #ffffff; stroke-width: 0.301948; stroke-linejoin: miter"/>
   </g>
   <g id="patch_68">
    <path d="M 311.62987 256.32 
L 314.649351 256.32 
L 314.649351 246.646718 
L 311.62987 246.646718 
z
" clip-path="url(#pc92f6722ba)" style="fill: #4c72b0; fill-opacity: 0.5; stroke: #ffffff; stroke-width: 0.301948; stroke-linejoin: miter"/>
   </g>
   <g id="patch_69">
    <path d="M 314.649351 256.32 
L 317.668831 256.32 
L 317.668831 249.871145 
L 314.649351 249.871145 
z
" clip-path="url(#pc92f6722ba)" style="fill: #4c72b0; fill-opacity: 0.5; stroke: #ffffff; stroke-width: 0.301948; stroke-linejoin: miter"/>
   </g>
   <g id="patch_70">
    <path d="M 317.668831 256.32 
L 320.688312 256.32 
L 320.688312 251.160916 
L 317.668831 251.160916 
z
" clip-path="url(#pc92f6722ba)" style="fill: #4c72b0; fill-opacity: 0.5; stroke: #ffffff; stroke-width: 0.301948; stroke-linejoin: miter"/>
   </g>
   <g id="patch_71">
    <path d="M 320.688312 256.32 
L 323.707792 256.32 
L 323.707792 252.558168 
L 320.688312 252.558168 
z
" clip-path="url(#pc92f6722ba)" style="fill: #4c72b0; fill-opacity: 0.5; stroke: #ffffff; stroke-width: 0.301948; stroke-linejoin: miter"/>
   </g>
   <g id="patch_72">
    <path d="M 323.707792 256.32 
L 326.727273 256.32 
L 326.727273 251.805802 
L 323.707792 251.805802 
z
" clip-path="url(#pc92f6722ba)" style="fill: #4c72b0; fill-opacity: 0.5; stroke: #ffffff; stroke-width: 0.301948; stroke-linejoin: miter"/>
   </g>
   <g id="patch_73">
    <path d="M 326.727273 256.32 
L 329.746753 256.32 
L 329.746753 253.847939 
L 326.727273 253.847939 
z
" clip-path="url(#pc92f6722ba)" style="fill: #4c72b0; fill-opacity: 0.5; stroke: #ffffff; stroke-width: 0.301948; stroke-linejoin: miter"/>
   </g>
   <g id="patch_74">
    <path d="M 329.746753 256.32 
L 332.766234 256.32 
L 332.766234 252.77313 
L 329.746753 252.77313 
z
" clip-path="url(#pc92f6722ba)" style="fill: #4c72b0; fill-opacity: 0.5; stroke: #ffffff; stroke-width: 0.301948; stroke-linejoin: miter"/>
   </g>
   <g id="patch_75">
    <path d="M 332.766234 256.32 
L 335.785714 256.32 
L 335.785714 252.020763 
L 332.766234 252.020763 
z
" clip-path="url(#pc92f6722ba)" style="fill: #4c72b0; fill-opacity: 0.5; stroke: #ffffff; stroke-width: 0.301948; stroke-linejoin: miter"/>
   </g>
   <g id="patch_76">
    <path d="M 335.785714 256.32 
L 338.805195 256.32 
L 338.805195 251.483359 
L 335.785714 251.483359 
z
" clip-path="url(#pc92f6722ba)" style="fill: #4c72b0; fill-opacity: 0.5; stroke: #ffffff; stroke-width: 0.301948; stroke-linejoin: miter"/>
   </g>
   <g id="patch_77">
    <path d="M 338.805195 256.32 
L 341.824675 256.32 
L 341.824675 254.815267 
L 338.805195 254.815267 
z
" clip-path="url(#pc92f6722ba)" style="fill: #4c72b0; fill-opacity: 0.5; stroke: #ffffff; stroke-width: 0.301948; stroke-linejoin: miter"/>
   </g>
   <g id="patch_78">
    <path d="M 341.824675 256.32 
L 344.844156 256.32 
L 344.844156 251.698321 
L 341.824675 251.698321 
z
" clip-path="url(#pc92f6722ba)" style="fill: #4c72b0; fill-opacity: 0.5; stroke: #ffffff; stroke-width: 0.301948; stroke-linejoin: miter"/>
   </g>
   <g id="patch_79">
    <path d="M 344.844156 256.32 
L 347.863636 256.32 
L 347.863636 254.815267 
L 344.844156 254.815267 
z
" clip-path="url(#pc92f6722ba)" style="fill: #4c72b0; fill-opacity: 0.5; stroke: #ffffff; stroke-width: 0.301948; stroke-linejoin: miter"/>
   </g>
   <g id="patch_80">
    <path d="M 347.863636 256.32 
L 350.883117 256.32 
L 350.883117 255.352672 
L 347.863636 255.352672 
z
" clip-path="url(#pc92f6722ba)" style="fill: #4c72b0; fill-opacity: 0.5; stroke: #ffffff; stroke-width: 0.301948; stroke-linejoin: miter"/>
   </g>
   <g id="patch_81">
    <path d="M 350.883117 256.32 
L 353.902597 256.32 
L 353.902597 253.310534 
L 350.883117 253.310534 
z
" clip-path="url(#pc92f6722ba)" style="fill: #4c72b0; fill-opacity: 0.5; stroke: #ffffff; stroke-width: 0.301948; stroke-linejoin: miter"/>
   </g>
   <g id="patch_82">
    <path d="M 353.902597 256.32 
L 356.922078 256.32 
L 356.922078 254.600305 
L 353.902597 254.600305 
z
" clip-path="url(#pc92f6722ba)" style="fill: #4c72b0; fill-opacity: 0.5; stroke: #ffffff; stroke-width: 0.301948; stroke-linejoin: miter"/>
   </g>
   <g id="patch_83">
    <path d="M 356.922078 256.32 
L 359.941558 256.32 
L 359.941558 254.170382 
L 356.922078 254.170382 
z
" clip-path="url(#pc92f6722ba)" style="fill: #4c72b0; fill-opacity: 0.5; stroke: #ffffff; stroke-width: 0.301948; stroke-linejoin: miter"/>
   </g>
   <g id="patch_84">
    <path d="M 359.941558 256.32 
L 362.961039 256.32 
L 362.961039 255.352672 
L 359.941558 255.352672 
z
" clip-path="url(#pc92f6722ba)" style="fill: #4c72b0; fill-opacity: 0.5; stroke: #ffffff; stroke-width: 0.301948; stroke-linejoin: miter"/>
   </g>
   <g id="patch_85">
    <path d="M 362.961039 256.32 
L 365.980519 256.32 
L 365.980519 255.567634 
L 362.961039 255.567634 
z
" clip-path="url(#pc92f6722ba)" style="fill: #4c72b0; fill-opacity: 0.5; stroke: #ffffff; stroke-width: 0.301948; stroke-linejoin: miter"/>
   </g>
   <g id="patch_86">
    <path d="M 365.980519 256.32 
L 369 256.32 
L 369 254.062901 
L 365.980519 254.062901 
z
" clip-path="url(#pc92f6722ba)" style="fill: #4c72b0; fill-opacity: 0.5; stroke: #ffffff; stroke-width: 0.301948; stroke-linejoin: miter"/>
   </g>
   <g id="patch_87">
    <path d="M 369 256.32 
L 372.019481 256.32 
L 372.019481 255.352672 
L 369 255.352672 
z
" clip-path="url(#pc92f6722ba)" style="fill: #4c72b0; fill-opacity: 0.5; stroke: #ffffff; stroke-width: 0.301948; stroke-linejoin: miter"/>
   </g>
   <g id="patch_88">
    <path d="M 372.019481 256.32 
L 375.038961 256.32 
L 375.038961 255.245191 
L 372.019481 255.245191 
z
" clip-path="url(#pc92f6722ba)" style="fill: #4c72b0; fill-opacity: 0.5; stroke: #ffffff; stroke-width: 0.301948; stroke-linejoin: miter"/>
   </g>
   <g id="patch_89">
    <path d="M 375.038961 256.32 
L 378.058442 256.32 
L 378.058442 255.675115 
L 375.038961 255.675115 
z
" clip-path="url(#pc92f6722ba)" style="fill: #4c72b0; fill-opacity: 0.5; stroke: #ffffff; stroke-width: 0.301948; stroke-linejoin: miter"/>
   </g>
   <g id="patch_90">
    <path d="M 378.058442 256.32 
L 381.077922 256.32 
L 381.077922 255.567634 
L 378.058442 255.567634 
z
" clip-path="url(#pc92f6722ba)" style="fill: #4c72b0; fill-opacity: 0.5; stroke: #ffffff; stroke-width: 0.301948; stroke-linejoin: miter"/>
   </g>
   <g id="patch_91">
    <path d="M 381.077922 256.32 
L 384.097403 256.32 
L 384.097403 255.13771 
L 381.077922 255.13771 
z
" clip-path="url(#pc92f6722ba)" style="fill: #4c72b0; fill-opacity: 0.5; stroke: #ffffff; stroke-width: 0.301948; stroke-linejoin: miter"/>
   </g>
   <g id="patch_92">
    <path d="M 384.097403 256.32 
L 387.116883 256.32 
L 387.116883 254.277863 
L 384.097403 254.277863 
z
" clip-path="url(#pc92f6722ba)" style="fill: #4c72b0; fill-opacity: 0.5; stroke: #ffffff; stroke-width: 0.301948; stroke-linejoin: miter"/>
   </g>
   <g id="patch_93">
    <path d="M 387.116883 256.32 
L 390.136364 256.32 
L 390.136364 254.492824 
L 387.116883 254.492824 
z
" clip-path="url(#pc92f6722ba)" style="fill: #4c72b0; fill-opacity: 0.5; stroke: #ffffff; stroke-width: 0.301948; stroke-linejoin: miter"/>
   </g>
   <g id="patch_94">
    <path d="M 390.136364 256.32 
L 393.155844 256.32 
L 393.155844 255.567634 
L 390.136364 255.567634 
z
" clip-path="url(#pc92f6722ba)" style="fill: #4c72b0; fill-opacity: 0.5; stroke: #ffffff; stroke-width: 0.301948; stroke-linejoin: miter"/>
   </g>
   <g id="patch_95">
    <path d="M 393.155844 256.32 
L 396.175325 256.32 
L 396.175325 253.632977 
L 393.155844 253.632977 
z
" clip-path="url(#pc92f6722ba)" style="fill: #4c72b0; fill-opacity: 0.5; stroke: #ffffff; stroke-width: 0.301948; stroke-linejoin: miter"/>
   </g>
   <g id="patch_96">
    <path d="M 396.175325 256.32 
L 399.194805 256.32 
L 399.194805 253.847939 
L 396.175325 253.847939 
z
" clip-path="url(#pc92f6722ba)" style="fill: #4c72b0; fill-opacity: 0.5; stroke: #ffffff; stroke-width: 0.301948; stroke-linejoin: miter"/>
   </g>
   <g id="patch_97">
    <path d="M 399.194805 256.32 
L 402.214286 256.32 
L 402.214286 254.277863 
L 399.194805 254.277863 
z
" clip-path="url(#pc92f6722ba)" style="fill: #4c72b0; fill-opacity: 0.5; stroke: #ffffff; stroke-width: 0.301948; stroke-linejoin: miter"/>
   </g>
   <g id="patch_98">
    <path d="M 402.214286 256.32 
L 405.233766 256.32 
L 405.233766 255.567634 
L 402.214286 255.567634 
z
" clip-path="url(#pc92f6722ba)" style="fill: #4c72b0; fill-opacity: 0.5; stroke: #ffffff; stroke-width: 0.301948; stroke-linejoin: miter"/>
   </g>
   <g id="patch_99">
    <path d="M 405.233766 256.32 
L 408.253247 256.32 
L 408.253247 254.385344 
L 405.233766 254.385344 
z
" clip-path="url(#pc92f6722ba)" style="fill: #4c72b0; fill-opacity: 0.5; stroke: #ffffff; stroke-width: 0.301948; stroke-linejoin: miter"/>
   </g>
   <g id="patch_100">
    <path d="M 408.253247 256.32 
L 411.272727 256.32 
L 411.272727 254.922748 
L 408.253247 254.922748 
z
" clip-path="url(#pc92f6722ba)" style="fill: #4c72b0; fill-opacity: 0.5; stroke: #ffffff; stroke-width: 0.301948; stroke-linejoin: miter"/>
   </g>
   <g id="patch_101">
    <path d="M 411.272727 256.32 
L 414.292208 256.32 
L 414.292208 253.740458 
L 411.272727 253.740458 
z
" clip-path="url(#pc92f6722ba)" style="fill: #4c72b0; fill-opacity: 0.5; stroke: #ffffff; stroke-width: 0.301948; stroke-linejoin: miter"/>
   </g>
   <g id="patch_102">
    <path d="M 414.292208 256.32 
L 417.311688 256.32 
L 417.311688 253.310534 
L 414.292208 253.310534 
z
" clip-path="url(#pc92f6722ba)" style="fill: #4c72b0; fill-opacity: 0.5; stroke: #ffffff; stroke-width: 0.301948; stroke-linejoin: miter"/>
   </g>
   <g id="patch_103">
    <path d="M 417.311688 256.32 
L 420.331169 256.32 
L 420.331169 255.245191 
L 417.311688 255.245191 
z
" clip-path="url(#pc92f6722ba)" style="fill: #4c72b0; fill-opacity: 0.5; stroke: #ffffff; stroke-width: 0.301948; stroke-linejoin: miter"/>
   </g>
   <g id="patch_104">
    <path d="M 420.331169 256.32 
L 423.350649 256.32 
L 423.350649 255.030229 
L 420.331169 255.030229 
z
" clip-path="url(#pc92f6722ba)" style="fill: #4c72b0; fill-opacity: 0.5; stroke: #ffffff; stroke-width: 0.301948; stroke-linejoin: miter"/>
   </g>
   <g id="patch_105">
    <path d="M 423.350649 256.32 
L 426.37013 256.32 
L 426.37013 254.277863 
L 423.350649 254.277863 
z
" clip-path="url(#pc92f6722ba)" style="fill: #4c72b0; fill-opacity: 0.5; stroke: #ffffff; stroke-width: 0.301948; stroke-linejoin: miter"/>
   </g>
   <g id="patch_106">
    <path d="M 426.37013 256.32 
L 429.38961 256.32 
L 429.38961 255.460153 
L 426.37013 255.460153 
z
" clip-path="url(#pc92f6722ba)" style="fill: #4c72b0; fill-opacity: 0.5; stroke: #ffffff; stroke-width: 0.301948; stroke-linejoin: miter"/>
   </g>
   <g id="patch_107">
    <path d="M 429.38961 256.32 
L 432.409091 256.32 
L 432.409091 256.105038 
L 429.38961 256.105038 
z
" clip-path="url(#pc92f6722ba)" style="fill: #4c72b0; fill-opacity: 0.5; stroke: #ffffff; stroke-width: 0.301948; stroke-linejoin: miter"/>
   </g>
   <g id="patch_108">
    <path d="M 432.409091 256.32 
L 435.428571 256.32 
L 435.428571 255.567634 
L 432.409091 255.567634 
z
" clip-path="url(#pc92f6722ba)" style="fill: #4c72b0; fill-opacity: 0.5; stroke: #ffffff; stroke-width: 0.301948; stroke-linejoin: miter"/>
   </g>
   <g id="patch_109">
    <path d="M 435.428571 256.32 
L 438.448052 256.32 
L 438.448052 255.567634 
L 435.428571 255.567634 
z
" clip-path="url(#pc92f6722ba)" style="fill: #4c72b0; fill-opacity: 0.5; stroke: #ffffff; stroke-width: 0.301948; stroke-linejoin: miter"/>
   </g>
   <g id="patch_110">
    <path d="M 438.448052 256.32 
L 441.467532 256.32 
L 441.467532 255.890076 
L 438.448052 255.890076 
z
" clip-path="url(#pc92f6722ba)" style="fill: #4c72b0; fill-opacity: 0.5; stroke: #ffffff; stroke-width: 0.301948; stroke-linejoin: miter"/>
   </g>
   <g id="patch_111">
    <path d="M 441.467532 256.32 
L 444.487013 256.32 
L 444.487013 255.890076 
L 441.467532 255.890076 
z
" clip-path="url(#pc92f6722ba)" style="fill: #4c72b0; fill-opacity: 0.5; stroke: #ffffff; stroke-width: 0.301948; stroke-linejoin: miter"/>
   </g>
   <g id="patch_112">
    <path d="M 444.487013 256.32 
L 447.506494 256.32 
L 447.506494 255.675115 
L 444.487013 255.675115 
z
" clip-path="url(#pc92f6722ba)" style="fill: #4c72b0; fill-opacity: 0.5; stroke: #ffffff; stroke-width: 0.301948; stroke-linejoin: miter"/>
   </g>
   <g id="patch_113">
    <path d="M 447.506494 256.32 
L 450.525974 256.32 
L 450.525974 255.997557 
L 447.506494 255.997557 
z
" clip-path="url(#pc92f6722ba)" style="fill: #4c72b0; fill-opacity: 0.5; stroke: #ffffff; stroke-width: 0.301948; stroke-linejoin: miter"/>
   </g>
   <g id="patch_114">
    <path d="M 450.525974 256.32 
L 453.545455 256.32 
L 453.545455 255.890076 
L 450.525974 255.890076 
z
" clip-path="url(#pc92f6722ba)" style="fill: #4c72b0; fill-opacity: 0.5; stroke: #ffffff; stroke-width: 0.301948; stroke-linejoin: miter"/>
   </g>
   <g id="patch_115">
    <path d="M 453.545455 256.32 
L 456.564935 256.32 
L 456.564935 255.567634 
L 453.545455 255.567634 
z
" clip-path="url(#pc92f6722ba)" style="fill: #4c72b0; fill-opacity: 0.5; stroke: #ffffff; stroke-width: 0.301948; stroke-linejoin: miter"/>
   </g>
   <g id="patch_116">
    <path d="M 456.564935 256.32 
L 459.584416 256.32 
L 459.584416 255.997557 
L 456.564935 255.997557 
z
" clip-path="url(#pc92f6722ba)" style="fill: #4c72b0; fill-opacity: 0.5; stroke: #ffffff; stroke-width: 0.301948; stroke-linejoin: miter"/>
   </g>
   <g id="patch_117">
    <path d="M 459.584416 256.32 
L 462.603896 256.32 
L 462.603896 256.105038 
L 459.584416 256.105038 
z
" clip-path="url(#pc92f6722ba)" style="fill: #4c72b0; fill-opacity: 0.5; stroke: #ffffff; stroke-width: 0.301948; stroke-linejoin: miter"/>
   </g>
   <g id="patch_118">
    <path d="M 462.603896 256.32 
L 465.623377 256.32 
L 465.623377 256.105038 
L 462.603896 256.105038 
z
" clip-path="url(#pc92f6722ba)" style="fill: #4c72b0; fill-opacity: 0.5; stroke: #ffffff; stroke-width: 0.301948; stroke-linejoin: miter"/>
   </g>
   <g id="patch_119">
    <path d="M 465.623377 256.32 
L 468.642857 256.32 
L 468.642857 256.105038 
L 465.623377 256.105038 
z
" clip-path="url(#pc92f6722ba)" style="fill: #4c72b0; fill-opacity: 0.5; stroke: #ffffff; stroke-width: 0.301948; stroke-linejoin: miter"/>
   </g>
   <g id="patch_120">
    <path d="M 468.642857 256.32 
L 471.662338 256.32 
L 471.662338 256.105038 
L 468.642857 256.105038 
z
" clip-path="url(#pc92f6722ba)" style="fill: #4c72b0; fill-opacity: 0.5; stroke: #ffffff; stroke-width: 0.301948; stroke-linejoin: miter"/>
   </g>
   <g id="patch_121">
    <path d="M 471.662338 256.32 
L 474.681818 256.32 
L 474.681818 256.212519 
L 471.662338 256.212519 
z
" clip-path="url(#pc92f6722ba)" style="fill: #4c72b0; fill-opacity: 0.5; stroke: #ffffff; stroke-width: 0.301948; stroke-linejoin: miter"/>
   </g>
   <g id="patch_122">
    <path d="M 474.681818 256.32 
L 477.701299 256.32 
L 477.701299 256.32 
L 474.681818 256.32 
z
" clip-path="url(#pc92f6722ba)" style="fill: #4c72b0; fill-opacity: 0.5; stroke: #ffffff; stroke-width: 0.301948; stroke-linejoin: miter"/>
   </g>
   <g id="patch_123">
    <path d="M 477.701299 256.32 
L 480.720779 256.32 
L 480.720779 256.105038 
L 477.701299 256.105038 
z
" clip-path="url(#pc92f6722ba)" style="fill: #4c72b0; fill-opacity: 0.5; stroke: #ffffff; stroke-width: 0.301948; stroke-linejoin: miter"/>
   </g>
   <g id="patch_124">
    <path d="M 480.720779 256.32 
L 483.74026 256.32 
L 483.74026 256.105038 
L 480.720779 256.105038 
z
" clip-path="url(#pc92f6722ba)" style="fill: #4c72b0; fill-opacity: 0.5; stroke: #ffffff; stroke-width: 0.301948; stroke-linejoin: miter"/>
   </g>
   <g id="patch_125">
    <path d="M 483.74026 256.32 
L 486.75974 256.32 
L 486.75974 256.212519 
L 483.74026 256.212519 
z
" clip-path="url(#pc92f6722ba)" style="fill: #4c72b0; fill-opacity: 0.5; stroke: #ffffff; stroke-width: 0.301948; stroke-linejoin: miter"/>
   </g>
   <g id="patch_126">
    <path d="M 486.75974 256.32 
L 489.779221 256.32 
L 489.779221 256.105038 
L 486.75974 256.105038 
z
" clip-path="url(#pc92f6722ba)" style="fill: #4c72b0; fill-opacity: 0.5; stroke: #ffffff; stroke-width: 0.301948; stroke-linejoin: miter"/>
   </g>
   <g id="patch_127">
    <path d="M 489.779221 256.32 
L 492.798701 256.32 
L 492.798701 256.105038 
L 489.779221 256.105038 
z
" clip-path="url(#pc92f6722ba)" style="fill: #4c72b0; fill-opacity: 0.5; stroke: #ffffff; stroke-width: 0.301948; stroke-linejoin: miter"/>
   </g>
   <g id="patch_128">
    <path d="M 492.798701 256.32 
L 495.818182 256.32 
L 495.818182 256.32 
L 492.798701 256.32 
z
" clip-path="url(#pc92f6722ba)" style="fill: #4c72b0; fill-opacity: 0.5; stroke: #ffffff; stroke-width: 0.301948; stroke-linejoin: miter"/>
   </g>
   <g id="patch_129">
    <path d="M 495.818182 256.32 
L 498.837662 256.32 
L 498.837662 256.32 
L 495.818182 256.32 
z
" clip-path="url(#pc92f6722ba)" style="fill: #4c72b0; fill-opacity: 0.5; stroke: #ffffff; stroke-width: 0.301948; stroke-linejoin: miter"/>
   </g>
   <g id="patch_130">
    <path d="M 498.837662 256.32 
L 501.857143 256.32 
L 501.857143 256.212519 
L 498.837662 256.212519 
z
" clip-path="url(#pc92f6722ba)" style="fill: #4c72b0; fill-opacity: 0.5; stroke: #ffffff; stroke-width: 0.301948; stroke-linejoin: miter"/>
   </g>
   <g id="patch_131">
    <path d="M 501.857143 256.32 
L 504.876623 256.32 
L 504.876623 256.32 
L 501.857143 256.32 
z
" clip-path="url(#pc92f6722ba)" style="fill: #4c72b0; fill-opacity: 0.5; stroke: #ffffff; stroke-width: 0.301948; stroke-linejoin: miter"/>
   </g>
   <g id="patch_132">
    <path d="M 504.876623 256.32 
L 507.896104 256.32 
L 507.896104 256.105038 
L 504.876623 256.105038 
z
" clip-path="url(#pc92f6722ba)" style="fill: #4c72b0; fill-opacity: 0.5; stroke: #ffffff; stroke-width: 0.301948; stroke-linejoin: miter"/>
   </g>
   <g id="patch_133">
    <path d="M 507.896104 256.32 
L 510.915584 256.32 
L 510.915584 256.105038 
L 507.896104 256.105038 
z
" clip-path="url(#pc92f6722ba)" style="fill: #4c72b0; fill-opacity: 0.5; stroke: #ffffff; stroke-width: 0.301948; stroke-linejoin: miter"/>
   </g>
   <g id="patch_134">
    <path d="M 510.915584 256.32 
L 513.935065 256.32 
L 513.935065 256.212519 
L 510.915584 256.212519 
z
" clip-path="url(#pc92f6722ba)" style="fill: #4c72b0; fill-opacity: 0.5; stroke: #ffffff; stroke-width: 0.301948; stroke-linejoin: miter"/>
   </g>
   <g id="patch_135">
    <path d="M 513.935065 256.32 
L 516.954545 256.32 
L 516.954545 256.32 
L 513.935065 256.32 
z
" clip-path="url(#pc92f6722ba)" style="fill: #4c72b0; fill-opacity: 0.5; stroke: #ffffff; stroke-width: 0.301948; stroke-linejoin: miter"/>
   </g>
   <g id="patch_136">
    <path d="M 516.954545 256.32 
L 519.974026 256.32 
L 519.974026 256.212519 
L 516.954545 256.212519 
z
" clip-path="url(#pc92f6722ba)" style="fill: #4c72b0; fill-opacity: 0.5; stroke: #ffffff; stroke-width: 0.301948; stroke-linejoin: miter"/>
   </g>
   <g id="patch_137">
    <path d="M 519.974026 256.32 
L 522.993506 256.32 
L 522.993506 256.105038 
L 519.974026 256.105038 
z
" clip-path="url(#pc92f6722ba)" style="fill: #4c72b0; fill-opacity: 0.5; stroke: #ffffff; stroke-width: 0.301948; stroke-linejoin: miter"/>
   </g>
   <g id="patch_138">
    <path d="M 522.993506 256.32 
L 526.012987 256.32 
L 526.012987 256.32 
L 522.993506 256.32 
z
" clip-path="url(#pc92f6722ba)" style="fill: #4c72b0; fill-opacity: 0.5; stroke: #ffffff; stroke-width: 0.301948; stroke-linejoin: miter"/>
   </g>
   <g id="patch_139">
    <path d="M 526.012987 256.32 
L 529.032468 256.32 
L 529.032468 256.105038 
L 526.012987 256.105038 
z
" clip-path="url(#pc92f6722ba)" style="fill: #4c72b0; fill-opacity: 0.5; stroke: #ffffff; stroke-width: 0.301948; stroke-linejoin: miter"/>
   </g>
   <g id="patch_140">
    <path d="M 529.032468 256.32 
L 532.051948 256.32 
L 532.051948 256.32 
L 529.032468 256.32 
z
" clip-path="url(#pc92f6722ba)" style="fill: #4c72b0; fill-opacity: 0.5; stroke: #ffffff; stroke-width: 0.301948; stroke-linejoin: miter"/>
   </g>
   <g id="patch_141">
    <path d="M 532.051948 256.32 
L 535.071429 256.32 
L 535.071429 256.105038 
L 532.051948 256.105038 
z
" clip-path="url(#pc92f6722ba)" style="fill: #4c72b0; fill-opacity: 0.5; stroke: #ffffff; stroke-width: 0.301948; stroke-linejoin: miter"/>
   </g>
   <g id="patch_142">
    <path d="M 535.071429 256.32 
L 538.090909 256.32 
L 538.090909 256.32 
L 535.071429 256.32 
z
" clip-path="url(#pc92f6722ba)" style="fill: #4c72b0; fill-opacity: 0.5; stroke: #ffffff; stroke-width: 0.301948; stroke-linejoin: miter"/>
   </g>
   <g id="patch_143">
    <path d="M 538.090909 256.32 
L 541.11039 256.32 
L 541.11039 256.32 
L 538.090909 256.32 
z
" clip-path="url(#pc92f6722ba)" style="fill: #4c72b0; fill-opacity: 0.5; stroke: #ffffff; stroke-width: 0.301948; stroke-linejoin: miter"/>
   </g>
   <g id="patch_144">
    <path d="M 541.11039 256.32 
L 544.12987 256.32 
L 544.12987 256.105038 
L 541.11039 256.105038 
z
" clip-path="url(#pc92f6722ba)" style="fill: #4c72b0; fill-opacity: 0.5; stroke: #ffffff; stroke-width: 0.301948; stroke-linejoin: miter"/>
   </g>
   <g id="patch_145">
    <path d="M 544.12987 256.32 
L 547.149351 256.32 
L 547.149351 256.32 
L 544.12987 256.32 
z
" clip-path="url(#pc92f6722ba)" style="fill: #4c72b0; fill-opacity: 0.5; stroke: #ffffff; stroke-width: 0.301948; stroke-linejoin: miter"/>
   </g>
   <g id="patch_146">
    <path d="M 547.149351 256.32 
L 550.168831 256.32 
L 550.168831 256.32 
L 547.149351 256.32 
z
" clip-path="url(#pc92f6722ba)" style="fill: #4c72b0; fill-opacity: 0.5; stroke: #ffffff; stroke-width: 0.301948; stroke-linejoin: miter"/>
   </g>
   <g id="patch_147">
    <path d="M 550.168831 256.32 
L 553.188312 256.32 
L 553.188312 256.32 
L 550.168831 256.32 
z
" clip-path="url(#pc92f6722ba)" style="fill: #4c72b0; fill-opacity: 0.5; stroke: #ffffff; stroke-width: 0.301948; stroke-linejoin: miter"/>
   </g>
   <g id="patch_148">
    <path d="M 553.188312 256.32 
L 556.207792 256.32 
L 556.207792 256.32 
L 553.188312 256.32 
z
" clip-path="url(#pc92f6722ba)" style="fill: #4c72b0; fill-opacity: 0.5; stroke: #ffffff; stroke-width: 0.301948; stroke-linejoin: miter"/>
   </g>
   <g id="patch_149">
    <path d="M 556.207792 256.32 
L 559.227273 256.32 
L 559.227273 256.32 
L 556.207792 256.32 
z
" clip-path="url(#pc92f6722ba)" style="fill: #4c72b0; fill-opacity: 0.5; stroke: #ffffff; stroke-width: 0.301948; stroke-linejoin: miter"/>
   </g>
   <g id="patch_150">
    <path d="M 559.227273 256.32 
L 562.246753 256.32 
L 562.246753 256.32 
L 559.227273 256.32 
z
" clip-path="url(#pc92f6722ba)" style="fill: #4c72b0; fill-opacity: 0.5; stroke: #ffffff; stroke-width: 0.301948; stroke-linejoin: miter"/>
   </g>
   <g id="patch_151">
    <path d="M 562.246753 256.32 
L 565.266234 256.32 
L 565.266234 256.32 
L 562.246753 256.32 
z
" clip-path="url(#pc92f6722ba)" style="fill: #4c72b0; fill-opacity: 0.5; stroke: #ffffff; stroke-width: 0.301948; stroke-linejoin: miter"/>
   </g>
   <g id="patch_152">
    <path d="M 565.266234 256.32 
L 568.285714 256.32 
L 568.285714 256.32 
L 565.266234 256.32 
z
" clip-path="url(#pc92f6722ba)" style="fill: #4c72b0; fill-opacity: 0.5; stroke: #ffffff; stroke-width: 0.301948; stroke-linejoin: miter"/>
   </g>
   <g id="patch_153">
    <path d="M 568.285714 256.32 
L 571.305195 256.32 
L 571.305195 255.997557 
L 568.285714 255.997557 
z
" clip-path="url(#pc92f6722ba)" style="fill: #4c72b0; fill-opacity: 0.5; stroke: #ffffff; stroke-width: 0.301948; stroke-linejoin: miter"/>
   </g>
   <g id="patch_154">
    <path d="M 571.305195 256.32 
L 574.324675 256.32 
L 574.324675 256.32 
L 571.305195 256.32 
z
" clip-path="url(#pc92f6722ba)" style="fill: #4c72b0; fill-opacity: 0.5; stroke: #ffffff; stroke-width: 0.301948; stroke-linejoin: miter"/>
   </g>
   <g id="patch_155">
    <path d="M 574.324675 256.32 
L 577.344156 256.32 
L 577.344156 256.32 
L 574.324675 256.32 
z
" clip-path="url(#pc92f6722ba)" style="fill: #4c72b0; fill-opacity: 0.5; stroke: #ffffff; stroke-width: 0.301948; stroke-linejoin: miter"/>
   </g>
   <g id="patch_156">
    <path d="M 577.344156 256.32 
L 580.363636 256.32 
L 580.363636 256.32 
L 577.344156 256.32 
z
" clip-path="url(#pc92f6722ba)" style="fill: #4c72b0; fill-opacity: 0.5; stroke: #ffffff; stroke-width: 0.301948; stroke-linejoin: miter"/>
   </g>
   <g id="patch_157">
    <path d="M 580.363636 256.32 
L 583.383117 256.32 
L 583.383117 256.32 
L 580.363636 256.32 
z
" clip-path="url(#pc92f6722ba)" style="fill: #4c72b0; fill-opacity: 0.5; stroke: #ffffff; stroke-width: 0.301948; stroke-linejoin: miter"/>
   </g>
   <g id="patch_158">
    <path d="M 583.383117 256.32 
L 586.402597 256.32 
L 586.402597 256.32 
L 583.383117 256.32 
z
" clip-path="url(#pc92f6722ba)" style="fill: #4c72b0; fill-opacity: 0.5; stroke: #ffffff; stroke-width: 0.301948; stroke-linejoin: miter"/>
   </g>
   <g id="patch_159">
    <path d="M 586.402597 256.32 
L 589.422078 256.32 
L 589.422078 256.32 
L 586.402597 256.32 
z
" clip-path="url(#pc92f6722ba)" style="fill: #4c72b0; fill-opacity: 0.5; stroke: #ffffff; stroke-width: 0.301948; stroke-linejoin: miter"/>
   </g>
   <g id="patch_160">
    <path d="M 589.422078 256.32 
L 592.441558 256.32 
L 592.441558 256.32 
L 589.422078 256.32 
z
" clip-path="url(#pc92f6722ba)" style="fill: #4c72b0; fill-opacity: 0.5; stroke: #ffffff; stroke-width: 0.301948; stroke-linejoin: miter"/>
   </g>
   <g id="patch_161">
    <path d="M 592.441558 256.32 
L 595.461039 256.32 
L 595.461039 256.32 
L 592.441558 256.32 
z
" clip-path="url(#pc92f6722ba)" style="fill: #4c72b0; fill-opacity: 0.5; stroke: #ffffff; stroke-width: 0.301948; stroke-linejoin: miter"/>
   </g>
   <g id="patch_162">
    <path d="M 595.461039 256.32 
L 598.480519 256.32 
L 598.480519 256.32 
L 595.461039 256.32 
z
" clip-path="url(#pc92f6722ba)" style="fill: #4c72b0; fill-opacity: 0.5; stroke: #ffffff; stroke-width: 0.301948; stroke-linejoin: miter"/>
   </g>
   <g id="patch_163">
    <path d="M 598.480519 256.32 
L 601.5 256.32 
L 601.5 256.32 
L 598.480519 256.32 
z
" clip-path="url(#pc92f6722ba)" style="fill: #4c72b0; fill-opacity: 0.5; stroke: #ffffff; stroke-width: 0.301948; stroke-linejoin: miter"/>
   </g>
   <g id="patch_164">
    <path d="M 601.5 256.32 
L 604.519481 256.32 
L 604.519481 256.32 
L 601.5 256.32 
z
" clip-path="url(#pc92f6722ba)" style="fill: #4c72b0; fill-opacity: 0.5; stroke: #ffffff; stroke-width: 0.301948; stroke-linejoin: miter"/>
   </g>
   <g id="patch_165">
    <path d="M 604.519481 256.32 
L 607.538961 256.32 
L 607.538961 256.32 
L 604.519481 256.32 
z
" clip-path="url(#pc92f6722ba)" style="fill: #4c72b0; fill-opacity: 0.5; stroke: #ffffff; stroke-width: 0.301948; stroke-linejoin: miter"/>
   </g>
   <g id="patch_166">
    <path d="M 607.538961 256.32 
L 610.558442 256.32 
L 610.558442 256.32 
L 607.538961 256.32 
z
" clip-path="url(#pc92f6722ba)" style="fill: #4c72b0; fill-opacity: 0.5; stroke: #ffffff; stroke-width: 0.301948; stroke-linejoin: miter"/>
   </g>
   <g id="patch_167">
    <path d="M 610.558442 256.32 
L 613.577922 256.32 
L 613.577922 256.32 
L 610.558442 256.32 
z
" clip-path="url(#pc92f6722ba)" style="fill: #4c72b0; fill-opacity: 0.5; stroke: #ffffff; stroke-width: 0.301948; stroke-linejoin: miter"/>
   </g>
   <g id="patch_168">
    <path d="M 613.577922 256.32 
L 616.597403 256.32 
L 616.597403 256.32 
L 613.577922 256.32 
z
" clip-path="url(#pc92f6722ba)" style="fill: #4c72b0; fill-opacity: 0.5; stroke: #ffffff; stroke-width: 0.301948; stroke-linejoin: miter"/>
   </g>
   <g id="patch_169">
    <path d="M 616.597403 256.32 
L 619.616883 256.32 
L 619.616883 256.32 
L 616.597403 256.32 
z
" clip-path="url(#pc92f6722ba)" style="fill: #4c72b0; fill-opacity: 0.5; stroke: #ffffff; stroke-width: 0.301948; stroke-linejoin: miter"/>
   </g>
   <g id="patch_170">
    <path d="M 619.616883 256.32 
L 622.636364 256.32 
L 622.636364 256.212519 
L 619.616883 256.212519 
z
" clip-path="url(#pc92f6722ba)" style="fill: #4c72b0; fill-opacity: 0.5; stroke: #ffffff; stroke-width: 0.301948; stroke-linejoin: miter"/>
   </g>
   <g id="line2d_16">
    <path d="M 115.363636 223.603257 
L 117.912746 202.960409 
L 123.010964 155.216719 
L 125.560073 133.197877 
L 128.109182 113.686584 
L 130.658291 96.577057 
L 133.207401 82.257414 
L 135.75651 71.76963 
L 138.305619 65.930661 
L 140.854728 64.480898 
L 143.403837 66.073393 
L 148.502056 71.904226 
L 151.051165 74.283158 
L 156.149383 77.995452 
L 158.698492 80.160246 
L 161.247602 83.237727 
L 163.796711 87.754543 
L 166.34582 93.895217 
L 173.993148 115.568274 
L 176.542257 121.507697 
L 179.091366 126.710942 
L 181.640475 131.248991 
L 184.189584 134.8759 
L 186.738693 137.36196 
L 189.287803 138.88914 
L 191.836912 140.090717 
L 194.386021 141.800847 
L 196.93513 144.750742 
L 199.484239 149.306517 
L 202.033349 155.309276 
L 209.680676 175.734407 
L 212.229785 181.878591 
L 214.778894 187.536066 
L 217.328004 192.581905 
L 219.877113 196.823379 
L 222.426222 200.229733 
L 224.975331 203.012178 
L 230.07355 207.770898 
L 232.622659 210.168053 
L 235.171768 212.921257 
L 237.720877 216.19584 
L 240.269986 219.796651 
L 242.819095 223.196832 
L 245.368205 225.870441 
L 247.917314 227.604315 
L 250.466423 228.53102 
L 253.015532 228.936605 
L 260.66286 229.366791 
L 263.211969 229.918977 
L 265.761078 230.915204 
L 268.310187 232.28501 
L 278.506624 238.50338 
L 286.153952 243.413365 
L 288.703061 244.701599 
L 291.25217 245.666413 
L 293.801279 246.320348 
L 296.350388 246.700894 
L 306.546825 247.445469 
L 309.095934 247.945633 
L 314.194153 249.248903 
L 321.84148 251.396503 
L 324.390589 251.923258 
L 326.939698 252.279436 
L 332.037917 252.58576 
L 337.136135 252.831918 
L 342.234354 253.392302 
L 347.332572 254.006701 
L 352.43079 254.334051 
L 375.372773 255.272154 
L 380.470991 255.212828 
L 395.765646 254.334439 
L 408.511192 254.490707 
L 413.609411 254.332671 
L 418.707629 254.54527 
L 431.453175 255.503109 
L 439.100503 255.741022 
L 469.689813 256.138862 
L 479.886249 256.175529 
L 490.082686 256.179107 
L 500.279123 256.24861 
L 520.671996 256.205221 
L 622.636364 256.296452 
L 622.636364 256.296452 
" clip-path="url(#pc92f6722ba)" style="fill: none; stroke: #4c72b0; stroke-width: 1.5; stroke-linecap: round"/>
   </g>
   <g id="patch_171">
    <path d="M 90 256.32 
L 90 34.56 
" style="fill: none; stroke: #cccccc; stroke-width: 1.25; stroke-linejoin: miter; stroke-linecap: square"/>
   </g>
   <g id="patch_172">
    <path d="M 648 256.32 
L 648 34.56 
" style="fill: none; stroke: #cccccc; stroke-width: 1.25; stroke-linejoin: miter; stroke-linecap: square"/>
   </g>
   <g id="patch_173">
    <path d="M 90 256.32 
L 648 256.32 
" style="fill: none; stroke: #cccccc; stroke-width: 1.25; stroke-linejoin: miter; stroke-linecap: square"/>
   </g>
   <g id="patch_174">
    <path d="M 90 34.56 
L 648 34.56 
" style="fill: none; stroke: #cccccc; stroke-width: 1.25; stroke-linejoin: miter; stroke-linecap: square"/>
   </g>
   <g id="text_18">
    <!-- Histogramm von dist -->
    <g style="fill: #262626" transform="translate(306.238125 28.56) scale(0.12 -0.12)">
     <defs>
      <path id="DejaVuSans-6f" d="M 1959 3097 
Q 1497 3097 1228 2736 
Q 959 2375 959 1747 
Q 959 1119 1226 758 
Q 1494 397 1959 397 
Q 2419 397 2687 759 
Q 2956 1122 2956 1747 
Q 2956 2369 2687 2733 
Q 2419 3097 1959 3097 
z
M 1959 3584 
Q 2709 3584 3137 3096 
Q 3566 2609 3566 1747 
Q 3566 888 3137 398 
Q 2709 -91 1959 -91 
Q 1206 -91 779 398 
Q 353 888 353 1747 
Q 353 2609 779 3096 
Q 1206 3584 1959 3584 
z
" transform="scale(0.015625)"/>
      <path id="DejaVuSans-72" d="M 2631 2963 
Q 2534 3019 2420 3045 
Q 2306 3072 2169 3072 
Q 1681 3072 1420 2755 
Q 1159 2438 1159 1844 
L 1159 0 
L 581 0 
L 581 3500 
L 1159 3500 
L 1159 2956 
Q 1341 3275 1631 3429 
Q 1922 3584 2338 3584 
Q 2397 3584 2469 3576 
Q 2541 3569 2628 3553 
L 2631 2963 
z
" transform="scale(0.015625)"/>
      <path id="DejaVuSans-61" d="M 2194 1759 
Q 1497 1759 1228 1600 
Q 959 1441 959 1056 
Q 959 750 1161 570 
Q 1363 391 1709 391 
Q 2188 391 2477 730 
Q 2766 1069 2766 1631 
L 2766 1759 
L 2194 1759 
z
M 3341 1997 
L 3341 0 
L 2766 0 
L 2766 531 
Q 2569 213 2275 61 
Q 1981 -91 1556 -91 
Q 1019 -91 701 211 
Q 384 513 384 1019 
Q 384 1609 779 1909 
Q 1175 2209 1959 2209 
L 2766 2209 
L 2766 2266 
Q 2766 2663 2505 2880 
Q 2244 3097 1772 3097 
Q 1472 3097 1187 3025 
Q 903 2953 641 2809 
L 641 3341 
Q 956 3463 1253 3523 
Q 1550 3584 1831 3584 
Q 2591 3584 2966 3190 
Q 3341 2797 3341 1997 
z
" transform="scale(0.015625)"/>
      <path id="DejaVuSans-6d" d="M 3328 2828 
Q 3544 3216 3844 3400 
Q 4144 3584 4550 3584 
Q 5097 3584 5394 3201 
Q 5691 2819 5691 2113 
L 5691 0 
L 5113 0 
L 5113 2094 
Q 5113 2597 4934 2840 
Q 4756 3084 4391 3084 
Q 3944 3084 3684 2787 
Q 3425 2491 3425 1978 
L 3425 0 
L 2847 0 
L 2847 2094 
Q 2847 2600 2669 2842 
Q 2491 3084 2119 3084 
Q 1678 3084 1418 2786 
Q 1159 2488 1159 1978 
L 1159 0 
L 581 0 
L 581 3500 
L 1159 3500 
L 1159 2956 
Q 1356 3278 1631 3431 
Q 1906 3584 2284 3584 
Q 2666 3584 2933 3390 
Q 3200 3197 3328 2828 
z
" transform="scale(0.015625)"/>
      <path id="DejaVuSans-20" transform="scale(0.015625)"/>
      <path id="DejaVuSans-76" d="M 191 3500 
L 800 3500 
L 1894 563 
L 2988 3500 
L 3597 3500 
L 2284 0 
L 1503 0 
L 191 3500 
z
" transform="scale(0.015625)"/>
      <path id="DejaVuSans-6e" d="M 3513 2113 
L 3513 0 
L 2938 0 
L 2938 2094 
Q 2938 2591 2744 2837 
Q 2550 3084 2163 3084 
Q 1697 3084 1428 2787 
Q 1159 2491 1159 1978 
L 1159 0 
L 581 0 
L 581 3500 
L 1159 3500 
L 1159 2956 
Q 1366 3272 1645 3428 
Q 1925 3584 2291 3584 
Q 2894 3584 3203 3211 
Q 3513 2838 3513 2113 
z
" transform="scale(0.015625)"/>
     </defs>
     <use xlink:href="#DejaVuSans-48"/>
     <use xlink:href="#DejaVuSans-69" x="75.195312"/>
     <use xlink:href="#DejaVuSans-73" x="102.978516"/>
     <use xlink:href="#DejaVuSans-74" x="155.078125"/>
     <use xlink:href="#DejaVuSans-6f" x="194.287109"/>
     <use xlink:href="#DejaVuSans-67" x="255.46875"/>
     <use xlink:href="#DejaVuSans-72" x="318.945312"/>
     <use xlink:href="#DejaVuSans-61" x="360.058594"/>
     <use xlink:href="#DejaVuSans-6d" x="421.337891"/>
     <use xlink:href="#DejaVuSans-6d" x="518.75"/>
     <use xlink:href="#DejaVuSans-20" x="616.162109"/>
     <use xlink:href="#DejaVuSans-76" x="647.949219"/>
     <use xlink:href="#DejaVuSans-6f" x="707.128906"/>
     <use xlink:href="#DejaVuSans-6e" x="768.310547"/>
     <use xlink:href="#DejaVuSans-20" x="831.689453"/>
     <use xlink:href="#DejaVuSans-64" x="863.476562"/>
     <use xlink:href="#DejaVuSans-69" x="926.953125"/>
     <use xlink:href="#DejaVuSans-73" x="954.736328"/>
     <use xlink:href="#DejaVuSans-74" x="1006.835938"/>
    </g>
   </g>
  </g>
 </g>
 <defs>
  <clipPath id="pc92f6722ba">
   <rect x="90" y="34.56" width="558" height="221.76"/>
  </clipPath>
 </defs>
</svg>
