<?xml version="1.0" encoding="utf-8" standalone="no"?>
<!DOCTYPE svg PUBLIC "-//W3C//DTD SVG 1.1//EN"
  "http://www.w3.org/Graphics/SVG/1.1/DTD/svg11.dtd">
<svg xmlns:xlink="http://www.w3.org/1999/xlink" width="720pt" height="288pt" viewBox="0 0 720 288" xmlns="http://www.w3.org/2000/svg" version="1.1">
 <metadata>
  <rdf:RDF xmlns:dc="http://purl.org/dc/elements/1.1/" xmlns:cc="http://creativecommons.org/ns#" xmlns:rdf="http://www.w3.org/1999/02/22-rdf-syntax-ns#">
   <cc:Work>
    <dc:type rdf:resource="http://purl.org/dc/dcmitype/StillImage"/>
    <dc:date>2024-01-22T22:24:13.107965</dc:date>
    <dc:format>image/svg+xml</dc:format>
    <dc:creator>
     <cc:Agent>
      <dc:title>Matplotlib v3.8.2, https://matplotlib.org/</dc:title>
     </cc:Agent>
    </dc:creator>
   </cc:Work>
  </rdf:RDF>
 </metadata>
 <defs>
  <style type="text/css">*{stroke-linejoin: round; stroke-linecap: butt}</style>
 </defs>
 <g id="figure_1">
  <g id="patch_1">
   <path d="M 0 288 
L 720 288 
L 720 0 
L 0 0 
z
" style="fill: #ffffff"/>
  </g>
  <g id="axes_1">
   <g id="patch_2">
    <path d="M 90 256.32 
L 648 256.32 
L 648 34.56 
L 90 34.56 
z
" style="fill: #ffffff"/>
   </g>
   <g id="matplotlib.axis_1">
    <g id="xtick_1">
     <g id="line2d_1">
      <path d="M 115.363636 256.32 
L 115.363636 34.56 
" clip-path="url(#p1d986edf4d)" style="fill: none; stroke: #cccccc; stroke-linecap: round"/>
     </g>
     <g id="text_1">
      <!-- 0 -->
      <g style="fill: #262626" transform="translate(111.864261 274.178281) scale(0.11 -0.11)">
       <defs>
        <path id="DejaVuSans-30" d="M 2034 4250 
Q 1547 4250 1301 3770 
Q 1056 3291 1056 2328 
Q 1056 1369 1301 889 
Q 1547 409 2034 409 
Q 2525 409 2770 889 
Q 3016 1369 3016 2328 
Q 3016 3291 2770 3770 
Q 2525 4250 2034 4250 
z
M 2034 4750 
Q 2819 4750 3233 4129 
Q 3647 3509 3647 2328 
Q 3647 1150 3233 529 
Q 2819 -91 2034 -91 
Q 1250 -91 836 529 
Q 422 1150 422 2328 
Q 422 3509 836 4129 
Q 1250 4750 2034 4750 
z
" transform="scale(0.015625)"/>
       </defs>
       <use xlink:href="#DejaVuSans-30"/>
      </g>
     </g>
    </g>
    <g id="xtick_2">
     <g id="line2d_2">
      <path d="M 228.090909 256.32 
L 228.090909 34.56 
" clip-path="url(#p1d986edf4d)" style="fill: none; stroke: #cccccc; stroke-linecap: round"/>
     </g>
     <g id="text_2">
      <!-- 2 -->
      <g style="fill: #262626" transform="translate(224.591534 274.178281) scale(0.11 -0.11)">
       <defs>
        <path id="DejaVuSans-32" d="M 1228 531 
L 3431 531 
L 3431 0 
L 469 0 
L 469 531 
Q 828 903 1448 1529 
Q 2069 2156 2228 2338 
Q 2531 2678 2651 2914 
Q 2772 3150 2772 3378 
Q 2772 3750 2511 3984 
Q 2250 4219 1831 4219 
Q 1534 4219 1204 4116 
Q 875 4013 500 3803 
L 500 4441 
Q 881 4594 1212 4672 
Q 1544 4750 1819 4750 
Q 2544 4750 2975 4387 
Q 3406 4025 3406 3419 
Q 3406 3131 3298 2873 
Q 3191 2616 2906 2266 
Q 2828 2175 2409 1742 
Q 1991 1309 1228 531 
z
" transform="scale(0.015625)"/>
       </defs>
       <use xlink:href="#DejaVuSans-32"/>
      </g>
     </g>
    </g>
    <g id="xtick_3">
     <g id="line2d_3">
      <path d="M 340.818182 256.32 
L 340.818182 34.56 
" clip-path="url(#p1d986edf4d)" style="fill: none; stroke: #cccccc; stroke-linecap: round"/>
     </g>
     <g id="text_3">
      <!-- 4 -->
      <g style="fill: #262626" transform="translate(337.318807 274.178281) scale(0.11 -0.11)">
       <defs>
        <path id="DejaVuSans-34" d="M 2419 4116 
L 825 1625 
L 2419 1625 
L 2419 4116 
z
M 2253 4666 
L 3047 4666 
L 3047 1625 
L 3713 1625 
L 3713 1100 
L 3047 1100 
L 3047 0 
L 2419 0 
L 2419 1100 
L 313 1100 
L 313 1709 
L 2253 4666 
z
" transform="scale(0.015625)"/>
       </defs>
       <use xlink:href="#DejaVuSans-34"/>
      </g>
     </g>
    </g>
    <g id="xtick_4">
     <g id="line2d_4">
      <path d="M 453.545455 256.32 
L 453.545455 34.56 
" clip-path="url(#p1d986edf4d)" style="fill: none; stroke: #cccccc; stroke-linecap: round"/>
     </g>
     <g id="text_4">
      <!-- 6 -->
      <g style="fill: #262626" transform="translate(450.04608 274.178281) scale(0.11 -0.11)">
       <defs>
        <path id="DejaVuSans-36" d="M 2113 2584 
Q 1688 2584 1439 2293 
Q 1191 2003 1191 1497 
Q 1191 994 1439 701 
Q 1688 409 2113 409 
Q 2538 409 2786 701 
Q 3034 994 3034 1497 
Q 3034 2003 2786 2293 
Q 2538 2584 2113 2584 
z
M 3366 4563 
L 3366 3988 
Q 3128 4100 2886 4159 
Q 2644 4219 2406 4219 
Q 1781 4219 1451 3797 
Q 1122 3375 1075 2522 
Q 1259 2794 1537 2939 
Q 1816 3084 2150 3084 
Q 2853 3084 3261 2657 
Q 3669 2231 3669 1497 
Q 3669 778 3244 343 
Q 2819 -91 2113 -91 
Q 1303 -91 875 529 
Q 447 1150 447 2328 
Q 447 3434 972 4092 
Q 1497 4750 2381 4750 
Q 2619 4750 2861 4703 
Q 3103 4656 3366 4563 
z
" transform="scale(0.015625)"/>
       </defs>
       <use xlink:href="#DejaVuSans-36"/>
      </g>
     </g>
    </g>
    <g id="xtick_5">
     <g id="line2d_5">
      <path d="M 566.272727 256.32 
L 566.272727 34.56 
" clip-path="url(#p1d986edf4d)" style="fill: none; stroke: #cccccc; stroke-linecap: round"/>
     </g>
     <g id="text_5">
      <!-- 8 -->
      <g style="fill: #262626" transform="translate(562.773352 274.178281) scale(0.11 -0.11)">
       <defs>
        <path id="DejaVuSans-38" d="M 2034 2216 
Q 1584 2216 1326 1975 
Q 1069 1734 1069 1313 
Q 1069 891 1326 650 
Q 1584 409 2034 409 
Q 2484 409 2743 651 
Q 3003 894 3003 1313 
Q 3003 1734 2745 1975 
Q 2488 2216 2034 2216 
z
M 1403 2484 
Q 997 2584 770 2862 
Q 544 3141 544 3541 
Q 544 4100 942 4425 
Q 1341 4750 2034 4750 
Q 2731 4750 3128 4425 
Q 3525 4100 3525 3541 
Q 3525 3141 3298 2862 
Q 3072 2584 2669 2484 
Q 3125 2378 3379 2068 
Q 3634 1759 3634 1313 
Q 3634 634 3220 271 
Q 2806 -91 2034 -91 
Q 1263 -91 848 271 
Q 434 634 434 1313 
Q 434 1759 690 2068 
Q 947 2378 1403 2484 
z
M 1172 3481 
Q 1172 3119 1398 2916 
Q 1625 2713 2034 2713 
Q 2441 2713 2670 2916 
Q 2900 3119 2900 3481 
Q 2900 3844 2670 4047 
Q 2441 4250 2034 4250 
Q 1625 4250 1398 4047 
Q 1172 3844 1172 3481 
z
" transform="scale(0.015625)"/>
       </defs>
       <use xlink:href="#DejaVuSans-38"/>
      </g>
     </g>
    </g>
    <g id="text_6">
     <!-- city_encoded -->
     <g style="fill: #262626" transform="translate(329.355937 289.584063) scale(0.12 -0.12)">
      <defs>
       <path id="DejaVuSans-63" d="M 3122 3366 
L 3122 2828 
Q 2878 2963 2633 3030 
Q 2388 3097 2138 3097 
Q 1578 3097 1268 2742 
Q 959 2388 959 1747 
Q 959 1106 1268 751 
Q 1578 397 2138 397 
Q 2388 397 2633 464 
Q 2878 531 3122 666 
L 3122 134 
Q 2881 22 2623 -34 
Q 2366 -91 2075 -91 
Q 1284 -91 818 406 
Q 353 903 353 1747 
Q 353 2603 823 3093 
Q 1294 3584 2113 3584 
Q 2378 3584 2631 3529 
Q 2884 3475 3122 3366 
z
" transform="scale(0.015625)"/>
       <path id="DejaVuSans-69" d="M 603 3500 
L 1178 3500 
L 1178 0 
L 603 0 
L 603 3500 
z
M 603 4863 
L 1178 4863 
L 1178 4134 
L 603 4134 
L 603 4863 
z
" transform="scale(0.015625)"/>
       <path id="DejaVuSans-74" d="M 1172 4494 
L 1172 3500 
L 2356 3500 
L 2356 3053 
L 1172 3053 
L 1172 1153 
Q 1172 725 1289 603 
Q 1406 481 1766 481 
L 2356 481 
L 2356 0 
L 1766 0 
Q 1100 0 847 248 
Q 594 497 594 1153 
L 594 3053 
L 172 3053 
L 172 3500 
L 594 3500 
L 594 4494 
L 1172 4494 
z
" transform="scale(0.015625)"/>
       <path id="DejaVuSans-79" d="M 2059 -325 
Q 1816 -950 1584 -1140 
Q 1353 -1331 966 -1331 
L 506 -1331 
L 506 -850 
L 844 -850 
Q 1081 -850 1212 -737 
Q 1344 -625 1503 -206 
L 1606 56 
L 191 3500 
L 800 3500 
L 1894 763 
L 2988 3500 
L 3597 3500 
L 2059 -325 
z
" transform="scale(0.015625)"/>
       <path id="DejaVuSans-5f" d="M 3263 -1063 
L 3263 -1509 
L -63 -1509 
L -63 -1063 
L 3263 -1063 
z
" transform="scale(0.015625)"/>
       <path id="DejaVuSans-65" d="M 3597 1894 
L 3597 1613 
L 953 1613 
Q 991 1019 1311 708 
Q 1631 397 2203 397 
Q 2534 397 2845 478 
Q 3156 559 3463 722 
L 3463 178 
Q 3153 47 2828 -22 
Q 2503 -91 2169 -91 
Q 1331 -91 842 396 
Q 353 884 353 1716 
Q 353 2575 817 3079 
Q 1281 3584 2069 3584 
Q 2775 3584 3186 3129 
Q 3597 2675 3597 1894 
z
M 3022 2063 
Q 3016 2534 2758 2815 
Q 2500 3097 2075 3097 
Q 1594 3097 1305 2825 
Q 1016 2553 972 2059 
L 3022 2063 
z
" transform="scale(0.015625)"/>
       <path id="DejaVuSans-6e" d="M 3513 2113 
L 3513 0 
L 2938 0 
L 2938 2094 
Q 2938 2591 2744 2837 
Q 2550 3084 2163 3084 
Q 1697 3084 1428 2787 
Q 1159 2491 1159 1978 
L 1159 0 
L 581 0 
L 581 3500 
L 1159 3500 
L 1159 2956 
Q 1366 3272 1645 3428 
Q 1925 3584 2291 3584 
Q 2894 3584 3203 3211 
Q 3513 2838 3513 2113 
z
" transform="scale(0.015625)"/>
       <path id="DejaVuSans-6f" d="M 1959 3097 
Q 1497 3097 1228 2736 
Q 959 2375 959 1747 
Q 959 1119 1226 758 
Q 1494 397 1959 397 
Q 2419 397 2687 759 
Q 2956 1122 2956 1747 
Q 2956 2369 2687 2733 
Q 2419 3097 1959 3097 
z
M 1959 3584 
Q 2709 3584 3137 3096 
Q 3566 2609 3566 1747 
Q 3566 888 3137 398 
Q 2709 -91 1959 -91 
Q 1206 -91 779 398 
Q 353 888 353 1747 
Q 353 2609 779 3096 
Q 1206 3584 1959 3584 
z
" transform="scale(0.015625)"/>
       <path id="DejaVuSans-64" d="M 2906 2969 
L 2906 4863 
L 3481 4863 
L 3481 0 
L 2906 0 
L 2906 525 
Q 2725 213 2448 61 
Q 2172 -91 1784 -91 
Q 1150 -91 751 415 
Q 353 922 353 1747 
Q 353 2572 751 3078 
Q 1150 3584 1784 3584 
Q 2172 3584 2448 3432 
Q 2725 3281 2906 2969 
z
M 947 1747 
Q 947 1113 1208 752 
Q 1469 391 1925 391 
Q 2381 391 2643 752 
Q 2906 1113 2906 1747 
Q 2906 2381 2643 2742 
Q 2381 3103 1925 3103 
Q 1469 3103 1208 2742 
Q 947 2381 947 1747 
z
" transform="scale(0.015625)"/>
      </defs>
      <use xlink:href="#DejaVuSans-63"/>
      <use xlink:href="#DejaVuSans-69" x="54.980469"/>
      <use xlink:href="#DejaVuSans-74" x="82.763672"/>
      <use xlink:href="#DejaVuSans-79" x="121.972656"/>
      <use xlink:href="#DejaVuSans-5f" x="181.152344"/>
      <use xlink:href="#DejaVuSans-65" x="231.152344"/>
      <use xlink:href="#DejaVuSans-6e" x="292.675781"/>
      <use xlink:href="#DejaVuSans-63" x="356.054688"/>
      <use xlink:href="#DejaVuSans-6f" x="411.035156"/>
      <use xlink:href="#DejaVuSans-64" x="472.216797"/>
      <use xlink:href="#DejaVuSans-65" x="535.693359"/>
      <use xlink:href="#DejaVuSans-64" x="597.216797"/>
     </g>
    </g>
   </g>
   <g id="matplotlib.axis_2">
    <g id="ytick_1">
     <g id="line2d_6">
      <path d="M 90 256.32 
L 648 256.32 
" clip-path="url(#p1d986edf4d)" style="fill: none; stroke: #cccccc; stroke-linecap: round"/>
     </g>
     <g id="text_7">
      <!-- 0 -->
      <g style="fill: #262626" transform="translate(73.50125 260.499141) scale(0.11 -0.11)">
       <use xlink:href="#DejaVuSans-30"/>
      </g>
     </g>
    </g>
    <g id="ytick_2">
     <g id="line2d_7">
      <path d="M 90 213.323257 
L 648 213.323257 
" clip-path="url(#p1d986edf4d)" style="fill: none; stroke: #cccccc; stroke-linecap: round"/>
     </g>
     <g id="text_8">
      <!-- 2000 -->
      <g style="fill: #262626" transform="translate(52.505 217.502398) scale(0.11 -0.11)">
       <use xlink:href="#DejaVuSans-32"/>
       <use xlink:href="#DejaVuSans-30" x="63.623047"/>
       <use xlink:href="#DejaVuSans-30" x="127.246094"/>
       <use xlink:href="#DejaVuSans-30" x="190.869141"/>
      </g>
     </g>
    </g>
    <g id="ytick_3">
     <g id="line2d_8">
      <path d="M 90 170.326515 
L 648 170.326515 
" clip-path="url(#p1d986edf4d)" style="fill: none; stroke: #cccccc; stroke-linecap: round"/>
     </g>
     <g id="text_9">
      <!-- 4000 -->
      <g style="fill: #262626" transform="translate(52.505 174.505655) scale(0.11 -0.11)">
       <use xlink:href="#DejaVuSans-34"/>
       <use xlink:href="#DejaVuSans-30" x="63.623047"/>
       <use xlink:href="#DejaVuSans-30" x="127.246094"/>
       <use xlink:href="#DejaVuSans-30" x="190.869141"/>
      </g>
     </g>
    </g>
    <g id="ytick_4">
     <g id="line2d_9">
      <path d="M 90 127.329772 
L 648 127.329772 
" clip-path="url(#p1d986edf4d)" style="fill: none; stroke: #cccccc; stroke-linecap: round"/>
     </g>
     <g id="text_10">
      <!-- 6000 -->
      <g style="fill: #262626" transform="translate(52.505 131.508913) scale(0.11 -0.11)">
       <use xlink:href="#DejaVuSans-36"/>
       <use xlink:href="#DejaVuSans-30" x="63.623047"/>
       <use xlink:href="#DejaVuSans-30" x="127.246094"/>
       <use xlink:href="#DejaVuSans-30" x="190.869141"/>
      </g>
     </g>
    </g>
    <g id="ytick_5">
     <g id="line2d_10">
      <path d="M 90 84.333029 
L 648 84.333029 
" clip-path="url(#p1d986edf4d)" style="fill: none; stroke: #cccccc; stroke-linecap: round"/>
     </g>
     <g id="text_11">
      <!-- 8000 -->
      <g style="fill: #262626" transform="translate(52.505 88.51217) scale(0.11 -0.11)">
       <use xlink:href="#DejaVuSans-38"/>
       <use xlink:href="#DejaVuSans-30" x="63.623047"/>
       <use xlink:href="#DejaVuSans-30" x="127.246094"/>
       <use xlink:href="#DejaVuSans-30" x="190.869141"/>
      </g>
     </g>
    </g>
    <g id="ytick_6">
     <g id="line2d_11">
      <path d="M 90 41.336287 
L 648 41.336287 
" clip-path="url(#p1d986edf4d)" style="fill: none; stroke: #cccccc; stroke-linecap: round"/>
     </g>
     <g id="text_12">
      <!-- 10000 -->
      <g style="fill: #262626" transform="translate(45.50625 45.515427) scale(0.11 -0.11)">
       <defs>
        <path id="DejaVuSans-31" d="M 794 531 
L 1825 531 
L 1825 4091 
L 703 3866 
L 703 4441 
L 1819 4666 
L 2450 4666 
L 2450 531 
L 3481 531 
L 3481 0 
L 794 0 
L 794 531 
z
" transform="scale(0.015625)"/>
       </defs>
       <use xlink:href="#DejaVuSans-31"/>
       <use xlink:href="#DejaVuSans-30" x="63.623047"/>
       <use xlink:href="#DejaVuSans-30" x="127.246094"/>
       <use xlink:href="#DejaVuSans-30" x="190.869141"/>
       <use xlink:href="#DejaVuSans-30" x="254.492188"/>
      </g>
     </g>
    </g>
    <g id="text_13">
     <!-- Häufigkeit -->
     <g style="fill: #262626" transform="translate(39.010625 175.9875) rotate(-90) scale(0.12 -0.12)">
      <defs>
       <path id="DejaVuSans-48" d="M 628 4666 
L 1259 4666 
L 1259 2753 
L 3553 2753 
L 3553 4666 
L 4184 4666 
L 4184 0 
L 3553 0 
L 3553 2222 
L 1259 2222 
L 1259 0 
L 628 0 
L 628 4666 
z
" transform="scale(0.015625)"/>
       <path id="DejaVuSans-e4" d="M 2194 1759 
Q 1497 1759 1228 1600 
Q 959 1441 959 1056 
Q 959 750 1161 570 
Q 1363 391 1709 391 
Q 2188 391 2477 730 
Q 2766 1069 2766 1631 
L 2766 1759 
L 2194 1759 
z
M 3341 1997 
L 3341 0 
L 2766 0 
L 2766 531 
Q 2569 213 2275 61 
Q 1981 -91 1556 -91 
Q 1019 -91 701 211 
Q 384 513 384 1019 
Q 384 1609 779 1909 
Q 1175 2209 1959 2209 
L 2766 2209 
L 2766 2266 
Q 2766 2663 2505 2880 
Q 2244 3097 1772 3097 
Q 1472 3097 1187 3025 
Q 903 2953 641 2809 
L 641 3341 
Q 956 3463 1253 3523 
Q 1550 3584 1831 3584 
Q 2591 3584 2966 3190 
Q 3341 2797 3341 1997 
z
M 2150 4850 
L 2784 4850 
L 2784 4219 
L 2150 4219 
L 2150 4850 
z
M 928 4850 
L 1562 4850 
L 1562 4219 
L 928 4219 
L 928 4850 
z
" transform="scale(0.015625)"/>
       <path id="DejaVuSans-75" d="M 544 1381 
L 544 3500 
L 1119 3500 
L 1119 1403 
Q 1119 906 1312 657 
Q 1506 409 1894 409 
Q 2359 409 2629 706 
Q 2900 1003 2900 1516 
L 2900 3500 
L 3475 3500 
L 3475 0 
L 2900 0 
L 2900 538 
Q 2691 219 2414 64 
Q 2138 -91 1772 -91 
Q 1169 -91 856 284 
Q 544 659 544 1381 
z
M 1991 3584 
L 1991 3584 
z
" transform="scale(0.015625)"/>
       <path id="DejaVuSans-66" d="M 2375 4863 
L 2375 4384 
L 1825 4384 
Q 1516 4384 1395 4259 
Q 1275 4134 1275 3809 
L 1275 3500 
L 2222 3500 
L 2222 3053 
L 1275 3053 
L 1275 0 
L 697 0 
L 697 3053 
L 147 3053 
L 147 3500 
L 697 3500 
L 697 3744 
Q 697 4328 969 4595 
Q 1241 4863 1831 4863 
L 2375 4863 
z
" transform="scale(0.015625)"/>
       <path id="DejaVuSans-67" d="M 2906 1791 
Q 2906 2416 2648 2759 
Q 2391 3103 1925 3103 
Q 1463 3103 1205 2759 
Q 947 2416 947 1791 
Q 947 1169 1205 825 
Q 1463 481 1925 481 
Q 2391 481 2648 825 
Q 2906 1169 2906 1791 
z
M 3481 434 
Q 3481 -459 3084 -895 
Q 2688 -1331 1869 -1331 
Q 1566 -1331 1297 -1286 
Q 1028 -1241 775 -1147 
L 775 -588 
Q 1028 -725 1275 -790 
Q 1522 -856 1778 -856 
Q 2344 -856 2625 -561 
Q 2906 -266 2906 331 
L 2906 616 
Q 2728 306 2450 153 
Q 2172 0 1784 0 
Q 1141 0 747 490 
Q 353 981 353 1791 
Q 353 2603 747 3093 
Q 1141 3584 1784 3584 
Q 2172 3584 2450 3431 
Q 2728 3278 2906 2969 
L 2906 3500 
L 3481 3500 
L 3481 434 
z
" transform="scale(0.015625)"/>
       <path id="DejaVuSans-6b" d="M 581 4863 
L 1159 4863 
L 1159 1991 
L 2875 3500 
L 3609 3500 
L 1753 1863 
L 3688 0 
L 2938 0 
L 1159 1709 
L 1159 0 
L 581 0 
L 581 4863 
z
" transform="scale(0.015625)"/>
      </defs>
      <use xlink:href="#DejaVuSans-48"/>
      <use xlink:href="#DejaVuSans-e4" x="75.195312"/>
      <use xlink:href="#DejaVuSans-75" x="136.474609"/>
      <use xlink:href="#DejaVuSans-66" x="199.853516"/>
      <use xlink:href="#DejaVuSans-69" x="235.058594"/>
      <use xlink:href="#DejaVuSans-67" x="262.841797"/>
      <use xlink:href="#DejaVuSans-6b" x="326.318359"/>
      <use xlink:href="#DejaVuSans-65" x="380.603516"/>
      <use xlink:href="#DejaVuSans-69" x="442.126953"/>
      <use xlink:href="#DejaVuSans-74" x="469.910156"/>
     </g>
    </g>
   </g>
   <g id="patch_3">
    <path d="M 115.363636 256.32 
L 124.422078 256.32 
L 124.422078 213.624235 
L 115.363636 213.624235 
z
" clip-path="url(#p1d986edf4d)" style="fill: #4c72b0; fill-opacity: 0.5; stroke: #ffffff; stroke-width: 0.905844; stroke-linejoin: miter"/>
   </g>
   <g id="patch_4">
    <path d="M 124.422078 256.32 
L 133.480519 256.32 
L 133.480519 256.32 
L 124.422078 256.32 
z
" clip-path="url(#p1d986edf4d)" style="fill: #4c72b0; fill-opacity: 0.5; stroke: #ffffff; stroke-width: 0.905844; stroke-linejoin: miter"/>
   </g>
   <g id="patch_5">
    <path d="M 133.480519 256.32 
L 142.538961 256.32 
L 142.538961 256.32 
L 133.480519 256.32 
z
" clip-path="url(#p1d986edf4d)" style="fill: #4c72b0; fill-opacity: 0.5; stroke: #ffffff; stroke-width: 0.905844; stroke-linejoin: miter"/>
   </g>
   <g id="patch_6">
    <path d="M 142.538961 256.32 
L 151.597403 256.32 
L 151.597403 256.32 
L 142.538961 256.32 
z
" clip-path="url(#p1d986edf4d)" style="fill: #4c72b0; fill-opacity: 0.5; stroke: #ffffff; stroke-width: 0.905844; stroke-linejoin: miter"/>
   </g>
   <g id="patch_7">
    <path d="M 151.597403 256.32 
L 160.655844 256.32 
L 160.655844 256.32 
L 151.597403 256.32 
z
" clip-path="url(#p1d986edf4d)" style="fill: #4c72b0; fill-opacity: 0.5; stroke: #ffffff; stroke-width: 0.905844; stroke-linejoin: miter"/>
   </g>
   <g id="patch_8">
    <path d="M 160.655844 256.32 
L 169.714286 256.32 
L 169.714286 256.32 
L 160.655844 256.32 
z
" clip-path="url(#p1d986edf4d)" style="fill: #4c72b0; fill-opacity: 0.5; stroke: #ffffff; stroke-width: 0.905844; stroke-linejoin: miter"/>
   </g>
   <g id="patch_9">
    <path d="M 169.714286 256.32 
L 178.772727 256.32 
L 178.772727 142.830098 
L 169.714286 142.830098 
z
" clip-path="url(#p1d986edf4d)" style="fill: #4c72b0; fill-opacity: 0.5; stroke: #ffffff; stroke-width: 0.905844; stroke-linejoin: miter"/>
   </g>
   <g id="patch_10">
    <path d="M 178.772727 256.32 
L 187.831169 256.32 
L 187.831169 256.32 
L 178.772727 256.32 
z
" clip-path="url(#p1d986edf4d)" style="fill: #4c72b0; fill-opacity: 0.5; stroke: #ffffff; stroke-width: 0.905844; stroke-linejoin: miter"/>
   </g>
   <g id="patch_11">
    <path d="M 187.831169 256.32 
L 196.88961 256.32 
L 196.88961 256.32 
L 187.831169 256.32 
z
" clip-path="url(#p1d986edf4d)" style="fill: #4c72b0; fill-opacity: 0.5; stroke: #ffffff; stroke-width: 0.905844; stroke-linejoin: miter"/>
   </g>
   <g id="patch_12">
    <path d="M 196.88961 256.32 
L 205.948052 256.32 
L 205.948052 256.32 
L 196.88961 256.32 
z
" clip-path="url(#p1d986edf4d)" style="fill: #4c72b0; fill-opacity: 0.5; stroke: #ffffff; stroke-width: 0.905844; stroke-linejoin: miter"/>
   </g>
   <g id="patch_13">
    <path d="M 205.948052 256.32 
L 215.006494 256.32 
L 215.006494 256.32 
L 205.948052 256.32 
z
" clip-path="url(#p1d986edf4d)" style="fill: #4c72b0; fill-opacity: 0.5; stroke: #ffffff; stroke-width: 0.905844; stroke-linejoin: miter"/>
   </g>
   <g id="patch_14">
    <path d="M 215.006494 256.32 
L 224.064935 256.32 
L 224.064935 256.32 
L 215.006494 256.32 
z
" clip-path="url(#p1d986edf4d)" style="fill: #4c72b0; fill-opacity: 0.5; stroke: #ffffff; stroke-width: 0.905844; stroke-linejoin: miter"/>
   </g>
   <g id="patch_15">
    <path d="M 224.064935 256.32 
L 233.123377 256.32 
L 233.123377 195.759088 
L 224.064935 195.759088 
z
" clip-path="url(#p1d986edf4d)" style="fill: #4c72b0; fill-opacity: 0.5; stroke: #ffffff; stroke-width: 0.905844; stroke-linejoin: miter"/>
   </g>
   <g id="patch_16">
    <path d="M 233.123377 256.32 
L 242.181818 256.32 
L 242.181818 256.32 
L 233.123377 256.32 
z
" clip-path="url(#p1d986edf4d)" style="fill: #4c72b0; fill-opacity: 0.5; stroke: #ffffff; stroke-width: 0.905844; stroke-linejoin: miter"/>
   </g>
   <g id="patch_17">
    <path d="M 242.181818 256.32 
L 251.24026 256.32 
L 251.24026 256.32 
L 242.181818 256.32 
z
" clip-path="url(#p1d986edf4d)" style="fill: #4c72b0; fill-opacity: 0.5; stroke: #ffffff; stroke-width: 0.905844; stroke-linejoin: miter"/>
   </g>
   <g id="patch_18">
    <path d="M 251.24026 256.32 
L 260.298701 256.32 
L 260.298701 256.32 
L 251.24026 256.32 
z
" clip-path="url(#p1d986edf4d)" style="fill: #4c72b0; fill-opacity: 0.5; stroke: #ffffff; stroke-width: 0.905844; stroke-linejoin: miter"/>
   </g>
   <g id="patch_19">
    <path d="M 260.298701 256.32 
L 269.357143 256.32 
L 269.357143 256.32 
L 260.298701 256.32 
z
" clip-path="url(#p1d986edf4d)" style="fill: #4c72b0; fill-opacity: 0.5; stroke: #ffffff; stroke-width: 0.905844; stroke-linejoin: miter"/>
   </g>
   <g id="patch_20">
    <path d="M 269.357143 256.32 
L 278.415584 256.32 
L 278.415584 256.32 
L 269.357143 256.32 
z
" clip-path="url(#p1d986edf4d)" style="fill: #4c72b0; fill-opacity: 0.5; stroke: #ffffff; stroke-width: 0.905844; stroke-linejoin: miter"/>
   </g>
   <g id="patch_21">
    <path d="M 278.415584 256.32 
L 287.474026 256.32 
L 287.474026 203.219023 
L 278.415584 203.219023 
z
" clip-path="url(#p1d986edf4d)" style="fill: #4c72b0; fill-opacity: 0.5; stroke: #ffffff; stroke-width: 0.905844; stroke-linejoin: miter"/>
   </g>
   <g id="patch_22">
    <path d="M 287.474026 256.32 
L 296.532468 256.32 
L 296.532468 256.32 
L 287.474026 256.32 
z
" clip-path="url(#p1d986edf4d)" style="fill: #4c72b0; fill-opacity: 0.5; stroke: #ffffff; stroke-width: 0.905844; stroke-linejoin: miter"/>
   </g>
   <g id="patch_23">
    <path d="M 296.532468 256.32 
L 305.590909 256.32 
L 305.590909 256.32 
L 296.532468 256.32 
z
" clip-path="url(#p1d986edf4d)" style="fill: #4c72b0; fill-opacity: 0.5; stroke: #ffffff; stroke-width: 0.905844; stroke-linejoin: miter"/>
   </g>
   <g id="patch_24">
    <path d="M 305.590909 256.32 
L 314.649351 256.32 
L 314.649351 256.32 
L 305.590909 256.32 
z
" clip-path="url(#p1d986edf4d)" style="fill: #4c72b0; fill-opacity: 0.5; stroke: #ffffff; stroke-width: 0.905844; stroke-linejoin: miter"/>
   </g>
   <g id="patch_25">
    <path d="M 314.649351 256.32 
L 323.707792 256.32 
L 323.707792 256.32 
L 314.649351 256.32 
z
" clip-path="url(#p1d986edf4d)" style="fill: #4c72b0; fill-opacity: 0.5; stroke: #ffffff; stroke-width: 0.905844; stroke-linejoin: miter"/>
   </g>
   <g id="patch_26">
    <path d="M 323.707792 256.32 
L 332.766234 256.32 
L 332.766234 256.32 
L 323.707792 256.32 
z
" clip-path="url(#p1d986edf4d)" style="fill: #4c72b0; fill-opacity: 0.5; stroke: #ffffff; stroke-width: 0.905844; stroke-linejoin: miter"/>
   </g>
   <g id="patch_27">
    <path d="M 332.766234 256.32 
L 341.824675 256.32 
L 341.824675 169.982541 
L 332.766234 169.982541 
z
" clip-path="url(#p1d986edf4d)" style="fill: #4c72b0; fill-opacity: 0.5; stroke: #ffffff; stroke-width: 0.905844; stroke-linejoin: miter"/>
   </g>
   <g id="patch_28">
    <path d="M 341.824675 256.32 
L 350.883117 256.32 
L 350.883117 256.32 
L 341.824675 256.32 
z
" clip-path="url(#p1d986edf4d)" style="fill: #4c72b0; fill-opacity: 0.5; stroke: #ffffff; stroke-width: 0.905844; stroke-linejoin: miter"/>
   </g>
   <g id="patch_29">
    <path d="M 350.883117 256.32 
L 359.941558 256.32 
L 359.941558 256.32 
L 350.883117 256.32 
z
" clip-path="url(#p1d986edf4d)" style="fill: #4c72b0; fill-opacity: 0.5; stroke: #ffffff; stroke-width: 0.905844; stroke-linejoin: miter"/>
   </g>
   <g id="patch_30">
    <path d="M 359.941558 256.32 
L 369 256.32 
L 369 256.32 
L 359.941558 256.32 
z
" clip-path="url(#p1d986edf4d)" style="fill: #4c72b0; fill-opacity: 0.5; stroke: #ffffff; stroke-width: 0.905844; stroke-linejoin: miter"/>
   </g>
   <g id="patch_31">
    <path d="M 369 256.32 
L 378.058442 256.32 
L 378.058442 256.32 
L 369 256.32 
z
" clip-path="url(#p1d986edf4d)" style="fill: #4c72b0; fill-opacity: 0.5; stroke: #ffffff; stroke-width: 0.905844; stroke-linejoin: miter"/>
   </g>
   <g id="patch_32">
    <path d="M 378.058442 256.32 
L 387.116883 256.32 
L 387.116883 256.32 
L 378.058442 256.32 
z
" clip-path="url(#p1d986edf4d)" style="fill: #4c72b0; fill-opacity: 0.5; stroke: #ffffff; stroke-width: 0.905844; stroke-linejoin: miter"/>
   </g>
   <g id="patch_33">
    <path d="M 387.116883 256.32 
L 396.175325 256.32 
L 396.175325 256.32 
L 387.116883 256.32 
z
" clip-path="url(#p1d986edf4d)" style="fill: #4c72b0; fill-opacity: 0.5; stroke: #ffffff; stroke-width: 0.905844; stroke-linejoin: miter"/>
   </g>
   <g id="patch_34">
    <path d="M 396.175325 256.32 
L 405.233766 256.32 
L 405.233766 132.446384 
L 396.175325 132.446384 
z
" clip-path="url(#p1d986edf4d)" style="fill: #4c72b0; fill-opacity: 0.5; stroke: #ffffff; stroke-width: 0.905844; stroke-linejoin: miter"/>
   </g>
   <g id="patch_35">
    <path d="M 405.233766 256.32 
L 414.292208 256.32 
L 414.292208 256.32 
L 405.233766 256.32 
z
" clip-path="url(#p1d986edf4d)" style="fill: #4c72b0; fill-opacity: 0.5; stroke: #ffffff; stroke-width: 0.905844; stroke-linejoin: miter"/>
   </g>
   <g id="patch_36">
    <path d="M 414.292208 256.32 
L 423.350649 256.32 
L 423.350649 256.32 
L 414.292208 256.32 
z
" clip-path="url(#p1d986edf4d)" style="fill: #4c72b0; fill-opacity: 0.5; stroke: #ffffff; stroke-width: 0.905844; stroke-linejoin: miter"/>
   </g>
   <g id="patch_37">
    <path d="M 423.350649 256.32 
L 432.409091 256.32 
L 432.409091 256.32 
L 423.350649 256.32 
z
" clip-path="url(#p1d986edf4d)" style="fill: #4c72b0; fill-opacity: 0.5; stroke: #ffffff; stroke-width: 0.905844; stroke-linejoin: miter"/>
   </g>
   <g id="patch_38">
    <path d="M 432.409091 256.32 
L 441.467532 256.32 
L 441.467532 256.32 
L 432.409091 256.32 
z
" clip-path="url(#p1d986edf4d)" style="fill: #4c72b0; fill-opacity: 0.5; stroke: #ffffff; stroke-width: 0.905844; stroke-linejoin: miter"/>
   </g>
   <g id="patch_39">
    <path d="M 441.467532 256.32 
L 450.525974 256.32 
L 450.525974 256.32 
L 441.467532 256.32 
z
" clip-path="url(#p1d986edf4d)" style="fill: #4c72b0; fill-opacity: 0.5; stroke: #ffffff; stroke-width: 0.905844; stroke-linejoin: miter"/>
   </g>
   <g id="patch_40">
    <path d="M 450.525974 256.32 
L 459.584416 256.32 
L 459.584416 45.12 
L 450.525974 45.12 
z
" clip-path="url(#p1d986edf4d)" style="fill: #4c72b0; fill-opacity: 0.5; stroke: #ffffff; stroke-width: 0.905844; stroke-linejoin: miter"/>
   </g>
   <g id="patch_41">
    <path d="M 459.584416 256.32 
L 468.642857 256.32 
L 468.642857 256.32 
L 459.584416 256.32 
z
" clip-path="url(#p1d986edf4d)" style="fill: #4c72b0; fill-opacity: 0.5; stroke: #ffffff; stroke-width: 0.905844; stroke-linejoin: miter"/>
   </g>
   <g id="patch_42">
    <path d="M 468.642857 256.32 
L 477.701299 256.32 
L 477.701299 256.32 
L 468.642857 256.32 
z
" clip-path="url(#p1d986edf4d)" style="fill: #4c72b0; fill-opacity: 0.5; stroke: #ffffff; stroke-width: 0.905844; stroke-linejoin: miter"/>
   </g>
   <g id="patch_43">
    <path d="M 477.701299 256.32 
L 486.75974 256.32 
L 486.75974 256.32 
L 477.701299 256.32 
z
" clip-path="url(#p1d986edf4d)" style="fill: #4c72b0; fill-opacity: 0.5; stroke: #ffffff; stroke-width: 0.905844; stroke-linejoin: miter"/>
   </g>
   <g id="patch_44">
    <path d="M 486.75974 256.32 
L 495.818182 256.32 
L 495.818182 256.32 
L 486.75974 256.32 
z
" clip-path="url(#p1d986edf4d)" style="fill: #4c72b0; fill-opacity: 0.5; stroke: #ffffff; stroke-width: 0.905844; stroke-linejoin: miter"/>
   </g>
   <g id="patch_45">
    <path d="M 495.818182 256.32 
L 504.876623 256.32 
L 504.876623 256.32 
L 495.818182 256.32 
z
" clip-path="url(#p1d986edf4d)" style="fill: #4c72b0; fill-opacity: 0.5; stroke: #ffffff; stroke-width: 0.905844; stroke-linejoin: miter"/>
   </g>
   <g id="patch_46">
    <path d="M 504.876623 256.32 
L 513.935065 256.32 
L 513.935065 114.344756 
L 504.876623 114.344756 
z
" clip-path="url(#p1d986edf4d)" style="fill: #4c72b0; fill-opacity: 0.5; stroke: #ffffff; stroke-width: 0.905844; stroke-linejoin: miter"/>
   </g>
   <g id="patch_47">
    <path d="M 513.935065 256.32 
L 522.993506 256.32 
L 522.993506 256.32 
L 513.935065 256.32 
z
" clip-path="url(#p1d986edf4d)" style="fill: #4c72b0; fill-opacity: 0.5; stroke: #ffffff; stroke-width: 0.905844; stroke-linejoin: miter"/>
   </g>
   <g id="patch_48">
    <path d="M 522.993506 256.32 
L 532.051948 256.32 
L 532.051948 256.32 
L 522.993506 256.32 
z
" clip-path="url(#p1d986edf4d)" style="fill: #4c72b0; fill-opacity: 0.5; stroke: #ffffff; stroke-width: 0.905844; stroke-linejoin: miter"/>
   </g>
   <g id="patch_49">
    <path d="M 532.051948 256.32 
L 541.11039 256.32 
L 541.11039 256.32 
L 532.051948 256.32 
z
" clip-path="url(#p1d986edf4d)" style="fill: #4c72b0; fill-opacity: 0.5; stroke: #ffffff; stroke-width: 0.905844; stroke-linejoin: miter"/>
   </g>
   <g id="patch_50">
    <path d="M 541.11039 256.32 
L 550.168831 256.32 
L 550.168831 256.32 
L 541.11039 256.32 
z
" clip-path="url(#p1d986edf4d)" style="fill: #4c72b0; fill-opacity: 0.5; stroke: #ffffff; stroke-width: 0.905844; stroke-linejoin: miter"/>
   </g>
   <g id="patch_51">
    <path d="M 550.168831 256.32 
L 559.227273 256.32 
L 559.227273 256.32 
L 550.168831 256.32 
z
" clip-path="url(#p1d986edf4d)" style="fill: #4c72b0; fill-opacity: 0.5; stroke: #ffffff; stroke-width: 0.905844; stroke-linejoin: miter"/>
   </g>
   <g id="patch_52">
    <path d="M 559.227273 256.32 
L 568.285714 256.32 
L 568.285714 62.576678 
L 559.227273 62.576678 
z
" clip-path="url(#p1d986edf4d)" style="fill: #4c72b0; fill-opacity: 0.5; stroke: #ffffff; stroke-width: 0.905844; stroke-linejoin: miter"/>
   </g>
   <g id="patch_53">
    <path d="M 568.285714 256.32 
L 577.344156 256.32 
L 577.344156 256.32 
L 568.285714 256.32 
z
" clip-path="url(#p1d986edf4d)" style="fill: #4c72b0; fill-opacity: 0.5; stroke: #ffffff; stroke-width: 0.905844; stroke-linejoin: miter"/>
   </g>
   <g id="patch_54">
    <path d="M 577.344156 256.32 
L 586.402597 256.32 
L 586.402597 256.32 
L 577.344156 256.32 
z
" clip-path="url(#p1d986edf4d)" style="fill: #4c72b0; fill-opacity: 0.5; stroke: #ffffff; stroke-width: 0.905844; stroke-linejoin: miter"/>
   </g>
   <g id="patch_55">
    <path d="M 586.402597 256.32 
L 595.461039 256.32 
L 595.461039 256.32 
L 586.402597 256.32 
z
" clip-path="url(#p1d986edf4d)" style="fill: #4c72b0; fill-opacity: 0.5; stroke: #ffffff; stroke-width: 0.905844; stroke-linejoin: miter"/>
   </g>
   <g id="patch_56">
    <path d="M 595.461039 256.32 
L 604.519481 256.32 
L 604.519481 256.32 
L 595.461039 256.32 
z
" clip-path="url(#p1d986edf4d)" style="fill: #4c72b0; fill-opacity: 0.5; stroke: #ffffff; stroke-width: 0.905844; stroke-linejoin: miter"/>
   </g>
   <g id="patch_57">
    <path d="M 604.519481 256.32 
L 613.577922 256.32 
L 613.577922 256.32 
L 604.519481 256.32 
z
" clip-path="url(#p1d986edf4d)" style="fill: #4c72b0; fill-opacity: 0.5; stroke: #ffffff; stroke-width: 0.905844; stroke-linejoin: miter"/>
   </g>
   <g id="patch_58">
    <path d="M 613.577922 256.32 
L 622.636364 256.32 
L 622.636364 180.344756 
L 613.577922 180.344756 
z
" clip-path="url(#p1d986edf4d)" style="fill: #4c72b0; fill-opacity: 0.5; stroke: #ffffff; stroke-width: 0.905844; stroke-linejoin: miter"/>
   </g>
   <g id="line2d_12">
    <path d="M 115.363636 246.96849 
L 117.912746 247.024103 
L 120.461855 247.258889 
L 125.560073 248.109692 
L 130.658291 249.069745 
L 133.207401 249.410737 
L 135.75651 249.561072 
L 138.305619 249.455627 
L 140.854728 249.042475 
L 143.403837 248.287952 
L 145.952947 247.181123 
L 148.502056 245.737271 
L 151.051165 243.999896 
L 156.149383 239.956808 
L 161.247602 235.895969 
L 163.796711 234.178102 
L 166.34582 232.83134 
L 168.894929 231.952537 
L 171.444038 231.605933 
L 173.993148 231.816147 
L 176.542257 232.565288 
L 179.091366 233.794622 
L 181.640475 235.410542 
L 186.738693 239.311729 
L 191.836912 243.219206 
L 194.386021 244.875645 
L 196.93513 246.21592 
L 199.484239 247.187019 
L 202.033349 247.766464 
L 204.582458 247.96148 
L 207.131567 247.806409 
L 209.680676 247.358747 
L 212.229785 246.694087 
L 219.877113 244.295765 
L 222.426222 243.659843 
L 224.975331 243.230106 
L 227.52444 243.053634 
L 230.07355 243.153307 
L 232.622659 243.526438 
L 235.171768 244.145822 
L 237.720877 244.963054 
L 247.917314 248.816459 
L 250.466423 249.561565 
L 253.015532 250.100341 
L 255.564641 250.398898 
L 258.113751 250.441952 
L 260.66286 250.233422 
L 263.211969 249.795901 
L 265.761078 249.169039 
L 270.859296 247.573986 
L 275.957515 245.978351 
L 278.506624 245.351441 
L 281.055733 244.913736 
L 283.604842 244.702193 
L 286.153952 244.733423 
L 288.703061 245.001788 
L 291.25217 245.479603 
L 296.350388 246.857876 
L 301.448607 248.331592 
L 303.997716 248.912066 
L 306.546825 249.293713 
L 309.095934 249.420161 
L 311.645043 249.252118 
L 314.194153 248.770822 
L 316.743262 247.980433 
L 319.292371 246.90916 
L 321.84148 245.608852 
L 332.037917 239.800977 
L 334.587026 238.693957 
L 337.136135 237.907158 
L 339.685244 237.498505 
L 342.234354 237.495213 
L 344.783463 237.890165 
L 347.332572 238.641658 
L 349.881681 239.676563 
L 360.078118 244.483295 
L 362.627227 245.261141 
L 365.176336 245.665238 
L 367.725445 245.631662 
L 370.274555 245.127632 
L 372.823664 244.154859 
L 375.372773 242.750978 
L 377.921882 240.988777 
L 383.020101 236.833511 
L 385.56921 234.717607 
L 388.118319 232.777136 
L 390.667428 231.155945 
L 393.216537 229.976105 
L 395.765646 229.325401 
L 398.314756 229.247506 
L 400.863865 229.736144 
L 403.412974 230.734042 
L 405.962083 232.136784 
L 413.609411 237.217986 
L 416.15852 238.602672 
L 418.707629 239.541203 
L 421.256738 239.891808 
L 423.805847 239.551051 
L 426.354957 238.462804 
L 428.904066 236.624844 
L 431.453175 234.092574 
L 434.002284 230.979229 
L 436.551393 227.451791 
L 441.649612 220.032589 
L 444.198721 216.638317 
L 446.74783 213.784793 
L 449.296939 211.685612 
L 451.846048 210.501477 
L 454.395158 210.323717 
L 456.944267 211.164569 
L 459.493376 212.955652 
L 462.042485 215.554832 
L 464.591594 218.760497 
L 472.238922 229.536705 
L 474.788031 232.688324 
L 477.33714 235.274643 
L 479.886249 237.159773 
L 482.435359 238.266508 
L 484.984468 238.578269 
L 487.533577 238.1372 
L 490.082686 237.038966 
L 492.631795 235.424667 
L 495.180905 233.470116 
L 500.279123 229.336553 
L 502.828232 227.555968 
L 505.377341 226.199682 
L 507.92645 225.396092 
L 510.47556 225.221874 
L 513.024669 225.695089 
L 515.573778 226.773717 
L 518.122887 228.359816 
L 520.671996 230.308747 
L 525.770215 234.564252 
L 528.319324 236.476417 
L 530.868433 237.994342 
L 533.417542 238.961035 
L 535.966651 239.25846 
L 538.515761 238.81639 
L 541.06487 237.618469 
L 543.613979 235.705294 
L 546.163088 233.174164 
L 548.712197 230.175021 
L 556.359525 220.454011 
L 558.908634 217.755771 
L 561.457743 215.697455 
L 564.006852 214.444605 
L 566.555962 214.10177 
L 569.105071 214.702518 
L 571.65418 216.206809 
L 574.203289 218.506137 
L 576.752398 221.435683 
L 579.301508 224.791699 
L 584.399726 231.894933 
L 586.948835 235.220403 
L 589.497944 238.161378 
L 592.047053 240.594818 
L 594.596163 242.44601 
L 597.145272 243.688802 
L 599.694381 244.342319 
L 602.24349 244.46511 
L 604.792599 244.147577 
L 607.341709 243.503284 
L 617.538145 240.211642 
L 620.087254 239.787909 
L 622.636364 239.68515 
L 622.636364 239.68515 
" clip-path="url(#p1d986edf4d)" style="fill: none; stroke: #4c72b0; stroke-width: 1.5; stroke-linecap: round"/>
   </g>
   <g id="patch_59">
    <path d="M 90 256.32 
L 90 34.56 
" style="fill: none; stroke: #cccccc; stroke-width: 1.25; stroke-linejoin: miter; stroke-linecap: square"/>
   </g>
   <g id="patch_60">
    <path d="M 648 256.32 
L 648 34.56 
" style="fill: none; stroke: #cccccc; stroke-width: 1.25; stroke-linejoin: miter; stroke-linecap: square"/>
   </g>
   <g id="patch_61">
    <path d="M 90 256.32 
L 648 256.32 
" style="fill: none; stroke: #cccccc; stroke-width: 1.25; stroke-linejoin: miter; stroke-linecap: square"/>
   </g>
   <g id="patch_62">
    <path d="M 90 34.56 
L 648 34.56 
" style="fill: none; stroke: #cccccc; stroke-width: 1.25; stroke-linejoin: miter; stroke-linecap: square"/>
   </g>
   <g id="text_14">
    <!-- Histogramm von city_encoded -->
    <g style="fill: #262626" transform="translate(277.547813 28.56) scale(0.12 -0.12)">
     <defs>
      <path id="DejaVuSans-73" d="M 2834 3397 
L 2834 2853 
Q 2591 2978 2328 3040 
Q 2066 3103 1784 3103 
Q 1356 3103 1142 2972 
Q 928 2841 928 2578 
Q 928 2378 1081 2264 
Q 1234 2150 1697 2047 
L 1894 2003 
Q 2506 1872 2764 1633 
Q 3022 1394 3022 966 
Q 3022 478 2636 193 
Q 2250 -91 1575 -91 
Q 1294 -91 989 -36 
Q 684 19 347 128 
L 347 722 
Q 666 556 975 473 
Q 1284 391 1588 391 
Q 1994 391 2212 530 
Q 2431 669 2431 922 
Q 2431 1156 2273 1281 
Q 2116 1406 1581 1522 
L 1381 1569 
Q 847 1681 609 1914 
Q 372 2147 372 2553 
Q 372 3047 722 3315 
Q 1072 3584 1716 3584 
Q 2034 3584 2315 3537 
Q 2597 3491 2834 3397 
z
" transform="scale(0.015625)"/>
      <path id="DejaVuSans-72" d="M 2631 2963 
Q 2534 3019 2420 3045 
Q 2306 3072 2169 3072 
Q 1681 3072 1420 2755 
Q 1159 2438 1159 1844 
L 1159 0 
L 581 0 
L 581 3500 
L 1159 3500 
L 1159 2956 
Q 1341 3275 1631 3429 
Q 1922 3584 2338 3584 
Q 2397 3584 2469 3576 
Q 2541 3569 2628 3553 
L 2631 2963 
z
" transform="scale(0.015625)"/>
      <path id="DejaVuSans-61" d="M 2194 1759 
Q 1497 1759 1228 1600 
Q 959 1441 959 1056 
Q 959 750 1161 570 
Q 1363 391 1709 391 
Q 2188 391 2477 730 
Q 2766 1069 2766 1631 
L 2766 1759 
L 2194 1759 
z
M 3341 1997 
L 3341 0 
L 2766 0 
L 2766 531 
Q 2569 213 2275 61 
Q 1981 -91 1556 -91 
Q 1019 -91 701 211 
Q 384 513 384 1019 
Q 384 1609 779 1909 
Q 1175 2209 1959 2209 
L 2766 2209 
L 2766 2266 
Q 2766 2663 2505 2880 
Q 2244 3097 1772 3097 
Q 1472 3097 1187 3025 
Q 903 2953 641 2809 
L 641 3341 
Q 956 3463 1253 3523 
Q 1550 3584 1831 3584 
Q 2591 3584 2966 3190 
Q 3341 2797 3341 1997 
z
" transform="scale(0.015625)"/>
      <path id="DejaVuSans-6d" d="M 3328 2828 
Q 3544 3216 3844 3400 
Q 4144 3584 4550 3584 
Q 5097 3584 5394 3201 
Q 5691 2819 5691 2113 
L 5691 0 
L 5113 0 
L 5113 2094 
Q 5113 2597 4934 2840 
Q 4756 3084 4391 3084 
Q 3944 3084 3684 2787 
Q 3425 2491 3425 1978 
L 3425 0 
L 2847 0 
L 2847 2094 
Q 2847 2600 2669 2842 
Q 2491 3084 2119 3084 
Q 1678 3084 1418 2786 
Q 1159 2488 1159 1978 
L 1159 0 
L 581 0 
L 581 3500 
L 1159 3500 
L 1159 2956 
Q 1356 3278 1631 3431 
Q 1906 3584 2284 3584 
Q 2666 3584 2933 3390 
Q 3200 3197 3328 2828 
z
" transform="scale(0.015625)"/>
      <path id="DejaVuSans-20" transform="scale(0.015625)"/>
      <path id="DejaVuSans-76" d="M 191 3500 
L 800 3500 
L 1894 563 
L 2988 3500 
L 3597 3500 
L 2284 0 
L 1503 0 
L 191 3500 
z
" transform="scale(0.015625)"/>
     </defs>
     <use xlink:href="#DejaVuSans-48"/>
     <use xlink:href="#DejaVuSans-69" x="75.195312"/>
     <use xlink:href="#DejaVuSans-73" x="102.978516"/>
     <use xlink:href="#DejaVuSans-74" x="155.078125"/>
     <use xlink:href="#DejaVuSans-6f" x="194.287109"/>
     <use xlink:href="#DejaVuSans-67" x="255.46875"/>
     <use xlink:href="#DejaVuSans-72" x="318.945312"/>
     <use xlink:href="#DejaVuSans-61" x="360.058594"/>
     <use xlink:href="#DejaVuSans-6d" x="421.337891"/>
     <use xlink:href="#DejaVuSans-6d" x="518.75"/>
     <use xlink:href="#DejaVuSans-20" x="616.162109"/>
     <use xlink:href="#DejaVuSans-76" x="647.949219"/>
     <use xlink:href="#DejaVuSans-6f" x="707.128906"/>
     <use xlink:href="#DejaVuSans-6e" x="768.310547"/>
     <use xlink:href="#DejaVuSans-20" x="831.689453"/>
     <use xlink:href="#DejaVuSans-63" x="863.476562"/>
     <use xlink:href="#DejaVuSans-69" x="918.457031"/>
     <use xlink:href="#DejaVuSans-74" x="946.240234"/>
     <use xlink:href="#DejaVuSans-79" x="985.449219"/>
     <use xlink:href="#DejaVuSans-5f" x="1044.628906"/>
     <use xlink:href="#DejaVuSans-65" x="1094.628906"/>
     <use xlink:href="#DejaVuSans-6e" x="1156.152344"/>
     <use xlink:href="#DejaVuSans-63" x="1219.53125"/>
     <use xlink:href="#DejaVuSans-6f" x="1274.511719"/>
     <use xlink:href="#DejaVuSans-64" x="1335.693359"/>
     <use xlink:href="#DejaVuSans-65" x="1399.169922"/>
     <use xlink:href="#DejaVuSans-64" x="1460.693359"/>
    </g>
   </g>
  </g>
 </g>
 <defs>
  <clipPath id="p1d986edf4d">
   <rect x="90" y="34.56" width="558" height="221.76"/>
  </clipPath>
 </defs>
</svg>
