<?xml version="1.0" encoding="utf-8" standalone="no"?>
<!DOCTYPE svg PUBLIC "-//W3C//DTD SVG 1.1//EN"
  "http://www.w3.org/Graphics/SVG/1.1/DTD/svg11.dtd">
<svg xmlns:xlink="http://www.w3.org/1999/xlink" width="720pt" height="288pt" viewBox="0 0 720 288" xmlns="http://www.w3.org/2000/svg" version="1.1">
 <metadata>
  <rdf:RDF xmlns:dc="http://purl.org/dc/elements/1.1/" xmlns:cc="http://creativecommons.org/ns#" xmlns:rdf="http://www.w3.org/1999/02/22-rdf-syntax-ns#">
   <cc:Work>
    <dc:type rdf:resource="http://purl.org/dc/dcmitype/StillImage"/>
    <dc:date>2024-01-22T22:24:39.498111</dc:date>
    <dc:format>image/svg+xml</dc:format>
    <dc:creator>
     <cc:Agent>
      <dc:title>Matplotlib v3.8.2, https://matplotlib.org/</dc:title>
     </cc:Agent>
    </dc:creator>
   </cc:Work>
  </rdf:RDF>
 </metadata>
 <defs>
  <style type="text/css">*{stroke-linejoin: round; stroke-linecap: butt}</style>
 </defs>
 <g id="figure_1">
  <g id="patch_1">
   <path d="M 0 288 
L 720 288 
L 720 0 
L 0 0 
z
" style="fill: #ffffff"/>
  </g>
  <g id="axes_1">
   <g id="patch_2">
    <path d="M 90 256.32 
L 648 256.32 
L 648 34.56 
L 90 34.56 
z
" style="fill: #ffffff"/>
   </g>
   <g id="matplotlib.axis_1">
    <g id="xtick_1">
     <g id="line2d_1">
      <path d="M 115.363636 256.32 
L 115.363636 34.56 
" clip-path="url(#p25711e6d73)" style="fill: none; stroke: #cccccc; stroke-linecap: round"/>
     </g>
     <g id="text_1">
      <!-- 0.0 -->
      <g style="fill: #262626" transform="translate(106.616918 274.178281) scale(0.11 -0.11)">
       <defs>
        <path id="DejaVuSans-30" d="M 2034 4250 
Q 1547 4250 1301 3770 
Q 1056 3291 1056 2328 
Q 1056 1369 1301 889 
Q 1547 409 2034 409 
Q 2525 409 2770 889 
Q 3016 1369 3016 2328 
Q 3016 3291 2770 3770 
Q 2525 4250 2034 4250 
z
M 2034 4750 
Q 2819 4750 3233 4129 
Q 3647 3509 3647 2328 
Q 3647 1150 3233 529 
Q 2819 -91 2034 -91 
Q 1250 -91 836 529 
Q 422 1150 422 2328 
Q 422 3509 836 4129 
Q 1250 4750 2034 4750 
z
" transform="scale(0.015625)"/>
        <path id="DejaVuSans-2e" d="M 684 794 
L 1344 794 
L 1344 0 
L 684 0 
L 684 794 
z
" transform="scale(0.015625)"/>
       </defs>
       <use xlink:href="#DejaVuSans-30"/>
       <use xlink:href="#DejaVuSans-2e" x="63.623047"/>
       <use xlink:href="#DejaVuSans-30" x="95.410156"/>
      </g>
     </g>
    </g>
    <g id="xtick_2">
     <g id="line2d_2">
      <path d="M 216.818182 256.32 
L 216.818182 34.56 
" clip-path="url(#p25711e6d73)" style="fill: none; stroke: #cccccc; stroke-linecap: round"/>
     </g>
     <g id="text_2">
      <!-- 0.2 -->
      <g style="fill: #262626" transform="translate(208.071463 274.178281) scale(0.11 -0.11)">
       <defs>
        <path id="DejaVuSans-32" d="M 1228 531 
L 3431 531 
L 3431 0 
L 469 0 
L 469 531 
Q 828 903 1448 1529 
Q 2069 2156 2228 2338 
Q 2531 2678 2651 2914 
Q 2772 3150 2772 3378 
Q 2772 3750 2511 3984 
Q 2250 4219 1831 4219 
Q 1534 4219 1204 4116 
Q 875 4013 500 3803 
L 500 4441 
Q 881 4594 1212 4672 
Q 1544 4750 1819 4750 
Q 2544 4750 2975 4387 
Q 3406 4025 3406 3419 
Q 3406 3131 3298 2873 
Q 3191 2616 2906 2266 
Q 2828 2175 2409 1742 
Q 1991 1309 1228 531 
z
" transform="scale(0.015625)"/>
       </defs>
       <use xlink:href="#DejaVuSans-30"/>
       <use xlink:href="#DejaVuSans-2e" x="63.623047"/>
       <use xlink:href="#DejaVuSans-32" x="95.410156"/>
      </g>
     </g>
    </g>
    <g id="xtick_3">
     <g id="line2d_3">
      <path d="M 318.272727 256.32 
L 318.272727 34.56 
" clip-path="url(#p25711e6d73)" style="fill: none; stroke: #cccccc; stroke-linecap: round"/>
     </g>
     <g id="text_3">
      <!-- 0.4 -->
      <g style="fill: #262626" transform="translate(309.526009 274.178281) scale(0.11 -0.11)">
       <defs>
        <path id="DejaVuSans-34" d="M 2419 4116 
L 825 1625 
L 2419 1625 
L 2419 4116 
z
M 2253 4666 
L 3047 4666 
L 3047 1625 
L 3713 1625 
L 3713 1100 
L 3047 1100 
L 3047 0 
L 2419 0 
L 2419 1100 
L 313 1100 
L 313 1709 
L 2253 4666 
z
" transform="scale(0.015625)"/>
       </defs>
       <use xlink:href="#DejaVuSans-30"/>
       <use xlink:href="#DejaVuSans-2e" x="63.623047"/>
       <use xlink:href="#DejaVuSans-34" x="95.410156"/>
      </g>
     </g>
    </g>
    <g id="xtick_4">
     <g id="line2d_4">
      <path d="M 419.727273 256.32 
L 419.727273 34.56 
" clip-path="url(#p25711e6d73)" style="fill: none; stroke: #cccccc; stroke-linecap: round"/>
     </g>
     <g id="text_4">
      <!-- 0.6 -->
      <g style="fill: #262626" transform="translate(410.980554 274.178281) scale(0.11 -0.11)">
       <defs>
        <path id="DejaVuSans-36" d="M 2113 2584 
Q 1688 2584 1439 2293 
Q 1191 2003 1191 1497 
Q 1191 994 1439 701 
Q 1688 409 2113 409 
Q 2538 409 2786 701 
Q 3034 994 3034 1497 
Q 3034 2003 2786 2293 
Q 2538 2584 2113 2584 
z
M 3366 4563 
L 3366 3988 
Q 3128 4100 2886 4159 
Q 2644 4219 2406 4219 
Q 1781 4219 1451 3797 
Q 1122 3375 1075 2522 
Q 1259 2794 1537 2939 
Q 1816 3084 2150 3084 
Q 2853 3084 3261 2657 
Q 3669 2231 3669 1497 
Q 3669 778 3244 343 
Q 2819 -91 2113 -91 
Q 1303 -91 875 529 
Q 447 1150 447 2328 
Q 447 3434 972 4092 
Q 1497 4750 2381 4750 
Q 2619 4750 2861 4703 
Q 3103 4656 3366 4563 
z
" transform="scale(0.015625)"/>
       </defs>
       <use xlink:href="#DejaVuSans-30"/>
       <use xlink:href="#DejaVuSans-2e" x="63.623047"/>
       <use xlink:href="#DejaVuSans-36" x="95.410156"/>
      </g>
     </g>
    </g>
    <g id="xtick_5">
     <g id="line2d_5">
      <path d="M 521.181818 256.32 
L 521.181818 34.56 
" clip-path="url(#p25711e6d73)" style="fill: none; stroke: #cccccc; stroke-linecap: round"/>
     </g>
     <g id="text_5">
      <!-- 0.8 -->
      <g style="fill: #262626" transform="translate(512.435099 274.178281) scale(0.11 -0.11)">
       <defs>
        <path id="DejaVuSans-38" d="M 2034 2216 
Q 1584 2216 1326 1975 
Q 1069 1734 1069 1313 
Q 1069 891 1326 650 
Q 1584 409 2034 409 
Q 2484 409 2743 651 
Q 3003 894 3003 1313 
Q 3003 1734 2745 1975 
Q 2488 2216 2034 2216 
z
M 1403 2484 
Q 997 2584 770 2862 
Q 544 3141 544 3541 
Q 544 4100 942 4425 
Q 1341 4750 2034 4750 
Q 2731 4750 3128 4425 
Q 3525 4100 3525 3541 
Q 3525 3141 3298 2862 
Q 3072 2584 2669 2484 
Q 3125 2378 3379 2068 
Q 3634 1759 3634 1313 
Q 3634 634 3220 271 
Q 2806 -91 2034 -91 
Q 1263 -91 848 271 
Q 434 634 434 1313 
Q 434 1759 690 2068 
Q 947 2378 1403 2484 
z
M 1172 3481 
Q 1172 3119 1398 2916 
Q 1625 2713 2034 2713 
Q 2441 2713 2670 2916 
Q 2900 3119 2900 3481 
Q 2900 3844 2670 4047 
Q 2441 4250 2034 4250 
Q 1625 4250 1398 4047 
Q 1172 3844 1172 3481 
z
" transform="scale(0.015625)"/>
       </defs>
       <use xlink:href="#DejaVuSans-30"/>
       <use xlink:href="#DejaVuSans-2e" x="63.623047"/>
       <use xlink:href="#DejaVuSans-38" x="95.410156"/>
      </g>
     </g>
    </g>
    <g id="xtick_6">
     <g id="line2d_6">
      <path d="M 622.636364 256.32 
L 622.636364 34.56 
" clip-path="url(#p25711e6d73)" style="fill: none; stroke: #cccccc; stroke-linecap: round"/>
     </g>
     <g id="text_6">
      <!-- 1.0 -->
      <g style="fill: #262626" transform="translate(613.889645 274.178281) scale(0.11 -0.11)">
       <defs>
        <path id="DejaVuSans-31" d="M 794 531 
L 1825 531 
L 1825 4091 
L 703 3866 
L 703 4441 
L 1819 4666 
L 2450 4666 
L 2450 531 
L 3481 531 
L 3481 0 
L 794 0 
L 794 531 
z
" transform="scale(0.015625)"/>
       </defs>
       <use xlink:href="#DejaVuSans-31"/>
       <use xlink:href="#DejaVuSans-2e" x="63.623047"/>
       <use xlink:href="#DejaVuSans-30" x="95.410156"/>
      </g>
     </g>
    </g>
    <g id="text_7">
     <!-- realSum_Normalized -->
     <g style="fill: #262626" transform="translate(307.150312 289.584063) scale(0.12 -0.12)">
      <defs>
       <path id="DejaVuSans-72" d="M 2631 2963 
Q 2534 3019 2420 3045 
Q 2306 3072 2169 3072 
Q 1681 3072 1420 2755 
Q 1159 2438 1159 1844 
L 1159 0 
L 581 0 
L 581 3500 
L 1159 3500 
L 1159 2956 
Q 1341 3275 1631 3429 
Q 1922 3584 2338 3584 
Q 2397 3584 2469 3576 
Q 2541 3569 2628 3553 
L 2631 2963 
z
" transform="scale(0.015625)"/>
       <path id="DejaVuSans-65" d="M 3597 1894 
L 3597 1613 
L 953 1613 
Q 991 1019 1311 708 
Q 1631 397 2203 397 
Q 2534 397 2845 478 
Q 3156 559 3463 722 
L 3463 178 
Q 3153 47 2828 -22 
Q 2503 -91 2169 -91 
Q 1331 -91 842 396 
Q 353 884 353 1716 
Q 353 2575 817 3079 
Q 1281 3584 2069 3584 
Q 2775 3584 3186 3129 
Q 3597 2675 3597 1894 
z
M 3022 2063 
Q 3016 2534 2758 2815 
Q 2500 3097 2075 3097 
Q 1594 3097 1305 2825 
Q 1016 2553 972 2059 
L 3022 2063 
z
" transform="scale(0.015625)"/>
       <path id="DejaVuSans-61" d="M 2194 1759 
Q 1497 1759 1228 1600 
Q 959 1441 959 1056 
Q 959 750 1161 570 
Q 1363 391 1709 391 
Q 2188 391 2477 730 
Q 2766 1069 2766 1631 
L 2766 1759 
L 2194 1759 
z
M 3341 1997 
L 3341 0 
L 2766 0 
L 2766 531 
Q 2569 213 2275 61 
Q 1981 -91 1556 -91 
Q 1019 -91 701 211 
Q 384 513 384 1019 
Q 384 1609 779 1909 
Q 1175 2209 1959 2209 
L 2766 2209 
L 2766 2266 
Q 2766 2663 2505 2880 
Q 2244 3097 1772 3097 
Q 1472 3097 1187 3025 
Q 903 2953 641 2809 
L 641 3341 
Q 956 3463 1253 3523 
Q 1550 3584 1831 3584 
Q 2591 3584 2966 3190 
Q 3341 2797 3341 1997 
z
" transform="scale(0.015625)"/>
       <path id="DejaVuSans-6c" d="M 603 4863 
L 1178 4863 
L 1178 0 
L 603 0 
L 603 4863 
z
" transform="scale(0.015625)"/>
       <path id="DejaVuSans-53" d="M 3425 4513 
L 3425 3897 
Q 3066 4069 2747 4153 
Q 2428 4238 2131 4238 
Q 1616 4238 1336 4038 
Q 1056 3838 1056 3469 
Q 1056 3159 1242 3001 
Q 1428 2844 1947 2747 
L 2328 2669 
Q 3034 2534 3370 2195 
Q 3706 1856 3706 1288 
Q 3706 609 3251 259 
Q 2797 -91 1919 -91 
Q 1588 -91 1214 -16 
Q 841 59 441 206 
L 441 856 
Q 825 641 1194 531 
Q 1563 422 1919 422 
Q 2459 422 2753 634 
Q 3047 847 3047 1241 
Q 3047 1584 2836 1778 
Q 2625 1972 2144 2069 
L 1759 2144 
Q 1053 2284 737 2584 
Q 422 2884 422 3419 
Q 422 4038 858 4394 
Q 1294 4750 2059 4750 
Q 2388 4750 2728 4690 
Q 3069 4631 3425 4513 
z
" transform="scale(0.015625)"/>
       <path id="DejaVuSans-75" d="M 544 1381 
L 544 3500 
L 1119 3500 
L 1119 1403 
Q 1119 906 1312 657 
Q 1506 409 1894 409 
Q 2359 409 2629 706 
Q 2900 1003 2900 1516 
L 2900 3500 
L 3475 3500 
L 3475 0 
L 2900 0 
L 2900 538 
Q 2691 219 2414 64 
Q 2138 -91 1772 -91 
Q 1169 -91 856 284 
Q 544 659 544 1381 
z
M 1991 3584 
L 1991 3584 
z
" transform="scale(0.015625)"/>
       <path id="DejaVuSans-6d" d="M 3328 2828 
Q 3544 3216 3844 3400 
Q 4144 3584 4550 3584 
Q 5097 3584 5394 3201 
Q 5691 2819 5691 2113 
L 5691 0 
L 5113 0 
L 5113 2094 
Q 5113 2597 4934 2840 
Q 4756 3084 4391 3084 
Q 3944 3084 3684 2787 
Q 3425 2491 3425 1978 
L 3425 0 
L 2847 0 
L 2847 2094 
Q 2847 2600 2669 2842 
Q 2491 3084 2119 3084 
Q 1678 3084 1418 2786 
Q 1159 2488 1159 1978 
L 1159 0 
L 581 0 
L 581 3500 
L 1159 3500 
L 1159 2956 
Q 1356 3278 1631 3431 
Q 1906 3584 2284 3584 
Q 2666 3584 2933 3390 
Q 3200 3197 3328 2828 
z
" transform="scale(0.015625)"/>
       <path id="DejaVuSans-5f" d="M 3263 -1063 
L 3263 -1509 
L -63 -1509 
L -63 -1063 
L 3263 -1063 
z
" transform="scale(0.015625)"/>
       <path id="DejaVuSans-4e" d="M 628 4666 
L 1478 4666 
L 3547 763 
L 3547 4666 
L 4159 4666 
L 4159 0 
L 3309 0 
L 1241 3903 
L 1241 0 
L 628 0 
L 628 4666 
z
" transform="scale(0.015625)"/>
       <path id="DejaVuSans-6f" d="M 1959 3097 
Q 1497 3097 1228 2736 
Q 959 2375 959 1747 
Q 959 1119 1226 758 
Q 1494 397 1959 397 
Q 2419 397 2687 759 
Q 2956 1122 2956 1747 
Q 2956 2369 2687 2733 
Q 2419 3097 1959 3097 
z
M 1959 3584 
Q 2709 3584 3137 3096 
Q 3566 2609 3566 1747 
Q 3566 888 3137 398 
Q 2709 -91 1959 -91 
Q 1206 -91 779 398 
Q 353 888 353 1747 
Q 353 2609 779 3096 
Q 1206 3584 1959 3584 
z
" transform="scale(0.015625)"/>
       <path id="DejaVuSans-69" d="M 603 3500 
L 1178 3500 
L 1178 0 
L 603 0 
L 603 3500 
z
M 603 4863 
L 1178 4863 
L 1178 4134 
L 603 4134 
L 603 4863 
z
" transform="scale(0.015625)"/>
       <path id="DejaVuSans-7a" d="M 353 3500 
L 3084 3500 
L 3084 2975 
L 922 459 
L 3084 459 
L 3084 0 
L 275 0 
L 275 525 
L 2438 3041 
L 353 3041 
L 353 3500 
z
" transform="scale(0.015625)"/>
       <path id="DejaVuSans-64" d="M 2906 2969 
L 2906 4863 
L 3481 4863 
L 3481 0 
L 2906 0 
L 2906 525 
Q 2725 213 2448 61 
Q 2172 -91 1784 -91 
Q 1150 -91 751 415 
Q 353 922 353 1747 
Q 353 2572 751 3078 
Q 1150 3584 1784 3584 
Q 2172 3584 2448 3432 
Q 2725 3281 2906 2969 
z
M 947 1747 
Q 947 1113 1208 752 
Q 1469 391 1925 391 
Q 2381 391 2643 752 
Q 2906 1113 2906 1747 
Q 2906 2381 2643 2742 
Q 2381 3103 1925 3103 
Q 1469 3103 1208 2742 
Q 947 2381 947 1747 
z
" transform="scale(0.015625)"/>
      </defs>
      <use xlink:href="#DejaVuSans-72"/>
      <use xlink:href="#DejaVuSans-65" x="38.863281"/>
      <use xlink:href="#DejaVuSans-61" x="100.386719"/>
      <use xlink:href="#DejaVuSans-6c" x="161.666016"/>
      <use xlink:href="#DejaVuSans-53" x="189.449219"/>
      <use xlink:href="#DejaVuSans-75" x="252.925781"/>
      <use xlink:href="#DejaVuSans-6d" x="316.304688"/>
      <use xlink:href="#DejaVuSans-5f" x="413.716797"/>
      <use xlink:href="#DejaVuSans-4e" x="463.716797"/>
      <use xlink:href="#DejaVuSans-6f" x="538.521484"/>
      <use xlink:href="#DejaVuSans-72" x="599.703125"/>
      <use xlink:href="#DejaVuSans-6d" x="639.066406"/>
      <use xlink:href="#DejaVuSans-61" x="736.478516"/>
      <use xlink:href="#DejaVuSans-6c" x="797.757812"/>
      <use xlink:href="#DejaVuSans-69" x="825.541016"/>
      <use xlink:href="#DejaVuSans-7a" x="853.324219"/>
      <use xlink:href="#DejaVuSans-65" x="905.814453"/>
      <use xlink:href="#DejaVuSans-64" x="967.337891"/>
     </g>
    </g>
   </g>
   <g id="matplotlib.axis_2">
    <g id="ytick_1">
     <g id="line2d_7">
      <path d="M 90 256.32 
L 648 256.32 
" clip-path="url(#p25711e6d73)" style="fill: none; stroke: #cccccc; stroke-linecap: round"/>
     </g>
     <g id="text_8">
      <!-- 0 -->
      <g style="fill: #262626" transform="translate(73.50125 260.499141) scale(0.11 -0.11)">
       <use xlink:href="#DejaVuSans-30"/>
      </g>
     </g>
    </g>
    <g id="ytick_2">
     <g id="line2d_8">
      <path d="M 90 231.531268 
L 648 231.531268 
" clip-path="url(#p25711e6d73)" style="fill: none; stroke: #cccccc; stroke-linecap: round"/>
     </g>
     <g id="text_9">
      <!-- 250 -->
      <g style="fill: #262626" transform="translate(59.50375 235.710408) scale(0.11 -0.11)">
       <defs>
        <path id="DejaVuSans-35" d="M 691 4666 
L 3169 4666 
L 3169 4134 
L 1269 4134 
L 1269 2991 
Q 1406 3038 1543 3061 
Q 1681 3084 1819 3084 
Q 2600 3084 3056 2656 
Q 3513 2228 3513 1497 
Q 3513 744 3044 326 
Q 2575 -91 1722 -91 
Q 1428 -91 1123 -41 
Q 819 9 494 109 
L 494 744 
Q 775 591 1075 516 
Q 1375 441 1709 441 
Q 2250 441 2565 725 
Q 2881 1009 2881 1497 
Q 2881 1984 2565 2268 
Q 2250 2553 1709 2553 
Q 1456 2553 1204 2497 
Q 953 2441 691 2322 
L 691 4666 
z
" transform="scale(0.015625)"/>
       </defs>
       <use xlink:href="#DejaVuSans-32"/>
       <use xlink:href="#DejaVuSans-35" x="63.623047"/>
       <use xlink:href="#DejaVuSans-30" x="127.246094"/>
      </g>
     </g>
    </g>
    <g id="ytick_3">
     <g id="line2d_9">
      <path d="M 90 206.742535 
L 648 206.742535 
" clip-path="url(#p25711e6d73)" style="fill: none; stroke: #cccccc; stroke-linecap: round"/>
     </g>
     <g id="text_10">
      <!-- 500 -->
      <g style="fill: #262626" transform="translate(59.50375 210.921676) scale(0.11 -0.11)">
       <use xlink:href="#DejaVuSans-35"/>
       <use xlink:href="#DejaVuSans-30" x="63.623047"/>
       <use xlink:href="#DejaVuSans-30" x="127.246094"/>
      </g>
     </g>
    </g>
    <g id="ytick_4">
     <g id="line2d_10">
      <path d="M 90 181.953803 
L 648 181.953803 
" clip-path="url(#p25711e6d73)" style="fill: none; stroke: #cccccc; stroke-linecap: round"/>
     </g>
     <g id="text_11">
      <!-- 750 -->
      <g style="fill: #262626" transform="translate(59.50375 186.132943) scale(0.11 -0.11)">
       <defs>
        <path id="DejaVuSans-37" d="M 525 4666 
L 3525 4666 
L 3525 4397 
L 1831 0 
L 1172 0 
L 2766 4134 
L 525 4134 
L 525 4666 
z
" transform="scale(0.015625)"/>
       </defs>
       <use xlink:href="#DejaVuSans-37"/>
       <use xlink:href="#DejaVuSans-35" x="63.623047"/>
       <use xlink:href="#DejaVuSans-30" x="127.246094"/>
      </g>
     </g>
    </g>
    <g id="ytick_5">
     <g id="line2d_11">
      <path d="M 90 157.16507 
L 648 157.16507 
" clip-path="url(#p25711e6d73)" style="fill: none; stroke: #cccccc; stroke-linecap: round"/>
     </g>
     <g id="text_12">
      <!-- 1000 -->
      <g style="fill: #262626" transform="translate(52.505 161.344211) scale(0.11 -0.11)">
       <use xlink:href="#DejaVuSans-31"/>
       <use xlink:href="#DejaVuSans-30" x="63.623047"/>
       <use xlink:href="#DejaVuSans-30" x="127.246094"/>
       <use xlink:href="#DejaVuSans-30" x="190.869141"/>
      </g>
     </g>
    </g>
    <g id="ytick_6">
     <g id="line2d_12">
      <path d="M 90 132.376338 
L 648 132.376338 
" clip-path="url(#p25711e6d73)" style="fill: none; stroke: #cccccc; stroke-linecap: round"/>
     </g>
     <g id="text_13">
      <!-- 1250 -->
      <g style="fill: #262626" transform="translate(52.505 136.555479) scale(0.11 -0.11)">
       <use xlink:href="#DejaVuSans-31"/>
       <use xlink:href="#DejaVuSans-32" x="63.623047"/>
       <use xlink:href="#DejaVuSans-35" x="127.246094"/>
       <use xlink:href="#DejaVuSans-30" x="190.869141"/>
      </g>
     </g>
    </g>
    <g id="ytick_7">
     <g id="line2d_13">
      <path d="M 90 107.587606 
L 648 107.587606 
" clip-path="url(#p25711e6d73)" style="fill: none; stroke: #cccccc; stroke-linecap: round"/>
     </g>
     <g id="text_14">
      <!-- 1500 -->
      <g style="fill: #262626" transform="translate(52.505 111.766746) scale(0.11 -0.11)">
       <use xlink:href="#DejaVuSans-31"/>
       <use xlink:href="#DejaVuSans-35" x="63.623047"/>
       <use xlink:href="#DejaVuSans-30" x="127.246094"/>
       <use xlink:href="#DejaVuSans-30" x="190.869141"/>
      </g>
     </g>
    </g>
    <g id="ytick_8">
     <g id="line2d_14">
      <path d="M 90 82.798873 
L 648 82.798873 
" clip-path="url(#p25711e6d73)" style="fill: none; stroke: #cccccc; stroke-linecap: round"/>
     </g>
     <g id="text_15">
      <!-- 1750 -->
      <g style="fill: #262626" transform="translate(52.505 86.978014) scale(0.11 -0.11)">
       <use xlink:href="#DejaVuSans-31"/>
       <use xlink:href="#DejaVuSans-37" x="63.623047"/>
       <use xlink:href="#DejaVuSans-35" x="127.246094"/>
       <use xlink:href="#DejaVuSans-30" x="190.869141"/>
      </g>
     </g>
    </g>
    <g id="ytick_9">
     <g id="line2d_15">
      <path d="M 90 58.010141 
L 648 58.010141 
" clip-path="url(#p25711e6d73)" style="fill: none; stroke: #cccccc; stroke-linecap: round"/>
     </g>
     <g id="text_16">
      <!-- 2000 -->
      <g style="fill: #262626" transform="translate(52.505 62.189281) scale(0.11 -0.11)">
       <use xlink:href="#DejaVuSans-32"/>
       <use xlink:href="#DejaVuSans-30" x="63.623047"/>
       <use xlink:href="#DejaVuSans-30" x="127.246094"/>
       <use xlink:href="#DejaVuSans-30" x="190.869141"/>
      </g>
     </g>
    </g>
    <g id="text_17">
     <!-- Häufigkeit -->
     <g style="fill: #262626" transform="translate(46.009375 175.9875) rotate(-90) scale(0.12 -0.12)">
      <defs>
       <path id="DejaVuSans-48" d="M 628 4666 
L 1259 4666 
L 1259 2753 
L 3553 2753 
L 3553 4666 
L 4184 4666 
L 4184 0 
L 3553 0 
L 3553 2222 
L 1259 2222 
L 1259 0 
L 628 0 
L 628 4666 
z
" transform="scale(0.015625)"/>
       <path id="DejaVuSans-e4" d="M 2194 1759 
Q 1497 1759 1228 1600 
Q 959 1441 959 1056 
Q 959 750 1161 570 
Q 1363 391 1709 391 
Q 2188 391 2477 730 
Q 2766 1069 2766 1631 
L 2766 1759 
L 2194 1759 
z
M 3341 1997 
L 3341 0 
L 2766 0 
L 2766 531 
Q 2569 213 2275 61 
Q 1981 -91 1556 -91 
Q 1019 -91 701 211 
Q 384 513 384 1019 
Q 384 1609 779 1909 
Q 1175 2209 1959 2209 
L 2766 2209 
L 2766 2266 
Q 2766 2663 2505 2880 
Q 2244 3097 1772 3097 
Q 1472 3097 1187 3025 
Q 903 2953 641 2809 
L 641 3341 
Q 956 3463 1253 3523 
Q 1550 3584 1831 3584 
Q 2591 3584 2966 3190 
Q 3341 2797 3341 1997 
z
M 2150 4850 
L 2784 4850 
L 2784 4219 
L 2150 4219 
L 2150 4850 
z
M 928 4850 
L 1562 4850 
L 1562 4219 
L 928 4219 
L 928 4850 
z
" transform="scale(0.015625)"/>
       <path id="DejaVuSans-66" d="M 2375 4863 
L 2375 4384 
L 1825 4384 
Q 1516 4384 1395 4259 
Q 1275 4134 1275 3809 
L 1275 3500 
L 2222 3500 
L 2222 3053 
L 1275 3053 
L 1275 0 
L 697 0 
L 697 3053 
L 147 3053 
L 147 3500 
L 697 3500 
L 697 3744 
Q 697 4328 969 4595 
Q 1241 4863 1831 4863 
L 2375 4863 
z
" transform="scale(0.015625)"/>
       <path id="DejaVuSans-67" d="M 2906 1791 
Q 2906 2416 2648 2759 
Q 2391 3103 1925 3103 
Q 1463 3103 1205 2759 
Q 947 2416 947 1791 
Q 947 1169 1205 825 
Q 1463 481 1925 481 
Q 2391 481 2648 825 
Q 2906 1169 2906 1791 
z
M 3481 434 
Q 3481 -459 3084 -895 
Q 2688 -1331 1869 -1331 
Q 1566 -1331 1297 -1286 
Q 1028 -1241 775 -1147 
L 775 -588 
Q 1028 -725 1275 -790 
Q 1522 -856 1778 -856 
Q 2344 -856 2625 -561 
Q 2906 -266 2906 331 
L 2906 616 
Q 2728 306 2450 153 
Q 2172 0 1784 0 
Q 1141 0 747 490 
Q 353 981 353 1791 
Q 353 2603 747 3093 
Q 1141 3584 1784 3584 
Q 2172 3584 2450 3431 
Q 2728 3278 2906 2969 
L 2906 3500 
L 3481 3500 
L 3481 434 
z
" transform="scale(0.015625)"/>
       <path id="DejaVuSans-6b" d="M 581 4863 
L 1159 4863 
L 1159 1991 
L 2875 3500 
L 3609 3500 
L 1753 1863 
L 3688 0 
L 2938 0 
L 1159 1709 
L 1159 0 
L 581 0 
L 581 4863 
z
" transform="scale(0.015625)"/>
       <path id="DejaVuSans-74" d="M 1172 4494 
L 1172 3500 
L 2356 3500 
L 2356 3053 
L 1172 3053 
L 1172 1153 
Q 1172 725 1289 603 
Q 1406 481 1766 481 
L 2356 481 
L 2356 0 
L 1766 0 
Q 1100 0 847 248 
Q 594 497 594 1153 
L 594 3053 
L 172 3053 
L 172 3500 
L 594 3500 
L 594 4494 
L 1172 4494 
z
" transform="scale(0.015625)"/>
      </defs>
      <use xlink:href="#DejaVuSans-48"/>
      <use xlink:href="#DejaVuSans-e4" x="75.195312"/>
      <use xlink:href="#DejaVuSans-75" x="136.474609"/>
      <use xlink:href="#DejaVuSans-66" x="199.853516"/>
      <use xlink:href="#DejaVuSans-69" x="235.058594"/>
      <use xlink:href="#DejaVuSans-67" x="262.841797"/>
      <use xlink:href="#DejaVuSans-6b" x="326.318359"/>
      <use xlink:href="#DejaVuSans-65" x="380.603516"/>
      <use xlink:href="#DejaVuSans-69" x="442.126953"/>
      <use xlink:href="#DejaVuSans-74" x="469.910156"/>
     </g>
    </g>
   </g>
   <g id="patch_3">
    <path d="M 115.363636 256.32 
L 119.066357 256.32 
L 119.066357 255.427606 
L 115.363636 255.427606 
z
" clip-path="url(#p25711e6d73)" style="fill: #4c72b0; fill-opacity: 0.5; stroke: #ffffff; stroke-width: 0.370272; stroke-linejoin: miter"/>
   </g>
   <g id="patch_4">
    <path d="M 119.066357 256.32 
L 122.769078 256.32 
L 122.769078 250.965634 
L 119.066357 250.965634 
z
" clip-path="url(#p25711e6d73)" style="fill: #4c72b0; fill-opacity: 0.5; stroke: #ffffff; stroke-width: 0.370272; stroke-linejoin: miter"/>
   </g>
   <g id="patch_5">
    <path d="M 122.769078 256.32 
L 126.471798 256.32 
L 126.471798 244.024789 
L 122.769078 244.024789 
z
" clip-path="url(#p25711e6d73)" style="fill: #4c72b0; fill-opacity: 0.5; stroke: #ffffff; stroke-width: 0.370272; stroke-linejoin: miter"/>
   </g>
   <g id="patch_6">
    <path d="M 126.471798 256.32 
L 130.174519 256.32 
L 130.174519 225.284507 
L 126.471798 225.284507 
z
" clip-path="url(#p25711e6d73)" style="fill: #4c72b0; fill-opacity: 0.5; stroke: #ffffff; stroke-width: 0.370272; stroke-linejoin: miter"/>
   </g>
   <g id="patch_7">
    <path d="M 130.174519 256.32 
L 133.87724 256.32 
L 133.87724 217.649577 
L 130.174519 217.649577 
z
" clip-path="url(#p25711e6d73)" style="fill: #4c72b0; fill-opacity: 0.5; stroke: #ffffff; stroke-width: 0.370272; stroke-linejoin: miter"/>
   </g>
   <g id="patch_8">
    <path d="M 133.87724 256.32 
L 137.57996 256.32 
L 137.57996 175.409577 
L 133.87724 175.409577 
z
" clip-path="url(#p25711e6d73)" style="fill: #4c72b0; fill-opacity: 0.5; stroke: #ffffff; stroke-width: 0.370272; stroke-linejoin: miter"/>
   </g>
   <g id="patch_9">
    <path d="M 137.57996 256.32 
L 141.282681 256.32 
L 141.282681 147.646197 
L 137.57996 147.646197 
z
" clip-path="url(#p25711e6d73)" style="fill: #4c72b0; fill-opacity: 0.5; stroke: #ffffff; stroke-width: 0.370272; stroke-linejoin: miter"/>
   </g>
   <g id="patch_10">
    <path d="M 141.282681 256.32 
L 144.985401 256.32 
L 144.985401 116.709859 
L 141.282681 116.709859 
z
" clip-path="url(#p25711e6d73)" style="fill: #4c72b0; fill-opacity: 0.5; stroke: #ffffff; stroke-width: 0.370272; stroke-linejoin: miter"/>
   </g>
   <g id="patch_11">
    <path d="M 144.985401 256.32 
L 148.688122 256.32 
L 148.688122 123.551549 
L 144.985401 123.551549 
z
" clip-path="url(#p25711e6d73)" style="fill: #4c72b0; fill-opacity: 0.5; stroke: #ffffff; stroke-width: 0.370272; stroke-linejoin: miter"/>
   </g>
   <g id="patch_12">
    <path d="M 148.688122 256.32 
L 152.390843 256.32 
L 152.390843 72.090141 
L 148.688122 72.090141 
z
" clip-path="url(#p25711e6d73)" style="fill: #4c72b0; fill-opacity: 0.5; stroke: #ffffff; stroke-width: 0.370272; stroke-linejoin: miter"/>
   </g>
   <g id="patch_13">
    <path d="M 152.390843 256.32 
L 156.093563 256.32 
L 156.093563 45.12 
L 152.390843 45.12 
z
" clip-path="url(#p25711e6d73)" style="fill: #4c72b0; fill-opacity: 0.5; stroke: #ffffff; stroke-width: 0.370272; stroke-linejoin: miter"/>
   </g>
   <g id="patch_14">
    <path d="M 156.093563 256.32 
L 159.796284 256.32 
L 159.796284 46.607324 
L 156.093563 46.607324 
z
" clip-path="url(#p25711e6d73)" style="fill: #4c72b0; fill-opacity: 0.5; stroke: #ffffff; stroke-width: 0.370272; stroke-linejoin: miter"/>
   </g>
   <g id="patch_15">
    <path d="M 159.796284 256.32 
L 163.499005 256.32 
L 163.499005 50.276056 
L 159.796284 50.276056 
z
" clip-path="url(#p25711e6d73)" style="fill: #4c72b0; fill-opacity: 0.5; stroke: #ffffff; stroke-width: 0.370272; stroke-linejoin: miter"/>
   </g>
   <g id="patch_16">
    <path d="M 163.499005 256.32 
L 167.201725 256.32 
L 167.201725 80.419155 
L 163.499005 80.419155 
z
" clip-path="url(#p25711e6d73)" style="fill: #4c72b0; fill-opacity: 0.5; stroke: #ffffff; stroke-width: 0.370272; stroke-linejoin: miter"/>
   </g>
   <g id="patch_17">
    <path d="M 167.201725 256.32 
L 170.904446 256.32 
L 170.904446 51.56507 
L 167.201725 51.56507 
z
" clip-path="url(#p25711e6d73)" style="fill: #4c72b0; fill-opacity: 0.5; stroke: #ffffff; stroke-width: 0.370272; stroke-linejoin: miter"/>
   </g>
   <g id="patch_18">
    <path d="M 170.904446 256.32 
L 174.607167 256.32 
L 174.607167 73.08169 
L 170.904446 73.08169 
z
" clip-path="url(#p25711e6d73)" style="fill: #4c72b0; fill-opacity: 0.5; stroke: #ffffff; stroke-width: 0.370272; stroke-linejoin: miter"/>
   </g>
   <g id="patch_19">
    <path d="M 174.607167 256.32 
L 178.309887 256.32 
L 178.309887 52.655775 
L 174.607167 52.655775 
z
" clip-path="url(#p25711e6d73)" style="fill: #4c72b0; fill-opacity: 0.5; stroke: #ffffff; stroke-width: 0.370272; stroke-linejoin: miter"/>
   </g>
   <g id="patch_20">
    <path d="M 178.309887 256.32 
L 182.012608 256.32 
L 182.012608 91.524507 
L 178.309887 91.524507 
z
" clip-path="url(#p25711e6d73)" style="fill: #4c72b0; fill-opacity: 0.5; stroke: #ffffff; stroke-width: 0.370272; stroke-linejoin: miter"/>
   </g>
   <g id="patch_21">
    <path d="M 182.012608 256.32 
L 185.715328 256.32 
L 185.715328 106.794366 
L 182.012608 106.794366 
z
" clip-path="url(#p25711e6d73)" style="fill: #4c72b0; fill-opacity: 0.5; stroke: #ffffff; stroke-width: 0.370272; stroke-linejoin: miter"/>
   </g>
   <g id="patch_22">
    <path d="M 185.715328 256.32 
L 189.418049 256.32 
L 189.418049 92.416901 
L 185.715328 92.416901 
z
" clip-path="url(#p25711e6d73)" style="fill: #4c72b0; fill-opacity: 0.5; stroke: #ffffff; stroke-width: 0.370272; stroke-linejoin: miter"/>
   </g>
   <g id="patch_23">
    <path d="M 189.418049 256.32 
L 193.12077 256.32 
L 193.12077 112.347042 
L 189.418049 112.347042 
z
" clip-path="url(#p25711e6d73)" style="fill: #4c72b0; fill-opacity: 0.5; stroke: #ffffff; stroke-width: 0.370272; stroke-linejoin: miter"/>
   </g>
   <g id="patch_24">
    <path d="M 193.12077 256.32 
L 196.82349 256.32 
L 196.82349 112.545352 
L 193.12077 112.545352 
z
" clip-path="url(#p25711e6d73)" style="fill: #4c72b0; fill-opacity: 0.5; stroke: #ffffff; stroke-width: 0.370272; stroke-linejoin: miter"/>
   </g>
   <g id="patch_25">
    <path d="M 196.82349 256.32 
L 200.526211 256.32 
L 200.526211 130.988169 
L 196.82349 130.988169 
z
" clip-path="url(#p25711e6d73)" style="fill: #4c72b0; fill-opacity: 0.5; stroke: #ffffff; stroke-width: 0.370272; stroke-linejoin: miter"/>
   </g>
   <g id="patch_26">
    <path d="M 200.526211 256.32 
L 204.228932 256.32 
L 204.228932 131.880563 
L 200.526211 131.880563 
z
" clip-path="url(#p25711e6d73)" style="fill: #4c72b0; fill-opacity: 0.5; stroke: #ffffff; stroke-width: 0.370272; stroke-linejoin: miter"/>
   </g>
   <g id="patch_27">
    <path d="M 204.228932 256.32 
L 207.931652 256.32 
L 207.931652 141.696901 
L 204.228932 141.696901 
z
" clip-path="url(#p25711e6d73)" style="fill: #4c72b0; fill-opacity: 0.5; stroke: #ffffff; stroke-width: 0.370272; stroke-linejoin: miter"/>
   </g>
   <g id="patch_28">
    <path d="M 207.931652 256.32 
L 211.634373 256.32 
L 211.634373 148.935211 
L 207.931652 148.935211 
z
" clip-path="url(#p25711e6d73)" style="fill: #4c72b0; fill-opacity: 0.5; stroke: #ffffff; stroke-width: 0.370272; stroke-linejoin: miter"/>
   </g>
   <g id="patch_29">
    <path d="M 211.634373 256.32 
L 215.337094 256.32 
L 215.337094 163.610141 
L 211.634373 163.610141 
z
" clip-path="url(#p25711e6d73)" style="fill: #4c72b0; fill-opacity: 0.5; stroke: #ffffff; stroke-width: 0.370272; stroke-linejoin: miter"/>
   </g>
   <g id="patch_30">
    <path d="M 215.337094 256.32 
L 219.039814 256.32 
L 219.039814 161.428732 
L 215.337094 161.428732 
z
" clip-path="url(#p25711e6d73)" style="fill: #4c72b0; fill-opacity: 0.5; stroke: #ffffff; stroke-width: 0.370272; stroke-linejoin: miter"/>
   </g>
   <g id="patch_31">
    <path d="M 219.039814 256.32 
L 222.742535 256.32 
L 222.742535 169.856901 
L 219.039814 169.856901 
z
" clip-path="url(#p25711e6d73)" style="fill: #4c72b0; fill-opacity: 0.5; stroke: #ffffff; stroke-width: 0.370272; stroke-linejoin: miter"/>
   </g>
   <g id="patch_32">
    <path d="M 222.742535 256.32 
L 226.445255 256.32 
L 226.445255 169.460282 
L 222.742535 169.460282 
z
" clip-path="url(#p25711e6d73)" style="fill: #4c72b0; fill-opacity: 0.5; stroke: #ffffff; stroke-width: 0.370272; stroke-linejoin: miter"/>
   </g>
   <g id="patch_33">
    <path d="M 226.445255 256.32 
L 230.147976 256.32 
L 230.147976 186.415775 
L 226.445255 186.415775 
z
" clip-path="url(#p25711e6d73)" style="fill: #4c72b0; fill-opacity: 0.5; stroke: #ffffff; stroke-width: 0.370272; stroke-linejoin: miter"/>
   </g>
   <g id="patch_34">
    <path d="M 230.147976 256.32 
L 233.850697 256.32 
L 233.850697 195.438873 
L 230.147976 195.438873 
z
" clip-path="url(#p25711e6d73)" style="fill: #4c72b0; fill-opacity: 0.5; stroke: #ffffff; stroke-width: 0.370272; stroke-linejoin: miter"/>
   </g>
   <g id="patch_35">
    <path d="M 233.850697 256.32 
L 237.553417 256.32 
L 237.553417 195.637183 
L 233.850697 195.637183 
z
" clip-path="url(#p25711e6d73)" style="fill: #4c72b0; fill-opacity: 0.5; stroke: #ffffff; stroke-width: 0.370272; stroke-linejoin: miter"/>
   </g>
   <g id="patch_36">
    <path d="M 237.553417 256.32 
L 241.256138 256.32 
L 241.256138 190.183662 
L 237.553417 190.183662 
z
" clip-path="url(#p25711e6d73)" style="fill: #4c72b0; fill-opacity: 0.5; stroke: #ffffff; stroke-width: 0.370272; stroke-linejoin: miter"/>
   </g>
   <g id="patch_37">
    <path d="M 241.256138 256.32 
L 244.958859 256.32 
L 244.958859 197.917746 
L 241.256138 197.917746 
z
" clip-path="url(#p25711e6d73)" style="fill: #4c72b0; fill-opacity: 0.5; stroke: #ffffff; stroke-width: 0.370272; stroke-linejoin: miter"/>
   </g>
   <g id="patch_38">
    <path d="M 244.958859 256.32 
L 248.661579 256.32 
L 248.661579 212.493521 
L 244.958859 212.493521 
z
" clip-path="url(#p25711e6d73)" style="fill: #4c72b0; fill-opacity: 0.5; stroke: #ffffff; stroke-width: 0.370272; stroke-linejoin: miter"/>
   </g>
   <g id="patch_39">
    <path d="M 248.661579 256.32 
L 252.3643 256.32 
L 252.3643 207.43662 
L 248.661579 207.43662 
z
" clip-path="url(#p25711e6d73)" style="fill: #4c72b0; fill-opacity: 0.5; stroke: #ffffff; stroke-width: 0.370272; stroke-linejoin: miter"/>
   </g>
   <g id="patch_40">
    <path d="M 252.3643 256.32 
L 256.067021 256.32 
L 256.067021 208.923944 
L 252.3643 208.923944 
z
" clip-path="url(#p25711e6d73)" style="fill: #4c72b0; fill-opacity: 0.5; stroke: #ffffff; stroke-width: 0.370272; stroke-linejoin: miter"/>
   </g>
   <g id="patch_41">
    <path d="M 256.067021 256.32 
L 259.769741 256.32 
L 259.769741 212.790986 
L 256.067021 212.790986 
z
" clip-path="url(#p25711e6d73)" style="fill: #4c72b0; fill-opacity: 0.5; stroke: #ffffff; stroke-width: 0.370272; stroke-linejoin: miter"/>
   </g>
   <g id="patch_42">
    <path d="M 259.769741 256.32 
L 263.472462 256.32 
L 263.472462 212.394366 
L 259.769741 212.394366 
z
" clip-path="url(#p25711e6d73)" style="fill: #4c72b0; fill-opacity: 0.5; stroke: #ffffff; stroke-width: 0.370272; stroke-linejoin: miter"/>
   </g>
   <g id="patch_43">
    <path d="M 263.472462 256.32 
L 267.175182 256.32 
L 267.175182 219.830986 
L 263.472462 219.830986 
z
" clip-path="url(#p25711e6d73)" style="fill: #4c72b0; fill-opacity: 0.5; stroke: #ffffff; stroke-width: 0.370272; stroke-linejoin: miter"/>
   </g>
   <g id="patch_44">
    <path d="M 267.175182 256.32 
L 270.877903 256.32 
L 270.877903 222.706479 
L 267.175182 222.706479 
z
" clip-path="url(#p25711e6d73)" style="fill: #4c72b0; fill-opacity: 0.5; stroke: #ffffff; stroke-width: 0.370272; stroke-linejoin: miter"/>
   </g>
   <g id="patch_45">
    <path d="M 270.877903 256.32 
L 274.580624 256.32 
L 274.580624 222.210704 
L 270.877903 222.210704 
z
" clip-path="url(#p25711e6d73)" style="fill: #4c72b0; fill-opacity: 0.5; stroke: #ffffff; stroke-width: 0.370272; stroke-linejoin: miter"/>
   </g>
   <g id="patch_46">
    <path d="M 274.580624 256.32 
L 278.283344 256.32 
L 278.283344 223.896338 
L 274.580624 223.896338 
z
" clip-path="url(#p25711e6d73)" style="fill: #4c72b0; fill-opacity: 0.5; stroke: #ffffff; stroke-width: 0.370272; stroke-linejoin: miter"/>
   </g>
   <g id="patch_47">
    <path d="M 278.283344 256.32 
L 281.986065 256.32 
L 281.986065 227.862535 
L 278.283344 227.862535 
z
" clip-path="url(#p25711e6d73)" style="fill: #4c72b0; fill-opacity: 0.5; stroke: #ffffff; stroke-width: 0.370272; stroke-linejoin: miter"/>
   </g>
   <g id="patch_48">
    <path d="M 281.986065 256.32 
L 285.688786 256.32 
L 285.688786 228.953239 
L 281.986065 228.953239 
z
" clip-path="url(#p25711e6d73)" style="fill: #4c72b0; fill-opacity: 0.5; stroke: #ffffff; stroke-width: 0.370272; stroke-linejoin: miter"/>
   </g>
   <g id="patch_49">
    <path d="M 285.688786 256.32 
L 289.391506 256.32 
L 289.391506 226.970141 
L 285.688786 226.970141 
z
" clip-path="url(#p25711e6d73)" style="fill: #4c72b0; fill-opacity: 0.5; stroke: #ffffff; stroke-width: 0.370272; stroke-linejoin: miter"/>
   </g>
   <g id="patch_50">
    <path d="M 289.391506 256.32 
L 293.094227 256.32 
L 293.094227 226.672676 
L 289.391506 226.672676 
z
" clip-path="url(#p25711e6d73)" style="fill: #4c72b0; fill-opacity: 0.5; stroke: #ffffff; stroke-width: 0.370272; stroke-linejoin: miter"/>
   </g>
   <g id="patch_51">
    <path d="M 293.094227 256.32 
L 296.796948 256.32 
L 296.796948 232.919437 
L 293.094227 232.919437 
z
" clip-path="url(#p25711e6d73)" style="fill: #4c72b0; fill-opacity: 0.5; stroke: #ffffff; stroke-width: 0.370272; stroke-linejoin: miter"/>
   </g>
   <g id="patch_52">
    <path d="M 296.796948 256.32 
L 300.499668 256.32 
L 300.499668 232.027042 
L 296.796948 232.027042 
z
" clip-path="url(#p25711e6d73)" style="fill: #4c72b0; fill-opacity: 0.5; stroke: #ffffff; stroke-width: 0.370272; stroke-linejoin: miter"/>
   </g>
   <g id="patch_53">
    <path d="M 300.499668 256.32 
L 304.202389 256.32 
L 304.202389 232.919437 
L 300.499668 232.919437 
z
" clip-path="url(#p25711e6d73)" style="fill: #4c72b0; fill-opacity: 0.5; stroke: #ffffff; stroke-width: 0.370272; stroke-linejoin: miter"/>
   </g>
   <g id="patch_54">
    <path d="M 304.202389 256.32 
L 307.905109 256.32 
L 307.905109 235.497465 
L 304.202389 235.497465 
z
" clip-path="url(#p25711e6d73)" style="fill: #4c72b0; fill-opacity: 0.5; stroke: #ffffff; stroke-width: 0.370272; stroke-linejoin: miter"/>
   </g>
   <g id="patch_55">
    <path d="M 307.905109 256.32 
L 311.60783 256.32 
L 311.60783 231.332958 
L 307.905109 231.332958 
z
" clip-path="url(#p25711e6d73)" style="fill: #4c72b0; fill-opacity: 0.5; stroke: #ffffff; stroke-width: 0.370272; stroke-linejoin: miter"/>
   </g>
   <g id="patch_56">
    <path d="M 311.60783 256.32 
L 315.310551 256.32 
L 315.310551 236.786479 
L 311.60783 236.786479 
z
" clip-path="url(#p25711e6d73)" style="fill: #4c72b0; fill-opacity: 0.5; stroke: #ffffff; stroke-width: 0.370272; stroke-linejoin: miter"/>
   </g>
   <g id="patch_57">
    <path d="M 315.310551 256.32 
L 319.013271 256.32 
L 319.013271 240.851831 
L 315.310551 240.851831 
z
" clip-path="url(#p25711e6d73)" style="fill: #4c72b0; fill-opacity: 0.5; stroke: #ffffff; stroke-width: 0.370272; stroke-linejoin: miter"/>
   </g>
   <g id="patch_58">
    <path d="M 319.013271 256.32 
L 322.715992 256.32 
L 322.715992 232.721127 
L 319.013271 232.721127 
z
" clip-path="url(#p25711e6d73)" style="fill: #4c72b0; fill-opacity: 0.5; stroke: #ffffff; stroke-width: 0.370272; stroke-linejoin: miter"/>
   </g>
   <g id="patch_59">
    <path d="M 322.715992 256.32 
L 326.418713 256.32 
L 326.418713 240.554366 
L 322.715992 240.554366 
z
" clip-path="url(#p25711e6d73)" style="fill: #4c72b0; fill-opacity: 0.5; stroke: #ffffff; stroke-width: 0.370272; stroke-linejoin: miter"/>
   </g>
   <g id="patch_60">
    <path d="M 326.418713 256.32 
L 330.121433 256.32 
L 330.121433 241.050141 
L 326.418713 241.050141 
z
" clip-path="url(#p25711e6d73)" style="fill: #4c72b0; fill-opacity: 0.5; stroke: #ffffff; stroke-width: 0.370272; stroke-linejoin: miter"/>
   </g>
   <g id="patch_61">
    <path d="M 330.121433 256.32 
L 333.824154 256.32 
L 333.824154 242.140845 
L 330.121433 242.140845 
z
" clip-path="url(#p25711e6d73)" style="fill: #4c72b0; fill-opacity: 0.5; stroke: #ffffff; stroke-width: 0.370272; stroke-linejoin: miter"/>
   </g>
   <g id="patch_62">
    <path d="M 333.824154 256.32 
L 337.526875 256.32 
L 337.526875 241.050141 
L 333.824154 241.050141 
z
" clip-path="url(#p25711e6d73)" style="fill: #4c72b0; fill-opacity: 0.5; stroke: #ffffff; stroke-width: 0.370272; stroke-linejoin: miter"/>
   </g>
   <g id="patch_63">
    <path d="M 337.526875 256.32 
L 341.229595 256.32 
L 341.229595 241.64507 
L 337.526875 241.64507 
z
" clip-path="url(#p25711e6d73)" style="fill: #4c72b0; fill-opacity: 0.5; stroke: #ffffff; stroke-width: 0.370272; stroke-linejoin: miter"/>
   </g>
   <g id="patch_64">
    <path d="M 341.229595 256.32 
L 344.932316 256.32 
L 344.932316 243.231549 
L 341.229595 243.231549 
z
" clip-path="url(#p25711e6d73)" style="fill: #4c72b0; fill-opacity: 0.5; stroke: #ffffff; stroke-width: 0.370272; stroke-linejoin: miter"/>
   </g>
   <g id="patch_65">
    <path d="M 344.932316 256.32 
L 348.635036 256.32 
L 348.635036 246.107042 
L 344.932316 246.107042 
z
" clip-path="url(#p25711e6d73)" style="fill: #4c72b0; fill-opacity: 0.5; stroke: #ffffff; stroke-width: 0.370272; stroke-linejoin: miter"/>
   </g>
   <g id="patch_66">
    <path d="M 348.635036 256.32 
L 352.337757 256.32 
L 352.337757 244.024789 
L 348.635036 244.024789 
z
" clip-path="url(#p25711e6d73)" style="fill: #4c72b0; fill-opacity: 0.5; stroke: #ffffff; stroke-width: 0.370272; stroke-linejoin: miter"/>
   </g>
   <g id="patch_67">
    <path d="M 352.337757 256.32 
L 356.040478 256.32 
L 356.040478 243.429859 
L 352.337757 243.429859 
z
" clip-path="url(#p25711e6d73)" style="fill: #4c72b0; fill-opacity: 0.5; stroke: #ffffff; stroke-width: 0.370272; stroke-linejoin: miter"/>
   </g>
   <g id="patch_68">
    <path d="M 356.040478 256.32 
L 359.743198 256.32 
L 359.743198 244.322254 
L 356.040478 244.322254 
z
" clip-path="url(#p25711e6d73)" style="fill: #4c72b0; fill-opacity: 0.5; stroke: #ffffff; stroke-width: 0.370272; stroke-linejoin: miter"/>
   </g>
   <g id="patch_69">
    <path d="M 359.743198 256.32 
L 363.445919 256.32 
L 363.445919 249.775775 
L 359.743198 249.775775 
z
" clip-path="url(#p25711e6d73)" style="fill: #4c72b0; fill-opacity: 0.5; stroke: #ffffff; stroke-width: 0.370272; stroke-linejoin: miter"/>
   </g>
   <g id="patch_70">
    <path d="M 363.445919 256.32 
L 367.14864 256.32 
L 367.14864 244.421408 
L 363.445919 244.421408 
z
" clip-path="url(#p25711e6d73)" style="fill: #4c72b0; fill-opacity: 0.5; stroke: #ffffff; stroke-width: 0.370272; stroke-linejoin: miter"/>
   </g>
   <g id="patch_71">
    <path d="M 367.14864 256.32 
L 370.85136 256.32 
L 370.85136 245.214648 
L 367.14864 245.214648 
z
" clip-path="url(#p25711e6d73)" style="fill: #4c72b0; fill-opacity: 0.5; stroke: #ffffff; stroke-width: 0.370272; stroke-linejoin: miter"/>
   </g>
   <g id="patch_72">
    <path d="M 370.85136 256.32 
L 374.554081 256.32 
L 374.554081 248.68507 
L 370.85136 248.68507 
z
" clip-path="url(#p25711e6d73)" style="fill: #4c72b0; fill-opacity: 0.5; stroke: #ffffff; stroke-width: 0.370272; stroke-linejoin: miter"/>
   </g>
   <g id="patch_73">
    <path d="M 374.554081 256.32 
L 378.256802 256.32 
L 378.256802 248.585915 
L 374.554081 248.585915 
z
" clip-path="url(#p25711e6d73)" style="fill: #4c72b0; fill-opacity: 0.5; stroke: #ffffff; stroke-width: 0.370272; stroke-linejoin: miter"/>
   </g>
   <g id="patch_74">
    <path d="M 378.256802 256.32 
L 381.959522 256.32 
L 381.959522 247.693521 
L 378.256802 247.693521 
z
" clip-path="url(#p25711e6d73)" style="fill: #4c72b0; fill-opacity: 0.5; stroke: #ffffff; stroke-width: 0.370272; stroke-linejoin: miter"/>
   </g>
   <g id="patch_75">
    <path d="M 381.959522 256.32 
L 385.662243 256.32 
L 385.662243 248.982535 
L 381.959522 248.982535 
z
" clip-path="url(#p25711e6d73)" style="fill: #4c72b0; fill-opacity: 0.5; stroke: #ffffff; stroke-width: 0.370272; stroke-linejoin: miter"/>
   </g>
   <g id="patch_76">
    <path d="M 385.662243 256.32 
L 389.364964 256.32 
L 389.364964 245.611268 
L 385.662243 245.611268 
z
" clip-path="url(#p25711e6d73)" style="fill: #4c72b0; fill-opacity: 0.5; stroke: #ffffff; stroke-width: 0.370272; stroke-linejoin: miter"/>
   </g>
   <g id="patch_77">
    <path d="M 389.364964 256.32 
L 393.067684 256.32 
L 393.067684 247.296901 
L 389.364964 247.296901 
z
" clip-path="url(#p25711e6d73)" style="fill: #4c72b0; fill-opacity: 0.5; stroke: #ffffff; stroke-width: 0.370272; stroke-linejoin: miter"/>
   </g>
   <g id="patch_78">
    <path d="M 393.067684 256.32 
L 396.770405 256.32 
L 396.770405 249.08169 
L 393.067684 249.08169 
z
" clip-path="url(#p25711e6d73)" style="fill: #4c72b0; fill-opacity: 0.5; stroke: #ffffff; stroke-width: 0.370272; stroke-linejoin: miter"/>
   </g>
   <g id="patch_79">
    <path d="M 396.770405 256.32 
L 400.473125 256.32 
L 400.473125 249.28 
L 396.770405 249.28 
z
" clip-path="url(#p25711e6d73)" style="fill: #4c72b0; fill-opacity: 0.5; stroke: #ffffff; stroke-width: 0.370272; stroke-linejoin: miter"/>
   </g>
   <g id="patch_80">
    <path d="M 400.473125 256.32 
L 404.175846 256.32 
L 404.175846 252.750423 
L 400.473125 252.750423 
z
" clip-path="url(#p25711e6d73)" style="fill: #4c72b0; fill-opacity: 0.5; stroke: #ffffff; stroke-width: 0.370272; stroke-linejoin: miter"/>
   </g>
   <g id="patch_81">
    <path d="M 404.175846 256.32 
L 407.878567 256.32 
L 407.878567 247.990986 
L 404.175846 247.990986 
z
" clip-path="url(#p25711e6d73)" style="fill: #4c72b0; fill-opacity: 0.5; stroke: #ffffff; stroke-width: 0.370272; stroke-linejoin: miter"/>
   </g>
   <g id="patch_82">
    <path d="M 407.878567 256.32 
L 411.581287 256.32 
L 411.581287 250.668169 
L 407.878567 250.668169 
z
" clip-path="url(#p25711e6d73)" style="fill: #4c72b0; fill-opacity: 0.5; stroke: #ffffff; stroke-width: 0.370272; stroke-linejoin: miter"/>
   </g>
   <g id="patch_83">
    <path d="M 411.581287 256.32 
L 415.284008 256.32 
L 415.284008 252.155493 
L 411.581287 252.155493 
z
" clip-path="url(#p25711e6d73)" style="fill: #4c72b0; fill-opacity: 0.5; stroke: #ffffff; stroke-width: 0.370272; stroke-linejoin: miter"/>
   </g>
   <g id="patch_84">
    <path d="M 415.284008 256.32 
L 418.986729 256.32 
L 418.986729 249.180845 
L 415.284008 249.180845 
z
" clip-path="url(#p25711e6d73)" style="fill: #4c72b0; fill-opacity: 0.5; stroke: #ffffff; stroke-width: 0.370272; stroke-linejoin: miter"/>
   </g>
   <g id="patch_85">
    <path d="M 418.986729 256.32 
L 422.689449 256.32 
L 422.689449 249.577465 
L 418.986729 249.577465 
z
" clip-path="url(#p25711e6d73)" style="fill: #4c72b0; fill-opacity: 0.5; stroke: #ffffff; stroke-width: 0.370272; stroke-linejoin: miter"/>
   </g>
   <g id="patch_86">
    <path d="M 422.689449 256.32 
L 426.39217 256.32 
L 426.39217 250.965634 
L 422.689449 250.965634 
z
" clip-path="url(#p25711e6d73)" style="fill: #4c72b0; fill-opacity: 0.5; stroke: #ffffff; stroke-width: 0.370272; stroke-linejoin: miter"/>
   </g>
   <g id="patch_87">
    <path d="M 426.39217 256.32 
L 430.094891 256.32 
L 430.094891 251.163944 
L 426.39217 251.163944 
z
" clip-path="url(#p25711e6d73)" style="fill: #4c72b0; fill-opacity: 0.5; stroke: #ffffff; stroke-width: 0.370272; stroke-linejoin: miter"/>
   </g>
   <g id="patch_88">
    <path d="M 430.094891 256.32 
L 433.797611 256.32 
L 433.797611 249.87493 
L 430.094891 249.87493 
z
" clip-path="url(#p25711e6d73)" style="fill: #4c72b0; fill-opacity: 0.5; stroke: #ffffff; stroke-width: 0.370272; stroke-linejoin: miter"/>
   </g>
   <g id="patch_89">
    <path d="M 433.797611 256.32 
L 437.500332 256.32 
L 437.500332 251.858028 
L 433.797611 251.858028 
z
" clip-path="url(#p25711e6d73)" style="fill: #4c72b0; fill-opacity: 0.5; stroke: #ffffff; stroke-width: 0.370272; stroke-linejoin: miter"/>
   </g>
   <g id="patch_90">
    <path d="M 437.500332 256.32 
L 441.203052 256.32 
L 441.203052 251.758873 
L 437.500332 251.758873 
z
" clip-path="url(#p25711e6d73)" style="fill: #4c72b0; fill-opacity: 0.5; stroke: #ffffff; stroke-width: 0.370272; stroke-linejoin: miter"/>
   </g>
   <g id="patch_91">
    <path d="M 441.203052 256.32 
L 444.905773 256.32 
L 444.905773 253.444507 
L 441.203052 253.444507 
z
" clip-path="url(#p25711e6d73)" style="fill: #4c72b0; fill-opacity: 0.5; stroke: #ffffff; stroke-width: 0.370272; stroke-linejoin: miter"/>
   </g>
   <g id="patch_92">
    <path d="M 444.905773 256.32 
L 448.608494 256.32 
L 448.608494 253.047887 
L 444.905773 253.047887 
z
" clip-path="url(#p25711e6d73)" style="fill: #4c72b0; fill-opacity: 0.5; stroke: #ffffff; stroke-width: 0.370272; stroke-linejoin: miter"/>
   </g>
   <g id="patch_93">
    <path d="M 448.608494 256.32 
L 452.311214 256.32 
L 452.311214 252.651268 
L 448.608494 252.651268 
z
" clip-path="url(#p25711e6d73)" style="fill: #4c72b0; fill-opacity: 0.5; stroke: #ffffff; stroke-width: 0.370272; stroke-linejoin: miter"/>
   </g>
   <g id="patch_94">
    <path d="M 452.311214 256.32 
L 456.013935 256.32 
L 456.013935 253.642817 
L 452.311214 253.642817 
z
" clip-path="url(#p25711e6d73)" style="fill: #4c72b0; fill-opacity: 0.5; stroke: #ffffff; stroke-width: 0.370272; stroke-linejoin: miter"/>
   </g>
   <g id="patch_95">
    <path d="M 456.013935 256.32 
L 459.716656 256.32 
L 459.716656 253.047887 
L 456.013935 253.047887 
z
" clip-path="url(#p25711e6d73)" style="fill: #4c72b0; fill-opacity: 0.5; stroke: #ffffff; stroke-width: 0.370272; stroke-linejoin: miter"/>
   </g>
   <g id="patch_96">
    <path d="M 459.716656 256.32 
L 463.419376 256.32 
L 463.419376 252.056338 
L 459.716656 252.056338 
z
" clip-path="url(#p25711e6d73)" style="fill: #4c72b0; fill-opacity: 0.5; stroke: #ffffff; stroke-width: 0.370272; stroke-linejoin: miter"/>
   </g>
   <g id="patch_97">
    <path d="M 463.419376 256.32 
L 467.122097 256.32 
L 467.122097 252.155493 
L 463.419376 252.155493 
z
" clip-path="url(#p25711e6d73)" style="fill: #4c72b0; fill-opacity: 0.5; stroke: #ffffff; stroke-width: 0.370272; stroke-linejoin: miter"/>
   </g>
   <g id="patch_98">
    <path d="M 467.122097 256.32 
L 470.824818 256.32 
L 470.824818 253.841127 
L 467.122097 253.841127 
z
" clip-path="url(#p25711e6d73)" style="fill: #4c72b0; fill-opacity: 0.5; stroke: #ffffff; stroke-width: 0.370272; stroke-linejoin: miter"/>
   </g>
   <g id="patch_99">
    <path d="M 470.824818 256.32 
L 474.527538 256.32 
L 474.527538 252.948732 
L 470.824818 252.948732 
z
" clip-path="url(#p25711e6d73)" style="fill: #4c72b0; fill-opacity: 0.5; stroke: #ffffff; stroke-width: 0.370272; stroke-linejoin: miter"/>
   </g>
   <g id="patch_100">
    <path d="M 474.527538 256.32 
L 478.230259 256.32 
L 478.230259 253.147042 
L 474.527538 253.147042 
z
" clip-path="url(#p25711e6d73)" style="fill: #4c72b0; fill-opacity: 0.5; stroke: #ffffff; stroke-width: 0.370272; stroke-linejoin: miter"/>
   </g>
   <g id="patch_101">
    <path d="M 478.230259 256.32 
L 481.932979 256.32 
L 481.932979 252.353803 
L 478.230259 252.353803 
z
" clip-path="url(#p25711e6d73)" style="fill: #4c72b0; fill-opacity: 0.5; stroke: #ffffff; stroke-width: 0.370272; stroke-linejoin: miter"/>
   </g>
   <g id="patch_102">
    <path d="M 481.932979 256.32 
L 485.6357 256.32 
L 485.6357 254.138592 
L 481.932979 254.138592 
z
" clip-path="url(#p25711e6d73)" style="fill: #4c72b0; fill-opacity: 0.5; stroke: #ffffff; stroke-width: 0.370272; stroke-linejoin: miter"/>
   </g>
   <g id="patch_103">
    <path d="M 485.6357 256.32 
L 489.338421 256.32 
L 489.338421 252.452958 
L 485.6357 252.452958 
z
" clip-path="url(#p25711e6d73)" style="fill: #4c72b0; fill-opacity: 0.5; stroke: #ffffff; stroke-width: 0.370272; stroke-linejoin: miter"/>
   </g>
   <g id="patch_104">
    <path d="M 489.338421 256.32 
L 493.041141 256.32 
L 493.041141 254.832676 
L 489.338421 254.832676 
z
" clip-path="url(#p25711e6d73)" style="fill: #4c72b0; fill-opacity: 0.5; stroke: #ffffff; stroke-width: 0.370272; stroke-linejoin: miter"/>
   </g>
   <g id="patch_105">
    <path d="M 493.041141 256.32 
L 496.743862 256.32 
L 496.743862 252.254648 
L 493.041141 252.254648 
z
" clip-path="url(#p25711e6d73)" style="fill: #4c72b0; fill-opacity: 0.5; stroke: #ffffff; stroke-width: 0.370272; stroke-linejoin: miter"/>
   </g>
   <g id="patch_106">
    <path d="M 496.743862 256.32 
L 500.446583 256.32 
L 500.446583 253.741972 
L 496.743862 253.741972 
z
" clip-path="url(#p25711e6d73)" style="fill: #4c72b0; fill-opacity: 0.5; stroke: #ffffff; stroke-width: 0.370272; stroke-linejoin: miter"/>
   </g>
   <g id="patch_107">
    <path d="M 500.446583 256.32 
L 504.149303 256.32 
L 504.149303 253.642817 
L 500.446583 253.642817 
z
" clip-path="url(#p25711e6d73)" style="fill: #4c72b0; fill-opacity: 0.5; stroke: #ffffff; stroke-width: 0.370272; stroke-linejoin: miter"/>
   </g>
   <g id="patch_108">
    <path d="M 504.149303 256.32 
L 507.852024 256.32 
L 507.852024 253.642817 
L 504.149303 253.642817 
z
" clip-path="url(#p25711e6d73)" style="fill: #4c72b0; fill-opacity: 0.5; stroke: #ffffff; stroke-width: 0.370272; stroke-linejoin: miter"/>
   </g>
   <g id="patch_109">
    <path d="M 507.852024 256.32 
L 511.554745 256.32 
L 511.554745 254.336901 
L 507.852024 254.336901 
z
" clip-path="url(#p25711e6d73)" style="fill: #4c72b0; fill-opacity: 0.5; stroke: #ffffff; stroke-width: 0.370272; stroke-linejoin: miter"/>
   </g>
   <g id="patch_110">
    <path d="M 511.554745 256.32 
L 515.257465 256.32 
L 515.257465 254.138592 
L 511.554745 254.138592 
z
" clip-path="url(#p25711e6d73)" style="fill: #4c72b0; fill-opacity: 0.5; stroke: #ffffff; stroke-width: 0.370272; stroke-linejoin: miter"/>
   </g>
   <g id="patch_111">
    <path d="M 515.257465 256.32 
L 518.960186 256.32 
L 518.960186 254.138592 
L 515.257465 254.138592 
z
" clip-path="url(#p25711e6d73)" style="fill: #4c72b0; fill-opacity: 0.5; stroke: #ffffff; stroke-width: 0.370272; stroke-linejoin: miter"/>
   </g>
   <g id="patch_112">
    <path d="M 518.960186 256.32 
L 522.662906 256.32 
L 522.662906 254.733521 
L 518.960186 254.733521 
z
" clip-path="url(#p25711e6d73)" style="fill: #4c72b0; fill-opacity: 0.5; stroke: #ffffff; stroke-width: 0.370272; stroke-linejoin: miter"/>
   </g>
   <g id="patch_113">
    <path d="M 522.662906 256.32 
L 526.365627 256.32 
L 526.365627 255.328451 
L 522.662906 255.328451 
z
" clip-path="url(#p25711e6d73)" style="fill: #4c72b0; fill-opacity: 0.5; stroke: #ffffff; stroke-width: 0.370272; stroke-linejoin: miter"/>
   </g>
   <g id="patch_114">
    <path d="M 526.365627 256.32 
L 530.068348 256.32 
L 530.068348 254.336901 
L 526.365627 254.336901 
z
" clip-path="url(#p25711e6d73)" style="fill: #4c72b0; fill-opacity: 0.5; stroke: #ffffff; stroke-width: 0.370272; stroke-linejoin: miter"/>
   </g>
   <g id="patch_115">
    <path d="M 530.068348 256.32 
L 533.771068 256.32 
L 533.771068 252.948732 
L 530.068348 252.948732 
z
" clip-path="url(#p25711e6d73)" style="fill: #4c72b0; fill-opacity: 0.5; stroke: #ffffff; stroke-width: 0.370272; stroke-linejoin: miter"/>
   </g>
   <g id="patch_116">
    <path d="M 533.771068 256.32 
L 537.473789 256.32 
L 537.473789 254.832676 
L 533.771068 254.832676 
z
" clip-path="url(#p25711e6d73)" style="fill: #4c72b0; fill-opacity: 0.5; stroke: #ffffff; stroke-width: 0.370272; stroke-linejoin: miter"/>
   </g>
   <g id="patch_117">
    <path d="M 537.473789 256.32 
L 541.17651 256.32 
L 541.17651 255.229296 
L 537.473789 255.229296 
z
" clip-path="url(#p25711e6d73)" style="fill: #4c72b0; fill-opacity: 0.5; stroke: #ffffff; stroke-width: 0.370272; stroke-linejoin: miter"/>
   </g>
   <g id="patch_118">
    <path d="M 541.17651 256.32 
L 544.87923 256.32 
L 544.87923 255.030986 
L 541.17651 255.030986 
z
" clip-path="url(#p25711e6d73)" style="fill: #4c72b0; fill-opacity: 0.5; stroke: #ffffff; stroke-width: 0.370272; stroke-linejoin: miter"/>
   </g>
   <g id="patch_119">
    <path d="M 544.87923 256.32 
L 548.581951 256.32 
L 548.581951 255.526761 
L 544.87923 255.526761 
z
" clip-path="url(#p25711e6d73)" style="fill: #4c72b0; fill-opacity: 0.5; stroke: #ffffff; stroke-width: 0.370272; stroke-linejoin: miter"/>
   </g>
   <g id="patch_120">
    <path d="M 548.581951 256.32 
L 552.284672 256.32 
L 552.284672 255.625915 
L 548.581951 255.625915 
z
" clip-path="url(#p25711e6d73)" style="fill: #4c72b0; fill-opacity: 0.5; stroke: #ffffff; stroke-width: 0.370272; stroke-linejoin: miter"/>
   </g>
   <g id="patch_121">
    <path d="M 552.284672 256.32 
L 555.987392 256.32 
L 555.987392 255.229296 
L 552.284672 255.229296 
z
" clip-path="url(#p25711e6d73)" style="fill: #4c72b0; fill-opacity: 0.5; stroke: #ffffff; stroke-width: 0.370272; stroke-linejoin: miter"/>
   </g>
   <g id="patch_122">
    <path d="M 555.987392 256.32 
L 559.690113 256.32 
L 559.690113 255.427606 
L 555.987392 255.427606 
z
" clip-path="url(#p25711e6d73)" style="fill: #4c72b0; fill-opacity: 0.5; stroke: #ffffff; stroke-width: 0.370272; stroke-linejoin: miter"/>
   </g>
   <g id="patch_123">
    <path d="M 559.690113 256.32 
L 563.392833 256.32 
L 563.392833 254.832676 
L 559.690113 254.832676 
z
" clip-path="url(#p25711e6d73)" style="fill: #4c72b0; fill-opacity: 0.5; stroke: #ffffff; stroke-width: 0.370272; stroke-linejoin: miter"/>
   </g>
   <g id="patch_124">
    <path d="M 563.392833 256.32 
L 567.095554 256.32 
L 567.095554 254.931831 
L 563.392833 254.931831 
z
" clip-path="url(#p25711e6d73)" style="fill: #4c72b0; fill-opacity: 0.5; stroke: #ffffff; stroke-width: 0.370272; stroke-linejoin: miter"/>
   </g>
   <g id="patch_125">
    <path d="M 567.095554 256.32 
L 570.798275 256.32 
L 570.798275 255.328451 
L 567.095554 255.328451 
z
" clip-path="url(#p25711e6d73)" style="fill: #4c72b0; fill-opacity: 0.5; stroke: #ffffff; stroke-width: 0.370272; stroke-linejoin: miter"/>
   </g>
   <g id="patch_126">
    <path d="M 570.798275 256.32 
L 574.500995 256.32 
L 574.500995 255.92338 
L 570.798275 255.92338 
z
" clip-path="url(#p25711e6d73)" style="fill: #4c72b0; fill-opacity: 0.5; stroke: #ffffff; stroke-width: 0.370272; stroke-linejoin: miter"/>
   </g>
   <g id="patch_127">
    <path d="M 574.500995 256.32 
L 578.203716 256.32 
L 578.203716 254.535211 
L 574.500995 254.535211 
z
" clip-path="url(#p25711e6d73)" style="fill: #4c72b0; fill-opacity: 0.5; stroke: #ffffff; stroke-width: 0.370272; stroke-linejoin: miter"/>
   </g>
   <g id="patch_128">
    <path d="M 578.203716 256.32 
L 581.906437 256.32 
L 581.906437 254.535211 
L 578.203716 254.535211 
z
" clip-path="url(#p25711e6d73)" style="fill: #4c72b0; fill-opacity: 0.5; stroke: #ffffff; stroke-width: 0.370272; stroke-linejoin: miter"/>
   </g>
   <g id="patch_129">
    <path d="M 581.906437 256.32 
L 585.609157 256.32 
L 585.609157 254.436056 
L 581.906437 254.436056 
z
" clip-path="url(#p25711e6d73)" style="fill: #4c72b0; fill-opacity: 0.5; stroke: #ffffff; stroke-width: 0.370272; stroke-linejoin: miter"/>
   </g>
   <g id="patch_130">
    <path d="M 585.609157 256.32 
L 589.311878 256.32 
L 589.311878 254.634366 
L 585.609157 254.634366 
z
" clip-path="url(#p25711e6d73)" style="fill: #4c72b0; fill-opacity: 0.5; stroke: #ffffff; stroke-width: 0.370272; stroke-linejoin: miter"/>
   </g>
   <g id="patch_131">
    <path d="M 589.311878 256.32 
L 593.014599 256.32 
L 593.014599 255.427606 
L 589.311878 255.427606 
z
" clip-path="url(#p25711e6d73)" style="fill: #4c72b0; fill-opacity: 0.5; stroke: #ffffff; stroke-width: 0.370272; stroke-linejoin: miter"/>
   </g>
   <g id="patch_132">
    <path d="M 593.014599 256.32 
L 596.717319 256.32 
L 596.717319 255.328451 
L 593.014599 255.328451 
z
" clip-path="url(#p25711e6d73)" style="fill: #4c72b0; fill-opacity: 0.5; stroke: #ffffff; stroke-width: 0.370272; stroke-linejoin: miter"/>
   </g>
   <g id="patch_133">
    <path d="M 596.717319 256.32 
L 600.42004 256.32 
L 600.42004 256.220845 
L 596.717319 256.220845 
z
" clip-path="url(#p25711e6d73)" style="fill: #4c72b0; fill-opacity: 0.5; stroke: #ffffff; stroke-width: 0.370272; stroke-linejoin: miter"/>
   </g>
   <g id="patch_134">
    <path d="M 600.42004 256.32 
L 604.12276 256.32 
L 604.12276 255.427606 
L 600.42004 255.427606 
z
" clip-path="url(#p25711e6d73)" style="fill: #4c72b0; fill-opacity: 0.5; stroke: #ffffff; stroke-width: 0.370272; stroke-linejoin: miter"/>
   </g>
   <g id="patch_135">
    <path d="M 604.12276 256.32 
L 607.825481 256.32 
L 607.825481 256.022535 
L 604.12276 256.022535 
z
" clip-path="url(#p25711e6d73)" style="fill: #4c72b0; fill-opacity: 0.5; stroke: #ffffff; stroke-width: 0.370272; stroke-linejoin: miter"/>
   </g>
   <g id="patch_136">
    <path d="M 607.825481 256.32 
L 611.528202 256.32 
L 611.528202 255.328451 
L 607.825481 255.328451 
z
" clip-path="url(#p25711e6d73)" style="fill: #4c72b0; fill-opacity: 0.5; stroke: #ffffff; stroke-width: 0.370272; stroke-linejoin: miter"/>
   </g>
   <g id="patch_137">
    <path d="M 611.528202 256.32 
L 615.230922 256.32 
L 615.230922 255.328451 
L 611.528202 255.328451 
z
" clip-path="url(#p25711e6d73)" style="fill: #4c72b0; fill-opacity: 0.5; stroke: #ffffff; stroke-width: 0.370272; stroke-linejoin: miter"/>
   </g>
   <g id="patch_138">
    <path d="M 615.230922 256.32 
L 618.933643 256.32 
L 618.933643 255.427606 
L 615.230922 255.427606 
z
" clip-path="url(#p25711e6d73)" style="fill: #4c72b0; fill-opacity: 0.5; stroke: #ffffff; stroke-width: 0.370272; stroke-linejoin: miter"/>
   </g>
   <g id="patch_139">
    <path d="M 618.933643 256.32 
L 622.636364 256.32 
L 622.636364 255.328451 
L 618.933643 255.328451 
z
" clip-path="url(#p25711e6d73)" style="fill: #4c72b0; fill-opacity: 0.5; stroke: #ffffff; stroke-width: 0.370272; stroke-linejoin: miter"/>
   </g>
   <g id="line2d_16">
    <path d="M 115.363636 250.686853 
L 117.912746 247.273862 
L 120.461855 242.431775 
L 123.010964 235.884052 
L 125.560073 227.432645 
L 128.109182 217.00609 
L 130.658291 204.692173 
L 133.207401 190.743802 
L 135.75651 175.554983 
L 143.403837 127.645014 
L 145.952947 112.704239 
L 148.502056 99.159003 
L 151.051165 87.470767 
L 153.600274 77.984737 
L 156.149383 70.866397 
L 158.698492 66.072184 
L 161.247602 63.382084 
L 163.796711 62.48614 
L 166.34582 63.082621 
L 168.894929 64.939576 
L 171.444038 67.897617 
L 173.993148 71.828877 
L 176.542257 76.588313 
L 179.091366 81.988012 
L 184.189584 93.802535 
L 189.287803 105.599253 
L 194.386021 116.611026 
L 209.680676 148.416276 
L 214.778894 158.232143 
L 222.426222 172.151681 
L 227.52444 180.945249 
L 230.07355 184.983501 
L 232.622659 188.684026 
L 235.171768 192.02563 
L 237.720877 195.033851 
L 240.269986 197.763129 
L 242.819095 200.272667 
L 247.917314 204.798824 
L 253.015532 208.819018 
L 263.211969 216.242224 
L 268.310187 219.834089 
L 270.859296 221.466066 
L 273.408406 222.921832 
L 275.957515 224.182877 
L 278.506624 225.262458 
L 283.604842 227.03723 
L 303.997716 233.331719 
L 319.292371 237.431479 
L 326.939698 239.64433 
L 332.037917 240.92098 
L 339.685244 242.59515 
L 344.783463 243.601974 
L 349.881681 244.42827 
L 357.529009 245.377437 
L 375.372773 247.397801 
L 380.470991 247.704721 
L 388.118319 248.062154 
L 393.216537 248.550466 
L 403.412974 249.804635 
L 408.511192 250.171447 
L 416.15852 250.393218 
L 423.805847 250.621697 
L 428.904066 250.954964 
L 436.551393 251.726968 
L 444.198721 252.471985 
L 449.296939 252.74601 
L 456.944267 252.834817 
L 467.140704 252.913406 
L 505.377341 253.825345 
L 518.122887 254.360781 
L 528.319324 254.452846 
L 535.966651 254.660885 
L 548.712197 255.236739 
L 556.359525 255.247699 
L 586.948835 255.01114 
L 602.24349 255.571008 
L 622.636364 255.861088 
L 622.636364 255.861088 
" clip-path="url(#p25711e6d73)" style="fill: none; stroke: #4c72b0; stroke-width: 1.5; stroke-linecap: round"/>
   </g>
   <g id="patch_140">
    <path d="M 90 256.32 
L 90 34.56 
" style="fill: none; stroke: #cccccc; stroke-width: 1.25; stroke-linejoin: miter; stroke-linecap: square"/>
   </g>
   <g id="patch_141">
    <path d="M 648 256.32 
L 648 34.56 
" style="fill: none; stroke: #cccccc; stroke-width: 1.25; stroke-linejoin: miter; stroke-linecap: square"/>
   </g>
   <g id="patch_142">
    <path d="M 90 256.32 
L 648 256.32 
" style="fill: none; stroke: #cccccc; stroke-width: 1.25; stroke-linejoin: miter; stroke-linecap: square"/>
   </g>
   <g id="patch_143">
    <path d="M 90 34.56 
L 648 34.56 
" style="fill: none; stroke: #cccccc; stroke-width: 1.25; stroke-linejoin: miter; stroke-linecap: square"/>
   </g>
   <g id="text_18">
    <!-- Histogramm von realSum_Normalized -->
    <g style="fill: #262626" transform="translate(255.342188 28.56) scale(0.12 -0.12)">
     <defs>
      <path id="DejaVuSans-73" d="M 2834 3397 
L 2834 2853 
Q 2591 2978 2328 3040 
Q 2066 3103 1784 3103 
Q 1356 3103 1142 2972 
Q 928 2841 928 2578 
Q 928 2378 1081 2264 
Q 1234 2150 1697 2047 
L 1894 2003 
Q 2506 1872 2764 1633 
Q 3022 1394 3022 966 
Q 3022 478 2636 193 
Q 2250 -91 1575 -91 
Q 1294 -91 989 -36 
Q 684 19 347 128 
L 347 722 
Q 666 556 975 473 
Q 1284 391 1588 391 
Q 1994 391 2212 530 
Q 2431 669 2431 922 
Q 2431 1156 2273 1281 
Q 2116 1406 1581 1522 
L 1381 1569 
Q 847 1681 609 1914 
Q 372 2147 372 2553 
Q 372 3047 722 3315 
Q 1072 3584 1716 3584 
Q 2034 3584 2315 3537 
Q 2597 3491 2834 3397 
z
" transform="scale(0.015625)"/>
      <path id="DejaVuSans-20" transform="scale(0.015625)"/>
      <path id="DejaVuSans-76" d="M 191 3500 
L 800 3500 
L 1894 563 
L 2988 3500 
L 3597 3500 
L 2284 0 
L 1503 0 
L 191 3500 
z
" transform="scale(0.015625)"/>
      <path id="DejaVuSans-6e" d="M 3513 2113 
L 3513 0 
L 2938 0 
L 2938 2094 
Q 2938 2591 2744 2837 
Q 2550 3084 2163 3084 
Q 1697 3084 1428 2787 
Q 1159 2491 1159 1978 
L 1159 0 
L 581 0 
L 581 3500 
L 1159 3500 
L 1159 2956 
Q 1366 3272 1645 3428 
Q 1925 3584 2291 3584 
Q 2894 3584 3203 3211 
Q 3513 2838 3513 2113 
z
" transform="scale(0.015625)"/>
     </defs>
     <use xlink:href="#DejaVuSans-48"/>
     <use xlink:href="#DejaVuSans-69" x="75.195312"/>
     <use xlink:href="#DejaVuSans-73" x="102.978516"/>
     <use xlink:href="#DejaVuSans-74" x="155.078125"/>
     <use xlink:href="#DejaVuSans-6f" x="194.287109"/>
     <use xlink:href="#DejaVuSans-67" x="255.46875"/>
     <use xlink:href="#DejaVuSans-72" x="318.945312"/>
     <use xlink:href="#DejaVuSans-61" x="360.058594"/>
     <use xlink:href="#DejaVuSans-6d" x="421.337891"/>
     <use xlink:href="#DejaVuSans-6d" x="518.75"/>
     <use xlink:href="#DejaVuSans-20" x="616.162109"/>
     <use xlink:href="#DejaVuSans-76" x="647.949219"/>
     <use xlink:href="#DejaVuSans-6f" x="707.128906"/>
     <use xlink:href="#DejaVuSans-6e" x="768.310547"/>
     <use xlink:href="#DejaVuSans-20" x="831.689453"/>
     <use xlink:href="#DejaVuSans-72" x="863.476562"/>
     <use xlink:href="#DejaVuSans-65" x="902.339844"/>
     <use xlink:href="#DejaVuSans-61" x="963.863281"/>
     <use xlink:href="#DejaVuSans-6c" x="1025.142578"/>
     <use xlink:href="#DejaVuSans-53" x="1052.925781"/>
     <use xlink:href="#DejaVuSans-75" x="1116.402344"/>
     <use xlink:href="#DejaVuSans-6d" x="1179.78125"/>
     <use xlink:href="#DejaVuSans-5f" x="1277.193359"/>
     <use xlink:href="#DejaVuSans-4e" x="1327.193359"/>
     <use xlink:href="#DejaVuSans-6f" x="1401.998047"/>
     <use xlink:href="#DejaVuSans-72" x="1463.179688"/>
     <use xlink:href="#DejaVuSans-6d" x="1502.542969"/>
     <use xlink:href="#DejaVuSans-61" x="1599.955078"/>
     <use xlink:href="#DejaVuSans-6c" x="1661.234375"/>
     <use xlink:href="#DejaVuSans-69" x="1689.017578"/>
     <use xlink:href="#DejaVuSans-7a" x="1716.800781"/>
     <use xlink:href="#DejaVuSans-65" x="1769.291016"/>
     <use xlink:href="#DejaVuSans-64" x="1830.814453"/>
    </g>
   </g>
  </g>
 </g>
 <defs>
  <clipPath id="p25711e6d73">
   <rect x="90" y="34.56" width="558" height="221.76"/>
  </clipPath>
 </defs>
</svg>
