<?xml version="1.0" encoding="utf-8" standalone="no"?>
<!DOCTYPE svg PUBLIC "-//W3C//DTD SVG 1.1//EN"
  "http://www.w3.org/Graphics/SVG/1.1/DTD/svg11.dtd">
<svg xmlns:xlink="http://www.w3.org/1999/xlink" width="460.8pt" height="345.6pt" viewBox="0 0 460.8 345.6" xmlns="http://www.w3.org/2000/svg" version="1.1">
 <metadata>
  <rdf:RDF xmlns:dc="http://purl.org/dc/elements/1.1/" xmlns:cc="http://creativecommons.org/ns#" xmlns:rdf="http://www.w3.org/1999/02/22-rdf-syntax-ns#">
   <cc:Work>
    <dc:type rdf:resource="http://purl.org/dc/dcmitype/StillImage"/>
    <dc:date>2024-01-20T11:54:08.392906</dc:date>
    <dc:format>image/svg+xml</dc:format>
    <dc:creator>
     <cc:Agent>
      <dc:title>Matplotlib v3.8.0, https://matplotlib.org/</dc:title>
     </cc:Agent>
    </dc:creator>
   </cc:Work>
  </rdf:RDF>
 </metadata>
 <defs>
  <style type="text/css">*{stroke-linejoin: round; stroke-linecap: butt}</style>
 </defs>
 <g id="figure_1">
  <g id="patch_1">
   <path d="M 0 345.6 
L 460.8 345.6 
L 460.8 0 
L 0 0 
z
" style="fill: #ffffff"/>
  </g>
  <g id="axes_1">
   <g id="patch_2">
    <path d="M 57.26 293.132586 
L 450 293.132586 
L 450 26.16 
L 57.26 26.16 
z
" style="fill: #ffffff"/>
   </g>
   <g id="patch_3">
    <path d="M 75.111818 293.132586 
L 77.212032 293.132586 
L 77.212032 271.965538 
L 75.111818 271.965538 
z
" clip-path="url(#p6f183487be)" style="fill: #1f77b4; opacity: 0.5"/>
   </g>
   <g id="patch_4">
    <path d="M 77.212032 293.132586 
L 79.312246 293.132586 
L 79.312246 211.014639 
L 77.212032 211.014639 
z
" clip-path="url(#p6f183487be)" style="fill: #1f77b4; opacity: 0.5"/>
   </g>
   <g id="patch_5">
    <path d="M 79.312246 293.132586 
L 81.41246 293.132586 
L 81.41246 156.311845 
L 79.312246 156.311845 
z
" clip-path="url(#p6f183487be)" style="fill: #1f77b4; opacity: 0.5"/>
   </g>
   <g id="patch_6">
    <path d="M 81.41246 293.132586 
L 83.512674 293.132586 
L 83.512674 145.728321 
L 81.41246 145.728321 
z
" clip-path="url(#p6f183487be)" style="fill: #1f77b4; opacity: 0.5"/>
   </g>
   <g id="patch_7">
    <path d="M 83.512674 293.132586 
L 85.612888 293.132586 
L 85.612888 46.906258 
L 83.512674 46.906258 
z
" clip-path="url(#p6f183487be)" style="fill: #1f77b4; opacity: 0.5"/>
   </g>
   <g id="patch_8">
    <path d="M 85.612888 293.132586 
L 87.713102 293.132586 
L 87.713102 38.87298 
L 85.612888 38.87298 
z
" clip-path="url(#p6f183487be)" style="fill: #1f77b4; opacity: 0.5"/>
   </g>
   <g id="patch_9">
    <path d="M 87.713102 293.132586 
L 89.813316 293.132586 
L 89.813316 43.080888 
L 87.713102 43.080888 
z
" clip-path="url(#p6f183487be)" style="fill: #1f77b4; opacity: 0.5"/>
   </g>
   <g id="patch_10">
    <path d="M 89.813316 293.132586 
L 91.913529 293.132586 
L 91.913529 71.643652 
L 89.813316 71.643652 
z
" clip-path="url(#p6f183487be)" style="fill: #1f77b4; opacity: 0.5"/>
   </g>
   <g id="patch_11">
    <path d="M 91.913529 293.132586 
L 94.013743 293.132586 
L 94.013743 86.052546 
L 91.913529 86.052546 
z
" clip-path="url(#p6f183487be)" style="fill: #1f77b4; opacity: 0.5"/>
   </g>
   <g id="patch_12">
    <path d="M 94.013743 293.132586 
L 96.113957 293.132586 
L 96.113957 73.938874 
L 94.013743 73.938874 
z
" clip-path="url(#p6f183487be)" style="fill: #1f77b4; opacity: 0.5"/>
   </g>
   <g id="patch_13">
    <path d="M 96.113957 293.132586 
L 98.214171 293.132586 
L 98.214171 93.703286 
L 96.113957 93.703286 
z
" clip-path="url(#p6f183487be)" style="fill: #1f77b4; opacity: 0.5"/>
   </g>
   <g id="patch_14">
    <path d="M 98.214171 293.132586 
L 100.314385 293.132586 
L 100.314385 101.481539 
L 98.214171 101.481539 
z
" clip-path="url(#p6f183487be)" style="fill: #1f77b4; opacity: 0.5"/>
   </g>
   <g id="patch_15">
    <path d="M 100.314385 293.132586 
L 102.414599 293.132586 
L 102.414599 109.642329 
L 100.314385 109.642329 
z
" clip-path="url(#p6f183487be)" style="fill: #1f77b4; opacity: 0.5"/>
   </g>
   <g id="patch_16">
    <path d="M 102.414599 293.132586 
L 104.514813 293.132586 
L 104.514813 122.7761 
L 102.414599 122.7761 
z
" clip-path="url(#p6f183487be)" style="fill: #1f77b4; opacity: 0.5"/>
   </g>
   <g id="patch_17">
    <path d="M 104.514813 293.132586 
L 106.615027 293.132586 
L 106.615027 118.695705 
L 104.514813 118.695705 
z
" clip-path="url(#p6f183487be)" style="fill: #1f77b4; opacity: 0.5"/>
   </g>
   <g id="patch_18">
    <path d="M 106.615027 293.132586 
L 108.715241 293.132586 
L 108.715241 109.004767 
L 106.615027 109.004767 
z
" clip-path="url(#p6f183487be)" style="fill: #1f77b4; opacity: 0.5"/>
   </g>
   <g id="patch_19">
    <path d="M 108.715241 293.132586 
L 110.815455 293.132586 
L 110.815455 91.15304 
L 108.715241 91.15304 
z
" clip-path="url(#p6f183487be)" style="fill: #1f77b4; opacity: 0.5"/>
   </g>
   <g id="patch_20">
    <path d="M 110.815455 293.132586 
L 112.915668 293.132586 
L 112.915668 114.360286 
L 110.815455 114.360286 
z
" clip-path="url(#p6f183487be)" style="fill: #1f77b4; opacity: 0.5"/>
   </g>
   <g id="patch_21">
    <path d="M 112.915668 293.132586 
L 115.015882 293.132586 
L 115.015882 107.984669 
L 112.915668 107.984669 
z
" clip-path="url(#p6f183487be)" style="fill: #1f77b4; opacity: 0.5"/>
   </g>
   <g id="patch_22">
    <path d="M 115.015882 293.132586 
L 117.116096 293.132586 
L 117.116096 102.884175 
L 115.015882 102.884175 
z
" clip-path="url(#p6f183487be)" style="fill: #1f77b4; opacity: 0.5"/>
   </g>
   <g id="patch_23">
    <path d="M 117.116096 293.132586 
L 119.21631 293.132586 
L 119.21631 103.776761 
L 117.116096 103.776761 
z
" clip-path="url(#p6f183487be)" style="fill: #1f77b4; opacity: 0.5"/>
   </g>
   <g id="patch_24">
    <path d="M 119.21631 293.132586 
L 121.316524 293.132586 
L 121.316524 100.716465 
L 119.21631 100.716465 
z
" clip-path="url(#p6f183487be)" style="fill: #1f77b4; opacity: 0.5"/>
   </g>
   <g id="patch_25">
    <path d="M 121.316524 293.132586 
L 123.416738 293.132586 
L 123.416738 123.413662 
L 121.316524 123.413662 
z
" clip-path="url(#p6f183487be)" style="fill: #1f77b4; opacity: 0.5"/>
   </g>
   <g id="patch_26">
    <path d="M 123.416738 293.132586 
L 125.516952 293.132586 
L 125.516952 133.487137 
L 123.416738 133.487137 
z
" clip-path="url(#p6f183487be)" style="fill: #1f77b4; opacity: 0.5"/>
   </g>
   <g id="patch_27">
    <path d="M 125.516952 293.132586 
L 127.617166 293.132586 
L 127.617166 151.593889 
L 125.516952 151.593889 
z
" clip-path="url(#p6f183487be)" style="fill: #1f77b4; opacity: 0.5"/>
   </g>
   <g id="patch_28">
    <path d="M 127.617166 293.132586 
L 129.71738 293.132586 
L 129.71738 160.647265 
L 127.617166 160.647265 
z
" clip-path="url(#p6f183487be)" style="fill: #1f77b4; opacity: 0.5"/>
   </g>
   <g id="patch_29">
    <path d="M 129.71738 293.132586 
L 131.817594 293.132586 
L 131.817594 176.458795 
L 129.71738 176.458795 
z
" clip-path="url(#p6f183487be)" style="fill: #1f77b4; opacity: 0.5"/>
   </g>
   <g id="patch_30">
    <path d="M 131.817594 293.132586 
L 133.917807 293.132586 
L 133.917807 171.103277 
L 131.817594 171.103277 
z
" clip-path="url(#p6f183487be)" style="fill: #1f77b4; opacity: 0.5"/>
   </g>
   <g id="patch_31">
    <path d="M 133.917807 293.132586 
L 136.018021 293.132586 
L 136.018021 187.679881 
L 133.917807 187.679881 
z
" clip-path="url(#p6f183487be)" style="fill: #1f77b4; opacity: 0.5"/>
   </g>
   <g id="patch_32">
    <path d="M 136.018021 293.132586 
L 138.118235 293.132586 
L 138.118235 206.67922 
L 136.018021 206.67922 
z
" clip-path="url(#p6f183487be)" style="fill: #1f77b4; opacity: 0.5"/>
   </g>
   <g id="patch_33">
    <path d="M 138.118235 293.132586 
L 140.218449 293.132586 
L 140.218449 197.625843 
L 138.118235 197.625843 
z
" clip-path="url(#p6f183487be)" style="fill: #1f77b4; opacity: 0.5"/>
   </g>
   <g id="patch_34">
    <path d="M 140.218449 293.132586 
L 142.318663 293.132586 
L 142.318663 212.034738 
L 140.218449 212.034738 
z
" clip-path="url(#p6f183487be)" style="fill: #1f77b4; opacity: 0.5"/>
   </g>
   <g id="patch_35">
    <path d="M 142.318663 293.132586 
L 144.418877 293.132586 
L 144.418877 210.122053 
L 142.318663 210.122053 
z
" clip-path="url(#p6f183487be)" style="fill: #1f77b4; opacity: 0.5"/>
   </g>
   <g id="patch_36">
    <path d="M 144.418877 293.132586 
L 146.519091 293.132586 
L 146.519091 211.269664 
L 144.418877 211.269664 
z
" clip-path="url(#p6f183487be)" style="fill: #1f77b4; opacity: 0.5"/>
   </g>
   <g id="patch_37">
    <path d="M 146.519091 293.132586 
L 148.619305 293.132586 
L 148.619305 229.631441 
L 146.519091 229.631441 
z
" clip-path="url(#p6f183487be)" style="fill: #1f77b4; opacity: 0.5"/>
   </g>
   <g id="patch_38">
    <path d="M 148.619305 293.132586 
L 150.719519 293.132586 
L 150.719519 225.933583 
L 148.619305 225.933583 
z
" clip-path="url(#p6f183487be)" style="fill: #1f77b4; opacity: 0.5"/>
   </g>
   <g id="patch_39">
    <path d="M 150.719519 293.132586 
L 152.819733 293.132586 
L 152.819733 222.235725 
L 150.719519 222.235725 
z
" clip-path="url(#p6f183487be)" style="fill: #1f77b4; opacity: 0.5"/>
   </g>
   <g id="patch_40">
    <path d="M 152.819733 293.132586 
L 154.919947 293.132586 
L 154.919947 238.429792 
L 152.819733 238.429792 
z
" clip-path="url(#p6f183487be)" style="fill: #1f77b4; opacity: 0.5"/>
   </g>
   <g id="patch_41">
    <path d="M 154.919947 293.132586 
L 157.02016 293.132586 
L 157.02016 236.517107 
L 154.919947 236.517107 
z
" clip-path="url(#p6f183487be)" style="fill: #1f77b4; opacity: 0.5"/>
   </g>
   <g id="patch_42">
    <path d="M 157.02016 293.132586 
L 159.120374 293.132586 
L 159.120374 245.060434 
L 157.02016 245.060434 
z
" clip-path="url(#p6f183487be)" style="fill: #1f77b4; opacity: 0.5"/>
   </g>
   <g id="patch_43">
    <path d="M 159.120374 293.132586 
L 161.220588 293.132586 
L 161.220588 239.704916 
L 159.120374 239.704916 
z
" clip-path="url(#p6f183487be)" style="fill: #1f77b4; opacity: 0.5"/>
   </g>
   <g id="patch_44">
    <path d="M 161.220588 293.132586 
L 163.320802 293.132586 
L 163.320802 241.617601 
L 161.220588 241.617601 
z
" clip-path="url(#p6f183487be)" style="fill: #1f77b4; opacity: 0.5"/>
   </g>
   <g id="patch_45">
    <path d="M 163.320802 293.132586 
L 165.421016 293.132586 
L 165.421016 251.9461 
L 163.320802 251.9461 
z
" clip-path="url(#p6f183487be)" style="fill: #1f77b4; opacity: 0.5"/>
   </g>
   <g id="patch_46">
    <path d="M 165.421016 293.132586 
L 167.52123 293.132586 
L 167.52123 252.966199 
L 165.421016 252.966199 
z
" clip-path="url(#p6f183487be)" style="fill: #1f77b4; opacity: 0.5"/>
   </g>
   <g id="patch_47">
    <path d="M 167.52123 293.132586 
L 169.621444 293.132586 
L 169.621444 259.214304 
L 167.52123 259.214304 
z
" clip-path="url(#p6f183487be)" style="fill: #1f77b4; opacity: 0.5"/>
   </g>
   <g id="patch_48">
    <path d="M 169.621444 293.132586 
L 171.721658 293.132586 
L 171.721658 264.569822 
L 169.621444 264.569822 
z
" clip-path="url(#p6f183487be)" style="fill: #1f77b4; opacity: 0.5"/>
   </g>
   <g id="patch_49">
    <path d="M 171.721658 293.132586 
L 173.821872 293.132586 
L 173.821872 265.207384 
L 171.721658 265.207384 
z
" clip-path="url(#p6f183487be)" style="fill: #1f77b4; opacity: 0.5"/>
   </g>
   <g id="patch_50">
    <path d="M 173.821872 293.132586 
L 175.922086 293.132586 
L 175.922086 262.912162 
L 173.821872 262.912162 
z
" clip-path="url(#p6f183487be)" style="fill: #1f77b4; opacity: 0.5"/>
   </g>
   <g id="patch_51">
    <path d="M 175.922086 293.132586 
L 178.022299 293.132586 
L 178.022299 270.945439 
L 175.922086 270.945439 
z
" clip-path="url(#p6f183487be)" style="fill: #1f77b4; opacity: 0.5"/>
   </g>
   <g id="patch_52">
    <path d="M 178.022299 293.132586 
L 180.122513 293.132586 
L 180.122513 269.415291 
L 178.022299 269.415291 
z
" clip-path="url(#p6f183487be)" style="fill: #1f77b4; opacity: 0.5"/>
   </g>
   <g id="patch_53">
    <path d="M 180.122513 293.132586 
L 182.222727 293.132586 
L 182.222727 270.945439 
L 180.122513 270.945439 
z
" clip-path="url(#p6f183487be)" style="fill: #1f77b4; opacity: 0.5"/>
   </g>
   <g id="patch_54">
    <path d="M 182.222727 293.132586 
L 184.322941 293.132586 
L 184.322941 271.072951 
L 182.222727 271.072951 
z
" clip-path="url(#p6f183487be)" style="fill: #1f77b4; opacity: 0.5"/>
   </g>
   <g id="patch_55">
    <path d="M 184.322941 293.132586 
L 186.423155 293.132586 
L 186.423155 269.92534 
L 184.322941 269.92534 
z
" clip-path="url(#p6f183487be)" style="fill: #1f77b4; opacity: 0.5"/>
   </g>
   <g id="patch_56">
    <path d="M 186.423155 293.132586 
L 188.523369 293.132586 
L 188.523369 277.448568 
L 186.423155 277.448568 
z
" clip-path="url(#p6f183487be)" style="fill: #1f77b4; opacity: 0.5"/>
   </g>
   <g id="patch_57">
    <path d="M 188.523369 293.132586 
L 190.623583 293.132586 
L 190.623583 273.878223 
L 188.523369 273.878223 
z
" clip-path="url(#p6f183487be)" style="fill: #1f77b4; opacity: 0.5"/>
   </g>
   <g id="patch_58">
    <path d="M 190.623583 293.132586 
L 192.723797 293.132586 
L 192.723797 278.468667 
L 190.623583 278.468667 
z
" clip-path="url(#p6f183487be)" style="fill: #1f77b4; opacity: 0.5"/>
   </g>
   <g id="patch_59">
    <path d="M 192.723797 293.132586 
L 194.824011 293.132586 
L 194.824011 278.596179 
L 192.723797 278.596179 
z
" clip-path="url(#p6f183487be)" style="fill: #1f77b4; opacity: 0.5"/>
   </g>
   <g id="patch_60">
    <path d="M 194.824011 293.132586 
L 196.924225 293.132586 
L 196.924225 281.9115 
L 194.824011 281.9115 
z
" clip-path="url(#p6f183487be)" style="fill: #1f77b4; opacity: 0.5"/>
   </g>
   <g id="patch_61">
    <path d="M 196.924225 293.132586 
L 199.024439 293.132586 
L 199.024439 281.273938 
L 196.924225 281.273938 
z
" clip-path="url(#p6f183487be)" style="fill: #1f77b4; opacity: 0.5"/>
   </g>
   <g id="patch_62">
    <path d="M 199.024439 293.132586 
L 201.124652 293.132586 
L 201.124652 280.381352 
L 199.024439 280.381352 
z
" clip-path="url(#p6f183487be)" style="fill: #1f77b4; opacity: 0.5"/>
   </g>
   <g id="patch_63">
    <path d="M 201.124652 293.132586 
L 203.224866 293.132586 
L 203.224866 284.07921 
L 201.124652 284.07921 
z
" clip-path="url(#p6f183487be)" style="fill: #1f77b4; opacity: 0.5"/>
   </g>
   <g id="patch_64">
    <path d="M 203.224866 293.132586 
L 205.32508 293.132586 
L 205.32508 279.871303 
L 203.224866 279.871303 
z
" clip-path="url(#p6f183487be)" style="fill: #1f77b4; opacity: 0.5"/>
   </g>
   <g id="patch_65">
    <path d="M 205.32508 293.132586 
L 207.425294 293.132586 
L 207.425294 284.844284 
L 205.32508 284.844284 
z
" clip-path="url(#p6f183487be)" style="fill: #1f77b4; opacity: 0.5"/>
   </g>
   <g id="patch_66">
    <path d="M 207.425294 293.132586 
L 209.525508 293.132586 
L 209.525508 282.166525 
L 207.425294 282.166525 
z
" clip-path="url(#p6f183487be)" style="fill: #1f77b4; opacity: 0.5"/>
   </g>
   <g id="patch_67">
    <path d="M 209.525508 293.132586 
L 211.625722 293.132586 
L 211.625722 286.629457 
L 209.525508 286.629457 
z
" clip-path="url(#p6f183487be)" style="fill: #1f77b4; opacity: 0.5"/>
   </g>
   <g id="patch_68">
    <path d="M 211.625722 293.132586 
L 213.725936 293.132586 
L 213.725936 287.011994 
L 211.625722 287.011994 
z
" clip-path="url(#p6f183487be)" style="fill: #1f77b4; opacity: 0.5"/>
   </g>
   <g id="patch_69">
    <path d="M 213.725936 293.132586 
L 215.82615 293.132586 
L 215.82615 287.267018 
L 213.725936 287.267018 
z
" clip-path="url(#p6f183487be)" style="fill: #1f77b4; opacity: 0.5"/>
   </g>
   <g id="patch_70">
    <path d="M 215.82615 293.132586 
L 217.926364 293.132586 
L 217.926364 286.374432 
L 215.82615 286.374432 
z
" clip-path="url(#p6f183487be)" style="fill: #1f77b4; opacity: 0.5"/>
   </g>
   <g id="patch_71">
    <path d="M 217.926364 293.132586 
L 220.026578 293.132586 
L 220.026578 285.099309 
L 217.926364 285.099309 
z
" clip-path="url(#p6f183487be)" style="fill: #1f77b4; opacity: 0.5"/>
   </g>
   <g id="patch_72">
    <path d="M 220.026578 293.132586 
L 222.126791 293.132586 
L 222.126791 288.542142 
L 220.026578 288.542142 
z
" clip-path="url(#p6f183487be)" style="fill: #1f77b4; opacity: 0.5"/>
   </g>
   <g id="patch_73">
    <path d="M 222.126791 293.132586 
L 224.227005 293.132586 
L 224.227005 288.287117 
L 222.126791 288.287117 
z
" clip-path="url(#p6f183487be)" style="fill: #1f77b4; opacity: 0.5"/>
   </g>
   <g id="patch_74">
    <path d="M 224.227005 293.132586 
L 226.327219 293.132586 
L 226.327219 289.179704 
L 224.227005 289.179704 
z
" clip-path="url(#p6f183487be)" style="fill: #1f77b4; opacity: 0.5"/>
   </g>
   <g id="patch_75">
    <path d="M 226.327219 293.132586 
L 228.427433 293.132586 
L 228.427433 288.924679 
L 226.327219 288.924679 
z
" clip-path="url(#p6f183487be)" style="fill: #1f77b4; opacity: 0.5"/>
   </g>
   <g id="patch_76">
    <path d="M 228.427433 293.132586 
L 230.527647 293.132586 
L 230.527647 289.052191 
L 228.427433 289.052191 
z
" clip-path="url(#p6f183487be)" style="fill: #1f77b4; opacity: 0.5"/>
   </g>
   <g id="patch_77">
    <path d="M 230.527647 293.132586 
L 232.627861 293.132586 
L 232.627861 288.924679 
L 230.527647 288.924679 
z
" clip-path="url(#p6f183487be)" style="fill: #1f77b4; opacity: 0.5"/>
   </g>
   <g id="patch_78">
    <path d="M 232.627861 293.132586 
L 234.728075 293.132586 
L 234.728075 289.562241 
L 232.627861 289.562241 
z
" clip-path="url(#p6f183487be)" style="fill: #1f77b4; opacity: 0.5"/>
   </g>
   <g id="patch_79">
    <path d="M 234.728075 293.132586 
L 236.828289 293.132586 
L 236.828289 291.092389 
L 234.728075 291.092389 
z
" clip-path="url(#p6f183487be)" style="fill: #1f77b4; opacity: 0.5"/>
   </g>
   <g id="patch_80">
    <path d="M 236.828289 293.132586 
L 238.928503 293.132586 
L 238.928503 290.582339 
L 236.828289 290.582339 
z
" clip-path="url(#p6f183487be)" style="fill: #1f77b4; opacity: 0.5"/>
   </g>
   <g id="patch_81">
    <path d="M 238.928503 293.132586 
L 241.028717 293.132586 
L 241.028717 292.112487 
L 238.928503 292.112487 
z
" clip-path="url(#p6f183487be)" style="fill: #1f77b4; opacity: 0.5"/>
   </g>
   <g id="patch_82">
    <path d="M 241.028717 293.132586 
L 243.12893 293.132586 
L 243.12893 290.837364 
L 241.028717 290.837364 
z
" clip-path="url(#p6f183487be)" style="fill: #1f77b4; opacity: 0.5"/>
   </g>
   <g id="patch_83">
    <path d="M 243.12893 293.132586 
L 245.229144 293.132586 
L 245.229144 291.092389 
L 243.12893 291.092389 
z
" clip-path="url(#p6f183487be)" style="fill: #1f77b4; opacity: 0.5"/>
   </g>
   <g id="patch_84">
    <path d="M 245.229144 293.132586 
L 247.329358 293.132586 
L 247.329358 292.367512 
L 245.229144 292.367512 
z
" clip-path="url(#p6f183487be)" style="fill: #1f77b4; opacity: 0.5"/>
   </g>
   <g id="patch_85">
    <path d="M 247.329358 293.132586 
L 249.429572 293.132586 
L 249.429572 290.837364 
L 247.329358 290.837364 
z
" clip-path="url(#p6f183487be)" style="fill: #1f77b4; opacity: 0.5"/>
   </g>
   <g id="patch_86">
    <path d="M 249.429572 293.132586 
L 251.529786 293.132586 
L 251.529786 291.984975 
L 249.429572 291.984975 
z
" clip-path="url(#p6f183487be)" style="fill: #1f77b4; opacity: 0.5"/>
   </g>
   <g id="patch_87">
    <path d="M 251.529786 293.132586 
L 253.63 293.132586 
L 253.63 292.24 
L 251.529786 292.24 
z
" clip-path="url(#p6f183487be)" style="fill: #1f77b4; opacity: 0.5"/>
   </g>
   <g id="patch_88">
    <path d="M 253.63 293.132586 
L 255.730214 293.132586 
L 255.730214 290.964876 
L 253.63 290.964876 
z
" clip-path="url(#p6f183487be)" style="fill: #1f77b4; opacity: 0.5"/>
   </g>
   <g id="patch_89">
    <path d="M 255.730214 293.132586 
L 257.830428 293.132586 
L 257.830428 291.72995 
L 255.730214 291.72995 
z
" clip-path="url(#p6f183487be)" style="fill: #1f77b4; opacity: 0.5"/>
   </g>
   <g id="patch_90">
    <path d="M 257.830428 293.132586 
L 259.930642 293.132586 
L 259.930642 292.367512 
L 257.830428 292.367512 
z
" clip-path="url(#p6f183487be)" style="fill: #1f77b4; opacity: 0.5"/>
   </g>
   <g id="patch_91">
    <path d="M 259.930642 293.132586 
L 262.030856 293.132586 
L 262.030856 291.602438 
L 259.930642 291.602438 
z
" clip-path="url(#p6f183487be)" style="fill: #1f77b4; opacity: 0.5"/>
   </g>
   <g id="patch_92">
    <path d="M 262.030856 293.132586 
L 264.13107 293.132586 
L 264.13107 292.750049 
L 262.030856 292.750049 
z
" clip-path="url(#p6f183487be)" style="fill: #1f77b4; opacity: 0.5"/>
   </g>
   <g id="patch_93">
    <path d="M 264.13107 293.132586 
L 266.231283 293.132586 
L 266.231283 292.24 
L 264.13107 292.24 
z
" clip-path="url(#p6f183487be)" style="fill: #1f77b4; opacity: 0.5"/>
   </g>
   <g id="patch_94">
    <path d="M 266.231283 293.132586 
L 268.331497 293.132586 
L 268.331497 292.495024 
L 266.231283 292.495024 
z
" clip-path="url(#p6f183487be)" style="fill: #1f77b4; opacity: 0.5"/>
   </g>
   <g id="patch_95">
    <path d="M 268.331497 293.132586 
L 270.431711 293.132586 
L 270.431711 292.112487 
L 268.331497 292.112487 
z
" clip-path="url(#p6f183487be)" style="fill: #1f77b4; opacity: 0.5"/>
   </g>
   <g id="patch_96">
    <path d="M 270.431711 293.132586 
L 272.531925 293.132586 
L 272.531925 292.112487 
L 270.431711 292.112487 
z
" clip-path="url(#p6f183487be)" style="fill: #1f77b4; opacity: 0.5"/>
   </g>
   <g id="patch_97">
    <path d="M 272.531925 293.132586 
L 274.632139 293.132586 
L 274.632139 291.72995 
L 272.531925 291.72995 
z
" clip-path="url(#p6f183487be)" style="fill: #1f77b4; opacity: 0.5"/>
   </g>
   <g id="patch_98">
    <path d="M 274.632139 293.132586 
L 276.732353 293.132586 
L 276.732353 292.622537 
L 274.632139 292.622537 
z
" clip-path="url(#p6f183487be)" style="fill: #1f77b4; opacity: 0.5"/>
   </g>
   <g id="patch_99">
    <path d="M 276.732353 293.132586 
L 278.832567 293.132586 
L 278.832567 291.092389 
L 276.732353 291.092389 
z
" clip-path="url(#p6f183487be)" style="fill: #1f77b4; opacity: 0.5"/>
   </g>
   <g id="patch_100">
    <path d="M 278.832567 293.132586 
L 280.932781 293.132586 
L 280.932781 290.327315 
L 278.832567 290.327315 
z
" clip-path="url(#p6f183487be)" style="fill: #1f77b4; opacity: 0.5"/>
   </g>
   <g id="patch_101">
    <path d="M 280.932781 293.132586 
L 283.032995 293.132586 
L 283.032995 292.877561 
L 280.932781 292.877561 
z
" clip-path="url(#p6f183487be)" style="fill: #1f77b4; opacity: 0.5"/>
   </g>
   <g id="patch_102">
    <path d="M 283.032995 293.132586 
L 285.133209 293.132586 
L 285.133209 291.347413 
L 283.032995 291.347413 
z
" clip-path="url(#p6f183487be)" style="fill: #1f77b4; opacity: 0.5"/>
   </g>
   <g id="patch_103">
    <path d="M 285.133209 293.132586 
L 287.233422 293.132586 
L 287.233422 292.495024 
L 285.133209 292.495024 
z
" clip-path="url(#p6f183487be)" style="fill: #1f77b4; opacity: 0.5"/>
   </g>
   <g id="patch_104">
    <path d="M 287.233422 293.132586 
L 289.333636 293.132586 
L 289.333636 292.24 
L 287.233422 292.24 
z
" clip-path="url(#p6f183487be)" style="fill: #1f77b4; opacity: 0.5"/>
   </g>
   <g id="patch_105">
    <path d="M 289.333636 293.132586 
L 291.43385 293.132586 
L 291.43385 292.495024 
L 289.333636 292.495024 
z
" clip-path="url(#p6f183487be)" style="fill: #1f77b4; opacity: 0.5"/>
   </g>
   <g id="patch_106">
    <path d="M 291.43385 293.132586 
L 293.534064 293.132586 
L 293.534064 291.72995 
L 291.43385 291.72995 
z
" clip-path="url(#p6f183487be)" style="fill: #1f77b4; opacity: 0.5"/>
   </g>
   <g id="patch_107">
    <path d="M 293.534064 293.132586 
L 295.634278 293.132586 
L 295.634278 292.877561 
L 293.534064 292.877561 
z
" clip-path="url(#p6f183487be)" style="fill: #1f77b4; opacity: 0.5"/>
   </g>
   <g id="patch_108">
    <path d="M 295.634278 293.132586 
L 297.734492 293.132586 
L 297.734492 291.984975 
L 295.634278 291.984975 
z
" clip-path="url(#p6f183487be)" style="fill: #1f77b4; opacity: 0.5"/>
   </g>
   <g id="patch_109">
    <path d="M 297.734492 293.132586 
L 299.834706 293.132586 
L 299.834706 292.112487 
L 297.734492 292.112487 
z
" clip-path="url(#p6f183487be)" style="fill: #1f77b4; opacity: 0.5"/>
   </g>
   <g id="patch_110">
    <path d="M 299.834706 293.132586 
L 301.93492 293.132586 
L 301.93492 292.877561 
L 299.834706 292.877561 
z
" clip-path="url(#p6f183487be)" style="fill: #1f77b4; opacity: 0.5"/>
   </g>
   <g id="patch_111">
    <path d="M 301.93492 293.132586 
L 304.035134 293.132586 
L 304.035134 291.984975 
L 301.93492 291.984975 
z
" clip-path="url(#p6f183487be)" style="fill: #1f77b4; opacity: 0.5"/>
   </g>
   <g id="patch_112">
    <path d="M 304.035134 293.132586 
L 306.135348 293.132586 
L 306.135348 291.602438 
L 304.035134 291.602438 
z
" clip-path="url(#p6f183487be)" style="fill: #1f77b4; opacity: 0.5"/>
   </g>
   <g id="patch_113">
    <path d="M 306.135348 293.132586 
L 308.235561 293.132586 
L 308.235561 292.112487 
L 306.135348 292.112487 
z
" clip-path="url(#p6f183487be)" style="fill: #1f77b4; opacity: 0.5"/>
   </g>
   <g id="patch_114">
    <path d="M 308.235561 293.132586 
L 310.335775 293.132586 
L 310.335775 292.495024 
L 308.235561 292.495024 
z
" clip-path="url(#p6f183487be)" style="fill: #1f77b4; opacity: 0.5"/>
   </g>
   <g id="patch_115">
    <path d="M 310.335775 293.132586 
L 312.435989 293.132586 
L 312.435989 291.857463 
L 310.335775 291.857463 
z
" clip-path="url(#p6f183487be)" style="fill: #1f77b4; opacity: 0.5"/>
   </g>
   <g id="patch_116">
    <path d="M 312.435989 293.132586 
L 314.536203 293.132586 
L 314.536203 292.622537 
L 312.435989 292.622537 
z
" clip-path="url(#p6f183487be)" style="fill: #1f77b4; opacity: 0.5"/>
   </g>
   <g id="patch_117">
    <path d="M 314.536203 293.132586 
L 316.636417 293.132586 
L 316.636417 292.112487 
L 314.536203 292.112487 
z
" clip-path="url(#p6f183487be)" style="fill: #1f77b4; opacity: 0.5"/>
   </g>
   <g id="patch_118">
    <path d="M 316.636417 293.132586 
L 318.736631 293.132586 
L 318.736631 292.877561 
L 316.636417 292.877561 
z
" clip-path="url(#p6f183487be)" style="fill: #1f77b4; opacity: 0.5"/>
   </g>
   <g id="patch_119">
    <path d="M 318.736631 293.132586 
L 320.836845 293.132586 
L 320.836845 292.750049 
L 318.736631 292.750049 
z
" clip-path="url(#p6f183487be)" style="fill: #1f77b4; opacity: 0.5"/>
   </g>
   <g id="patch_120">
    <path d="M 320.836845 293.132586 
L 322.937059 293.132586 
L 322.937059 293.005074 
L 320.836845 293.005074 
z
" clip-path="url(#p6f183487be)" style="fill: #1f77b4; opacity: 0.5"/>
   </g>
   <g id="patch_121">
    <path d="M 322.937059 293.132586 
L 325.037273 293.132586 
L 325.037273 292.750049 
L 322.937059 292.750049 
z
" clip-path="url(#p6f183487be)" style="fill: #1f77b4; opacity: 0.5"/>
   </g>
   <g id="patch_122">
    <path d="M 325.037273 293.132586 
L 327.137487 293.132586 
L 327.137487 292.877561 
L 325.037273 292.877561 
z
" clip-path="url(#p6f183487be)" style="fill: #1f77b4; opacity: 0.5"/>
   </g>
   <g id="patch_123">
    <path d="M 327.137487 293.132586 
L 329.237701 293.132586 
L 329.237701 293.005074 
L 327.137487 293.005074 
z
" clip-path="url(#p6f183487be)" style="fill: #1f77b4; opacity: 0.5"/>
   </g>
   <g id="patch_124">
    <path d="M 329.237701 293.132586 
L 331.337914 293.132586 
L 331.337914 293.132586 
L 329.237701 293.132586 
z
" clip-path="url(#p6f183487be)" style="fill: #1f77b4; opacity: 0.5"/>
   </g>
   <g id="patch_125">
    <path d="M 331.337914 293.132586 
L 333.438128 293.132586 
L 333.438128 293.005074 
L 331.337914 293.005074 
z
" clip-path="url(#p6f183487be)" style="fill: #1f77b4; opacity: 0.5"/>
   </g>
   <g id="patch_126">
    <path d="M 333.438128 293.132586 
L 335.538342 293.132586 
L 335.538342 292.622537 
L 333.438128 292.622537 
z
" clip-path="url(#p6f183487be)" style="fill: #1f77b4; opacity: 0.5"/>
   </g>
   <g id="patch_127">
    <path d="M 335.538342 293.132586 
L 337.638556 293.132586 
L 337.638556 293.005074 
L 335.538342 293.005074 
z
" clip-path="url(#p6f183487be)" style="fill: #1f77b4; opacity: 0.5"/>
   </g>
   <g id="patch_128">
    <path d="M 337.638556 293.132586 
L 339.73877 293.132586 
L 339.73877 293.132586 
L 337.638556 293.132586 
z
" clip-path="url(#p6f183487be)" style="fill: #1f77b4; opacity: 0.5"/>
   </g>
   <g id="patch_129">
    <path d="M 339.73877 293.132586 
L 341.838984 293.132586 
L 341.838984 292.877561 
L 339.73877 292.877561 
z
" clip-path="url(#p6f183487be)" style="fill: #1f77b4; opacity: 0.5"/>
   </g>
   <g id="patch_130">
    <path d="M 341.838984 293.132586 
L 343.939198 293.132586 
L 343.939198 292.877561 
L 341.838984 292.877561 
z
" clip-path="url(#p6f183487be)" style="fill: #1f77b4; opacity: 0.5"/>
   </g>
   <g id="patch_131">
    <path d="M 343.939198 293.132586 
L 346.039412 293.132586 
L 346.039412 292.877561 
L 343.939198 292.877561 
z
" clip-path="url(#p6f183487be)" style="fill: #1f77b4; opacity: 0.5"/>
   </g>
   <g id="patch_132">
    <path d="M 346.039412 293.132586 
L 348.139626 293.132586 
L 348.139626 292.495024 
L 346.039412 292.495024 
z
" clip-path="url(#p6f183487be)" style="fill: #1f77b4; opacity: 0.5"/>
   </g>
   <g id="patch_133">
    <path d="M 348.139626 293.132586 
L 350.23984 293.132586 
L 350.23984 293.005074 
L 348.139626 293.005074 
z
" clip-path="url(#p6f183487be)" style="fill: #1f77b4; opacity: 0.5"/>
   </g>
   <g id="patch_134">
    <path d="M 350.23984 293.132586 
L 352.340053 293.132586 
L 352.340053 293.005074 
L 350.23984 293.005074 
z
" clip-path="url(#p6f183487be)" style="fill: #1f77b4; opacity: 0.5"/>
   </g>
   <g id="patch_135">
    <path d="M 352.340053 293.132586 
L 354.440267 293.132586 
L 354.440267 293.005074 
L 352.340053 293.005074 
z
" clip-path="url(#p6f183487be)" style="fill: #1f77b4; opacity: 0.5"/>
   </g>
   <g id="patch_136">
    <path d="M 354.440267 293.132586 
L 356.540481 293.132586 
L 356.540481 292.877561 
L 354.440267 292.877561 
z
" clip-path="url(#p6f183487be)" style="fill: #1f77b4; opacity: 0.5"/>
   </g>
   <g id="patch_137">
    <path d="M 356.540481 293.132586 
L 358.640695 293.132586 
L 358.640695 292.750049 
L 356.540481 292.750049 
z
" clip-path="url(#p6f183487be)" style="fill: #1f77b4; opacity: 0.5"/>
   </g>
   <g id="patch_138">
    <path d="M 358.640695 293.132586 
L 360.740909 293.132586 
L 360.740909 292.877561 
L 358.640695 292.877561 
z
" clip-path="url(#p6f183487be)" style="fill: #1f77b4; opacity: 0.5"/>
   </g>
   <g id="patch_139">
    <path d="M 360.740909 293.132586 
L 362.841123 293.132586 
L 362.841123 292.877561 
L 360.740909 292.877561 
z
" clip-path="url(#p6f183487be)" style="fill: #1f77b4; opacity: 0.5"/>
   </g>
   <g id="patch_140">
    <path d="M 362.841123 293.132586 
L 364.941337 293.132586 
L 364.941337 292.877561 
L 362.841123 292.877561 
z
" clip-path="url(#p6f183487be)" style="fill: #1f77b4; opacity: 0.5"/>
   </g>
   <g id="patch_141">
    <path d="M 364.941337 293.132586 
L 367.041551 293.132586 
L 367.041551 292.877561 
L 364.941337 292.877561 
z
" clip-path="url(#p6f183487be)" style="fill: #1f77b4; opacity: 0.5"/>
   </g>
   <g id="patch_142">
    <path d="M 367.041551 293.132586 
L 369.141765 293.132586 
L 369.141765 293.132586 
L 367.041551 293.132586 
z
" clip-path="url(#p6f183487be)" style="fill: #1f77b4; opacity: 0.5"/>
   </g>
   <g id="patch_143">
    <path d="M 369.141765 293.132586 
L 371.241979 293.132586 
L 371.241979 293.132586 
L 369.141765 293.132586 
z
" clip-path="url(#p6f183487be)" style="fill: #1f77b4; opacity: 0.5"/>
   </g>
   <g id="patch_144">
    <path d="M 371.241979 293.132586 
L 373.342193 293.132586 
L 373.342193 293.132586 
L 371.241979 293.132586 
z
" clip-path="url(#p6f183487be)" style="fill: #1f77b4; opacity: 0.5"/>
   </g>
   <g id="patch_145">
    <path d="M 373.342193 293.132586 
L 375.442406 293.132586 
L 375.442406 293.005074 
L 373.342193 293.005074 
z
" clip-path="url(#p6f183487be)" style="fill: #1f77b4; opacity: 0.5"/>
   </g>
   <g id="patch_146">
    <path d="M 375.442406 293.132586 
L 377.54262 293.132586 
L 377.54262 292.622537 
L 375.442406 292.622537 
z
" clip-path="url(#p6f183487be)" style="fill: #1f77b4; opacity: 0.5"/>
   </g>
   <g id="patch_147">
    <path d="M 377.54262 293.132586 
L 379.642834 293.132586 
L 379.642834 292.877561 
L 377.54262 292.877561 
z
" clip-path="url(#p6f183487be)" style="fill: #1f77b4; opacity: 0.5"/>
   </g>
   <g id="patch_148">
    <path d="M 379.642834 293.132586 
L 381.743048 293.132586 
L 381.743048 293.132586 
L 379.642834 293.132586 
z
" clip-path="url(#p6f183487be)" style="fill: #1f77b4; opacity: 0.5"/>
   </g>
   <g id="patch_149">
    <path d="M 381.743048 293.132586 
L 383.843262 293.132586 
L 383.843262 293.132586 
L 381.743048 293.132586 
z
" clip-path="url(#p6f183487be)" style="fill: #1f77b4; opacity: 0.5"/>
   </g>
   <g id="patch_150">
    <path d="M 383.843262 293.132586 
L 385.943476 293.132586 
L 385.943476 293.132586 
L 383.843262 293.132586 
z
" clip-path="url(#p6f183487be)" style="fill: #1f77b4; opacity: 0.5"/>
   </g>
   <g id="patch_151">
    <path d="M 385.943476 293.132586 
L 388.04369 293.132586 
L 388.04369 293.132586 
L 385.943476 293.132586 
z
" clip-path="url(#p6f183487be)" style="fill: #1f77b4; opacity: 0.5"/>
   </g>
   <g id="patch_152">
    <path d="M 388.04369 293.132586 
L 390.143904 293.132586 
L 390.143904 292.877561 
L 388.04369 292.877561 
z
" clip-path="url(#p6f183487be)" style="fill: #1f77b4; opacity: 0.5"/>
   </g>
   <g id="patch_153">
    <path d="M 390.143904 293.132586 
L 392.244118 293.132586 
L 392.244118 293.132586 
L 390.143904 293.132586 
z
" clip-path="url(#p6f183487be)" style="fill: #1f77b4; opacity: 0.5"/>
   </g>
   <g id="patch_154">
    <path d="M 392.244118 293.132586 
L 394.344332 293.132586 
L 394.344332 293.005074 
L 392.244118 293.005074 
z
" clip-path="url(#p6f183487be)" style="fill: #1f77b4; opacity: 0.5"/>
   </g>
   <g id="patch_155">
    <path d="M 394.344332 293.132586 
L 396.444545 293.132586 
L 396.444545 293.005074 
L 394.344332 293.005074 
z
" clip-path="url(#p6f183487be)" style="fill: #1f77b4; opacity: 0.5"/>
   </g>
   <g id="patch_156">
    <path d="M 396.444545 293.132586 
L 398.544759 293.132586 
L 398.544759 293.132586 
L 396.444545 293.132586 
z
" clip-path="url(#p6f183487be)" style="fill: #1f77b4; opacity: 0.5"/>
   </g>
   <g id="patch_157">
    <path d="M 398.544759 293.132586 
L 400.644973 293.132586 
L 400.644973 293.132586 
L 398.544759 293.132586 
z
" clip-path="url(#p6f183487be)" style="fill: #1f77b4; opacity: 0.5"/>
   </g>
   <g id="patch_158">
    <path d="M 400.644973 293.132586 
L 402.745187 293.132586 
L 402.745187 293.132586 
L 400.644973 293.132586 
z
" clip-path="url(#p6f183487be)" style="fill: #1f77b4; opacity: 0.5"/>
   </g>
   <g id="patch_159">
    <path d="M 402.745187 293.132586 
L 404.845401 293.132586 
L 404.845401 293.132586 
L 402.745187 293.132586 
z
" clip-path="url(#p6f183487be)" style="fill: #1f77b4; opacity: 0.5"/>
   </g>
   <g id="patch_160">
    <path d="M 404.845401 293.132586 
L 406.945615 293.132586 
L 406.945615 293.132586 
L 404.845401 293.132586 
z
" clip-path="url(#p6f183487be)" style="fill: #1f77b4; opacity: 0.5"/>
   </g>
   <g id="patch_161">
    <path d="M 406.945615 293.132586 
L 409.045829 293.132586 
L 409.045829 293.132586 
L 406.945615 293.132586 
z
" clip-path="url(#p6f183487be)" style="fill: #1f77b4; opacity: 0.5"/>
   </g>
   <g id="patch_162">
    <path d="M 409.045829 293.132586 
L 411.146043 293.132586 
L 411.146043 293.132586 
L 409.045829 293.132586 
z
" clip-path="url(#p6f183487be)" style="fill: #1f77b4; opacity: 0.5"/>
   </g>
   <g id="patch_163">
    <path d="M 411.146043 293.132586 
L 413.246257 293.132586 
L 413.246257 293.132586 
L 411.146043 293.132586 
z
" clip-path="url(#p6f183487be)" style="fill: #1f77b4; opacity: 0.5"/>
   </g>
   <g id="patch_164">
    <path d="M 413.246257 293.132586 
L 415.346471 293.132586 
L 415.346471 293.132586 
L 413.246257 293.132586 
z
" clip-path="url(#p6f183487be)" style="fill: #1f77b4; opacity: 0.5"/>
   </g>
   <g id="patch_165">
    <path d="M 415.346471 293.132586 
L 417.446684 293.132586 
L 417.446684 293.132586 
L 415.346471 293.132586 
z
" clip-path="url(#p6f183487be)" style="fill: #1f77b4; opacity: 0.5"/>
   </g>
   <g id="patch_166">
    <path d="M 417.446684 293.132586 
L 419.546898 293.132586 
L 419.546898 293.132586 
L 417.446684 293.132586 
z
" clip-path="url(#p6f183487be)" style="fill: #1f77b4; opacity: 0.5"/>
   </g>
   <g id="patch_167">
    <path d="M 419.546898 293.132586 
L 421.647112 293.132586 
L 421.647112 293.132586 
L 419.546898 293.132586 
z
" clip-path="url(#p6f183487be)" style="fill: #1f77b4; opacity: 0.5"/>
   </g>
   <g id="patch_168">
    <path d="M 421.647112 293.132586 
L 423.747326 293.132586 
L 423.747326 293.132586 
L 421.647112 293.132586 
z
" clip-path="url(#p6f183487be)" style="fill: #1f77b4; opacity: 0.5"/>
   </g>
   <g id="patch_169">
    <path d="M 423.747326 293.132586 
L 425.84754 293.132586 
L 425.84754 293.132586 
L 423.747326 293.132586 
z
" clip-path="url(#p6f183487be)" style="fill: #1f77b4; opacity: 0.5"/>
   </g>
   <g id="patch_170">
    <path d="M 425.84754 293.132586 
L 427.947754 293.132586 
L 427.947754 293.132586 
L 425.84754 293.132586 
z
" clip-path="url(#p6f183487be)" style="fill: #1f77b4; opacity: 0.5"/>
   </g>
   <g id="patch_171">
    <path d="M 427.947754 293.132586 
L 430.047968 293.132586 
L 430.047968 293.005074 
L 427.947754 293.005074 
z
" clip-path="url(#p6f183487be)" style="fill: #1f77b4; opacity: 0.5"/>
   </g>
   <g id="patch_172">
    <path d="M 430.047968 293.132586 
L 432.148182 293.132586 
L 432.148182 291.857463 
L 430.047968 291.857463 
z
" clip-path="url(#p6f183487be)" style="fill: #1f77b4; opacity: 0.5"/>
   </g>
   <g id="matplotlib.axis_1">
    <g id="xtick_1">
     <g id="line2d_1">
      <defs>
       <path id="m86f8623d09" d="M 0 0 
L 0 3.5 
" style="stroke: #000000; stroke-width: 0.8"/>
      </defs>
      <g>
       <use xlink:href="#m86f8623d09" x="71.773666" y="293.132586" style="stroke: #000000; stroke-width: 0.8"/>
      </g>
     </g>
     <g id="text_1">
      <!-- 0 -->
      <g transform="translate(71.475355 310.00446) rotate(-45) scale(0.1 -0.1)">
       <defs>
        <path id="DejaVuSans-30" d="M 2034 4250 
Q 1547 4250 1301 3770 
Q 1056 3291 1056 2328 
Q 1056 1369 1301 889 
Q 1547 409 2034 409 
Q 2525 409 2770 889 
Q 3016 1369 3016 2328 
Q 3016 3291 2770 3770 
Q 2525 4250 2034 4250 
z
M 2034 4750 
Q 2819 4750 3233 4129 
Q 3647 3509 3647 2328 
Q 3647 1150 3233 529 
Q 2819 -91 2034 -91 
Q 1250 -91 836 529 
Q 422 1150 422 2328 
Q 422 3509 836 4129 
Q 1250 4750 2034 4750 
z
" transform="scale(0.015625)"/>
       </defs>
       <use xlink:href="#DejaVuSans-30"/>
      </g>
     </g>
    </g>
    <g id="xtick_2">
     <g id="line2d_2">
      <g>
       <use xlink:href="#m86f8623d09" x="143.848569" y="293.132586" style="stroke: #000000; stroke-width: 0.8"/>
      </g>
     </g>
     <g id="text_2">
      <!-- 20 -->
      <g transform="translate(141.300775 314.503427) rotate(-45) scale(0.1 -0.1)">
       <defs>
        <path id="DejaVuSans-32" d="M 1228 531 
L 3431 531 
L 3431 0 
L 469 0 
L 469 531 
Q 828 903 1448 1529 
Q 2069 2156 2228 2338 
Q 2531 2678 2651 2914 
Q 2772 3150 2772 3378 
Q 2772 3750 2511 3984 
Q 2250 4219 1831 4219 
Q 1534 4219 1204 4116 
Q 875 4013 500 3803 
L 500 4441 
Q 881 4594 1212 4672 
Q 1544 4750 1819 4750 
Q 2544 4750 2975 4387 
Q 3406 4025 3406 3419 
Q 3406 3131 3298 2873 
Q 3191 2616 2906 2266 
Q 2828 2175 2409 1742 
Q 1991 1309 1228 531 
z
" transform="scale(0.015625)"/>
       </defs>
       <use xlink:href="#DejaVuSans-32"/>
       <use xlink:href="#DejaVuSans-30" x="63.623047"/>
      </g>
     </g>
    </g>
    <g id="xtick_3">
     <g id="line2d_3">
      <g>
       <use xlink:href="#m86f8623d09" x="215.923472" y="293.132586" style="stroke: #000000; stroke-width: 0.8"/>
      </g>
     </g>
     <g id="text_3">
      <!-- 40 -->
      <g transform="translate(213.375678 314.503427) rotate(-45) scale(0.1 -0.1)">
       <defs>
        <path id="DejaVuSans-34" d="M 2419 4116 
L 825 1625 
L 2419 1625 
L 2419 4116 
z
M 2253 4666 
L 3047 4666 
L 3047 1625 
L 3713 1625 
L 3713 1100 
L 3047 1100 
L 3047 0 
L 2419 0 
L 2419 1100 
L 313 1100 
L 313 1709 
L 2253 4666 
z
" transform="scale(0.015625)"/>
       </defs>
       <use xlink:href="#DejaVuSans-34"/>
       <use xlink:href="#DejaVuSans-30" x="63.623047"/>
      </g>
     </g>
    </g>
    <g id="xtick_4">
     <g id="line2d_4">
      <g>
       <use xlink:href="#m86f8623d09" x="287.998375" y="293.132586" style="stroke: #000000; stroke-width: 0.8"/>
      </g>
     </g>
     <g id="text_4">
      <!-- 60 -->
      <g transform="translate(285.450581 314.503427) rotate(-45) scale(0.1 -0.1)">
       <defs>
        <path id="DejaVuSans-36" d="M 2113 2584 
Q 1688 2584 1439 2293 
Q 1191 2003 1191 1497 
Q 1191 994 1439 701 
Q 1688 409 2113 409 
Q 2538 409 2786 701 
Q 3034 994 3034 1497 
Q 3034 2003 2786 2293 
Q 2538 2584 2113 2584 
z
M 3366 4563 
L 3366 3988 
Q 3128 4100 2886 4159 
Q 2644 4219 2406 4219 
Q 1781 4219 1451 3797 
Q 1122 3375 1075 2522 
Q 1259 2794 1537 2939 
Q 1816 3084 2150 3084 
Q 2853 3084 3261 2657 
Q 3669 2231 3669 1497 
Q 3669 778 3244 343 
Q 2819 -91 2113 -91 
Q 1303 -91 875 529 
Q 447 1150 447 2328 
Q 447 3434 972 4092 
Q 1497 4750 2381 4750 
Q 2619 4750 2861 4703 
Q 3103 4656 3366 4563 
z
" transform="scale(0.015625)"/>
       </defs>
       <use xlink:href="#DejaVuSans-36"/>
       <use xlink:href="#DejaVuSans-30" x="63.623047"/>
      </g>
     </g>
    </g>
    <g id="xtick_5">
     <g id="line2d_5">
      <g>
       <use xlink:href="#m86f8623d09" x="360.073279" y="293.132586" style="stroke: #000000; stroke-width: 0.8"/>
      </g>
     </g>
     <g id="text_5">
      <!-- 80 -->
      <g transform="translate(357.525484 314.503427) rotate(-45) scale(0.1 -0.1)">
       <defs>
        <path id="DejaVuSans-38" d="M 2034 2216 
Q 1584 2216 1326 1975 
Q 1069 1734 1069 1313 
Q 1069 891 1326 650 
Q 1584 409 2034 409 
Q 2484 409 2743 651 
Q 3003 894 3003 1313 
Q 3003 1734 2745 1975 
Q 2488 2216 2034 2216 
z
M 1403 2484 
Q 997 2584 770 2862 
Q 544 3141 544 3541 
Q 544 4100 942 4425 
Q 1341 4750 2034 4750 
Q 2731 4750 3128 4425 
Q 3525 4100 3525 3541 
Q 3525 3141 3298 2862 
Q 3072 2584 2669 2484 
Q 3125 2378 3379 2068 
Q 3634 1759 3634 1313 
Q 3634 634 3220 271 
Q 2806 -91 2034 -91 
Q 1263 -91 848 271 
Q 434 634 434 1313 
Q 434 1759 690 2068 
Q 947 2378 1403 2484 
z
M 1172 3481 
Q 1172 3119 1398 2916 
Q 1625 2713 2034 2713 
Q 2441 2713 2670 2916 
Q 2900 3119 2900 3481 
Q 2900 3844 2670 4047 
Q 2441 4250 2034 4250 
Q 1625 4250 1398 4047 
Q 1172 3844 1172 3481 
z
" transform="scale(0.015625)"/>
       </defs>
       <use xlink:href="#DejaVuSans-38"/>
       <use xlink:href="#DejaVuSans-30" x="63.623047"/>
      </g>
     </g>
    </g>
    <g id="xtick_6">
     <g id="line2d_6">
      <g>
       <use xlink:href="#m86f8623d09" x="432.148182" y="293.132586" style="stroke: #000000; stroke-width: 0.8"/>
      </g>
     </g>
     <g id="text_6">
      <!-- 100 -->
      <g transform="translate(427.350904 319.002393) rotate(-45) scale(0.1 -0.1)">
       <defs>
        <path id="DejaVuSans-31" d="M 794 531 
L 1825 531 
L 1825 4091 
L 703 3866 
L 703 4441 
L 1819 4666 
L 2450 4666 
L 2450 531 
L 3481 531 
L 3481 0 
L 794 0 
L 794 531 
z
" transform="scale(0.015625)"/>
       </defs>
       <use xlink:href="#DejaVuSans-31"/>
       <use xlink:href="#DejaVuSans-30" x="63.623047"/>
       <use xlink:href="#DejaVuSans-30" x="127.246094"/>
      </g>
     </g>
    </g>
    <g id="text_7">
     <!-- Werte -->
     <g transform="translate(238.81125 332.071392) scale(0.1 -0.1)">
      <defs>
       <path id="DejaVuSans-57" d="M 213 4666 
L 850 4666 
L 1831 722 
L 2809 4666 
L 3519 4666 
L 4500 722 
L 5478 4666 
L 6119 4666 
L 4947 0 
L 4153 0 
L 3169 4050 
L 2175 0 
L 1381 0 
L 213 4666 
z
" transform="scale(0.015625)"/>
       <path id="DejaVuSans-65" d="M 3597 1894 
L 3597 1613 
L 953 1613 
Q 991 1019 1311 708 
Q 1631 397 2203 397 
Q 2534 397 2845 478 
Q 3156 559 3463 722 
L 3463 178 
Q 3153 47 2828 -22 
Q 2503 -91 2169 -91 
Q 1331 -91 842 396 
Q 353 884 353 1716 
Q 353 2575 817 3079 
Q 1281 3584 2069 3584 
Q 2775 3584 3186 3129 
Q 3597 2675 3597 1894 
z
M 3022 2063 
Q 3016 2534 2758 2815 
Q 2500 3097 2075 3097 
Q 1594 3097 1305 2825 
Q 1016 2553 972 2059 
L 3022 2063 
z
" transform="scale(0.015625)"/>
       <path id="DejaVuSans-72" d="M 2631 2963 
Q 2534 3019 2420 3045 
Q 2306 3072 2169 3072 
Q 1681 3072 1420 2755 
Q 1159 2438 1159 1844 
L 1159 0 
L 581 0 
L 581 3500 
L 1159 3500 
L 1159 2956 
Q 1341 3275 1631 3429 
Q 1922 3584 2338 3584 
Q 2397 3584 2469 3576 
Q 2541 3569 2628 3553 
L 2631 2963 
z
" transform="scale(0.015625)"/>
       <path id="DejaVuSans-74" d="M 1172 4494 
L 1172 3500 
L 2356 3500 
L 2356 3053 
L 1172 3053 
L 1172 1153 
Q 1172 725 1289 603 
Q 1406 481 1766 481 
L 2356 481 
L 2356 0 
L 1766 0 
Q 1100 0 847 248 
Q 594 497 594 1153 
L 594 3053 
L 172 3053 
L 172 3500 
L 594 3500 
L 594 4494 
L 1172 4494 
z
" transform="scale(0.015625)"/>
      </defs>
      <use xlink:href="#DejaVuSans-57"/>
      <use xlink:href="#DejaVuSans-65" x="93.001953"/>
      <use xlink:href="#DejaVuSans-72" x="154.525391"/>
      <use xlink:href="#DejaVuSans-74" x="195.638672"/>
      <use xlink:href="#DejaVuSans-65" x="234.847656"/>
     </g>
    </g>
   </g>
   <g id="matplotlib.axis_2">
    <g id="ytick_1">
     <g id="line2d_7">
      <defs>
       <path id="mf966d75417" d="M 0 0 
L -3.5 0 
" style="stroke: #000000; stroke-width: 0.8"/>
      </defs>
      <g>
       <use xlink:href="#mf966d75417" x="57.26" y="293.132586" style="stroke: #000000; stroke-width: 0.8"/>
      </g>
     </g>
     <g id="text_8">
      <!-- 0 -->
      <g transform="translate(43.8975 296.931805) scale(0.1 -0.1)">
       <use xlink:href="#DejaVuSans-30"/>
      </g>
     </g>
    </g>
    <g id="ytick_2">
     <g id="line2d_8">
      <g>
       <use xlink:href="#mf966d75417" x="57.26" y="261.254501" style="stroke: #000000; stroke-width: 0.8"/>
      </g>
     </g>
     <g id="text_9">
      <!-- 250 -->
      <g transform="translate(31.1725 265.05372) scale(0.1 -0.1)">
       <defs>
        <path id="DejaVuSans-35" d="M 691 4666 
L 3169 4666 
L 3169 4134 
L 1269 4134 
L 1269 2991 
Q 1406 3038 1543 3061 
Q 1681 3084 1819 3084 
Q 2600 3084 3056 2656 
Q 3513 2228 3513 1497 
Q 3513 744 3044 326 
Q 2575 -91 1722 -91 
Q 1428 -91 1123 -41 
Q 819 9 494 109 
L 494 744 
Q 775 591 1075 516 
Q 1375 441 1709 441 
Q 2250 441 2565 725 
Q 2881 1009 2881 1497 
Q 2881 1984 2565 2268 
Q 2250 2553 1709 2553 
Q 1456 2553 1204 2497 
Q 953 2441 691 2322 
L 691 4666 
z
" transform="scale(0.015625)"/>
       </defs>
       <use xlink:href="#DejaVuSans-32"/>
       <use xlink:href="#DejaVuSans-35" x="63.623047"/>
       <use xlink:href="#DejaVuSans-30" x="127.246094"/>
      </g>
     </g>
    </g>
    <g id="ytick_3">
     <g id="line2d_9">
      <g>
       <use xlink:href="#mf966d75417" x="57.26" y="229.376416" style="stroke: #000000; stroke-width: 0.8"/>
      </g>
     </g>
     <g id="text_10">
      <!-- 500 -->
      <g transform="translate(31.1725 233.175635) scale(0.1 -0.1)">
       <use xlink:href="#DejaVuSans-35"/>
       <use xlink:href="#DejaVuSans-30" x="63.623047"/>
       <use xlink:href="#DejaVuSans-30" x="127.246094"/>
      </g>
     </g>
    </g>
    <g id="ytick_4">
     <g id="line2d_10">
      <g>
       <use xlink:href="#mf966d75417" x="57.26" y="197.498331" style="stroke: #000000; stroke-width: 0.8"/>
      </g>
     </g>
     <g id="text_11">
      <!-- 750 -->
      <g transform="translate(31.1725 201.29755) scale(0.1 -0.1)">
       <defs>
        <path id="DejaVuSans-37" d="M 525 4666 
L 3525 4666 
L 3525 4397 
L 1831 0 
L 1172 0 
L 2766 4134 
L 525 4134 
L 525 4666 
z
" transform="scale(0.015625)"/>
       </defs>
       <use xlink:href="#DejaVuSans-37"/>
       <use xlink:href="#DejaVuSans-35" x="63.623047"/>
       <use xlink:href="#DejaVuSans-30" x="127.246094"/>
      </g>
     </g>
    </g>
    <g id="ytick_5">
     <g id="line2d_11">
      <g>
       <use xlink:href="#mf966d75417" x="57.26" y="165.620246" style="stroke: #000000; stroke-width: 0.8"/>
      </g>
     </g>
     <g id="text_12">
      <!-- 1000 -->
      <g transform="translate(24.81 169.419465) scale(0.1 -0.1)">
       <use xlink:href="#DejaVuSans-31"/>
       <use xlink:href="#DejaVuSans-30" x="63.623047"/>
       <use xlink:href="#DejaVuSans-30" x="127.246094"/>
       <use xlink:href="#DejaVuSans-30" x="190.869141"/>
      </g>
     </g>
    </g>
    <g id="ytick_6">
     <g id="line2d_12">
      <g>
       <use xlink:href="#mf966d75417" x="57.26" y="133.742161" style="stroke: #000000; stroke-width: 0.8"/>
      </g>
     </g>
     <g id="text_13">
      <!-- 1250 -->
      <g transform="translate(24.81 137.54138) scale(0.1 -0.1)">
       <use xlink:href="#DejaVuSans-31"/>
       <use xlink:href="#DejaVuSans-32" x="63.623047"/>
       <use xlink:href="#DejaVuSans-35" x="127.246094"/>
       <use xlink:href="#DejaVuSans-30" x="190.869141"/>
      </g>
     </g>
    </g>
    <g id="ytick_7">
     <g id="line2d_13">
      <g>
       <use xlink:href="#mf966d75417" x="57.26" y="101.864076" style="stroke: #000000; stroke-width: 0.8"/>
      </g>
     </g>
     <g id="text_14">
      <!-- 1500 -->
      <g transform="translate(24.81 105.663295) scale(0.1 -0.1)">
       <use xlink:href="#DejaVuSans-31"/>
       <use xlink:href="#DejaVuSans-35" x="63.623047"/>
       <use xlink:href="#DejaVuSans-30" x="127.246094"/>
       <use xlink:href="#DejaVuSans-30" x="190.869141"/>
      </g>
     </g>
    </g>
    <g id="ytick_8">
     <g id="line2d_14">
      <g>
       <use xlink:href="#mf966d75417" x="57.26" y="69.985991" style="stroke: #000000; stroke-width: 0.8"/>
      </g>
     </g>
     <g id="text_15">
      <!-- 1750 -->
      <g transform="translate(24.81 73.78521) scale(0.1 -0.1)">
       <use xlink:href="#DejaVuSans-31"/>
       <use xlink:href="#DejaVuSans-37" x="63.623047"/>
       <use xlink:href="#DejaVuSans-35" x="127.246094"/>
       <use xlink:href="#DejaVuSans-30" x="190.869141"/>
      </g>
     </g>
    </g>
    <g id="ytick_9">
     <g id="line2d_15">
      <g>
       <use xlink:href="#mf966d75417" x="57.26" y="38.107906" style="stroke: #000000; stroke-width: 0.8"/>
      </g>
     </g>
     <g id="text_16">
      <!-- 2000 -->
      <g transform="translate(24.81 41.907125) scale(0.1 -0.1)">
       <use xlink:href="#DejaVuSans-32"/>
       <use xlink:href="#DejaVuSans-30" x="63.623047"/>
       <use xlink:href="#DejaVuSans-30" x="127.246094"/>
       <use xlink:href="#DejaVuSans-30" x="190.869141"/>
      </g>
     </g>
    </g>
    <g id="text_17">
     <!-- Hufigkeit -->
     <g transform="translate(18.730313 185.102543) rotate(-90) scale(0.1 -0.1)">
      <defs>
       <path id="DejaVuSans-48" d="M 628 4666 
L 1259 4666 
L 1259 2753 
L 3553 2753 
L 3553 4666 
L 4184 4666 
L 4184 0 
L 3553 0 
L 3553 2222 
L 1259 2222 
L 1259 0 
L 628 0 
L 628 4666 
z
" transform="scale(0.015625)"/>
       <path id="DejaVuSans-e4" d="M 2194 1759 
Q 1497 1759 1228 1600 
Q 959 1441 959 1056 
Q 959 750 1161 570 
Q 1363 391 1709 391 
Q 2188 391 2477 730 
Q 2766 1069 2766 1631 
L 2766 1759 
L 2194 1759 
z
M 3341 1997 
L 3341 0 
L 2766 0 
L 2766 531 
Q 2569 213 2275 61 
Q 1981 -91 1556 -91 
Q 1019 -91 701 211 
Q 384 513 384 1019 
Q 384 1609 779 1909 
Q 1175 2209 1959 2209 
L 2766 2209 
L 2766 2266 
Q 2766 2663 2505 2880 
Q 2244 3097 1772 3097 
Q 1472 3097 1187 3025 
Q 903 2953 641 2809 
L 641 3341 
Q 956 3463 1253 3523 
Q 1550 3584 1831 3584 
Q 2591 3584 2966 3190 
Q 3341 2797 3341 1997 
z
M 2150 4850 
L 2784 4850 
L 2784 4219 
L 2150 4219 
L 2150 4850 
z
M 928 4850 
L 1563 4850 
L 1563 4219 
L 928 4219 
L 928 4850 
z
" transform="scale(0.015625)"/>
       <path id="DejaVuSans-75" d="M 544 1381 
L 544 3500 
L 1119 3500 
L 1119 1403 
Q 1119 906 1312 657 
Q 1506 409 1894 409 
Q 2359 409 2629 706 
Q 2900 1003 2900 1516 
L 2900 3500 
L 3475 3500 
L 3475 0 
L 2900 0 
L 2900 538 
Q 2691 219 2414 64 
Q 2138 -91 1772 -91 
Q 1169 -91 856 284 
Q 544 659 544 1381 
z
M 1991 3584 
L 1991 3584 
z
" transform="scale(0.015625)"/>
       <path id="DejaVuSans-66" d="M 2375 4863 
L 2375 4384 
L 1825 4384 
Q 1516 4384 1395 4259 
Q 1275 4134 1275 3809 
L 1275 3500 
L 2222 3500 
L 2222 3053 
L 1275 3053 
L 1275 0 
L 697 0 
L 697 3053 
L 147 3053 
L 147 3500 
L 697 3500 
L 697 3744 
Q 697 4328 969 4595 
Q 1241 4863 1831 4863 
L 2375 4863 
z
" transform="scale(0.015625)"/>
       <path id="DejaVuSans-69" d="M 603 3500 
L 1178 3500 
L 1178 0 
L 603 0 
L 603 3500 
z
M 603 4863 
L 1178 4863 
L 1178 4134 
L 603 4134 
L 603 4863 
z
" transform="scale(0.015625)"/>
       <path id="DejaVuSans-67" d="M 2906 1791 
Q 2906 2416 2648 2759 
Q 2391 3103 1925 3103 
Q 1463 3103 1205 2759 
Q 947 2416 947 1791 
Q 947 1169 1205 825 
Q 1463 481 1925 481 
Q 2391 481 2648 825 
Q 2906 1169 2906 1791 
z
M 3481 434 
Q 3481 -459 3084 -895 
Q 2688 -1331 1869 -1331 
Q 1566 -1331 1297 -1286 
Q 1028 -1241 775 -1147 
L 775 -588 
Q 1028 -725 1275 -790 
Q 1522 -856 1778 -856 
Q 2344 -856 2625 -561 
Q 2906 -266 2906 331 
L 2906 616 
Q 2728 306 2450 153 
Q 2172 0 1784 0 
Q 1141 0 747 490 
Q 353 981 353 1791 
Q 353 2603 747 3093 
Q 1141 3584 1784 3584 
Q 2172 3584 2450 3431 
Q 2728 3278 2906 2969 
L 2906 3500 
L 3481 3500 
L 3481 434 
z
" transform="scale(0.015625)"/>
       <path id="DejaVuSans-6b" d="M 581 4863 
L 1159 4863 
L 1159 1991 
L 2875 3500 
L 3609 3500 
L 1753 1863 
L 3688 0 
L 2938 0 
L 1159 1709 
L 1159 0 
L 581 0 
L 581 4863 
z
" transform="scale(0.015625)"/>
      </defs>
      <use xlink:href="#DejaVuSans-48"/>
      <use xlink:href="#DejaVuSans-e4" x="75.195312"/>
      <use xlink:href="#DejaVuSans-75" x="136.474609"/>
      <use xlink:href="#DejaVuSans-66" x="199.853516"/>
      <use xlink:href="#DejaVuSans-69" x="235.058594"/>
      <use xlink:href="#DejaVuSans-67" x="262.841797"/>
      <use xlink:href="#DejaVuSans-6b" x="326.318359"/>
      <use xlink:href="#DejaVuSans-65" x="380.603516"/>
      <use xlink:href="#DejaVuSans-69" x="442.126953"/>
      <use xlink:href="#DejaVuSans-74" x="469.910156"/>
     </g>
    </g>
   </g>
   <g id="patch_173">
    <path d="M 57.26 293.132586 
L 57.26 26.16 
" style="fill: none; stroke: #000000; stroke-width: 0.8; stroke-linejoin: miter; stroke-linecap: square"/>
   </g>
   <g id="patch_174">
    <path d="M 450 293.132586 
L 450 26.16 
" style="fill: none; stroke: #000000; stroke-width: 0.8; stroke-linejoin: miter; stroke-linecap: square"/>
   </g>
   <g id="patch_175">
    <path d="M 57.26 293.132586 
L 450 293.132586 
" style="fill: none; stroke: #000000; stroke-width: 0.8; stroke-linejoin: miter; stroke-linecap: square"/>
   </g>
   <g id="patch_176">
    <path d="M 57.26 26.16 
L 450 26.16 
" style="fill: none; stroke: #000000; stroke-width: 0.8; stroke-linejoin: miter; stroke-linecap: square"/>
   </g>
   <g id="text_18">
    <!-- attr_index_norm -->
    <g transform="translate(204.685937 20.16) scale(0.12 -0.12)">
     <defs>
      <path id="DejaVuSans-61" d="M 2194 1759 
Q 1497 1759 1228 1600 
Q 959 1441 959 1056 
Q 959 750 1161 570 
Q 1363 391 1709 391 
Q 2188 391 2477 730 
Q 2766 1069 2766 1631 
L 2766 1759 
L 2194 1759 
z
M 3341 1997 
L 3341 0 
L 2766 0 
L 2766 531 
Q 2569 213 2275 61 
Q 1981 -91 1556 -91 
Q 1019 -91 701 211 
Q 384 513 384 1019 
Q 384 1609 779 1909 
Q 1175 2209 1959 2209 
L 2766 2209 
L 2766 2266 
Q 2766 2663 2505 2880 
Q 2244 3097 1772 3097 
Q 1472 3097 1187 3025 
Q 903 2953 641 2809 
L 641 3341 
Q 956 3463 1253 3523 
Q 1550 3584 1831 3584 
Q 2591 3584 2966 3190 
Q 3341 2797 3341 1997 
z
" transform="scale(0.015625)"/>
      <path id="DejaVuSans-5f" d="M 3263 -1063 
L 3263 -1509 
L -63 -1509 
L -63 -1063 
L 3263 -1063 
z
" transform="scale(0.015625)"/>
      <path id="DejaVuSans-6e" d="M 3513 2113 
L 3513 0 
L 2938 0 
L 2938 2094 
Q 2938 2591 2744 2837 
Q 2550 3084 2163 3084 
Q 1697 3084 1428 2787 
Q 1159 2491 1159 1978 
L 1159 0 
L 581 0 
L 581 3500 
L 1159 3500 
L 1159 2956 
Q 1366 3272 1645 3428 
Q 1925 3584 2291 3584 
Q 2894 3584 3203 3211 
Q 3513 2838 3513 2113 
z
" transform="scale(0.015625)"/>
      <path id="DejaVuSans-64" d="M 2906 2969 
L 2906 4863 
L 3481 4863 
L 3481 0 
L 2906 0 
L 2906 525 
Q 2725 213 2448 61 
Q 2172 -91 1784 -91 
Q 1150 -91 751 415 
Q 353 922 353 1747 
Q 353 2572 751 3078 
Q 1150 3584 1784 3584 
Q 2172 3584 2448 3432 
Q 2725 3281 2906 2969 
z
M 947 1747 
Q 947 1113 1208 752 
Q 1469 391 1925 391 
Q 2381 391 2643 752 
Q 2906 1113 2906 1747 
Q 2906 2381 2643 2742 
Q 2381 3103 1925 3103 
Q 1469 3103 1208 2742 
Q 947 2381 947 1747 
z
" transform="scale(0.015625)"/>
      <path id="DejaVuSans-78" d="M 3513 3500 
L 2247 1797 
L 3578 0 
L 2900 0 
L 1881 1375 
L 863 0 
L 184 0 
L 1544 1831 
L 300 3500 
L 978 3500 
L 1906 2253 
L 2834 3500 
L 3513 3500 
z
" transform="scale(0.015625)"/>
      <path id="DejaVuSans-6f" d="M 1959 3097 
Q 1497 3097 1228 2736 
Q 959 2375 959 1747 
Q 959 1119 1226 758 
Q 1494 397 1959 397 
Q 2419 397 2687 759 
Q 2956 1122 2956 1747 
Q 2956 2369 2687 2733 
Q 2419 3097 1959 3097 
z
M 1959 3584 
Q 2709 3584 3137 3096 
Q 3566 2609 3566 1747 
Q 3566 888 3137 398 
Q 2709 -91 1959 -91 
Q 1206 -91 779 398 
Q 353 888 353 1747 
Q 353 2609 779 3096 
Q 1206 3584 1959 3584 
z
" transform="scale(0.015625)"/>
      <path id="DejaVuSans-6d" d="M 3328 2828 
Q 3544 3216 3844 3400 
Q 4144 3584 4550 3584 
Q 5097 3584 5394 3201 
Q 5691 2819 5691 2113 
L 5691 0 
L 5113 0 
L 5113 2094 
Q 5113 2597 4934 2840 
Q 4756 3084 4391 3084 
Q 3944 3084 3684 2787 
Q 3425 2491 3425 1978 
L 3425 0 
L 2847 0 
L 2847 2094 
Q 2847 2600 2669 2842 
Q 2491 3084 2119 3084 
Q 1678 3084 1418 2786 
Q 1159 2488 1159 1978 
L 1159 0 
L 581 0 
L 581 3500 
L 1159 3500 
L 1159 2956 
Q 1356 3278 1631 3431 
Q 1906 3584 2284 3584 
Q 2666 3584 2933 3390 
Q 3200 3197 3328 2828 
z
" transform="scale(0.015625)"/>
     </defs>
     <use xlink:href="#DejaVuSans-61"/>
     <use xlink:href="#DejaVuSans-74" x="61.279297"/>
     <use xlink:href="#DejaVuSans-74" x="100.488281"/>
     <use xlink:href="#DejaVuSans-72" x="139.697266"/>
     <use xlink:href="#DejaVuSans-5f" x="180.810547"/>
     <use xlink:href="#DejaVuSans-69" x="230.810547"/>
     <use xlink:href="#DejaVuSans-6e" x="258.59375"/>
     <use xlink:href="#DejaVuSans-64" x="321.972656"/>
     <use xlink:href="#DejaVuSans-65" x="385.449219"/>
     <use xlink:href="#DejaVuSans-78" x="445.222656"/>
     <use xlink:href="#DejaVuSans-5f" x="504.402344"/>
     <use xlink:href="#DejaVuSans-6e" x="554.402344"/>
     <use xlink:href="#DejaVuSans-6f" x="617.78125"/>
     <use xlink:href="#DejaVuSans-72" x="678.962891"/>
     <use xlink:href="#DejaVuSans-6d" x="718.326172"/>
    </g>
   </g>
  </g>
 </g>
 <defs>
  <clipPath id="p6f183487be">
   <rect x="57.26" y="26.16" width="392.74" height="266.972586"/>
  </clipPath>
 </defs>
</svg>
