<?xml version="1.0" encoding="utf-8" standalone="no"?>
<!DOCTYPE svg PUBLIC "-//W3C//DTD SVG 1.1//EN"
  "http://www.w3.org/Graphics/SVG/1.1/DTD/svg11.dtd">
<svg xmlns:xlink="http://www.w3.org/1999/xlink" width="460.8pt" height="345.6pt" viewBox="0 0 460.8 345.6" xmlns="http://www.w3.org/2000/svg" version="1.1">
 <metadata>
  <rdf:RDF xmlns:dc="http://purl.org/dc/elements/1.1/" xmlns:cc="http://creativecommons.org/ns#" xmlns:rdf="http://www.w3.org/1999/02/22-rdf-syntax-ns#">
   <cc:Work>
    <dc:type rdf:resource="http://purl.org/dc/dcmitype/StillImage"/>
    <dc:date>2024-01-20T11:54:07.494250</dc:date>
    <dc:format>image/svg+xml</dc:format>
    <dc:creator>
     <cc:Agent>
      <dc:title>Matplotlib v3.8.0, https://matplotlib.org/</dc:title>
     </cc:Agent>
    </dc:creator>
   </cc:Work>
  </rdf:RDF>
 </metadata>
 <defs>
  <style type="text/css">*{stroke-linejoin: round; stroke-linecap: butt}</style>
 </defs>
 <g id="figure_1">
  <g id="patch_1">
   <path d="M 0 345.6 
L 460.8 345.6 
L 460.8 0 
L 0 0 
z
" style="fill: #ffffff"/>
  </g>
  <g id="axes_1">
   <g id="patch_2">
    <path d="M 57.26 288.645994 
L 450 288.645994 
L 450 26.16 
L 57.26 26.16 
z
" style="fill: #ffffff"/>
   </g>
   <g id="patch_3">
    <path d="M 75.111818 288.645994 
L 76.650768 288.645994 
L 76.650768 270.205204 
L 75.111818 270.205204 
z
" clip-path="url(#p471aa787e6)" style="fill: #1f77b4; opacity: 0.5"/>
   </g>
   <g id="patch_4">
    <path d="M 76.650768 288.645994 
L 78.189718 288.645994 
L 78.189718 238.503622 
L 76.650768 238.503622 
z
" clip-path="url(#p471aa787e6)" style="fill: #1f77b4; opacity: 0.5"/>
   </g>
   <g id="patch_5">
    <path d="M 78.189718 288.645994 
L 79.728668 288.645994 
L 79.728668 206.698439 
L 78.189718 206.698439 
z
" clip-path="url(#p471aa787e6)" style="fill: #1f77b4; opacity: 0.5"/>
   </g>
   <g id="patch_6">
    <path d="M 79.728668 288.645994 
L 81.267618 288.645994 
L 81.267618 167.848461 
L 79.728668 167.848461 
z
" clip-path="url(#p471aa787e6)" style="fill: #1f77b4; opacity: 0.5"/>
   </g>
   <g id="patch_7">
    <path d="M 81.267618 288.645994 
L 82.806567 288.645994 
L 82.806567 145.781673 
L 81.267618 145.781673 
z
" clip-path="url(#p471aa787e6)" style="fill: #1f77b4; opacity: 0.5"/>
   </g>
   <g id="patch_8">
    <path d="M 82.806567 288.645994 
L 84.345517 288.645994 
L 84.345517 115.53049 
L 82.806567 115.53049 
z
" clip-path="url(#p471aa787e6)" style="fill: #1f77b4; opacity: 0.5"/>
   </g>
   <g id="patch_9">
    <path d="M 84.345517 288.645994 
L 85.884467 288.645994 
L 85.884467 64.559319 
L 84.345517 64.559319 
z
" clip-path="url(#p471aa787e6)" style="fill: #1f77b4; opacity: 0.5"/>
   </g>
   <g id="patch_10">
    <path d="M 85.884467 288.645994 
L 87.423417 288.645994 
L 87.423417 38.659333 
L 85.884467 38.659333 
z
" clip-path="url(#p471aa787e6)" style="fill: #1f77b4; opacity: 0.5"/>
   </g>
   <g id="patch_11">
    <path d="M 87.423417 288.645994 
L 88.962367 288.645994 
L 88.962367 75.955312 
L 87.423417 75.955312 
z
" clip-path="url(#p471aa787e6)" style="fill: #1f77b4; opacity: 0.5"/>
   </g>
   <g id="patch_12">
    <path d="M 88.962367 288.645994 
L 90.501317 288.645994 
L 90.501317 110.350493 
L 88.962367 110.350493 
z
" clip-path="url(#p471aa787e6)" style="fill: #1f77b4; opacity: 0.5"/>
   </g>
   <g id="patch_13">
    <path d="M 90.501317 288.645994 
L 92.040266 288.645994 
L 92.040266 106.413695 
L 90.501317 106.413695 
z
" clip-path="url(#p471aa787e6)" style="fill: #1f77b4; opacity: 0.5"/>
   </g>
   <g id="patch_14">
    <path d="M 92.040266 288.645994 
L 93.579216 288.645994 
L 93.579216 97.1933 
L 92.040266 97.1933 
z
" clip-path="url(#p471aa787e6)" style="fill: #1f77b4; opacity: 0.5"/>
   </g>
   <g id="patch_15">
    <path d="M 93.579216 288.645994 
L 95.118166 288.645994 
L 95.118166 101.130098 
L 93.579216 101.130098 
z
" clip-path="url(#p471aa787e6)" style="fill: #1f77b4; opacity: 0.5"/>
   </g>
   <g id="patch_16">
    <path d="M 95.118166 288.645994 
L 96.657116 288.645994 
L 96.657116 116.773689 
L 95.118166 116.773689 
z
" clip-path="url(#p471aa787e6)" style="fill: #1f77b4; opacity: 0.5"/>
   </g>
   <g id="patch_17">
    <path d="M 96.657116 288.645994 
L 98.196066 288.645994 
L 98.196066 117.291689 
L 96.657116 117.291689 
z
" clip-path="url(#p471aa787e6)" style="fill: #1f77b4; opacity: 0.5"/>
   </g>
   <g id="patch_18">
    <path d="M 98.196066 288.645994 
L 99.735016 288.645994 
L 99.735016 113.769291 
L 98.196066 113.769291 
z
" clip-path="url(#p471aa787e6)" style="fill: #1f77b4; opacity: 0.5"/>
   </g>
   <g id="patch_19">
    <path d="M 99.735016 288.645994 
L 101.273966 288.645994 
L 101.273966 129.102083 
L 99.735016 129.102083 
z
" clip-path="url(#p471aa787e6)" style="fill: #1f77b4; opacity: 0.5"/>
   </g>
   <g id="patch_20">
    <path d="M 101.273966 288.645994 
L 102.812915 288.645994 
L 102.812915 152.41207 
L 101.273966 152.41207 
z
" clip-path="url(#p471aa787e6)" style="fill: #1f77b4; opacity: 0.5"/>
   </g>
   <g id="patch_21">
    <path d="M 102.812915 288.645994 
L 104.351865 288.645994 
L 104.351865 165.362062 
L 102.812915 165.362062 
z
" clip-path="url(#p471aa787e6)" style="fill: #1f77b4; opacity: 0.5"/>
   </g>
   <g id="patch_22">
    <path d="M 104.351865 288.645994 
L 105.890815 288.645994 
L 105.890815 155.934468 
L 104.351865 155.934468 
z
" clip-path="url(#p471aa787e6)" style="fill: #1f77b4; opacity: 0.5"/>
   </g>
   <g id="patch_23">
    <path d="M 105.890815 288.645994 
L 107.429765 288.645994 
L 107.429765 151.99767 
L 105.890815 151.99767 
z
" clip-path="url(#p471aa787e6)" style="fill: #1f77b4; opacity: 0.5"/>
   </g>
   <g id="patch_24">
    <path d="M 107.429765 288.645994 
L 108.968715 288.645994 
L 108.968715 156.763267 
L 107.429765 156.763267 
z
" clip-path="url(#p471aa787e6)" style="fill: #1f77b4; opacity: 0.5"/>
   </g>
   <g id="patch_25">
    <path d="M 108.968715 288.645994 
L 110.507665 288.645994 
L 110.507665 179.140855 
L 108.968715 179.140855 
z
" clip-path="url(#p471aa787e6)" style="fill: #1f77b4; opacity: 0.5"/>
   </g>
   <g id="patch_26">
    <path d="M 110.507665 288.645994 
L 112.046614 288.645994 
L 112.046614 171.163659 
L 110.507665 171.163659 
z
" clip-path="url(#p471aa787e6)" style="fill: #1f77b4; opacity: 0.5"/>
   </g>
   <g id="patch_27">
    <path d="M 112.046614 288.645994 
L 113.585564 288.645994 
L 113.585564 187.11805 
L 112.046614 187.11805 
z
" clip-path="url(#p471aa787e6)" style="fill: #1f77b4; opacity: 0.5"/>
   </g>
   <g id="patch_28">
    <path d="M 113.585564 288.645994 
L 115.124514 288.645994 
L 115.124514 188.879249 
L 113.585564 188.879249 
z
" clip-path="url(#p471aa787e6)" style="fill: #1f77b4; opacity: 0.5"/>
   </g>
   <g id="patch_29">
    <path d="M 115.124514 288.645994 
L 116.663464 288.645994 
L 116.663464 196.856445 
L 115.124514 196.856445 
z
" clip-path="url(#p471aa787e6)" style="fill: #1f77b4; opacity: 0.5"/>
   </g>
   <g id="patch_30">
    <path d="M 116.663464 288.645994 
L 118.202414 288.645994 
L 118.202414 206.905639 
L 116.663464 206.905639 
z
" clip-path="url(#p471aa787e6)" style="fill: #1f77b4; opacity: 0.5"/>
   </g>
   <g id="patch_31">
    <path d="M 118.202414 288.645994 
L 119.741364 288.645994 
L 119.741364 210.117237 
L 118.202414 210.117237 
z
" clip-path="url(#p471aa787e6)" style="fill: #1f77b4; opacity: 0.5"/>
   </g>
   <g id="patch_32">
    <path d="M 119.741364 288.645994 
L 121.280313 288.645994 
L 121.280313 217.887233 
L 119.741364 217.887233 
z
" clip-path="url(#p471aa787e6)" style="fill: #1f77b4; opacity: 0.5"/>
   </g>
   <g id="patch_33">
    <path d="M 121.280313 288.645994 
L 122.819263 288.645994 
L 122.819263 212.292836 
L 121.280313 212.292836 
z
" clip-path="url(#p471aa787e6)" style="fill: #1f77b4; opacity: 0.5"/>
   </g>
   <g id="patch_34">
    <path d="M 122.819263 288.645994 
L 124.358213 288.645994 
L 124.358213 219.544832 
L 122.819263 219.544832 
z
" clip-path="url(#p471aa787e6)" style="fill: #1f77b4; opacity: 0.5"/>
   </g>
   <g id="patch_35">
    <path d="M 124.358213 288.645994 
L 125.897163 288.645994 
L 125.897163 224.724829 
L 124.358213 224.724829 
z
" clip-path="url(#p471aa787e6)" style="fill: #1f77b4; opacity: 0.5"/>
   </g>
   <g id="patch_36">
    <path d="M 125.897163 288.645994 
L 127.436113 288.645994 
L 127.436113 228.765227 
L 125.897163 228.765227 
z
" clip-path="url(#p471aa787e6)" style="fill: #1f77b4; opacity: 0.5"/>
   </g>
   <g id="patch_37">
    <path d="M 127.436113 288.645994 
L 128.975063 288.645994 
L 128.975063 218.612433 
L 127.436113 218.612433 
z
" clip-path="url(#p471aa787e6)" style="fill: #1f77b4; opacity: 0.5"/>
   </g>
   <g id="patch_38">
    <path d="M 128.975063 288.645994 
L 130.514013 288.645994 
L 130.514013 239.539621 
L 128.975063 239.539621 
z
" clip-path="url(#p471aa787e6)" style="fill: #1f77b4; opacity: 0.5"/>
   </g>
   <g id="patch_39">
    <path d="M 130.514013 288.645994 
L 132.052962 288.645994 
L 132.052962 244.201618 
L 130.514013 244.201618 
z
" clip-path="url(#p471aa787e6)" style="fill: #1f77b4; opacity: 0.5"/>
   </g>
   <g id="patch_40">
    <path d="M 132.052962 288.645994 
L 133.591912 288.645994 
L 133.591912 253.422013 
L 132.052962 253.422013 
z
" clip-path="url(#p471aa787e6)" style="fill: #1f77b4; opacity: 0.5"/>
   </g>
   <g id="patch_41">
    <path d="M 133.591912 288.645994 
L 135.130862 288.645994 
L 135.130862 250.728415 
L 133.591912 250.728415 
z
" clip-path="url(#p471aa787e6)" style="fill: #1f77b4; opacity: 0.5"/>
   </g>
   <g id="patch_42">
    <path d="M 135.130862 288.645994 
L 136.669812 288.645994 
L 136.669812 248.760016 
L 135.130862 248.760016 
z
" clip-path="url(#p471aa787e6)" style="fill: #1f77b4; opacity: 0.5"/>
   </g>
   <g id="patch_43">
    <path d="M 136.669812 288.645994 
L 138.208762 288.645994 
L 138.208762 254.354413 
L 136.669812 254.354413 
z
" clip-path="url(#p471aa787e6)" style="fill: #1f77b4; opacity: 0.5"/>
   </g>
   <g id="patch_44">
    <path d="M 138.208762 288.645994 
L 139.747712 288.645994 
L 139.747712 250.728415 
L 138.208762 250.728415 
z
" clip-path="url(#p471aa787e6)" style="fill: #1f77b4; opacity: 0.5"/>
   </g>
   <g id="patch_45">
    <path d="M 139.747712 288.645994 
L 141.286661 288.645994 
L 141.286661 261.399209 
L 139.747712 261.399209 
z
" clip-path="url(#p471aa787e6)" style="fill: #1f77b4; opacity: 0.5"/>
   </g>
   <g id="patch_46">
    <path d="M 141.286661 288.645994 
L 142.825611 288.645994 
L 142.825611 256.115612 
L 141.286661 256.115612 
z
" clip-path="url(#p471aa787e6)" style="fill: #1f77b4; opacity: 0.5"/>
   </g>
   <g id="patch_47">
    <path d="M 142.825611 288.645994 
L 144.364561 288.645994 
L 144.364561 256.322812 
L 142.825611 256.322812 
z
" clip-path="url(#p471aa787e6)" style="fill: #1f77b4; opacity: 0.5"/>
   </g>
   <g id="patch_48">
    <path d="M 144.364561 288.645994 
L 145.903511 288.645994 
L 145.903511 261.917208 
L 144.364561 261.917208 
z
" clip-path="url(#p471aa787e6)" style="fill: #1f77b4; opacity: 0.5"/>
   </g>
   <g id="patch_49">
    <path d="M 145.903511 288.645994 
L 147.442461 288.645994 
L 147.442461 261.295609 
L 145.903511 261.295609 
z
" clip-path="url(#p471aa787e6)" style="fill: #1f77b4; opacity: 0.5"/>
   </g>
   <g id="patch_50">
    <path d="M 147.442461 288.645994 
L 148.981411 288.645994 
L 148.981411 263.989207 
L 147.442461 263.989207 
z
" clip-path="url(#p471aa787e6)" style="fill: #1f77b4; opacity: 0.5"/>
   </g>
   <g id="patch_51">
    <path d="M 148.981411 288.645994 
L 150.520361 288.645994 
L 150.520361 263.989207 
L 148.981411 263.989207 
z
" clip-path="url(#p471aa787e6)" style="fill: #1f77b4; opacity: 0.5"/>
   </g>
   <g id="patch_52">
    <path d="M 150.520361 288.645994 
L 152.05931 288.645994 
L 152.05931 268.444005 
L 150.520361 268.444005 
z
" clip-path="url(#p471aa787e6)" style="fill: #1f77b4; opacity: 0.5"/>
   </g>
   <g id="patch_53">
    <path d="M 152.05931 288.645994 
L 153.59826 288.645994 
L 153.59826 271.552003 
L 152.05931 271.552003 
z
" clip-path="url(#p471aa787e6)" style="fill: #1f77b4; opacity: 0.5"/>
   </g>
   <g id="patch_54">
    <path d="M 153.59826 288.645994 
L 155.13721 288.645994 
L 155.13721 274.038402 
L 153.59826 274.038402 
z
" clip-path="url(#p471aa787e6)" style="fill: #1f77b4; opacity: 0.5"/>
   </g>
   <g id="patch_55">
    <path d="M 155.13721 288.645994 
L 156.67616 288.645994 
L 156.67616 271.966403 
L 155.13721 271.966403 
z
" clip-path="url(#p471aa787e6)" style="fill: #1f77b4; opacity: 0.5"/>
   </g>
   <g id="patch_56">
    <path d="M 156.67616 288.645994 
L 158.21511 288.645994 
L 158.21511 277.1464 
L 156.67616 277.1464 
z
" clip-path="url(#p471aa787e6)" style="fill: #1f77b4; opacity: 0.5"/>
   </g>
   <g id="patch_57">
    <path d="M 158.21511 288.645994 
L 159.75406 288.645994 
L 159.75406 274.970801 
L 158.21511 274.970801 
z
" clip-path="url(#p471aa787e6)" style="fill: #1f77b4; opacity: 0.5"/>
   </g>
   <g id="patch_58">
    <path d="M 159.75406 288.645994 
L 161.293009 288.645994 
L 161.293009 273.002402 
L 159.75406 273.002402 
z
" clip-path="url(#p471aa787e6)" style="fill: #1f77b4; opacity: 0.5"/>
   </g>
   <g id="patch_59">
    <path d="M 161.293009 288.645994 
L 162.831959 288.645994 
L 162.831959 274.763601 
L 161.293009 274.763601 
z
" clip-path="url(#p471aa787e6)" style="fill: #1f77b4; opacity: 0.5"/>
   </g>
   <g id="patch_60">
    <path d="M 162.831959 288.645994 
L 164.370909 288.645994 
L 164.370909 274.452801 
L 162.831959 274.452801 
z
" clip-path="url(#p471aa787e6)" style="fill: #1f77b4; opacity: 0.5"/>
   </g>
   <g id="patch_61">
    <path d="M 164.370909 288.645994 
L 165.909859 288.645994 
L 165.909859 272.898802 
L 164.370909 272.898802 
z
" clip-path="url(#p471aa787e6)" style="fill: #1f77b4; opacity: 0.5"/>
   </g>
   <g id="patch_62">
    <path d="M 165.909859 288.645994 
L 167.448809 288.645994 
L 167.448809 274.763601 
L 165.909859 274.763601 
z
" clip-path="url(#p471aa787e6)" style="fill: #1f77b4; opacity: 0.5"/>
   </g>
   <g id="patch_63">
    <path d="M 167.448809 288.645994 
L 168.987759 288.645994 
L 168.987759 276.4212 
L 167.448809 276.4212 
z
" clip-path="url(#p471aa787e6)" style="fill: #1f77b4; opacity: 0.5"/>
   </g>
   <g id="patch_64">
    <path d="M 168.987759 288.645994 
L 170.526708 288.645994 
L 170.526708 276.6284 
L 168.987759 276.6284 
z
" clip-path="url(#p471aa787e6)" style="fill: #1f77b4; opacity: 0.5"/>
   </g>
   <g id="patch_65">
    <path d="M 170.526708 288.645994 
L 172.065658 288.645994 
L 172.065658 275.903201 
L 170.526708 275.903201 
z
" clip-path="url(#p471aa787e6)" style="fill: #1f77b4; opacity: 0.5"/>
   </g>
   <g id="patch_66">
    <path d="M 172.065658 288.645994 
L 173.604608 288.645994 
L 173.604608 276.5248 
L 172.065658 276.5248 
z
" clip-path="url(#p471aa787e6)" style="fill: #1f77b4; opacity: 0.5"/>
   </g>
   <g id="patch_67">
    <path d="M 173.604608 288.645994 
L 175.143558 288.645994 
L 175.143558 280.565198 
L 173.604608 280.565198 
z
" clip-path="url(#p471aa787e6)" style="fill: #1f77b4; opacity: 0.5"/>
   </g>
   <g id="patch_68">
    <path d="M 175.143558 288.645994 
L 176.682508 288.645994 
L 176.682508 279.321999 
L 175.143558 279.321999 
z
" clip-path="url(#p471aa787e6)" style="fill: #1f77b4; opacity: 0.5"/>
   </g>
   <g id="patch_69">
    <path d="M 176.682508 288.645994 
L 178.221458 288.645994 
L 178.221458 282.326397 
L 176.682508 282.326397 
z
" clip-path="url(#p471aa787e6)" style="fill: #1f77b4; opacity: 0.5"/>
   </g>
   <g id="patch_70">
    <path d="M 178.221458 288.645994 
L 179.760408 288.645994 
L 179.760408 281.497598 
L 178.221458 281.497598 
z
" clip-path="url(#p471aa787e6)" style="fill: #1f77b4; opacity: 0.5"/>
   </g>
   <g id="patch_71">
    <path d="M 179.760408 288.645994 
L 181.299357 288.645994 
L 181.299357 280.979598 
L 179.760408 280.979598 
z
" clip-path="url(#p471aa787e6)" style="fill: #1f77b4; opacity: 0.5"/>
   </g>
   <g id="patch_72">
    <path d="M 181.299357 288.645994 
L 182.838307 288.645994 
L 182.838307 282.844397 
L 181.299357 282.844397 
z
" clip-path="url(#p471aa787e6)" style="fill: #1f77b4; opacity: 0.5"/>
   </g>
   <g id="patch_73">
    <path d="M 182.838307 288.645994 
L 184.377257 288.645994 
L 184.377257 282.637197 
L 182.838307 282.637197 
z
" clip-path="url(#p471aa787e6)" style="fill: #1f77b4; opacity: 0.5"/>
   </g>
   <g id="patch_74">
    <path d="M 184.377257 288.645994 
L 185.916207 288.645994 
L 185.916207 283.673196 
L 184.377257 283.673196 
z
" clip-path="url(#p471aa787e6)" style="fill: #1f77b4; opacity: 0.5"/>
   </g>
   <g id="patch_75">
    <path d="M 185.916207 288.645994 
L 187.455157 288.645994 
L 187.455157 284.605596 
L 185.916207 284.605596 
z
" clip-path="url(#p471aa787e6)" style="fill: #1f77b4; opacity: 0.5"/>
   </g>
   <g id="patch_76">
    <path d="M 187.455157 288.645994 
L 188.994107 288.645994 
L 188.994107 284.812796 
L 187.455157 284.812796 
z
" clip-path="url(#p471aa787e6)" style="fill: #1f77b4; opacity: 0.5"/>
   </g>
   <g id="patch_77">
    <path d="M 188.994107 288.645994 
L 190.533056 288.645994 
L 190.533056 285.123596 
L 188.994107 285.123596 
z
" clip-path="url(#p471aa787e6)" style="fill: #1f77b4; opacity: 0.5"/>
   </g>
   <g id="patch_78">
    <path d="M 190.533056 288.645994 
L 192.072006 288.645994 
L 192.072006 286.366795 
L 190.533056 286.366795 
z
" clip-path="url(#p471aa787e6)" style="fill: #1f77b4; opacity: 0.5"/>
   </g>
   <g id="patch_79">
    <path d="M 192.072006 288.645994 
L 193.610956 288.645994 
L 193.610956 285.641595 
L 192.072006 285.641595 
z
" clip-path="url(#p471aa787e6)" style="fill: #1f77b4; opacity: 0.5"/>
   </g>
   <g id="patch_80">
    <path d="M 193.610956 288.645994 
L 195.149906 288.645994 
L 195.149906 285.848795 
L 193.610956 285.848795 
z
" clip-path="url(#p471aa787e6)" style="fill: #1f77b4; opacity: 0.5"/>
   </g>
   <g id="patch_81">
    <path d="M 195.149906 288.645994 
L 196.688856 288.645994 
L 196.688856 286.263195 
L 195.149906 286.263195 
z
" clip-path="url(#p471aa787e6)" style="fill: #1f77b4; opacity: 0.5"/>
   </g>
   <g id="patch_82">
    <path d="M 196.688856 288.645994 
L 198.227806 288.645994 
L 198.227806 287.713594 
L 196.688856 287.713594 
z
" clip-path="url(#p471aa787e6)" style="fill: #1f77b4; opacity: 0.5"/>
   </g>
   <g id="patch_83">
    <path d="M 198.227806 288.645994 
L 199.766755 288.645994 
L 199.766755 286.263195 
L 198.227806 286.263195 
z
" clip-path="url(#p471aa787e6)" style="fill: #1f77b4; opacity: 0.5"/>
   </g>
   <g id="patch_84">
    <path d="M 199.766755 288.645994 
L 201.305705 288.645994 
L 201.305705 286.263195 
L 199.766755 286.263195 
z
" clip-path="url(#p471aa787e6)" style="fill: #1f77b4; opacity: 0.5"/>
   </g>
   <g id="patch_85">
    <path d="M 201.305705 288.645994 
L 202.844655 288.645994 
L 202.844655 286.573995 
L 201.305705 286.573995 
z
" clip-path="url(#p471aa787e6)" style="fill: #1f77b4; opacity: 0.5"/>
   </g>
   <g id="patch_86">
    <path d="M 202.844655 288.645994 
L 204.383605 288.645994 
L 204.383605 286.470395 
L 202.844655 286.470395 
z
" clip-path="url(#p471aa787e6)" style="fill: #1f77b4; opacity: 0.5"/>
   </g>
   <g id="patch_87">
    <path d="M 204.383605 288.645994 
L 205.922555 288.645994 
L 205.922555 288.127994 
L 204.383605 288.127994 
z
" clip-path="url(#p471aa787e6)" style="fill: #1f77b4; opacity: 0.5"/>
   </g>
   <g id="patch_88">
    <path d="M 205.922555 288.645994 
L 207.461505 288.645994 
L 207.461505 287.402794 
L 205.922555 287.402794 
z
" clip-path="url(#p471aa787e6)" style="fill: #1f77b4; opacity: 0.5"/>
   </g>
   <g id="patch_89">
    <path d="M 207.461505 288.645994 
L 209.000455 288.645994 
L 209.000455 285.848795 
L 207.461505 285.848795 
z
" clip-path="url(#p471aa787e6)" style="fill: #1f77b4; opacity: 0.5"/>
   </g>
   <g id="patch_90">
    <path d="M 209.000455 288.645994 
L 210.539404 288.645994 
L 210.539404 286.781195 
L 209.000455 286.781195 
z
" clip-path="url(#p471aa787e6)" style="fill: #1f77b4; opacity: 0.5"/>
   </g>
   <g id="patch_91">
    <path d="M 210.539404 288.645994 
L 212.078354 288.645994 
L 212.078354 287.195594 
L 210.539404 287.195594 
z
" clip-path="url(#p471aa787e6)" style="fill: #1f77b4; opacity: 0.5"/>
   </g>
   <g id="patch_92">
    <path d="M 212.078354 288.645994 
L 213.617304 288.645994 
L 213.617304 288.127994 
L 212.078354 288.127994 
z
" clip-path="url(#p471aa787e6)" style="fill: #1f77b4; opacity: 0.5"/>
   </g>
   <g id="patch_93">
    <path d="M 213.617304 288.645994 
L 215.156254 288.645994 
L 215.156254 288.438794 
L 213.617304 288.438794 
z
" clip-path="url(#p471aa787e6)" style="fill: #1f77b4; opacity: 0.5"/>
   </g>
   <g id="patch_94">
    <path d="M 215.156254 288.645994 
L 216.695204 288.645994 
L 216.695204 287.609994 
L 215.156254 287.609994 
z
" clip-path="url(#p471aa787e6)" style="fill: #1f77b4; opacity: 0.5"/>
   </g>
   <g id="patch_95">
    <path d="M 216.695204 288.645994 
L 218.234154 288.645994 
L 218.234154 288.127994 
L 216.695204 288.127994 
z
" clip-path="url(#p471aa787e6)" style="fill: #1f77b4; opacity: 0.5"/>
   </g>
   <g id="patch_96">
    <path d="M 218.234154 288.645994 
L 219.773103 288.645994 
L 219.773103 288.335194 
L 218.234154 288.335194 
z
" clip-path="url(#p471aa787e6)" style="fill: #1f77b4; opacity: 0.5"/>
   </g>
   <g id="patch_97">
    <path d="M 219.773103 288.645994 
L 221.312053 288.645994 
L 221.312053 288.438794 
L 219.773103 288.438794 
z
" clip-path="url(#p471aa787e6)" style="fill: #1f77b4; opacity: 0.5"/>
   </g>
   <g id="patch_98">
    <path d="M 221.312053 288.645994 
L 222.851003 288.645994 
L 222.851003 288.542394 
L 221.312053 288.542394 
z
" clip-path="url(#p471aa787e6)" style="fill: #1f77b4; opacity: 0.5"/>
   </g>
   <g id="patch_99">
    <path d="M 222.851003 288.645994 
L 224.389953 288.645994 
L 224.389953 288.335194 
L 222.851003 288.335194 
z
" clip-path="url(#p471aa787e6)" style="fill: #1f77b4; opacity: 0.5"/>
   </g>
   <g id="patch_100">
    <path d="M 224.389953 288.645994 
L 225.928903 288.645994 
L 225.928903 288.335194 
L 224.389953 288.335194 
z
" clip-path="url(#p471aa787e6)" style="fill: #1f77b4; opacity: 0.5"/>
   </g>
   <g id="patch_101">
    <path d="M 225.928903 288.645994 
L 227.467853 288.645994 
L 227.467853 288.438794 
L 225.928903 288.438794 
z
" clip-path="url(#p471aa787e6)" style="fill: #1f77b4; opacity: 0.5"/>
   </g>
   <g id="patch_102">
    <path d="M 227.467853 288.645994 
L 229.006803 288.645994 
L 229.006803 288.645994 
L 227.467853 288.645994 
z
" clip-path="url(#p471aa787e6)" style="fill: #1f77b4; opacity: 0.5"/>
   </g>
   <g id="patch_103">
    <path d="M 229.006803 288.645994 
L 230.545752 288.645994 
L 230.545752 288.438794 
L 229.006803 288.438794 
z
" clip-path="url(#p471aa787e6)" style="fill: #1f77b4; opacity: 0.5"/>
   </g>
   <g id="patch_104">
    <path d="M 230.545752 288.645994 
L 232.084702 288.645994 
L 232.084702 288.645994 
L 230.545752 288.645994 
z
" clip-path="url(#p471aa787e6)" style="fill: #1f77b4; opacity: 0.5"/>
   </g>
   <g id="patch_105">
    <path d="M 232.084702 288.645994 
L 233.623652 288.645994 
L 233.623652 288.645994 
L 232.084702 288.645994 
z
" clip-path="url(#p471aa787e6)" style="fill: #1f77b4; opacity: 0.5"/>
   </g>
   <g id="patch_106">
    <path d="M 233.623652 288.645994 
L 235.162602 288.645994 
L 235.162602 288.645994 
L 233.623652 288.645994 
z
" clip-path="url(#p471aa787e6)" style="fill: #1f77b4; opacity: 0.5"/>
   </g>
   <g id="patch_107">
    <path d="M 235.162602 288.645994 
L 236.701552 288.645994 
L 236.701552 288.335194 
L 235.162602 288.335194 
z
" clip-path="url(#p471aa787e6)" style="fill: #1f77b4; opacity: 0.5"/>
   </g>
   <g id="patch_108">
    <path d="M 236.701552 288.645994 
L 238.240502 288.645994 
L 238.240502 288.645994 
L 236.701552 288.645994 
z
" clip-path="url(#p471aa787e6)" style="fill: #1f77b4; opacity: 0.5"/>
   </g>
   <g id="patch_109">
    <path d="M 238.240502 288.645994 
L 239.779451 288.645994 
L 239.779451 288.127994 
L 238.240502 288.127994 
z
" clip-path="url(#p471aa787e6)" style="fill: #1f77b4; opacity: 0.5"/>
   </g>
   <g id="patch_110">
    <path d="M 239.779451 288.645994 
L 241.318401 288.645994 
L 241.318401 288.645994 
L 239.779451 288.645994 
z
" clip-path="url(#p471aa787e6)" style="fill: #1f77b4; opacity: 0.5"/>
   </g>
   <g id="patch_111">
    <path d="M 241.318401 288.645994 
L 242.857351 288.645994 
L 242.857351 288.645994 
L 241.318401 288.645994 
z
" clip-path="url(#p471aa787e6)" style="fill: #1f77b4; opacity: 0.5"/>
   </g>
   <g id="patch_112">
    <path d="M 242.857351 288.645994 
L 244.396301 288.645994 
L 244.396301 288.438794 
L 242.857351 288.438794 
z
" clip-path="url(#p471aa787e6)" style="fill: #1f77b4; opacity: 0.5"/>
   </g>
   <g id="patch_113">
    <path d="M 244.396301 288.645994 
L 245.935251 288.645994 
L 245.935251 288.645994 
L 244.396301 288.645994 
z
" clip-path="url(#p471aa787e6)" style="fill: #1f77b4; opacity: 0.5"/>
   </g>
   <g id="patch_114">
    <path d="M 245.935251 288.645994 
L 247.474201 288.645994 
L 247.474201 288.645994 
L 245.935251 288.645994 
z
" clip-path="url(#p471aa787e6)" style="fill: #1f77b4; opacity: 0.5"/>
   </g>
   <g id="patch_115">
    <path d="M 247.474201 288.645994 
L 249.01315 288.645994 
L 249.01315 288.645994 
L 247.474201 288.645994 
z
" clip-path="url(#p471aa787e6)" style="fill: #1f77b4; opacity: 0.5"/>
   </g>
   <g id="patch_116">
    <path d="M 249.01315 288.645994 
L 250.5521 288.645994 
L 250.5521 288.645994 
L 249.01315 288.645994 
z
" clip-path="url(#p471aa787e6)" style="fill: #1f77b4; opacity: 0.5"/>
   </g>
   <g id="patch_117">
    <path d="M 250.5521 288.645994 
L 252.09105 288.645994 
L 252.09105 288.438794 
L 250.5521 288.438794 
z
" clip-path="url(#p471aa787e6)" style="fill: #1f77b4; opacity: 0.5"/>
   </g>
   <g id="patch_118">
    <path d="M 252.09105 288.645994 
L 253.63 288.645994 
L 253.63 288.438794 
L 252.09105 288.438794 
z
" clip-path="url(#p471aa787e6)" style="fill: #1f77b4; opacity: 0.5"/>
   </g>
   <g id="patch_119">
    <path d="M 253.63 288.645994 
L 255.16895 288.645994 
L 255.16895 288.542394 
L 253.63 288.542394 
z
" clip-path="url(#p471aa787e6)" style="fill: #1f77b4; opacity: 0.5"/>
   </g>
   <g id="patch_120">
    <path d="M 255.16895 288.645994 
L 256.7079 288.645994 
L 256.7079 288.645994 
L 255.16895 288.645994 
z
" clip-path="url(#p471aa787e6)" style="fill: #1f77b4; opacity: 0.5"/>
   </g>
   <g id="patch_121">
    <path d="M 256.7079 288.645994 
L 258.24685 288.645994 
L 258.24685 288.645994 
L 256.7079 288.645994 
z
" clip-path="url(#p471aa787e6)" style="fill: #1f77b4; opacity: 0.5"/>
   </g>
   <g id="patch_122">
    <path d="M 258.24685 288.645994 
L 259.785799 288.645994 
L 259.785799 288.645994 
L 258.24685 288.645994 
z
" clip-path="url(#p471aa787e6)" style="fill: #1f77b4; opacity: 0.5"/>
   </g>
   <g id="patch_123">
    <path d="M 259.785799 288.645994 
L 261.324749 288.645994 
L 261.324749 288.645994 
L 259.785799 288.645994 
z
" clip-path="url(#p471aa787e6)" style="fill: #1f77b4; opacity: 0.5"/>
   </g>
   <g id="patch_124">
    <path d="M 261.324749 288.645994 
L 262.863699 288.645994 
L 262.863699 288.645994 
L 261.324749 288.645994 
z
" clip-path="url(#p471aa787e6)" style="fill: #1f77b4; opacity: 0.5"/>
   </g>
   <g id="patch_125">
    <path d="M 262.863699 288.645994 
L 264.402649 288.645994 
L 264.402649 288.645994 
L 262.863699 288.645994 
z
" clip-path="url(#p471aa787e6)" style="fill: #1f77b4; opacity: 0.5"/>
   </g>
   <g id="patch_126">
    <path d="M 264.402649 288.645994 
L 265.941599 288.645994 
L 265.941599 288.645994 
L 264.402649 288.645994 
z
" clip-path="url(#p471aa787e6)" style="fill: #1f77b4; opacity: 0.5"/>
   </g>
   <g id="patch_127">
    <path d="M 265.941599 288.645994 
L 267.480549 288.645994 
L 267.480549 288.645994 
L 265.941599 288.645994 
z
" clip-path="url(#p471aa787e6)" style="fill: #1f77b4; opacity: 0.5"/>
   </g>
   <g id="patch_128">
    <path d="M 267.480549 288.645994 
L 269.019498 288.645994 
L 269.019498 288.645994 
L 267.480549 288.645994 
z
" clip-path="url(#p471aa787e6)" style="fill: #1f77b4; opacity: 0.5"/>
   </g>
   <g id="patch_129">
    <path d="M 269.019498 288.645994 
L 270.558448 288.645994 
L 270.558448 288.645994 
L 269.019498 288.645994 
z
" clip-path="url(#p471aa787e6)" style="fill: #1f77b4; opacity: 0.5"/>
   </g>
   <g id="patch_130">
    <path d="M 270.558448 288.645994 
L 272.097398 288.645994 
L 272.097398 288.231594 
L 270.558448 288.231594 
z
" clip-path="url(#p471aa787e6)" style="fill: #1f77b4; opacity: 0.5"/>
   </g>
   <g id="patch_131">
    <path d="M 272.097398 288.645994 
L 273.636348 288.645994 
L 273.636348 288.645994 
L 272.097398 288.645994 
z
" clip-path="url(#p471aa787e6)" style="fill: #1f77b4; opacity: 0.5"/>
   </g>
   <g id="patch_132">
    <path d="M 273.636348 288.645994 
L 275.175298 288.645994 
L 275.175298 288.438794 
L 273.636348 288.438794 
z
" clip-path="url(#p471aa787e6)" style="fill: #1f77b4; opacity: 0.5"/>
   </g>
   <g id="patch_133">
    <path d="M 275.175298 288.645994 
L 276.714248 288.645994 
L 276.714248 288.645994 
L 275.175298 288.645994 
z
" clip-path="url(#p471aa787e6)" style="fill: #1f77b4; opacity: 0.5"/>
   </g>
   <g id="patch_134">
    <path d="M 276.714248 288.645994 
L 278.253197 288.645994 
L 278.253197 288.645994 
L 276.714248 288.645994 
z
" clip-path="url(#p471aa787e6)" style="fill: #1f77b4; opacity: 0.5"/>
   </g>
   <g id="patch_135">
    <path d="M 278.253197 288.645994 
L 279.792147 288.645994 
L 279.792147 288.645994 
L 278.253197 288.645994 
z
" clip-path="url(#p471aa787e6)" style="fill: #1f77b4; opacity: 0.5"/>
   </g>
   <g id="patch_136">
    <path d="M 279.792147 288.645994 
L 281.331097 288.645994 
L 281.331097 288.645994 
L 279.792147 288.645994 
z
" clip-path="url(#p471aa787e6)" style="fill: #1f77b4; opacity: 0.5"/>
   </g>
   <g id="patch_137">
    <path d="M 281.331097 288.645994 
L 282.870047 288.645994 
L 282.870047 288.645994 
L 281.331097 288.645994 
z
" clip-path="url(#p471aa787e6)" style="fill: #1f77b4; opacity: 0.5"/>
   </g>
   <g id="patch_138">
    <path d="M 282.870047 288.645994 
L 284.408997 288.645994 
L 284.408997 288.542394 
L 282.870047 288.542394 
z
" clip-path="url(#p471aa787e6)" style="fill: #1f77b4; opacity: 0.5"/>
   </g>
   <g id="patch_139">
    <path d="M 284.408997 288.645994 
L 285.947947 288.645994 
L 285.947947 288.542394 
L 284.408997 288.542394 
z
" clip-path="url(#p471aa787e6)" style="fill: #1f77b4; opacity: 0.5"/>
   </g>
   <g id="patch_140">
    <path d="M 285.947947 288.645994 
L 287.486897 288.645994 
L 287.486897 288.645994 
L 285.947947 288.645994 
z
" clip-path="url(#p471aa787e6)" style="fill: #1f77b4; opacity: 0.5"/>
   </g>
   <g id="patch_141">
    <path d="M 287.486897 288.645994 
L 289.025846 288.645994 
L 289.025846 288.645994 
L 287.486897 288.645994 
z
" clip-path="url(#p471aa787e6)" style="fill: #1f77b4; opacity: 0.5"/>
   </g>
   <g id="patch_142">
    <path d="M 289.025846 288.645994 
L 290.564796 288.645994 
L 290.564796 288.645994 
L 289.025846 288.645994 
z
" clip-path="url(#p471aa787e6)" style="fill: #1f77b4; opacity: 0.5"/>
   </g>
   <g id="patch_143">
    <path d="M 290.564796 288.645994 
L 292.103746 288.645994 
L 292.103746 288.645994 
L 290.564796 288.645994 
z
" clip-path="url(#p471aa787e6)" style="fill: #1f77b4; opacity: 0.5"/>
   </g>
   <g id="patch_144">
    <path d="M 292.103746 288.645994 
L 293.642696 288.645994 
L 293.642696 288.645994 
L 292.103746 288.645994 
z
" clip-path="url(#p471aa787e6)" style="fill: #1f77b4; opacity: 0.5"/>
   </g>
   <g id="patch_145">
    <path d="M 293.642696 288.645994 
L 295.181646 288.645994 
L 295.181646 288.645994 
L 293.642696 288.645994 
z
" clip-path="url(#p471aa787e6)" style="fill: #1f77b4; opacity: 0.5"/>
   </g>
   <g id="patch_146">
    <path d="M 295.181646 288.645994 
L 296.720596 288.645994 
L 296.720596 288.645994 
L 295.181646 288.645994 
z
" clip-path="url(#p471aa787e6)" style="fill: #1f77b4; opacity: 0.5"/>
   </g>
   <g id="patch_147">
    <path d="M 296.720596 288.645994 
L 298.259545 288.645994 
L 298.259545 288.438794 
L 296.720596 288.438794 
z
" clip-path="url(#p471aa787e6)" style="fill: #1f77b4; opacity: 0.5"/>
   </g>
   <g id="patch_148">
    <path d="M 298.259545 288.645994 
L 299.798495 288.645994 
L 299.798495 288.645994 
L 298.259545 288.645994 
z
" clip-path="url(#p471aa787e6)" style="fill: #1f77b4; opacity: 0.5"/>
   </g>
   <g id="patch_149">
    <path d="M 299.798495 288.645994 
L 301.337445 288.645994 
L 301.337445 288.645994 
L 299.798495 288.645994 
z
" clip-path="url(#p471aa787e6)" style="fill: #1f77b4; opacity: 0.5"/>
   </g>
   <g id="patch_150">
    <path d="M 301.337445 288.645994 
L 302.876395 288.645994 
L 302.876395 288.645994 
L 301.337445 288.645994 
z
" clip-path="url(#p471aa787e6)" style="fill: #1f77b4; opacity: 0.5"/>
   </g>
   <g id="patch_151">
    <path d="M 302.876395 288.645994 
L 304.415345 288.645994 
L 304.415345 288.645994 
L 302.876395 288.645994 
z
" clip-path="url(#p471aa787e6)" style="fill: #1f77b4; opacity: 0.5"/>
   </g>
   <g id="patch_152">
    <path d="M 304.415345 288.645994 
L 305.954295 288.645994 
L 305.954295 288.645994 
L 304.415345 288.645994 
z
" clip-path="url(#p471aa787e6)" style="fill: #1f77b4; opacity: 0.5"/>
   </g>
   <g id="patch_153">
    <path d="M 305.954295 288.645994 
L 307.493245 288.645994 
L 307.493245 288.645994 
L 305.954295 288.645994 
z
" clip-path="url(#p471aa787e6)" style="fill: #1f77b4; opacity: 0.5"/>
   </g>
   <g id="patch_154">
    <path d="M 307.493245 288.645994 
L 309.032194 288.645994 
L 309.032194 288.645994 
L 307.493245 288.645994 
z
" clip-path="url(#p471aa787e6)" style="fill: #1f77b4; opacity: 0.5"/>
   </g>
   <g id="patch_155">
    <path d="M 309.032194 288.645994 
L 310.571144 288.645994 
L 310.571144 288.438794 
L 309.032194 288.438794 
z
" clip-path="url(#p471aa787e6)" style="fill: #1f77b4; opacity: 0.5"/>
   </g>
   <g id="patch_156">
    <path d="M 310.571144 288.645994 
L 312.110094 288.645994 
L 312.110094 288.645994 
L 310.571144 288.645994 
z
" clip-path="url(#p471aa787e6)" style="fill: #1f77b4; opacity: 0.5"/>
   </g>
   <g id="patch_157">
    <path d="M 312.110094 288.645994 
L 313.649044 288.645994 
L 313.649044 288.645994 
L 312.110094 288.645994 
z
" clip-path="url(#p471aa787e6)" style="fill: #1f77b4; opacity: 0.5"/>
   </g>
   <g id="patch_158">
    <path d="M 313.649044 288.645994 
L 315.187994 288.645994 
L 315.187994 288.542394 
L 313.649044 288.542394 
z
" clip-path="url(#p471aa787e6)" style="fill: #1f77b4; opacity: 0.5"/>
   </g>
   <g id="patch_159">
    <path d="M 315.187994 288.645994 
L 316.726944 288.645994 
L 316.726944 288.438794 
L 315.187994 288.438794 
z
" clip-path="url(#p471aa787e6)" style="fill: #1f77b4; opacity: 0.5"/>
   </g>
   <g id="patch_160">
    <path d="M 316.726944 288.645994 
L 318.265893 288.645994 
L 318.265893 288.438794 
L 316.726944 288.438794 
z
" clip-path="url(#p471aa787e6)" style="fill: #1f77b4; opacity: 0.5"/>
   </g>
   <g id="patch_161">
    <path d="M 318.265893 288.645994 
L 319.804843 288.645994 
L 319.804843 288.542394 
L 318.265893 288.542394 
z
" clip-path="url(#p471aa787e6)" style="fill: #1f77b4; opacity: 0.5"/>
   </g>
   <g id="patch_162">
    <path d="M 319.804843 288.645994 
L 321.343793 288.645994 
L 321.343793 288.645994 
L 319.804843 288.645994 
z
" clip-path="url(#p471aa787e6)" style="fill: #1f77b4; opacity: 0.5"/>
   </g>
   <g id="patch_163">
    <path d="M 321.343793 288.645994 
L 322.882743 288.645994 
L 322.882743 288.645994 
L 321.343793 288.645994 
z
" clip-path="url(#p471aa787e6)" style="fill: #1f77b4; opacity: 0.5"/>
   </g>
   <g id="patch_164">
    <path d="M 322.882743 288.645994 
L 324.421693 288.645994 
L 324.421693 288.645994 
L 322.882743 288.645994 
z
" clip-path="url(#p471aa787e6)" style="fill: #1f77b4; opacity: 0.5"/>
   </g>
   <g id="patch_165">
    <path d="M 324.421693 288.645994 
L 325.960643 288.645994 
L 325.960643 288.645994 
L 324.421693 288.645994 
z
" clip-path="url(#p471aa787e6)" style="fill: #1f77b4; opacity: 0.5"/>
   </g>
   <g id="patch_166">
    <path d="M 325.960643 288.645994 
L 327.499592 288.645994 
L 327.499592 288.645994 
L 325.960643 288.645994 
z
" clip-path="url(#p471aa787e6)" style="fill: #1f77b4; opacity: 0.5"/>
   </g>
   <g id="patch_167">
    <path d="M 327.499592 288.645994 
L 329.038542 288.645994 
L 329.038542 288.645994 
L 327.499592 288.645994 
z
" clip-path="url(#p471aa787e6)" style="fill: #1f77b4; opacity: 0.5"/>
   </g>
   <g id="patch_168">
    <path d="M 329.038542 288.645994 
L 330.577492 288.645994 
L 330.577492 288.645994 
L 329.038542 288.645994 
z
" clip-path="url(#p471aa787e6)" style="fill: #1f77b4; opacity: 0.5"/>
   </g>
   <g id="patch_169">
    <path d="M 330.577492 288.645994 
L 332.116442 288.645994 
L 332.116442 288.645994 
L 330.577492 288.645994 
z
" clip-path="url(#p471aa787e6)" style="fill: #1f77b4; opacity: 0.5"/>
   </g>
   <g id="patch_170">
    <path d="M 332.116442 288.645994 
L 333.655392 288.645994 
L 333.655392 288.645994 
L 332.116442 288.645994 
z
" clip-path="url(#p471aa787e6)" style="fill: #1f77b4; opacity: 0.5"/>
   </g>
   <g id="patch_171">
    <path d="M 333.655392 288.645994 
L 335.194342 288.645994 
L 335.194342 288.645994 
L 333.655392 288.645994 
z
" clip-path="url(#p471aa787e6)" style="fill: #1f77b4; opacity: 0.5"/>
   </g>
   <g id="patch_172">
    <path d="M 335.194342 288.645994 
L 336.733292 288.645994 
L 336.733292 288.645994 
L 335.194342 288.645994 
z
" clip-path="url(#p471aa787e6)" style="fill: #1f77b4; opacity: 0.5"/>
   </g>
   <g id="patch_173">
    <path d="M 336.733292 288.645994 
L 338.272241 288.645994 
L 338.272241 288.645994 
L 336.733292 288.645994 
z
" clip-path="url(#p471aa787e6)" style="fill: #1f77b4; opacity: 0.5"/>
   </g>
   <g id="patch_174">
    <path d="M 338.272241 288.645994 
L 339.811191 288.645994 
L 339.811191 288.645994 
L 338.272241 288.645994 
z
" clip-path="url(#p471aa787e6)" style="fill: #1f77b4; opacity: 0.5"/>
   </g>
   <g id="patch_175">
    <path d="M 339.811191 288.645994 
L 341.350141 288.645994 
L 341.350141 288.645994 
L 339.811191 288.645994 
z
" clip-path="url(#p471aa787e6)" style="fill: #1f77b4; opacity: 0.5"/>
   </g>
   <g id="patch_176">
    <path d="M 341.350141 288.645994 
L 342.889091 288.645994 
L 342.889091 288.645994 
L 341.350141 288.645994 
z
" clip-path="url(#p471aa787e6)" style="fill: #1f77b4; opacity: 0.5"/>
   </g>
   <g id="patch_177">
    <path d="M 342.889091 288.645994 
L 344.428041 288.645994 
L 344.428041 288.645994 
L 342.889091 288.645994 
z
" clip-path="url(#p471aa787e6)" style="fill: #1f77b4; opacity: 0.5"/>
   </g>
   <g id="patch_178">
    <path d="M 344.428041 288.645994 
L 345.966991 288.645994 
L 345.966991 288.645994 
L 344.428041 288.645994 
z
" clip-path="url(#p471aa787e6)" style="fill: #1f77b4; opacity: 0.5"/>
   </g>
   <g id="patch_179">
    <path d="M 345.966991 288.645994 
L 347.50594 288.645994 
L 347.50594 288.645994 
L 345.966991 288.645994 
z
" clip-path="url(#p471aa787e6)" style="fill: #1f77b4; opacity: 0.5"/>
   </g>
   <g id="patch_180">
    <path d="M 347.50594 288.645994 
L 349.04489 288.645994 
L 349.04489 288.645994 
L 347.50594 288.645994 
z
" clip-path="url(#p471aa787e6)" style="fill: #1f77b4; opacity: 0.5"/>
   </g>
   <g id="patch_181">
    <path d="M 349.04489 288.645994 
L 350.58384 288.645994 
L 350.58384 288.645994 
L 349.04489 288.645994 
z
" clip-path="url(#p471aa787e6)" style="fill: #1f77b4; opacity: 0.5"/>
   </g>
   <g id="patch_182">
    <path d="M 350.58384 288.645994 
L 352.12279 288.645994 
L 352.12279 288.645994 
L 350.58384 288.645994 
z
" clip-path="url(#p471aa787e6)" style="fill: #1f77b4; opacity: 0.5"/>
   </g>
   <g id="patch_183">
    <path d="M 352.12279 288.645994 
L 353.66174 288.645994 
L 353.66174 288.645994 
L 352.12279 288.645994 
z
" clip-path="url(#p471aa787e6)" style="fill: #1f77b4; opacity: 0.5"/>
   </g>
   <g id="patch_184">
    <path d="M 353.66174 288.645994 
L 355.20069 288.645994 
L 355.20069 288.645994 
L 353.66174 288.645994 
z
" clip-path="url(#p471aa787e6)" style="fill: #1f77b4; opacity: 0.5"/>
   </g>
   <g id="patch_185">
    <path d="M 355.20069 288.645994 
L 356.739639 288.645994 
L 356.739639 288.645994 
L 355.20069 288.645994 
z
" clip-path="url(#p471aa787e6)" style="fill: #1f77b4; opacity: 0.5"/>
   </g>
   <g id="patch_186">
    <path d="M 356.739639 288.645994 
L 358.278589 288.645994 
L 358.278589 288.645994 
L 356.739639 288.645994 
z
" clip-path="url(#p471aa787e6)" style="fill: #1f77b4; opacity: 0.5"/>
   </g>
   <g id="patch_187">
    <path d="M 358.278589 288.645994 
L 359.817539 288.645994 
L 359.817539 288.645994 
L 358.278589 288.645994 
z
" clip-path="url(#p471aa787e6)" style="fill: #1f77b4; opacity: 0.5"/>
   </g>
   <g id="patch_188">
    <path d="M 359.817539 288.645994 
L 361.356489 288.645994 
L 361.356489 288.645994 
L 359.817539 288.645994 
z
" clip-path="url(#p471aa787e6)" style="fill: #1f77b4; opacity: 0.5"/>
   </g>
   <g id="patch_189">
    <path d="M 361.356489 288.645994 
L 362.895439 288.645994 
L 362.895439 288.645994 
L 361.356489 288.645994 
z
" clip-path="url(#p471aa787e6)" style="fill: #1f77b4; opacity: 0.5"/>
   </g>
   <g id="patch_190">
    <path d="M 362.895439 288.645994 
L 364.434389 288.645994 
L 364.434389 288.645994 
L 362.895439 288.645994 
z
" clip-path="url(#p471aa787e6)" style="fill: #1f77b4; opacity: 0.5"/>
   </g>
   <g id="patch_191">
    <path d="M 364.434389 288.645994 
L 365.973339 288.645994 
L 365.973339 288.645994 
L 364.434389 288.645994 
z
" clip-path="url(#p471aa787e6)" style="fill: #1f77b4; opacity: 0.5"/>
   </g>
   <g id="patch_192">
    <path d="M 365.973339 288.645994 
L 367.512288 288.645994 
L 367.512288 288.645994 
L 365.973339 288.645994 
z
" clip-path="url(#p471aa787e6)" style="fill: #1f77b4; opacity: 0.5"/>
   </g>
   <g id="patch_193">
    <path d="M 367.512288 288.645994 
L 369.051238 288.645994 
L 369.051238 288.645994 
L 367.512288 288.645994 
z
" clip-path="url(#p471aa787e6)" style="fill: #1f77b4; opacity: 0.5"/>
   </g>
   <g id="patch_194">
    <path d="M 369.051238 288.645994 
L 370.590188 288.645994 
L 370.590188 288.645994 
L 369.051238 288.645994 
z
" clip-path="url(#p471aa787e6)" style="fill: #1f77b4; opacity: 0.5"/>
   </g>
   <g id="patch_195">
    <path d="M 370.590188 288.645994 
L 372.129138 288.645994 
L 372.129138 288.645994 
L 370.590188 288.645994 
z
" clip-path="url(#p471aa787e6)" style="fill: #1f77b4; opacity: 0.5"/>
   </g>
   <g id="patch_196">
    <path d="M 372.129138 288.645994 
L 373.668088 288.645994 
L 373.668088 288.645994 
L 372.129138 288.645994 
z
" clip-path="url(#p471aa787e6)" style="fill: #1f77b4; opacity: 0.5"/>
   </g>
   <g id="patch_197">
    <path d="M 373.668088 288.645994 
L 375.207038 288.645994 
L 375.207038 288.645994 
L 373.668088 288.645994 
z
" clip-path="url(#p471aa787e6)" style="fill: #1f77b4; opacity: 0.5"/>
   </g>
   <g id="patch_198">
    <path d="M 375.207038 288.645994 
L 376.745987 288.645994 
L 376.745987 288.645994 
L 375.207038 288.645994 
z
" clip-path="url(#p471aa787e6)" style="fill: #1f77b4; opacity: 0.5"/>
   </g>
   <g id="patch_199">
    <path d="M 376.745987 288.645994 
L 378.284937 288.645994 
L 378.284937 288.645994 
L 376.745987 288.645994 
z
" clip-path="url(#p471aa787e6)" style="fill: #1f77b4; opacity: 0.5"/>
   </g>
   <g id="patch_200">
    <path d="M 378.284937 288.645994 
L 379.823887 288.645994 
L 379.823887 288.645994 
L 378.284937 288.645994 
z
" clip-path="url(#p471aa787e6)" style="fill: #1f77b4; opacity: 0.5"/>
   </g>
   <g id="patch_201">
    <path d="M 379.823887 288.645994 
L 381.362837 288.645994 
L 381.362837 288.645994 
L 379.823887 288.645994 
z
" clip-path="url(#p471aa787e6)" style="fill: #1f77b4; opacity: 0.5"/>
   </g>
   <g id="patch_202">
    <path d="M 381.362837 288.645994 
L 382.901787 288.645994 
L 382.901787 288.645994 
L 381.362837 288.645994 
z
" clip-path="url(#p471aa787e6)" style="fill: #1f77b4; opacity: 0.5"/>
   </g>
   <g id="patch_203">
    <path d="M 382.901787 288.645994 
L 384.440737 288.645994 
L 384.440737 288.645994 
L 382.901787 288.645994 
z
" clip-path="url(#p471aa787e6)" style="fill: #1f77b4; opacity: 0.5"/>
   </g>
   <g id="patch_204">
    <path d="M 384.440737 288.645994 
L 385.979687 288.645994 
L 385.979687 288.645994 
L 384.440737 288.645994 
z
" clip-path="url(#p471aa787e6)" style="fill: #1f77b4; opacity: 0.5"/>
   </g>
   <g id="patch_205">
    <path d="M 385.979687 288.645994 
L 387.518636 288.645994 
L 387.518636 288.645994 
L 385.979687 288.645994 
z
" clip-path="url(#p471aa787e6)" style="fill: #1f77b4; opacity: 0.5"/>
   </g>
   <g id="patch_206">
    <path d="M 387.518636 288.645994 
L 389.057586 288.645994 
L 389.057586 288.645994 
L 387.518636 288.645994 
z
" clip-path="url(#p471aa787e6)" style="fill: #1f77b4; opacity: 0.5"/>
   </g>
   <g id="patch_207">
    <path d="M 389.057586 288.645994 
L 390.596536 288.645994 
L 390.596536 288.645994 
L 389.057586 288.645994 
z
" clip-path="url(#p471aa787e6)" style="fill: #1f77b4; opacity: 0.5"/>
   </g>
   <g id="patch_208">
    <path d="M 390.596536 288.645994 
L 392.135486 288.645994 
L 392.135486 288.645994 
L 390.596536 288.645994 
z
" clip-path="url(#p471aa787e6)" style="fill: #1f77b4; opacity: 0.5"/>
   </g>
   <g id="patch_209">
    <path d="M 392.135486 288.645994 
L 393.674436 288.645994 
L 393.674436 288.645994 
L 392.135486 288.645994 
z
" clip-path="url(#p471aa787e6)" style="fill: #1f77b4; opacity: 0.5"/>
   </g>
   <g id="patch_210">
    <path d="M 393.674436 288.645994 
L 395.213386 288.645994 
L 395.213386 288.645994 
L 393.674436 288.645994 
z
" clip-path="url(#p471aa787e6)" style="fill: #1f77b4; opacity: 0.5"/>
   </g>
   <g id="patch_211">
    <path d="M 395.213386 288.645994 
L 396.752335 288.645994 
L 396.752335 288.645994 
L 395.213386 288.645994 
z
" clip-path="url(#p471aa787e6)" style="fill: #1f77b4; opacity: 0.5"/>
   </g>
   <g id="patch_212">
    <path d="M 396.752335 288.645994 
L 398.291285 288.645994 
L 398.291285 288.645994 
L 396.752335 288.645994 
z
" clip-path="url(#p471aa787e6)" style="fill: #1f77b4; opacity: 0.5"/>
   </g>
   <g id="patch_213">
    <path d="M 398.291285 288.645994 
L 399.830235 288.645994 
L 399.830235 288.645994 
L 398.291285 288.645994 
z
" clip-path="url(#p471aa787e6)" style="fill: #1f77b4; opacity: 0.5"/>
   </g>
   <g id="patch_214">
    <path d="M 399.830235 288.645994 
L 401.369185 288.645994 
L 401.369185 288.645994 
L 399.830235 288.645994 
z
" clip-path="url(#p471aa787e6)" style="fill: #1f77b4; opacity: 0.5"/>
   </g>
   <g id="patch_215">
    <path d="M 401.369185 288.645994 
L 402.908135 288.645994 
L 402.908135 288.645994 
L 401.369185 288.645994 
z
" clip-path="url(#p471aa787e6)" style="fill: #1f77b4; opacity: 0.5"/>
   </g>
   <g id="patch_216">
    <path d="M 402.908135 288.645994 
L 404.447085 288.645994 
L 404.447085 288.645994 
L 402.908135 288.645994 
z
" clip-path="url(#p471aa787e6)" style="fill: #1f77b4; opacity: 0.5"/>
   </g>
   <g id="patch_217">
    <path d="M 404.447085 288.645994 
L 405.986034 288.645994 
L 405.986034 288.645994 
L 404.447085 288.645994 
z
" clip-path="url(#p471aa787e6)" style="fill: #1f77b4; opacity: 0.5"/>
   </g>
   <g id="patch_218">
    <path d="M 405.986034 288.645994 
L 407.524984 288.645994 
L 407.524984 288.645994 
L 405.986034 288.645994 
z
" clip-path="url(#p471aa787e6)" style="fill: #1f77b4; opacity: 0.5"/>
   </g>
   <g id="patch_219">
    <path d="M 407.524984 288.645994 
L 409.063934 288.645994 
L 409.063934 288.645994 
L 407.524984 288.645994 
z
" clip-path="url(#p471aa787e6)" style="fill: #1f77b4; opacity: 0.5"/>
   </g>
   <g id="patch_220">
    <path d="M 409.063934 288.645994 
L 410.602884 288.645994 
L 410.602884 288.645994 
L 409.063934 288.645994 
z
" clip-path="url(#p471aa787e6)" style="fill: #1f77b4; opacity: 0.5"/>
   </g>
   <g id="patch_221">
    <path d="M 410.602884 288.645994 
L 412.141834 288.645994 
L 412.141834 288.645994 
L 410.602884 288.645994 
z
" clip-path="url(#p471aa787e6)" style="fill: #1f77b4; opacity: 0.5"/>
   </g>
   <g id="patch_222">
    <path d="M 412.141834 288.645994 
L 413.680784 288.645994 
L 413.680784 288.645994 
L 412.141834 288.645994 
z
" clip-path="url(#p471aa787e6)" style="fill: #1f77b4; opacity: 0.5"/>
   </g>
   <g id="patch_223">
    <path d="M 413.680784 288.645994 
L 415.219734 288.645994 
L 415.219734 288.645994 
L 413.680784 288.645994 
z
" clip-path="url(#p471aa787e6)" style="fill: #1f77b4; opacity: 0.5"/>
   </g>
   <g id="patch_224">
    <path d="M 415.219734 288.645994 
L 416.758683 288.645994 
L 416.758683 288.645994 
L 415.219734 288.645994 
z
" clip-path="url(#p471aa787e6)" style="fill: #1f77b4; opacity: 0.5"/>
   </g>
   <g id="patch_225">
    <path d="M 416.758683 288.645994 
L 418.297633 288.645994 
L 418.297633 288.645994 
L 416.758683 288.645994 
z
" clip-path="url(#p471aa787e6)" style="fill: #1f77b4; opacity: 0.5"/>
   </g>
   <g id="patch_226">
    <path d="M 418.297633 288.645994 
L 419.836583 288.645994 
L 419.836583 288.645994 
L 418.297633 288.645994 
z
" clip-path="url(#p471aa787e6)" style="fill: #1f77b4; opacity: 0.5"/>
   </g>
   <g id="patch_227">
    <path d="M 419.836583 288.645994 
L 421.375533 288.645994 
L 421.375533 288.645994 
L 419.836583 288.645994 
z
" clip-path="url(#p471aa787e6)" style="fill: #1f77b4; opacity: 0.5"/>
   </g>
   <g id="patch_228">
    <path d="M 421.375533 288.645994 
L 422.914483 288.645994 
L 422.914483 288.645994 
L 421.375533 288.645994 
z
" clip-path="url(#p471aa787e6)" style="fill: #1f77b4; opacity: 0.5"/>
   </g>
   <g id="patch_229">
    <path d="M 422.914483 288.645994 
L 424.453433 288.645994 
L 424.453433 288.645994 
L 422.914483 288.645994 
z
" clip-path="url(#p471aa787e6)" style="fill: #1f77b4; opacity: 0.5"/>
   </g>
   <g id="patch_230">
    <path d="M 424.453433 288.645994 
L 425.992382 288.645994 
L 425.992382 288.645994 
L 424.453433 288.645994 
z
" clip-path="url(#p471aa787e6)" style="fill: #1f77b4; opacity: 0.5"/>
   </g>
   <g id="patch_231">
    <path d="M 425.992382 288.645994 
L 427.531332 288.645994 
L 427.531332 288.645994 
L 425.992382 288.645994 
z
" clip-path="url(#p471aa787e6)" style="fill: #1f77b4; opacity: 0.5"/>
   </g>
   <g id="patch_232">
    <path d="M 427.531332 288.645994 
L 429.070282 288.645994 
L 429.070282 288.645994 
L 427.531332 288.645994 
z
" clip-path="url(#p471aa787e6)" style="fill: #1f77b4; opacity: 0.5"/>
   </g>
   <g id="patch_233">
    <path d="M 429.070282 288.645994 
L 430.609232 288.645994 
L 430.609232 288.645994 
L 429.070282 288.645994 
z
" clip-path="url(#p471aa787e6)" style="fill: #1f77b4; opacity: 0.5"/>
   </g>
   <g id="patch_234">
    <path d="M 430.609232 288.645994 
L 432.148182 288.645994 
L 432.148182 288.438794 
L 430.609232 288.438794 
z
" clip-path="url(#p471aa787e6)" style="fill: #1f77b4; opacity: 0.5"/>
   </g>
   <g id="matplotlib.axis_1">
    <g id="xtick_1">
     <g id="line2d_1">
      <defs>
       <path id="m7aabf622ce" d="M 0 0 
L 0 3.5 
" style="stroke: #000000; stroke-width: 0.8"/>
      </defs>
      <g>
       <use xlink:href="#m7aabf622ce" x="73.318498" y="288.645994" style="stroke: #000000; stroke-width: 0.8"/>
      </g>
     </g>
     <g id="text_1">
      <!-- 0 -->
      <g transform="translate(73.020188 305.517867) rotate(-45) scale(0.1 -0.1)">
       <defs>
        <path id="DejaVuSans-30" d="M 2034 4250 
Q 1547 4250 1301 3770 
Q 1056 3291 1056 2328 
Q 1056 1369 1301 889 
Q 1547 409 2034 409 
Q 2525 409 2770 889 
Q 3016 1369 3016 2328 
Q 3016 3291 2770 3770 
Q 2525 4250 2034 4250 
z
M 2034 4750 
Q 2819 4750 3233 4129 
Q 3647 3509 3647 2328 
Q 3647 1150 3233 529 
Q 2819 -91 2034 -91 
Q 1250 -91 836 529 
Q 422 1150 422 2328 
Q 422 3509 836 4129 
Q 1250 4750 2034 4750 
z
" transform="scale(0.015625)"/>
       </defs>
       <use xlink:href="#DejaVuSans-30"/>
      </g>
     </g>
    </g>
    <g id="xtick_2">
     <g id="line2d_2">
      <g>
       <use xlink:href="#m7aabf622ce" x="132.495376" y="288.645994" style="stroke: #000000; stroke-width: 0.8"/>
      </g>
     </g>
     <g id="text_2">
      <!-- 500 -->
      <g transform="translate(127.698098 314.515801) rotate(-45) scale(0.1 -0.1)">
       <defs>
        <path id="DejaVuSans-35" d="M 691 4666 
L 3169 4666 
L 3169 4134 
L 1269 4134 
L 1269 2991 
Q 1406 3038 1543 3061 
Q 1681 3084 1819 3084 
Q 2600 3084 3056 2656 
Q 3513 2228 3513 1497 
Q 3513 744 3044 326 
Q 2575 -91 1722 -91 
Q 1428 -91 1123 -41 
Q 819 9 494 109 
L 494 744 
Q 775 591 1075 516 
Q 1375 441 1709 441 
Q 2250 441 2565 725 
Q 2881 1009 2881 1497 
Q 2881 1984 2565 2268 
Q 2250 2553 1709 2553 
Q 1456 2553 1204 2497 
Q 953 2441 691 2322 
L 691 4666 
z
" transform="scale(0.015625)"/>
       </defs>
       <use xlink:href="#DejaVuSans-35"/>
       <use xlink:href="#DejaVuSans-30" x="63.623047"/>
       <use xlink:href="#DejaVuSans-30" x="127.246094"/>
      </g>
     </g>
    </g>
    <g id="xtick_3">
     <g id="line2d_3">
      <g>
       <use xlink:href="#m7aabf622ce" x="191.672253" y="288.645994" style="stroke: #000000; stroke-width: 0.8"/>
      </g>
     </g>
     <g id="text_3">
      <!-- 1000 -->
      <g transform="translate(184.625492 319.014768) rotate(-45) scale(0.1 -0.1)">
       <defs>
        <path id="DejaVuSans-31" d="M 794 531 
L 1825 531 
L 1825 4091 
L 703 3866 
L 703 4441 
L 1819 4666 
L 2450 4666 
L 2450 531 
L 3481 531 
L 3481 0 
L 794 0 
L 794 531 
z
" transform="scale(0.015625)"/>
       </defs>
       <use xlink:href="#DejaVuSans-31"/>
       <use xlink:href="#DejaVuSans-30" x="63.623047"/>
       <use xlink:href="#DejaVuSans-30" x="127.246094"/>
       <use xlink:href="#DejaVuSans-30" x="190.869141"/>
      </g>
     </g>
    </g>
    <g id="xtick_4">
     <g id="line2d_4">
      <g>
       <use xlink:href="#m7aabf622ce" x="250.849131" y="288.645994" style="stroke: #000000; stroke-width: 0.8"/>
      </g>
     </g>
     <g id="text_4">
      <!-- 1500 -->
      <g transform="translate(243.80237 319.014768) rotate(-45) scale(0.1 -0.1)">
       <use xlink:href="#DejaVuSans-31"/>
       <use xlink:href="#DejaVuSans-35" x="63.623047"/>
       <use xlink:href="#DejaVuSans-30" x="127.246094"/>
       <use xlink:href="#DejaVuSans-30" x="190.869141"/>
      </g>
     </g>
    </g>
    <g id="xtick_5">
     <g id="line2d_5">
      <g>
       <use xlink:href="#m7aabf622ce" x="310.026008" y="288.645994" style="stroke: #000000; stroke-width: 0.8"/>
      </g>
     </g>
     <g id="text_5">
      <!-- 2000 -->
      <g transform="translate(302.979247 319.014768) rotate(-45) scale(0.1 -0.1)">
       <defs>
        <path id="DejaVuSans-32" d="M 1228 531 
L 3431 531 
L 3431 0 
L 469 0 
L 469 531 
Q 828 903 1448 1529 
Q 2069 2156 2228 2338 
Q 2531 2678 2651 2914 
Q 2772 3150 2772 3378 
Q 2772 3750 2511 3984 
Q 2250 4219 1831 4219 
Q 1534 4219 1204 4116 
Q 875 4013 500 3803 
L 500 4441 
Q 881 4594 1212 4672 
Q 1544 4750 1819 4750 
Q 2544 4750 2975 4387 
Q 3406 4025 3406 3419 
Q 3406 3131 3298 2873 
Q 3191 2616 2906 2266 
Q 2828 2175 2409 1742 
Q 1991 1309 1228 531 
z
" transform="scale(0.015625)"/>
       </defs>
       <use xlink:href="#DejaVuSans-32"/>
       <use xlink:href="#DejaVuSans-30" x="63.623047"/>
       <use xlink:href="#DejaVuSans-30" x="127.246094"/>
       <use xlink:href="#DejaVuSans-30" x="190.869141"/>
      </g>
     </g>
    </g>
    <g id="xtick_6">
     <g id="line2d_6">
      <g>
       <use xlink:href="#m7aabf622ce" x="369.202886" y="288.645994" style="stroke: #000000; stroke-width: 0.8"/>
      </g>
     </g>
     <g id="text_6">
      <!-- 2500 -->
      <g transform="translate(362.156125 319.014768) rotate(-45) scale(0.1 -0.1)">
       <use xlink:href="#DejaVuSans-32"/>
       <use xlink:href="#DejaVuSans-35" x="63.623047"/>
       <use xlink:href="#DejaVuSans-30" x="127.246094"/>
       <use xlink:href="#DejaVuSans-30" x="190.869141"/>
      </g>
     </g>
    </g>
    <g id="xtick_7">
     <g id="line2d_7">
      <g>
       <use xlink:href="#m7aabf622ce" x="428.379763" y="288.645994" style="stroke: #000000; stroke-width: 0.8"/>
      </g>
     </g>
     <g id="text_7">
      <!-- 3000 -->
      <g transform="translate(421.333002 319.014768) rotate(-45) scale(0.1 -0.1)">
       <defs>
        <path id="DejaVuSans-33" d="M 2597 2516 
Q 3050 2419 3304 2112 
Q 3559 1806 3559 1356 
Q 3559 666 3084 287 
Q 2609 -91 1734 -91 
Q 1441 -91 1130 -33 
Q 819 25 488 141 
L 488 750 
Q 750 597 1062 519 
Q 1375 441 1716 441 
Q 2309 441 2620 675 
Q 2931 909 2931 1356 
Q 2931 1769 2642 2001 
Q 2353 2234 1838 2234 
L 1294 2234 
L 1294 2753 
L 1863 2753 
Q 2328 2753 2575 2939 
Q 2822 3125 2822 3475 
Q 2822 3834 2567 4026 
Q 2313 4219 1838 4219 
Q 1578 4219 1281 4162 
Q 984 4106 628 3988 
L 628 4550 
Q 988 4650 1302 4700 
Q 1616 4750 1894 4750 
Q 2613 4750 3031 4423 
Q 3450 4097 3450 3541 
Q 3450 3153 3228 2886 
Q 3006 2619 2597 2516 
z
" transform="scale(0.015625)"/>
       </defs>
       <use xlink:href="#DejaVuSans-33"/>
       <use xlink:href="#DejaVuSans-30" x="63.623047"/>
       <use xlink:href="#DejaVuSans-30" x="127.246094"/>
       <use xlink:href="#DejaVuSans-30" x="190.869141"/>
      </g>
     </g>
    </g>
    <g id="text_8">
     <!-- Werte -->
     <g transform="translate(238.81125 332.083766) scale(0.1 -0.1)">
      <defs>
       <path id="DejaVuSans-57" d="M 213 4666 
L 850 4666 
L 1831 722 
L 2809 4666 
L 3519 4666 
L 4500 722 
L 5478 4666 
L 6119 4666 
L 4947 0 
L 4153 0 
L 3169 4050 
L 2175 0 
L 1381 0 
L 213 4666 
z
" transform="scale(0.015625)"/>
       <path id="DejaVuSans-65" d="M 3597 1894 
L 3597 1613 
L 953 1613 
Q 991 1019 1311 708 
Q 1631 397 2203 397 
Q 2534 397 2845 478 
Q 3156 559 3463 722 
L 3463 178 
Q 3153 47 2828 -22 
Q 2503 -91 2169 -91 
Q 1331 -91 842 396 
Q 353 884 353 1716 
Q 353 2575 817 3079 
Q 1281 3584 2069 3584 
Q 2775 3584 3186 3129 
Q 3597 2675 3597 1894 
z
M 3022 2063 
Q 3016 2534 2758 2815 
Q 2500 3097 2075 3097 
Q 1594 3097 1305 2825 
Q 1016 2553 972 2059 
L 3022 2063 
z
" transform="scale(0.015625)"/>
       <path id="DejaVuSans-72" d="M 2631 2963 
Q 2534 3019 2420 3045 
Q 2306 3072 2169 3072 
Q 1681 3072 1420 2755 
Q 1159 2438 1159 1844 
L 1159 0 
L 581 0 
L 581 3500 
L 1159 3500 
L 1159 2956 
Q 1341 3275 1631 3429 
Q 1922 3584 2338 3584 
Q 2397 3584 2469 3576 
Q 2541 3569 2628 3553 
L 2631 2963 
z
" transform="scale(0.015625)"/>
       <path id="DejaVuSans-74" d="M 1172 4494 
L 1172 3500 
L 2356 3500 
L 2356 3053 
L 1172 3053 
L 1172 1153 
Q 1172 725 1289 603 
Q 1406 481 1766 481 
L 2356 481 
L 2356 0 
L 1766 0 
Q 1100 0 847 248 
Q 594 497 594 1153 
L 594 3053 
L 172 3053 
L 172 3500 
L 594 3500 
L 594 4494 
L 1172 4494 
z
" transform="scale(0.015625)"/>
      </defs>
      <use xlink:href="#DejaVuSans-57"/>
      <use xlink:href="#DejaVuSans-65" x="93.001953"/>
      <use xlink:href="#DejaVuSans-72" x="154.525391"/>
      <use xlink:href="#DejaVuSans-74" x="195.638672"/>
      <use xlink:href="#DejaVuSans-65" x="234.847656"/>
     </g>
    </g>
   </g>
   <g id="matplotlib.axis_2">
    <g id="ytick_1">
     <g id="line2d_8">
      <defs>
       <path id="mf4c51ca5b9" d="M 0 0 
L -3.5 0 
" style="stroke: #000000; stroke-width: 0.8"/>
      </defs>
      <g>
       <use xlink:href="#mf4c51ca5b9" x="57.26" y="288.645994" style="stroke: #000000; stroke-width: 0.8"/>
      </g>
     </g>
     <g id="text_9">
      <!-- 0 -->
      <g transform="translate(43.8975 292.445212) scale(0.1 -0.1)">
       <use xlink:href="#DejaVuSans-30"/>
      </g>
     </g>
    </g>
    <g id="ytick_2">
     <g id="line2d_9">
      <g>
       <use xlink:href="#mf4c51ca5b9" x="57.26" y="236.846022" style="stroke: #000000; stroke-width: 0.8"/>
      </g>
     </g>
     <g id="text_10">
      <!-- 500 -->
      <g transform="translate(31.1725 240.645241) scale(0.1 -0.1)">
       <use xlink:href="#DejaVuSans-35"/>
       <use xlink:href="#DejaVuSans-30" x="63.623047"/>
       <use xlink:href="#DejaVuSans-30" x="127.246094"/>
      </g>
     </g>
    </g>
    <g id="ytick_3">
     <g id="line2d_10">
      <g>
       <use xlink:href="#mf4c51ca5b9" x="57.26" y="185.046051" style="stroke: #000000; stroke-width: 0.8"/>
      </g>
     </g>
     <g id="text_11">
      <!-- 1000 -->
      <g transform="translate(24.81 188.84527) scale(0.1 -0.1)">
       <use xlink:href="#DejaVuSans-31"/>
       <use xlink:href="#DejaVuSans-30" x="63.623047"/>
       <use xlink:href="#DejaVuSans-30" x="127.246094"/>
       <use xlink:href="#DejaVuSans-30" x="190.869141"/>
      </g>
     </g>
    </g>
    <g id="ytick_4">
     <g id="line2d_11">
      <g>
       <use xlink:href="#mf4c51ca5b9" x="57.26" y="133.24608" style="stroke: #000000; stroke-width: 0.8"/>
      </g>
     </g>
     <g id="text_12">
      <!-- 1500 -->
      <g transform="translate(24.81 137.045299) scale(0.1 -0.1)">
       <use xlink:href="#DejaVuSans-31"/>
       <use xlink:href="#DejaVuSans-35" x="63.623047"/>
       <use xlink:href="#DejaVuSans-30" x="127.246094"/>
       <use xlink:href="#DejaVuSans-30" x="190.869141"/>
      </g>
     </g>
    </g>
    <g id="ytick_5">
     <g id="line2d_12">
      <g>
       <use xlink:href="#mf4c51ca5b9" x="57.26" y="81.446109" style="stroke: #000000; stroke-width: 0.8"/>
      </g>
     </g>
     <g id="text_13">
      <!-- 2000 -->
      <g transform="translate(24.81 85.245328) scale(0.1 -0.1)">
       <use xlink:href="#DejaVuSans-32"/>
       <use xlink:href="#DejaVuSans-30" x="63.623047"/>
       <use xlink:href="#DejaVuSans-30" x="127.246094"/>
       <use xlink:href="#DejaVuSans-30" x="190.869141"/>
      </g>
     </g>
    </g>
    <g id="ytick_6">
     <g id="line2d_13">
      <g>
       <use xlink:href="#mf4c51ca5b9" x="57.26" y="29.646138" style="stroke: #000000; stroke-width: 0.8"/>
      </g>
     </g>
     <g id="text_14">
      <!-- 2500 -->
      <g transform="translate(24.81 33.445357) scale(0.1 -0.1)">
       <use xlink:href="#DejaVuSans-32"/>
       <use xlink:href="#DejaVuSans-35" x="63.623047"/>
       <use xlink:href="#DejaVuSans-30" x="127.246094"/>
       <use xlink:href="#DejaVuSans-30" x="190.869141"/>
      </g>
     </g>
    </g>
    <g id="text_15">
     <!-- Hufigkeit -->
     <g transform="translate(18.730313 182.859247) rotate(-90) scale(0.1 -0.1)">
      <defs>
       <path id="DejaVuSans-48" d="M 628 4666 
L 1259 4666 
L 1259 2753 
L 3553 2753 
L 3553 4666 
L 4184 4666 
L 4184 0 
L 3553 0 
L 3553 2222 
L 1259 2222 
L 1259 0 
L 628 0 
L 628 4666 
z
" transform="scale(0.015625)"/>
       <path id="DejaVuSans-e4" d="M 2194 1759 
Q 1497 1759 1228 1600 
Q 959 1441 959 1056 
Q 959 750 1161 570 
Q 1363 391 1709 391 
Q 2188 391 2477 730 
Q 2766 1069 2766 1631 
L 2766 1759 
L 2194 1759 
z
M 3341 1997 
L 3341 0 
L 2766 0 
L 2766 531 
Q 2569 213 2275 61 
Q 1981 -91 1556 -91 
Q 1019 -91 701 211 
Q 384 513 384 1019 
Q 384 1609 779 1909 
Q 1175 2209 1959 2209 
L 2766 2209 
L 2766 2266 
Q 2766 2663 2505 2880 
Q 2244 3097 1772 3097 
Q 1472 3097 1187 3025 
Q 903 2953 641 2809 
L 641 3341 
Q 956 3463 1253 3523 
Q 1550 3584 1831 3584 
Q 2591 3584 2966 3190 
Q 3341 2797 3341 1997 
z
M 2150 4850 
L 2784 4850 
L 2784 4219 
L 2150 4219 
L 2150 4850 
z
M 928 4850 
L 1563 4850 
L 1563 4219 
L 928 4219 
L 928 4850 
z
" transform="scale(0.015625)"/>
       <path id="DejaVuSans-75" d="M 544 1381 
L 544 3500 
L 1119 3500 
L 1119 1403 
Q 1119 906 1312 657 
Q 1506 409 1894 409 
Q 2359 409 2629 706 
Q 2900 1003 2900 1516 
L 2900 3500 
L 3475 3500 
L 3475 0 
L 2900 0 
L 2900 538 
Q 2691 219 2414 64 
Q 2138 -91 1772 -91 
Q 1169 -91 856 284 
Q 544 659 544 1381 
z
M 1991 3584 
L 1991 3584 
z
" transform="scale(0.015625)"/>
       <path id="DejaVuSans-66" d="M 2375 4863 
L 2375 4384 
L 1825 4384 
Q 1516 4384 1395 4259 
Q 1275 4134 1275 3809 
L 1275 3500 
L 2222 3500 
L 2222 3053 
L 1275 3053 
L 1275 0 
L 697 0 
L 697 3053 
L 147 3053 
L 147 3500 
L 697 3500 
L 697 3744 
Q 697 4328 969 4595 
Q 1241 4863 1831 4863 
L 2375 4863 
z
" transform="scale(0.015625)"/>
       <path id="DejaVuSans-69" d="M 603 3500 
L 1178 3500 
L 1178 0 
L 603 0 
L 603 3500 
z
M 603 4863 
L 1178 4863 
L 1178 4134 
L 603 4134 
L 603 4863 
z
" transform="scale(0.015625)"/>
       <path id="DejaVuSans-67" d="M 2906 1791 
Q 2906 2416 2648 2759 
Q 2391 3103 1925 3103 
Q 1463 3103 1205 2759 
Q 947 2416 947 1791 
Q 947 1169 1205 825 
Q 1463 481 1925 481 
Q 2391 481 2648 825 
Q 2906 1169 2906 1791 
z
M 3481 434 
Q 3481 -459 3084 -895 
Q 2688 -1331 1869 -1331 
Q 1566 -1331 1297 -1286 
Q 1028 -1241 775 -1147 
L 775 -588 
Q 1028 -725 1275 -790 
Q 1522 -856 1778 -856 
Q 2344 -856 2625 -561 
Q 2906 -266 2906 331 
L 2906 616 
Q 2728 306 2450 153 
Q 2172 0 1784 0 
Q 1141 0 747 490 
Q 353 981 353 1791 
Q 353 2603 747 3093 
Q 1141 3584 1784 3584 
Q 2172 3584 2450 3431 
Q 2728 3278 2906 2969 
L 2906 3500 
L 3481 3500 
L 3481 434 
z
" transform="scale(0.015625)"/>
       <path id="DejaVuSans-6b" d="M 581 4863 
L 1159 4863 
L 1159 1991 
L 2875 3500 
L 3609 3500 
L 1753 1863 
L 3688 0 
L 2938 0 
L 1159 1709 
L 1159 0 
L 581 0 
L 581 4863 
z
" transform="scale(0.015625)"/>
      </defs>
      <use xlink:href="#DejaVuSans-48"/>
      <use xlink:href="#DejaVuSans-e4" x="75.195312"/>
      <use xlink:href="#DejaVuSans-75" x="136.474609"/>
      <use xlink:href="#DejaVuSans-66" x="199.853516"/>
      <use xlink:href="#DejaVuSans-69" x="235.058594"/>
      <use xlink:href="#DejaVuSans-67" x="262.841797"/>
      <use xlink:href="#DejaVuSans-6b" x="326.318359"/>
      <use xlink:href="#DejaVuSans-65" x="380.603516"/>
      <use xlink:href="#DejaVuSans-69" x="442.126953"/>
      <use xlink:href="#DejaVuSans-74" x="469.910156"/>
     </g>
    </g>
   </g>
   <g id="patch_235">
    <path d="M 57.26 288.645994 
L 57.26 26.16 
" style="fill: none; stroke: #000000; stroke-width: 0.8; stroke-linejoin: miter; stroke-linecap: square"/>
   </g>
   <g id="patch_236">
    <path d="M 450 288.645994 
L 450 26.16 
" style="fill: none; stroke: #000000; stroke-width: 0.8; stroke-linejoin: miter; stroke-linecap: square"/>
   </g>
   <g id="patch_237">
    <path d="M 57.26 288.645994 
L 450 288.645994 
" style="fill: none; stroke: #000000; stroke-width: 0.8; stroke-linejoin: miter; stroke-linecap: square"/>
   </g>
   <g id="patch_238">
    <path d="M 57.26 26.16 
L 450 26.16 
" style="fill: none; stroke: #000000; stroke-width: 0.8; stroke-linejoin: miter; stroke-linecap: square"/>
   </g>
   <g id="text_16">
    <!-- attr_index -->
    <g transform="translate(223.365625 20.16) scale(0.12 -0.12)">
     <defs>
      <path id="DejaVuSans-61" d="M 2194 1759 
Q 1497 1759 1228 1600 
Q 959 1441 959 1056 
Q 959 750 1161 570 
Q 1363 391 1709 391 
Q 2188 391 2477 730 
Q 2766 1069 2766 1631 
L 2766 1759 
L 2194 1759 
z
M 3341 1997 
L 3341 0 
L 2766 0 
L 2766 531 
Q 2569 213 2275 61 
Q 1981 -91 1556 -91 
Q 1019 -91 701 211 
Q 384 513 384 1019 
Q 384 1609 779 1909 
Q 1175 2209 1959 2209 
L 2766 2209 
L 2766 2266 
Q 2766 2663 2505 2880 
Q 2244 3097 1772 3097 
Q 1472 3097 1187 3025 
Q 903 2953 641 2809 
L 641 3341 
Q 956 3463 1253 3523 
Q 1550 3584 1831 3584 
Q 2591 3584 2966 3190 
Q 3341 2797 3341 1997 
z
" transform="scale(0.015625)"/>
      <path id="DejaVuSans-5f" d="M 3263 -1063 
L 3263 -1509 
L -63 -1509 
L -63 -1063 
L 3263 -1063 
z
" transform="scale(0.015625)"/>
      <path id="DejaVuSans-6e" d="M 3513 2113 
L 3513 0 
L 2938 0 
L 2938 2094 
Q 2938 2591 2744 2837 
Q 2550 3084 2163 3084 
Q 1697 3084 1428 2787 
Q 1159 2491 1159 1978 
L 1159 0 
L 581 0 
L 581 3500 
L 1159 3500 
L 1159 2956 
Q 1366 3272 1645 3428 
Q 1925 3584 2291 3584 
Q 2894 3584 3203 3211 
Q 3513 2838 3513 2113 
z
" transform="scale(0.015625)"/>
      <path id="DejaVuSans-64" d="M 2906 2969 
L 2906 4863 
L 3481 4863 
L 3481 0 
L 2906 0 
L 2906 525 
Q 2725 213 2448 61 
Q 2172 -91 1784 -91 
Q 1150 -91 751 415 
Q 353 922 353 1747 
Q 353 2572 751 3078 
Q 1150 3584 1784 3584 
Q 2172 3584 2448 3432 
Q 2725 3281 2906 2969 
z
M 947 1747 
Q 947 1113 1208 752 
Q 1469 391 1925 391 
Q 2381 391 2643 752 
Q 2906 1113 2906 1747 
Q 2906 2381 2643 2742 
Q 2381 3103 1925 3103 
Q 1469 3103 1208 2742 
Q 947 2381 947 1747 
z
" transform="scale(0.015625)"/>
      <path id="DejaVuSans-78" d="M 3513 3500 
L 2247 1797 
L 3578 0 
L 2900 0 
L 1881 1375 
L 863 0 
L 184 0 
L 1544 1831 
L 300 3500 
L 978 3500 
L 1906 2253 
L 2834 3500 
L 3513 3500 
z
" transform="scale(0.015625)"/>
     </defs>
     <use xlink:href="#DejaVuSans-61"/>
     <use xlink:href="#DejaVuSans-74" x="61.279297"/>
     <use xlink:href="#DejaVuSans-74" x="100.488281"/>
     <use xlink:href="#DejaVuSans-72" x="139.697266"/>
     <use xlink:href="#DejaVuSans-5f" x="180.810547"/>
     <use xlink:href="#DejaVuSans-69" x="230.810547"/>
     <use xlink:href="#DejaVuSans-6e" x="258.59375"/>
     <use xlink:href="#DejaVuSans-64" x="321.972656"/>
     <use xlink:href="#DejaVuSans-65" x="385.449219"/>
     <use xlink:href="#DejaVuSans-78" x="445.222656"/>
    </g>
   </g>
  </g>
 </g>
 <defs>
  <clipPath id="p471aa787e6">
   <rect x="57.26" y="26.16" width="392.74" height="262.485994"/>
  </clipPath>
 </defs>
</svg>
