<?xml version="1.0" encoding="utf-8" standalone="no"?>
<!DOCTYPE svg PUBLIC "-//W3C//DTD SVG 1.1//EN"
  "http://www.w3.org/Graphics/SVG/1.1/DTD/svg11.dtd">
<svg xmlns:xlink="http://www.w3.org/1999/xlink" width="460.8pt" height="345.6pt" viewBox="0 0 460.8 345.6" xmlns="http://www.w3.org/2000/svg" version="1.1">
 <metadata>
  <rdf:RDF xmlns:dc="http://purl.org/dc/elements/1.1/" xmlns:cc="http://creativecommons.org/ns#" xmlns:rdf="http://www.w3.org/1999/02/22-rdf-syntax-ns#">
   <cc:Work>
    <dc:type rdf:resource="http://purl.org/dc/dcmitype/StillImage"/>
    <dc:date>2024-01-20T11:54:02.439560</dc:date>
    <dc:format>image/svg+xml</dc:format>
    <dc:creator>
     <cc:Agent>
      <dc:title>Matplotlib v3.8.0, https://matplotlib.org/</dc:title>
     </cc:Agent>
    </dc:creator>
   </cc:Work>
  </rdf:RDF>
 </metadata>
 <defs>
  <style type="text/css">*{stroke-linejoin: round; stroke-linecap: butt}</style>
 </defs>
 <g id="figure_1">
  <g id="patch_1">
   <path d="M 0 345.6 
L 460.8 345.6 
L 460.8 0 
L 0 0 
z
" style="fill: #ffffff"/>
  </g>
  <g id="axes_1">
   <g id="patch_2">
    <path d="M 63.605 297.619179 
L 450 297.619179 
L 450 26.16 
L 63.605 26.16 
z
" style="fill: #ffffff"/>
   </g>
   <g id="patch_3">
    <path d="M 81.168409 297.619179 
L 83.541843 297.619179 
L 83.541843 296.409886 
L 81.168409 296.409886 
z
" clip-path="url(#p3da37d9872)" style="fill: #1f77b4; opacity: 0.5"/>
   </g>
   <g id="patch_4">
    <path d="M 83.541843 297.619179 
L 85.915276 297.619179 
L 85.915276 297.619179 
L 83.541843 297.619179 
z
" clip-path="url(#p3da37d9872)" style="fill: #1f77b4; opacity: 0.5"/>
   </g>
   <g id="patch_5">
    <path d="M 85.915276 297.619179 
L 88.28871 297.619179 
L 88.28871 297.619179 
L 85.915276 297.619179 
z
" clip-path="url(#p3da37d9872)" style="fill: #1f77b4; opacity: 0.5"/>
   </g>
   <g id="patch_6">
    <path d="M 88.28871 297.619179 
L 90.662144 297.619179 
L 90.662144 297.619179 
L 88.28871 297.619179 
z
" clip-path="url(#p3da37d9872)" style="fill: #1f77b4; opacity: 0.5"/>
   </g>
   <g id="patch_7">
    <path d="M 90.662144 297.619179 
L 93.035577 297.619179 
L 93.035577 297.619179 
L 90.662144 297.619179 
z
" clip-path="url(#p3da37d9872)" style="fill: #1f77b4; opacity: 0.5"/>
   </g>
   <g id="patch_8">
    <path d="M 93.035577 297.619179 
L 95.409011 297.619179 
L 95.409011 297.619179 
L 93.035577 297.619179 
z
" clip-path="url(#p3da37d9872)" style="fill: #1f77b4; opacity: 0.5"/>
   </g>
   <g id="patch_9">
    <path d="M 95.409011 297.619179 
L 97.782445 297.619179 
L 97.782445 297.619179 
L 95.409011 297.619179 
z
" clip-path="url(#p3da37d9872)" style="fill: #1f77b4; opacity: 0.5"/>
   </g>
   <g id="patch_10">
    <path d="M 97.782445 297.619179 
L 100.155878 297.619179 
L 100.155878 297.619179 
L 97.782445 297.619179 
z
" clip-path="url(#p3da37d9872)" style="fill: #1f77b4; opacity: 0.5"/>
   </g>
   <g id="patch_11">
    <path d="M 100.155878 297.619179 
L 102.529312 297.619179 
L 102.529312 297.619179 
L 100.155878 297.619179 
z
" clip-path="url(#p3da37d9872)" style="fill: #1f77b4; opacity: 0.5"/>
   </g>
   <g id="patch_12">
    <path d="M 102.529312 297.619179 
L 104.902746 297.619179 
L 104.902746 297.619179 
L 102.529312 297.619179 
z
" clip-path="url(#p3da37d9872)" style="fill: #1f77b4; opacity: 0.5"/>
   </g>
   <g id="patch_13">
    <path d="M 104.902746 297.619179 
L 107.276179 297.619179 
L 107.276179 297.619179 
L 104.902746 297.619179 
z
" clip-path="url(#p3da37d9872)" style="fill: #1f77b4; opacity: 0.5"/>
   </g>
   <g id="patch_14">
    <path d="M 107.276179 297.619179 
L 109.649613 297.619179 
L 109.649613 297.619179 
L 107.276179 297.619179 
z
" clip-path="url(#p3da37d9872)" style="fill: #1f77b4; opacity: 0.5"/>
   </g>
   <g id="patch_15">
    <path d="M 109.649613 297.619179 
L 112.023047 297.619179 
L 112.023047 297.619179 
L 109.649613 297.619179 
z
" clip-path="url(#p3da37d9872)" style="fill: #1f77b4; opacity: 0.5"/>
   </g>
   <g id="patch_16">
    <path d="M 112.023047 297.619179 
L 114.39648 297.619179 
L 114.39648 297.619179 
L 112.023047 297.619179 
z
" clip-path="url(#p3da37d9872)" style="fill: #1f77b4; opacity: 0.5"/>
   </g>
   <g id="patch_17">
    <path d="M 114.39648 297.619179 
L 116.769914 297.619179 
L 116.769914 297.619179 
L 114.39648 297.619179 
z
" clip-path="url(#p3da37d9872)" style="fill: #1f77b4; opacity: 0.5"/>
   </g>
   <g id="patch_18">
    <path d="M 116.769914 297.619179 
L 119.143348 297.619179 
L 119.143348 297.619179 
L 116.769914 297.619179 
z
" clip-path="url(#p3da37d9872)" style="fill: #1f77b4; opacity: 0.5"/>
   </g>
   <g id="patch_19">
    <path d="M 119.143348 297.619179 
L 121.516781 297.619179 
L 121.516781 297.619179 
L 119.143348 297.619179 
z
" clip-path="url(#p3da37d9872)" style="fill: #1f77b4; opacity: 0.5"/>
   </g>
   <g id="patch_20">
    <path d="M 121.516781 297.619179 
L 123.890215 297.619179 
L 123.890215 297.619179 
L 121.516781 297.619179 
z
" clip-path="url(#p3da37d9872)" style="fill: #1f77b4; opacity: 0.5"/>
   </g>
   <g id="patch_21">
    <path d="M 123.890215 297.619179 
L 126.263649 297.619179 
L 126.263649 297.530909 
L 123.890215 297.530909 
z
" clip-path="url(#p3da37d9872)" style="fill: #1f77b4; opacity: 0.5"/>
   </g>
   <g id="patch_22">
    <path d="M 126.263649 297.619179 
L 128.637082 297.619179 
L 128.637082 297.619179 
L 126.263649 297.619179 
z
" clip-path="url(#p3da37d9872)" style="fill: #1f77b4; opacity: 0.5"/>
   </g>
   <g id="patch_23">
    <path d="M 128.637082 297.619179 
L 131.010516 297.619179 
L 131.010516 297.619179 
L 128.637082 297.619179 
z
" clip-path="url(#p3da37d9872)" style="fill: #1f77b4; opacity: 0.5"/>
   </g>
   <g id="patch_24">
    <path d="M 131.010516 297.619179 
L 133.38395 297.619179 
L 133.38395 297.619179 
L 131.010516 297.619179 
z
" clip-path="url(#p3da37d9872)" style="fill: #1f77b4; opacity: 0.5"/>
   </g>
   <g id="patch_25">
    <path d="M 133.38395 297.619179 
L 135.757383 297.619179 
L 135.757383 297.619179 
L 133.38395 297.619179 
z
" clip-path="url(#p3da37d9872)" style="fill: #1f77b4; opacity: 0.5"/>
   </g>
   <g id="patch_26">
    <path d="M 135.757383 297.619179 
L 138.130817 297.619179 
L 138.130817 297.619179 
L 135.757383 297.619179 
z
" clip-path="url(#p3da37d9872)" style="fill: #1f77b4; opacity: 0.5"/>
   </g>
   <g id="patch_27">
    <path d="M 138.130817 297.619179 
L 140.504251 297.619179 
L 140.504251 297.619179 
L 138.130817 297.619179 
z
" clip-path="url(#p3da37d9872)" style="fill: #1f77b4; opacity: 0.5"/>
   </g>
   <g id="patch_28">
    <path d="M 140.504251 297.619179 
L 142.877684 297.619179 
L 142.877684 297.619179 
L 140.504251 297.619179 
z
" clip-path="url(#p3da37d9872)" style="fill: #1f77b4; opacity: 0.5"/>
   </g>
   <g id="patch_29">
    <path d="M 142.877684 297.619179 
L 145.251118 297.619179 
L 145.251118 297.619179 
L 142.877684 297.619179 
z
" clip-path="url(#p3da37d9872)" style="fill: #1f77b4; opacity: 0.5"/>
   </g>
   <g id="patch_30">
    <path d="M 145.251118 297.619179 
L 147.624552 297.619179 
L 147.624552 297.619179 
L 145.251118 297.619179 
z
" clip-path="url(#p3da37d9872)" style="fill: #1f77b4; opacity: 0.5"/>
   </g>
   <g id="patch_31">
    <path d="M 147.624552 297.619179 
L 149.997985 297.619179 
L 149.997985 297.619179 
L 147.624552 297.619179 
z
" clip-path="url(#p3da37d9872)" style="fill: #1f77b4; opacity: 0.5"/>
   </g>
   <g id="patch_32">
    <path d="M 149.997985 297.619179 
L 152.371419 297.619179 
L 152.371419 297.619179 
L 149.997985 297.619179 
z
" clip-path="url(#p3da37d9872)" style="fill: #1f77b4; opacity: 0.5"/>
   </g>
   <g id="patch_33">
    <path d="M 152.371419 297.619179 
L 154.744853 297.619179 
L 154.744853 297.619179 
L 152.371419 297.619179 
z
" clip-path="url(#p3da37d9872)" style="fill: #1f77b4; opacity: 0.5"/>
   </g>
   <g id="patch_34">
    <path d="M 154.744853 297.619179 
L 157.118286 297.619179 
L 157.118286 297.619179 
L 154.744853 297.619179 
z
" clip-path="url(#p3da37d9872)" style="fill: #1f77b4; opacity: 0.5"/>
   </g>
   <g id="patch_35">
    <path d="M 157.118286 297.619179 
L 159.49172 297.619179 
L 159.49172 297.619179 
L 157.118286 297.619179 
z
" clip-path="url(#p3da37d9872)" style="fill: #1f77b4; opacity: 0.5"/>
   </g>
   <g id="patch_36">
    <path d="M 159.49172 297.619179 
L 161.865154 297.619179 
L 161.865154 297.619179 
L 159.49172 297.619179 
z
" clip-path="url(#p3da37d9872)" style="fill: #1f77b4; opacity: 0.5"/>
   </g>
   <g id="patch_37">
    <path d="M 161.865154 297.619179 
L 164.238587 297.619179 
L 164.238587 297.619179 
L 161.865154 297.619179 
z
" clip-path="url(#p3da37d9872)" style="fill: #1f77b4; opacity: 0.5"/>
   </g>
   <g id="patch_38">
    <path d="M 164.238587 297.619179 
L 166.612021 297.619179 
L 166.612021 297.619179 
L 164.238587 297.619179 
z
" clip-path="url(#p3da37d9872)" style="fill: #1f77b4; opacity: 0.5"/>
   </g>
   <g id="patch_39">
    <path d="M 166.612021 297.619179 
L 168.985455 297.619179 
L 168.985455 297.619179 
L 166.612021 297.619179 
z
" clip-path="url(#p3da37d9872)" style="fill: #1f77b4; opacity: 0.5"/>
   </g>
   <g id="patch_40">
    <path d="M 168.985455 297.619179 
L 171.358888 297.619179 
L 171.358888 296.365752 
L 168.985455 296.365752 
z
" clip-path="url(#p3da37d9872)" style="fill: #1f77b4; opacity: 0.5"/>
   </g>
   <g id="patch_41">
    <path d="M 171.358888 297.619179 
L 173.732322 297.619179 
L 173.732322 297.619179 
L 171.358888 297.619179 
z
" clip-path="url(#p3da37d9872)" style="fill: #1f77b4; opacity: 0.5"/>
   </g>
   <g id="patch_42">
    <path d="M 173.732322 297.619179 
L 176.105756 297.619179 
L 176.105756 297.619179 
L 173.732322 297.619179 
z
" clip-path="url(#p3da37d9872)" style="fill: #1f77b4; opacity: 0.5"/>
   </g>
   <g id="patch_43">
    <path d="M 176.105756 297.619179 
L 178.479189 297.619179 
L 178.479189 297.619179 
L 176.105756 297.619179 
z
" clip-path="url(#p3da37d9872)" style="fill: #1f77b4; opacity: 0.5"/>
   </g>
   <g id="patch_44">
    <path d="M 178.479189 297.619179 
L 180.852623 297.619179 
L 180.852623 297.619179 
L 178.479189 297.619179 
z
" clip-path="url(#p3da37d9872)" style="fill: #1f77b4; opacity: 0.5"/>
   </g>
   <g id="patch_45">
    <path d="M 180.852623 297.619179 
L 183.226057 297.619179 
L 183.226057 297.619179 
L 180.852623 297.619179 
z
" clip-path="url(#p3da37d9872)" style="fill: #1f77b4; opacity: 0.5"/>
   </g>
   <g id="patch_46">
    <path d="M 183.226057 297.619179 
L 185.59949 297.619179 
L 185.59949 297.619179 
L 183.226057 297.619179 
z
" clip-path="url(#p3da37d9872)" style="fill: #1f77b4; opacity: 0.5"/>
   </g>
   <g id="patch_47">
    <path d="M 185.59949 297.619179 
L 187.972924 297.619179 
L 187.972924 297.619179 
L 185.59949 297.619179 
z
" clip-path="url(#p3da37d9872)" style="fill: #1f77b4; opacity: 0.5"/>
   </g>
   <g id="patch_48">
    <path d="M 187.972924 297.619179 
L 190.346357 297.619179 
L 190.346357 297.619179 
L 187.972924 297.619179 
z
" clip-path="url(#p3da37d9872)" style="fill: #1f77b4; opacity: 0.5"/>
   </g>
   <g id="patch_49">
    <path d="M 190.346357 297.619179 
L 192.719791 297.619179 
L 192.719791 297.619179 
L 190.346357 297.619179 
z
" clip-path="url(#p3da37d9872)" style="fill: #1f77b4; opacity: 0.5"/>
   </g>
   <g id="patch_50">
    <path d="M 192.719791 297.619179 
L 195.093225 297.619179 
L 195.093225 297.619179 
L 192.719791 297.619179 
z
" clip-path="url(#p3da37d9872)" style="fill: #1f77b4; opacity: 0.5"/>
   </g>
   <g id="patch_51">
    <path d="M 195.093225 297.619179 
L 197.466658 297.619179 
L 197.466658 297.619179 
L 195.093225 297.619179 
z
" clip-path="url(#p3da37d9872)" style="fill: #1f77b4; opacity: 0.5"/>
   </g>
   <g id="patch_52">
    <path d="M 197.466658 297.619179 
L 199.840092 297.619179 
L 199.840092 297.619179 
L 197.466658 297.619179 
z
" clip-path="url(#p3da37d9872)" style="fill: #1f77b4; opacity: 0.5"/>
   </g>
   <g id="patch_53">
    <path d="M 199.840092 297.619179 
L 202.213526 297.619179 
L 202.213526 297.619179 
L 199.840092 297.619179 
z
" clip-path="url(#p3da37d9872)" style="fill: #1f77b4; opacity: 0.5"/>
   </g>
   <g id="patch_54">
    <path d="M 202.213526 297.619179 
L 204.586959 297.619179 
L 204.586959 297.619179 
L 202.213526 297.619179 
z
" clip-path="url(#p3da37d9872)" style="fill: #1f77b4; opacity: 0.5"/>
   </g>
   <g id="patch_55">
    <path d="M 204.586959 297.619179 
L 206.960393 297.619179 
L 206.960393 297.619179 
L 204.586959 297.619179 
z
" clip-path="url(#p3da37d9872)" style="fill: #1f77b4; opacity: 0.5"/>
   </g>
   <g id="patch_56">
    <path d="M 206.960393 297.619179 
L 209.333827 297.619179 
L 209.333827 297.619179 
L 206.960393 297.619179 
z
" clip-path="url(#p3da37d9872)" style="fill: #1f77b4; opacity: 0.5"/>
   </g>
   <g id="patch_57">
    <path d="M 209.333827 297.619179 
L 211.70726 297.619179 
L 211.70726 297.619179 
L 209.333827 297.619179 
z
" clip-path="url(#p3da37d9872)" style="fill: #1f77b4; opacity: 0.5"/>
   </g>
   <g id="patch_58">
    <path d="M 211.70726 297.619179 
L 214.080694 297.619179 
L 214.080694 296.868888 
L 211.70726 296.868888 
z
" clip-path="url(#p3da37d9872)" style="fill: #1f77b4; opacity: 0.5"/>
   </g>
   <g id="patch_59">
    <path d="M 214.080694 297.619179 
L 216.454128 297.619179 
L 216.454128 297.619179 
L 214.080694 297.619179 
z
" clip-path="url(#p3da37d9872)" style="fill: #1f77b4; opacity: 0.5"/>
   </g>
   <g id="patch_60">
    <path d="M 216.454128 297.619179 
L 218.827561 297.619179 
L 218.827561 297.619179 
L 216.454128 297.619179 
z
" clip-path="url(#p3da37d9872)" style="fill: #1f77b4; opacity: 0.5"/>
   </g>
   <g id="patch_61">
    <path d="M 218.827561 297.619179 
L 221.200995 297.619179 
L 221.200995 297.619179 
L 218.827561 297.619179 
z
" clip-path="url(#p3da37d9872)" style="fill: #1f77b4; opacity: 0.5"/>
   </g>
   <g id="patch_62">
    <path d="M 221.200995 297.619179 
L 223.574429 297.619179 
L 223.574429 297.619179 
L 221.200995 297.619179 
z
" clip-path="url(#p3da37d9872)" style="fill: #1f77b4; opacity: 0.5"/>
   </g>
   <g id="patch_63">
    <path d="M 223.574429 297.619179 
L 225.947862 297.619179 
L 225.947862 297.619179 
L 223.574429 297.619179 
z
" clip-path="url(#p3da37d9872)" style="fill: #1f77b4; opacity: 0.5"/>
   </g>
   <g id="patch_64">
    <path d="M 225.947862 297.619179 
L 228.321296 297.619179 
L 228.321296 297.619179 
L 225.947862 297.619179 
z
" clip-path="url(#p3da37d9872)" style="fill: #1f77b4; opacity: 0.5"/>
   </g>
   <g id="patch_65">
    <path d="M 228.321296 297.619179 
L 230.69473 297.619179 
L 230.69473 297.619179 
L 228.321296 297.619179 
z
" clip-path="url(#p3da37d9872)" style="fill: #1f77b4; opacity: 0.5"/>
   </g>
   <g id="patch_66">
    <path d="M 230.69473 297.619179 
L 233.068163 297.619179 
L 233.068163 297.619179 
L 230.69473 297.619179 
z
" clip-path="url(#p3da37d9872)" style="fill: #1f77b4; opacity: 0.5"/>
   </g>
   <g id="patch_67">
    <path d="M 233.068163 297.619179 
L 235.441597 297.619179 
L 235.441597 297.619179 
L 233.068163 297.619179 
z
" clip-path="url(#p3da37d9872)" style="fill: #1f77b4; opacity: 0.5"/>
   </g>
   <g id="patch_68">
    <path d="M 235.441597 297.619179 
L 237.815031 297.619179 
L 237.815031 297.619179 
L 235.441597 297.619179 
z
" clip-path="url(#p3da37d9872)" style="fill: #1f77b4; opacity: 0.5"/>
   </g>
   <g id="patch_69">
    <path d="M 237.815031 297.619179 
L 240.188464 297.619179 
L 240.188464 297.619179 
L 237.815031 297.619179 
z
" clip-path="url(#p3da37d9872)" style="fill: #1f77b4; opacity: 0.5"/>
   </g>
   <g id="patch_70">
    <path d="M 240.188464 297.619179 
L 242.561898 297.619179 
L 242.561898 297.619179 
L 240.188464 297.619179 
z
" clip-path="url(#p3da37d9872)" style="fill: #1f77b4; opacity: 0.5"/>
   </g>
   <g id="patch_71">
    <path d="M 242.561898 297.619179 
L 244.935332 297.619179 
L 244.935332 297.619179 
L 242.561898 297.619179 
z
" clip-path="url(#p3da37d9872)" style="fill: #1f77b4; opacity: 0.5"/>
   </g>
   <g id="patch_72">
    <path d="M 244.935332 297.619179 
L 247.308765 297.619179 
L 247.308765 297.619179 
L 244.935332 297.619179 
z
" clip-path="url(#p3da37d9872)" style="fill: #1f77b4; opacity: 0.5"/>
   </g>
   <g id="patch_73">
    <path d="M 247.308765 297.619179 
L 249.682199 297.619179 
L 249.682199 297.619179 
L 247.308765 297.619179 
z
" clip-path="url(#p3da37d9872)" style="fill: #1f77b4; opacity: 0.5"/>
   </g>
   <g id="patch_74">
    <path d="M 249.682199 297.619179 
L 252.055633 297.619179 
L 252.055633 297.619179 
L 249.682199 297.619179 
z
" clip-path="url(#p3da37d9872)" style="fill: #1f77b4; opacity: 0.5"/>
   </g>
   <g id="patch_75">
    <path d="M 252.055633 297.619179 
L 254.429066 297.619179 
L 254.429066 297.619179 
L 252.055633 297.619179 
z
" clip-path="url(#p3da37d9872)" style="fill: #1f77b4; opacity: 0.5"/>
   </g>
   <g id="patch_76">
    <path d="M 254.429066 297.619179 
L 256.8025 297.619179 
L 256.8025 297.619179 
L 254.429066 297.619179 
z
" clip-path="url(#p3da37d9872)" style="fill: #1f77b4; opacity: 0.5"/>
   </g>
   <g id="patch_77">
    <path d="M 256.8025 297.619179 
L 259.175934 297.619179 
L 259.175934 293.249838 
L 256.8025 293.249838 
z
" clip-path="url(#p3da37d9872)" style="fill: #1f77b4; opacity: 0.5"/>
   </g>
   <g id="patch_78">
    <path d="M 259.175934 297.619179 
L 261.549367 297.619179 
L 261.549367 297.619179 
L 259.175934 297.619179 
z
" clip-path="url(#p3da37d9872)" style="fill: #1f77b4; opacity: 0.5"/>
   </g>
   <g id="patch_79">
    <path d="M 261.549367 297.619179 
L 263.922801 297.619179 
L 263.922801 297.619179 
L 261.549367 297.619179 
z
" clip-path="url(#p3da37d9872)" style="fill: #1f77b4; opacity: 0.5"/>
   </g>
   <g id="patch_80">
    <path d="M 263.922801 297.619179 
L 266.296235 297.619179 
L 266.296235 297.619179 
L 263.922801 297.619179 
z
" clip-path="url(#p3da37d9872)" style="fill: #1f77b4; opacity: 0.5"/>
   </g>
   <g id="patch_81">
    <path d="M 266.296235 297.619179 
L 268.669668 297.619179 
L 268.669668 297.619179 
L 266.296235 297.619179 
z
" clip-path="url(#p3da37d9872)" style="fill: #1f77b4; opacity: 0.5"/>
   </g>
   <g id="patch_82">
    <path d="M 268.669668 297.619179 
L 271.043102 297.619179 
L 271.043102 297.619179 
L 268.669668 297.619179 
z
" clip-path="url(#p3da37d9872)" style="fill: #1f77b4; opacity: 0.5"/>
   </g>
   <g id="patch_83">
    <path d="M 271.043102 297.619179 
L 273.416536 297.619179 
L 273.416536 297.619179 
L 271.043102 297.619179 
z
" clip-path="url(#p3da37d9872)" style="fill: #1f77b4; opacity: 0.5"/>
   </g>
   <g id="patch_84">
    <path d="M 273.416536 297.619179 
L 275.789969 297.619179 
L 275.789969 297.619179 
L 273.416536 297.619179 
z
" clip-path="url(#p3da37d9872)" style="fill: #1f77b4; opacity: 0.5"/>
   </g>
   <g id="patch_85">
    <path d="M 275.789969 297.619179 
L 278.163403 297.619179 
L 278.163403 297.619179 
L 275.789969 297.619179 
z
" clip-path="url(#p3da37d9872)" style="fill: #1f77b4; opacity: 0.5"/>
   </g>
   <g id="patch_86">
    <path d="M 278.163403 297.619179 
L 280.536837 297.619179 
L 280.536837 297.619179 
L 278.163403 297.619179 
z
" clip-path="url(#p3da37d9872)" style="fill: #1f77b4; opacity: 0.5"/>
   </g>
   <g id="patch_87">
    <path d="M 280.536837 297.619179 
L 282.91027 297.619179 
L 282.91027 297.619179 
L 280.536837 297.619179 
z
" clip-path="url(#p3da37d9872)" style="fill: #1f77b4; opacity: 0.5"/>
   </g>
   <g id="patch_88">
    <path d="M 282.91027 297.619179 
L 285.283704 297.619179 
L 285.283704 297.619179 
L 282.91027 297.619179 
z
" clip-path="url(#p3da37d9872)" style="fill: #1f77b4; opacity: 0.5"/>
   </g>
   <g id="patch_89">
    <path d="M 285.283704 297.619179 
L 287.657138 297.619179 
L 287.657138 297.619179 
L 285.283704 297.619179 
z
" clip-path="url(#p3da37d9872)" style="fill: #1f77b4; opacity: 0.5"/>
   </g>
   <g id="patch_90">
    <path d="M 287.657138 297.619179 
L 290.030571 297.619179 
L 290.030571 297.619179 
L 287.657138 297.619179 
z
" clip-path="url(#p3da37d9872)" style="fill: #1f77b4; opacity: 0.5"/>
   </g>
   <g id="patch_91">
    <path d="M 290.030571 297.619179 
L 292.404005 297.619179 
L 292.404005 297.619179 
L 290.030571 297.619179 
z
" clip-path="url(#p3da37d9872)" style="fill: #1f77b4; opacity: 0.5"/>
   </g>
   <g id="patch_92">
    <path d="M 292.404005 297.619179 
L 294.777439 297.619179 
L 294.777439 297.619179 
L 292.404005 297.619179 
z
" clip-path="url(#p3da37d9872)" style="fill: #1f77b4; opacity: 0.5"/>
   </g>
   <g id="patch_93">
    <path d="M 294.777439 297.619179 
L 297.150872 297.619179 
L 297.150872 297.619179 
L 294.777439 297.619179 
z
" clip-path="url(#p3da37d9872)" style="fill: #1f77b4; opacity: 0.5"/>
   </g>
   <g id="patch_94">
    <path d="M 297.150872 297.619179 
L 299.524306 297.619179 
L 299.524306 297.619179 
L 297.150872 297.619179 
z
" clip-path="url(#p3da37d9872)" style="fill: #1f77b4; opacity: 0.5"/>
   </g>
   <g id="patch_95">
    <path d="M 299.524306 297.619179 
L 301.89774 297.619179 
L 301.89774 289.383634 
L 299.524306 289.383634 
z
" clip-path="url(#p3da37d9872)" style="fill: #1f77b4; opacity: 0.5"/>
   </g>
   <g id="patch_96">
    <path d="M 301.89774 297.619179 
L 304.271173 297.619179 
L 304.271173 297.619179 
L 301.89774 297.619179 
z
" clip-path="url(#p3da37d9872)" style="fill: #1f77b4; opacity: 0.5"/>
   </g>
   <g id="patch_97">
    <path d="M 304.271173 297.619179 
L 306.644607 297.619179 
L 306.644607 297.619179 
L 304.271173 297.619179 
z
" clip-path="url(#p3da37d9872)" style="fill: #1f77b4; opacity: 0.5"/>
   </g>
   <g id="patch_98">
    <path d="M 306.644607 297.619179 
L 309.018041 297.619179 
L 309.018041 297.619179 
L 306.644607 297.619179 
z
" clip-path="url(#p3da37d9872)" style="fill: #1f77b4; opacity: 0.5"/>
   </g>
   <g id="patch_99">
    <path d="M 309.018041 297.619179 
L 311.391474 297.619179 
L 311.391474 297.619179 
L 309.018041 297.619179 
z
" clip-path="url(#p3da37d9872)" style="fill: #1f77b4; opacity: 0.5"/>
   </g>
   <g id="patch_100">
    <path d="M 311.391474 297.619179 
L 313.764908 297.619179 
L 313.764908 297.619179 
L 311.391474 297.619179 
z
" clip-path="url(#p3da37d9872)" style="fill: #1f77b4; opacity: 0.5"/>
   </g>
   <g id="patch_101">
    <path d="M 313.764908 297.619179 
L 316.138342 297.619179 
L 316.138342 297.619179 
L 313.764908 297.619179 
z
" clip-path="url(#p3da37d9872)" style="fill: #1f77b4; opacity: 0.5"/>
   </g>
   <g id="patch_102">
    <path d="M 316.138342 297.619179 
L 318.511775 297.619179 
L 318.511775 297.619179 
L 316.138342 297.619179 
z
" clip-path="url(#p3da37d9872)" style="fill: #1f77b4; opacity: 0.5"/>
   </g>
   <g id="patch_103">
    <path d="M 318.511775 297.619179 
L 320.885209 297.619179 
L 320.885209 297.619179 
L 318.511775 297.619179 
z
" clip-path="url(#p3da37d9872)" style="fill: #1f77b4; opacity: 0.5"/>
   </g>
   <g id="patch_104">
    <path d="M 320.885209 297.619179 
L 323.258643 297.619179 
L 323.258643 297.619179 
L 320.885209 297.619179 
z
" clip-path="url(#p3da37d9872)" style="fill: #1f77b4; opacity: 0.5"/>
   </g>
   <g id="patch_105">
    <path d="M 323.258643 297.619179 
L 325.632076 297.619179 
L 325.632076 297.619179 
L 323.258643 297.619179 
z
" clip-path="url(#p3da37d9872)" style="fill: #1f77b4; opacity: 0.5"/>
   </g>
   <g id="patch_106">
    <path d="M 325.632076 297.619179 
L 328.00551 297.619179 
L 328.00551 297.619179 
L 325.632076 297.619179 
z
" clip-path="url(#p3da37d9872)" style="fill: #1f77b4; opacity: 0.5"/>
   </g>
   <g id="patch_107">
    <path d="M 328.00551 297.619179 
L 330.378943 297.619179 
L 330.378943 297.619179 
L 328.00551 297.619179 
z
" clip-path="url(#p3da37d9872)" style="fill: #1f77b4; opacity: 0.5"/>
   </g>
   <g id="patch_108">
    <path d="M 330.378943 297.619179 
L 332.752377 297.619179 
L 332.752377 297.619179 
L 330.378943 297.619179 
z
" clip-path="url(#p3da37d9872)" style="fill: #1f77b4; opacity: 0.5"/>
   </g>
   <g id="patch_109">
    <path d="M 332.752377 297.619179 
L 335.125811 297.619179 
L 335.125811 297.619179 
L 332.752377 297.619179 
z
" clip-path="url(#p3da37d9872)" style="fill: #1f77b4; opacity: 0.5"/>
   </g>
   <g id="patch_110">
    <path d="M 335.125811 297.619179 
L 337.499244 297.619179 
L 337.499244 297.619179 
L 335.125811 297.619179 
z
" clip-path="url(#p3da37d9872)" style="fill: #1f77b4; opacity: 0.5"/>
   </g>
   <g id="patch_111">
    <path d="M 337.499244 297.619179 
L 339.872678 297.619179 
L 339.872678 297.619179 
L 337.499244 297.619179 
z
" clip-path="url(#p3da37d9872)" style="fill: #1f77b4; opacity: 0.5"/>
   </g>
   <g id="patch_112">
    <path d="M 339.872678 297.619179 
L 342.246112 297.619179 
L 342.246112 297.619179 
L 339.872678 297.619179 
z
" clip-path="url(#p3da37d9872)" style="fill: #1f77b4; opacity: 0.5"/>
   </g>
   <g id="patch_113">
    <path d="M 342.246112 297.619179 
L 344.619545 297.619179 
L 344.619545 297.619179 
L 342.246112 297.619179 
z
" clip-path="url(#p3da37d9872)" style="fill: #1f77b4; opacity: 0.5"/>
   </g>
   <g id="patch_114">
    <path d="M 344.619545 297.619179 
L 346.992979 297.619179 
L 346.992979 259.689773 
L 344.619545 259.689773 
z
" clip-path="url(#p3da37d9872)" style="fill: #1f77b4; opacity: 0.5"/>
   </g>
   <g id="patch_115">
    <path d="M 346.992979 297.619179 
L 349.366413 297.619179 
L 349.366413 297.619179 
L 346.992979 297.619179 
z
" clip-path="url(#p3da37d9872)" style="fill: #1f77b4; opacity: 0.5"/>
   </g>
   <g id="patch_116">
    <path d="M 349.366413 297.619179 
L 351.739846 297.619179 
L 351.739846 297.619179 
L 349.366413 297.619179 
z
" clip-path="url(#p3da37d9872)" style="fill: #1f77b4; opacity: 0.5"/>
   </g>
   <g id="patch_117">
    <path d="M 351.739846 297.619179 
L 354.11328 297.619179 
L 354.11328 297.619179 
L 351.739846 297.619179 
z
" clip-path="url(#p3da37d9872)" style="fill: #1f77b4; opacity: 0.5"/>
   </g>
   <g id="patch_118">
    <path d="M 354.11328 297.619179 
L 356.486714 297.619179 
L 356.486714 297.619179 
L 354.11328 297.619179 
z
" clip-path="url(#p3da37d9872)" style="fill: #1f77b4; opacity: 0.5"/>
   </g>
   <g id="patch_119">
    <path d="M 356.486714 297.619179 
L 358.860147 297.619179 
L 358.860147 297.619179 
L 356.486714 297.619179 
z
" clip-path="url(#p3da37d9872)" style="fill: #1f77b4; opacity: 0.5"/>
   </g>
   <g id="patch_120">
    <path d="M 358.860147 297.619179 
L 361.233581 297.619179 
L 361.233581 297.619179 
L 358.860147 297.619179 
z
" clip-path="url(#p3da37d9872)" style="fill: #1f77b4; opacity: 0.5"/>
   </g>
   <g id="patch_121">
    <path d="M 361.233581 297.619179 
L 363.607015 297.619179 
L 363.607015 297.619179 
L 361.233581 297.619179 
z
" clip-path="url(#p3da37d9872)" style="fill: #1f77b4; opacity: 0.5"/>
   </g>
   <g id="patch_122">
    <path d="M 363.607015 297.619179 
L 365.980448 297.619179 
L 365.980448 297.619179 
L 363.607015 297.619179 
z
" clip-path="url(#p3da37d9872)" style="fill: #1f77b4; opacity: 0.5"/>
   </g>
   <g id="patch_123">
    <path d="M 365.980448 297.619179 
L 368.353882 297.619179 
L 368.353882 297.619179 
L 365.980448 297.619179 
z
" clip-path="url(#p3da37d9872)" style="fill: #1f77b4; opacity: 0.5"/>
   </g>
   <g id="patch_124">
    <path d="M 368.353882 297.619179 
L 370.727316 297.619179 
L 370.727316 297.619179 
L 368.353882 297.619179 
z
" clip-path="url(#p3da37d9872)" style="fill: #1f77b4; opacity: 0.5"/>
   </g>
   <g id="patch_125">
    <path d="M 370.727316 297.619179 
L 373.100749 297.619179 
L 373.100749 297.619179 
L 370.727316 297.619179 
z
" clip-path="url(#p3da37d9872)" style="fill: #1f77b4; opacity: 0.5"/>
   </g>
   <g id="patch_126">
    <path d="M 373.100749 297.619179 
L 375.474183 297.619179 
L 375.474183 297.619179 
L 373.100749 297.619179 
z
" clip-path="url(#p3da37d9872)" style="fill: #1f77b4; opacity: 0.5"/>
   </g>
   <g id="patch_127">
    <path d="M 375.474183 297.619179 
L 377.847617 297.619179 
L 377.847617 297.619179 
L 375.474183 297.619179 
z
" clip-path="url(#p3da37d9872)" style="fill: #1f77b4; opacity: 0.5"/>
   </g>
   <g id="patch_128">
    <path d="M 377.847617 297.619179 
L 380.22105 297.619179 
L 380.22105 297.619179 
L 377.847617 297.619179 
z
" clip-path="url(#p3da37d9872)" style="fill: #1f77b4; opacity: 0.5"/>
   </g>
   <g id="patch_129">
    <path d="M 380.22105 297.619179 
L 382.594484 297.619179 
L 382.594484 297.619179 
L 380.22105 297.619179 
z
" clip-path="url(#p3da37d9872)" style="fill: #1f77b4; opacity: 0.5"/>
   </g>
   <g id="patch_130">
    <path d="M 382.594484 297.619179 
L 384.967918 297.619179 
L 384.967918 297.619179 
L 382.594484 297.619179 
z
" clip-path="url(#p3da37d9872)" style="fill: #1f77b4; opacity: 0.5"/>
   </g>
   <g id="patch_131">
    <path d="M 384.967918 297.619179 
L 387.341351 297.619179 
L 387.341351 297.619179 
L 384.967918 297.619179 
z
" clip-path="url(#p3da37d9872)" style="fill: #1f77b4; opacity: 0.5"/>
   </g>
   <g id="patch_132">
    <path d="M 387.341351 297.619179 
L 389.714785 297.619179 
L 389.714785 163.91736 
L 387.341351 163.91736 
z
" clip-path="url(#p3da37d9872)" style="fill: #1f77b4; opacity: 0.5"/>
   </g>
   <g id="patch_133">
    <path d="M 389.714785 297.619179 
L 392.088219 297.619179 
L 392.088219 297.619179 
L 389.714785 297.619179 
z
" clip-path="url(#p3da37d9872)" style="fill: #1f77b4; opacity: 0.5"/>
   </g>
   <g id="patch_134">
    <path d="M 392.088219 297.619179 
L 394.461652 297.619179 
L 394.461652 297.619179 
L 392.088219 297.619179 
z
" clip-path="url(#p3da37d9872)" style="fill: #1f77b4; opacity: 0.5"/>
   </g>
   <g id="patch_135">
    <path d="M 394.461652 297.619179 
L 396.835086 297.619179 
L 396.835086 297.619179 
L 394.461652 297.619179 
z
" clip-path="url(#p3da37d9872)" style="fill: #1f77b4; opacity: 0.5"/>
   </g>
   <g id="patch_136">
    <path d="M 396.835086 297.619179 
L 399.20852 297.619179 
L 399.20852 297.619179 
L 396.835086 297.619179 
z
" clip-path="url(#p3da37d9872)" style="fill: #1f77b4; opacity: 0.5"/>
   </g>
   <g id="patch_137">
    <path d="M 399.20852 297.619179 
L 401.581953 297.619179 
L 401.581953 297.619179 
L 399.20852 297.619179 
z
" clip-path="url(#p3da37d9872)" style="fill: #1f77b4; opacity: 0.5"/>
   </g>
   <g id="patch_138">
    <path d="M 401.581953 297.619179 
L 403.955387 297.619179 
L 403.955387 297.619179 
L 401.581953 297.619179 
z
" clip-path="url(#p3da37d9872)" style="fill: #1f77b4; opacity: 0.5"/>
   </g>
   <g id="patch_139">
    <path d="M 403.955387 297.619179 
L 406.328821 297.619179 
L 406.328821 297.619179 
L 403.955387 297.619179 
z
" clip-path="url(#p3da37d9872)" style="fill: #1f77b4; opacity: 0.5"/>
   </g>
   <g id="patch_140">
    <path d="M 406.328821 297.619179 
L 408.702254 297.619179 
L 408.702254 297.619179 
L 406.328821 297.619179 
z
" clip-path="url(#p3da37d9872)" style="fill: #1f77b4; opacity: 0.5"/>
   </g>
   <g id="patch_141">
    <path d="M 408.702254 297.619179 
L 411.075688 297.619179 
L 411.075688 297.619179 
L 408.702254 297.619179 
z
" clip-path="url(#p3da37d9872)" style="fill: #1f77b4; opacity: 0.5"/>
   </g>
   <g id="patch_142">
    <path d="M 411.075688 297.619179 
L 413.449122 297.619179 
L 413.449122 297.619179 
L 411.075688 297.619179 
z
" clip-path="url(#p3da37d9872)" style="fill: #1f77b4; opacity: 0.5"/>
   </g>
   <g id="patch_143">
    <path d="M 413.449122 297.619179 
L 415.822555 297.619179 
L 415.822555 297.619179 
L 413.449122 297.619179 
z
" clip-path="url(#p3da37d9872)" style="fill: #1f77b4; opacity: 0.5"/>
   </g>
   <g id="patch_144">
    <path d="M 415.822555 297.619179 
L 418.195989 297.619179 
L 418.195989 297.619179 
L 415.822555 297.619179 
z
" clip-path="url(#p3da37d9872)" style="fill: #1f77b4; opacity: 0.5"/>
   </g>
   <g id="patch_145">
    <path d="M 418.195989 297.619179 
L 420.569423 297.619179 
L 420.569423 297.619179 
L 418.195989 297.619179 
z
" clip-path="url(#p3da37d9872)" style="fill: #1f77b4; opacity: 0.5"/>
   </g>
   <g id="patch_146">
    <path d="M 420.569423 297.619179 
L 422.942856 297.619179 
L 422.942856 297.619179 
L 420.569423 297.619179 
z
" clip-path="url(#p3da37d9872)" style="fill: #1f77b4; opacity: 0.5"/>
   </g>
   <g id="patch_147">
    <path d="M 422.942856 297.619179 
L 425.31629 297.619179 
L 425.31629 297.619179 
L 422.942856 297.619179 
z
" clip-path="url(#p3da37d9872)" style="fill: #1f77b4; opacity: 0.5"/>
   </g>
   <g id="patch_148">
    <path d="M 425.31629 297.619179 
L 427.689724 297.619179 
L 427.689724 297.619179 
L 425.31629 297.619179 
z
" clip-path="url(#p3da37d9872)" style="fill: #1f77b4; opacity: 0.5"/>
   </g>
   <g id="patch_149">
    <path d="M 427.689724 297.619179 
L 430.063157 297.619179 
L 430.063157 297.619179 
L 427.689724 297.619179 
z
" clip-path="url(#p3da37d9872)" style="fill: #1f77b4; opacity: 0.5"/>
   </g>
   <g id="patch_150">
    <path d="M 430.063157 297.619179 
L 432.436591 297.619179 
L 432.436591 39.086628 
L 430.063157 39.086628 
z
" clip-path="url(#p3da37d9872)" style="fill: #1f77b4; opacity: 0.5"/>
   </g>
   <g id="matplotlib.axis_1">
    <g id="xtick_1">
     <g id="line2d_1">
      <defs>
       <path id="me7ae3457bc" d="M 0 0 
L 0 3.5 
" style="stroke: #000000; stroke-width: 0.8"/>
      </defs>
      <g>
       <use xlink:href="#me7ae3457bc" x="81.168409" y="297.619179" style="stroke: #000000; stroke-width: 0.8"/>
      </g>
     </g>
     <g id="text_1">
      <!-- 2 -->
      <g transform="translate(80.870098 314.491052) rotate(-45) scale(0.1 -0.1)">
       <defs>
        <path id="DejaVuSans-32" d="M 1228 531 
L 3431 531 
L 3431 0 
L 469 0 
L 469 531 
Q 828 903 1448 1529 
Q 2069 2156 2228 2338 
Q 2531 2678 2651 2914 
Q 2772 3150 2772 3378 
Q 2772 3750 2511 3984 
Q 2250 4219 1831 4219 
Q 1534 4219 1204 4116 
Q 875 4013 500 3803 
L 500 4441 
Q 881 4594 1212 4672 
Q 1544 4750 1819 4750 
Q 2544 4750 2975 4387 
Q 3406 4025 3406 3419 
Q 3406 3131 3298 2873 
Q 3191 2616 2906 2266 
Q 2828 2175 2409 1742 
Q 1991 1309 1228 531 
z
" transform="scale(0.015625)"/>
       </defs>
       <use xlink:href="#DejaVuSans-32"/>
      </g>
     </g>
    </g>
    <g id="xtick_2">
     <g id="line2d_2">
      <g>
       <use xlink:href="#me7ae3457bc" x="125.076932" y="297.619179" style="stroke: #000000; stroke-width: 0.8"/>
      </g>
     </g>
     <g id="text_2">
      <!-- 3 -->
      <g transform="translate(124.778621 314.491052) rotate(-45) scale(0.1 -0.1)">
       <defs>
        <path id="DejaVuSans-33" d="M 2597 2516 
Q 3050 2419 3304 2112 
Q 3559 1806 3559 1356 
Q 3559 666 3084 287 
Q 2609 -91 1734 -91 
Q 1441 -91 1130 -33 
Q 819 25 488 141 
L 488 750 
Q 750 597 1062 519 
Q 1375 441 1716 441 
Q 2309 441 2620 675 
Q 2931 909 2931 1356 
Q 2931 1769 2642 2001 
Q 2353 2234 1838 2234 
L 1294 2234 
L 1294 2753 
L 1863 2753 
Q 2328 2753 2575 2939 
Q 2822 3125 2822 3475 
Q 2822 3834 2567 4026 
Q 2313 4219 1838 4219 
Q 1578 4219 1281 4162 
Q 984 4106 628 3988 
L 628 4550 
Q 988 4650 1302 4700 
Q 1616 4750 1894 4750 
Q 2613 4750 3031 4423 
Q 3450 4097 3450 3541 
Q 3450 3153 3228 2886 
Q 3006 2619 2597 2516 
z
" transform="scale(0.015625)"/>
       </defs>
       <use xlink:href="#DejaVuSans-33"/>
      </g>
     </g>
    </g>
    <g id="xtick_3">
     <g id="line2d_3">
      <g>
       <use xlink:href="#me7ae3457bc" x="168.985455" y="297.619179" style="stroke: #000000; stroke-width: 0.8"/>
      </g>
     </g>
     <g id="text_3">
      <!-- 4 -->
      <g transform="translate(168.687144 314.491052) rotate(-45) scale(0.1 -0.1)">
       <defs>
        <path id="DejaVuSans-34" d="M 2419 4116 
L 825 1625 
L 2419 1625 
L 2419 4116 
z
M 2253 4666 
L 3047 4666 
L 3047 1625 
L 3713 1625 
L 3713 1100 
L 3047 1100 
L 3047 0 
L 2419 0 
L 2419 1100 
L 313 1100 
L 313 1709 
L 2253 4666 
z
" transform="scale(0.015625)"/>
       </defs>
       <use xlink:href="#DejaVuSans-34"/>
      </g>
     </g>
    </g>
    <g id="xtick_4">
     <g id="line2d_4">
      <g>
       <use xlink:href="#me7ae3457bc" x="212.893977" y="297.619179" style="stroke: #000000; stroke-width: 0.8"/>
      </g>
     </g>
     <g id="text_4">
      <!-- 5 -->
      <g transform="translate(212.595667 314.491052) rotate(-45) scale(0.1 -0.1)">
       <defs>
        <path id="DejaVuSans-35" d="M 691 4666 
L 3169 4666 
L 3169 4134 
L 1269 4134 
L 1269 2991 
Q 1406 3038 1543 3061 
Q 1681 3084 1819 3084 
Q 2600 3084 3056 2656 
Q 3513 2228 3513 1497 
Q 3513 744 3044 326 
Q 2575 -91 1722 -91 
Q 1428 -91 1123 -41 
Q 819 9 494 109 
L 494 744 
Q 775 591 1075 516 
Q 1375 441 1709 441 
Q 2250 441 2565 725 
Q 2881 1009 2881 1497 
Q 2881 1984 2565 2268 
Q 2250 2553 1709 2553 
Q 1456 2553 1204 2497 
Q 953 2441 691 2322 
L 691 4666 
z
" transform="scale(0.015625)"/>
       </defs>
       <use xlink:href="#DejaVuSans-35"/>
      </g>
     </g>
    </g>
    <g id="xtick_5">
     <g id="line2d_5">
      <g>
       <use xlink:href="#me7ae3457bc" x="256.8025" y="297.619179" style="stroke: #000000; stroke-width: 0.8"/>
      </g>
     </g>
     <g id="text_5">
      <!-- 6 -->
      <g transform="translate(256.504189 314.491052) rotate(-45) scale(0.1 -0.1)">
       <defs>
        <path id="DejaVuSans-36" d="M 2113 2584 
Q 1688 2584 1439 2293 
Q 1191 2003 1191 1497 
Q 1191 994 1439 701 
Q 1688 409 2113 409 
Q 2538 409 2786 701 
Q 3034 994 3034 1497 
Q 3034 2003 2786 2293 
Q 2538 2584 2113 2584 
z
M 3366 4563 
L 3366 3988 
Q 3128 4100 2886 4159 
Q 2644 4219 2406 4219 
Q 1781 4219 1451 3797 
Q 1122 3375 1075 2522 
Q 1259 2794 1537 2939 
Q 1816 3084 2150 3084 
Q 2853 3084 3261 2657 
Q 3669 2231 3669 1497 
Q 3669 778 3244 343 
Q 2819 -91 2113 -91 
Q 1303 -91 875 529 
Q 447 1150 447 2328 
Q 447 3434 972 4092 
Q 1497 4750 2381 4750 
Q 2619 4750 2861 4703 
Q 3103 4656 3366 4563 
z
" transform="scale(0.015625)"/>
       </defs>
       <use xlink:href="#DejaVuSans-36"/>
      </g>
     </g>
    </g>
    <g id="xtick_6">
     <g id="line2d_6">
      <g>
       <use xlink:href="#me7ae3457bc" x="300.711023" y="297.619179" style="stroke: #000000; stroke-width: 0.8"/>
      </g>
     </g>
     <g id="text_6">
      <!-- 7 -->
      <g transform="translate(300.412712 314.491052) rotate(-45) scale(0.1 -0.1)">
       <defs>
        <path id="DejaVuSans-37" d="M 525 4666 
L 3525 4666 
L 3525 4397 
L 1831 0 
L 1172 0 
L 2766 4134 
L 525 4134 
L 525 4666 
z
" transform="scale(0.015625)"/>
       </defs>
       <use xlink:href="#DejaVuSans-37"/>
      </g>
     </g>
    </g>
    <g id="xtick_7">
     <g id="line2d_7">
      <g>
       <use xlink:href="#me7ae3457bc" x="344.619545" y="297.619179" style="stroke: #000000; stroke-width: 0.8"/>
      </g>
     </g>
     <g id="text_7">
      <!-- 8 -->
      <g transform="translate(344.321235 314.491052) rotate(-45) scale(0.1 -0.1)">
       <defs>
        <path id="DejaVuSans-38" d="M 2034 2216 
Q 1584 2216 1326 1975 
Q 1069 1734 1069 1313 
Q 1069 891 1326 650 
Q 1584 409 2034 409 
Q 2484 409 2743 651 
Q 3003 894 3003 1313 
Q 3003 1734 2745 1975 
Q 2488 2216 2034 2216 
z
M 1403 2484 
Q 997 2584 770 2862 
Q 544 3141 544 3541 
Q 544 4100 942 4425 
Q 1341 4750 2034 4750 
Q 2731 4750 3128 4425 
Q 3525 4100 3525 3541 
Q 3525 3141 3298 2862 
Q 3072 2584 2669 2484 
Q 3125 2378 3379 2068 
Q 3634 1759 3634 1313 
Q 3634 634 3220 271 
Q 2806 -91 2034 -91 
Q 1263 -91 848 271 
Q 434 634 434 1313 
Q 434 1759 690 2068 
Q 947 2378 1403 2484 
z
M 1172 3481 
Q 1172 3119 1398 2916 
Q 1625 2713 2034 2713 
Q 2441 2713 2670 2916 
Q 2900 3119 2900 3481 
Q 2900 3844 2670 4047 
Q 2441 4250 2034 4250 
Q 1625 4250 1398 4047 
Q 1172 3844 1172 3481 
z
" transform="scale(0.015625)"/>
       </defs>
       <use xlink:href="#DejaVuSans-38"/>
      </g>
     </g>
    </g>
    <g id="xtick_8">
     <g id="line2d_8">
      <g>
       <use xlink:href="#me7ae3457bc" x="388.528068" y="297.619179" style="stroke: #000000; stroke-width: 0.8"/>
      </g>
     </g>
     <g id="text_8">
      <!-- 9 -->
      <g transform="translate(388.229758 314.491052) rotate(-45) scale(0.1 -0.1)">
       <defs>
        <path id="DejaVuSans-39" d="M 703 97 
L 703 672 
Q 941 559 1184 500 
Q 1428 441 1663 441 
Q 2288 441 2617 861 
Q 2947 1281 2994 2138 
Q 2813 1869 2534 1725 
Q 2256 1581 1919 1581 
Q 1219 1581 811 2004 
Q 403 2428 403 3163 
Q 403 3881 828 4315 
Q 1253 4750 1959 4750 
Q 2769 4750 3195 4129 
Q 3622 3509 3622 2328 
Q 3622 1225 3098 567 
Q 2575 -91 1691 -91 
Q 1453 -91 1209 -44 
Q 966 3 703 97 
z
M 1959 2075 
Q 2384 2075 2632 2365 
Q 2881 2656 2881 3163 
Q 2881 3666 2632 3958 
Q 2384 4250 1959 4250 
Q 1534 4250 1286 3958 
Q 1038 3666 1038 3163 
Q 1038 2656 1286 2365 
Q 1534 2075 1959 2075 
z
" transform="scale(0.015625)"/>
       </defs>
       <use xlink:href="#DejaVuSans-39"/>
      </g>
     </g>
    </g>
    <g id="xtick_9">
     <g id="line2d_9">
      <g>
       <use xlink:href="#me7ae3457bc" x="432.436591" y="297.619179" style="stroke: #000000; stroke-width: 0.8"/>
      </g>
     </g>
     <g id="text_9">
      <!-- 10 -->
      <g transform="translate(429.888797 318.990019) rotate(-45) scale(0.1 -0.1)">
       <defs>
        <path id="DejaVuSans-31" d="M 794 531 
L 1825 531 
L 1825 4091 
L 703 3866 
L 703 4441 
L 1819 4666 
L 2450 4666 
L 2450 531 
L 3481 531 
L 3481 0 
L 794 0 
L 794 531 
z
" transform="scale(0.015625)"/>
        <path id="DejaVuSans-30" d="M 2034 4250 
Q 1547 4250 1301 3770 
Q 1056 3291 1056 2328 
Q 1056 1369 1301 889 
Q 1547 409 2034 409 
Q 2525 409 2770 889 
Q 3016 1369 3016 2328 
Q 3016 3291 2770 3770 
Q 2525 4250 2034 4250 
z
M 2034 4750 
Q 2819 4750 3233 4129 
Q 3647 3509 3647 2328 
Q 3647 1150 3233 529 
Q 2819 -91 2034 -91 
Q 1250 -91 836 529 
Q 422 1150 422 2328 
Q 422 3509 836 4129 
Q 1250 4750 2034 4750 
z
" transform="scale(0.015625)"/>
       </defs>
       <use xlink:href="#DejaVuSans-31"/>
       <use xlink:href="#DejaVuSans-30" x="63.623047"/>
      </g>
     </g>
    </g>
    <g id="text_10">
     <!-- Werte -->
     <g transform="translate(241.98375 332.059018) scale(0.1 -0.1)">
      <defs>
       <path id="DejaVuSans-57" d="M 213 4666 
L 850 4666 
L 1831 722 
L 2809 4666 
L 3519 4666 
L 4500 722 
L 5478 4666 
L 6119 4666 
L 4947 0 
L 4153 0 
L 3169 4050 
L 2175 0 
L 1381 0 
L 213 4666 
z
" transform="scale(0.015625)"/>
       <path id="DejaVuSans-65" d="M 3597 1894 
L 3597 1613 
L 953 1613 
Q 991 1019 1311 708 
Q 1631 397 2203 397 
Q 2534 397 2845 478 
Q 3156 559 3463 722 
L 3463 178 
Q 3153 47 2828 -22 
Q 2503 -91 2169 -91 
Q 1331 -91 842 396 
Q 353 884 353 1716 
Q 353 2575 817 3079 
Q 1281 3584 2069 3584 
Q 2775 3584 3186 3129 
Q 3597 2675 3597 1894 
z
M 3022 2063 
Q 3016 2534 2758 2815 
Q 2500 3097 2075 3097 
Q 1594 3097 1305 2825 
Q 1016 2553 972 2059 
L 3022 2063 
z
" transform="scale(0.015625)"/>
       <path id="DejaVuSans-72" d="M 2631 2963 
Q 2534 3019 2420 3045 
Q 2306 3072 2169 3072 
Q 1681 3072 1420 2755 
Q 1159 2438 1159 1844 
L 1159 0 
L 581 0 
L 581 3500 
L 1159 3500 
L 1159 2956 
Q 1341 3275 1631 3429 
Q 1922 3584 2338 3584 
Q 2397 3584 2469 3576 
Q 2541 3569 2628 3553 
L 2631 2963 
z
" transform="scale(0.015625)"/>
       <path id="DejaVuSans-74" d="M 1172 4494 
L 1172 3500 
L 2356 3500 
L 2356 3053 
L 1172 3053 
L 1172 1153 
Q 1172 725 1289 603 
Q 1406 481 1766 481 
L 2356 481 
L 2356 0 
L 1766 0 
Q 1100 0 847 248 
Q 594 497 594 1153 
L 594 3053 
L 172 3053 
L 172 3500 
L 594 3500 
L 594 4494 
L 1172 4494 
z
" transform="scale(0.015625)"/>
      </defs>
      <use xlink:href="#DejaVuSans-57"/>
      <use xlink:href="#DejaVuSans-65" x="93.001953"/>
      <use xlink:href="#DejaVuSans-72" x="154.525391"/>
      <use xlink:href="#DejaVuSans-74" x="195.638672"/>
      <use xlink:href="#DejaVuSans-65" x="234.847656"/>
     </g>
    </g>
   </g>
   <g id="matplotlib.axis_2">
    <g id="ytick_1">
     <g id="line2d_10">
      <defs>
       <path id="m4e0c09fdac" d="M 0 0 
L -3.5 0 
" style="stroke: #000000; stroke-width: 0.8"/>
      </defs>
      <g>
       <use xlink:href="#m4e0c09fdac" x="63.605" y="297.619179" style="stroke: #000000; stroke-width: 0.8"/>
      </g>
     </g>
     <g id="text_11">
      <!-- 0 -->
      <g transform="translate(50.2425 301.418397) scale(0.1 -0.1)">
       <use xlink:href="#DejaVuSans-30"/>
      </g>
     </g>
    </g>
    <g id="ytick_2">
     <g id="line2d_11">
      <g>
       <use xlink:href="#m4e0c09fdac" x="63.605" y="253.484426" style="stroke: #000000; stroke-width: 0.8"/>
      </g>
     </g>
     <g id="text_12">
      <!-- 5000 -->
      <g transform="translate(31.155 257.283645) scale(0.1 -0.1)">
       <use xlink:href="#DejaVuSans-35"/>
       <use xlink:href="#DejaVuSans-30" x="63.623047"/>
       <use xlink:href="#DejaVuSans-30" x="127.246094"/>
       <use xlink:href="#DejaVuSans-30" x="190.869141"/>
      </g>
     </g>
    </g>
    <g id="ytick_3">
     <g id="line2d_12">
      <g>
       <use xlink:href="#m4e0c09fdac" x="63.605" y="209.349674" style="stroke: #000000; stroke-width: 0.8"/>
      </g>
     </g>
     <g id="text_13">
      <!-- 10000 -->
      <g transform="translate(24.7925 213.148893) scale(0.1 -0.1)">
       <use xlink:href="#DejaVuSans-31"/>
       <use xlink:href="#DejaVuSans-30" x="63.623047"/>
       <use xlink:href="#DejaVuSans-30" x="127.246094"/>
       <use xlink:href="#DejaVuSans-30" x="190.869141"/>
       <use xlink:href="#DejaVuSans-30" x="254.492188"/>
      </g>
     </g>
    </g>
    <g id="ytick_4">
     <g id="line2d_13">
      <g>
       <use xlink:href="#m4e0c09fdac" x="63.605" y="165.214922" style="stroke: #000000; stroke-width: 0.8"/>
      </g>
     </g>
     <g id="text_14">
      <!-- 15000 -->
      <g transform="translate(24.7925 169.014141) scale(0.1 -0.1)">
       <use xlink:href="#DejaVuSans-31"/>
       <use xlink:href="#DejaVuSans-35" x="63.623047"/>
       <use xlink:href="#DejaVuSans-30" x="127.246094"/>
       <use xlink:href="#DejaVuSans-30" x="190.869141"/>
       <use xlink:href="#DejaVuSans-30" x="254.492188"/>
      </g>
     </g>
    </g>
    <g id="ytick_5">
     <g id="line2d_14">
      <g>
       <use xlink:href="#m4e0c09fdac" x="63.605" y="121.08017" style="stroke: #000000; stroke-width: 0.8"/>
      </g>
     </g>
     <g id="text_15">
      <!-- 20000 -->
      <g transform="translate(24.7925 124.879389) scale(0.1 -0.1)">
       <use xlink:href="#DejaVuSans-32"/>
       <use xlink:href="#DejaVuSans-30" x="63.623047"/>
       <use xlink:href="#DejaVuSans-30" x="127.246094"/>
       <use xlink:href="#DejaVuSans-30" x="190.869141"/>
       <use xlink:href="#DejaVuSans-30" x="254.492188"/>
      </g>
     </g>
    </g>
    <g id="ytick_6">
     <g id="line2d_15">
      <g>
       <use xlink:href="#m4e0c09fdac" x="63.605" y="76.945418" style="stroke: #000000; stroke-width: 0.8"/>
      </g>
     </g>
     <g id="text_16">
      <!-- 25000 -->
      <g transform="translate(24.7925 80.744637) scale(0.1 -0.1)">
       <use xlink:href="#DejaVuSans-32"/>
       <use xlink:href="#DejaVuSans-35" x="63.623047"/>
       <use xlink:href="#DejaVuSans-30" x="127.246094"/>
       <use xlink:href="#DejaVuSans-30" x="190.869141"/>
       <use xlink:href="#DejaVuSans-30" x="254.492188"/>
      </g>
     </g>
    </g>
    <g id="ytick_7">
     <g id="line2d_16">
      <g>
       <use xlink:href="#m4e0c09fdac" x="63.605" y="32.810666" style="stroke: #000000; stroke-width: 0.8"/>
      </g>
     </g>
     <g id="text_17">
      <!-- 30000 -->
      <g transform="translate(24.7925 36.609885) scale(0.1 -0.1)">
       <use xlink:href="#DejaVuSans-33"/>
       <use xlink:href="#DejaVuSans-30" x="63.623047"/>
       <use xlink:href="#DejaVuSans-30" x="127.246094"/>
       <use xlink:href="#DejaVuSans-30" x="190.869141"/>
       <use xlink:href="#DejaVuSans-30" x="254.492188"/>
      </g>
     </g>
    </g>
    <g id="text_18">
     <!-- Häufigkeit -->
     <g transform="translate(18.712813 187.345839) rotate(-90) scale(0.1 -0.1)">
      <defs>
       <path id="DejaVuSans-48" d="M 628 4666 
L 1259 4666 
L 1259 2753 
L 3553 2753 
L 3553 4666 
L 4184 4666 
L 4184 0 
L 3553 0 
L 3553 2222 
L 1259 2222 
L 1259 0 
L 628 0 
L 628 4666 
z
" transform="scale(0.015625)"/>
       <path id="DejaVuSans-e4" d="M 2194 1759 
Q 1497 1759 1228 1600 
Q 959 1441 959 1056 
Q 959 750 1161 570 
Q 1363 391 1709 391 
Q 2188 391 2477 730 
Q 2766 1069 2766 1631 
L 2766 1759 
L 2194 1759 
z
M 3341 1997 
L 3341 0 
L 2766 0 
L 2766 531 
Q 2569 213 2275 61 
Q 1981 -91 1556 -91 
Q 1019 -91 701 211 
Q 384 513 384 1019 
Q 384 1609 779 1909 
Q 1175 2209 1959 2209 
L 2766 2209 
L 2766 2266 
Q 2766 2663 2505 2880 
Q 2244 3097 1772 3097 
Q 1472 3097 1187 3025 
Q 903 2953 641 2809 
L 641 3341 
Q 956 3463 1253 3523 
Q 1550 3584 1831 3584 
Q 2591 3584 2966 3190 
Q 3341 2797 3341 1997 
z
M 2150 4850 
L 2784 4850 
L 2784 4219 
L 2150 4219 
L 2150 4850 
z
M 928 4850 
L 1563 4850 
L 1563 4219 
L 928 4219 
L 928 4850 
z
" transform="scale(0.015625)"/>
       <path id="DejaVuSans-75" d="M 544 1381 
L 544 3500 
L 1119 3500 
L 1119 1403 
Q 1119 906 1312 657 
Q 1506 409 1894 409 
Q 2359 409 2629 706 
Q 2900 1003 2900 1516 
L 2900 3500 
L 3475 3500 
L 3475 0 
L 2900 0 
L 2900 538 
Q 2691 219 2414 64 
Q 2138 -91 1772 -91 
Q 1169 -91 856 284 
Q 544 659 544 1381 
z
M 1991 3584 
L 1991 3584 
z
" transform="scale(0.015625)"/>
       <path id="DejaVuSans-66" d="M 2375 4863 
L 2375 4384 
L 1825 4384 
Q 1516 4384 1395 4259 
Q 1275 4134 1275 3809 
L 1275 3500 
L 2222 3500 
L 2222 3053 
L 1275 3053 
L 1275 0 
L 697 0 
L 697 3053 
L 147 3053 
L 147 3500 
L 697 3500 
L 697 3744 
Q 697 4328 969 4595 
Q 1241 4863 1831 4863 
L 2375 4863 
z
" transform="scale(0.015625)"/>
       <path id="DejaVuSans-69" d="M 603 3500 
L 1178 3500 
L 1178 0 
L 603 0 
L 603 3500 
z
M 603 4863 
L 1178 4863 
L 1178 4134 
L 603 4134 
L 603 4863 
z
" transform="scale(0.015625)"/>
       <path id="DejaVuSans-67" d="M 2906 1791 
Q 2906 2416 2648 2759 
Q 2391 3103 1925 3103 
Q 1463 3103 1205 2759 
Q 947 2416 947 1791 
Q 947 1169 1205 825 
Q 1463 481 1925 481 
Q 2391 481 2648 825 
Q 2906 1169 2906 1791 
z
M 3481 434 
Q 3481 -459 3084 -895 
Q 2688 -1331 1869 -1331 
Q 1566 -1331 1297 -1286 
Q 1028 -1241 775 -1147 
L 775 -588 
Q 1028 -725 1275 -790 
Q 1522 -856 1778 -856 
Q 2344 -856 2625 -561 
Q 2906 -266 2906 331 
L 2906 616 
Q 2728 306 2450 153 
Q 2172 0 1784 0 
Q 1141 0 747 490 
Q 353 981 353 1791 
Q 353 2603 747 3093 
Q 1141 3584 1784 3584 
Q 2172 3584 2450 3431 
Q 2728 3278 2906 2969 
L 2906 3500 
L 3481 3500 
L 3481 434 
z
" transform="scale(0.015625)"/>
       <path id="DejaVuSans-6b" d="M 581 4863 
L 1159 4863 
L 1159 1991 
L 2875 3500 
L 3609 3500 
L 1753 1863 
L 3688 0 
L 2938 0 
L 1159 1709 
L 1159 0 
L 581 0 
L 581 4863 
z
" transform="scale(0.015625)"/>
      </defs>
      <use xlink:href="#DejaVuSans-48"/>
      <use xlink:href="#DejaVuSans-e4" x="75.195312"/>
      <use xlink:href="#DejaVuSans-75" x="136.474609"/>
      <use xlink:href="#DejaVuSans-66" x="199.853516"/>
      <use xlink:href="#DejaVuSans-69" x="235.058594"/>
      <use xlink:href="#DejaVuSans-67" x="262.841797"/>
      <use xlink:href="#DejaVuSans-6b" x="326.318359"/>
      <use xlink:href="#DejaVuSans-65" x="380.603516"/>
      <use xlink:href="#DejaVuSans-69" x="442.126953"/>
      <use xlink:href="#DejaVuSans-74" x="469.910156"/>
     </g>
    </g>
   </g>
   <g id="patch_151">
    <path d="M 63.605 297.619179 
L 63.605 26.16 
" style="fill: none; stroke: #000000; stroke-width: 0.8; stroke-linejoin: miter; stroke-linecap: square"/>
   </g>
   <g id="patch_152">
    <path d="M 450 297.619179 
L 450 26.16 
" style="fill: none; stroke: #000000; stroke-width: 0.8; stroke-linejoin: miter; stroke-linecap: square"/>
   </g>
   <g id="patch_153">
    <path d="M 63.605 297.619179 
L 450 297.619179 
" style="fill: none; stroke: #000000; stroke-width: 0.8; stroke-linejoin: miter; stroke-linecap: square"/>
   </g>
   <g id="patch_154">
    <path d="M 63.605 26.16 
L 450 26.16 
" style="fill: none; stroke: #000000; stroke-width: 0.8; stroke-linejoin: miter; stroke-linecap: square"/>
   </g>
   <g id="text_19">
    <!-- cleanliness_rating -->
    <g transform="translate(202.811875 20.16) scale(0.12 -0.12)">
     <defs>
      <path id="DejaVuSans-63" d="M 3122 3366 
L 3122 2828 
Q 2878 2963 2633 3030 
Q 2388 3097 2138 3097 
Q 1578 3097 1268 2742 
Q 959 2388 959 1747 
Q 959 1106 1268 751 
Q 1578 397 2138 397 
Q 2388 397 2633 464 
Q 2878 531 3122 666 
L 3122 134 
Q 2881 22 2623 -34 
Q 2366 -91 2075 -91 
Q 1284 -91 818 406 
Q 353 903 353 1747 
Q 353 2603 823 3093 
Q 1294 3584 2113 3584 
Q 2378 3584 2631 3529 
Q 2884 3475 3122 3366 
z
" transform="scale(0.015625)"/>
      <path id="DejaVuSans-6c" d="M 603 4863 
L 1178 4863 
L 1178 0 
L 603 0 
L 603 4863 
z
" transform="scale(0.015625)"/>
      <path id="DejaVuSans-61" d="M 2194 1759 
Q 1497 1759 1228 1600 
Q 959 1441 959 1056 
Q 959 750 1161 570 
Q 1363 391 1709 391 
Q 2188 391 2477 730 
Q 2766 1069 2766 1631 
L 2766 1759 
L 2194 1759 
z
M 3341 1997 
L 3341 0 
L 2766 0 
L 2766 531 
Q 2569 213 2275 61 
Q 1981 -91 1556 -91 
Q 1019 -91 701 211 
Q 384 513 384 1019 
Q 384 1609 779 1909 
Q 1175 2209 1959 2209 
L 2766 2209 
L 2766 2266 
Q 2766 2663 2505 2880 
Q 2244 3097 1772 3097 
Q 1472 3097 1187 3025 
Q 903 2953 641 2809 
L 641 3341 
Q 956 3463 1253 3523 
Q 1550 3584 1831 3584 
Q 2591 3584 2966 3190 
Q 3341 2797 3341 1997 
z
" transform="scale(0.015625)"/>
      <path id="DejaVuSans-6e" d="M 3513 2113 
L 3513 0 
L 2938 0 
L 2938 2094 
Q 2938 2591 2744 2837 
Q 2550 3084 2163 3084 
Q 1697 3084 1428 2787 
Q 1159 2491 1159 1978 
L 1159 0 
L 581 0 
L 581 3500 
L 1159 3500 
L 1159 2956 
Q 1366 3272 1645 3428 
Q 1925 3584 2291 3584 
Q 2894 3584 3203 3211 
Q 3513 2838 3513 2113 
z
" transform="scale(0.015625)"/>
      <path id="DejaVuSans-73" d="M 2834 3397 
L 2834 2853 
Q 2591 2978 2328 3040 
Q 2066 3103 1784 3103 
Q 1356 3103 1142 2972 
Q 928 2841 928 2578 
Q 928 2378 1081 2264 
Q 1234 2150 1697 2047 
L 1894 2003 
Q 2506 1872 2764 1633 
Q 3022 1394 3022 966 
Q 3022 478 2636 193 
Q 2250 -91 1575 -91 
Q 1294 -91 989 -36 
Q 684 19 347 128 
L 347 722 
Q 666 556 975 473 
Q 1284 391 1588 391 
Q 1994 391 2212 530 
Q 2431 669 2431 922 
Q 2431 1156 2273 1281 
Q 2116 1406 1581 1522 
L 1381 1569 
Q 847 1681 609 1914 
Q 372 2147 372 2553 
Q 372 3047 722 3315 
Q 1072 3584 1716 3584 
Q 2034 3584 2315 3537 
Q 2597 3491 2834 3397 
z
" transform="scale(0.015625)"/>
      <path id="DejaVuSans-5f" d="M 3263 -1063 
L 3263 -1509 
L -63 -1509 
L -63 -1063 
L 3263 -1063 
z
" transform="scale(0.015625)"/>
     </defs>
     <use xlink:href="#DejaVuSans-63"/>
     <use xlink:href="#DejaVuSans-6c" x="54.980469"/>
     <use xlink:href="#DejaVuSans-65" x="82.763672"/>
     <use xlink:href="#DejaVuSans-61" x="144.287109"/>
     <use xlink:href="#DejaVuSans-6e" x="205.566406"/>
     <use xlink:href="#DejaVuSans-6c" x="268.945312"/>
     <use xlink:href="#DejaVuSans-69" x="296.728516"/>
     <use xlink:href="#DejaVuSans-6e" x="324.511719"/>
     <use xlink:href="#DejaVuSans-65" x="387.890625"/>
     <use xlink:href="#DejaVuSans-73" x="449.414062"/>
     <use xlink:href="#DejaVuSans-73" x="501.513672"/>
     <use xlink:href="#DejaVuSans-5f" x="553.613281"/>
     <use xlink:href="#DejaVuSans-72" x="603.613281"/>
     <use xlink:href="#DejaVuSans-61" x="644.726562"/>
     <use xlink:href="#DejaVuSans-74" x="706.005859"/>
     <use xlink:href="#DejaVuSans-69" x="745.214844"/>
     <use xlink:href="#DejaVuSans-6e" x="772.998047"/>
     <use xlink:href="#DejaVuSans-67" x="836.376953"/>
    </g>
   </g>
  </g>
 </g>
 <defs>
  <clipPath id="p3da37d9872">
   <rect x="63.605" y="26.16" width="386.395" height="271.459179"/>
  </clipPath>
 </defs>
</svg>
