<?xml version="1.0" encoding="utf-8" standalone="no"?>
<!DOCTYPE svg PUBLIC "-//W3C//DTD SVG 1.1//EN"
  "http://www.w3.org/Graphics/SVG/1.1/DTD/svg11.dtd">
<svg xmlns:xlink="http://www.w3.org/1999/xlink" width="460.8pt" height="345.6pt" viewBox="0 0 460.8 345.6" xmlns="http://www.w3.org/2000/svg" version="1.1">
 <metadata>
  <rdf:RDF xmlns:dc="http://purl.org/dc/elements/1.1/" xmlns:cc="http://creativecommons.org/ns#" xmlns:rdf="http://www.w3.org/1999/02/22-rdf-syntax-ns#">
   <cc:Work>
    <dc:type rdf:resource="http://purl.org/dc/dcmitype/StillImage"/>
    <dc:date>2024-01-20T11:54:05.118363</dc:date>
    <dc:format>image/svg+xml</dc:format>
    <dc:creator>
     <cc:Agent>
      <dc:title>Matplotlib v3.8.0, https://matplotlib.org/</dc:title>
     </cc:Agent>
    </dc:creator>
   </cc:Work>
  </rdf:RDF>
 </metadata>
 <defs>
  <style type="text/css">*{stroke-linejoin: round; stroke-linecap: butt}</style>
 </defs>
 <g id="figure_1">
  <g id="patch_1">
   <path d="M 0 345.6 
L 460.8 345.6 
L 460.8 0 
L 0 0 
z
" style="fill: #ffffff"/>
  </g>
  <g id="axes_1">
   <g id="patch_2">
    <path d="M 57.26 297.619179 
L 450 297.619179 
L 450 26.16 
L 57.26 26.16 
z
" style="fill: #ffffff"/>
   </g>
   <g id="patch_3">
    <path d="M 75.111818 297.619179 
L 77.26264 297.619179 
L 77.26264 273.919233 
L 75.111818 273.919233 
z
" clip-path="url(#paea48d1613)" style="fill: #1f77b4; opacity: 0.5"/>
   </g>
   <g id="patch_4">
    <path d="M 77.26264 297.619179 
L 79.413461 297.619179 
L 79.413461 196.725124 
L 77.26264 196.725124 
z
" clip-path="url(#paea48d1613)" style="fill: #1f77b4; opacity: 0.5"/>
   </g>
   <g id="patch_5">
    <path d="M 79.413461 297.619179 
L 81.564283 297.619179 
L 81.564283 148.377235 
L 79.413461 148.377235 
z
" clip-path="url(#paea48d1613)" style="fill: #1f77b4; opacity: 0.5"/>
   </g>
   <g id="patch_6">
    <path d="M 81.564283 297.619179 
L 83.715104 297.619179 
L 83.715104 143.637245 
L 81.564283 143.637245 
z
" clip-path="url(#paea48d1613)" style="fill: #1f77b4; opacity: 0.5"/>
   </g>
   <g id="patch_7">
    <path d="M 83.715104 297.619179 
L 85.865926 297.619179 
L 85.865926 113.572171 
L 83.715104 113.572171 
z
" clip-path="url(#paea48d1613)" style="fill: #1f77b4; opacity: 0.5"/>
   </g>
   <g id="patch_8">
    <path d="M 85.865926 297.619179 
L 88.016747 297.619179 
L 88.016747 69.693415 
L 85.865926 69.693415 
z
" clip-path="url(#paea48d1613)" style="fill: #1f77b4; opacity: 0.5"/>
   </g>
   <g id="patch_9">
    <path d="M 88.016747 297.619179 
L 90.167568 297.619179 
L 90.167568 56.421445 
L 88.016747 56.421445 
z
" clip-path="url(#paea48d1613)" style="fill: #1f77b4; opacity: 0.5"/>
   </g>
   <g id="patch_10">
    <path d="M 90.167568 297.619179 
L 92.31839 297.619179 
L 92.31839 39.086628 
L 90.167568 39.086628 
z
" clip-path="url(#paea48d1613)" style="fill: #1f77b4; opacity: 0.5"/>
   </g>
   <g id="patch_11">
    <path d="M 92.31839 297.619179 
L 94.469211 297.619179 
L 94.469211 52.90031 
L 92.31839 52.90031 
z
" clip-path="url(#paea48d1613)" style="fill: #1f77b4; opacity: 0.5"/>
   </g>
   <g id="patch_12">
    <path d="M 94.469211 297.619179 
L 96.620033 297.619179 
L 96.620033 62.515717 
L 94.469211 62.515717 
z
" clip-path="url(#paea48d1613)" style="fill: #1f77b4; opacity: 0.5"/>
   </g>
   <g id="patch_13">
    <path d="M 96.620033 297.619179 
L 98.770854 297.619179 
L 98.770854 72.131123 
L 96.620033 72.131123 
z
" clip-path="url(#paea48d1613)" style="fill: #1f77b4; opacity: 0.5"/>
   </g>
   <g id="patch_14">
    <path d="M 98.770854 297.619179 
L 100.921676 297.619179 
L 100.921676 69.28713 
L 98.770854 69.28713 
z
" clip-path="url(#paea48d1613)" style="fill: #1f77b4; opacity: 0.5"/>
   </g>
   <g id="patch_15">
    <path d="M 100.921676 297.619179 
L 103.072497 297.619179 
L 103.072497 66.578565 
L 100.921676 66.578565 
z
" clip-path="url(#paea48d1613)" style="fill: #1f77b4; opacity: 0.5"/>
   </g>
   <g id="patch_16">
    <path d="M 103.072497 297.619179 
L 105.223319 297.619179 
L 105.223319 82.829956 
L 103.072497 82.829956 
z
" clip-path="url(#paea48d1613)" style="fill: #1f77b4; opacity: 0.5"/>
   </g>
   <g id="patch_17">
    <path d="M 105.223319 297.619179 
L 107.37414 297.619179 
L 107.37414 73.891691 
L 105.223319 73.891691 
z
" clip-path="url(#paea48d1613)" style="fill: #1f77b4; opacity: 0.5"/>
   </g>
   <g id="patch_18">
    <path d="M 107.37414 297.619179 
L 109.524962 297.619179 
L 109.524962 80.392247 
L 107.37414 80.392247 
z
" clip-path="url(#paea48d1613)" style="fill: #1f77b4; opacity: 0.5"/>
   </g>
   <g id="patch_19">
    <path d="M 109.524962 297.619179 
L 111.675783 297.619179 
L 111.675783 79.985962 
L 109.524962 79.985962 
z
" clip-path="url(#paea48d1613)" style="fill: #1f77b4; opacity: 0.5"/>
   </g>
   <g id="patch_20">
    <path d="M 111.675783 297.619179 
L 113.826605 297.619179 
L 113.826605 100.43563 
L 111.675783 100.43563 
z
" clip-path="url(#paea48d1613)" style="fill: #1f77b4; opacity: 0.5"/>
   </g>
   <g id="patch_21">
    <path d="M 113.826605 297.619179 
L 115.977426 297.619179 
L 115.977426 131.854987 
L 113.826605 131.854987 
z
" clip-path="url(#paea48d1613)" style="fill: #1f77b4; opacity: 0.5"/>
   </g>
   <g id="patch_22">
    <path d="M 115.977426 297.619179 
L 118.128248 297.619179 
L 118.128248 123.864719 
L 115.977426 123.864719 
z
" clip-path="url(#paea48d1613)" style="fill: #1f77b4; opacity: 0.5"/>
   </g>
   <g id="patch_23">
    <path d="M 118.128248 297.619179 
L 120.279069 297.619179 
L 120.279069 122.375008 
L 118.128248 122.375008 
z
" clip-path="url(#paea48d1613)" style="fill: #1f77b4; opacity: 0.5"/>
   </g>
   <g id="patch_24">
    <path d="M 120.279069 297.619179 
L 122.42989 297.619179 
L 122.42989 138.355543 
L 120.279069 138.355543 
z
" clip-path="url(#paea48d1613)" style="fill: #1f77b4; opacity: 0.5"/>
   </g>
   <g id="patch_25">
    <path d="M 122.42989 297.619179 
L 124.580712 297.619179 
L 124.580712 159.61778 
L 122.42989 159.61778 
z
" clip-path="url(#paea48d1613)" style="fill: #1f77b4; opacity: 0.5"/>
   </g>
   <g id="patch_26">
    <path d="M 124.580712 297.619179 
L 126.731533 297.619179 
L 126.731533 144.8561 
L 124.580712 144.8561 
z
" clip-path="url(#paea48d1613)" style="fill: #1f77b4; opacity: 0.5"/>
   </g>
   <g id="patch_27">
    <path d="M 126.731533 297.619179 
L 128.882355 297.619179 
L 128.882355 148.377235 
L 126.731533 148.377235 
z
" clip-path="url(#paea48d1613)" style="fill: #1f77b4; opacity: 0.5"/>
   </g>
   <g id="patch_28">
    <path d="M 128.882355 297.619179 
L 131.033176 297.619179 
L 131.033176 147.97095 
L 128.882355 147.97095 
z
" clip-path="url(#paea48d1613)" style="fill: #1f77b4; opacity: 0.5"/>
   </g>
   <g id="patch_29">
    <path d="M 131.033176 297.619179 
L 133.183998 297.619179 
L 133.183998 148.241806 
L 131.033176 148.241806 
z
" clip-path="url(#paea48d1613)" style="fill: #1f77b4; opacity: 0.5"/>
   </g>
   <g id="patch_30">
    <path d="M 133.183998 297.619179 
L 135.334819 297.619179 
L 135.334819 153.117224 
L 133.183998 153.117224 
z
" clip-path="url(#paea48d1613)" style="fill: #1f77b4; opacity: 0.5"/>
   </g>
   <g id="patch_31">
    <path d="M 135.334819 297.619179 
L 137.485641 297.619179 
L 137.485641 172.618893 
L 135.334819 172.618893 
z
" clip-path="url(#paea48d1613)" style="fill: #1f77b4; opacity: 0.5"/>
   </g>
   <g id="patch_32">
    <path d="M 137.485641 297.619179 
L 139.636462 297.619179 
L 139.636462 177.629739 
L 137.485641 177.629739 
z
" clip-path="url(#paea48d1613)" style="fill: #1f77b4; opacity: 0.5"/>
   </g>
   <g id="patch_33">
    <path d="M 139.636462 297.619179 
L 141.787284 297.619179 
L 141.787284 204.85082 
L 139.636462 204.85082 
z
" clip-path="url(#paea48d1613)" style="fill: #1f77b4; opacity: 0.5"/>
   </g>
   <g id="patch_34">
    <path d="M 141.787284 297.619179 
L 143.938105 297.619179 
L 143.938105 194.151987 
L 141.787284 194.151987 
z
" clip-path="url(#paea48d1613)" style="fill: #1f77b4; opacity: 0.5"/>
   </g>
   <g id="patch_35">
    <path d="M 143.938105 297.619179 
L 146.088927 297.619179 
L 146.088927 217.039363 
L 143.938105 217.039363 
z
" clip-path="url(#paea48d1613)" style="fill: #1f77b4; opacity: 0.5"/>
   </g>
   <g id="patch_36">
    <path d="M 146.088927 297.619179 
L 148.239748 297.619179 
L 148.239748 218.258217 
L 146.088927 218.258217 
z
" clip-path="url(#paea48d1613)" style="fill: #1f77b4; opacity: 0.5"/>
   </g>
   <g id="patch_37">
    <path d="M 148.239748 297.619179 
L 150.39057 297.619179 
L 150.39057 233.832467 
L 148.239748 233.832467 
z
" clip-path="url(#paea48d1613)" style="fill: #1f77b4; opacity: 0.5"/>
   </g>
   <g id="patch_38">
    <path d="M 150.39057 297.619179 
L 152.541391 297.619179 
L 152.541391 222.050209 
L 150.39057 222.050209 
z
" clip-path="url(#paea48d1613)" style="fill: #1f77b4; opacity: 0.5"/>
   </g>
   <g id="patch_39">
    <path d="M 152.541391 297.619179 
L 154.692212 297.619179 
L 154.692212 232.749041 
L 152.541391 232.749041 
z
" clip-path="url(#paea48d1613)" style="fill: #1f77b4; opacity: 0.5"/>
   </g>
   <g id="patch_40">
    <path d="M 154.692212 297.619179 
L 156.843034 297.619179 
L 156.843034 241.145594 
L 154.692212 241.145594 
z
" clip-path="url(#paea48d1613)" style="fill: #1f77b4; opacity: 0.5"/>
   </g>
   <g id="patch_41">
    <path d="M 156.843034 297.619179 
L 158.993855 297.619179 
L 158.993855 235.728463 
L 156.843034 235.728463 
z
" clip-path="url(#paea48d1613)" style="fill: #1f77b4; opacity: 0.5"/>
   </g>
   <g id="patch_42">
    <path d="M 158.993855 297.619179 
L 161.144677 297.619179 
L 161.144677 239.926739 
L 158.993855 239.926739 
z
" clip-path="url(#paea48d1613)" style="fill: #1f77b4; opacity: 0.5"/>
   </g>
   <g id="patch_43">
    <path d="M 161.144677 297.619179 
L 163.295498 297.619179 
L 163.295498 249.677574 
L 161.144677 249.677574 
z
" clip-path="url(#paea48d1613)" style="fill: #1f77b4; opacity: 0.5"/>
   </g>
   <g id="patch_44">
    <path d="M 163.295498 297.619179 
L 165.44632 297.619179 
L 165.44632 259.563837 
L 163.295498 259.563837 
z
" clip-path="url(#paea48d1613)" style="fill: #1f77b4; opacity: 0.5"/>
   </g>
   <g id="patch_45">
    <path d="M 165.44632 297.619179 
L 167.597141 297.619179 
L 167.597141 263.897542 
L 165.44632 263.897542 
z
" clip-path="url(#paea48d1613)" style="fill: #1f77b4; opacity: 0.5"/>
   </g>
   <g id="patch_46">
    <path d="M 167.597141 297.619179 
L 169.747963 297.619179 
L 169.747963 263.2204 
L 167.597141 263.2204 
z
" clip-path="url(#paea48d1613)" style="fill: #1f77b4; opacity: 0.5"/>
   </g>
   <g id="patch_47">
    <path d="M 169.747963 297.619179 
L 171.898784 297.619179 
L 171.898784 259.699265 
L 169.747963 259.699265 
z
" clip-path="url(#paea48d1613)" style="fill: #1f77b4; opacity: 0.5"/>
   </g>
   <g id="patch_48">
    <path d="M 171.898784 297.619179 
L 174.049606 297.619179 
L 174.049606 266.606107 
L 171.898784 266.606107 
z
" clip-path="url(#paea48d1613)" style="fill: #1f77b4; opacity: 0.5"/>
   </g>
   <g id="patch_49">
    <path d="M 174.049606 297.619179 
L 176.200427 297.619179 
L 176.200427 261.324405 
L 174.049606 261.324405 
z
" clip-path="url(#paea48d1613)" style="fill: #1f77b4; opacity: 0.5"/>
   </g>
   <g id="patch_50">
    <path d="M 176.200427 297.619179 
L 178.351249 297.619179 
L 178.351249 261.595261 
L 176.200427 261.595261 
z
" clip-path="url(#paea48d1613)" style="fill: #1f77b4; opacity: 0.5"/>
   </g>
   <g id="patch_51">
    <path d="M 178.351249 297.619179 
L 180.50207 297.619179 
L 180.50207 263.355828 
L 178.351249 263.355828 
z
" clip-path="url(#paea48d1613)" style="fill: #1f77b4; opacity: 0.5"/>
   </g>
   <g id="patch_52">
    <path d="M 180.50207 297.619179 
L 182.652892 297.619179 
L 182.652892 264.168398 
L 180.50207 264.168398 
z
" clip-path="url(#paea48d1613)" style="fill: #1f77b4; opacity: 0.5"/>
   </g>
   <g id="patch_53">
    <path d="M 182.652892 297.619179 
L 184.803713 297.619179 
L 184.803713 270.26267 
L 182.652892 270.26267 
z
" clip-path="url(#paea48d1613)" style="fill: #1f77b4; opacity: 0.5"/>
   </g>
   <g id="patch_54">
    <path d="M 184.803713 297.619179 
L 186.954535 297.619179 
L 186.954535 270.668955 
L 184.803713 270.668955 
z
" clip-path="url(#paea48d1613)" style="fill: #1f77b4; opacity: 0.5"/>
   </g>
   <g id="patch_55">
    <path d="M 186.954535 297.619179 
L 189.105356 297.619179 
L 189.105356 271.346096 
L 186.954535 271.346096 
z
" clip-path="url(#paea48d1613)" style="fill: #1f77b4; opacity: 0.5"/>
   </g>
   <g id="patch_56">
    <path d="M 189.105356 297.619179 
L 191.256177 297.619179 
L 191.256177 275.138087 
L 189.105356 275.138087 
z
" clip-path="url(#paea48d1613)" style="fill: #1f77b4; opacity: 0.5"/>
   </g>
   <g id="patch_57">
    <path d="M 191.256177 297.619179 
L 193.406999 297.619179 
L 193.406999 277.034083 
L 191.256177 277.034083 
z
" clip-path="url(#paea48d1613)" style="fill: #1f77b4; opacity: 0.5"/>
   </g>
   <g id="patch_58">
    <path d="M 193.406999 297.619179 
L 195.55782 297.619179 
L 195.55782 283.399211 
L 193.406999 283.399211 
z
" clip-path="url(#paea48d1613)" style="fill: #1f77b4; opacity: 0.5"/>
   </g>
   <g id="patch_59">
    <path d="M 195.55782 297.619179 
L 197.708642 297.619179 
L 197.708642 282.992926 
L 195.55782 282.992926 
z
" clip-path="url(#paea48d1613)" style="fill: #1f77b4; opacity: 0.5"/>
   </g>
   <g id="patch_60">
    <path d="M 197.708642 297.619179 
L 199.859463 297.619179 
L 199.859463 284.888922 
L 197.708642 284.888922 
z
" clip-path="url(#paea48d1613)" style="fill: #1f77b4; opacity: 0.5"/>
   </g>
   <g id="patch_61">
    <path d="M 199.859463 297.619179 
L 202.010285 297.619179 
L 202.010285 286.378633 
L 199.859463 286.378633 
z
" clip-path="url(#paea48d1613)" style="fill: #1f77b4; opacity: 0.5"/>
   </g>
   <g id="patch_62">
    <path d="M 202.010285 297.619179 
L 204.161106 297.619179 
L 204.161106 285.83692 
L 202.010285 285.83692 
z
" clip-path="url(#paea48d1613)" style="fill: #1f77b4; opacity: 0.5"/>
   </g>
   <g id="patch_63">
    <path d="M 204.161106 297.619179 
L 206.311928 297.619179 
L 206.311928 287.462059 
L 204.161106 287.462059 
z
" clip-path="url(#paea48d1613)" style="fill: #1f77b4; opacity: 0.5"/>
   </g>
   <g id="patch_64">
    <path d="M 206.311928 297.619179 
L 208.462749 297.619179 
L 208.462749 284.076352 
L 206.311928 284.076352 
z
" clip-path="url(#paea48d1613)" style="fill: #1f77b4; opacity: 0.5"/>
   </g>
   <g id="patch_65">
    <path d="M 208.462749 297.619179 
L 210.613571 297.619179 
L 210.613571 282.992926 
L 208.462749 282.992926 
z
" clip-path="url(#paea48d1613)" style="fill: #1f77b4; opacity: 0.5"/>
   </g>
   <g id="patch_66">
    <path d="M 210.613571 297.619179 
L 212.764392 297.619179 
L 212.764392 289.764339 
L 210.613571 289.764339 
z
" clip-path="url(#paea48d1613)" style="fill: #1f77b4; opacity: 0.5"/>
   </g>
   <g id="patch_67">
    <path d="M 212.764392 297.619179 
L 214.915214 297.619179 
L 214.915214 286.649489 
L 212.764392 286.649489 
z
" clip-path="url(#paea48d1613)" style="fill: #1f77b4; opacity: 0.5"/>
   </g>
   <g id="patch_68">
    <path d="M 214.915214 297.619179 
L 217.066035 297.619179 
L 217.066035 288.680913 
L 214.915214 288.680913 
z
" clip-path="url(#paea48d1613)" style="fill: #1f77b4; opacity: 0.5"/>
   </g>
   <g id="patch_69">
    <path d="M 217.066035 297.619179 
L 219.216857 297.619179 
L 219.216857 290.576909 
L 217.066035 290.576909 
z
" clip-path="url(#paea48d1613)" style="fill: #1f77b4; opacity: 0.5"/>
   </g>
   <g id="patch_70">
    <path d="M 219.216857 297.619179 
L 221.367678 297.619179 
L 221.367678 292.743761 
L 219.216857 292.743761 
z
" clip-path="url(#paea48d1613)" style="fill: #1f77b4; opacity: 0.5"/>
   </g>
   <g id="patch_71">
    <path d="M 221.367678 297.619179 
L 223.518499 297.619179 
L 223.518499 292.06662 
L 221.367678 292.06662 
z
" clip-path="url(#paea48d1613)" style="fill: #1f77b4; opacity: 0.5"/>
   </g>
   <g id="patch_72">
    <path d="M 223.518499 297.619179 
L 225.669321 297.619179 
L 225.669321 293.827187 
L 223.518499 293.827187 
z
" clip-path="url(#paea48d1613)" style="fill: #1f77b4; opacity: 0.5"/>
   </g>
   <g id="patch_73">
    <path d="M 225.669321 297.619179 
L 227.820142 297.619179 
L 227.820142 293.691759 
L 225.669321 293.691759 
z
" clip-path="url(#paea48d1613)" style="fill: #1f77b4; opacity: 0.5"/>
   </g>
   <g id="patch_74">
    <path d="M 227.820142 297.619179 
L 229.970964 297.619179 
L 229.970964 291.660335 
L 227.820142 291.660335 
z
" clip-path="url(#paea48d1613)" style="fill: #1f77b4; opacity: 0.5"/>
   </g>
   <g id="patch_75">
    <path d="M 229.970964 297.619179 
L 232.121785 297.619179 
L 232.121785 291.795763 
L 229.970964 291.795763 
z
" clip-path="url(#paea48d1613)" style="fill: #1f77b4; opacity: 0.5"/>
   </g>
   <g id="patch_76">
    <path d="M 232.121785 297.619179 
L 234.272607 297.619179 
L 234.272607 295.452326 
L 232.121785 295.452326 
z
" clip-path="url(#paea48d1613)" style="fill: #1f77b4; opacity: 0.5"/>
   </g>
   <g id="patch_77">
    <path d="M 234.272607 297.619179 
L 236.423428 297.619179 
L 236.423428 291.931192 
L 234.272607 291.931192 
z
" clip-path="url(#paea48d1613)" style="fill: #1f77b4; opacity: 0.5"/>
   </g>
   <g id="patch_78">
    <path d="M 236.423428 297.619179 
L 238.57425 297.619179 
L 238.57425 295.587755 
L 236.423428 295.587755 
z
" clip-path="url(#paea48d1613)" style="fill: #1f77b4; opacity: 0.5"/>
   </g>
   <g id="patch_79">
    <path d="M 238.57425 297.619179 
L 240.725071 297.619179 
L 240.725071 296.400324 
L 238.57425 296.400324 
z
" clip-path="url(#paea48d1613)" style="fill: #1f77b4; opacity: 0.5"/>
   </g>
   <g id="patch_80">
    <path d="M 240.725071 297.619179 
L 242.875893 297.619179 
L 242.875893 293.827187 
L 240.725071 293.827187 
z
" clip-path="url(#paea48d1613)" style="fill: #1f77b4; opacity: 0.5"/>
   </g>
   <g id="patch_81">
    <path d="M 242.875893 297.619179 
L 245.026714 297.619179 
L 245.026714 295.452326 
L 242.875893 295.452326 
z
" clip-path="url(#paea48d1613)" style="fill: #1f77b4; opacity: 0.5"/>
   </g>
   <g id="patch_82">
    <path d="M 245.026714 297.619179 
L 247.177536 297.619179 
L 247.177536 294.775185 
L 245.026714 294.775185 
z
" clip-path="url(#paea48d1613)" style="fill: #1f77b4; opacity: 0.5"/>
   </g>
   <g id="patch_83">
    <path d="M 247.177536 297.619179 
L 249.328357 297.619179 
L 249.328357 296.535753 
L 247.177536 296.535753 
z
" clip-path="url(#paea48d1613)" style="fill: #1f77b4; opacity: 0.5"/>
   </g>
   <g id="patch_84">
    <path d="M 249.328357 297.619179 
L 251.479179 297.619179 
L 251.479179 296.400324 
L 249.328357 296.400324 
z
" clip-path="url(#paea48d1613)" style="fill: #1f77b4; opacity: 0.5"/>
   </g>
   <g id="patch_85">
    <path d="M 251.479179 297.619179 
L 253.63 297.619179 
L 253.63 295.046042 
L 251.479179 295.046042 
z
" clip-path="url(#paea48d1613)" style="fill: #1f77b4; opacity: 0.5"/>
   </g>
   <g id="patch_86">
    <path d="M 253.63 297.619179 
L 255.780821 297.619179 
L 255.780821 296.129468 
L 253.63 296.129468 
z
" clip-path="url(#paea48d1613)" style="fill: #1f77b4; opacity: 0.5"/>
   </g>
   <g id="patch_87">
    <path d="M 255.780821 297.619179 
L 257.931643 297.619179 
L 257.931643 296.535753 
L 255.780821 296.535753 
z
" clip-path="url(#paea48d1613)" style="fill: #1f77b4; opacity: 0.5"/>
   </g>
   <g id="patch_88">
    <path d="M 257.931643 297.619179 
L 260.082464 297.619179 
L 260.082464 296.535753 
L 257.931643 296.535753 
z
" clip-path="url(#paea48d1613)" style="fill: #1f77b4; opacity: 0.5"/>
   </g>
   <g id="patch_89">
    <path d="M 260.082464 297.619179 
L 262.233286 297.619179 
L 262.233286 296.671181 
L 260.082464 296.671181 
z
" clip-path="url(#paea48d1613)" style="fill: #1f77b4; opacity: 0.5"/>
   </g>
   <g id="patch_90">
    <path d="M 262.233286 297.619179 
L 264.384107 297.619179 
L 264.384107 296.264896 
L 262.233286 296.264896 
z
" clip-path="url(#paea48d1613)" style="fill: #1f77b4; opacity: 0.5"/>
   </g>
   <g id="patch_91">
    <path d="M 264.384107 297.619179 
L 266.534929 297.619179 
L 266.534929 294.910613 
L 264.384107 294.910613 
z
" clip-path="url(#paea48d1613)" style="fill: #1f77b4; opacity: 0.5"/>
   </g>
   <g id="patch_92">
    <path d="M 266.534929 297.619179 
L 268.68575 297.619179 
L 268.68575 295.587755 
L 266.534929 295.587755 
z
" clip-path="url(#paea48d1613)" style="fill: #1f77b4; opacity: 0.5"/>
   </g>
   <g id="patch_93">
    <path d="M 268.68575 297.619179 
L 270.836572 297.619179 
L 270.836572 296.129468 
L 268.68575 296.129468 
z
" clip-path="url(#paea48d1613)" style="fill: #1f77b4; opacity: 0.5"/>
   </g>
   <g id="patch_94">
    <path d="M 270.836572 297.619179 
L 272.987393 297.619179 
L 272.987393 294.3689 
L 270.836572 294.3689 
z
" clip-path="url(#paea48d1613)" style="fill: #1f77b4; opacity: 0.5"/>
   </g>
   <g id="patch_95">
    <path d="M 272.987393 297.619179 
L 275.138215 297.619179 
L 275.138215 293.556331 
L 272.987393 293.556331 
z
" clip-path="url(#paea48d1613)" style="fill: #1f77b4; opacity: 0.5"/>
   </g>
   <g id="patch_96">
    <path d="M 275.138215 297.619179 
L 277.289036 297.619179 
L 277.289036 296.264896 
L 275.138215 296.264896 
z
" clip-path="url(#paea48d1613)" style="fill: #1f77b4; opacity: 0.5"/>
   </g>
   <g id="patch_97">
    <path d="M 277.289036 297.619179 
L 279.439858 297.619179 
L 279.439858 296.535753 
L 277.289036 296.535753 
z
" clip-path="url(#paea48d1613)" style="fill: #1f77b4; opacity: 0.5"/>
   </g>
   <g id="patch_98">
    <path d="M 279.439858 297.619179 
L 281.590679 297.619179 
L 281.590679 294.910613 
L 279.439858 294.910613 
z
" clip-path="url(#paea48d1613)" style="fill: #1f77b4; opacity: 0.5"/>
   </g>
   <g id="patch_99">
    <path d="M 281.590679 297.619179 
L 283.741501 297.619179 
L 283.741501 295.723183 
L 281.590679 295.723183 
z
" clip-path="url(#paea48d1613)" style="fill: #1f77b4; opacity: 0.5"/>
   </g>
   <g id="patch_100">
    <path d="M 283.741501 297.619179 
L 285.892322 297.619179 
L 285.892322 294.098044 
L 283.741501 294.098044 
z
" clip-path="url(#paea48d1613)" style="fill: #1f77b4; opacity: 0.5"/>
   </g>
   <g id="patch_101">
    <path d="M 285.892322 297.619179 
L 288.043143 297.619179 
L 288.043143 294.775185 
L 285.892322 294.775185 
z
" clip-path="url(#paea48d1613)" style="fill: #1f77b4; opacity: 0.5"/>
   </g>
   <g id="patch_102">
    <path d="M 288.043143 297.619179 
L 290.193965 297.619179 
L 290.193965 295.452326 
L 288.043143 295.452326 
z
" clip-path="url(#paea48d1613)" style="fill: #1f77b4; opacity: 0.5"/>
   </g>
   <g id="patch_103">
    <path d="M 290.193965 297.619179 
L 292.344786 297.619179 
L 292.344786 296.129468 
L 290.193965 296.129468 
z
" clip-path="url(#paea48d1613)" style="fill: #1f77b4; opacity: 0.5"/>
   </g>
   <g id="patch_104">
    <path d="M 292.344786 297.619179 
L 294.495608 297.619179 
L 294.495608 295.18147 
L 292.344786 295.18147 
z
" clip-path="url(#paea48d1613)" style="fill: #1f77b4; opacity: 0.5"/>
   </g>
   <g id="patch_105">
    <path d="M 294.495608 297.619179 
L 296.646429 297.619179 
L 296.646429 297.077466 
L 294.495608 297.077466 
z
" clip-path="url(#paea48d1613)" style="fill: #1f77b4; opacity: 0.5"/>
   </g>
   <g id="patch_106">
    <path d="M 296.646429 297.619179 
L 298.797251 297.619179 
L 298.797251 296.806609 
L 296.646429 296.806609 
z
" clip-path="url(#paea48d1613)" style="fill: #1f77b4; opacity: 0.5"/>
   </g>
   <g id="patch_107">
    <path d="M 298.797251 297.619179 
L 300.948072 297.619179 
L 300.948072 296.806609 
L 298.797251 296.806609 
z
" clip-path="url(#paea48d1613)" style="fill: #1f77b4; opacity: 0.5"/>
   </g>
   <g id="patch_108">
    <path d="M 300.948072 297.619179 
L 303.098894 297.619179 
L 303.098894 296.806609 
L 300.948072 296.806609 
z
" clip-path="url(#paea48d1613)" style="fill: #1f77b4; opacity: 0.5"/>
   </g>
   <g id="patch_109">
    <path d="M 303.098894 297.619179 
L 305.249715 297.619179 
L 305.249715 297.077466 
L 303.098894 297.077466 
z
" clip-path="url(#paea48d1613)" style="fill: #1f77b4; opacity: 0.5"/>
   </g>
   <g id="patch_110">
    <path d="M 305.249715 297.619179 
L 307.400537 297.619179 
L 307.400537 296.942037 
L 305.249715 296.942037 
z
" clip-path="url(#paea48d1613)" style="fill: #1f77b4; opacity: 0.5"/>
   </g>
   <g id="patch_111">
    <path d="M 307.400537 297.619179 
L 309.551358 297.619179 
L 309.551358 296.942037 
L 307.400537 296.942037 
z
" clip-path="url(#paea48d1613)" style="fill: #1f77b4; opacity: 0.5"/>
   </g>
   <g id="patch_112">
    <path d="M 309.551358 297.619179 
L 311.70218 297.619179 
L 311.70218 296.942037 
L 309.551358 296.942037 
z
" clip-path="url(#paea48d1613)" style="fill: #1f77b4; opacity: 0.5"/>
   </g>
   <g id="patch_113">
    <path d="M 311.70218 297.619179 
L 313.853001 297.619179 
L 313.853001 297.212894 
L 311.70218 297.212894 
z
" clip-path="url(#paea48d1613)" style="fill: #1f77b4; opacity: 0.5"/>
   </g>
   <g id="patch_114">
    <path d="M 313.853001 297.619179 
L 316.003823 297.619179 
L 316.003823 297.077466 
L 313.853001 297.077466 
z
" clip-path="url(#paea48d1613)" style="fill: #1f77b4; opacity: 0.5"/>
   </g>
   <g id="patch_115">
    <path d="M 316.003823 297.619179 
L 318.154644 297.619179 
L 318.154644 297.212894 
L 316.003823 297.212894 
z
" clip-path="url(#paea48d1613)" style="fill: #1f77b4; opacity: 0.5"/>
   </g>
   <g id="patch_116">
    <path d="M 318.154644 297.619179 
L 320.305465 297.619179 
L 320.305465 297.077466 
L 318.154644 297.077466 
z
" clip-path="url(#paea48d1613)" style="fill: #1f77b4; opacity: 0.5"/>
   </g>
   <g id="patch_117">
    <path d="M 320.305465 297.619179 
L 322.456287 297.619179 
L 322.456287 297.619179 
L 320.305465 297.619179 
z
" clip-path="url(#paea48d1613)" style="fill: #1f77b4; opacity: 0.5"/>
   </g>
   <g id="patch_118">
    <path d="M 322.456287 297.619179 
L 324.607108 297.619179 
L 324.607108 297.077466 
L 322.456287 297.077466 
z
" clip-path="url(#paea48d1613)" style="fill: #1f77b4; opacity: 0.5"/>
   </g>
   <g id="patch_119">
    <path d="M 324.607108 297.619179 
L 326.75793 297.619179 
L 326.75793 297.48375 
L 324.607108 297.48375 
z
" clip-path="url(#paea48d1613)" style="fill: #1f77b4; opacity: 0.5"/>
   </g>
   <g id="patch_120">
    <path d="M 326.75793 297.619179 
L 328.908751 297.619179 
L 328.908751 297.619179 
L 326.75793 297.619179 
z
" clip-path="url(#paea48d1613)" style="fill: #1f77b4; opacity: 0.5"/>
   </g>
   <g id="patch_121">
    <path d="M 328.908751 297.619179 
L 331.059573 297.619179 
L 331.059573 297.348322 
L 328.908751 297.348322 
z
" clip-path="url(#paea48d1613)" style="fill: #1f77b4; opacity: 0.5"/>
   </g>
   <g id="patch_122">
    <path d="M 331.059573 297.619179 
L 333.210394 297.619179 
L 333.210394 297.619179 
L 331.059573 297.619179 
z
" clip-path="url(#paea48d1613)" style="fill: #1f77b4; opacity: 0.5"/>
   </g>
   <g id="patch_123">
    <path d="M 333.210394 297.619179 
L 335.361216 297.619179 
L 335.361216 297.348322 
L 333.210394 297.348322 
z
" clip-path="url(#paea48d1613)" style="fill: #1f77b4; opacity: 0.5"/>
   </g>
   <g id="patch_124">
    <path d="M 335.361216 297.619179 
L 337.512037 297.619179 
L 337.512037 297.212894 
L 335.361216 297.212894 
z
" clip-path="url(#paea48d1613)" style="fill: #1f77b4; opacity: 0.5"/>
   </g>
   <g id="patch_125">
    <path d="M 337.512037 297.619179 
L 339.662859 297.619179 
L 339.662859 297.348322 
L 337.512037 297.348322 
z
" clip-path="url(#paea48d1613)" style="fill: #1f77b4; opacity: 0.5"/>
   </g>
   <g id="patch_126">
    <path d="M 339.662859 297.619179 
L 341.81368 297.619179 
L 341.81368 297.619179 
L 339.662859 297.619179 
z
" clip-path="url(#paea48d1613)" style="fill: #1f77b4; opacity: 0.5"/>
   </g>
   <g id="patch_127">
    <path d="M 341.81368 297.619179 
L 343.964502 297.619179 
L 343.964502 297.619179 
L 341.81368 297.619179 
z
" clip-path="url(#paea48d1613)" style="fill: #1f77b4; opacity: 0.5"/>
   </g>
   <g id="patch_128">
    <path d="M 343.964502 297.619179 
L 346.115323 297.619179 
L 346.115323 297.619179 
L 343.964502 297.619179 
z
" clip-path="url(#paea48d1613)" style="fill: #1f77b4; opacity: 0.5"/>
   </g>
   <g id="patch_129">
    <path d="M 346.115323 297.619179 
L 348.266145 297.619179 
L 348.266145 297.48375 
L 346.115323 297.48375 
z
" clip-path="url(#paea48d1613)" style="fill: #1f77b4; opacity: 0.5"/>
   </g>
   <g id="patch_130">
    <path d="M 348.266145 297.619179 
L 350.416966 297.619179 
L 350.416966 297.619179 
L 348.266145 297.619179 
z
" clip-path="url(#paea48d1613)" style="fill: #1f77b4; opacity: 0.5"/>
   </g>
   <g id="patch_131">
    <path d="M 350.416966 297.619179 
L 352.567788 297.619179 
L 352.567788 297.348322 
L 350.416966 297.348322 
z
" clip-path="url(#paea48d1613)" style="fill: #1f77b4; opacity: 0.5"/>
   </g>
   <g id="patch_132">
    <path d="M 352.567788 297.619179 
L 354.718609 297.619179 
L 354.718609 297.212894 
L 352.567788 297.212894 
z
" clip-path="url(#paea48d1613)" style="fill: #1f77b4; opacity: 0.5"/>
   </g>
   <g id="patch_133">
    <path d="M 354.718609 297.619179 
L 356.86943 297.619179 
L 356.86943 297.619179 
L 354.718609 297.619179 
z
" clip-path="url(#paea48d1613)" style="fill: #1f77b4; opacity: 0.5"/>
   </g>
   <g id="patch_134">
    <path d="M 356.86943 297.619179 
L 359.020252 297.619179 
L 359.020252 297.48375 
L 356.86943 297.48375 
z
" clip-path="url(#paea48d1613)" style="fill: #1f77b4; opacity: 0.5"/>
   </g>
   <g id="patch_135">
    <path d="M 359.020252 297.619179 
L 361.171073 297.619179 
L 361.171073 297.348322 
L 359.020252 297.348322 
z
" clip-path="url(#paea48d1613)" style="fill: #1f77b4; opacity: 0.5"/>
   </g>
   <g id="patch_136">
    <path d="M 361.171073 297.619179 
L 363.321895 297.619179 
L 363.321895 297.619179 
L 361.171073 297.619179 
z
" clip-path="url(#paea48d1613)" style="fill: #1f77b4; opacity: 0.5"/>
   </g>
   <g id="patch_137">
    <path d="M 363.321895 297.619179 
L 365.472716 297.619179 
L 365.472716 297.348322 
L 363.321895 297.348322 
z
" clip-path="url(#paea48d1613)" style="fill: #1f77b4; opacity: 0.5"/>
   </g>
   <g id="patch_138">
    <path d="M 365.472716 297.619179 
L 367.623538 297.619179 
L 367.623538 297.619179 
L 365.472716 297.619179 
z
" clip-path="url(#paea48d1613)" style="fill: #1f77b4; opacity: 0.5"/>
   </g>
   <g id="patch_139">
    <path d="M 367.623538 297.619179 
L 369.774359 297.619179 
L 369.774359 297.619179 
L 367.623538 297.619179 
z
" clip-path="url(#paea48d1613)" style="fill: #1f77b4; opacity: 0.5"/>
   </g>
   <g id="patch_140">
    <path d="M 369.774359 297.619179 
L 371.925181 297.619179 
L 371.925181 297.348322 
L 369.774359 297.348322 
z
" clip-path="url(#paea48d1613)" style="fill: #1f77b4; opacity: 0.5"/>
   </g>
   <g id="patch_141">
    <path d="M 371.925181 297.619179 
L 374.076002 297.619179 
L 374.076002 297.619179 
L 371.925181 297.619179 
z
" clip-path="url(#paea48d1613)" style="fill: #1f77b4; opacity: 0.5"/>
   </g>
   <g id="patch_142">
    <path d="M 374.076002 297.619179 
L 376.226824 297.619179 
L 376.226824 297.348322 
L 374.076002 297.348322 
z
" clip-path="url(#paea48d1613)" style="fill: #1f77b4; opacity: 0.5"/>
   </g>
   <g id="patch_143">
    <path d="M 376.226824 297.619179 
L 378.377645 297.619179 
L 378.377645 297.619179 
L 376.226824 297.619179 
z
" clip-path="url(#paea48d1613)" style="fill: #1f77b4; opacity: 0.5"/>
   </g>
   <g id="patch_144">
    <path d="M 378.377645 297.619179 
L 380.528467 297.619179 
L 380.528467 297.619179 
L 378.377645 297.619179 
z
" clip-path="url(#paea48d1613)" style="fill: #1f77b4; opacity: 0.5"/>
   </g>
   <g id="patch_145">
    <path d="M 380.528467 297.619179 
L 382.679288 297.619179 
L 382.679288 297.619179 
L 380.528467 297.619179 
z
" clip-path="url(#paea48d1613)" style="fill: #1f77b4; opacity: 0.5"/>
   </g>
   <g id="patch_146">
    <path d="M 382.679288 297.619179 
L 384.83011 297.619179 
L 384.83011 297.619179 
L 382.679288 297.619179 
z
" clip-path="url(#paea48d1613)" style="fill: #1f77b4; opacity: 0.5"/>
   </g>
   <g id="patch_147">
    <path d="M 384.83011 297.619179 
L 386.980931 297.619179 
L 386.980931 297.619179 
L 384.83011 297.619179 
z
" clip-path="url(#paea48d1613)" style="fill: #1f77b4; opacity: 0.5"/>
   </g>
   <g id="patch_148">
    <path d="M 386.980931 297.619179 
L 389.131752 297.619179 
L 389.131752 297.619179 
L 386.980931 297.619179 
z
" clip-path="url(#paea48d1613)" style="fill: #1f77b4; opacity: 0.5"/>
   </g>
   <g id="patch_149">
    <path d="M 389.131752 297.619179 
L 391.282574 297.619179 
L 391.282574 297.619179 
L 389.131752 297.619179 
z
" clip-path="url(#paea48d1613)" style="fill: #1f77b4; opacity: 0.5"/>
   </g>
   <g id="patch_150">
    <path d="M 391.282574 297.619179 
L 393.433395 297.619179 
L 393.433395 297.619179 
L 391.282574 297.619179 
z
" clip-path="url(#paea48d1613)" style="fill: #1f77b4; opacity: 0.5"/>
   </g>
   <g id="patch_151">
    <path d="M 393.433395 297.619179 
L 395.584217 297.619179 
L 395.584217 297.212894 
L 393.433395 297.212894 
z
" clip-path="url(#paea48d1613)" style="fill: #1f77b4; opacity: 0.5"/>
   </g>
   <g id="patch_152">
    <path d="M 395.584217 297.619179 
L 397.735038 297.619179 
L 397.735038 297.619179 
L 395.584217 297.619179 
z
" clip-path="url(#paea48d1613)" style="fill: #1f77b4; opacity: 0.5"/>
   </g>
   <g id="patch_153">
    <path d="M 397.735038 297.619179 
L 399.88586 297.619179 
L 399.88586 297.619179 
L 397.735038 297.619179 
z
" clip-path="url(#paea48d1613)" style="fill: #1f77b4; opacity: 0.5"/>
   </g>
   <g id="patch_154">
    <path d="M 399.88586 297.619179 
L 402.036681 297.619179 
L 402.036681 297.619179 
L 399.88586 297.619179 
z
" clip-path="url(#paea48d1613)" style="fill: #1f77b4; opacity: 0.5"/>
   </g>
   <g id="patch_155">
    <path d="M 402.036681 297.619179 
L 404.187503 297.619179 
L 404.187503 297.619179 
L 402.036681 297.619179 
z
" clip-path="url(#paea48d1613)" style="fill: #1f77b4; opacity: 0.5"/>
   </g>
   <g id="patch_156">
    <path d="M 404.187503 297.619179 
L 406.338324 297.619179 
L 406.338324 297.619179 
L 404.187503 297.619179 
z
" clip-path="url(#paea48d1613)" style="fill: #1f77b4; opacity: 0.5"/>
   </g>
   <g id="patch_157">
    <path d="M 406.338324 297.619179 
L 408.489146 297.619179 
L 408.489146 297.619179 
L 406.338324 297.619179 
z
" clip-path="url(#paea48d1613)" style="fill: #1f77b4; opacity: 0.5"/>
   </g>
   <g id="patch_158">
    <path d="M 408.489146 297.619179 
L 410.639967 297.619179 
L 410.639967 297.619179 
L 408.489146 297.619179 
z
" clip-path="url(#paea48d1613)" style="fill: #1f77b4; opacity: 0.5"/>
   </g>
   <g id="patch_159">
    <path d="M 410.639967 297.619179 
L 412.790789 297.619179 
L 412.790789 297.619179 
L 410.639967 297.619179 
z
" clip-path="url(#paea48d1613)" style="fill: #1f77b4; opacity: 0.5"/>
   </g>
   <g id="patch_160">
    <path d="M 412.790789 297.619179 
L 414.94161 297.619179 
L 414.94161 297.619179 
L 412.790789 297.619179 
z
" clip-path="url(#paea48d1613)" style="fill: #1f77b4; opacity: 0.5"/>
   </g>
   <g id="patch_161">
    <path d="M 414.94161 297.619179 
L 417.092432 297.619179 
L 417.092432 297.619179 
L 414.94161 297.619179 
z
" clip-path="url(#paea48d1613)" style="fill: #1f77b4; opacity: 0.5"/>
   </g>
   <g id="patch_162">
    <path d="M 417.092432 297.619179 
L 419.243253 297.619179 
L 419.243253 297.619179 
L 417.092432 297.619179 
z
" clip-path="url(#paea48d1613)" style="fill: #1f77b4; opacity: 0.5"/>
   </g>
   <g id="patch_163">
    <path d="M 419.243253 297.619179 
L 421.394074 297.619179 
L 421.394074 297.619179 
L 419.243253 297.619179 
z
" clip-path="url(#paea48d1613)" style="fill: #1f77b4; opacity: 0.5"/>
   </g>
   <g id="patch_164">
    <path d="M 421.394074 297.619179 
L 423.544896 297.619179 
L 423.544896 297.619179 
L 421.394074 297.619179 
z
" clip-path="url(#paea48d1613)" style="fill: #1f77b4; opacity: 0.5"/>
   </g>
   <g id="patch_165">
    <path d="M 423.544896 297.619179 
L 425.695717 297.619179 
L 425.695717 297.619179 
L 423.544896 297.619179 
z
" clip-path="url(#paea48d1613)" style="fill: #1f77b4; opacity: 0.5"/>
   </g>
   <g id="patch_166">
    <path d="M 425.695717 297.619179 
L 427.846539 297.619179 
L 427.846539 297.619179 
L 425.695717 297.619179 
z
" clip-path="url(#paea48d1613)" style="fill: #1f77b4; opacity: 0.5"/>
   </g>
   <g id="patch_167">
    <path d="M 427.846539 297.619179 
L 429.99736 297.619179 
L 429.99736 297.619179 
L 427.846539 297.619179 
z
" clip-path="url(#paea48d1613)" style="fill: #1f77b4; opacity: 0.5"/>
   </g>
   <g id="patch_168">
    <path d="M 429.99736 297.619179 
L 432.148182 297.619179 
L 432.148182 297.48375 
L 429.99736 297.48375 
z
" clip-path="url(#paea48d1613)" style="fill: #1f77b4; opacity: 0.5"/>
   </g>
   <g id="matplotlib.axis_1">
    <g id="xtick_1">
     <g id="line2d_1">
      <defs>
       <path id="m5d4f72e90b" d="M 0 0 
L 0 3.5 
" style="stroke: #000000; stroke-width: 0.8"/>
      </defs>
      <g>
       <use xlink:href="#m5d4f72e90b" x="74.621713" y="297.619179" style="stroke: #000000; stroke-width: 0.8"/>
      </g>
     </g>
     <g id="text_1">
      <!-- 0 -->
      <g transform="translate(74.323402 314.491052) rotate(-45) scale(0.1 -0.1)">
       <defs>
        <path id="DejaVuSans-30" d="M 2034 4250 
Q 1547 4250 1301 3770 
Q 1056 3291 1056 2328 
Q 1056 1369 1301 889 
Q 1547 409 2034 409 
Q 2525 409 2770 889 
Q 3016 1369 3016 2328 
Q 3016 3291 2770 3770 
Q 2525 4250 2034 4250 
z
M 2034 4750 
Q 2819 4750 3233 4129 
Q 3647 3509 3647 2328 
Q 3647 1150 3233 529 
Q 2819 -91 2034 -91 
Q 1250 -91 836 529 
Q 422 1150 422 2328 
Q 422 3509 836 4129 
Q 1250 4750 2034 4750 
z
" transform="scale(0.015625)"/>
       </defs>
       <use xlink:href="#DejaVuSans-30"/>
      </g>
     </g>
    </g>
    <g id="xtick_2">
     <g id="line2d_2">
      <g>
       <use xlink:href="#m5d4f72e90b" x="145.322274" y="297.619179" style="stroke: #000000; stroke-width: 0.8"/>
      </g>
     </g>
     <g id="text_2">
      <!-- 5 -->
      <g transform="translate(145.023963 314.491052) rotate(-45) scale(0.1 -0.1)">
       <defs>
        <path id="DejaVuSans-35" d="M 691 4666 
L 3169 4666 
L 3169 4134 
L 1269 4134 
L 1269 2991 
Q 1406 3038 1543 3061 
Q 1681 3084 1819 3084 
Q 2600 3084 3056 2656 
Q 3513 2228 3513 1497 
Q 3513 744 3044 326 
Q 2575 -91 1722 -91 
Q 1428 -91 1123 -41 
Q 819 9 494 109 
L 494 744 
Q 775 591 1075 516 
Q 1375 441 1709 441 
Q 2250 441 2565 725 
Q 2881 1009 2881 1497 
Q 2881 1984 2565 2268 
Q 2250 2553 1709 2553 
Q 1456 2553 1204 2497 
Q 953 2441 691 2322 
L 691 4666 
z
" transform="scale(0.015625)"/>
       </defs>
       <use xlink:href="#DejaVuSans-35"/>
      </g>
     </g>
    </g>
    <g id="xtick_3">
     <g id="line2d_3">
      <g>
       <use xlink:href="#m5d4f72e90b" x="216.022835" y="297.619179" style="stroke: #000000; stroke-width: 0.8"/>
      </g>
     </g>
     <g id="text_3">
      <!-- 10 -->
      <g transform="translate(213.475041 318.990019) rotate(-45) scale(0.1 -0.1)">
       <defs>
        <path id="DejaVuSans-31" d="M 794 531 
L 1825 531 
L 1825 4091 
L 703 3866 
L 703 4441 
L 1819 4666 
L 2450 4666 
L 2450 531 
L 3481 531 
L 3481 0 
L 794 0 
L 794 531 
z
" transform="scale(0.015625)"/>
       </defs>
       <use xlink:href="#DejaVuSans-31"/>
       <use xlink:href="#DejaVuSans-30" x="63.623047"/>
      </g>
     </g>
    </g>
    <g id="xtick_4">
     <g id="line2d_4">
      <g>
       <use xlink:href="#m5d4f72e90b" x="286.723396" y="297.619179" style="stroke: #000000; stroke-width: 0.8"/>
      </g>
     </g>
     <g id="text_4">
      <!-- 15 -->
      <g transform="translate(284.175602 318.990019) rotate(-45) scale(0.1 -0.1)">
       <use xlink:href="#DejaVuSans-31"/>
       <use xlink:href="#DejaVuSans-35" x="63.623047"/>
      </g>
     </g>
    </g>
    <g id="xtick_5">
     <g id="line2d_5">
      <g>
       <use xlink:href="#m5d4f72e90b" x="357.423957" y="297.619179" style="stroke: #000000; stroke-width: 0.8"/>
      </g>
     </g>
     <g id="text_5">
      <!-- 20 -->
      <g transform="translate(354.876162 318.990019) rotate(-45) scale(0.1 -0.1)">
       <defs>
        <path id="DejaVuSans-32" d="M 1228 531 
L 3431 531 
L 3431 0 
L 469 0 
L 469 531 
Q 828 903 1448 1529 
Q 2069 2156 2228 2338 
Q 2531 2678 2651 2914 
Q 2772 3150 2772 3378 
Q 2772 3750 2511 3984 
Q 2250 4219 1831 4219 
Q 1534 4219 1204 4116 
Q 875 4013 500 3803 
L 500 4441 
Q 881 4594 1212 4672 
Q 1544 4750 1819 4750 
Q 2544 4750 2975 4387 
Q 3406 4025 3406 3419 
Q 3406 3131 3298 2873 
Q 3191 2616 2906 2266 
Q 2828 2175 2409 1742 
Q 1991 1309 1228 531 
z
" transform="scale(0.015625)"/>
       </defs>
       <use xlink:href="#DejaVuSans-32"/>
       <use xlink:href="#DejaVuSans-30" x="63.623047"/>
      </g>
     </g>
    </g>
    <g id="xtick_6">
     <g id="line2d_6">
      <g>
       <use xlink:href="#m5d4f72e90b" x="428.124517" y="297.619179" style="stroke: #000000; stroke-width: 0.8"/>
      </g>
     </g>
     <g id="text_6">
      <!-- 25 -->
      <g transform="translate(425.576723 318.990019) rotate(-45) scale(0.1 -0.1)">
       <use xlink:href="#DejaVuSans-32"/>
       <use xlink:href="#DejaVuSans-35" x="63.623047"/>
      </g>
     </g>
    </g>
    <g id="text_7">
     <!-- Werte -->
     <g transform="translate(238.81125 332.059018) scale(0.1 -0.1)">
      <defs>
       <path id="DejaVuSans-57" d="M 213 4666 
L 850 4666 
L 1831 722 
L 2809 4666 
L 3519 4666 
L 4500 722 
L 5478 4666 
L 6119 4666 
L 4947 0 
L 4153 0 
L 3169 4050 
L 2175 0 
L 1381 0 
L 213 4666 
z
" transform="scale(0.015625)"/>
       <path id="DejaVuSans-65" d="M 3597 1894 
L 3597 1613 
L 953 1613 
Q 991 1019 1311 708 
Q 1631 397 2203 397 
Q 2534 397 2845 478 
Q 3156 559 3463 722 
L 3463 178 
Q 3153 47 2828 -22 
Q 2503 -91 2169 -91 
Q 1331 -91 842 396 
Q 353 884 353 1716 
Q 353 2575 817 3079 
Q 1281 3584 2069 3584 
Q 2775 3584 3186 3129 
Q 3597 2675 3597 1894 
z
M 3022 2063 
Q 3016 2534 2758 2815 
Q 2500 3097 2075 3097 
Q 1594 3097 1305 2825 
Q 1016 2553 972 2059 
L 3022 2063 
z
" transform="scale(0.015625)"/>
       <path id="DejaVuSans-72" d="M 2631 2963 
Q 2534 3019 2420 3045 
Q 2306 3072 2169 3072 
Q 1681 3072 1420 2755 
Q 1159 2438 1159 1844 
L 1159 0 
L 581 0 
L 581 3500 
L 1159 3500 
L 1159 2956 
Q 1341 3275 1631 3429 
Q 1922 3584 2338 3584 
Q 2397 3584 2469 3576 
Q 2541 3569 2628 3553 
L 2631 2963 
z
" transform="scale(0.015625)"/>
       <path id="DejaVuSans-74" d="M 1172 4494 
L 1172 3500 
L 2356 3500 
L 2356 3053 
L 1172 3053 
L 1172 1153 
Q 1172 725 1289 603 
Q 1406 481 1766 481 
L 2356 481 
L 2356 0 
L 1766 0 
Q 1100 0 847 248 
Q 594 497 594 1153 
L 594 3053 
L 172 3053 
L 172 3500 
L 594 3500 
L 594 4494 
L 1172 4494 
z
" transform="scale(0.015625)"/>
      </defs>
      <use xlink:href="#DejaVuSans-57"/>
      <use xlink:href="#DejaVuSans-65" x="93.001953"/>
      <use xlink:href="#DejaVuSans-72" x="154.525391"/>
      <use xlink:href="#DejaVuSans-74" x="195.638672"/>
      <use xlink:href="#DejaVuSans-65" x="234.847656"/>
     </g>
    </g>
   </g>
   <g id="matplotlib.axis_2">
    <g id="ytick_1">
     <g id="line2d_7">
      <defs>
       <path id="m19e580b1ca" d="M 0 0 
L -3.5 0 
" style="stroke: #000000; stroke-width: 0.8"/>
      </defs>
      <g>
       <use xlink:href="#m19e580b1ca" x="57.26" y="297.619179" style="stroke: #000000; stroke-width: 0.8"/>
      </g>
     </g>
     <g id="text_8">
      <!-- 0 -->
      <g transform="translate(43.8975 301.418397) scale(0.1 -0.1)">
       <use xlink:href="#DejaVuSans-30"/>
      </g>
     </g>
    </g>
    <g id="ytick_2">
     <g id="line2d_8">
      <g>
       <use xlink:href="#m19e580b1ca" x="57.26" y="263.762113" style="stroke: #000000; stroke-width: 0.8"/>
      </g>
     </g>
     <g id="text_9">
      <!-- 250 -->
      <g transform="translate(31.1725 267.561332) scale(0.1 -0.1)">
       <use xlink:href="#DejaVuSans-32"/>
       <use xlink:href="#DejaVuSans-35" x="63.623047"/>
       <use xlink:href="#DejaVuSans-30" x="127.246094"/>
      </g>
     </g>
    </g>
    <g id="ytick_3">
     <g id="line2d_9">
      <g>
       <use xlink:href="#m19e580b1ca" x="57.26" y="229.905048" style="stroke: #000000; stroke-width: 0.8"/>
      </g>
     </g>
     <g id="text_10">
      <!-- 500 -->
      <g transform="translate(31.1725 233.704267) scale(0.1 -0.1)">
       <use xlink:href="#DejaVuSans-35"/>
       <use xlink:href="#DejaVuSans-30" x="63.623047"/>
       <use xlink:href="#DejaVuSans-30" x="127.246094"/>
      </g>
     </g>
    </g>
    <g id="ytick_4">
     <g id="line2d_10">
      <g>
       <use xlink:href="#m19e580b1ca" x="57.26" y="196.047983" style="stroke: #000000; stroke-width: 0.8"/>
      </g>
     </g>
     <g id="text_11">
      <!-- 750 -->
      <g transform="translate(31.1725 199.847201) scale(0.1 -0.1)">
       <defs>
        <path id="DejaVuSans-37" d="M 525 4666 
L 3525 4666 
L 3525 4397 
L 1831 0 
L 1172 0 
L 2766 4134 
L 525 4134 
L 525 4666 
z
" transform="scale(0.015625)"/>
       </defs>
       <use xlink:href="#DejaVuSans-37"/>
       <use xlink:href="#DejaVuSans-35" x="63.623047"/>
       <use xlink:href="#DejaVuSans-30" x="127.246094"/>
      </g>
     </g>
    </g>
    <g id="ytick_5">
     <g id="line2d_11">
      <g>
       <use xlink:href="#m19e580b1ca" x="57.26" y="162.190917" style="stroke: #000000; stroke-width: 0.8"/>
      </g>
     </g>
     <g id="text_12">
      <!-- 1000 -->
      <g transform="translate(24.81 165.990136) scale(0.1 -0.1)">
       <use xlink:href="#DejaVuSans-31"/>
       <use xlink:href="#DejaVuSans-30" x="63.623047"/>
       <use xlink:href="#DejaVuSans-30" x="127.246094"/>
       <use xlink:href="#DejaVuSans-30" x="190.869141"/>
      </g>
     </g>
    </g>
    <g id="ytick_6">
     <g id="line2d_12">
      <g>
       <use xlink:href="#m19e580b1ca" x="57.26" y="128.333852" style="stroke: #000000; stroke-width: 0.8"/>
      </g>
     </g>
     <g id="text_13">
      <!-- 1250 -->
      <g transform="translate(24.81 132.133071) scale(0.1 -0.1)">
       <use xlink:href="#DejaVuSans-31"/>
       <use xlink:href="#DejaVuSans-32" x="63.623047"/>
       <use xlink:href="#DejaVuSans-35" x="127.246094"/>
       <use xlink:href="#DejaVuSans-30" x="190.869141"/>
      </g>
     </g>
    </g>
    <g id="ytick_7">
     <g id="line2d_13">
      <g>
       <use xlink:href="#m19e580b1ca" x="57.26" y="94.476786" style="stroke: #000000; stroke-width: 0.8"/>
      </g>
     </g>
     <g id="text_14">
      <!-- 1500 -->
      <g transform="translate(24.81 98.276005) scale(0.1 -0.1)">
       <use xlink:href="#DejaVuSans-31"/>
       <use xlink:href="#DejaVuSans-35" x="63.623047"/>
       <use xlink:href="#DejaVuSans-30" x="127.246094"/>
       <use xlink:href="#DejaVuSans-30" x="190.869141"/>
      </g>
     </g>
    </g>
    <g id="ytick_8">
     <g id="line2d_14">
      <g>
       <use xlink:href="#m19e580b1ca" x="57.26" y="60.619721" style="stroke: #000000; stroke-width: 0.8"/>
      </g>
     </g>
     <g id="text_15">
      <!-- 1750 -->
      <g transform="translate(24.81 64.41894) scale(0.1 -0.1)">
       <use xlink:href="#DejaVuSans-31"/>
       <use xlink:href="#DejaVuSans-37" x="63.623047"/>
       <use xlink:href="#DejaVuSans-35" x="127.246094"/>
       <use xlink:href="#DejaVuSans-30" x="190.869141"/>
      </g>
     </g>
    </g>
    <g id="ytick_9">
     <g id="line2d_15">
      <g>
       <use xlink:href="#m19e580b1ca" x="57.26" y="26.762656" style="stroke: #000000; stroke-width: 0.8"/>
      </g>
     </g>
     <g id="text_16">
      <!-- 2000 -->
      <g transform="translate(24.81 30.561875) scale(0.1 -0.1)">
       <use xlink:href="#DejaVuSans-32"/>
       <use xlink:href="#DejaVuSans-30" x="63.623047"/>
       <use xlink:href="#DejaVuSans-30" x="127.246094"/>
       <use xlink:href="#DejaVuSans-30" x="190.869141"/>
      </g>
     </g>
    </g>
    <g id="text_17">
     <!-- Häufigkeit -->
     <g transform="translate(18.730313 187.345839) rotate(-90) scale(0.1 -0.1)">
      <defs>
       <path id="DejaVuSans-48" d="M 628 4666 
L 1259 4666 
L 1259 2753 
L 3553 2753 
L 3553 4666 
L 4184 4666 
L 4184 0 
L 3553 0 
L 3553 2222 
L 1259 2222 
L 1259 0 
L 628 0 
L 628 4666 
z
" transform="scale(0.015625)"/>
       <path id="DejaVuSans-e4" d="M 2194 1759 
Q 1497 1759 1228 1600 
Q 959 1441 959 1056 
Q 959 750 1161 570 
Q 1363 391 1709 391 
Q 2188 391 2477 730 
Q 2766 1069 2766 1631 
L 2766 1759 
L 2194 1759 
z
M 3341 1997 
L 3341 0 
L 2766 0 
L 2766 531 
Q 2569 213 2275 61 
Q 1981 -91 1556 -91 
Q 1019 -91 701 211 
Q 384 513 384 1019 
Q 384 1609 779 1909 
Q 1175 2209 1959 2209 
L 2766 2209 
L 2766 2266 
Q 2766 2663 2505 2880 
Q 2244 3097 1772 3097 
Q 1472 3097 1187 3025 
Q 903 2953 641 2809 
L 641 3341 
Q 956 3463 1253 3523 
Q 1550 3584 1831 3584 
Q 2591 3584 2966 3190 
Q 3341 2797 3341 1997 
z
M 2150 4850 
L 2784 4850 
L 2784 4219 
L 2150 4219 
L 2150 4850 
z
M 928 4850 
L 1563 4850 
L 1563 4219 
L 928 4219 
L 928 4850 
z
" transform="scale(0.015625)"/>
       <path id="DejaVuSans-75" d="M 544 1381 
L 544 3500 
L 1119 3500 
L 1119 1403 
Q 1119 906 1312 657 
Q 1506 409 1894 409 
Q 2359 409 2629 706 
Q 2900 1003 2900 1516 
L 2900 3500 
L 3475 3500 
L 3475 0 
L 2900 0 
L 2900 538 
Q 2691 219 2414 64 
Q 2138 -91 1772 -91 
Q 1169 -91 856 284 
Q 544 659 544 1381 
z
M 1991 3584 
L 1991 3584 
z
" transform="scale(0.015625)"/>
       <path id="DejaVuSans-66" d="M 2375 4863 
L 2375 4384 
L 1825 4384 
Q 1516 4384 1395 4259 
Q 1275 4134 1275 3809 
L 1275 3500 
L 2222 3500 
L 2222 3053 
L 1275 3053 
L 1275 0 
L 697 0 
L 697 3053 
L 147 3053 
L 147 3500 
L 697 3500 
L 697 3744 
Q 697 4328 969 4595 
Q 1241 4863 1831 4863 
L 2375 4863 
z
" transform="scale(0.015625)"/>
       <path id="DejaVuSans-69" d="M 603 3500 
L 1178 3500 
L 1178 0 
L 603 0 
L 603 3500 
z
M 603 4863 
L 1178 4863 
L 1178 4134 
L 603 4134 
L 603 4863 
z
" transform="scale(0.015625)"/>
       <path id="DejaVuSans-67" d="M 2906 1791 
Q 2906 2416 2648 2759 
Q 2391 3103 1925 3103 
Q 1463 3103 1205 2759 
Q 947 2416 947 1791 
Q 947 1169 1205 825 
Q 1463 481 1925 481 
Q 2391 481 2648 825 
Q 2906 1169 2906 1791 
z
M 3481 434 
Q 3481 -459 3084 -895 
Q 2688 -1331 1869 -1331 
Q 1566 -1331 1297 -1286 
Q 1028 -1241 775 -1147 
L 775 -588 
Q 1028 -725 1275 -790 
Q 1522 -856 1778 -856 
Q 2344 -856 2625 -561 
Q 2906 -266 2906 331 
L 2906 616 
Q 2728 306 2450 153 
Q 2172 0 1784 0 
Q 1141 0 747 490 
Q 353 981 353 1791 
Q 353 2603 747 3093 
Q 1141 3584 1784 3584 
Q 2172 3584 2450 3431 
Q 2728 3278 2906 2969 
L 2906 3500 
L 3481 3500 
L 3481 434 
z
" transform="scale(0.015625)"/>
       <path id="DejaVuSans-6b" d="M 581 4863 
L 1159 4863 
L 1159 1991 
L 2875 3500 
L 3609 3500 
L 1753 1863 
L 3688 0 
L 2938 0 
L 1159 1709 
L 1159 0 
L 581 0 
L 581 4863 
z
" transform="scale(0.015625)"/>
      </defs>
      <use xlink:href="#DejaVuSans-48"/>
      <use xlink:href="#DejaVuSans-e4" x="75.195312"/>
      <use xlink:href="#DejaVuSans-75" x="136.474609"/>
      <use xlink:href="#DejaVuSans-66" x="199.853516"/>
      <use xlink:href="#DejaVuSans-69" x="235.058594"/>
      <use xlink:href="#DejaVuSans-67" x="262.841797"/>
      <use xlink:href="#DejaVuSans-6b" x="326.318359"/>
      <use xlink:href="#DejaVuSans-65" x="380.603516"/>
      <use xlink:href="#DejaVuSans-69" x="442.126953"/>
      <use xlink:href="#DejaVuSans-74" x="469.910156"/>
     </g>
    </g>
   </g>
   <g id="patch_169">
    <path d="M 57.26 297.619179 
L 57.26 26.16 
" style="fill: none; stroke: #000000; stroke-width: 0.8; stroke-linejoin: miter; stroke-linecap: square"/>
   </g>
   <g id="patch_170">
    <path d="M 450 297.619179 
L 450 26.16 
" style="fill: none; stroke: #000000; stroke-width: 0.8; stroke-linejoin: miter; stroke-linecap: square"/>
   </g>
   <g id="patch_171">
    <path d="M 57.26 297.619179 
L 450 297.619179 
" style="fill: none; stroke: #000000; stroke-width: 0.8; stroke-linejoin: miter; stroke-linecap: square"/>
   </g>
   <g id="patch_172">
    <path d="M 57.26 26.16 
L 450 26.16 
" style="fill: none; stroke: #000000; stroke-width: 0.8; stroke-linejoin: miter; stroke-linecap: square"/>
   </g>
   <g id="text_18">
    <!-- dist -->
    <g transform="translate(242.67625 20.16) scale(0.12 -0.12)">
     <defs>
      <path id="DejaVuSans-64" d="M 2906 2969 
L 2906 4863 
L 3481 4863 
L 3481 0 
L 2906 0 
L 2906 525 
Q 2725 213 2448 61 
Q 2172 -91 1784 -91 
Q 1150 -91 751 415 
Q 353 922 353 1747 
Q 353 2572 751 3078 
Q 1150 3584 1784 3584 
Q 2172 3584 2448 3432 
Q 2725 3281 2906 2969 
z
M 947 1747 
Q 947 1113 1208 752 
Q 1469 391 1925 391 
Q 2381 391 2643 752 
Q 2906 1113 2906 1747 
Q 2906 2381 2643 2742 
Q 2381 3103 1925 3103 
Q 1469 3103 1208 2742 
Q 947 2381 947 1747 
z
" transform="scale(0.015625)"/>
      <path id="DejaVuSans-73" d="M 2834 3397 
L 2834 2853 
Q 2591 2978 2328 3040 
Q 2066 3103 1784 3103 
Q 1356 3103 1142 2972 
Q 928 2841 928 2578 
Q 928 2378 1081 2264 
Q 1234 2150 1697 2047 
L 1894 2003 
Q 2506 1872 2764 1633 
Q 3022 1394 3022 966 
Q 3022 478 2636 193 
Q 2250 -91 1575 -91 
Q 1294 -91 989 -36 
Q 684 19 347 128 
L 347 722 
Q 666 556 975 473 
Q 1284 391 1588 391 
Q 1994 391 2212 530 
Q 2431 669 2431 922 
Q 2431 1156 2273 1281 
Q 2116 1406 1581 1522 
L 1381 1569 
Q 847 1681 609 1914 
Q 372 2147 372 2553 
Q 372 3047 722 3315 
Q 1072 3584 1716 3584 
Q 2034 3584 2315 3537 
Q 2597 3491 2834 3397 
z
" transform="scale(0.015625)"/>
     </defs>
     <use xlink:href="#DejaVuSans-64"/>
     <use xlink:href="#DejaVuSans-69" x="63.476562"/>
     <use xlink:href="#DejaVuSans-73" x="91.259766"/>
     <use xlink:href="#DejaVuSans-74" x="143.359375"/>
    </g>
   </g>
  </g>
 </g>
 <defs>
  <clipPath id="paea48d1613">
   <rect x="57.26" y="26.16" width="392.74" height="271.459179"/>
  </clipPath>
 </defs>
</svg>
