<?xml version="1.0" encoding="utf-8" standalone="no"?>
<!DOCTYPE svg PUBLIC "-//W3C//DTD SVG 1.1//EN"
  "http://www.w3.org/Graphics/SVG/1.1/DTD/svg11.dtd">
<svg xmlns:xlink="http://www.w3.org/1999/xlink" width="460.8pt" height="345.6pt" viewBox="0 0 460.8 345.6" xmlns="http://www.w3.org/2000/svg" version="1.1">
 <metadata>
  <rdf:RDF xmlns:dc="http://purl.org/dc/elements/1.1/" xmlns:cc="http://creativecommons.org/ns#" xmlns:rdf="http://www.w3.org/1999/02/22-rdf-syntax-ns#">
   <cc:Work>
    <dc:type rdf:resource="http://purl.org/dc/dcmitype/StillImage"/>
    <dc:date>2024-01-20T11:54:03.217422</dc:date>
    <dc:format>image/svg+xml</dc:format>
    <dc:creator>
     <cc:Agent>
      <dc:title>Matplotlib v3.8.0, https://matplotlib.org/</dc:title>
     </cc:Agent>
    </dc:creator>
   </cc:Work>
  </rdf:RDF>
 </metadata>
 <defs>
  <style type="text/css">*{stroke-linejoin: round; stroke-linecap: butt}</style>
 </defs>
 <g id="figure_1">
  <g id="patch_1">
   <path d="M 0 345.6 
L 460.8 345.6 
L 460.8 0 
L 0 0 
z
" style="fill: #ffffff"/>
  </g>
  <g id="axes_1">
   <g id="patch_2">
    <path d="M 63.605 293.132586 
L 450 293.132586 
L 450 26.16 
L 63.605 26.16 
z
" style="fill: #ffffff"/>
   </g>
   <g id="patch_3">
    <path d="M 81.168409 293.132586 
L 83.297307 293.132586 
L 83.297307 289.482458 
L 81.168409 289.482458 
z
" clip-path="url(#p2f93824070)" style="fill: #1f77b4; opacity: 0.5"/>
   </g>
   <g id="patch_4">
    <path d="M 83.297307 293.132586 
L 85.426205 293.132586 
L 85.426205 293.132586 
L 83.297307 293.132586 
z
" clip-path="url(#p2f93824070)" style="fill: #1f77b4; opacity: 0.5"/>
   </g>
   <g id="patch_5">
    <path d="M 85.426205 293.132586 
L 87.555103 293.132586 
L 87.555103 293.132586 
L 85.426205 293.132586 
z
" clip-path="url(#p2f93824070)" style="fill: #1f77b4; opacity: 0.5"/>
   </g>
   <g id="patch_6">
    <path d="M 87.555103 293.132586 
L 89.684001 293.132586 
L 89.684001 293.132586 
L 87.555103 293.132586 
z
" clip-path="url(#p2f93824070)" style="fill: #1f77b4; opacity: 0.5"/>
   </g>
   <g id="patch_7">
    <path d="M 89.684001 293.132586 
L 91.812899 293.132586 
L 91.812899 293.132586 
L 89.684001 293.132586 
z
" clip-path="url(#p2f93824070)" style="fill: #1f77b4; opacity: 0.5"/>
   </g>
   <g id="patch_8">
    <path d="M 91.812899 293.132586 
L 93.941798 293.132586 
L 93.941798 293.132586 
L 91.812899 293.132586 
z
" clip-path="url(#p2f93824070)" style="fill: #1f77b4; opacity: 0.5"/>
   </g>
   <g id="patch_9">
    <path d="M 93.941798 293.132586 
L 96.070696 293.132586 
L 96.070696 293.132586 
L 93.941798 293.132586 
z
" clip-path="url(#p2f93824070)" style="fill: #1f77b4; opacity: 0.5"/>
   </g>
   <g id="patch_10">
    <path d="M 96.070696 293.132586 
L 98.199594 293.132586 
L 98.199594 293.132586 
L 96.070696 293.132586 
z
" clip-path="url(#p2f93824070)" style="fill: #1f77b4; opacity: 0.5"/>
   </g>
   <g id="patch_11">
    <path d="M 98.199594 293.132586 
L 100.328492 293.132586 
L 100.328492 293.132586 
L 98.199594 293.132586 
z
" clip-path="url(#p2f93824070)" style="fill: #1f77b4; opacity: 0.5"/>
   </g>
   <g id="patch_12">
    <path d="M 100.328492 293.132586 
L 102.45739 293.132586 
L 102.45739 293.132586 
L 100.328492 293.132586 
z
" clip-path="url(#p2f93824070)" style="fill: #1f77b4; opacity: 0.5"/>
   </g>
   <g id="patch_13">
    <path d="M 102.45739 293.132586 
L 104.586288 293.132586 
L 104.586288 293.132586 
L 102.45739 293.132586 
z
" clip-path="url(#p2f93824070)" style="fill: #1f77b4; opacity: 0.5"/>
   </g>
   <g id="patch_14">
    <path d="M 104.586288 293.132586 
L 106.715186 293.132586 
L 106.715186 293.132586 
L 104.586288 293.132586 
z
" clip-path="url(#p2f93824070)" style="fill: #1f77b4; opacity: 0.5"/>
   </g>
   <g id="patch_15">
    <path d="M 106.715186 293.132586 
L 108.844084 293.132586 
L 108.844084 293.132586 
L 106.715186 293.132586 
z
" clip-path="url(#p2f93824070)" style="fill: #1f77b4; opacity: 0.5"/>
   </g>
   <g id="patch_16">
    <path d="M 108.844084 293.132586 
L 110.972982 293.132586 
L 110.972982 293.132586 
L 108.844084 293.132586 
z
" clip-path="url(#p2f93824070)" style="fill: #1f77b4; opacity: 0.5"/>
   </g>
   <g id="patch_17">
    <path d="M 110.972982 293.132586 
L 113.10188 293.132586 
L 113.10188 293.132586 
L 110.972982 293.132586 
z
" clip-path="url(#p2f93824070)" style="fill: #1f77b4; opacity: 0.5"/>
   </g>
   <g id="patch_18">
    <path d="M 113.10188 293.132586 
L 115.230778 293.132586 
L 115.230778 293.132586 
L 113.10188 293.132586 
z
" clip-path="url(#p2f93824070)" style="fill: #1f77b4; opacity: 0.5"/>
   </g>
   <g id="patch_19">
    <path d="M 115.230778 293.132586 
L 117.359676 293.132586 
L 117.359676 293.132586 
L 115.230778 293.132586 
z
" clip-path="url(#p2f93824070)" style="fill: #1f77b4; opacity: 0.5"/>
   </g>
   <g id="patch_20">
    <path d="M 117.359676 293.132586 
L 119.488574 293.132586 
L 119.488574 293.132586 
L 117.359676 293.132586 
z
" clip-path="url(#p2f93824070)" style="fill: #1f77b4; opacity: 0.5"/>
   </g>
   <g id="patch_21">
    <path d="M 119.488574 293.132586 
L 121.617472 293.132586 
L 121.617472 293.132586 
L 119.488574 293.132586 
z
" clip-path="url(#p2f93824070)" style="fill: #1f77b4; opacity: 0.5"/>
   </g>
   <g id="patch_22">
    <path d="M 121.617472 293.132586 
L 123.746371 293.132586 
L 123.746371 293.132586 
L 121.617472 293.132586 
z
" clip-path="url(#p2f93824070)" style="fill: #1f77b4; opacity: 0.5"/>
   </g>
   <g id="patch_23">
    <path d="M 123.746371 293.132586 
L 125.875269 293.132586 
L 125.875269 292.936606 
L 123.746371 292.936606 
z
" clip-path="url(#p2f93824070)" style="fill: #1f77b4; opacity: 0.5"/>
   </g>
   <g id="patch_24">
    <path d="M 125.875269 293.132586 
L 128.004167 293.132586 
L 128.004167 293.132586 
L 125.875269 293.132586 
z
" clip-path="url(#p2f93824070)" style="fill: #1f77b4; opacity: 0.5"/>
   </g>
   <g id="patch_25">
    <path d="M 128.004167 293.132586 
L 130.133065 293.132586 
L 130.133065 293.132586 
L 128.004167 293.132586 
z
" clip-path="url(#p2f93824070)" style="fill: #1f77b4; opacity: 0.5"/>
   </g>
   <g id="patch_26">
    <path d="M 130.133065 293.132586 
L 132.261963 293.132586 
L 132.261963 293.132586 
L 130.133065 293.132586 
z
" clip-path="url(#p2f93824070)" style="fill: #1f77b4; opacity: 0.5"/>
   </g>
   <g id="patch_27">
    <path d="M 132.261963 293.132586 
L 134.390861 293.132586 
L 134.390861 293.132586 
L 132.261963 293.132586 
z
" clip-path="url(#p2f93824070)" style="fill: #1f77b4; opacity: 0.5"/>
   </g>
   <g id="patch_28">
    <path d="M 134.390861 293.132586 
L 136.519759 293.132586 
L 136.519759 293.132586 
L 134.390861 293.132586 
z
" clip-path="url(#p2f93824070)" style="fill: #1f77b4; opacity: 0.5"/>
   </g>
   <g id="patch_29">
    <path d="M 136.519759 293.132586 
L 138.648657 293.132586 
L 138.648657 293.132586 
L 136.519759 293.132586 
z
" clip-path="url(#p2f93824070)" style="fill: #1f77b4; opacity: 0.5"/>
   </g>
   <g id="patch_30">
    <path d="M 138.648657 293.132586 
L 140.777555 293.132586 
L 140.777555 293.132586 
L 138.648657 293.132586 
z
" clip-path="url(#p2f93824070)" style="fill: #1f77b4; opacity: 0.5"/>
   </g>
   <g id="patch_31">
    <path d="M 140.777555 293.132586 
L 142.906453 293.132586 
L 142.906453 293.132586 
L 140.777555 293.132586 
z
" clip-path="url(#p2f93824070)" style="fill: #1f77b4; opacity: 0.5"/>
   </g>
   <g id="patch_32">
    <path d="M 142.906453 293.132586 
L 145.035351 293.132586 
L 145.035351 293.132586 
L 142.906453 293.132586 
z
" clip-path="url(#p2f93824070)" style="fill: #1f77b4; opacity: 0.5"/>
   </g>
   <g id="patch_33">
    <path d="M 145.035351 293.132586 
L 147.164249 293.132586 
L 147.164249 293.132586 
L 145.035351 293.132586 
z
" clip-path="url(#p2f93824070)" style="fill: #1f77b4; opacity: 0.5"/>
   </g>
   <g id="patch_34">
    <path d="M 147.164249 293.132586 
L 149.293147 293.132586 
L 149.293147 293.132586 
L 147.164249 293.132586 
z
" clip-path="url(#p2f93824070)" style="fill: #1f77b4; opacity: 0.5"/>
   </g>
   <g id="patch_35">
    <path d="M 149.293147 293.132586 
L 151.422045 293.132586 
L 151.422045 293.132586 
L 149.293147 293.132586 
z
" clip-path="url(#p2f93824070)" style="fill: #1f77b4; opacity: 0.5"/>
   </g>
   <g id="patch_36">
    <path d="M 151.422045 293.132586 
L 153.550944 293.132586 
L 153.550944 293.132586 
L 151.422045 293.132586 
z
" clip-path="url(#p2f93824070)" style="fill: #1f77b4; opacity: 0.5"/>
   </g>
   <g id="patch_37">
    <path d="M 153.550944 293.132586 
L 155.679842 293.132586 
L 155.679842 293.132586 
L 153.550944 293.132586 
z
" clip-path="url(#p2f93824070)" style="fill: #1f77b4; opacity: 0.5"/>
   </g>
   <g id="patch_38">
    <path d="M 155.679842 293.132586 
L 157.80874 293.132586 
L 157.80874 293.132586 
L 155.679842 293.132586 
z
" clip-path="url(#p2f93824070)" style="fill: #1f77b4; opacity: 0.5"/>
   </g>
   <g id="patch_39">
    <path d="M 157.80874 293.132586 
L 159.937638 293.132586 
L 159.937638 293.132586 
L 157.80874 293.132586 
z
" clip-path="url(#p2f93824070)" style="fill: #1f77b4; opacity: 0.5"/>
   </g>
   <g id="patch_40">
    <path d="M 159.937638 293.132586 
L 162.066536 293.132586 
L 162.066536 293.132586 
L 159.937638 293.132586 
z
" clip-path="url(#p2f93824070)" style="fill: #1f77b4; opacity: 0.5"/>
   </g>
   <g id="patch_41">
    <path d="M 162.066536 293.132586 
L 164.195434 293.132586 
L 164.195434 293.132586 
L 162.066536 293.132586 
z
" clip-path="url(#p2f93824070)" style="fill: #1f77b4; opacity: 0.5"/>
   </g>
   <g id="patch_42">
    <path d="M 164.195434 293.132586 
L 166.324332 293.132586 
L 166.324332 293.132586 
L 164.195434 293.132586 
z
" clip-path="url(#p2f93824070)" style="fill: #1f77b4; opacity: 0.5"/>
   </g>
   <g id="patch_43">
    <path d="M 166.324332 293.132586 
L 168.45323 293.132586 
L 168.45323 293.132586 
L 166.324332 293.132586 
z
" clip-path="url(#p2f93824070)" style="fill: #1f77b4; opacity: 0.5"/>
   </g>
   <g id="patch_44">
    <path d="M 168.45323 293.132586 
L 170.582128 293.132586 
L 170.582128 290.119393 
L 168.45323 290.119393 
z
" clip-path="url(#p2f93824070)" style="fill: #1f77b4; opacity: 0.5"/>
   </g>
   <g id="patch_45">
    <path d="M 170.582128 293.132586 
L 172.711026 293.132586 
L 172.711026 293.132586 
L 170.582128 293.132586 
z
" clip-path="url(#p2f93824070)" style="fill: #1f77b4; opacity: 0.5"/>
   </g>
   <g id="patch_46">
    <path d="M 172.711026 293.132586 
L 174.839924 293.132586 
L 174.839924 293.132586 
L 172.711026 293.132586 
z
" clip-path="url(#p2f93824070)" style="fill: #1f77b4; opacity: 0.5"/>
   </g>
   <g id="patch_47">
    <path d="M 174.839924 293.132586 
L 176.968822 293.132586 
L 176.968822 293.132586 
L 174.839924 293.132586 
z
" clip-path="url(#p2f93824070)" style="fill: #1f77b4; opacity: 0.5"/>
   </g>
   <g id="patch_48">
    <path d="M 176.968822 293.132586 
L 179.09772 293.132586 
L 179.09772 293.132586 
L 176.968822 293.132586 
z
" clip-path="url(#p2f93824070)" style="fill: #1f77b4; opacity: 0.5"/>
   </g>
   <g id="patch_49">
    <path d="M 179.09772 293.132586 
L 181.226618 293.132586 
L 181.226618 293.132586 
L 179.09772 293.132586 
z
" clip-path="url(#p2f93824070)" style="fill: #1f77b4; opacity: 0.5"/>
   </g>
   <g id="patch_50">
    <path d="M 181.226618 293.132586 
L 183.355517 293.132586 
L 183.355517 293.132586 
L 181.226618 293.132586 
z
" clip-path="url(#p2f93824070)" style="fill: #1f77b4; opacity: 0.5"/>
   </g>
   <g id="patch_51">
    <path d="M 183.355517 293.132586 
L 185.484415 293.132586 
L 185.484415 293.132586 
L 183.355517 293.132586 
z
" clip-path="url(#p2f93824070)" style="fill: #1f77b4; opacity: 0.5"/>
   </g>
   <g id="patch_52">
    <path d="M 185.484415 293.132586 
L 187.613313 293.132586 
L 187.613313 293.083591 
L 185.484415 293.083591 
z
" clip-path="url(#p2f93824070)" style="fill: #1f77b4; opacity: 0.5"/>
   </g>
   <g id="patch_53">
    <path d="M 187.613313 293.132586 
L 189.742211 293.132586 
L 189.742211 293.132586 
L 187.613313 293.132586 
z
" clip-path="url(#p2f93824070)" style="fill: #1f77b4; opacity: 0.5"/>
   </g>
   <g id="patch_54">
    <path d="M 189.742211 293.132586 
L 191.871109 293.132586 
L 191.871109 293.132586 
L 189.742211 293.132586 
z
" clip-path="url(#p2f93824070)" style="fill: #1f77b4; opacity: 0.5"/>
   </g>
   <g id="patch_55">
    <path d="M 191.871109 293.132586 
L 194.000007 293.132586 
L 194.000007 293.132586 
L 191.871109 293.132586 
z
" clip-path="url(#p2f93824070)" style="fill: #1f77b4; opacity: 0.5"/>
   </g>
   <g id="patch_56">
    <path d="M 194.000007 293.132586 
L 196.128905 293.132586 
L 196.128905 293.108089 
L 194.000007 293.108089 
z
" clip-path="url(#p2f93824070)" style="fill: #1f77b4; opacity: 0.5"/>
   </g>
   <g id="patch_57">
    <path d="M 196.128905 293.132586 
L 198.257803 293.132586 
L 198.257803 293.132586 
L 196.128905 293.132586 
z
" clip-path="url(#p2f93824070)" style="fill: #1f77b4; opacity: 0.5"/>
   </g>
   <g id="patch_58">
    <path d="M 198.257803 293.132586 
L 200.386701 293.132586 
L 200.386701 292.740626 
L 198.257803 292.740626 
z
" clip-path="url(#p2f93824070)" style="fill: #1f77b4; opacity: 0.5"/>
   </g>
   <g id="patch_59">
    <path d="M 200.386701 293.132586 
L 202.515599 293.132586 
L 202.515599 293.132586 
L 200.386701 293.132586 
z
" clip-path="url(#p2f93824070)" style="fill: #1f77b4; opacity: 0.5"/>
   </g>
   <g id="patch_60">
    <path d="M 202.515599 293.132586 
L 204.644497 293.132586 
L 204.644497 293.132586 
L 202.515599 293.132586 
z
" clip-path="url(#p2f93824070)" style="fill: #1f77b4; opacity: 0.5"/>
   </g>
   <g id="patch_61">
    <path d="M 204.644497 293.132586 
L 206.773395 293.132586 
L 206.773395 293.132586 
L 204.644497 293.132586 
z
" clip-path="url(#p2f93824070)" style="fill: #1f77b4; opacity: 0.5"/>
   </g>
   <g id="patch_62">
    <path d="M 206.773395 293.132586 
L 208.902293 293.132586 
L 208.902293 293.132586 
L 206.773395 293.132586 
z
" clip-path="url(#p2f93824070)" style="fill: #1f77b4; opacity: 0.5"/>
   </g>
   <g id="patch_63">
    <path d="M 208.902293 293.132586 
L 211.031191 293.132586 
L 211.031191 293.132586 
L 208.902293 293.132586 
z
" clip-path="url(#p2f93824070)" style="fill: #1f77b4; opacity: 0.5"/>
   </g>
   <g id="patch_64">
    <path d="M 211.031191 293.132586 
L 213.16009 293.132586 
L 213.16009 292.054696 
L 211.031191 292.054696 
z
" clip-path="url(#p2f93824070)" style="fill: #1f77b4; opacity: 0.5"/>
   </g>
   <g id="patch_65">
    <path d="M 213.16009 293.132586 
L 215.288988 293.132586 
L 215.288988 293.132586 
L 213.16009 293.132586 
z
" clip-path="url(#p2f93824070)" style="fill: #1f77b4; opacity: 0.5"/>
   </g>
   <g id="patch_66">
    <path d="M 215.288988 293.132586 
L 217.417886 293.132586 
L 217.417886 293.132586 
L 215.288988 293.132586 
z
" clip-path="url(#p2f93824070)" style="fill: #1f77b4; opacity: 0.5"/>
   </g>
   <g id="patch_67">
    <path d="M 217.417886 293.132586 
L 219.546784 293.132586 
L 219.546784 293.132586 
L 217.417886 293.132586 
z
" clip-path="url(#p2f93824070)" style="fill: #1f77b4; opacity: 0.5"/>
   </g>
   <g id="patch_68">
    <path d="M 219.546784 293.132586 
L 221.675682 293.132586 
L 221.675682 293.132586 
L 219.546784 293.132586 
z
" clip-path="url(#p2f93824070)" style="fill: #1f77b4; opacity: 0.5"/>
   </g>
   <g id="patch_69">
    <path d="M 221.675682 293.132586 
L 223.80458 293.132586 
L 223.80458 293.132586 
L 221.675682 293.132586 
z
" clip-path="url(#p2f93824070)" style="fill: #1f77b4; opacity: 0.5"/>
   </g>
   <g id="patch_70">
    <path d="M 223.80458 293.132586 
L 225.933478 293.132586 
L 225.933478 293.132586 
L 223.80458 293.132586 
z
" clip-path="url(#p2f93824070)" style="fill: #1f77b4; opacity: 0.5"/>
   </g>
   <g id="patch_71">
    <path d="M 225.933478 293.132586 
L 228.062376 293.132586 
L 228.062376 292.789621 
L 225.933478 292.789621 
z
" clip-path="url(#p2f93824070)" style="fill: #1f77b4; opacity: 0.5"/>
   </g>
   <g id="patch_72">
    <path d="M 228.062376 293.132586 
L 230.191274 293.132586 
L 230.191274 293.132586 
L 228.062376 293.132586 
z
" clip-path="url(#p2f93824070)" style="fill: #1f77b4; opacity: 0.5"/>
   </g>
   <g id="patch_73">
    <path d="M 230.191274 293.132586 
L 232.320172 293.132586 
L 232.320172 293.132586 
L 230.191274 293.132586 
z
" clip-path="url(#p2f93824070)" style="fill: #1f77b4; opacity: 0.5"/>
   </g>
   <g id="patch_74">
    <path d="M 232.320172 293.132586 
L 234.44907 293.132586 
L 234.44907 293.132586 
L 232.320172 293.132586 
z
" clip-path="url(#p2f93824070)" style="fill: #1f77b4; opacity: 0.5"/>
   </g>
   <g id="patch_75">
    <path d="M 234.44907 293.132586 
L 236.577968 293.132586 
L 236.577968 293.034596 
L 234.44907 293.034596 
z
" clip-path="url(#p2f93824070)" style="fill: #1f77b4; opacity: 0.5"/>
   </g>
   <g id="patch_76">
    <path d="M 236.577968 293.132586 
L 238.706866 293.132586 
L 238.706866 293.132586 
L 236.577968 293.132586 
z
" clip-path="url(#p2f93824070)" style="fill: #1f77b4; opacity: 0.5"/>
   </g>
   <g id="patch_77">
    <path d="M 238.706866 293.132586 
L 240.835764 293.132586 
L 240.835764 293.010099 
L 238.706866 293.010099 
z
" clip-path="url(#p2f93824070)" style="fill: #1f77b4; opacity: 0.5"/>
   </g>
   <g id="patch_78">
    <path d="M 240.835764 293.132586 
L 242.964663 293.132586 
L 242.964663 293.132586 
L 240.835764 293.132586 
z
" clip-path="url(#p2f93824070)" style="fill: #1f77b4; opacity: 0.5"/>
   </g>
   <g id="patch_79">
    <path d="M 242.964663 293.132586 
L 245.093561 293.132586 
L 245.093561 293.010099 
L 242.964663 293.010099 
z
" clip-path="url(#p2f93824070)" style="fill: #1f77b4; opacity: 0.5"/>
   </g>
   <g id="patch_80">
    <path d="M 245.093561 293.132586 
L 247.222459 293.132586 
L 247.222459 293.132586 
L 245.093561 293.132586 
z
" clip-path="url(#p2f93824070)" style="fill: #1f77b4; opacity: 0.5"/>
   </g>
   <g id="patch_81">
    <path d="M 247.222459 293.132586 
L 249.351357 293.132586 
L 249.351357 293.132586 
L 247.222459 293.132586 
z
" clip-path="url(#p2f93824070)" style="fill: #1f77b4; opacity: 0.5"/>
   </g>
   <g id="patch_82">
    <path d="M 249.351357 293.132586 
L 251.480255 293.132586 
L 251.480255 293.132586 
L 249.351357 293.132586 
z
" clip-path="url(#p2f93824070)" style="fill: #1f77b4; opacity: 0.5"/>
   </g>
   <g id="patch_83">
    <path d="M 251.480255 293.132586 
L 253.609153 293.132586 
L 253.609153 293.132586 
L 251.480255 293.132586 
z
" clip-path="url(#p2f93824070)" style="fill: #1f77b4; opacity: 0.5"/>
   </g>
   <g id="patch_84">
    <path d="M 253.609153 293.132586 
L 255.738051 293.132586 
L 255.738051 293.132586 
L 253.609153 293.132586 
z
" clip-path="url(#p2f93824070)" style="fill: #1f77b4; opacity: 0.5"/>
   </g>
   <g id="patch_85">
    <path d="M 255.738051 293.132586 
L 257.866949 293.132586 
L 257.866949 281.667754 
L 255.738051 281.667754 
z
" clip-path="url(#p2f93824070)" style="fill: #1f77b4; opacity: 0.5"/>
   </g>
   <g id="patch_86">
    <path d="M 257.866949 293.132586 
L 259.995847 293.132586 
L 259.995847 293.132586 
L 257.866949 293.132586 
z
" clip-path="url(#p2f93824070)" style="fill: #1f77b4; opacity: 0.5"/>
   </g>
   <g id="patch_87">
    <path d="M 259.995847 293.132586 
L 262.124745 293.132586 
L 262.124745 293.108089 
L 259.995847 293.108089 
z
" clip-path="url(#p2f93824070)" style="fill: #1f77b4; opacity: 0.5"/>
   </g>
   <g id="patch_88">
    <path d="M 262.124745 293.132586 
L 264.253643 293.132586 
L 264.253643 293.132586 
L 262.124745 293.132586 
z
" clip-path="url(#p2f93824070)" style="fill: #1f77b4; opacity: 0.5"/>
   </g>
   <g id="patch_89">
    <path d="M 264.253643 293.132586 
L 266.382541 293.132586 
L 266.382541 293.034596 
L 264.253643 293.034596 
z
" clip-path="url(#p2f93824070)" style="fill: #1f77b4; opacity: 0.5"/>
   </g>
   <g id="patch_90">
    <path d="M 266.382541 293.132586 
L 268.511439 293.132586 
L 268.511439 293.132586 
L 266.382541 293.132586 
z
" clip-path="url(#p2f93824070)" style="fill: #1f77b4; opacity: 0.5"/>
   </g>
   <g id="patch_91">
    <path d="M 268.511439 293.132586 
L 270.640337 293.132586 
L 270.640337 292.618138 
L 268.511439 292.618138 
z
" clip-path="url(#p2f93824070)" style="fill: #1f77b4; opacity: 0.5"/>
   </g>
   <g id="patch_92">
    <path d="M 270.640337 293.132586 
L 272.769236 293.132586 
L 272.769236 293.132586 
L 270.640337 293.132586 
z
" clip-path="url(#p2f93824070)" style="fill: #1f77b4; opacity: 0.5"/>
   </g>
   <g id="patch_93">
    <path d="M 272.769236 293.132586 
L 274.898134 293.132586 
L 274.898134 292.863114 
L 272.769236 292.863114 
z
" clip-path="url(#p2f93824070)" style="fill: #1f77b4; opacity: 0.5"/>
   </g>
   <g id="patch_94">
    <path d="M 274.898134 293.132586 
L 277.027032 293.132586 
L 277.027032 293.132586 
L 274.898134 293.132586 
z
" clip-path="url(#p2f93824070)" style="fill: #1f77b4; opacity: 0.5"/>
   </g>
   <g id="patch_95">
    <path d="M 277.027032 293.132586 
L 279.15593 293.132586 
L 279.15593 292.348666 
L 277.027032 292.348666 
z
" clip-path="url(#p2f93824070)" style="fill: #1f77b4; opacity: 0.5"/>
   </g>
   <g id="patch_96">
    <path d="M 279.15593 293.132586 
L 281.284828 293.132586 
L 281.284828 293.132586 
L 279.15593 293.132586 
z
" clip-path="url(#p2f93824070)" style="fill: #1f77b4; opacity: 0.5"/>
   </g>
   <g id="patch_97">
    <path d="M 281.284828 293.132586 
L 283.413726 293.132586 
L 283.413726 292.985601 
L 281.284828 292.985601 
z
" clip-path="url(#p2f93824070)" style="fill: #1f77b4; opacity: 0.5"/>
   </g>
   <g id="patch_98">
    <path d="M 283.413726 293.132586 
L 285.542624 293.132586 
L 285.542624 293.132586 
L 283.413726 293.132586 
z
" clip-path="url(#p2f93824070)" style="fill: #1f77b4; opacity: 0.5"/>
   </g>
   <g id="patch_99">
    <path d="M 285.542624 293.132586 
L 287.671522 293.132586 
L 287.671522 290.731831 
L 285.542624 290.731831 
z
" clip-path="url(#p2f93824070)" style="fill: #1f77b4; opacity: 0.5"/>
   </g>
   <g id="patch_100">
    <path d="M 287.671522 293.132586 
L 289.80042 293.132586 
L 289.80042 293.132586 
L 287.671522 293.132586 
z
" clip-path="url(#p2f93824070)" style="fill: #1f77b4; opacity: 0.5"/>
   </g>
   <g id="patch_101">
    <path d="M 289.80042 293.132586 
L 291.929318 293.132586 
L 291.929318 293.132586 
L 289.80042 293.132586 
z
" clip-path="url(#p2f93824070)" style="fill: #1f77b4; opacity: 0.5"/>
   </g>
   <g id="patch_102">
    <path d="M 291.929318 293.132586 
L 294.058216 293.132586 
L 294.058216 292.324168 
L 291.929318 292.324168 
z
" clip-path="url(#p2f93824070)" style="fill: #1f77b4; opacity: 0.5"/>
   </g>
   <g id="patch_103">
    <path d="M 294.058216 293.132586 
L 296.187114 293.132586 
L 296.187114 293.132586 
L 294.058216 293.132586 
z
" clip-path="url(#p2f93824070)" style="fill: #1f77b4; opacity: 0.5"/>
   </g>
   <g id="patch_104">
    <path d="M 296.187114 293.132586 
L 298.316012 293.132586 
L 298.316012 292.348666 
L 296.187114 292.348666 
z
" clip-path="url(#p2f93824070)" style="fill: #1f77b4; opacity: 0.5"/>
   </g>
   <g id="patch_105">
    <path d="M 298.316012 293.132586 
L 300.44491 293.132586 
L 300.44491 293.132586 
L 298.316012 293.132586 
z
" clip-path="url(#p2f93824070)" style="fill: #1f77b4; opacity: 0.5"/>
   </g>
   <g id="patch_106">
    <path d="M 300.44491 293.132586 
L 302.573809 293.132586 
L 302.573809 286.567255 
L 300.44491 286.567255 
z
" clip-path="url(#p2f93824070)" style="fill: #1f77b4; opacity: 0.5"/>
   </g>
   <g id="patch_107">
    <path d="M 302.573809 293.132586 
L 304.702707 293.132586 
L 304.702707 293.132586 
L 302.573809 293.132586 
z
" clip-path="url(#p2f93824070)" style="fill: #1f77b4; opacity: 0.5"/>
   </g>
   <g id="patch_108">
    <path d="M 304.702707 293.132586 
L 306.831605 293.132586 
L 306.831605 291.883213 
L 304.702707 291.883213 
z
" clip-path="url(#p2f93824070)" style="fill: #1f77b4; opacity: 0.5"/>
   </g>
   <g id="patch_109">
    <path d="M 306.831605 293.132586 
L 308.960503 293.132586 
L 308.960503 293.132586 
L 306.831605 293.132586 
z
" clip-path="url(#p2f93824070)" style="fill: #1f77b4; opacity: 0.5"/>
   </g>
   <g id="patch_110">
    <path d="M 308.960503 293.132586 
L 311.089401 293.132586 
L 311.089401 291.442258 
L 308.960503 291.442258 
z
" clip-path="url(#p2f93824070)" style="fill: #1f77b4; opacity: 0.5"/>
   </g>
   <g id="patch_111">
    <path d="M 311.089401 293.132586 
L 313.218299 293.132586 
L 313.218299 293.132586 
L 311.089401 293.132586 
z
" clip-path="url(#p2f93824070)" style="fill: #1f77b4; opacity: 0.5"/>
   </g>
   <g id="patch_112">
    <path d="M 313.218299 293.132586 
L 315.347197 293.132586 
L 315.347197 288.57605 
L 313.218299 288.57605 
z
" clip-path="url(#p2f93824070)" style="fill: #1f77b4; opacity: 0.5"/>
   </g>
   <g id="patch_113">
    <path d="M 315.347197 293.132586 
L 317.476095 293.132586 
L 317.476095 293.132586 
L 315.347197 293.132586 
z
" clip-path="url(#p2f93824070)" style="fill: #1f77b4; opacity: 0.5"/>
   </g>
   <g id="patch_114">
    <path d="M 317.476095 293.132586 
L 319.604993 293.132586 
L 319.604993 291.172786 
L 317.476095 291.172786 
z
" clip-path="url(#p2f93824070)" style="fill: #1f77b4; opacity: 0.5"/>
   </g>
   <g id="patch_115">
    <path d="M 319.604993 293.132586 
L 321.733891 293.132586 
L 321.733891 293.132586 
L 319.604993 293.132586 
z
" clip-path="url(#p2f93824070)" style="fill: #1f77b4; opacity: 0.5"/>
   </g>
   <g id="patch_116">
    <path d="M 321.733891 293.132586 
L 323.862789 293.132586 
L 323.862789 288.87002 
L 321.733891 288.87002 
z
" clip-path="url(#p2f93824070)" style="fill: #1f77b4; opacity: 0.5"/>
   </g>
   <g id="patch_117">
    <path d="M 323.862789 293.132586 
L 325.991687 293.132586 
L 325.991687 293.132586 
L 323.862789 293.132586 
z
" clip-path="url(#p2f93824070)" style="fill: #1f77b4; opacity: 0.5"/>
   </g>
   <g id="patch_118">
    <path d="M 325.991687 293.132586 
L 328.120585 293.132586 
L 328.120585 288.943513 
L 325.991687 288.943513 
z
" clip-path="url(#p2f93824070)" style="fill: #1f77b4; opacity: 0.5"/>
   </g>
   <g id="patch_119">
    <path d="M 328.120585 293.132586 
L 330.249483 293.132586 
L 330.249483 293.132586 
L 328.120585 293.132586 
z
" clip-path="url(#p2f93824070)" style="fill: #1f77b4; opacity: 0.5"/>
   </g>
   <g id="patch_120">
    <path d="M 330.249483 293.132586 
L 332.378382 293.132586 
L 332.378382 289.139493 
L 330.249483 289.139493 
z
" clip-path="url(#p2f93824070)" style="fill: #1f77b4; opacity: 0.5"/>
   </g>
   <g id="patch_121">
    <path d="M 332.378382 293.132586 
L 334.50728 293.132586 
L 334.50728 293.132586 
L 332.378382 293.132586 
z
" clip-path="url(#p2f93824070)" style="fill: #1f77b4; opacity: 0.5"/>
   </g>
   <g id="patch_122">
    <path d="M 334.50728 293.132586 
L 336.636178 293.132586 
L 336.636178 288.894518 
L 334.50728 288.894518 
z
" clip-path="url(#p2f93824070)" style="fill: #1f77b4; opacity: 0.5"/>
   </g>
   <g id="patch_123">
    <path d="M 336.636178 293.132586 
L 338.765076 293.132586 
L 338.765076 293.132586 
L 336.636178 293.132586 
z
" clip-path="url(#p2f93824070)" style="fill: #1f77b4; opacity: 0.5"/>
   </g>
   <g id="patch_124">
    <path d="M 338.765076 293.132586 
L 340.893974 293.132586 
L 340.893974 289.139493 
L 338.765076 289.139493 
z
" clip-path="url(#p2f93824070)" style="fill: #1f77b4; opacity: 0.5"/>
   </g>
   <g id="patch_125">
    <path d="M 340.893974 293.132586 
L 343.022872 293.132586 
L 343.022872 293.132586 
L 340.893974 293.132586 
z
" clip-path="url(#p2f93824070)" style="fill: #1f77b4; opacity: 0.5"/>
   </g>
   <g id="patch_126">
    <path d="M 343.022872 293.132586 
L 345.15177 293.132586 
L 345.15177 243.598631 
L 343.022872 243.598631 
z
" clip-path="url(#p2f93824070)" style="fill: #1f77b4; opacity: 0.5"/>
   </g>
   <g id="patch_127">
    <path d="M 345.15177 293.132586 
L 347.280668 293.132586 
L 347.280668 293.132586 
L 345.15177 293.132586 
z
" clip-path="url(#p2f93824070)" style="fill: #1f77b4; opacity: 0.5"/>
   </g>
   <g id="patch_128">
    <path d="M 347.280668 293.132586 
L 349.409566 293.132586 
L 349.409566 288.061603 
L 347.280668 288.061603 
z
" clip-path="url(#p2f93824070)" style="fill: #1f77b4; opacity: 0.5"/>
   </g>
   <g id="patch_129">
    <path d="M 349.409566 293.132586 
L 351.538464 293.132586 
L 351.538464 293.132586 
L 349.409566 293.132586 
z
" clip-path="url(#p2f93824070)" style="fill: #1f77b4; opacity: 0.5"/>
   </g>
   <g id="patch_130">
    <path d="M 351.538464 293.132586 
L 353.667362 293.132586 
L 353.667362 284.607454 
L 351.538464 284.607454 
z
" clip-path="url(#p2f93824070)" style="fill: #1f77b4; opacity: 0.5"/>
   </g>
   <g id="patch_131">
    <path d="M 353.667362 293.132586 
L 355.79626 293.132586 
L 355.79626 293.132586 
L 353.667362 293.132586 
z
" clip-path="url(#p2f93824070)" style="fill: #1f77b4; opacity: 0.5"/>
   </g>
   <g id="patch_132">
    <path d="M 355.79626 293.132586 
L 357.925158 293.132586 
L 357.925158 278.899536 
L 355.79626 278.899536 
z
" clip-path="url(#p2f93824070)" style="fill: #1f77b4; opacity: 0.5"/>
   </g>
   <g id="patch_133">
    <path d="M 357.925158 293.132586 
L 360.054056 293.132586 
L 360.054056 293.132586 
L 357.925158 293.132586 
z
" clip-path="url(#p2f93824070)" style="fill: #1f77b4; opacity: 0.5"/>
   </g>
   <g id="patch_134">
    <path d="M 360.054056 293.132586 
L 362.182955 293.132586 
L 362.182955 293.132586 
L 360.054056 293.132586 
z
" clip-path="url(#p2f93824070)" style="fill: #1f77b4; opacity: 0.5"/>
   </g>
   <g id="patch_135">
    <path d="M 362.182955 293.132586 
L 364.311853 293.132586 
L 364.311853 277.233705 
L 362.182955 277.233705 
z
" clip-path="url(#p2f93824070)" style="fill: #1f77b4; opacity: 0.5"/>
   </g>
   <g id="patch_136">
    <path d="M 364.311853 293.132586 
L 366.440751 293.132586 
L 366.440751 293.132586 
L 364.311853 293.132586 
z
" clip-path="url(#p2f93824070)" style="fill: #1f77b4; opacity: 0.5"/>
   </g>
   <g id="patch_137">
    <path d="M 366.440751 293.132586 
L 368.569649 293.132586 
L 368.569649 274.514482 
L 366.440751 274.514482 
z
" clip-path="url(#p2f93824070)" style="fill: #1f77b4; opacity: 0.5"/>
   </g>
   <g id="patch_138">
    <path d="M 368.569649 293.132586 
L 370.698547 293.132586 
L 370.698547 293.132586 
L 368.569649 293.132586 
z
" clip-path="url(#p2f93824070)" style="fill: #1f77b4; opacity: 0.5"/>
   </g>
   <g id="patch_139">
    <path d="M 370.698547 293.132586 
L 372.827445 293.132586 
L 372.827445 274.367497 
L 370.698547 274.367497 
z
" clip-path="url(#p2f93824070)" style="fill: #1f77b4; opacity: 0.5"/>
   </g>
   <g id="patch_140">
    <path d="M 372.827445 293.132586 
L 374.956343 293.132586 
L 374.956343 293.132586 
L 372.827445 293.132586 
z
" clip-path="url(#p2f93824070)" style="fill: #1f77b4; opacity: 0.5"/>
   </g>
   <g id="patch_141">
    <path d="M 374.956343 293.132586 
L 377.085241 293.132586 
L 377.085241 262.878167 
L 374.956343 262.878167 
z
" clip-path="url(#p2f93824070)" style="fill: #1f77b4; opacity: 0.5"/>
   </g>
   <g id="patch_142">
    <path d="M 377.085241 293.132586 
L 379.214139 293.132586 
L 379.214139 293.132586 
L 377.085241 293.132586 
z
" clip-path="url(#p2f93824070)" style="fill: #1f77b4; opacity: 0.5"/>
   </g>
   <g id="patch_143">
    <path d="M 379.214139 293.132586 
L 381.343037 293.132586 
L 381.343037 260.428417 
L 379.214139 260.428417 
z
" clip-path="url(#p2f93824070)" style="fill: #1f77b4; opacity: 0.5"/>
   </g>
   <g id="patch_144">
    <path d="M 381.343037 293.132586 
L 383.471935 293.132586 
L 383.471935 293.132586 
L 381.343037 293.132586 
z
" clip-path="url(#p2f93824070)" style="fill: #1f77b4; opacity: 0.5"/>
   </g>
   <g id="patch_145">
    <path d="M 383.471935 293.132586 
L 385.600833 293.132586 
L 385.600833 261.530804 
L 383.471935 261.530804 
z
" clip-path="url(#p2f93824070)" style="fill: #1f77b4; opacity: 0.5"/>
   </g>
   <g id="patch_146">
    <path d="M 385.600833 293.132586 
L 387.729731 293.132586 
L 387.729731 293.132586 
L 385.600833 293.132586 
z
" clip-path="url(#p2f93824070)" style="fill: #1f77b4; opacity: 0.5"/>
   </g>
   <g id="patch_147">
    <path d="M 387.729731 293.132586 
L 389.858629 293.132586 
L 389.858629 230.54146 
L 387.729731 230.54146 
z
" clip-path="url(#p2f93824070)" style="fill: #1f77b4; opacity: 0.5"/>
   </g>
   <g id="patch_148">
    <path d="M 389.858629 293.132586 
L 391.987528 293.132586 
L 391.987528 293.132586 
L 389.858629 293.132586 
z
" clip-path="url(#p2f93824070)" style="fill: #1f77b4; opacity: 0.5"/>
   </g>
   <g id="patch_149">
    <path d="M 391.987528 293.132586 
L 394.116426 293.132586 
L 394.116426 249.845494 
L 391.987528 249.845494 
z
" clip-path="url(#p2f93824070)" style="fill: #1f77b4; opacity: 0.5"/>
   </g>
   <g id="patch_150">
    <path d="M 394.116426 293.132586 
L 396.245324 293.132586 
L 396.245324 293.132586 
L 394.116426 293.132586 
z
" clip-path="url(#p2f93824070)" style="fill: #1f77b4; opacity: 0.5"/>
   </g>
   <g id="patch_151">
    <path d="M 396.245324 293.132586 
L 398.374222 293.132586 
L 398.374222 244.333556 
L 396.245324 244.333556 
z
" clip-path="url(#p2f93824070)" style="fill: #1f77b4; opacity: 0.5"/>
   </g>
   <g id="patch_152">
    <path d="M 398.374222 293.132586 
L 400.50312 293.132586 
L 400.50312 293.132586 
L 398.374222 293.132586 
z
" clip-path="url(#p2f93824070)" style="fill: #1f77b4; opacity: 0.5"/>
   </g>
   <g id="patch_153">
    <path d="M 400.50312 293.132586 
L 402.632018 293.132586 
L 402.632018 213.466699 
L 400.50312 213.466699 
z
" clip-path="url(#p2f93824070)" style="fill: #1f77b4; opacity: 0.5"/>
   </g>
   <g id="patch_154">
    <path d="M 402.632018 293.132586 
L 404.760916 293.132586 
L 404.760916 293.132586 
L 402.632018 293.132586 
z
" clip-path="url(#p2f93824070)" style="fill: #1f77b4; opacity: 0.5"/>
   </g>
   <g id="patch_155">
    <path d="M 404.760916 293.132586 
L 406.889814 293.132586 
L 406.889814 230.467968 
L 404.760916 230.467968 
z
" clip-path="url(#p2f93824070)" style="fill: #1f77b4; opacity: 0.5"/>
   </g>
   <g id="patch_156">
    <path d="M 406.889814 293.132586 
L 409.018712 293.132586 
L 409.018712 293.132586 
L 406.889814 293.132586 
z
" clip-path="url(#p2f93824070)" style="fill: #1f77b4; opacity: 0.5"/>
   </g>
   <g id="patch_157">
    <path d="M 409.018712 293.132586 
L 411.14761 293.132586 
L 411.14761 213.809664 
L 409.018712 213.809664 
z
" clip-path="url(#p2f93824070)" style="fill: #1f77b4; opacity: 0.5"/>
   </g>
   <g id="patch_158">
    <path d="M 411.14761 293.132586 
L 413.276508 293.132586 
L 413.276508 293.132586 
L 411.14761 293.132586 
z
" clip-path="url(#p2f93824070)" style="fill: #1f77b4; opacity: 0.5"/>
   </g>
   <g id="patch_159">
    <path d="M 413.276508 293.132586 
L 415.405406 293.132586 
L 415.405406 208.665188 
L 413.276508 208.665188 
z
" clip-path="url(#p2f93824070)" style="fill: #1f77b4; opacity: 0.5"/>
   </g>
   <g id="patch_160">
    <path d="M 415.405406 293.132586 
L 417.534304 293.132586 
L 417.534304 293.132586 
L 415.405406 293.132586 
z
" clip-path="url(#p2f93824070)" style="fill: #1f77b4; opacity: 0.5"/>
   </g>
   <g id="patch_161">
    <path d="M 417.534304 293.132586 
L 419.663202 293.132586 
L 419.663202 206.925866 
L 417.534304 206.925866 
z
" clip-path="url(#p2f93824070)" style="fill: #1f77b4; opacity: 0.5"/>
   </g>
   <g id="patch_162">
    <path d="M 419.663202 293.132586 
L 421.792101 293.132586 
L 421.792101 293.132586 
L 419.663202 293.132586 
z
" clip-path="url(#p2f93824070)" style="fill: #1f77b4; opacity: 0.5"/>
   </g>
   <g id="patch_163">
    <path d="M 421.792101 293.132586 
L 423.920999 293.132586 
L 423.920999 200.556514 
L 421.792101 200.556514 
z
" clip-path="url(#p2f93824070)" style="fill: #1f77b4; opacity: 0.5"/>
   </g>
   <g id="patch_164">
    <path d="M 423.920999 293.132586 
L 426.049897 293.132586 
L 426.049897 293.132586 
L 423.920999 293.132586 
z
" clip-path="url(#p2f93824070)" style="fill: #1f77b4; opacity: 0.5"/>
   </g>
   <g id="patch_165">
    <path d="M 426.049897 293.132586 
L 428.178795 293.132586 
L 428.178795 237.278274 
L 426.049897 237.278274 
z
" clip-path="url(#p2f93824070)" style="fill: #1f77b4; opacity: 0.5"/>
   </g>
   <g id="patch_166">
    <path d="M 428.178795 293.132586 
L 430.307693 293.132586 
L 430.307693 293.132586 
L 428.178795 293.132586 
z
" clip-path="url(#p2f93824070)" style="fill: #1f77b4; opacity: 0.5"/>
   </g>
   <g id="patch_167">
    <path d="M 430.307693 293.132586 
L 432.436591 293.132586 
L 432.436591 38.87298 
L 430.307693 38.87298 
z
" clip-path="url(#p2f93824070)" style="fill: #1f77b4; opacity: 0.5"/>
   </g>
   <g id="matplotlib.axis_1">
    <g id="xtick_1">
     <g id="line2d_1">
      <defs>
       <path id="m3c8a3d7b7f" d="M 0 0 
L 0 3.5 
" style="stroke: #000000; stroke-width: 0.8"/>
      </defs>
      <g>
       <use xlink:href="#m3c8a3d7b7f" x="81.168409" y="293.132586" style="stroke: #000000; stroke-width: 0.8"/>
      </g>
     </g>
     <g id="text_1">
      <!-- 20 -->
      <g transform="translate(78.620615 314.503427) rotate(-45) scale(0.1 -0.1)">
       <defs>
        <path id="DejaVuSans-32" d="M 1228 531 
L 3431 531 
L 3431 0 
L 469 0 
L 469 531 
Q 828 903 1448 1529 
Q 2069 2156 2228 2338 
Q 2531 2678 2651 2914 
Q 2772 3150 2772 3378 
Q 2772 3750 2511 3984 
Q 2250 4219 1831 4219 
Q 1534 4219 1204 4116 
Q 875 4013 500 3803 
L 500 4441 
Q 881 4594 1212 4672 
Q 1544 4750 1819 4750 
Q 2544 4750 2975 4387 
Q 3406 4025 3406 3419 
Q 3406 3131 3298 2873 
Q 3191 2616 2906 2266 
Q 2828 2175 2409 1742 
Q 1991 1309 1228 531 
z
" transform="scale(0.015625)"/>
        <path id="DejaVuSans-30" d="M 2034 4250 
Q 1547 4250 1301 3770 
Q 1056 3291 1056 2328 
Q 1056 1369 1301 889 
Q 1547 409 2034 409 
Q 2525 409 2770 889 
Q 3016 1369 3016 2328 
Q 3016 3291 2770 3770 
Q 2525 4250 2034 4250 
z
M 2034 4750 
Q 2819 4750 3233 4129 
Q 3647 3509 3647 2328 
Q 3647 1150 3233 529 
Q 2819 -91 2034 -91 
Q 1250 -91 836 529 
Q 422 1150 422 2328 
Q 422 3509 836 4129 
Q 1250 4750 2034 4750 
z
" transform="scale(0.015625)"/>
       </defs>
       <use xlink:href="#DejaVuSans-32"/>
       <use xlink:href="#DejaVuSans-30" x="63.623047"/>
      </g>
     </g>
    </g>
    <g id="xtick_2">
     <g id="line2d_2">
      <g>
       <use xlink:href="#m3c8a3d7b7f" x="125.076932" y="293.132586" style="stroke: #000000; stroke-width: 0.8"/>
      </g>
     </g>
     <g id="text_2">
      <!-- 30 -->
      <g transform="translate(122.529138 314.503427) rotate(-45) scale(0.1 -0.1)">
       <defs>
        <path id="DejaVuSans-33" d="M 2597 2516 
Q 3050 2419 3304 2112 
Q 3559 1806 3559 1356 
Q 3559 666 3084 287 
Q 2609 -91 1734 -91 
Q 1441 -91 1130 -33 
Q 819 25 488 141 
L 488 750 
Q 750 597 1062 519 
Q 1375 441 1716 441 
Q 2309 441 2620 675 
Q 2931 909 2931 1356 
Q 2931 1769 2642 2001 
Q 2353 2234 1838 2234 
L 1294 2234 
L 1294 2753 
L 1863 2753 
Q 2328 2753 2575 2939 
Q 2822 3125 2822 3475 
Q 2822 3834 2567 4026 
Q 2313 4219 1838 4219 
Q 1578 4219 1281 4162 
Q 984 4106 628 3988 
L 628 4550 
Q 988 4650 1302 4700 
Q 1616 4750 1894 4750 
Q 2613 4750 3031 4423 
Q 3450 4097 3450 3541 
Q 3450 3153 3228 2886 
Q 3006 2619 2597 2516 
z
" transform="scale(0.015625)"/>
       </defs>
       <use xlink:href="#DejaVuSans-33"/>
       <use xlink:href="#DejaVuSans-30" x="63.623047"/>
      </g>
     </g>
    </g>
    <g id="xtick_3">
     <g id="line2d_3">
      <g>
       <use xlink:href="#m3c8a3d7b7f" x="168.985455" y="293.132586" style="stroke: #000000; stroke-width: 0.8"/>
      </g>
     </g>
     <g id="text_3">
      <!-- 40 -->
      <g transform="translate(166.43766 314.503427) rotate(-45) scale(0.1 -0.1)">
       <defs>
        <path id="DejaVuSans-34" d="M 2419 4116 
L 825 1625 
L 2419 1625 
L 2419 4116 
z
M 2253 4666 
L 3047 4666 
L 3047 1625 
L 3713 1625 
L 3713 1100 
L 3047 1100 
L 3047 0 
L 2419 0 
L 2419 1100 
L 313 1100 
L 313 1709 
L 2253 4666 
z
" transform="scale(0.015625)"/>
       </defs>
       <use xlink:href="#DejaVuSans-34"/>
       <use xlink:href="#DejaVuSans-30" x="63.623047"/>
      </g>
     </g>
    </g>
    <g id="xtick_4">
     <g id="line2d_4">
      <g>
       <use xlink:href="#m3c8a3d7b7f" x="212.893977" y="293.132586" style="stroke: #000000; stroke-width: 0.8"/>
      </g>
     </g>
     <g id="text_4">
      <!-- 50 -->
      <g transform="translate(210.346183 314.503427) rotate(-45) scale(0.1 -0.1)">
       <defs>
        <path id="DejaVuSans-35" d="M 691 4666 
L 3169 4666 
L 3169 4134 
L 1269 4134 
L 1269 2991 
Q 1406 3038 1543 3061 
Q 1681 3084 1819 3084 
Q 2600 3084 3056 2656 
Q 3513 2228 3513 1497 
Q 3513 744 3044 326 
Q 2575 -91 1722 -91 
Q 1428 -91 1123 -41 
Q 819 9 494 109 
L 494 744 
Q 775 591 1075 516 
Q 1375 441 1709 441 
Q 2250 441 2565 725 
Q 2881 1009 2881 1497 
Q 2881 1984 2565 2268 
Q 2250 2553 1709 2553 
Q 1456 2553 1204 2497 
Q 953 2441 691 2322 
L 691 4666 
z
" transform="scale(0.015625)"/>
       </defs>
       <use xlink:href="#DejaVuSans-35"/>
       <use xlink:href="#DejaVuSans-30" x="63.623047"/>
      </g>
     </g>
    </g>
    <g id="xtick_5">
     <g id="line2d_5">
      <g>
       <use xlink:href="#m3c8a3d7b7f" x="256.8025" y="293.132586" style="stroke: #000000; stroke-width: 0.8"/>
      </g>
     </g>
     <g id="text_5">
      <!-- 60 -->
      <g transform="translate(254.254706 314.503427) rotate(-45) scale(0.1 -0.1)">
       <defs>
        <path id="DejaVuSans-36" d="M 2113 2584 
Q 1688 2584 1439 2293 
Q 1191 2003 1191 1497 
Q 1191 994 1439 701 
Q 1688 409 2113 409 
Q 2538 409 2786 701 
Q 3034 994 3034 1497 
Q 3034 2003 2786 2293 
Q 2538 2584 2113 2584 
z
M 3366 4563 
L 3366 3988 
Q 3128 4100 2886 4159 
Q 2644 4219 2406 4219 
Q 1781 4219 1451 3797 
Q 1122 3375 1075 2522 
Q 1259 2794 1537 2939 
Q 1816 3084 2150 3084 
Q 2853 3084 3261 2657 
Q 3669 2231 3669 1497 
Q 3669 778 3244 343 
Q 2819 -91 2113 -91 
Q 1303 -91 875 529 
Q 447 1150 447 2328 
Q 447 3434 972 4092 
Q 1497 4750 2381 4750 
Q 2619 4750 2861 4703 
Q 3103 4656 3366 4563 
z
" transform="scale(0.015625)"/>
       </defs>
       <use xlink:href="#DejaVuSans-36"/>
       <use xlink:href="#DejaVuSans-30" x="63.623047"/>
      </g>
     </g>
    </g>
    <g id="xtick_6">
     <g id="line2d_6">
      <g>
       <use xlink:href="#m3c8a3d7b7f" x="300.711023" y="293.132586" style="stroke: #000000; stroke-width: 0.8"/>
      </g>
     </g>
     <g id="text_6">
      <!-- 70 -->
      <g transform="translate(298.163229 314.503427) rotate(-45) scale(0.1 -0.1)">
       <defs>
        <path id="DejaVuSans-37" d="M 525 4666 
L 3525 4666 
L 3525 4397 
L 1831 0 
L 1172 0 
L 2766 4134 
L 525 4134 
L 525 4666 
z
" transform="scale(0.015625)"/>
       </defs>
       <use xlink:href="#DejaVuSans-37"/>
       <use xlink:href="#DejaVuSans-30" x="63.623047"/>
      </g>
     </g>
    </g>
    <g id="xtick_7">
     <g id="line2d_7">
      <g>
       <use xlink:href="#m3c8a3d7b7f" x="344.619545" y="293.132586" style="stroke: #000000; stroke-width: 0.8"/>
      </g>
     </g>
     <g id="text_7">
      <!-- 80 -->
      <g transform="translate(342.071751 314.503427) rotate(-45) scale(0.1 -0.1)">
       <defs>
        <path id="DejaVuSans-38" d="M 2034 2216 
Q 1584 2216 1326 1975 
Q 1069 1734 1069 1313 
Q 1069 891 1326 650 
Q 1584 409 2034 409 
Q 2484 409 2743 651 
Q 3003 894 3003 1313 
Q 3003 1734 2745 1975 
Q 2488 2216 2034 2216 
z
M 1403 2484 
Q 997 2584 770 2862 
Q 544 3141 544 3541 
Q 544 4100 942 4425 
Q 1341 4750 2034 4750 
Q 2731 4750 3128 4425 
Q 3525 4100 3525 3541 
Q 3525 3141 3298 2862 
Q 3072 2584 2669 2484 
Q 3125 2378 3379 2068 
Q 3634 1759 3634 1313 
Q 3634 634 3220 271 
Q 2806 -91 2034 -91 
Q 1263 -91 848 271 
Q 434 634 434 1313 
Q 434 1759 690 2068 
Q 947 2378 1403 2484 
z
M 1172 3481 
Q 1172 3119 1398 2916 
Q 1625 2713 2034 2713 
Q 2441 2713 2670 2916 
Q 2900 3119 2900 3481 
Q 2900 3844 2670 4047 
Q 2441 4250 2034 4250 
Q 1625 4250 1398 4047 
Q 1172 3844 1172 3481 
z
" transform="scale(0.015625)"/>
       </defs>
       <use xlink:href="#DejaVuSans-38"/>
       <use xlink:href="#DejaVuSans-30" x="63.623047"/>
      </g>
     </g>
    </g>
    <g id="xtick_8">
     <g id="line2d_8">
      <g>
       <use xlink:href="#m3c8a3d7b7f" x="388.528068" y="293.132586" style="stroke: #000000; stroke-width: 0.8"/>
      </g>
     </g>
     <g id="text_8">
      <!-- 90 -->
      <g transform="translate(385.980274 314.503427) rotate(-45) scale(0.1 -0.1)">
       <defs>
        <path id="DejaVuSans-39" d="M 703 97 
L 703 672 
Q 941 559 1184 500 
Q 1428 441 1663 441 
Q 2288 441 2617 861 
Q 2947 1281 2994 2138 
Q 2813 1869 2534 1725 
Q 2256 1581 1919 1581 
Q 1219 1581 811 2004 
Q 403 2428 403 3163 
Q 403 3881 828 4315 
Q 1253 4750 1959 4750 
Q 2769 4750 3195 4129 
Q 3622 3509 3622 2328 
Q 3622 1225 3098 567 
Q 2575 -91 1691 -91 
Q 1453 -91 1209 -44 
Q 966 3 703 97 
z
M 1959 2075 
Q 2384 2075 2632 2365 
Q 2881 2656 2881 3163 
Q 2881 3666 2632 3958 
Q 2384 4250 1959 4250 
Q 1534 4250 1286 3958 
Q 1038 3666 1038 3163 
Q 1038 2656 1286 2365 
Q 1534 2075 1959 2075 
z
" transform="scale(0.015625)"/>
       </defs>
       <use xlink:href="#DejaVuSans-39"/>
       <use xlink:href="#DejaVuSans-30" x="63.623047"/>
      </g>
     </g>
    </g>
    <g id="xtick_9">
     <g id="line2d_9">
      <g>
       <use xlink:href="#m3c8a3d7b7f" x="432.436591" y="293.132586" style="stroke: #000000; stroke-width: 0.8"/>
      </g>
     </g>
     <g id="text_9">
      <!-- 100 -->
      <g transform="translate(427.639313 319.002393) rotate(-45) scale(0.1 -0.1)">
       <defs>
        <path id="DejaVuSans-31" d="M 794 531 
L 1825 531 
L 1825 4091 
L 703 3866 
L 703 4441 
L 1819 4666 
L 2450 4666 
L 2450 531 
L 3481 531 
L 3481 0 
L 794 0 
L 794 531 
z
" transform="scale(0.015625)"/>
       </defs>
       <use xlink:href="#DejaVuSans-31"/>
       <use xlink:href="#DejaVuSans-30" x="63.623047"/>
       <use xlink:href="#DejaVuSans-30" x="127.246094"/>
      </g>
     </g>
    </g>
    <g id="text_10">
     <!-- Werte -->
     <g transform="translate(241.98375 332.071392) scale(0.1 -0.1)">
      <defs>
       <path id="DejaVuSans-57" d="M 213 4666 
L 850 4666 
L 1831 722 
L 2809 4666 
L 3519 4666 
L 4500 722 
L 5478 4666 
L 6119 4666 
L 4947 0 
L 4153 0 
L 3169 4050 
L 2175 0 
L 1381 0 
L 213 4666 
z
" transform="scale(0.015625)"/>
       <path id="DejaVuSans-65" d="M 3597 1894 
L 3597 1613 
L 953 1613 
Q 991 1019 1311 708 
Q 1631 397 2203 397 
Q 2534 397 2845 478 
Q 3156 559 3463 722 
L 3463 178 
Q 3153 47 2828 -22 
Q 2503 -91 2169 -91 
Q 1331 -91 842 396 
Q 353 884 353 1716 
Q 353 2575 817 3079 
Q 1281 3584 2069 3584 
Q 2775 3584 3186 3129 
Q 3597 2675 3597 1894 
z
M 3022 2063 
Q 3016 2534 2758 2815 
Q 2500 3097 2075 3097 
Q 1594 3097 1305 2825 
Q 1016 2553 972 2059 
L 3022 2063 
z
" transform="scale(0.015625)"/>
       <path id="DejaVuSans-72" d="M 2631 2963 
Q 2534 3019 2420 3045 
Q 2306 3072 2169 3072 
Q 1681 3072 1420 2755 
Q 1159 2438 1159 1844 
L 1159 0 
L 581 0 
L 581 3500 
L 1159 3500 
L 1159 2956 
Q 1341 3275 1631 3429 
Q 1922 3584 2338 3584 
Q 2397 3584 2469 3576 
Q 2541 3569 2628 3553 
L 2631 2963 
z
" transform="scale(0.015625)"/>
       <path id="DejaVuSans-74" d="M 1172 4494 
L 1172 3500 
L 2356 3500 
L 2356 3053 
L 1172 3053 
L 1172 1153 
Q 1172 725 1289 603 
Q 1406 481 1766 481 
L 2356 481 
L 2356 0 
L 1766 0 
Q 1100 0 847 248 
Q 594 497 594 1153 
L 594 3053 
L 172 3053 
L 172 3500 
L 594 3500 
L 594 4494 
L 1172 4494 
z
" transform="scale(0.015625)"/>
      </defs>
      <use xlink:href="#DejaVuSans-57"/>
      <use xlink:href="#DejaVuSans-65" x="93.001953"/>
      <use xlink:href="#DejaVuSans-72" x="154.525391"/>
      <use xlink:href="#DejaVuSans-74" x="195.638672"/>
      <use xlink:href="#DejaVuSans-65" x="234.847656"/>
     </g>
    </g>
   </g>
   <g id="matplotlib.axis_2">
    <g id="ytick_1">
     <g id="line2d_10">
      <defs>
       <path id="m3bf85aa3df" d="M 0 0 
L -3.5 0 
" style="stroke: #000000; stroke-width: 0.8"/>
      </defs>
      <g>
       <use xlink:href="#m3bf85aa3df" x="63.605" y="293.132586" style="stroke: #000000; stroke-width: 0.8"/>
      </g>
     </g>
     <g id="text_11">
      <!-- 0 -->
      <g transform="translate(50.2425 296.931805) scale(0.1 -0.1)">
       <use xlink:href="#DejaVuSans-30"/>
      </g>
     </g>
    </g>
    <g id="ytick_2">
     <g id="line2d_11">
      <g>
       <use xlink:href="#m3bf85aa3df" x="63.605" y="244.137576" style="stroke: #000000; stroke-width: 0.8"/>
      </g>
     </g>
     <g id="text_12">
      <!-- 2000 -->
      <g transform="translate(31.155 247.936795) scale(0.1 -0.1)">
       <use xlink:href="#DejaVuSans-32"/>
       <use xlink:href="#DejaVuSans-30" x="63.623047"/>
       <use xlink:href="#DejaVuSans-30" x="127.246094"/>
       <use xlink:href="#DejaVuSans-30" x="190.869141"/>
      </g>
     </g>
    </g>
    <g id="ytick_3">
     <g id="line2d_12">
      <g>
       <use xlink:href="#m3bf85aa3df" x="63.605" y="195.142566" style="stroke: #000000; stroke-width: 0.8"/>
      </g>
     </g>
     <g id="text_13">
      <!-- 4000 -->
      <g transform="translate(31.155 198.941784) scale(0.1 -0.1)">
       <use xlink:href="#DejaVuSans-34"/>
       <use xlink:href="#DejaVuSans-30" x="63.623047"/>
       <use xlink:href="#DejaVuSans-30" x="127.246094"/>
       <use xlink:href="#DejaVuSans-30" x="190.869141"/>
      </g>
     </g>
    </g>
    <g id="ytick_4">
     <g id="line2d_13">
      <g>
       <use xlink:href="#m3bf85aa3df" x="63.605" y="146.147555" style="stroke: #000000; stroke-width: 0.8"/>
      </g>
     </g>
     <g id="text_14">
      <!-- 6000 -->
      <g transform="translate(31.155 149.946774) scale(0.1 -0.1)">
       <use xlink:href="#DejaVuSans-36"/>
       <use xlink:href="#DejaVuSans-30" x="63.623047"/>
       <use xlink:href="#DejaVuSans-30" x="127.246094"/>
       <use xlink:href="#DejaVuSans-30" x="190.869141"/>
      </g>
     </g>
    </g>
    <g id="ytick_5">
     <g id="line2d_14">
      <g>
       <use xlink:href="#m3bf85aa3df" x="63.605" y="97.152545" style="stroke: #000000; stroke-width: 0.8"/>
      </g>
     </g>
     <g id="text_15">
      <!-- 8000 -->
      <g transform="translate(31.155 100.951764) scale(0.1 -0.1)">
       <use xlink:href="#DejaVuSans-38"/>
       <use xlink:href="#DejaVuSans-30" x="63.623047"/>
       <use xlink:href="#DejaVuSans-30" x="127.246094"/>
       <use xlink:href="#DejaVuSans-30" x="190.869141"/>
      </g>
     </g>
    </g>
    <g id="ytick_6">
     <g id="line2d_15">
      <g>
       <use xlink:href="#m3bf85aa3df" x="63.605" y="48.157535" style="stroke: #000000; stroke-width: 0.8"/>
      </g>
     </g>
     <g id="text_16">
      <!-- 10000 -->
      <g transform="translate(24.7925 51.956753) scale(0.1 -0.1)">
       <use xlink:href="#DejaVuSans-31"/>
       <use xlink:href="#DejaVuSans-30" x="63.623047"/>
       <use xlink:href="#DejaVuSans-30" x="127.246094"/>
       <use xlink:href="#DejaVuSans-30" x="190.869141"/>
       <use xlink:href="#DejaVuSans-30" x="254.492188"/>
      </g>
     </g>
    </g>
    <g id="text_17">
     <!-- Hufigkeit -->
     <g transform="translate(18.712813 185.102543) rotate(-90) scale(0.1 -0.1)">
      <defs>
       <path id="DejaVuSans-48" d="M 628 4666 
L 1259 4666 
L 1259 2753 
L 3553 2753 
L 3553 4666 
L 4184 4666 
L 4184 0 
L 3553 0 
L 3553 2222 
L 1259 2222 
L 1259 0 
L 628 0 
L 628 4666 
z
" transform="scale(0.015625)"/>
       <path id="DejaVuSans-e4" d="M 2194 1759 
Q 1497 1759 1228 1600 
Q 959 1441 959 1056 
Q 959 750 1161 570 
Q 1363 391 1709 391 
Q 2188 391 2477 730 
Q 2766 1069 2766 1631 
L 2766 1759 
L 2194 1759 
z
M 3341 1997 
L 3341 0 
L 2766 0 
L 2766 531 
Q 2569 213 2275 61 
Q 1981 -91 1556 -91 
Q 1019 -91 701 211 
Q 384 513 384 1019 
Q 384 1609 779 1909 
Q 1175 2209 1959 2209 
L 2766 2209 
L 2766 2266 
Q 2766 2663 2505 2880 
Q 2244 3097 1772 3097 
Q 1472 3097 1187 3025 
Q 903 2953 641 2809 
L 641 3341 
Q 956 3463 1253 3523 
Q 1550 3584 1831 3584 
Q 2591 3584 2966 3190 
Q 3341 2797 3341 1997 
z
M 2150 4850 
L 2784 4850 
L 2784 4219 
L 2150 4219 
L 2150 4850 
z
M 928 4850 
L 1563 4850 
L 1563 4219 
L 928 4219 
L 928 4850 
z
" transform="scale(0.015625)"/>
       <path id="DejaVuSans-75" d="M 544 1381 
L 544 3500 
L 1119 3500 
L 1119 1403 
Q 1119 906 1312 657 
Q 1506 409 1894 409 
Q 2359 409 2629 706 
Q 2900 1003 2900 1516 
L 2900 3500 
L 3475 3500 
L 3475 0 
L 2900 0 
L 2900 538 
Q 2691 219 2414 64 
Q 2138 -91 1772 -91 
Q 1169 -91 856 284 
Q 544 659 544 1381 
z
M 1991 3584 
L 1991 3584 
z
" transform="scale(0.015625)"/>
       <path id="DejaVuSans-66" d="M 2375 4863 
L 2375 4384 
L 1825 4384 
Q 1516 4384 1395 4259 
Q 1275 4134 1275 3809 
L 1275 3500 
L 2222 3500 
L 2222 3053 
L 1275 3053 
L 1275 0 
L 697 0 
L 697 3053 
L 147 3053 
L 147 3500 
L 697 3500 
L 697 3744 
Q 697 4328 969 4595 
Q 1241 4863 1831 4863 
L 2375 4863 
z
" transform="scale(0.015625)"/>
       <path id="DejaVuSans-69" d="M 603 3500 
L 1178 3500 
L 1178 0 
L 603 0 
L 603 3500 
z
M 603 4863 
L 1178 4863 
L 1178 4134 
L 603 4134 
L 603 4863 
z
" transform="scale(0.015625)"/>
       <path id="DejaVuSans-67" d="M 2906 1791 
Q 2906 2416 2648 2759 
Q 2391 3103 1925 3103 
Q 1463 3103 1205 2759 
Q 947 2416 947 1791 
Q 947 1169 1205 825 
Q 1463 481 1925 481 
Q 2391 481 2648 825 
Q 2906 1169 2906 1791 
z
M 3481 434 
Q 3481 -459 3084 -895 
Q 2688 -1331 1869 -1331 
Q 1566 -1331 1297 -1286 
Q 1028 -1241 775 -1147 
L 775 -588 
Q 1028 -725 1275 -790 
Q 1522 -856 1778 -856 
Q 2344 -856 2625 -561 
Q 2906 -266 2906 331 
L 2906 616 
Q 2728 306 2450 153 
Q 2172 0 1784 0 
Q 1141 0 747 490 
Q 353 981 353 1791 
Q 353 2603 747 3093 
Q 1141 3584 1784 3584 
Q 2172 3584 2450 3431 
Q 2728 3278 2906 2969 
L 2906 3500 
L 3481 3500 
L 3481 434 
z
" transform="scale(0.015625)"/>
       <path id="DejaVuSans-6b" d="M 581 4863 
L 1159 4863 
L 1159 1991 
L 2875 3500 
L 3609 3500 
L 1753 1863 
L 3688 0 
L 2938 0 
L 1159 1709 
L 1159 0 
L 581 0 
L 581 4863 
z
" transform="scale(0.015625)"/>
      </defs>
      <use xlink:href="#DejaVuSans-48"/>
      <use xlink:href="#DejaVuSans-e4" x="75.195312"/>
      <use xlink:href="#DejaVuSans-75" x="136.474609"/>
      <use xlink:href="#DejaVuSans-66" x="199.853516"/>
      <use xlink:href="#DejaVuSans-69" x="235.058594"/>
      <use xlink:href="#DejaVuSans-67" x="262.841797"/>
      <use xlink:href="#DejaVuSans-6b" x="326.318359"/>
      <use xlink:href="#DejaVuSans-65" x="380.603516"/>
      <use xlink:href="#DejaVuSans-69" x="442.126953"/>
      <use xlink:href="#DejaVuSans-74" x="469.910156"/>
     </g>
    </g>
   </g>
   <g id="patch_168">
    <path d="M 63.605 293.132586 
L 63.605 26.16 
" style="fill: none; stroke: #000000; stroke-width: 0.8; stroke-linejoin: miter; stroke-linecap: square"/>
   </g>
   <g id="patch_169">
    <path d="M 450 293.132586 
L 450 26.16 
" style="fill: none; stroke: #000000; stroke-width: 0.8; stroke-linejoin: miter; stroke-linecap: square"/>
   </g>
   <g id="patch_170">
    <path d="M 63.605 293.132586 
L 450 293.132586 
" style="fill: none; stroke: #000000; stroke-width: 0.8; stroke-linejoin: miter; stroke-linecap: square"/>
   </g>
   <g id="patch_171">
    <path d="M 63.605 26.16 
L 450 26.16 
" style="fill: none; stroke: #000000; stroke-width: 0.8; stroke-linejoin: miter; stroke-linecap: square"/>
   </g>
   <g id="text_18">
    <!-- guest_satisfaction_overall -->
    <g transform="translate(179.101562 20.16) scale(0.12 -0.12)">
     <defs>
      <path id="DejaVuSans-73" d="M 2834 3397 
L 2834 2853 
Q 2591 2978 2328 3040 
Q 2066 3103 1784 3103 
Q 1356 3103 1142 2972 
Q 928 2841 928 2578 
Q 928 2378 1081 2264 
Q 1234 2150 1697 2047 
L 1894 2003 
Q 2506 1872 2764 1633 
Q 3022 1394 3022 966 
Q 3022 478 2636 193 
Q 2250 -91 1575 -91 
Q 1294 -91 989 -36 
Q 684 19 347 128 
L 347 722 
Q 666 556 975 473 
Q 1284 391 1588 391 
Q 1994 391 2212 530 
Q 2431 669 2431 922 
Q 2431 1156 2273 1281 
Q 2116 1406 1581 1522 
L 1381 1569 
Q 847 1681 609 1914 
Q 372 2147 372 2553 
Q 372 3047 722 3315 
Q 1072 3584 1716 3584 
Q 2034 3584 2315 3537 
Q 2597 3491 2834 3397 
z
" transform="scale(0.015625)"/>
      <path id="DejaVuSans-5f" d="M 3263 -1063 
L 3263 -1509 
L -63 -1509 
L -63 -1063 
L 3263 -1063 
z
" transform="scale(0.015625)"/>
      <path id="DejaVuSans-61" d="M 2194 1759 
Q 1497 1759 1228 1600 
Q 959 1441 959 1056 
Q 959 750 1161 570 
Q 1363 391 1709 391 
Q 2188 391 2477 730 
Q 2766 1069 2766 1631 
L 2766 1759 
L 2194 1759 
z
M 3341 1997 
L 3341 0 
L 2766 0 
L 2766 531 
Q 2569 213 2275 61 
Q 1981 -91 1556 -91 
Q 1019 -91 701 211 
Q 384 513 384 1019 
Q 384 1609 779 1909 
Q 1175 2209 1959 2209 
L 2766 2209 
L 2766 2266 
Q 2766 2663 2505 2880 
Q 2244 3097 1772 3097 
Q 1472 3097 1187 3025 
Q 903 2953 641 2809 
L 641 3341 
Q 956 3463 1253 3523 
Q 1550 3584 1831 3584 
Q 2591 3584 2966 3190 
Q 3341 2797 3341 1997 
z
" transform="scale(0.015625)"/>
      <path id="DejaVuSans-63" d="M 3122 3366 
L 3122 2828 
Q 2878 2963 2633 3030 
Q 2388 3097 2138 3097 
Q 1578 3097 1268 2742 
Q 959 2388 959 1747 
Q 959 1106 1268 751 
Q 1578 397 2138 397 
Q 2388 397 2633 464 
Q 2878 531 3122 666 
L 3122 134 
Q 2881 22 2623 -34 
Q 2366 -91 2075 -91 
Q 1284 -91 818 406 
Q 353 903 353 1747 
Q 353 2603 823 3093 
Q 1294 3584 2113 3584 
Q 2378 3584 2631 3529 
Q 2884 3475 3122 3366 
z
" transform="scale(0.015625)"/>
      <path id="DejaVuSans-6f" d="M 1959 3097 
Q 1497 3097 1228 2736 
Q 959 2375 959 1747 
Q 959 1119 1226 758 
Q 1494 397 1959 397 
Q 2419 397 2687 759 
Q 2956 1122 2956 1747 
Q 2956 2369 2687 2733 
Q 2419 3097 1959 3097 
z
M 1959 3584 
Q 2709 3584 3137 3096 
Q 3566 2609 3566 1747 
Q 3566 888 3137 398 
Q 2709 -91 1959 -91 
Q 1206 -91 779 398 
Q 353 888 353 1747 
Q 353 2609 779 3096 
Q 1206 3584 1959 3584 
z
" transform="scale(0.015625)"/>
      <path id="DejaVuSans-6e" d="M 3513 2113 
L 3513 0 
L 2938 0 
L 2938 2094 
Q 2938 2591 2744 2837 
Q 2550 3084 2163 3084 
Q 1697 3084 1428 2787 
Q 1159 2491 1159 1978 
L 1159 0 
L 581 0 
L 581 3500 
L 1159 3500 
L 1159 2956 
Q 1366 3272 1645 3428 
Q 1925 3584 2291 3584 
Q 2894 3584 3203 3211 
Q 3513 2838 3513 2113 
z
" transform="scale(0.015625)"/>
      <path id="DejaVuSans-76" d="M 191 3500 
L 800 3500 
L 1894 563 
L 2988 3500 
L 3597 3500 
L 2284 0 
L 1503 0 
L 191 3500 
z
" transform="scale(0.015625)"/>
      <path id="DejaVuSans-6c" d="M 603 4863 
L 1178 4863 
L 1178 0 
L 603 0 
L 603 4863 
z
" transform="scale(0.015625)"/>
     </defs>
     <use xlink:href="#DejaVuSans-67"/>
     <use xlink:href="#DejaVuSans-75" x="63.476562"/>
     <use xlink:href="#DejaVuSans-65" x="126.855469"/>
     <use xlink:href="#DejaVuSans-73" x="188.378906"/>
     <use xlink:href="#DejaVuSans-74" x="240.478516"/>
     <use xlink:href="#DejaVuSans-5f" x="279.6875"/>
     <use xlink:href="#DejaVuSans-73" x="329.6875"/>
     <use xlink:href="#DejaVuSans-61" x="381.787109"/>
     <use xlink:href="#DejaVuSans-74" x="443.066406"/>
     <use xlink:href="#DejaVuSans-69" x="482.275391"/>
     <use xlink:href="#DejaVuSans-73" x="510.058594"/>
     <use xlink:href="#DejaVuSans-66" x="562.158203"/>
     <use xlink:href="#DejaVuSans-61" x="597.363281"/>
     <use xlink:href="#DejaVuSans-63" x="658.642578"/>
     <use xlink:href="#DejaVuSans-74" x="713.623047"/>
     <use xlink:href="#DejaVuSans-69" x="752.832031"/>
     <use xlink:href="#DejaVuSans-6f" x="780.615234"/>
     <use xlink:href="#DejaVuSans-6e" x="841.796875"/>
     <use xlink:href="#DejaVuSans-5f" x="905.175781"/>
     <use xlink:href="#DejaVuSans-6f" x="955.175781"/>
     <use xlink:href="#DejaVuSans-76" x="1016.357422"/>
     <use xlink:href="#DejaVuSans-65" x="1075.537109"/>
     <use xlink:href="#DejaVuSans-72" x="1137.060547"/>
     <use xlink:href="#DejaVuSans-61" x="1178.173828"/>
     <use xlink:href="#DejaVuSans-6c" x="1239.453125"/>
     <use xlink:href="#DejaVuSans-6c" x="1267.236328"/>
    </g>
   </g>
  </g>
 </g>
 <defs>
  <clipPath id="p2f93824070">
   <rect x="63.605" y="26.16" width="386.395" height="266.972586"/>
  </clipPath>
 </defs>
</svg>
