<?xml version="1.0" encoding="utf-8" standalone="no"?>
<!DOCTYPE svg PUBLIC "-//W3C//DTD SVG 1.1//EN"
  "http://www.w3.org/Graphics/SVG/1.1/DTD/svg11.dtd">
<svg xmlns:xlink="http://www.w3.org/1999/xlink" width="460.8pt" height="345.6pt" viewBox="0 0 460.8 345.6" xmlns="http://www.w3.org/2000/svg" version="1.1">
 <metadata>
  <rdf:RDF xmlns:dc="http://purl.org/dc/elements/1.1/" xmlns:cc="http://creativecommons.org/ns#" xmlns:rdf="http://www.w3.org/1999/02/22-rdf-syntax-ns#">
   <cc:Work>
    <dc:type rdf:resource="http://purl.org/dc/dcmitype/StillImage"/>
    <dc:date>2024-01-20T11:54:18.772702</dc:date>
    <dc:format>image/svg+xml</dc:format>
    <dc:creator>
     <cc:Agent>
      <dc:title>Matplotlib v3.8.0, https://matplotlib.org/</dc:title>
     </cc:Agent>
    </dc:creator>
   </cc:Work>
  </rdf:RDF>
 </metadata>
 <defs>
  <style type="text/css">*{stroke-linejoin: round; stroke-linecap: butt}</style>
 </defs>
 <g id="figure_1">
  <g id="patch_1">
   <path d="M 0 345.6 
L 460.8 345.6 
L 460.8 0 
L 0 0 
z
" style="fill: #ffffff"/>
  </g>
  <g id="axes_1">
   <g id="patch_2">
    <path d="M 57.26 295.359972 
L 450 295.359972 
L 450 26.16 
L 57.26 26.16 
z
" style="fill: #ffffff"/>
   </g>
   <g id="patch_3">
    <path d="M 75.111818 295.359972 
L 77.699038 295.359972 
L 77.699038 294.28525 
L 75.111818 294.28525 
z
" clip-path="url(#p591b1692d6)" style="fill: #1f77b4; opacity: 0.5"/>
   </g>
   <g id="patch_4">
    <path d="M 77.699038 295.359972 
L 80.286258 295.359972 
L 80.286258 288.91164 
L 77.699038 288.91164 
z
" clip-path="url(#p591b1692d6)" style="fill: #1f77b4; opacity: 0.5"/>
   </g>
   <g id="patch_5">
    <path d="M 80.286258 295.359972 
L 82.873478 295.359972 
L 82.873478 280.791517 
L 80.286258 280.791517 
z
" clip-path="url(#p591b1692d6)" style="fill: #1f77b4; opacity: 0.5"/>
   </g>
   <g id="patch_6">
    <path d="M 82.873478 295.359972 
L 85.460698 295.359972 
L 85.460698 259.177662 
L 82.873478 259.177662 
z
" clip-path="url(#p591b1692d6)" style="fill: #1f77b4; opacity: 0.5"/>
   </g>
   <g id="patch_7">
    <path d="M 85.460698 295.359972 
L 88.047918 295.359972 
L 88.047918 247.952787 
L 85.460698 247.952787 
z
" clip-path="url(#p591b1692d6)" style="fill: #1f77b4; opacity: 0.5"/>
   </g>
   <g id="patch_8">
    <path d="M 88.047918 295.359972 
L 90.635138 295.359972 
L 90.635138 199.112638 
L 88.047918 199.112638 
z
" clip-path="url(#p591b1692d6)" style="fill: #1f77b4; opacity: 0.5"/>
   </g>
   <g id="patch_9">
    <path d="M 90.635138 295.359972 
L 93.222358 295.359972 
L 93.222358 174.991098 
L 90.635138 174.991098 
z
" clip-path="url(#p591b1692d6)" style="fill: #1f77b4; opacity: 0.5"/>
   </g>
   <g id="patch_10">
    <path d="M 93.222358 295.359972 
L 95.809578 295.359972 
L 95.809578 121.374407 
L 93.222358 121.374407 
z
" clip-path="url(#p591b1692d6)" style="fill: #1f77b4; opacity: 0.5"/>
   </g>
   <g id="patch_11">
    <path d="M 95.809578 295.359972 
L 98.396798 295.359972 
L 98.396798 145.018293 
L 95.809578 145.018293 
z
" clip-path="url(#p591b1692d6)" style="fill: #1f77b4; opacity: 0.5"/>
   </g>
   <g id="patch_12">
    <path d="M 98.396798 295.359972 
L 100.984018 295.359972 
L 100.984018 82.564998 
L 98.396798 82.564998 
z
" clip-path="url(#p591b1692d6)" style="fill: #1f77b4; opacity: 0.5"/>
   </g>
   <g id="patch_13">
    <path d="M 100.984018 295.359972 
L 103.571238 295.359972 
L 103.571238 52.592193 
L 100.984018 52.592193 
z
" clip-path="url(#p591b1692d6)" style="fill: #1f77b4; opacity: 0.5"/>
   </g>
   <g id="patch_14">
    <path d="M 103.571238 295.359972 
L 106.158458 295.359972 
L 106.158458 38.979046 
L 103.571238 38.979046 
z
" clip-path="url(#p591b1692d6)" style="fill: #1f77b4; opacity: 0.5"/>
   </g>
   <g id="patch_15">
    <path d="M 106.158458 295.359972 
L 108.745679 295.359972 
L 108.745679 69.90716 
L 106.158458 69.90716 
z
" clip-path="url(#p591b1692d6)" style="fill: #1f77b4; opacity: 0.5"/>
   </g>
   <g id="patch_16">
    <path d="M 108.745679 295.359972 
L 111.332899 295.359972 
L 111.332899 64.652963 
L 108.745679 64.652963 
z
" clip-path="url(#p591b1692d6)" style="fill: #1f77b4; opacity: 0.5"/>
   </g>
   <g id="patch_17">
    <path d="M 111.332899 295.359972 
L 113.920119 295.359972 
L 113.920119 46.382687 
L 111.332899 46.382687 
z
" clip-path="url(#p591b1692d6)" style="fill: #1f77b4; opacity: 0.5"/>
   </g>
   <g id="patch_18">
    <path d="M 113.920119 295.359972 
L 116.507339 295.359972 
L 116.507339 74.564289 
L 113.920119 74.564289 
z
" clip-path="url(#p591b1692d6)" style="fill: #1f77b4; opacity: 0.5"/>
   </g>
   <g id="patch_19">
    <path d="M 116.507339 295.359972 
L 119.094559 295.359972 
L 119.094559 52.353366 
L 116.507339 52.353366 
z
" clip-path="url(#p591b1692d6)" style="fill: #1f77b4; opacity: 0.5"/>
   </g>
   <g id="patch_20">
    <path d="M 119.094559 295.359972 
L 121.681779 295.359972 
L 121.681779 122.090888 
L 119.094559 122.090888 
z
" clip-path="url(#p591b1692d6)" style="fill: #1f77b4; opacity: 0.5"/>
   </g>
   <g id="patch_21">
    <path d="M 121.681779 295.359972 
L 124.268999 295.359972 
L 124.268999 102.268236 
L 121.681779 102.268236 
z
" clip-path="url(#p591b1692d6)" style="fill: #1f77b4; opacity: 0.5"/>
   </g>
   <g id="patch_22">
    <path d="M 124.268999 295.359972 
L 126.856219 295.359972 
L 126.856219 102.268236 
L 124.268999 102.268236 
z
" clip-path="url(#p591b1692d6)" style="fill: #1f77b4; opacity: 0.5"/>
   </g>
   <g id="patch_23">
    <path d="M 126.856219 295.359972 
L 129.443439 295.359972 
L 129.443439 119.702617 
L 126.856219 119.702617 
z
" clip-path="url(#p591b1692d6)" style="fill: #1f77b4; opacity: 0.5"/>
   </g>
   <g id="patch_24">
    <path d="M 129.443439 295.359972 
L 132.030659 295.359972 
L 132.030659 150.391903 
L 129.443439 150.391903 
z
" clip-path="url(#p591b1692d6)" style="fill: #1f77b4; opacity: 0.5"/>
   </g>
   <g id="patch_25">
    <path d="M 132.030659 295.359972 
L 134.617879 295.359972 
L 134.617879 131.763387 
L 132.030659 131.763387 
z
" clip-path="url(#p591b1692d6)" style="fill: #1f77b4; opacity: 0.5"/>
   </g>
   <g id="patch_26">
    <path d="M 134.617879 295.359972 
L 137.205099 295.359972 
L 137.205099 142.032954 
L 134.617879 142.032954 
z
" clip-path="url(#p591b1692d6)" style="fill: #1f77b4; opacity: 0.5"/>
   </g>
   <g id="patch_27">
    <path d="M 137.205099 295.359972 
L 139.792319 295.359972 
L 139.792319 164.243877 
L 137.205099 164.243877 
z
" clip-path="url(#p591b1692d6)" style="fill: #1f77b4; opacity: 0.5"/>
   </g>
   <g id="patch_28">
    <path d="M 139.792319 295.359972 
L 142.379539 295.359972 
L 142.379539 170.095142 
L 139.792319 170.095142 
z
" clip-path="url(#p591b1692d6)" style="fill: #1f77b4; opacity: 0.5"/>
   </g>
   <g id="patch_29">
    <path d="M 142.379539 295.359972 
L 144.966759 295.359972 
L 144.966759 182.394739 
L 142.379539 182.394739 
z
" clip-path="url(#p591b1692d6)" style="fill: #1f77b4; opacity: 0.5"/>
   </g>
   <g id="patch_30">
    <path d="M 144.966759 295.359972 
L 147.553979 295.359972 
L 147.553979 182.155912 
L 144.966759 182.155912 
z
" clip-path="url(#p591b1692d6)" style="fill: #1f77b4; opacity: 0.5"/>
   </g>
   <g id="patch_31">
    <path d="M 147.553979 295.359972 
L 150.141199 295.359972 
L 150.141199 185.499492 
L 147.553979 185.499492 
z
" clip-path="url(#p591b1692d6)" style="fill: #1f77b4; opacity: 0.5"/>
   </g>
   <g id="patch_32">
    <path d="M 150.141199 295.359972 
L 152.728419 295.359972 
L 152.728419 190.873102 
L 150.141199 190.873102 
z
" clip-path="url(#p591b1692d6)" style="fill: #1f77b4; opacity: 0.5"/>
   </g>
   <g id="patch_33">
    <path d="M 152.728419 295.359972 
L 155.315639 295.359972 
L 155.315639 222.040043 
L 152.728419 222.040043 
z
" clip-path="url(#p591b1692d6)" style="fill: #1f77b4; opacity: 0.5"/>
   </g>
   <g id="patch_34">
    <path d="M 155.315639 295.359972 
L 157.902859 295.359972 
L 157.902859 219.174117 
L 155.315639 219.174117 
z
" clip-path="url(#p591b1692d6)" style="fill: #1f77b4; opacity: 0.5"/>
   </g>
   <g id="patch_35">
    <path d="M 157.902859 295.359972 
L 160.490079 295.359972 
L 160.490079 222.159456 
L 157.902859 222.159456 
z
" clip-path="url(#p591b1692d6)" style="fill: #1f77b4; opacity: 0.5"/>
   </g>
   <g id="patch_36">
    <path d="M 160.490079 295.359972 
L 163.077299 295.359972 
L 163.077299 218.57705 
L 160.490079 218.57705 
z
" clip-path="url(#p591b1692d6)" style="fill: #1f77b4; opacity: 0.5"/>
   </g>
   <g id="patch_37">
    <path d="M 163.077299 295.359972 
L 165.664519 295.359972 
L 165.664519 238.041461 
L 163.077299 238.041461 
z
" clip-path="url(#p591b1692d6)" style="fill: #1f77b4; opacity: 0.5"/>
   </g>
   <g id="patch_38">
    <path d="M 165.664519 295.359972 
L 168.251739 295.359972 
L 168.251739 235.056122 
L 165.664519 235.056122 
z
" clip-path="url(#p591b1692d6)" style="fill: #1f77b4; opacity: 0.5"/>
   </g>
   <g id="patch_39">
    <path d="M 168.251739 295.359972 
L 170.838959 295.359972 
L 170.838959 231.354301 
L 168.251739 231.354301 
z
" clip-path="url(#p591b1692d6)" style="fill: #1f77b4; opacity: 0.5"/>
   </g>
   <g id="patch_40">
    <path d="M 170.838959 295.359972 
L 173.426179 295.359972 
L 173.426179 243.534485 
L 170.838959 243.534485 
z
" clip-path="url(#p591b1692d6)" style="fill: #1f77b4; opacity: 0.5"/>
   </g>
   <g id="patch_41">
    <path d="M 173.426179 295.359972 
L 176.013399 295.359972 
L 176.013399 244.967448 
L 173.426179 244.967448 
z
" clip-path="url(#p591b1692d6)" style="fill: #1f77b4; opacity: 0.5"/>
   </g>
   <g id="patch_42">
    <path d="M 176.013399 295.359972 
L 178.600619 295.359972 
L 178.600619 243.415071 
L 176.013399 243.415071 
z
" clip-path="url(#p591b1692d6)" style="fill: #1f77b4; opacity: 0.5"/>
   </g>
   <g id="patch_43">
    <path d="M 178.600619 295.359972 
L 181.187839 295.359972 
L 181.187839 249.505163 
L 178.600619 249.505163 
z
" clip-path="url(#p591b1692d6)" style="fill: #1f77b4; opacity: 0.5"/>
   </g>
   <g id="patch_44">
    <path d="M 181.187839 295.359972 
L 183.775059 295.359972 
L 183.775059 250.579885 
L 181.187839 250.579885 
z
" clip-path="url(#p591b1692d6)" style="fill: #1f77b4; opacity: 0.5"/>
   </g>
   <g id="patch_45">
    <path d="M 183.775059 295.359972 
L 186.362279 295.359972 
L 186.362279 255.117601 
L 183.775059 255.117601 
z
" clip-path="url(#p591b1692d6)" style="fill: #1f77b4; opacity: 0.5"/>
   </g>
   <g id="patch_46">
    <path d="M 186.362279 295.359972 
L 188.949499 295.359972 
L 188.949499 266.342476 
L 186.362279 266.342476 
z
" clip-path="url(#p591b1692d6)" style="fill: #1f77b4; opacity: 0.5"/>
   </g>
   <g id="patch_47">
    <path d="M 188.949499 295.359972 
L 191.536719 295.359972 
L 191.536719 260.849452 
L 188.949499 260.849452 
z
" clip-path="url(#p591b1692d6)" style="fill: #1f77b4; opacity: 0.5"/>
   </g>
   <g id="patch_48">
    <path d="M 191.536719 295.359972 
L 194.123939 295.359972 
L 194.123939 256.908804 
L 191.536719 256.908804 
z
" clip-path="url(#p591b1692d6)" style="fill: #1f77b4; opacity: 0.5"/>
   </g>
   <g id="patch_49">
    <path d="M 194.123939 295.359972 
L 196.711159 295.359972 
L 196.711159 260.252384 
L 194.123939 260.252384 
z
" clip-path="url(#p591b1692d6)" style="fill: #1f77b4; opacity: 0.5"/>
   </g>
   <g id="patch_50">
    <path d="M 196.711159 295.359972 
L 199.298379 295.359972 
L 199.298379 268.969574 
L 196.711159 268.969574 
z
" clip-path="url(#p591b1692d6)" style="fill: #1f77b4; opacity: 0.5"/>
   </g>
   <g id="patch_51">
    <path d="M 199.298379 295.359972 
L 201.885599 295.359972 
L 201.885599 261.565933 
L 199.298379 261.565933 
z
" clip-path="url(#p591b1692d6)" style="fill: #1f77b4; opacity: 0.5"/>
   </g>
   <g id="patch_52">
    <path d="M 201.885599 295.359972 
L 204.472819 295.359972 
L 204.472819 264.193032 
L 201.885599 264.193032 
z
" clip-path="url(#p591b1692d6)" style="fill: #1f77b4; opacity: 0.5"/>
   </g>
   <g id="patch_53">
    <path d="M 204.472819 295.359972 
L 207.06004 295.359972 
L 207.06004 274.462598 
L 204.472819 274.462598 
z
" clip-path="url(#p591b1692d6)" style="fill: #1f77b4; opacity: 0.5"/>
   </g>
   <g id="patch_54">
    <path d="M 207.06004 295.359972 
L 209.64726 295.359972 
L 209.64726 267.058957 
L 207.06004 267.058957 
z
" clip-path="url(#p591b1692d6)" style="fill: #1f77b4; opacity: 0.5"/>
   </g>
   <g id="patch_55">
    <path d="M 209.64726 295.359972 
L 212.23448 295.359972 
L 212.23448 267.417198 
L 209.64726 267.417198 
z
" clip-path="url(#p591b1692d6)" style="fill: #1f77b4; opacity: 0.5"/>
   </g>
   <g id="patch_56">
    <path d="M 212.23448 295.359972 
L 214.8217 295.359972 
L 214.8217 269.924883 
L 212.23448 269.924883 
z
" clip-path="url(#p591b1692d6)" style="fill: #1f77b4; opacity: 0.5"/>
   </g>
   <g id="patch_57">
    <path d="M 214.8217 295.359972 
L 217.40892 295.359972 
L 217.40892 273.865531 
L 214.8217 273.865531 
z
" clip-path="url(#p591b1692d6)" style="fill: #1f77b4; opacity: 0.5"/>
   </g>
   <g id="patch_58">
    <path d="M 217.40892 295.359972 
L 219.99614 295.359972 
L 219.99614 270.402537 
L 217.40892 270.402537 
z
" clip-path="url(#p591b1692d6)" style="fill: #1f77b4; opacity: 0.5"/>
   </g>
   <g id="patch_59">
    <path d="M 219.99614 295.359972 
L 222.58336 295.359972 
L 222.58336 275.895561 
L 219.99614 275.895561 
z
" clip-path="url(#p591b1692d6)" style="fill: #1f77b4; opacity: 0.5"/>
   </g>
   <g id="patch_60">
    <path d="M 222.58336 295.359972 
L 225.17058 295.359972 
L 225.17058 278.761487 
L 222.58336 278.761487 
z
" clip-path="url(#p591b1692d6)" style="fill: #1f77b4; opacity: 0.5"/>
   </g>
   <g id="patch_61">
    <path d="M 225.17058 295.359972 
L 227.7578 295.359972 
L 227.7578 276.253802 
L 225.17058 276.253802 
z
" clip-path="url(#p591b1692d6)" style="fill: #1f77b4; opacity: 0.5"/>
   </g>
   <g id="patch_62">
    <path d="M 227.7578 295.359972 
L 230.34502 295.359972 
L 230.34502 276.253802 
L 227.7578 276.253802 
z
" clip-path="url(#p591b1692d6)" style="fill: #1f77b4; opacity: 0.5"/>
   </g>
   <g id="patch_63">
    <path d="M 230.34502 295.359972 
L 232.93224 295.359972 
L 232.93224 280.075036 
L 230.34502 280.075036 
z
" clip-path="url(#p591b1692d6)" style="fill: #1f77b4; opacity: 0.5"/>
   </g>
   <g id="patch_64">
    <path d="M 232.93224 295.359972 
L 235.51946 295.359972 
L 235.51946 277.567351 
L 232.93224 277.567351 
z
" clip-path="url(#p591b1692d6)" style="fill: #1f77b4; opacity: 0.5"/>
   </g>
   <g id="patch_65">
    <path d="M 235.51946 295.359972 
L 238.10668 295.359972 
L 238.10668 284.135097 
L 235.51946 284.135097 
z
" clip-path="url(#p591b1692d6)" style="fill: #1f77b4; opacity: 0.5"/>
   </g>
   <g id="patch_66">
    <path d="M 238.10668 295.359972 
L 240.6939 295.359972 
L 240.6939 281.269172 
L 238.10668 281.269172 
z
" clip-path="url(#p591b1692d6)" style="fill: #1f77b4; opacity: 0.5"/>
   </g>
   <g id="patch_67">
    <path d="M 240.6939 295.359972 
L 243.28112 295.359972 
L 243.28112 282.940962 
L 240.6939 282.940962 
z
" clip-path="url(#p591b1692d6)" style="fill: #1f77b4; opacity: 0.5"/>
   </g>
   <g id="patch_68">
    <path d="M 243.28112 295.359972 
L 245.86834 295.359972 
L 245.86834 279.119727 
L 243.28112 279.119727 
z
" clip-path="url(#p591b1692d6)" style="fill: #1f77b4; opacity: 0.5"/>
   </g>
   <g id="patch_69">
    <path d="M 245.86834 295.359972 
L 248.45556 295.359972 
L 248.45556 284.612751 
L 245.86834 284.612751 
z
" clip-path="url(#p591b1692d6)" style="fill: #1f77b4; opacity: 0.5"/>
   </g>
   <g id="patch_70">
    <path d="M 248.45556 295.359972 
L 251.04278 295.359972 
L 251.04278 283.299202 
L 248.45556 283.299202 
z
" clip-path="url(#p591b1692d6)" style="fill: #1f77b4; opacity: 0.5"/>
   </g>
   <g id="patch_71">
    <path d="M 251.04278 295.359972 
L 253.63 295.359972 
L 253.63 282.702134 
L 251.04278 282.702134 
z
" clip-path="url(#p591b1692d6)" style="fill: #1f77b4; opacity: 0.5"/>
   </g>
   <g id="patch_72">
    <path d="M 253.63 295.359972 
L 256.21722 295.359972 
L 256.21722 285.209819 
L 253.63 285.209819 
z
" clip-path="url(#p591b1692d6)" style="fill: #1f77b4; opacity: 0.5"/>
   </g>
   <g id="patch_73">
    <path d="M 256.21722 295.359972 
L 258.80444 295.359972 
L 258.80444 285.090406 
L 256.21722 285.090406 
z
" clip-path="url(#p591b1692d6)" style="fill: #1f77b4; opacity: 0.5"/>
   </g>
   <g id="patch_74">
    <path d="M 258.80444 295.359972 
L 261.39166 295.359972 
L 261.39166 284.493338 
L 258.80444 284.493338 
z
" clip-path="url(#p591b1692d6)" style="fill: #1f77b4; opacity: 0.5"/>
   </g>
   <g id="patch_75">
    <path d="M 261.39166 295.359972 
L 263.97888 295.359972 
L 263.97888 285.448646 
L 261.39166 285.448646 
z
" clip-path="url(#p591b1692d6)" style="fill: #1f77b4; opacity: 0.5"/>
   </g>
   <g id="patch_76">
    <path d="M 263.97888 295.359972 
L 266.5661 295.359972 
L 266.5661 288.314572 
L 263.97888 288.314572 
z
" clip-path="url(#p591b1692d6)" style="fill: #1f77b4; opacity: 0.5"/>
   </g>
   <g id="patch_77">
    <path d="M 266.5661 295.359972 
L 269.15332 295.359972 
L 269.15332 281.269172 
L 266.5661 281.269172 
z
" clip-path="url(#p591b1692d6)" style="fill: #1f77b4; opacity: 0.5"/>
   </g>
   <g id="patch_78">
    <path d="M 269.15332 295.359972 
L 271.74054 295.359972 
L 271.74054 287.598091 
L 269.15332 287.598091 
z
" clip-path="url(#p591b1692d6)" style="fill: #1f77b4; opacity: 0.5"/>
   </g>
   <g id="patch_79">
    <path d="M 271.74054 295.359972 
L 274.32776 295.359972 
L 274.32776 286.284541 
L 271.74054 286.284541 
z
" clip-path="url(#p591b1692d6)" style="fill: #1f77b4; opacity: 0.5"/>
   </g>
   <g id="patch_80">
    <path d="M 274.32776 295.359972 
L 276.91498 295.359972 
L 276.91498 288.195158 
L 274.32776 288.195158 
z
" clip-path="url(#p591b1692d6)" style="fill: #1f77b4; opacity: 0.5"/>
   </g>
   <g id="patch_81">
    <path d="M 276.91498 295.359972 
L 279.5022 295.359972 
L 279.5022 288.195158 
L 276.91498 288.195158 
z
" clip-path="url(#p591b1692d6)" style="fill: #1f77b4; opacity: 0.5"/>
   </g>
   <g id="patch_82">
    <path d="M 279.5022 295.359972 
L 282.08942 295.359972 
L 282.08942 287.717504 
L 279.5022 287.717504 
z
" clip-path="url(#p591b1692d6)" style="fill: #1f77b4; opacity: 0.5"/>
   </g>
   <g id="patch_83">
    <path d="M 282.08942 295.359972 
L 284.67664 295.359972 
L 284.67664 289.508708 
L 282.08942 289.508708 
z
" clip-path="url(#p591b1692d6)" style="fill: #1f77b4; opacity: 0.5"/>
   </g>
   <g id="patch_84">
    <path d="M 284.67664 295.359972 
L 287.26386 295.359972 
L 287.26386 288.91164 
L 284.67664 288.91164 
z
" clip-path="url(#p591b1692d6)" style="fill: #1f77b4; opacity: 0.5"/>
   </g>
   <g id="patch_85">
    <path d="M 287.26386 295.359972 
L 289.85108 295.359972 
L 289.85108 287.23985 
L 287.26386 287.23985 
z
" clip-path="url(#p591b1692d6)" style="fill: #1f77b4; opacity: 0.5"/>
   </g>
   <g id="patch_86">
    <path d="M 289.85108 295.359972 
L 292.4383 295.359972 
L 292.4383 288.075745 
L 289.85108 288.075745 
z
" clip-path="url(#p591b1692d6)" style="fill: #1f77b4; opacity: 0.5"/>
   </g>
   <g id="patch_87">
    <path d="M 292.4383 295.359972 
L 295.02552 295.359972 
L 295.02552 289.508708 
L 292.4383 289.508708 
z
" clip-path="url(#p591b1692d6)" style="fill: #1f77b4; opacity: 0.5"/>
   </g>
   <g id="patch_88">
    <path d="M 295.02552 295.359972 
L 297.61274 295.359972 
L 297.61274 285.687474 
L 295.02552 285.687474 
z
" clip-path="url(#p591b1692d6)" style="fill: #1f77b4; opacity: 0.5"/>
   </g>
   <g id="patch_89">
    <path d="M 297.61274 295.359972 
L 300.19996 295.359972 
L 300.19996 291.299911 
L 297.61274 291.299911 
z
" clip-path="url(#p591b1692d6)" style="fill: #1f77b4; opacity: 0.5"/>
   </g>
   <g id="patch_90">
    <path d="M 300.19996 295.359972 
L 302.787181 295.359972 
L 302.787181 290.344603 
L 300.19996 290.344603 
z
" clip-path="url(#p591b1692d6)" style="fill: #1f77b4; opacity: 0.5"/>
   </g>
   <g id="patch_91">
    <path d="M 302.787181 295.359972 
L 305.374401 295.359972 
L 305.374401 289.986362 
L 302.787181 289.986362 
z
" clip-path="url(#p591b1692d6)" style="fill: #1f77b4; opacity: 0.5"/>
   </g>
   <g id="patch_92">
    <path d="M 305.374401 295.359972 
L 307.961621 295.359972 
L 307.961621 291.896979 
L 305.374401 291.896979 
z
" clip-path="url(#p591b1692d6)" style="fill: #1f77b4; opacity: 0.5"/>
   </g>
   <g id="patch_93">
    <path d="M 307.961621 295.359972 
L 310.548841 295.359972 
L 310.548841 291.061084 
L 307.961621 291.061084 
z
" clip-path="url(#p591b1692d6)" style="fill: #1f77b4; opacity: 0.5"/>
   </g>
   <g id="patch_94">
    <path d="M 310.548841 295.359972 
L 313.136061 295.359972 
L 313.136061 291.777565 
L 310.548841 291.777565 
z
" clip-path="url(#p591b1692d6)" style="fill: #1f77b4; opacity: 0.5"/>
   </g>
   <g id="patch_95">
    <path d="M 313.136061 295.359972 
L 315.723281 295.359972 
L 315.723281 291.419325 
L 313.136061 291.419325 
z
" clip-path="url(#p591b1692d6)" style="fill: #1f77b4; opacity: 0.5"/>
   </g>
   <g id="patch_96">
    <path d="M 315.723281 295.359972 
L 318.310501 295.359972 
L 318.310501 291.061084 
L 315.723281 291.061084 
z
" clip-path="url(#p591b1692d6)" style="fill: #1f77b4; opacity: 0.5"/>
   </g>
   <g id="patch_97">
    <path d="M 318.310501 295.359972 
L 320.897721 295.359972 
L 320.897721 290.344603 
L 318.310501 290.344603 
z
" clip-path="url(#p591b1692d6)" style="fill: #1f77b4; opacity: 0.5"/>
   </g>
   <g id="patch_98">
    <path d="M 320.897721 295.359972 
L 323.484941 295.359972 
L 323.484941 291.538738 
L 320.897721 291.538738 
z
" clip-path="url(#p591b1692d6)" style="fill: #1f77b4; opacity: 0.5"/>
   </g>
   <g id="patch_99">
    <path d="M 323.484941 295.359972 
L 326.072161 295.359972 
L 326.072161 292.61346 
L 323.484941 292.61346 
z
" clip-path="url(#p591b1692d6)" style="fill: #1f77b4; opacity: 0.5"/>
   </g>
   <g id="patch_100">
    <path d="M 326.072161 295.359972 
L 328.659381 295.359972 
L 328.659381 290.58343 
L 326.072161 290.58343 
z
" clip-path="url(#p591b1692d6)" style="fill: #1f77b4; opacity: 0.5"/>
   </g>
   <g id="patch_101">
    <path d="M 328.659381 295.359972 
L 331.246601 295.359972 
L 331.246601 291.777565 
L 328.659381 291.777565 
z
" clip-path="url(#p591b1692d6)" style="fill: #1f77b4; opacity: 0.5"/>
   </g>
   <g id="patch_102">
    <path d="M 331.246601 295.359972 
L 333.833821 295.359972 
L 333.833821 291.538738 
L 331.246601 291.538738 
z
" clip-path="url(#p591b1692d6)" style="fill: #1f77b4; opacity: 0.5"/>
   </g>
   <g id="patch_103">
    <path d="M 333.833821 295.359972 
L 336.421041 295.359972 
L 336.421041 292.135806 
L 333.833821 292.135806 
z
" clip-path="url(#p591b1692d6)" style="fill: #1f77b4; opacity: 0.5"/>
   </g>
   <g id="patch_104">
    <path d="M 336.421041 295.359972 
L 339.008261 295.359972 
L 339.008261 291.538738 
L 336.421041 291.538738 
z
" clip-path="url(#p591b1692d6)" style="fill: #1f77b4; opacity: 0.5"/>
   </g>
   <g id="patch_105">
    <path d="M 339.008261 295.359972 
L 341.595481 295.359972 
L 341.595481 292.732874 
L 339.008261 292.732874 
z
" clip-path="url(#p591b1692d6)" style="fill: #1f77b4; opacity: 0.5"/>
   </g>
   <g id="patch_106">
    <path d="M 341.595481 295.359972 
L 344.182701 295.359972 
L 344.182701 291.180498 
L 341.595481 291.180498 
z
" clip-path="url(#p591b1692d6)" style="fill: #1f77b4; opacity: 0.5"/>
   </g>
   <g id="patch_107">
    <path d="M 344.182701 295.359972 
L 346.769921 295.359972 
L 346.769921 291.777565 
L 344.182701 291.777565 
z
" clip-path="url(#p591b1692d6)" style="fill: #1f77b4; opacity: 0.5"/>
   </g>
   <g id="patch_108">
    <path d="M 346.769921 295.359972 
L 349.357141 295.359972 
L 349.357141 292.732874 
L 346.769921 292.732874 
z
" clip-path="url(#p591b1692d6)" style="fill: #1f77b4; opacity: 0.5"/>
   </g>
   <g id="patch_109">
    <path d="M 349.357141 295.359972 
L 351.944361 295.359972 
L 351.944361 291.777565 
L 349.357141 291.777565 
z
" clip-path="url(#p591b1692d6)" style="fill: #1f77b4; opacity: 0.5"/>
   </g>
   <g id="patch_110">
    <path d="M 351.944361 295.359972 
L 354.531581 295.359972 
L 354.531581 292.852288 
L 351.944361 292.852288 
z
" clip-path="url(#p591b1692d6)" style="fill: #1f77b4; opacity: 0.5"/>
   </g>
   <g id="patch_111">
    <path d="M 354.531581 295.359972 
L 357.118801 295.359972 
L 357.118801 293.449355 
L 354.531581 293.449355 
z
" clip-path="url(#p591b1692d6)" style="fill: #1f77b4; opacity: 0.5"/>
   </g>
   <g id="patch_112">
    <path d="M 357.118801 295.359972 
L 359.706021 295.359972 
L 359.706021 292.732874 
L 357.118801 292.732874 
z
" clip-path="url(#p591b1692d6)" style="fill: #1f77b4; opacity: 0.5"/>
   </g>
   <g id="patch_113">
    <path d="M 359.706021 295.359972 
L 362.293241 295.359972 
L 362.293241 293.568769 
L 359.706021 293.568769 
z
" clip-path="url(#p591b1692d6)" style="fill: #1f77b4; opacity: 0.5"/>
   </g>
   <g id="patch_114">
    <path d="M 362.293241 295.359972 
L 364.880461 295.359972 
L 364.880461 293.92701 
L 362.293241 293.92701 
z
" clip-path="url(#p591b1692d6)" style="fill: #1f77b4; opacity: 0.5"/>
   </g>
   <g id="patch_115">
    <path d="M 364.880461 295.359972 
L 367.467681 295.359972 
L 367.467681 293.091115 
L 364.880461 293.091115 
z
" clip-path="url(#p591b1692d6)" style="fill: #1f77b4; opacity: 0.5"/>
   </g>
   <g id="patch_116">
    <path d="M 367.467681 295.359972 
L 370.054901 295.359972 
L 370.054901 291.180498 
L 367.467681 291.180498 
z
" clip-path="url(#p591b1692d6)" style="fill: #1f77b4; opacity: 0.5"/>
   </g>
   <g id="patch_117">
    <path d="M 370.054901 295.359972 
L 372.642121 295.359972 
L 372.642121 294.404664 
L 370.054901 294.404664 
z
" clip-path="url(#p591b1692d6)" style="fill: #1f77b4; opacity: 0.5"/>
   </g>
   <g id="patch_118">
    <path d="M 372.642121 295.359972 
L 375.229341 295.359972 
L 375.229341 293.449355 
L 372.642121 293.449355 
z
" clip-path="url(#p591b1692d6)" style="fill: #1f77b4; opacity: 0.5"/>
   </g>
   <g id="patch_119">
    <path d="M 375.229341 295.359972 
L 377.816561 295.359972 
L 377.816561 294.165837 
L 375.229341 294.165837 
z
" clip-path="url(#p591b1692d6)" style="fill: #1f77b4; opacity: 0.5"/>
   </g>
   <g id="patch_120">
    <path d="M 377.816561 295.359972 
L 380.403781 295.359972 
L 380.403781 294.524077 
L 377.816561 294.524077 
z
" clip-path="url(#p591b1692d6)" style="fill: #1f77b4; opacity: 0.5"/>
   </g>
   <g id="patch_121">
    <path d="M 380.403781 295.359972 
L 382.991001 295.359972 
L 382.991001 294.643491 
L 380.403781 294.643491 
z
" clip-path="url(#p591b1692d6)" style="fill: #1f77b4; opacity: 0.5"/>
   </g>
   <g id="patch_122">
    <path d="M 382.991001 295.359972 
L 385.578221 295.359972 
L 385.578221 293.92701 
L 382.991001 293.92701 
z
" clip-path="url(#p591b1692d6)" style="fill: #1f77b4; opacity: 0.5"/>
   </g>
   <g id="patch_123">
    <path d="M 385.578221 295.359972 
L 388.165441 295.359972 
L 388.165441 294.404664 
L 385.578221 294.404664 
z
" clip-path="url(#p591b1692d6)" style="fill: #1f77b4; opacity: 0.5"/>
   </g>
   <g id="patch_124">
    <path d="M 388.165441 295.359972 
L 390.752661 295.359972 
L 390.752661 293.210528 
L 388.165441 293.210528 
z
" clip-path="url(#p591b1692d6)" style="fill: #1f77b4; opacity: 0.5"/>
   </g>
   <g id="patch_125">
    <path d="M 390.752661 295.359972 
L 393.339881 295.359972 
L 393.339881 293.92701 
L 390.752661 293.92701 
z
" clip-path="url(#p591b1692d6)" style="fill: #1f77b4; opacity: 0.5"/>
   </g>
   <g id="patch_126">
    <path d="M 393.339881 295.359972 
L 395.927101 295.359972 
L 395.927101 294.165837 
L 393.339881 294.165837 
z
" clip-path="url(#p591b1692d6)" style="fill: #1f77b4; opacity: 0.5"/>
   </g>
   <g id="patch_127">
    <path d="M 395.927101 295.359972 
L 398.514321 295.359972 
L 398.514321 294.28525 
L 395.927101 294.28525 
z
" clip-path="url(#p591b1692d6)" style="fill: #1f77b4; opacity: 0.5"/>
   </g>
   <g id="patch_128">
    <path d="M 398.514321 295.359972 
L 401.101542 295.359972 
L 401.101542 293.92701 
L 398.514321 293.92701 
z
" clip-path="url(#p591b1692d6)" style="fill: #1f77b4; opacity: 0.5"/>
   </g>
   <g id="patch_129">
    <path d="M 401.101542 295.359972 
L 403.688762 295.359972 
L 403.688762 293.091115 
L 401.101542 293.091115 
z
" clip-path="url(#p591b1692d6)" style="fill: #1f77b4; opacity: 0.5"/>
   </g>
   <g id="patch_130">
    <path d="M 403.688762 295.359972 
L 406.275982 295.359972 
L 406.275982 292.852288 
L 403.688762 292.852288 
z
" clip-path="url(#p591b1692d6)" style="fill: #1f77b4; opacity: 0.5"/>
   </g>
   <g id="patch_131">
    <path d="M 406.275982 295.359972 
L 408.863202 295.359972 
L 408.863202 293.688183 
L 406.275982 293.688183 
z
" clip-path="url(#p591b1692d6)" style="fill: #1f77b4; opacity: 0.5"/>
   </g>
   <g id="patch_132">
    <path d="M 408.863202 295.359972 
L 411.450422 295.359972 
L 411.450422 294.165837 
L 408.863202 294.165837 
z
" clip-path="url(#p591b1692d6)" style="fill: #1f77b4; opacity: 0.5"/>
   </g>
   <g id="patch_133">
    <path d="M 411.450422 295.359972 
L 414.037642 295.359972 
L 414.037642 294.165837 
L 411.450422 294.165837 
z
" clip-path="url(#p591b1692d6)" style="fill: #1f77b4; opacity: 0.5"/>
   </g>
   <g id="patch_134">
    <path d="M 414.037642 295.359972 
L 416.624862 295.359972 
L 416.624862 295.359972 
L 414.037642 295.359972 
z
" clip-path="url(#p591b1692d6)" style="fill: #1f77b4; opacity: 0.5"/>
   </g>
   <g id="patch_135">
    <path d="M 416.624862 295.359972 
L 419.212082 295.359972 
L 419.212082 294.28525 
L 416.624862 294.28525 
z
" clip-path="url(#p591b1692d6)" style="fill: #1f77b4; opacity: 0.5"/>
   </g>
   <g id="patch_136">
    <path d="M 419.212082 295.359972 
L 421.799302 295.359972 
L 421.799302 295.001732 
L 419.212082 295.001732 
z
" clip-path="url(#p591b1692d6)" style="fill: #1f77b4; opacity: 0.5"/>
   </g>
   <g id="patch_137">
    <path d="M 421.799302 295.359972 
L 424.386522 295.359972 
L 424.386522 294.165837 
L 421.799302 294.165837 
z
" clip-path="url(#p591b1692d6)" style="fill: #1f77b4; opacity: 0.5"/>
   </g>
   <g id="patch_138">
    <path d="M 424.386522 295.359972 
L 426.973742 295.359972 
L 426.973742 294.165837 
L 424.386522 294.165837 
z
" clip-path="url(#p591b1692d6)" style="fill: #1f77b4; opacity: 0.5"/>
   </g>
   <g id="patch_139">
    <path d="M 426.973742 295.359972 
L 429.560962 295.359972 
L 429.560962 294.28525 
L 426.973742 294.28525 
z
" clip-path="url(#p591b1692d6)" style="fill: #1f77b4; opacity: 0.5"/>
   </g>
   <g id="patch_140">
    <path d="M 429.560962 295.359972 
L 432.148182 295.359972 
L 432.148182 294.165837 
L 429.560962 294.165837 
z
" clip-path="url(#p591b1692d6)" style="fill: #1f77b4; opacity: 0.5"/>
   </g>
   <g id="matplotlib.axis_1">
    <g id="xtick_1">
     <g id="line2d_1">
      <defs>
       <path id="m65921b88bd" d="M 0 0 
L 0 3.5 
" style="stroke: #000000; stroke-width: 0.8"/>
      </defs>
      <g>
       <use xlink:href="#m65921b88bd" x="75.111818" y="295.359972" style="stroke: #000000; stroke-width: 0.8"/>
      </g>
     </g>
     <g id="text_1">
      <!-- 0.0 -->
      <g transform="translate(71.440387 318.978087) rotate(-45) scale(0.1 -0.1)">
       <defs>
        <path id="DejaVuSans-30" d="M 2034 4250 
Q 1547 4250 1301 3770 
Q 1056 3291 1056 2328 
Q 1056 1369 1301 889 
Q 1547 409 2034 409 
Q 2525 409 2770 889 
Q 3016 1369 3016 2328 
Q 3016 3291 2770 3770 
Q 2525 4250 2034 4250 
z
M 2034 4750 
Q 2819 4750 3233 4129 
Q 3647 3509 3647 2328 
Q 3647 1150 3233 529 
Q 2819 -91 2034 -91 
Q 1250 -91 836 529 
Q 422 1150 422 2328 
Q 422 3509 836 4129 
Q 1250 4750 2034 4750 
z
" transform="scale(0.015625)"/>
        <path id="DejaVuSans-2e" d="M 684 794 
L 1344 794 
L 1344 0 
L 684 0 
L 684 794 
z
" transform="scale(0.015625)"/>
       </defs>
       <use xlink:href="#DejaVuSans-30"/>
       <use xlink:href="#DejaVuSans-2e" x="63.623047"/>
       <use xlink:href="#DejaVuSans-30" x="95.410156"/>
      </g>
     </g>
    </g>
    <g id="xtick_2">
     <g id="line2d_2">
      <g>
       <use xlink:href="#m65921b88bd" x="146.519091" y="295.359972" style="stroke: #000000; stroke-width: 0.8"/>
      </g>
     </g>
     <g id="text_2">
      <!-- 0.2 -->
      <g transform="translate(142.84766 318.978087) rotate(-45) scale(0.1 -0.1)">
       <defs>
        <path id="DejaVuSans-32" d="M 1228 531 
L 3431 531 
L 3431 0 
L 469 0 
L 469 531 
Q 828 903 1448 1529 
Q 2069 2156 2228 2338 
Q 2531 2678 2651 2914 
Q 2772 3150 2772 3378 
Q 2772 3750 2511 3984 
Q 2250 4219 1831 4219 
Q 1534 4219 1204 4116 
Q 875 4013 500 3803 
L 500 4441 
Q 881 4594 1212 4672 
Q 1544 4750 1819 4750 
Q 2544 4750 2975 4387 
Q 3406 4025 3406 3419 
Q 3406 3131 3298 2873 
Q 3191 2616 2906 2266 
Q 2828 2175 2409 1742 
Q 1991 1309 1228 531 
z
" transform="scale(0.015625)"/>
       </defs>
       <use xlink:href="#DejaVuSans-30"/>
       <use xlink:href="#DejaVuSans-2e" x="63.623047"/>
       <use xlink:href="#DejaVuSans-32" x="95.410156"/>
      </g>
     </g>
    </g>
    <g id="xtick_3">
     <g id="line2d_3">
      <g>
       <use xlink:href="#m65921b88bd" x="217.926364" y="295.359972" style="stroke: #000000; stroke-width: 0.8"/>
      </g>
     </g>
     <g id="text_3">
      <!-- 0.4 -->
      <g transform="translate(214.254933 318.978087) rotate(-45) scale(0.1 -0.1)">
       <defs>
        <path id="DejaVuSans-34" d="M 2419 4116 
L 825 1625 
L 2419 1625 
L 2419 4116 
z
M 2253 4666 
L 3047 4666 
L 3047 1625 
L 3713 1625 
L 3713 1100 
L 3047 1100 
L 3047 0 
L 2419 0 
L 2419 1100 
L 313 1100 
L 313 1709 
L 2253 4666 
z
" transform="scale(0.015625)"/>
       </defs>
       <use xlink:href="#DejaVuSans-30"/>
       <use xlink:href="#DejaVuSans-2e" x="63.623047"/>
       <use xlink:href="#DejaVuSans-34" x="95.410156"/>
      </g>
     </g>
    </g>
    <g id="xtick_4">
     <g id="line2d_4">
      <g>
       <use xlink:href="#m65921b88bd" x="289.333636" y="295.359972" style="stroke: #000000; stroke-width: 0.8"/>
      </g>
     </g>
     <g id="text_4">
      <!-- 0.6 -->
      <g transform="translate(285.662205 318.978087) rotate(-45) scale(0.1 -0.1)">
       <defs>
        <path id="DejaVuSans-36" d="M 2113 2584 
Q 1688 2584 1439 2293 
Q 1191 2003 1191 1497 
Q 1191 994 1439 701 
Q 1688 409 2113 409 
Q 2538 409 2786 701 
Q 3034 994 3034 1497 
Q 3034 2003 2786 2293 
Q 2538 2584 2113 2584 
z
M 3366 4563 
L 3366 3988 
Q 3128 4100 2886 4159 
Q 2644 4219 2406 4219 
Q 1781 4219 1451 3797 
Q 1122 3375 1075 2522 
Q 1259 2794 1537 2939 
Q 1816 3084 2150 3084 
Q 2853 3084 3261 2657 
Q 3669 2231 3669 1497 
Q 3669 778 3244 343 
Q 2819 -91 2113 -91 
Q 1303 -91 875 529 
Q 447 1150 447 2328 
Q 447 3434 972 4092 
Q 1497 4750 2381 4750 
Q 2619 4750 2861 4703 
Q 3103 4656 3366 4563 
z
" transform="scale(0.015625)"/>
       </defs>
       <use xlink:href="#DejaVuSans-30"/>
       <use xlink:href="#DejaVuSans-2e" x="63.623047"/>
       <use xlink:href="#DejaVuSans-36" x="95.410156"/>
      </g>
     </g>
    </g>
    <g id="xtick_5">
     <g id="line2d_5">
      <g>
       <use xlink:href="#m65921b88bd" x="360.740909" y="295.359972" style="stroke: #000000; stroke-width: 0.8"/>
      </g>
     </g>
     <g id="text_5">
      <!-- 0.8 -->
      <g transform="translate(357.069478 318.978087) rotate(-45) scale(0.1 -0.1)">
       <defs>
        <path id="DejaVuSans-38" d="M 2034 2216 
Q 1584 2216 1326 1975 
Q 1069 1734 1069 1313 
Q 1069 891 1326 650 
Q 1584 409 2034 409 
Q 2484 409 2743 651 
Q 3003 894 3003 1313 
Q 3003 1734 2745 1975 
Q 2488 2216 2034 2216 
z
M 1403 2484 
Q 997 2584 770 2862 
Q 544 3141 544 3541 
Q 544 4100 942 4425 
Q 1341 4750 2034 4750 
Q 2731 4750 3128 4425 
Q 3525 4100 3525 3541 
Q 3525 3141 3298 2862 
Q 3072 2584 2669 2484 
Q 3125 2378 3379 2068 
Q 3634 1759 3634 1313 
Q 3634 634 3220 271 
Q 2806 -91 2034 -91 
Q 1263 -91 848 271 
Q 434 634 434 1313 
Q 434 1759 690 2068 
Q 947 2378 1403 2484 
z
M 1172 3481 
Q 1172 3119 1398 2916 
Q 1625 2713 2034 2713 
Q 2441 2713 2670 2916 
Q 2900 3119 2900 3481 
Q 2900 3844 2670 4047 
Q 2441 4250 2034 4250 
Q 1625 4250 1398 4047 
Q 1172 3844 1172 3481 
z
" transform="scale(0.015625)"/>
       </defs>
       <use xlink:href="#DejaVuSans-30"/>
       <use xlink:href="#DejaVuSans-2e" x="63.623047"/>
       <use xlink:href="#DejaVuSans-38" x="95.410156"/>
      </g>
     </g>
    </g>
    <g id="xtick_6">
     <g id="line2d_6">
      <g>
       <use xlink:href="#m65921b88bd" x="432.148182" y="295.359972" style="stroke: #000000; stroke-width: 0.8"/>
      </g>
     </g>
     <g id="text_6">
      <!-- 1.0 -->
      <g transform="translate(428.476751 318.978087) rotate(-45) scale(0.1 -0.1)">
       <defs>
        <path id="DejaVuSans-31" d="M 794 531 
L 1825 531 
L 1825 4091 
L 703 3866 
L 703 4441 
L 1819 4666 
L 2450 4666 
L 2450 531 
L 3481 531 
L 3481 0 
L 794 0 
L 794 531 
z
" transform="scale(0.015625)"/>
       </defs>
       <use xlink:href="#DejaVuSans-31"/>
       <use xlink:href="#DejaVuSans-2e" x="63.623047"/>
       <use xlink:href="#DejaVuSans-30" x="95.410156"/>
      </g>
     </g>
    </g>
    <g id="text_7">
     <!-- Werte -->
     <g transform="translate(238.81125 332.047085) scale(0.1 -0.1)">
      <defs>
       <path id="DejaVuSans-57" d="M 213 4666 
L 850 4666 
L 1831 722 
L 2809 4666 
L 3519 4666 
L 4500 722 
L 5478 4666 
L 6119 4666 
L 4947 0 
L 4153 0 
L 3169 4050 
L 2175 0 
L 1381 0 
L 213 4666 
z
" transform="scale(0.015625)"/>
       <path id="DejaVuSans-65" d="M 3597 1894 
L 3597 1613 
L 953 1613 
Q 991 1019 1311 708 
Q 1631 397 2203 397 
Q 2534 397 2845 478 
Q 3156 559 3463 722 
L 3463 178 
Q 3153 47 2828 -22 
Q 2503 -91 2169 -91 
Q 1331 -91 842 396 
Q 353 884 353 1716 
Q 353 2575 817 3079 
Q 1281 3584 2069 3584 
Q 2775 3584 3186 3129 
Q 3597 2675 3597 1894 
z
M 3022 2063 
Q 3016 2534 2758 2815 
Q 2500 3097 2075 3097 
Q 1594 3097 1305 2825 
Q 1016 2553 972 2059 
L 3022 2063 
z
" transform="scale(0.015625)"/>
       <path id="DejaVuSans-72" d="M 2631 2963 
Q 2534 3019 2420 3045 
Q 2306 3072 2169 3072 
Q 1681 3072 1420 2755 
Q 1159 2438 1159 1844 
L 1159 0 
L 581 0 
L 581 3500 
L 1159 3500 
L 1159 2956 
Q 1341 3275 1631 3429 
Q 1922 3584 2338 3584 
Q 2397 3584 2469 3576 
Q 2541 3569 2628 3553 
L 2631 2963 
z
" transform="scale(0.015625)"/>
       <path id="DejaVuSans-74" d="M 1172 4494 
L 1172 3500 
L 2356 3500 
L 2356 3053 
L 1172 3053 
L 1172 1153 
Q 1172 725 1289 603 
Q 1406 481 1766 481 
L 2356 481 
L 2356 0 
L 1766 0 
Q 1100 0 847 248 
Q 594 497 594 1153 
L 594 3053 
L 172 3053 
L 172 3500 
L 594 3500 
L 594 4494 
L 1172 4494 
z
" transform="scale(0.015625)"/>
      </defs>
      <use xlink:href="#DejaVuSans-57"/>
      <use xlink:href="#DejaVuSans-65" x="93.001953"/>
      <use xlink:href="#DejaVuSans-72" x="154.525391"/>
      <use xlink:href="#DejaVuSans-74" x="195.638672"/>
      <use xlink:href="#DejaVuSans-65" x="234.847656"/>
     </g>
    </g>
   </g>
   <g id="matplotlib.axis_2">
    <g id="ytick_1">
     <g id="line2d_7">
      <defs>
       <path id="me7a99a7d8f" d="M 0 0 
L -3.5 0 
" style="stroke: #000000; stroke-width: 0.8"/>
      </defs>
      <g>
       <use xlink:href="#me7a99a7d8f" x="57.26" y="295.359972" style="stroke: #000000; stroke-width: 0.8"/>
      </g>
     </g>
     <g id="text_8">
      <!-- 0 -->
      <g transform="translate(43.8975 299.159191) scale(0.1 -0.1)">
       <use xlink:href="#DejaVuSans-30"/>
      </g>
     </g>
    </g>
    <g id="ytick_2">
     <g id="line2d_8">
      <g>
       <use xlink:href="#me7a99a7d8f" x="57.26" y="235.653189" style="stroke: #000000; stroke-width: 0.8"/>
      </g>
     </g>
     <g id="text_9">
      <!-- 500 -->
      <g transform="translate(31.1725 239.452408) scale(0.1 -0.1)">
       <defs>
        <path id="DejaVuSans-35" d="M 691 4666 
L 3169 4666 
L 3169 4134 
L 1269 4134 
L 1269 2991 
Q 1406 3038 1543 3061 
Q 1681 3084 1819 3084 
Q 2600 3084 3056 2656 
Q 3513 2228 3513 1497 
Q 3513 744 3044 326 
Q 2575 -91 1722 -91 
Q 1428 -91 1123 -41 
Q 819 9 494 109 
L 494 744 
Q 775 591 1075 516 
Q 1375 441 1709 441 
Q 2250 441 2565 725 
Q 2881 1009 2881 1497 
Q 2881 1984 2565 2268 
Q 2250 2553 1709 2553 
Q 1456 2553 1204 2497 
Q 953 2441 691 2322 
L 691 4666 
z
" transform="scale(0.015625)"/>
       </defs>
       <use xlink:href="#DejaVuSans-35"/>
       <use xlink:href="#DejaVuSans-30" x="63.623047"/>
       <use xlink:href="#DejaVuSans-30" x="127.246094"/>
      </g>
     </g>
    </g>
    <g id="ytick_3">
     <g id="line2d_9">
      <g>
       <use xlink:href="#me7a99a7d8f" x="57.26" y="175.946406" style="stroke: #000000; stroke-width: 0.8"/>
      </g>
     </g>
     <g id="text_10">
      <!-- 1000 -->
      <g transform="translate(24.81 179.745625) scale(0.1 -0.1)">
       <use xlink:href="#DejaVuSans-31"/>
       <use xlink:href="#DejaVuSans-30" x="63.623047"/>
       <use xlink:href="#DejaVuSans-30" x="127.246094"/>
       <use xlink:href="#DejaVuSans-30" x="190.869141"/>
      </g>
     </g>
    </g>
    <g id="ytick_4">
     <g id="line2d_10">
      <g>
       <use xlink:href="#me7a99a7d8f" x="57.26" y="116.239623" style="stroke: #000000; stroke-width: 0.8"/>
      </g>
     </g>
     <g id="text_11">
      <!-- 1500 -->
      <g transform="translate(24.81 120.038842) scale(0.1 -0.1)">
       <use xlink:href="#DejaVuSans-31"/>
       <use xlink:href="#DejaVuSans-35" x="63.623047"/>
       <use xlink:href="#DejaVuSans-30" x="127.246094"/>
       <use xlink:href="#DejaVuSans-30" x="190.869141"/>
      </g>
     </g>
    </g>
    <g id="ytick_5">
     <g id="line2d_11">
      <g>
       <use xlink:href="#me7a99a7d8f" x="57.26" y="56.532841" style="stroke: #000000; stroke-width: 0.8"/>
      </g>
     </g>
     <g id="text_12">
      <!-- 2000 -->
      <g transform="translate(24.81 60.332059) scale(0.1 -0.1)">
       <use xlink:href="#DejaVuSans-32"/>
       <use xlink:href="#DejaVuSans-30" x="63.623047"/>
       <use xlink:href="#DejaVuSans-30" x="127.246094"/>
       <use xlink:href="#DejaVuSans-30" x="190.869141"/>
      </g>
     </g>
    </g>
    <g id="text_13">
     <!-- Häufigkeit -->
     <g transform="translate(18.730313 186.216236) rotate(-90) scale(0.1 -0.1)">
      <defs>
       <path id="DejaVuSans-48" d="M 628 4666 
L 1259 4666 
L 1259 2753 
L 3553 2753 
L 3553 4666 
L 4184 4666 
L 4184 0 
L 3553 0 
L 3553 2222 
L 1259 2222 
L 1259 0 
L 628 0 
L 628 4666 
z
" transform="scale(0.015625)"/>
       <path id="DejaVuSans-e4" d="M 2194 1759 
Q 1497 1759 1228 1600 
Q 959 1441 959 1056 
Q 959 750 1161 570 
Q 1363 391 1709 391 
Q 2188 391 2477 730 
Q 2766 1069 2766 1631 
L 2766 1759 
L 2194 1759 
z
M 3341 1997 
L 3341 0 
L 2766 0 
L 2766 531 
Q 2569 213 2275 61 
Q 1981 -91 1556 -91 
Q 1019 -91 701 211 
Q 384 513 384 1019 
Q 384 1609 779 1909 
Q 1175 2209 1959 2209 
L 2766 2209 
L 2766 2266 
Q 2766 2663 2505 2880 
Q 2244 3097 1772 3097 
Q 1472 3097 1187 3025 
Q 903 2953 641 2809 
L 641 3341 
Q 956 3463 1253 3523 
Q 1550 3584 1831 3584 
Q 2591 3584 2966 3190 
Q 3341 2797 3341 1997 
z
M 2150 4850 
L 2784 4850 
L 2784 4219 
L 2150 4219 
L 2150 4850 
z
M 928 4850 
L 1563 4850 
L 1563 4219 
L 928 4219 
L 928 4850 
z
" transform="scale(0.015625)"/>
       <path id="DejaVuSans-75" d="M 544 1381 
L 544 3500 
L 1119 3500 
L 1119 1403 
Q 1119 906 1312 657 
Q 1506 409 1894 409 
Q 2359 409 2629 706 
Q 2900 1003 2900 1516 
L 2900 3500 
L 3475 3500 
L 3475 0 
L 2900 0 
L 2900 538 
Q 2691 219 2414 64 
Q 2138 -91 1772 -91 
Q 1169 -91 856 284 
Q 544 659 544 1381 
z
M 1991 3584 
L 1991 3584 
z
" transform="scale(0.015625)"/>
       <path id="DejaVuSans-66" d="M 2375 4863 
L 2375 4384 
L 1825 4384 
Q 1516 4384 1395 4259 
Q 1275 4134 1275 3809 
L 1275 3500 
L 2222 3500 
L 2222 3053 
L 1275 3053 
L 1275 0 
L 697 0 
L 697 3053 
L 147 3053 
L 147 3500 
L 697 3500 
L 697 3744 
Q 697 4328 969 4595 
Q 1241 4863 1831 4863 
L 2375 4863 
z
" transform="scale(0.015625)"/>
       <path id="DejaVuSans-69" d="M 603 3500 
L 1178 3500 
L 1178 0 
L 603 0 
L 603 3500 
z
M 603 4863 
L 1178 4863 
L 1178 4134 
L 603 4134 
L 603 4863 
z
" transform="scale(0.015625)"/>
       <path id="DejaVuSans-67" d="M 2906 1791 
Q 2906 2416 2648 2759 
Q 2391 3103 1925 3103 
Q 1463 3103 1205 2759 
Q 947 2416 947 1791 
Q 947 1169 1205 825 
Q 1463 481 1925 481 
Q 2391 481 2648 825 
Q 2906 1169 2906 1791 
z
M 3481 434 
Q 3481 -459 3084 -895 
Q 2688 -1331 1869 -1331 
Q 1566 -1331 1297 -1286 
Q 1028 -1241 775 -1147 
L 775 -588 
Q 1028 -725 1275 -790 
Q 1522 -856 1778 -856 
Q 2344 -856 2625 -561 
Q 2906 -266 2906 331 
L 2906 616 
Q 2728 306 2450 153 
Q 2172 0 1784 0 
Q 1141 0 747 490 
Q 353 981 353 1791 
Q 353 2603 747 3093 
Q 1141 3584 1784 3584 
Q 2172 3584 2450 3431 
Q 2728 3278 2906 2969 
L 2906 3500 
L 3481 3500 
L 3481 434 
z
" transform="scale(0.015625)"/>
       <path id="DejaVuSans-6b" d="M 581 4863 
L 1159 4863 
L 1159 1991 
L 2875 3500 
L 3609 3500 
L 1753 1863 
L 3688 0 
L 2938 0 
L 1159 1709 
L 1159 0 
L 581 0 
L 581 4863 
z
" transform="scale(0.015625)"/>
      </defs>
      <use xlink:href="#DejaVuSans-48"/>
      <use xlink:href="#DejaVuSans-e4" x="75.195312"/>
      <use xlink:href="#DejaVuSans-75" x="136.474609"/>
      <use xlink:href="#DejaVuSans-66" x="199.853516"/>
      <use xlink:href="#DejaVuSans-69" x="235.058594"/>
      <use xlink:href="#DejaVuSans-67" x="262.841797"/>
      <use xlink:href="#DejaVuSans-6b" x="326.318359"/>
      <use xlink:href="#DejaVuSans-65" x="380.603516"/>
      <use xlink:href="#DejaVuSans-69" x="442.126953"/>
      <use xlink:href="#DejaVuSans-74" x="469.910156"/>
     </g>
    </g>
   </g>
   <g id="patch_141">
    <path d="M 57.26 295.359972 
L 57.26 26.16 
" style="fill: none; stroke: #000000; stroke-width: 0.8; stroke-linejoin: miter; stroke-linecap: square"/>
   </g>
   <g id="patch_142">
    <path d="M 450 295.359972 
L 450 26.16 
" style="fill: none; stroke: #000000; stroke-width: 0.8; stroke-linejoin: miter; stroke-linecap: square"/>
   </g>
   <g id="patch_143">
    <path d="M 57.26 295.359972 
L 450 295.359972 
" style="fill: none; stroke: #000000; stroke-width: 0.8; stroke-linejoin: miter; stroke-linecap: square"/>
   </g>
   <g id="patch_144">
    <path d="M 57.26 26.16 
L 450 26.16 
" style="fill: none; stroke: #000000; stroke-width: 0.8; stroke-linejoin: miter; stroke-linecap: square"/>
   </g>
   <g id="text_14">
    <!-- realSum_Normalized -->
    <g transform="translate(191.780313 20.16) scale(0.12 -0.12)">
     <defs>
      <path id="DejaVuSans-61" d="M 2194 1759 
Q 1497 1759 1228 1600 
Q 959 1441 959 1056 
Q 959 750 1161 570 
Q 1363 391 1709 391 
Q 2188 391 2477 730 
Q 2766 1069 2766 1631 
L 2766 1759 
L 2194 1759 
z
M 3341 1997 
L 3341 0 
L 2766 0 
L 2766 531 
Q 2569 213 2275 61 
Q 1981 -91 1556 -91 
Q 1019 -91 701 211 
Q 384 513 384 1019 
Q 384 1609 779 1909 
Q 1175 2209 1959 2209 
L 2766 2209 
L 2766 2266 
Q 2766 2663 2505 2880 
Q 2244 3097 1772 3097 
Q 1472 3097 1187 3025 
Q 903 2953 641 2809 
L 641 3341 
Q 956 3463 1253 3523 
Q 1550 3584 1831 3584 
Q 2591 3584 2966 3190 
Q 3341 2797 3341 1997 
z
" transform="scale(0.015625)"/>
      <path id="DejaVuSans-6c" d="M 603 4863 
L 1178 4863 
L 1178 0 
L 603 0 
L 603 4863 
z
" transform="scale(0.015625)"/>
      <path id="DejaVuSans-53" d="M 3425 4513 
L 3425 3897 
Q 3066 4069 2747 4153 
Q 2428 4238 2131 4238 
Q 1616 4238 1336 4038 
Q 1056 3838 1056 3469 
Q 1056 3159 1242 3001 
Q 1428 2844 1947 2747 
L 2328 2669 
Q 3034 2534 3370 2195 
Q 3706 1856 3706 1288 
Q 3706 609 3251 259 
Q 2797 -91 1919 -91 
Q 1588 -91 1214 -16 
Q 841 59 441 206 
L 441 856 
Q 825 641 1194 531 
Q 1563 422 1919 422 
Q 2459 422 2753 634 
Q 3047 847 3047 1241 
Q 3047 1584 2836 1778 
Q 2625 1972 2144 2069 
L 1759 2144 
Q 1053 2284 737 2584 
Q 422 2884 422 3419 
Q 422 4038 858 4394 
Q 1294 4750 2059 4750 
Q 2388 4750 2728 4690 
Q 3069 4631 3425 4513 
z
" transform="scale(0.015625)"/>
      <path id="DejaVuSans-6d" d="M 3328 2828 
Q 3544 3216 3844 3400 
Q 4144 3584 4550 3584 
Q 5097 3584 5394 3201 
Q 5691 2819 5691 2113 
L 5691 0 
L 5113 0 
L 5113 2094 
Q 5113 2597 4934 2840 
Q 4756 3084 4391 3084 
Q 3944 3084 3684 2787 
Q 3425 2491 3425 1978 
L 3425 0 
L 2847 0 
L 2847 2094 
Q 2847 2600 2669 2842 
Q 2491 3084 2119 3084 
Q 1678 3084 1418 2786 
Q 1159 2488 1159 1978 
L 1159 0 
L 581 0 
L 581 3500 
L 1159 3500 
L 1159 2956 
Q 1356 3278 1631 3431 
Q 1906 3584 2284 3584 
Q 2666 3584 2933 3390 
Q 3200 3197 3328 2828 
z
" transform="scale(0.015625)"/>
      <path id="DejaVuSans-5f" d="M 3263 -1063 
L 3263 -1509 
L -63 -1509 
L -63 -1063 
L 3263 -1063 
z
" transform="scale(0.015625)"/>
      <path id="DejaVuSans-4e" d="M 628 4666 
L 1478 4666 
L 3547 763 
L 3547 4666 
L 4159 4666 
L 4159 0 
L 3309 0 
L 1241 3903 
L 1241 0 
L 628 0 
L 628 4666 
z
" transform="scale(0.015625)"/>
      <path id="DejaVuSans-6f" d="M 1959 3097 
Q 1497 3097 1228 2736 
Q 959 2375 959 1747 
Q 959 1119 1226 758 
Q 1494 397 1959 397 
Q 2419 397 2687 759 
Q 2956 1122 2956 1747 
Q 2956 2369 2687 2733 
Q 2419 3097 1959 3097 
z
M 1959 3584 
Q 2709 3584 3137 3096 
Q 3566 2609 3566 1747 
Q 3566 888 3137 398 
Q 2709 -91 1959 -91 
Q 1206 -91 779 398 
Q 353 888 353 1747 
Q 353 2609 779 3096 
Q 1206 3584 1959 3584 
z
" transform="scale(0.015625)"/>
      <path id="DejaVuSans-7a" d="M 353 3500 
L 3084 3500 
L 3084 2975 
L 922 459 
L 3084 459 
L 3084 0 
L 275 0 
L 275 525 
L 2438 3041 
L 353 3041 
L 353 3500 
z
" transform="scale(0.015625)"/>
      <path id="DejaVuSans-64" d="M 2906 2969 
L 2906 4863 
L 3481 4863 
L 3481 0 
L 2906 0 
L 2906 525 
Q 2725 213 2448 61 
Q 2172 -91 1784 -91 
Q 1150 -91 751 415 
Q 353 922 353 1747 
Q 353 2572 751 3078 
Q 1150 3584 1784 3584 
Q 2172 3584 2448 3432 
Q 2725 3281 2906 2969 
z
M 947 1747 
Q 947 1113 1208 752 
Q 1469 391 1925 391 
Q 2381 391 2643 752 
Q 2906 1113 2906 1747 
Q 2906 2381 2643 2742 
Q 2381 3103 1925 3103 
Q 1469 3103 1208 2742 
Q 947 2381 947 1747 
z
" transform="scale(0.015625)"/>
     </defs>
     <use xlink:href="#DejaVuSans-72"/>
     <use xlink:href="#DejaVuSans-65" x="38.863281"/>
     <use xlink:href="#DejaVuSans-61" x="100.386719"/>
     <use xlink:href="#DejaVuSans-6c" x="161.666016"/>
     <use xlink:href="#DejaVuSans-53" x="189.449219"/>
     <use xlink:href="#DejaVuSans-75" x="252.925781"/>
     <use xlink:href="#DejaVuSans-6d" x="316.304688"/>
     <use xlink:href="#DejaVuSans-5f" x="413.716797"/>
     <use xlink:href="#DejaVuSans-4e" x="463.716797"/>
     <use xlink:href="#DejaVuSans-6f" x="538.521484"/>
     <use xlink:href="#DejaVuSans-72" x="599.703125"/>
     <use xlink:href="#DejaVuSans-6d" x="639.066406"/>
     <use xlink:href="#DejaVuSans-61" x="736.478516"/>
     <use xlink:href="#DejaVuSans-6c" x="797.757812"/>
     <use xlink:href="#DejaVuSans-69" x="825.541016"/>
     <use xlink:href="#DejaVuSans-7a" x="853.324219"/>
     <use xlink:href="#DejaVuSans-65" x="905.814453"/>
     <use xlink:href="#DejaVuSans-64" x="967.337891"/>
    </g>
   </g>
  </g>
 </g>
 <defs>
  <clipPath id="p591b1692d6">
   <rect x="57.26" y="26.16" width="392.74" height="269.199972"/>
  </clipPath>
 </defs>
</svg>
