<?xml version="1.0" encoding="utf-8" standalone="no"?>
<!DOCTYPE svg PUBLIC "-//W3C//DTD SVG 1.1//EN"
  "http://www.w3.org/Graphics/SVG/1.1/DTD/svg11.dtd">
<svg xmlns:xlink="http://www.w3.org/1999/xlink" width="460.8pt" height="345.6pt" viewBox="0 0 460.8 345.6" xmlns="http://www.w3.org/2000/svg" version="1.1">
 <metadata>
  <rdf:RDF xmlns:dc="http://purl.org/dc/elements/1.1/" xmlns:cc="http://creativecommons.org/ns#" xmlns:rdf="http://www.w3.org/1999/02/22-rdf-syntax-ns#">
   <cc:Work>
    <dc:type rdf:resource="http://purl.org/dc/dcmitype/StillImage"/>
    <dc:date>2024-01-20T11:53:56.084428</dc:date>
    <dc:format>image/svg+xml</dc:format>
    <dc:creator>
     <cc:Agent>
      <dc:title>Matplotlib v3.8.0, https://matplotlib.org/</dc:title>
     </cc:Agent>
    </dc:creator>
   </cc:Work>
  </rdf:RDF>
 </metadata>
 <defs>
  <style type="text/css">*{stroke-linejoin: round; stroke-linecap: butt}</style>
 </defs>
 <g id="figure_1">
  <g id="patch_1">
   <path d="M 0 345.6 
L 460.8 345.6 
L 460.8 0 
L 0 0 
z
" style="fill: #ffffff"/>
  </g>
  <g id="axes_1">
   <g id="patch_2">
    <path d="M 57.26 288.645994 
L 450 288.645994 
L 450 26.16 
L 57.26 26.16 
z
" style="fill: #ffffff"/>
   </g>
   <g id="patch_3">
    <path d="M 75.111818 288.645994 
L 77.699038 288.645994 
L 77.699038 287.598076 
L 75.111818 287.598076 
z
" clip-path="url(#pb267c85b93)" style="fill: #1f77b4; opacity: 0.5"/>
   </g>
   <g id="patch_4">
    <path d="M 77.699038 288.645994 
L 80.286258 288.645994 
L 80.286258 282.358486 
L 77.699038 282.358486 
z
" clip-path="url(#pb267c85b93)" style="fill: #1f77b4; opacity: 0.5"/>
   </g>
   <g id="patch_5">
    <path d="M 80.286258 288.645994 
L 82.873478 288.645994 
L 82.873478 274.440883 
L 80.286258 274.440883 
z
" clip-path="url(#pb267c85b93)" style="fill: #1f77b4; opacity: 0.5"/>
   </g>
   <g id="patch_6">
    <path d="M 82.873478 288.645994 
L 85.460698 288.645994 
L 85.460698 253.366088 
L 82.873478 253.366088 
z
" clip-path="url(#pb267c85b93)" style="fill: #1f77b4; opacity: 0.5"/>
   </g>
   <g id="patch_7">
    <path d="M 85.460698 288.645994 
L 88.047918 288.645994 
L 88.047918 242.421166 
L 85.460698 242.421166 
z
" clip-path="url(#pb267c85b93)" style="fill: #1f77b4; opacity: 0.5"/>
   </g>
   <g id="patch_8">
    <path d="M 88.047918 288.645994 
L 90.635138 288.645994 
L 90.635138 194.799115 
L 88.047918 194.799115 
z
" clip-path="url(#pb267c85b93)" style="fill: #1f77b4; opacity: 0.5"/>
   </g>
   <g id="patch_9">
    <path d="M 90.635138 288.645994 
L 93.222358 288.645994 
L 93.222358 171.279178 
L 90.635138 171.279178 
z
" clip-path="url(#pb267c85b93)" style="fill: #1f77b4; opacity: 0.5"/>
   </g>
   <g id="patch_10">
    <path d="M 93.222358 288.645994 
L 95.809578 288.645994 
L 95.809578 118.999713 
L 93.222358 118.999713 
z
" clip-path="url(#pb267c85b93)" style="fill: #1f77b4; opacity: 0.5"/>
   </g>
   <g id="patch_11">
    <path d="M 95.809578 288.645994 
L 98.396798 288.645994 
L 98.396798 142.053909 
L 95.809578 142.053909 
z
" clip-path="url(#pb267c85b93)" style="fill: #1f77b4; opacity: 0.5"/>
   </g>
   <g id="patch_12">
    <path d="M 98.396798 288.645994 
L 100.984018 288.645994 
L 100.984018 81.15823 
L 98.396798 81.15823 
z
" clip-path="url(#pb267c85b93)" style="fill: #1f77b4; opacity: 0.5"/>
   </g>
   <g id="patch_13">
    <path d="M 100.984018 288.645994 
L 103.571238 288.645994 
L 103.571238 51.932961 
L 100.984018 51.932961 
z
" clip-path="url(#pb267c85b93)" style="fill: #1f77b4; opacity: 0.5"/>
   </g>
   <g id="patch_14">
    <path d="M 103.571238 288.645994 
L 106.158458 288.645994 
L 106.158458 38.659333 
L 103.571238 38.659333 
z
" clip-path="url(#pb267c85b93)" style="fill: #1f77b4; opacity: 0.5"/>
   </g>
   <g id="patch_15">
    <path d="M 106.158458 288.645994 
L 108.745679 288.645994 
L 108.745679 68.816084 
L 106.158458 68.816084 
z
" clip-path="url(#pb267c85b93)" style="fill: #1f77b4; opacity: 0.5"/>
   </g>
   <g id="patch_16">
    <path d="M 108.745679 288.645994 
L 111.332899 288.645994 
L 111.332899 63.69293 
L 108.745679 63.69293 
z
" clip-path="url(#pb267c85b93)" style="fill: #1f77b4; opacity: 0.5"/>
   </g>
   <g id="patch_17">
    <path d="M 111.332899 288.645994 
L 113.920119 288.645994 
L 113.920119 45.878324 
L 111.332899 45.878324 
z
" clip-path="url(#pb267c85b93)" style="fill: #1f77b4; opacity: 0.5"/>
   </g>
   <g id="patch_18">
    <path d="M 113.920119 288.645994 
L 116.507339 288.645994 
L 116.507339 73.357062 
L 113.920119 73.357062 
z
" clip-path="url(#pb267c85b93)" style="fill: #1f77b4; opacity: 0.5"/>
   </g>
   <g id="patch_19">
    <path d="M 116.507339 288.645994 
L 119.094559 288.645994 
L 119.094559 51.70009 
L 116.507339 51.70009 
z
" clip-path="url(#pb267c85b93)" style="fill: #1f77b4; opacity: 0.5"/>
   </g>
   <g id="patch_20">
    <path d="M 119.094559 288.645994 
L 121.681779 288.645994 
L 121.681779 119.698325 
L 119.094559 119.698325 
z
" clip-path="url(#pb267c85b93)" style="fill: #1f77b4; opacity: 0.5"/>
   </g>
   <g id="patch_21">
    <path d="M 121.681779 288.645994 
L 124.268999 288.645994 
L 124.268999 100.37006 
L 121.681779 100.37006 
z
" clip-path="url(#pb267c85b93)" style="fill: #1f77b4; opacity: 0.5"/>
   </g>
   <g id="patch_22">
    <path d="M 124.268999 288.645994 
L 126.856219 288.645994 
L 126.856219 100.37006 
L 124.268999 100.37006 
z
" clip-path="url(#pb267c85b93)" style="fill: #1f77b4; opacity: 0.5"/>
   </g>
   <g id="patch_23">
    <path d="M 126.856219 288.645994 
L 129.443439 288.645994 
L 129.443439 117.369618 
L 126.856219 117.369618 
z
" clip-path="url(#pb267c85b93)" style="fill: #1f77b4; opacity: 0.5"/>
   </g>
   <g id="patch_24">
    <path d="M 129.443439 288.645994 
L 132.030659 288.645994 
L 132.030659 147.293499 
L 129.443439 147.293499 
z
" clip-path="url(#pb267c85b93)" style="fill: #1f77b4; opacity: 0.5"/>
   </g>
   <g id="patch_25">
    <path d="M 132.030659 288.645994 
L 134.617879 288.645994 
L 134.617879 129.129587 
L 132.030659 129.129587 
z
" clip-path="url(#pb267c85b93)" style="fill: #1f77b4; opacity: 0.5"/>
   </g>
   <g id="patch_26">
    <path d="M 134.617879 288.645994 
L 137.205099 288.645994 
L 137.205099 139.143026 
L 134.617879 139.143026 
z
" clip-path="url(#pb267c85b93)" style="fill: #1f77b4; opacity: 0.5"/>
   </g>
   <g id="patch_27">
    <path d="M 137.205099 288.645994 
L 139.792319 288.645994 
L 139.792319 160.799998 
L 137.205099 160.799998 
z
" clip-path="url(#pb267c85b93)" style="fill: #1f77b4; opacity: 0.5"/>
   </g>
   <g id="patch_28">
    <path d="M 139.792319 288.645994 
L 142.379539 288.645994 
L 142.379539 166.505329 
L 139.792319 166.505329 
z
" clip-path="url(#pb267c85b93)" style="fill: #1f77b4; opacity: 0.5"/>
   </g>
   <g id="patch_29">
    <path d="M 142.379539 288.645994 
L 144.966759 288.645994 
L 144.966759 178.498168 
L 142.379539 178.498168 
z
" clip-path="url(#pb267c85b93)" style="fill: #1f77b4; opacity: 0.5"/>
   </g>
   <g id="patch_30">
    <path d="M 144.966759 288.645994 
L 147.553979 288.645994 
L 147.553979 178.265298 
L 144.966759 178.265298 
z
" clip-path="url(#pb267c85b93)" style="fill: #1f77b4; opacity: 0.5"/>
   </g>
   <g id="patch_31">
    <path d="M 147.553979 288.645994 
L 150.141199 288.645994 
L 150.141199 181.525487 
L 147.553979 181.525487 
z
" clip-path="url(#pb267c85b93)" style="fill: #1f77b4; opacity: 0.5"/>
   </g>
   <g id="patch_32">
    <path d="M 150.141199 288.645994 
L 152.728419 288.645994 
L 152.728419 186.765077 
L 150.141199 186.765077 
z
" clip-path="url(#pb267c85b93)" style="fill: #1f77b4; opacity: 0.5"/>
   </g>
   <g id="patch_33">
    <path d="M 152.728419 288.645994 
L 155.315639 288.645994 
L 155.315639 217.154699 
L 152.728419 217.154699 
z
" clip-path="url(#pb267c85b93)" style="fill: #1f77b4; opacity: 0.5"/>
   </g>
   <g id="patch_34">
    <path d="M 155.315639 288.645994 
L 157.902859 288.645994 
L 157.902859 214.360251 
L 155.315639 214.360251 
z
" clip-path="url(#pb267c85b93)" style="fill: #1f77b4; opacity: 0.5"/>
   </g>
   <g id="patch_35">
    <path d="M 157.902859 288.645994 
L 160.490079 288.645994 
L 160.490079 217.271134 
L 157.902859 217.271134 
z
" clip-path="url(#pb267c85b93)" style="fill: #1f77b4; opacity: 0.5"/>
   </g>
   <g id="patch_36">
    <path d="M 160.490079 288.645994 
L 163.077299 288.645994 
L 163.077299 213.778074 
L 160.490079 213.778074 
z
" clip-path="url(#pb267c85b93)" style="fill: #1f77b4; opacity: 0.5"/>
   </g>
   <g id="patch_37">
    <path d="M 163.077299 288.645994 
L 165.664519 288.645994 
L 165.664519 232.757034 
L 163.077299 232.757034 
z
" clip-path="url(#pb267c85b93)" style="fill: #1f77b4; opacity: 0.5"/>
   </g>
   <g id="patch_38">
    <path d="M 165.664519 288.645994 
L 168.251739 288.645994 
L 168.251739 229.84615 
L 165.664519 229.84615 
z
" clip-path="url(#pb267c85b93)" style="fill: #1f77b4; opacity: 0.5"/>
   </g>
   <g id="patch_39">
    <path d="M 168.251739 288.645994 
L 170.838959 288.645994 
L 170.838959 226.236655 
L 168.251739 226.236655 
z
" clip-path="url(#pb267c85b93)" style="fill: #1f77b4; opacity: 0.5"/>
   </g>
   <g id="patch_40">
    <path d="M 170.838959 288.645994 
L 173.426179 288.645994 
L 173.426179 238.113059 
L 170.838959 238.113059 
z
" clip-path="url(#pb267c85b93)" style="fill: #1f77b4; opacity: 0.5"/>
   </g>
   <g id="patch_41">
    <path d="M 173.426179 288.645994 
L 176.013399 288.645994 
L 176.013399 239.510283 
L 173.426179 239.510283 
z
" clip-path="url(#pb267c85b93)" style="fill: #1f77b4; opacity: 0.5"/>
   </g>
   <g id="patch_42">
    <path d="M 176.013399 288.645994 
L 178.600619 288.645994 
L 178.600619 237.996624 
L 176.013399 237.996624 
z
" clip-path="url(#pb267c85b93)" style="fill: #1f77b4; opacity: 0.5"/>
   </g>
   <g id="patch_43">
    <path d="M 178.600619 288.645994 
L 181.187839 288.645994 
L 181.187839 243.934826 
L 178.600619 243.934826 
z
" clip-path="url(#pb267c85b93)" style="fill: #1f77b4; opacity: 0.5"/>
   </g>
   <g id="patch_44">
    <path d="M 181.187839 288.645994 
L 183.775059 288.645994 
L 183.775059 244.982744 
L 181.187839 244.982744 
z
" clip-path="url(#pb267c85b93)" style="fill: #1f77b4; opacity: 0.5"/>
   </g>
   <g id="patch_45">
    <path d="M 183.775059 288.645994 
L 186.362279 288.645994 
L 186.362279 249.407286 
L 183.775059 249.407286 
z
" clip-path="url(#pb267c85b93)" style="fill: #1f77b4; opacity: 0.5"/>
   </g>
   <g id="patch_46">
    <path d="M 186.362279 288.645994 
L 188.949499 288.645994 
L 188.949499 260.352208 
L 186.362279 260.352208 
z
" clip-path="url(#pb267c85b93)" style="fill: #1f77b4; opacity: 0.5"/>
   </g>
   <g id="patch_47">
    <path d="M 188.949499 288.645994 
L 191.536719 288.645994 
L 191.536719 254.996182 
L 188.949499 254.996182 
z
" clip-path="url(#pb267c85b93)" style="fill: #1f77b4; opacity: 0.5"/>
   </g>
   <g id="patch_48">
    <path d="M 191.536719 288.645994 
L 194.123939 288.645994 
L 194.123939 251.153816 
L 191.536719 251.153816 
z
" clip-path="url(#pb267c85b93)" style="fill: #1f77b4; opacity: 0.5"/>
   </g>
   <g id="patch_49">
    <path d="M 194.123939 288.645994 
L 196.711159 288.645994 
L 196.711159 254.414006 
L 194.123939 254.414006 
z
" clip-path="url(#pb267c85b93)" style="fill: #1f77b4; opacity: 0.5"/>
   </g>
   <g id="patch_50">
    <path d="M 196.711159 288.645994 
L 199.298379 288.645994 
L 199.298379 262.913785 
L 196.711159 262.913785 
z
" clip-path="url(#pb267c85b93)" style="fill: #1f77b4; opacity: 0.5"/>
   </g>
   <g id="patch_51">
    <path d="M 199.298379 288.645994 
L 201.885599 288.645994 
L 201.885599 255.694794 
L 199.298379 255.694794 
z
" clip-path="url(#pb267c85b93)" style="fill: #1f77b4; opacity: 0.5"/>
   </g>
   <g id="patch_52">
    <path d="M 201.885599 288.645994 
L 204.472819 288.645994 
L 204.472819 258.256372 
L 201.885599 258.256372 
z
" clip-path="url(#pb267c85b93)" style="fill: #1f77b4; opacity: 0.5"/>
   </g>
   <g id="patch_53">
    <path d="M 204.472819 288.645994 
L 207.06004 288.645994 
L 207.06004 268.26981 
L 204.472819 268.26981 
z
" clip-path="url(#pb267c85b93)" style="fill: #1f77b4; opacity: 0.5"/>
   </g>
   <g id="patch_54">
    <path d="M 207.06004 288.645994 
L 209.64726 288.645994 
L 209.64726 261.05082 
L 207.06004 261.05082 
z
" clip-path="url(#pb267c85b93)" style="fill: #1f77b4; opacity: 0.5"/>
   </g>
   <g id="patch_55">
    <path d="M 209.64726 288.645994 
L 212.23448 288.645994 
L 212.23448 261.400126 
L 209.64726 261.400126 
z
" clip-path="url(#pb267c85b93)" style="fill: #1f77b4; opacity: 0.5"/>
   </g>
   <g id="patch_56">
    <path d="M 212.23448 288.645994 
L 214.8217 288.645994 
L 214.8217 263.845268 
L 212.23448 263.845268 
z
" clip-path="url(#pb267c85b93)" style="fill: #1f77b4; opacity: 0.5"/>
   </g>
   <g id="patch_57">
    <path d="M 214.8217 288.645994 
L 217.40892 288.645994 
L 217.40892 267.687634 
L 214.8217 267.687634 
z
" clip-path="url(#pb267c85b93)" style="fill: #1f77b4; opacity: 0.5"/>
   </g>
   <g id="patch_58">
    <path d="M 217.40892 288.645994 
L 219.99614 288.645994 
L 219.99614 264.311009 
L 217.40892 264.311009 
z
" clip-path="url(#pb267c85b93)" style="fill: #1f77b4; opacity: 0.5"/>
   </g>
   <g id="patch_59">
    <path d="M 219.99614 288.645994 
L 222.58336 288.645994 
L 222.58336 269.667034 
L 219.99614 269.667034 
z
" clip-path="url(#pb267c85b93)" style="fill: #1f77b4; opacity: 0.5"/>
   </g>
   <g id="patch_60">
    <path d="M 222.58336 288.645994 
L 225.17058 288.645994 
L 225.17058 272.461482 
L 222.58336 272.461482 
z
" clip-path="url(#pb267c85b93)" style="fill: #1f77b4; opacity: 0.5"/>
   </g>
   <g id="patch_61">
    <path d="M 225.17058 288.645994 
L 227.7578 288.645994 
L 227.7578 270.01634 
L 225.17058 270.01634 
z
" clip-path="url(#pb267c85b93)" style="fill: #1f77b4; opacity: 0.5"/>
   </g>
   <g id="patch_62">
    <path d="M 227.7578 288.645994 
L 230.34502 288.645994 
L 230.34502 270.01634 
L 227.7578 270.01634 
z
" clip-path="url(#pb267c85b93)" style="fill: #1f77b4; opacity: 0.5"/>
   </g>
   <g id="patch_63">
    <path d="M 230.34502 288.645994 
L 232.93224 288.645994 
L 232.93224 273.742271 
L 230.34502 273.742271 
z
" clip-path="url(#pb267c85b93)" style="fill: #1f77b4; opacity: 0.5"/>
   </g>
   <g id="patch_64">
    <path d="M 232.93224 288.645994 
L 235.51946 288.645994 
L 235.51946 271.297129 
L 232.93224 271.297129 
z
" clip-path="url(#pb267c85b93)" style="fill: #1f77b4; opacity: 0.5"/>
   </g>
   <g id="patch_65">
    <path d="M 235.51946 288.645994 
L 238.10668 288.645994 
L 238.10668 277.701072 
L 235.51946 277.701072 
z
" clip-path="url(#pb267c85b93)" style="fill: #1f77b4; opacity: 0.5"/>
   </g>
   <g id="patch_66">
    <path d="M 238.10668 288.645994 
L 240.6939 288.645994 
L 240.6939 274.906624 
L 238.10668 274.906624 
z
" clip-path="url(#pb267c85b93)" style="fill: #1f77b4; opacity: 0.5"/>
   </g>
   <g id="patch_67">
    <path d="M 240.6939 288.645994 
L 243.28112 288.645994 
L 243.28112 276.536719 
L 240.6939 276.536719 
z
" clip-path="url(#pb267c85b93)" style="fill: #1f77b4; opacity: 0.5"/>
   </g>
   <g id="patch_68">
    <path d="M 243.28112 288.645994 
L 245.86834 288.645994 
L 245.86834 272.810788 
L 243.28112 272.810788 
z
" clip-path="url(#pb267c85b93)" style="fill: #1f77b4; opacity: 0.5"/>
   </g>
   <g id="patch_69">
    <path d="M 245.86834 288.645994 
L 248.45556 288.645994 
L 248.45556 278.166814 
L 245.86834 278.166814 
z
" clip-path="url(#pb267c85b93)" style="fill: #1f77b4; opacity: 0.5"/>
   </g>
   <g id="patch_70">
    <path d="M 248.45556 288.645994 
L 251.04278 288.645994 
L 251.04278 276.886025 
L 248.45556 276.886025 
z
" clip-path="url(#pb267c85b93)" style="fill: #1f77b4; opacity: 0.5"/>
   </g>
   <g id="patch_71">
    <path d="M 251.04278 288.645994 
L 253.63 288.645994 
L 253.63 276.303848 
L 251.04278 276.303848 
z
" clip-path="url(#pb267c85b93)" style="fill: #1f77b4; opacity: 0.5"/>
   </g>
   <g id="patch_72">
    <path d="M 253.63 288.645994 
L 256.21722 288.645994 
L 256.21722 278.74899 
L 253.63 278.74899 
z
" clip-path="url(#pb267c85b93)" style="fill: #1f77b4; opacity: 0.5"/>
   </g>
   <g id="patch_73">
    <path d="M 256.21722 288.645994 
L 258.80444 288.645994 
L 258.80444 278.632555 
L 256.21722 278.632555 
z
" clip-path="url(#pb267c85b93)" style="fill: #1f77b4; opacity: 0.5"/>
   </g>
   <g id="patch_74">
    <path d="M 258.80444 288.645994 
L 261.39166 288.645994 
L 261.39166 278.050378 
L 258.80444 278.050378 
z
" clip-path="url(#pb267c85b93)" style="fill: #1f77b4; opacity: 0.5"/>
   </g>
   <g id="patch_75">
    <path d="M 261.39166 288.645994 
L 263.97888 288.645994 
L 263.97888 278.981861 
L 261.39166 278.981861 
z
" clip-path="url(#pb267c85b93)" style="fill: #1f77b4; opacity: 0.5"/>
   </g>
   <g id="patch_76">
    <path d="M 263.97888 288.645994 
L 266.5661 288.645994 
L 266.5661 281.776309 
L 263.97888 281.776309 
z
" clip-path="url(#pb267c85b93)" style="fill: #1f77b4; opacity: 0.5"/>
   </g>
   <g id="patch_77">
    <path d="M 266.5661 288.645994 
L 269.15332 288.645994 
L 269.15332 274.906624 
L 266.5661 274.906624 
z
" clip-path="url(#pb267c85b93)" style="fill: #1f77b4; opacity: 0.5"/>
   </g>
   <g id="patch_78">
    <path d="M 269.15332 288.645994 
L 271.74054 288.645994 
L 271.74054 281.077697 
L 269.15332 281.077697 
z
" clip-path="url(#pb267c85b93)" style="fill: #1f77b4; opacity: 0.5"/>
   </g>
   <g id="patch_79">
    <path d="M 271.74054 288.645994 
L 274.32776 288.645994 
L 274.32776 279.796908 
L 271.74054 279.796908 
z
" clip-path="url(#pb267c85b93)" style="fill: #1f77b4; opacity: 0.5"/>
   </g>
   <g id="patch_80">
    <path d="M 274.32776 288.645994 
L 276.91498 288.645994 
L 276.91498 281.659874 
L 274.32776 281.659874 
z
" clip-path="url(#pb267c85b93)" style="fill: #1f77b4; opacity: 0.5"/>
   </g>
   <g id="patch_81">
    <path d="M 276.91498 288.645994 
L 279.5022 288.645994 
L 279.5022 281.659874 
L 276.91498 281.659874 
z
" clip-path="url(#pb267c85b93)" style="fill: #1f77b4; opacity: 0.5"/>
   </g>
   <g id="patch_82">
    <path d="M 279.5022 288.645994 
L 282.08942 288.645994 
L 282.08942 281.194132 
L 279.5022 281.194132 
z
" clip-path="url(#pb267c85b93)" style="fill: #1f77b4; opacity: 0.5"/>
   </g>
   <g id="patch_83">
    <path d="M 282.08942 288.645994 
L 284.67664 288.645994 
L 284.67664 282.940662 
L 282.08942 282.940662 
z
" clip-path="url(#pb267c85b93)" style="fill: #1f77b4; opacity: 0.5"/>
   </g>
   <g id="patch_84">
    <path d="M 284.67664 288.645994 
L 287.26386 288.645994 
L 287.26386 282.358486 
L 284.67664 282.358486 
z
" clip-path="url(#pb267c85b93)" style="fill: #1f77b4; opacity: 0.5"/>
   </g>
   <g id="patch_85">
    <path d="M 287.26386 288.645994 
L 289.85108 288.645994 
L 289.85108 280.728391 
L 287.26386 280.728391 
z
" clip-path="url(#pb267c85b93)" style="fill: #1f77b4; opacity: 0.5"/>
   </g>
   <g id="patch_86">
    <path d="M 289.85108 288.645994 
L 292.4383 288.645994 
L 292.4383 281.543438 
L 289.85108 281.543438 
z
" clip-path="url(#pb267c85b93)" style="fill: #1f77b4; opacity: 0.5"/>
   </g>
   <g id="patch_87">
    <path d="M 292.4383 288.645994 
L 295.02552 288.645994 
L 295.02552 282.940662 
L 292.4383 282.940662 
z
" clip-path="url(#pb267c85b93)" style="fill: #1f77b4; opacity: 0.5"/>
   </g>
   <g id="patch_88">
    <path d="M 295.02552 288.645994 
L 297.61274 288.645994 
L 297.61274 279.214732 
L 295.02552 279.214732 
z
" clip-path="url(#pb267c85b93)" style="fill: #1f77b4; opacity: 0.5"/>
   </g>
   <g id="patch_89">
    <path d="M 297.61274 288.645994 
L 300.19996 288.645994 
L 300.19996 284.687192 
L 297.61274 284.687192 
z
" clip-path="url(#pb267c85b93)" style="fill: #1f77b4; opacity: 0.5"/>
   </g>
   <g id="patch_90">
    <path d="M 300.19996 288.645994 
L 302.787181 288.645994 
L 302.787181 283.75571 
L 300.19996 283.75571 
z
" clip-path="url(#pb267c85b93)" style="fill: #1f77b4; opacity: 0.5"/>
   </g>
   <g id="patch_91">
    <path d="M 302.787181 288.645994 
L 305.374401 288.645994 
L 305.374401 283.406404 
L 302.787181 283.406404 
z
" clip-path="url(#pb267c85b93)" style="fill: #1f77b4; opacity: 0.5"/>
   </g>
   <g id="patch_92">
    <path d="M 305.374401 288.645994 
L 307.961621 288.645994 
L 307.961621 285.269369 
L 305.374401 285.269369 
z
" clip-path="url(#pb267c85b93)" style="fill: #1f77b4; opacity: 0.5"/>
   </g>
   <g id="patch_93">
    <path d="M 307.961621 288.645994 
L 310.548841 288.645994 
L 310.548841 284.454322 
L 307.961621 284.454322 
z
" clip-path="url(#pb267c85b93)" style="fill: #1f77b4; opacity: 0.5"/>
   </g>
   <g id="patch_94">
    <path d="M 310.548841 288.645994 
L 313.136061 288.645994 
L 313.136061 285.152934 
L 310.548841 285.152934 
z
" clip-path="url(#pb267c85b93)" style="fill: #1f77b4; opacity: 0.5"/>
   </g>
   <g id="patch_95">
    <path d="M 313.136061 288.645994 
L 315.723281 288.645994 
L 315.723281 284.803628 
L 313.136061 284.803628 
z
" clip-path="url(#pb267c85b93)" style="fill: #1f77b4; opacity: 0.5"/>
   </g>
   <g id="patch_96">
    <path d="M 315.723281 288.645994 
L 318.310501 288.645994 
L 318.310501 284.454322 
L 315.723281 284.454322 
z
" clip-path="url(#pb267c85b93)" style="fill: #1f77b4; opacity: 0.5"/>
   </g>
   <g id="patch_97">
    <path d="M 318.310501 288.645994 
L 320.897721 288.645994 
L 320.897721 283.75571 
L 318.310501 283.75571 
z
" clip-path="url(#pb267c85b93)" style="fill: #1f77b4; opacity: 0.5"/>
   </g>
   <g id="patch_98">
    <path d="M 320.897721 288.645994 
L 323.484941 288.645994 
L 323.484941 284.920063 
L 320.897721 284.920063 
z
" clip-path="url(#pb267c85b93)" style="fill: #1f77b4; opacity: 0.5"/>
   </g>
   <g id="patch_99">
    <path d="M 323.484941 288.645994 
L 326.072161 288.645994 
L 326.072161 285.967981 
L 323.484941 285.967981 
z
" clip-path="url(#pb267c85b93)" style="fill: #1f77b4; opacity: 0.5"/>
   </g>
   <g id="patch_100">
    <path d="M 326.072161 288.645994 
L 328.659381 288.645994 
L 328.659381 283.98858 
L 326.072161 283.98858 
z
" clip-path="url(#pb267c85b93)" style="fill: #1f77b4; opacity: 0.5"/>
   </g>
   <g id="patch_101">
    <path d="M 328.659381 288.645994 
L 331.246601 288.645994 
L 331.246601 285.152934 
L 328.659381 285.152934 
z
" clip-path="url(#pb267c85b93)" style="fill: #1f77b4; opacity: 0.5"/>
   </g>
   <g id="patch_102">
    <path d="M 331.246601 288.645994 
L 333.833821 288.645994 
L 333.833821 284.920063 
L 331.246601 284.920063 
z
" clip-path="url(#pb267c85b93)" style="fill: #1f77b4; opacity: 0.5"/>
   </g>
   <g id="patch_103">
    <path d="M 333.833821 288.645994 
L 336.421041 288.645994 
L 336.421041 285.50224 
L 333.833821 285.50224 
z
" clip-path="url(#pb267c85b93)" style="fill: #1f77b4; opacity: 0.5"/>
   </g>
   <g id="patch_104">
    <path d="M 336.421041 288.645994 
L 339.008261 288.645994 
L 339.008261 284.920063 
L 336.421041 284.920063 
z
" clip-path="url(#pb267c85b93)" style="fill: #1f77b4; opacity: 0.5"/>
   </g>
   <g id="patch_105">
    <path d="M 339.008261 288.645994 
L 341.595481 288.645994 
L 341.595481 286.084416 
L 339.008261 286.084416 
z
" clip-path="url(#pb267c85b93)" style="fill: #1f77b4; opacity: 0.5"/>
   </g>
   <g id="patch_106">
    <path d="M 341.595481 288.645994 
L 344.182701 288.645994 
L 344.182701 284.570757 
L 341.595481 284.570757 
z
" clip-path="url(#pb267c85b93)" style="fill: #1f77b4; opacity: 0.5"/>
   </g>
   <g id="patch_107">
    <path d="M 344.182701 288.645994 
L 346.769921 288.645994 
L 346.769921 285.152934 
L 344.182701 285.152934 
z
" clip-path="url(#pb267c85b93)" style="fill: #1f77b4; opacity: 0.5"/>
   </g>
   <g id="patch_108">
    <path d="M 346.769921 288.645994 
L 349.357141 288.645994 
L 349.357141 286.084416 
L 346.769921 286.084416 
z
" clip-path="url(#pb267c85b93)" style="fill: #1f77b4; opacity: 0.5"/>
   </g>
   <g id="patch_109">
    <path d="M 349.357141 288.645994 
L 351.944361 288.645994 
L 351.944361 285.152934 
L 349.357141 285.152934 
z
" clip-path="url(#pb267c85b93)" style="fill: #1f77b4; opacity: 0.5"/>
   </g>
   <g id="patch_110">
    <path d="M 351.944361 288.645994 
L 354.531581 288.645994 
L 354.531581 286.200852 
L 351.944361 286.200852 
z
" clip-path="url(#pb267c85b93)" style="fill: #1f77b4; opacity: 0.5"/>
   </g>
   <g id="patch_111">
    <path d="M 354.531581 288.645994 
L 357.118801 288.645994 
L 357.118801 286.783028 
L 354.531581 286.783028 
z
" clip-path="url(#pb267c85b93)" style="fill: #1f77b4; opacity: 0.5"/>
   </g>
   <g id="patch_112">
    <path d="M 357.118801 288.645994 
L 359.706021 288.645994 
L 359.706021 286.084416 
L 357.118801 286.084416 
z
" clip-path="url(#pb267c85b93)" style="fill: #1f77b4; opacity: 0.5"/>
   </g>
   <g id="patch_113">
    <path d="M 359.706021 288.645994 
L 362.293241 288.645994 
L 362.293241 286.899464 
L 359.706021 286.899464 
z
" clip-path="url(#pb267c85b93)" style="fill: #1f77b4; opacity: 0.5"/>
   </g>
   <g id="patch_114">
    <path d="M 362.293241 288.645994 
L 364.880461 288.645994 
L 364.880461 287.24877 
L 362.293241 287.24877 
z
" clip-path="url(#pb267c85b93)" style="fill: #1f77b4; opacity: 0.5"/>
   </g>
   <g id="patch_115">
    <path d="M 364.880461 288.645994 
L 367.467681 288.645994 
L 367.467681 286.433722 
L 364.880461 286.433722 
z
" clip-path="url(#pb267c85b93)" style="fill: #1f77b4; opacity: 0.5"/>
   </g>
   <g id="patch_116">
    <path d="M 367.467681 288.645994 
L 370.054901 288.645994 
L 370.054901 284.570757 
L 367.467681 284.570757 
z
" clip-path="url(#pb267c85b93)" style="fill: #1f77b4; opacity: 0.5"/>
   </g>
   <g id="patch_117">
    <path d="M 370.054901 288.645994 
L 372.642121 288.645994 
L 372.642121 287.714511 
L 370.054901 287.714511 
z
" clip-path="url(#pb267c85b93)" style="fill: #1f77b4; opacity: 0.5"/>
   </g>
   <g id="patch_118">
    <path d="M 372.642121 288.645994 
L 375.229341 288.645994 
L 375.229341 286.783028 
L 372.642121 286.783028 
z
" clip-path="url(#pb267c85b93)" style="fill: #1f77b4; opacity: 0.5"/>
   </g>
   <g id="patch_119">
    <path d="M 375.229341 288.645994 
L 377.816561 288.645994 
L 377.816561 287.48164 
L 375.229341 287.48164 
z
" clip-path="url(#pb267c85b93)" style="fill: #1f77b4; opacity: 0.5"/>
   </g>
   <g id="patch_120">
    <path d="M 377.816561 288.645994 
L 380.403781 288.645994 
L 380.403781 287.830946 
L 377.816561 287.830946 
z
" clip-path="url(#pb267c85b93)" style="fill: #1f77b4; opacity: 0.5"/>
   </g>
   <g id="patch_121">
    <path d="M 380.403781 288.645994 
L 382.991001 288.645994 
L 382.991001 287.947382 
L 380.403781 287.947382 
z
" clip-path="url(#pb267c85b93)" style="fill: #1f77b4; opacity: 0.5"/>
   </g>
   <g id="patch_122">
    <path d="M 382.991001 288.645994 
L 385.578221 288.645994 
L 385.578221 287.24877 
L 382.991001 287.24877 
z
" clip-path="url(#pb267c85b93)" style="fill: #1f77b4; opacity: 0.5"/>
   </g>
   <g id="patch_123">
    <path d="M 385.578221 288.645994 
L 388.165441 288.645994 
L 388.165441 287.714511 
L 385.578221 287.714511 
z
" clip-path="url(#pb267c85b93)" style="fill: #1f77b4; opacity: 0.5"/>
   </g>
   <g id="patch_124">
    <path d="M 388.165441 288.645994 
L 390.752661 288.645994 
L 390.752661 286.550158 
L 388.165441 286.550158 
z
" clip-path="url(#pb267c85b93)" style="fill: #1f77b4; opacity: 0.5"/>
   </g>
   <g id="patch_125">
    <path d="M 390.752661 288.645994 
L 393.339881 288.645994 
L 393.339881 287.24877 
L 390.752661 287.24877 
z
" clip-path="url(#pb267c85b93)" style="fill: #1f77b4; opacity: 0.5"/>
   </g>
   <g id="patch_126">
    <path d="M 393.339881 288.645994 
L 395.927101 288.645994 
L 395.927101 287.48164 
L 393.339881 287.48164 
z
" clip-path="url(#pb267c85b93)" style="fill: #1f77b4; opacity: 0.5"/>
   </g>
   <g id="patch_127">
    <path d="M 395.927101 288.645994 
L 398.514321 288.645994 
L 398.514321 287.598076 
L 395.927101 287.598076 
z
" clip-path="url(#pb267c85b93)" style="fill: #1f77b4; opacity: 0.5"/>
   </g>
   <g id="patch_128">
    <path d="M 398.514321 288.645994 
L 401.101542 288.645994 
L 401.101542 287.24877 
L 398.514321 287.24877 
z
" clip-path="url(#pb267c85b93)" style="fill: #1f77b4; opacity: 0.5"/>
   </g>
   <g id="patch_129">
    <path d="M 401.101542 288.645994 
L 403.688762 288.645994 
L 403.688762 286.433722 
L 401.101542 286.433722 
z
" clip-path="url(#pb267c85b93)" style="fill: #1f77b4; opacity: 0.5"/>
   </g>
   <g id="patch_130">
    <path d="M 403.688762 288.645994 
L 406.275982 288.645994 
L 406.275982 286.200852 
L 403.688762 286.200852 
z
" clip-path="url(#pb267c85b93)" style="fill: #1f77b4; opacity: 0.5"/>
   </g>
   <g id="patch_131">
    <path d="M 406.275982 288.645994 
L 408.863202 288.645994 
L 408.863202 287.015899 
L 406.275982 287.015899 
z
" clip-path="url(#pb267c85b93)" style="fill: #1f77b4; opacity: 0.5"/>
   </g>
   <g id="patch_132">
    <path d="M 408.863202 288.645994 
L 411.450422 288.645994 
L 411.450422 287.48164 
L 408.863202 287.48164 
z
" clip-path="url(#pb267c85b93)" style="fill: #1f77b4; opacity: 0.5"/>
   </g>
   <g id="patch_133">
    <path d="M 411.450422 288.645994 
L 414.037642 288.645994 
L 414.037642 287.48164 
L 411.450422 287.48164 
z
" clip-path="url(#pb267c85b93)" style="fill: #1f77b4; opacity: 0.5"/>
   </g>
   <g id="patch_134">
    <path d="M 414.037642 288.645994 
L 416.624862 288.645994 
L 416.624862 288.645994 
L 414.037642 288.645994 
z
" clip-path="url(#pb267c85b93)" style="fill: #1f77b4; opacity: 0.5"/>
   </g>
   <g id="patch_135">
    <path d="M 416.624862 288.645994 
L 419.212082 288.645994 
L 419.212082 287.598076 
L 416.624862 287.598076 
z
" clip-path="url(#pb267c85b93)" style="fill: #1f77b4; opacity: 0.5"/>
   </g>
   <g id="patch_136">
    <path d="M 419.212082 288.645994 
L 421.799302 288.645994 
L 421.799302 288.296688 
L 419.212082 288.296688 
z
" clip-path="url(#pb267c85b93)" style="fill: #1f77b4; opacity: 0.5"/>
   </g>
   <g id="patch_137">
    <path d="M 421.799302 288.645994 
L 424.386522 288.645994 
L 424.386522 287.48164 
L 421.799302 287.48164 
z
" clip-path="url(#pb267c85b93)" style="fill: #1f77b4; opacity: 0.5"/>
   </g>
   <g id="patch_138">
    <path d="M 424.386522 288.645994 
L 426.973742 288.645994 
L 426.973742 287.48164 
L 424.386522 287.48164 
z
" clip-path="url(#pb267c85b93)" style="fill: #1f77b4; opacity: 0.5"/>
   </g>
   <g id="patch_139">
    <path d="M 426.973742 288.645994 
L 429.560962 288.645994 
L 429.560962 287.598076 
L 426.973742 287.598076 
z
" clip-path="url(#pb267c85b93)" style="fill: #1f77b4; opacity: 0.5"/>
   </g>
   <g id="patch_140">
    <path d="M 429.560962 288.645994 
L 432.148182 288.645994 
L 432.148182 287.48164 
L 429.560962 287.48164 
z
" clip-path="url(#pb267c85b93)" style="fill: #1f77b4; opacity: 0.5"/>
   </g>
   <g id="matplotlib.axis_1">
    <g id="xtick_1">
     <g id="line2d_1">
      <defs>
       <path id="m92769c1fab" d="M 0 0 
L 0 3.5 
" style="stroke: #000000; stroke-width: 0.8"/>
      </defs>
      <g>
       <use xlink:href="#m92769c1fab" x="65.004951" y="288.645994" style="stroke: #000000; stroke-width: 0.8"/>
      </g>
     </g>
     <g id="text_1">
      <!-- 0 -->
      <g transform="translate(64.70664 305.517867) rotate(-45) scale(0.1 -0.1)">
       <defs>
        <path id="DejaVuSans-30" d="M 2034 4250 
Q 1547 4250 1301 3770 
Q 1056 3291 1056 2328 
Q 1056 1369 1301 889 
Q 1547 409 2034 409 
Q 2525 409 2770 889 
Q 3016 1369 3016 2328 
Q 3016 3291 2770 3770 
Q 2525 4250 2034 4250 
z
M 2034 4750 
Q 2819 4750 3233 4129 
Q 3647 3509 3647 2328 
Q 3647 1150 3233 529 
Q 2819 -91 2034 -91 
Q 1250 -91 836 529 
Q 422 1150 422 2328 
Q 422 3509 836 4129 
Q 1250 4750 2034 4750 
z
" transform="scale(0.015625)"/>
       </defs>
       <use xlink:href="#DejaVuSans-30"/>
      </g>
     </g>
    </g>
    <g id="xtick_2">
     <g id="line2d_2">
      <g>
       <use xlink:href="#m92769c1fab" x="123.124902" y="288.645994" style="stroke: #000000; stroke-width: 0.8"/>
      </g>
     </g>
     <g id="text_2">
      <!-- 200 -->
      <g transform="translate(118.327625 314.515801) rotate(-45) scale(0.1 -0.1)">
       <defs>
        <path id="DejaVuSans-32" d="M 1228 531 
L 3431 531 
L 3431 0 
L 469 0 
L 469 531 
Q 828 903 1448 1529 
Q 2069 2156 2228 2338 
Q 2531 2678 2651 2914 
Q 2772 3150 2772 3378 
Q 2772 3750 2511 3984 
Q 2250 4219 1831 4219 
Q 1534 4219 1204 4116 
Q 875 4013 500 3803 
L 500 4441 
Q 881 4594 1212 4672 
Q 1544 4750 1819 4750 
Q 2544 4750 2975 4387 
Q 3406 4025 3406 3419 
Q 3406 3131 3298 2873 
Q 3191 2616 2906 2266 
Q 2828 2175 2409 1742 
Q 1991 1309 1228 531 
z
" transform="scale(0.015625)"/>
       </defs>
       <use xlink:href="#DejaVuSans-32"/>
       <use xlink:href="#DejaVuSans-30" x="63.623047"/>
       <use xlink:href="#DejaVuSans-30" x="127.246094"/>
      </g>
     </g>
    </g>
    <g id="xtick_3">
     <g id="line2d_3">
      <g>
       <use xlink:href="#m92769c1fab" x="181.244854" y="288.645994" style="stroke: #000000; stroke-width: 0.8"/>
      </g>
     </g>
     <g id="text_3">
      <!-- 400 -->
      <g transform="translate(176.447576 314.515801) rotate(-45) scale(0.1 -0.1)">
       <defs>
        <path id="DejaVuSans-34" d="M 2419 4116 
L 825 1625 
L 2419 1625 
L 2419 4116 
z
M 2253 4666 
L 3047 4666 
L 3047 1625 
L 3713 1625 
L 3713 1100 
L 3047 1100 
L 3047 0 
L 2419 0 
L 2419 1100 
L 313 1100 
L 313 1709 
L 2253 4666 
z
" transform="scale(0.015625)"/>
       </defs>
       <use xlink:href="#DejaVuSans-34"/>
       <use xlink:href="#DejaVuSans-30" x="63.623047"/>
       <use xlink:href="#DejaVuSans-30" x="127.246094"/>
      </g>
     </g>
    </g>
    <g id="xtick_4">
     <g id="line2d_4">
      <g>
       <use xlink:href="#m92769c1fab" x="239.364806" y="288.645994" style="stroke: #000000; stroke-width: 0.8"/>
      </g>
     </g>
     <g id="text_4">
      <!-- 600 -->
      <g transform="translate(234.567528 314.515801) rotate(-45) scale(0.1 -0.1)">
       <defs>
        <path id="DejaVuSans-36" d="M 2113 2584 
Q 1688 2584 1439 2293 
Q 1191 2003 1191 1497 
Q 1191 994 1439 701 
Q 1688 409 2113 409 
Q 2538 409 2786 701 
Q 3034 994 3034 1497 
Q 3034 2003 2786 2293 
Q 2538 2584 2113 2584 
z
M 3366 4563 
L 3366 3988 
Q 3128 4100 2886 4159 
Q 2644 4219 2406 4219 
Q 1781 4219 1451 3797 
Q 1122 3375 1075 2522 
Q 1259 2794 1537 2939 
Q 1816 3084 2150 3084 
Q 2853 3084 3261 2657 
Q 3669 2231 3669 1497 
Q 3669 778 3244 343 
Q 2819 -91 2113 -91 
Q 1303 -91 875 529 
Q 447 1150 447 2328 
Q 447 3434 972 4092 
Q 1497 4750 2381 4750 
Q 2619 4750 2861 4703 
Q 3103 4656 3366 4563 
z
" transform="scale(0.015625)"/>
       </defs>
       <use xlink:href="#DejaVuSans-36"/>
       <use xlink:href="#DejaVuSans-30" x="63.623047"/>
       <use xlink:href="#DejaVuSans-30" x="127.246094"/>
      </g>
     </g>
    </g>
    <g id="xtick_5">
     <g id="line2d_5">
      <g>
       <use xlink:href="#m92769c1fab" x="297.484757" y="288.645994" style="stroke: #000000; stroke-width: 0.8"/>
      </g>
     </g>
     <g id="text_5">
      <!-- 800 -->
      <g transform="translate(292.68748 314.515801) rotate(-45) scale(0.1 -0.1)">
       <defs>
        <path id="DejaVuSans-38" d="M 2034 2216 
Q 1584 2216 1326 1975 
Q 1069 1734 1069 1313 
Q 1069 891 1326 650 
Q 1584 409 2034 409 
Q 2484 409 2743 651 
Q 3003 894 3003 1313 
Q 3003 1734 2745 1975 
Q 2488 2216 2034 2216 
z
M 1403 2484 
Q 997 2584 770 2862 
Q 544 3141 544 3541 
Q 544 4100 942 4425 
Q 1341 4750 2034 4750 
Q 2731 4750 3128 4425 
Q 3525 4100 3525 3541 
Q 3525 3141 3298 2862 
Q 3072 2584 2669 2484 
Q 3125 2378 3379 2068 
Q 3634 1759 3634 1313 
Q 3634 634 3220 271 
Q 2806 -91 2034 -91 
Q 1263 -91 848 271 
Q 434 634 434 1313 
Q 434 1759 690 2068 
Q 947 2378 1403 2484 
z
M 1172 3481 
Q 1172 3119 1398 2916 
Q 1625 2713 2034 2713 
Q 2441 2713 2670 2916 
Q 2900 3119 2900 3481 
Q 2900 3844 2670 4047 
Q 2441 4250 2034 4250 
Q 1625 4250 1398 4047 
Q 1172 3844 1172 3481 
z
" transform="scale(0.015625)"/>
       </defs>
       <use xlink:href="#DejaVuSans-38"/>
       <use xlink:href="#DejaVuSans-30" x="63.623047"/>
       <use xlink:href="#DejaVuSans-30" x="127.246094"/>
      </g>
     </g>
    </g>
    <g id="xtick_6">
     <g id="line2d_6">
      <g>
       <use xlink:href="#m92769c1fab" x="355.604709" y="288.645994" style="stroke: #000000; stroke-width: 0.8"/>
      </g>
     </g>
     <g id="text_6">
      <!-- 1000 -->
      <g transform="translate(348.557948 319.014768) rotate(-45) scale(0.1 -0.1)">
       <defs>
        <path id="DejaVuSans-31" d="M 794 531 
L 1825 531 
L 1825 4091 
L 703 3866 
L 703 4441 
L 1819 4666 
L 2450 4666 
L 2450 531 
L 3481 531 
L 3481 0 
L 794 0 
L 794 531 
z
" transform="scale(0.015625)"/>
       </defs>
       <use xlink:href="#DejaVuSans-31"/>
       <use xlink:href="#DejaVuSans-30" x="63.623047"/>
       <use xlink:href="#DejaVuSans-30" x="127.246094"/>
       <use xlink:href="#DejaVuSans-30" x="190.869141"/>
      </g>
     </g>
    </g>
    <g id="xtick_7">
     <g id="line2d_7">
      <g>
       <use xlink:href="#m92769c1fab" x="413.724661" y="288.645994" style="stroke: #000000; stroke-width: 0.8"/>
      </g>
     </g>
     <g id="text_7">
      <!-- 1200 -->
      <g transform="translate(406.6779 319.014768) rotate(-45) scale(0.1 -0.1)">
       <use xlink:href="#DejaVuSans-31"/>
       <use xlink:href="#DejaVuSans-32" x="63.623047"/>
       <use xlink:href="#DejaVuSans-30" x="127.246094"/>
       <use xlink:href="#DejaVuSans-30" x="190.869141"/>
      </g>
     </g>
    </g>
    <g id="text_8">
     <!-- Werte -->
     <g transform="translate(238.81125 332.083766) scale(0.1 -0.1)">
      <defs>
       <path id="DejaVuSans-57" d="M 213 4666 
L 850 4666 
L 1831 722 
L 2809 4666 
L 3519 4666 
L 4500 722 
L 5478 4666 
L 6119 4666 
L 4947 0 
L 4153 0 
L 3169 4050 
L 2175 0 
L 1381 0 
L 213 4666 
z
" transform="scale(0.015625)"/>
       <path id="DejaVuSans-65" d="M 3597 1894 
L 3597 1613 
L 953 1613 
Q 991 1019 1311 708 
Q 1631 397 2203 397 
Q 2534 397 2845 478 
Q 3156 559 3463 722 
L 3463 178 
Q 3153 47 2828 -22 
Q 2503 -91 2169 -91 
Q 1331 -91 842 396 
Q 353 884 353 1716 
Q 353 2575 817 3079 
Q 1281 3584 2069 3584 
Q 2775 3584 3186 3129 
Q 3597 2675 3597 1894 
z
M 3022 2063 
Q 3016 2534 2758 2815 
Q 2500 3097 2075 3097 
Q 1594 3097 1305 2825 
Q 1016 2553 972 2059 
L 3022 2063 
z
" transform="scale(0.015625)"/>
       <path id="DejaVuSans-72" d="M 2631 2963 
Q 2534 3019 2420 3045 
Q 2306 3072 2169 3072 
Q 1681 3072 1420 2755 
Q 1159 2438 1159 1844 
L 1159 0 
L 581 0 
L 581 3500 
L 1159 3500 
L 1159 2956 
Q 1341 3275 1631 3429 
Q 1922 3584 2338 3584 
Q 2397 3584 2469 3576 
Q 2541 3569 2628 3553 
L 2631 2963 
z
" transform="scale(0.015625)"/>
       <path id="DejaVuSans-74" d="M 1172 4494 
L 1172 3500 
L 2356 3500 
L 2356 3053 
L 1172 3053 
L 1172 1153 
Q 1172 725 1289 603 
Q 1406 481 1766 481 
L 2356 481 
L 2356 0 
L 1766 0 
Q 1100 0 847 248 
Q 594 497 594 1153 
L 594 3053 
L 172 3053 
L 172 3500 
L 594 3500 
L 594 4494 
L 1172 4494 
z
" transform="scale(0.015625)"/>
      </defs>
      <use xlink:href="#DejaVuSans-57"/>
      <use xlink:href="#DejaVuSans-65" x="93.001953"/>
      <use xlink:href="#DejaVuSans-72" x="154.525391"/>
      <use xlink:href="#DejaVuSans-74" x="195.638672"/>
      <use xlink:href="#DejaVuSans-65" x="234.847656"/>
     </g>
    </g>
   </g>
   <g id="matplotlib.axis_2">
    <g id="ytick_1">
     <g id="line2d_8">
      <defs>
       <path id="m282d479f87" d="M 0 0 
L -3.5 0 
" style="stroke: #000000; stroke-width: 0.8"/>
      </defs>
      <g>
       <use xlink:href="#m282d479f87" x="57.26" y="288.645994" style="stroke: #000000; stroke-width: 0.8"/>
      </g>
     </g>
     <g id="text_9">
      <!-- 0 -->
      <g transform="translate(43.8975 292.445212) scale(0.1 -0.1)">
       <use xlink:href="#DejaVuSans-30"/>
      </g>
     </g>
    </g>
    <g id="ytick_2">
     <g id="line2d_9">
      <g>
       <use xlink:href="#m282d479f87" x="57.26" y="230.428327" style="stroke: #000000; stroke-width: 0.8"/>
      </g>
     </g>
     <g id="text_10">
      <!-- 500 -->
      <g transform="translate(31.1725 234.227546) scale(0.1 -0.1)">
       <defs>
        <path id="DejaVuSans-35" d="M 691 4666 
L 3169 4666 
L 3169 4134 
L 1269 4134 
L 1269 2991 
Q 1406 3038 1543 3061 
Q 1681 3084 1819 3084 
Q 2600 3084 3056 2656 
Q 3513 2228 3513 1497 
Q 3513 744 3044 326 
Q 2575 -91 1722 -91 
Q 1428 -91 1123 -41 
Q 819 9 494 109 
L 494 744 
Q 775 591 1075 516 
Q 1375 441 1709 441 
Q 2250 441 2565 725 
Q 2881 1009 2881 1497 
Q 2881 1984 2565 2268 
Q 2250 2553 1709 2553 
Q 1456 2553 1204 2497 
Q 953 2441 691 2322 
L 691 4666 
z
" transform="scale(0.015625)"/>
       </defs>
       <use xlink:href="#DejaVuSans-35"/>
       <use xlink:href="#DejaVuSans-30" x="63.623047"/>
       <use xlink:href="#DejaVuSans-30" x="127.246094"/>
      </g>
     </g>
    </g>
    <g id="ytick_3">
     <g id="line2d_10">
      <g>
       <use xlink:href="#m282d479f87" x="57.26" y="172.21066" style="stroke: #000000; stroke-width: 0.8"/>
      </g>
     </g>
     <g id="text_11">
      <!-- 1000 -->
      <g transform="translate(24.81 176.009879) scale(0.1 -0.1)">
       <use xlink:href="#DejaVuSans-31"/>
       <use xlink:href="#DejaVuSans-30" x="63.623047"/>
       <use xlink:href="#DejaVuSans-30" x="127.246094"/>
       <use xlink:href="#DejaVuSans-30" x="190.869141"/>
      </g>
     </g>
    </g>
    <g id="ytick_4">
     <g id="line2d_11">
      <g>
       <use xlink:href="#m282d479f87" x="57.26" y="113.992994" style="stroke: #000000; stroke-width: 0.8"/>
      </g>
     </g>
     <g id="text_12">
      <!-- 1500 -->
      <g transform="translate(24.81 117.792212) scale(0.1 -0.1)">
       <use xlink:href="#DejaVuSans-31"/>
       <use xlink:href="#DejaVuSans-35" x="63.623047"/>
       <use xlink:href="#DejaVuSans-30" x="127.246094"/>
       <use xlink:href="#DejaVuSans-30" x="190.869141"/>
      </g>
     </g>
    </g>
    <g id="ytick_5">
     <g id="line2d_12">
      <g>
       <use xlink:href="#m282d479f87" x="57.26" y="55.775327" style="stroke: #000000; stroke-width: 0.8"/>
      </g>
     </g>
     <g id="text_13">
      <!-- 2000 -->
      <g transform="translate(24.81 59.574546) scale(0.1 -0.1)">
       <use xlink:href="#DejaVuSans-32"/>
       <use xlink:href="#DejaVuSans-30" x="63.623047"/>
       <use xlink:href="#DejaVuSans-30" x="127.246094"/>
       <use xlink:href="#DejaVuSans-30" x="190.869141"/>
      </g>
     </g>
    </g>
    <g id="text_14">
     <!-- Häufigkeit -->
     <g transform="translate(18.730313 182.859247) rotate(-90) scale(0.1 -0.1)">
      <defs>
       <path id="DejaVuSans-48" d="M 628 4666 
L 1259 4666 
L 1259 2753 
L 3553 2753 
L 3553 4666 
L 4184 4666 
L 4184 0 
L 3553 0 
L 3553 2222 
L 1259 2222 
L 1259 0 
L 628 0 
L 628 4666 
z
" transform="scale(0.015625)"/>
       <path id="DejaVuSans-e4" d="M 2194 1759 
Q 1497 1759 1228 1600 
Q 959 1441 959 1056 
Q 959 750 1161 570 
Q 1363 391 1709 391 
Q 2188 391 2477 730 
Q 2766 1069 2766 1631 
L 2766 1759 
L 2194 1759 
z
M 3341 1997 
L 3341 0 
L 2766 0 
L 2766 531 
Q 2569 213 2275 61 
Q 1981 -91 1556 -91 
Q 1019 -91 701 211 
Q 384 513 384 1019 
Q 384 1609 779 1909 
Q 1175 2209 1959 2209 
L 2766 2209 
L 2766 2266 
Q 2766 2663 2505 2880 
Q 2244 3097 1772 3097 
Q 1472 3097 1187 3025 
Q 903 2953 641 2809 
L 641 3341 
Q 956 3463 1253 3523 
Q 1550 3584 1831 3584 
Q 2591 3584 2966 3190 
Q 3341 2797 3341 1997 
z
M 2150 4850 
L 2784 4850 
L 2784 4219 
L 2150 4219 
L 2150 4850 
z
M 928 4850 
L 1563 4850 
L 1563 4219 
L 928 4219 
L 928 4850 
z
" transform="scale(0.015625)"/>
       <path id="DejaVuSans-75" d="M 544 1381 
L 544 3500 
L 1119 3500 
L 1119 1403 
Q 1119 906 1312 657 
Q 1506 409 1894 409 
Q 2359 409 2629 706 
Q 2900 1003 2900 1516 
L 2900 3500 
L 3475 3500 
L 3475 0 
L 2900 0 
L 2900 538 
Q 2691 219 2414 64 
Q 2138 -91 1772 -91 
Q 1169 -91 856 284 
Q 544 659 544 1381 
z
M 1991 3584 
L 1991 3584 
z
" transform="scale(0.015625)"/>
       <path id="DejaVuSans-66" d="M 2375 4863 
L 2375 4384 
L 1825 4384 
Q 1516 4384 1395 4259 
Q 1275 4134 1275 3809 
L 1275 3500 
L 2222 3500 
L 2222 3053 
L 1275 3053 
L 1275 0 
L 697 0 
L 697 3053 
L 147 3053 
L 147 3500 
L 697 3500 
L 697 3744 
Q 697 4328 969 4595 
Q 1241 4863 1831 4863 
L 2375 4863 
z
" transform="scale(0.015625)"/>
       <path id="DejaVuSans-69" d="M 603 3500 
L 1178 3500 
L 1178 0 
L 603 0 
L 603 3500 
z
M 603 4863 
L 1178 4863 
L 1178 4134 
L 603 4134 
L 603 4863 
z
" transform="scale(0.015625)"/>
       <path id="DejaVuSans-67" d="M 2906 1791 
Q 2906 2416 2648 2759 
Q 2391 3103 1925 3103 
Q 1463 3103 1205 2759 
Q 947 2416 947 1791 
Q 947 1169 1205 825 
Q 1463 481 1925 481 
Q 2391 481 2648 825 
Q 2906 1169 2906 1791 
z
M 3481 434 
Q 3481 -459 3084 -895 
Q 2688 -1331 1869 -1331 
Q 1566 -1331 1297 -1286 
Q 1028 -1241 775 -1147 
L 775 -588 
Q 1028 -725 1275 -790 
Q 1522 -856 1778 -856 
Q 2344 -856 2625 -561 
Q 2906 -266 2906 331 
L 2906 616 
Q 2728 306 2450 153 
Q 2172 0 1784 0 
Q 1141 0 747 490 
Q 353 981 353 1791 
Q 353 2603 747 3093 
Q 1141 3584 1784 3584 
Q 2172 3584 2450 3431 
Q 2728 3278 2906 2969 
L 2906 3500 
L 3481 3500 
L 3481 434 
z
" transform="scale(0.015625)"/>
       <path id="DejaVuSans-6b" d="M 581 4863 
L 1159 4863 
L 1159 1991 
L 2875 3500 
L 3609 3500 
L 1753 1863 
L 3688 0 
L 2938 0 
L 1159 1709 
L 1159 0 
L 581 0 
L 581 4863 
z
" transform="scale(0.015625)"/>
      </defs>
      <use xlink:href="#DejaVuSans-48"/>
      <use xlink:href="#DejaVuSans-e4" x="75.195312"/>
      <use xlink:href="#DejaVuSans-75" x="136.474609"/>
      <use xlink:href="#DejaVuSans-66" x="199.853516"/>
      <use xlink:href="#DejaVuSans-69" x="235.058594"/>
      <use xlink:href="#DejaVuSans-67" x="262.841797"/>
      <use xlink:href="#DejaVuSans-6b" x="326.318359"/>
      <use xlink:href="#DejaVuSans-65" x="380.603516"/>
      <use xlink:href="#DejaVuSans-69" x="442.126953"/>
      <use xlink:href="#DejaVuSans-74" x="469.910156"/>
     </g>
    </g>
   </g>
   <g id="patch_141">
    <path d="M 57.26 288.645994 
L 57.26 26.16 
" style="fill: none; stroke: #000000; stroke-width: 0.8; stroke-linejoin: miter; stroke-linecap: square"/>
   </g>
   <g id="patch_142">
    <path d="M 450 288.645994 
L 450 26.16 
" style="fill: none; stroke: #000000; stroke-width: 0.8; stroke-linejoin: miter; stroke-linecap: square"/>
   </g>
   <g id="patch_143">
    <path d="M 57.26 288.645994 
L 450 288.645994 
" style="fill: none; stroke: #000000; stroke-width: 0.8; stroke-linejoin: miter; stroke-linecap: square"/>
   </g>
   <g id="patch_144">
    <path d="M 57.26 26.16 
L 450 26.16 
" style="fill: none; stroke: #000000; stroke-width: 0.8; stroke-linejoin: miter; stroke-linecap: square"/>
   </g>
   <g id="text_15">
    <!-- realSum -->
    <g transform="translate(228.806875 20.16) scale(0.12 -0.12)">
     <defs>
      <path id="DejaVuSans-61" d="M 2194 1759 
Q 1497 1759 1228 1600 
Q 959 1441 959 1056 
Q 959 750 1161 570 
Q 1363 391 1709 391 
Q 2188 391 2477 730 
Q 2766 1069 2766 1631 
L 2766 1759 
L 2194 1759 
z
M 3341 1997 
L 3341 0 
L 2766 0 
L 2766 531 
Q 2569 213 2275 61 
Q 1981 -91 1556 -91 
Q 1019 -91 701 211 
Q 384 513 384 1019 
Q 384 1609 779 1909 
Q 1175 2209 1959 2209 
L 2766 2209 
L 2766 2266 
Q 2766 2663 2505 2880 
Q 2244 3097 1772 3097 
Q 1472 3097 1187 3025 
Q 903 2953 641 2809 
L 641 3341 
Q 956 3463 1253 3523 
Q 1550 3584 1831 3584 
Q 2591 3584 2966 3190 
Q 3341 2797 3341 1997 
z
" transform="scale(0.015625)"/>
      <path id="DejaVuSans-6c" d="M 603 4863 
L 1178 4863 
L 1178 0 
L 603 0 
L 603 4863 
z
" transform="scale(0.015625)"/>
      <path id="DejaVuSans-53" d="M 3425 4513 
L 3425 3897 
Q 3066 4069 2747 4153 
Q 2428 4238 2131 4238 
Q 1616 4238 1336 4038 
Q 1056 3838 1056 3469 
Q 1056 3159 1242 3001 
Q 1428 2844 1947 2747 
L 2328 2669 
Q 3034 2534 3370 2195 
Q 3706 1856 3706 1288 
Q 3706 609 3251 259 
Q 2797 -91 1919 -91 
Q 1588 -91 1214 -16 
Q 841 59 441 206 
L 441 856 
Q 825 641 1194 531 
Q 1563 422 1919 422 
Q 2459 422 2753 634 
Q 3047 847 3047 1241 
Q 3047 1584 2836 1778 
Q 2625 1972 2144 2069 
L 1759 2144 
Q 1053 2284 737 2584 
Q 422 2884 422 3419 
Q 422 4038 858 4394 
Q 1294 4750 2059 4750 
Q 2388 4750 2728 4690 
Q 3069 4631 3425 4513 
z
" transform="scale(0.015625)"/>
      <path id="DejaVuSans-6d" d="M 3328 2828 
Q 3544 3216 3844 3400 
Q 4144 3584 4550 3584 
Q 5097 3584 5394 3201 
Q 5691 2819 5691 2113 
L 5691 0 
L 5113 0 
L 5113 2094 
Q 5113 2597 4934 2840 
Q 4756 3084 4391 3084 
Q 3944 3084 3684 2787 
Q 3425 2491 3425 1978 
L 3425 0 
L 2847 0 
L 2847 2094 
Q 2847 2600 2669 2842 
Q 2491 3084 2119 3084 
Q 1678 3084 1418 2786 
Q 1159 2488 1159 1978 
L 1159 0 
L 581 0 
L 581 3500 
L 1159 3500 
L 1159 2956 
Q 1356 3278 1631 3431 
Q 1906 3584 2284 3584 
Q 2666 3584 2933 3390 
Q 3200 3197 3328 2828 
z
" transform="scale(0.015625)"/>
     </defs>
     <use xlink:href="#DejaVuSans-72"/>
     <use xlink:href="#DejaVuSans-65" x="38.863281"/>
     <use xlink:href="#DejaVuSans-61" x="100.386719"/>
     <use xlink:href="#DejaVuSans-6c" x="161.666016"/>
     <use xlink:href="#DejaVuSans-53" x="189.449219"/>
     <use xlink:href="#DejaVuSans-75" x="252.925781"/>
     <use xlink:href="#DejaVuSans-6d" x="316.304688"/>
    </g>
   </g>
  </g>
 </g>
 <defs>
  <clipPath id="pb267c85b93">
   <rect x="57.26" y="26.16" width="392.74" height="262.485994"/>
  </clipPath>
 </defs>
</svg>
