<?xml version="1.0" encoding="utf-8" standalone="no"?>
<!DOCTYPE svg PUBLIC "-//W3C//DTD SVG 1.1//EN"
  "http://www.w3.org/Graphics/SVG/1.1/DTD/svg11.dtd">
<svg xmlns:xlink="http://www.w3.org/1999/xlink" width="460.8pt" height="345.6pt" viewBox="0 0 460.8 345.6" xmlns="http://www.w3.org/2000/svg" version="1.1">
 <metadata>
  <rdf:RDF xmlns:dc="http://purl.org/dc/elements/1.1/" xmlns:cc="http://creativecommons.org/ns#" xmlns:rdf="http://www.w3.org/1999/02/22-rdf-syntax-ns#">
   <cc:Work>
    <dc:type rdf:resource="http://purl.org/dc/dcmitype/StillImage"/>
    <dc:date>2024-01-20T11:54:09.195530</dc:date>
    <dc:format>image/svg+xml</dc:format>
    <dc:creator>
     <cc:Agent>
      <dc:title>Matplotlib v3.8.0, https://matplotlib.org/</dc:title>
     </cc:Agent>
    </dc:creator>
   </cc:Work>
  </rdf:RDF>
 </metadata>
 <defs>
  <style type="text/css">*{stroke-linejoin: round; stroke-linecap: butt}</style>
 </defs>
 <g id="figure_1">
  <g id="patch_1">
   <path d="M 0 345.6 
L 460.8 345.6 
L 460.8 0 
L 0 0 
z
" style="fill: #ffffff"/>
  </g>
  <g id="axes_1">
   <g id="patch_2">
    <path d="M 57.26 288.645994 
L 438.921081 288.645994 
L 438.921081 26.16 
L 57.26 26.16 
z
" style="fill: #ffffff"/>
   </g>
   <g id="patch_3">
    <path d="M 74.608231 288.645994 
L 76.229561 288.645994 
L 76.229561 240.792332 
L 74.608231 240.792332 
z
" clip-path="url(#p2cd27a752d)" style="fill: #1f77b4; opacity: 0.5"/>
   </g>
   <g id="patch_4">
    <path d="M 76.229561 288.645994 
L 77.850891 288.645994 
L 77.850891 143.136218 
L 76.229561 143.136218 
z
" clip-path="url(#p2cd27a752d)" style="fill: #1f77b4; opacity: 0.5"/>
   </g>
   <g id="patch_5">
    <path d="M 77.850891 288.645994 
L 79.472221 288.645994 
L 79.472221 47.753694 
L 77.850891 47.753694 
z
" clip-path="url(#p2cd27a752d)" style="fill: #1f77b4; opacity: 0.5"/>
   </g>
   <g id="patch_6">
    <path d="M 79.472221 288.645994 
L 81.093551 288.645994 
L 81.093551 38.659333 
L 79.472221 38.659333 
z
" clip-path="url(#p2cd27a752d)" style="fill: #1f77b4; opacity: 0.5"/>
   </g>
   <g id="patch_7">
    <path d="M 81.093551 288.645994 
L 82.714881 288.645994 
L 82.714881 52.733939 
L 81.093551 52.733939 
z
" clip-path="url(#p2cd27a752d)" style="fill: #1f77b4; opacity: 0.5"/>
   </g>
   <g id="patch_8">
    <path d="M 82.714881 288.645994 
L 84.336211 288.645994 
L 84.336211 74.928511 
L 82.714881 74.928511 
z
" clip-path="url(#p2cd27a752d)" style="fill: #1f77b4; opacity: 0.5"/>
   </g>
   <g id="patch_9">
    <path d="M 84.336211 288.645994 
L 85.957541 288.645994 
L 85.957541 105.134781 
L 84.336211 105.134781 
z
" clip-path="url(#p2cd27a752d)" style="fill: #1f77b4; opacity: 0.5"/>
   </g>
   <g id="patch_10">
    <path d="M 85.957541 288.645994 
L 87.578871 288.645994 
L 87.578871 112.063818 
L 85.957541 112.063818 
z
" clip-path="url(#p2cd27a752d)" style="fill: #1f77b4; opacity: 0.5"/>
   </g>
   <g id="patch_11">
    <path d="M 87.578871 288.645994 
L 89.200201 288.645994 
L 89.200201 130.793871 
L 87.578871 130.793871 
z
" clip-path="url(#p2cd27a752d)" style="fill: #1f77b4; opacity: 0.5"/>
   </g>
   <g id="patch_12">
    <path d="M 89.200201 288.645994 
L 90.821531 288.645994 
L 90.821531 125.272295 
L 89.200201 125.272295 
z
" clip-path="url(#p2cd27a752d)" style="fill: #1f77b4; opacity: 0.5"/>
   </g>
   <g id="patch_13">
    <path d="M 90.821531 288.645994 
L 92.442861 288.645994 
L 92.442861 114.662207 
L 90.821531 114.662207 
z
" clip-path="url(#p2cd27a752d)" style="fill: #1f77b4; opacity: 0.5"/>
   </g>
   <g id="patch_14">
    <path d="M 92.442861 288.645994 
L 94.064191 288.645994 
L 94.064191 133.825325 
L 92.442861 133.825325 
z
" clip-path="url(#p2cd27a752d)" style="fill: #1f77b4; opacity: 0.5"/>
   </g>
   <g id="patch_15">
    <path d="M 94.064191 288.645994 
L 95.685521 288.645994 
L 95.685521 125.055762 
L 94.064191 125.055762 
z
" clip-path="url(#p2cd27a752d)" style="fill: #1f77b4; opacity: 0.5"/>
   </g>
   <g id="patch_16">
    <path d="M 95.685521 288.645994 
L 97.306851 288.645994 
L 97.306851 152.663644 
L 95.685521 152.663644 
z
" clip-path="url(#p2cd27a752d)" style="fill: #1f77b4; opacity: 0.5"/>
   </g>
   <g id="patch_17">
    <path d="M 97.306851 288.645994 
L 98.928181 288.645994 
L 98.928181 130.577339 
L 97.306851 130.577339 
z
" clip-path="url(#p2cd27a752d)" style="fill: #1f77b4; opacity: 0.5"/>
   </g>
   <g id="patch_18">
    <path d="M 98.928181 288.645994 
L 100.549511 288.645994 
L 100.549511 144.21888 
L 98.928181 144.21888 
z
" clip-path="url(#p2cd27a752d)" style="fill: #1f77b4; opacity: 0.5"/>
   </g>
   <g id="patch_19">
    <path d="M 100.549511 288.645994 
L 102.170841 288.645994 
L 102.170841 131.226936 
L 100.549511 131.226936 
z
" clip-path="url(#p2cd27a752d)" style="fill: #1f77b4; opacity: 0.5"/>
   </g>
   <g id="patch_20">
    <path d="M 102.170841 288.645994 
L 103.792171 288.645994 
L 103.792171 145.08501 
L 102.170841 145.08501 
z
" clip-path="url(#p2cd27a752d)" style="fill: #1f77b4; opacity: 0.5"/>
   </g>
   <g id="patch_21">
    <path d="M 103.792171 288.645994 
L 105.413501 288.645994 
L 105.413501 136.640246 
L 103.792171 136.640246 
z
" clip-path="url(#p2cd27a752d)" style="fill: #1f77b4; opacity: 0.5"/>
   </g>
   <g id="patch_22">
    <path d="M 105.413501 288.645994 
L 107.034831 288.645994 
L 107.034831 145.842873 
L 105.413501 145.842873 
z
" clip-path="url(#p2cd27a752d)" style="fill: #1f77b4; opacity: 0.5"/>
   </g>
   <g id="patch_23">
    <path d="M 107.034831 288.645994 
L 108.656161 288.645994 
L 108.656161 136.53198 
L 107.034831 136.53198 
z
" clip-path="url(#p2cd27a752d)" style="fill: #1f77b4; opacity: 0.5"/>
   </g>
   <g id="patch_24">
    <path d="M 108.656161 288.645994 
L 110.277491 288.645994 
L 110.277491 139.563433 
L 108.656161 139.563433 
z
" clip-path="url(#p2cd27a752d)" style="fill: #1f77b4; opacity: 0.5"/>
   </g>
   <g id="patch_25">
    <path d="M 110.277491 288.645994 
L 111.898821 288.645994 
L 111.898821 155.153766 
L 110.277491 155.153766 
z
" clip-path="url(#p2cd27a752d)" style="fill: #1f77b4; opacity: 0.5"/>
   </g>
   <g id="patch_26">
    <path d="M 111.898821 288.645994 
L 113.520151 288.645994 
L 113.520151 170.419301 
L 111.898821 170.419301 
z
" clip-path="url(#p2cd27a752d)" style="fill: #1f77b4; opacity: 0.5"/>
   </g>
   <g id="patch_27">
    <path d="M 113.520151 288.645994 
L 115.141481 288.645994 
L 115.141481 175.832611 
L 113.520151 175.832611 
z
" clip-path="url(#p2cd27a752d)" style="fill: #1f77b4; opacity: 0.5"/>
   </g>
   <g id="patch_28">
    <path d="M 115.141481 288.645994 
L 116.762811 288.645994 
L 116.762811 164.572926 
L 115.141481 164.572926 
z
" clip-path="url(#p2cd27a752d)" style="fill: #1f77b4; opacity: 0.5"/>
   </g>
   <g id="patch_29">
    <path d="M 116.762811 288.645994 
L 118.384141 288.645994 
L 118.384141 187.308828 
L 116.762811 187.308828 
z
" clip-path="url(#p2cd27a752d)" style="fill: #1f77b4; opacity: 0.5"/>
   </g>
   <g id="patch_30">
    <path d="M 118.384141 288.645994 
L 120.005471 288.645994 
L 120.005471 210.91086 
L 118.384141 210.91086 
z
" clip-path="url(#p2cd27a752d)" style="fill: #1f77b4; opacity: 0.5"/>
   </g>
   <g id="patch_31">
    <path d="M 120.005471 288.645994 
L 121.626801 288.645994 
L 121.626801 205.605817 
L 120.005471 205.605817 
z
" clip-path="url(#p2cd27a752d)" style="fill: #1f77b4; opacity: 0.5"/>
   </g>
   <g id="patch_32">
    <path d="M 121.626801 288.645994 
L 123.248131 288.645994 
L 123.248131 216.865502 
L 121.626801 216.865502 
z
" clip-path="url(#p2cd27a752d)" style="fill: #1f77b4; opacity: 0.5"/>
   </g>
   <g id="patch_33">
    <path d="M 123.248131 288.645994 
L 124.869461 288.645994 
L 124.869461 227.583856 
L 123.248131 227.583856 
z
" clip-path="url(#p2cd27a752d)" style="fill: #1f77b4; opacity: 0.5"/>
   </g>
   <g id="patch_34">
    <path d="M 124.869461 288.645994 
L 126.490791 288.645994 
L 126.490791 230.290511 
L 124.869461 230.290511 
z
" clip-path="url(#p2cd27a752d)" style="fill: #1f77b4; opacity: 0.5"/>
   </g>
   <g id="patch_35">
    <path d="M 126.490791 288.645994 
L 128.112121 288.645994 
L 128.112121 231.481439 
L 126.490791 231.481439 
z
" clip-path="url(#p2cd27a752d)" style="fill: #1f77b4; opacity: 0.5"/>
   </g>
   <g id="patch_36">
    <path d="M 128.112121 288.645994 
L 129.733451 288.645994 
L 129.733451 225.851596 
L 128.112121 225.851596 
z
" clip-path="url(#p2cd27a752d)" style="fill: #1f77b4; opacity: 0.5"/>
   </g>
   <g id="patch_37">
    <path d="M 129.733451 288.645994 
L 131.354781 288.645994 
L 131.354781 237.977411 
L 129.733451 237.977411 
z
" clip-path="url(#p2cd27a752d)" style="fill: #1f77b4; opacity: 0.5"/>
   </g>
   <g id="patch_38">
    <path d="M 131.354781 288.645994 
L 132.976111 288.645994 
L 132.976111 241.550196 
L 131.354781 241.550196 
z
" clip-path="url(#p2cd27a752d)" style="fill: #1f77b4; opacity: 0.5"/>
   </g>
   <g id="patch_39">
    <path d="M 132.976111 288.645994 
L 134.597441 288.645994 
L 134.597441 250.861089 
L 132.976111 250.861089 
z
" clip-path="url(#p2cd27a752d)" style="fill: #1f77b4; opacity: 0.5"/>
   </g>
   <g id="patch_40">
    <path d="M 134.597441 288.645994 
L 136.218771 288.645994 
L 136.218771 254.217341 
L 134.597441 254.217341 
z
" clip-path="url(#p2cd27a752d)" style="fill: #1f77b4; opacity: 0.5"/>
   </g>
   <g id="patch_41">
    <path d="M 136.218771 288.645994 
L 137.840101 288.645994 
L 137.840101 252.918147 
L 136.218771 252.918147 
z
" clip-path="url(#p2cd27a752d)" style="fill: #1f77b4; opacity: 0.5"/>
   </g>
   <g id="patch_42">
    <path d="M 137.840101 288.645994 
L 139.461431 288.645994 
L 139.461431 252.918147 
L 137.840101 252.918147 
z
" clip-path="url(#p2cd27a752d)" style="fill: #1f77b4; opacity: 0.5"/>
   </g>
   <g id="patch_43">
    <path d="M 139.461431 288.645994 
L 141.082761 288.645994 
L 141.082761 254.109075 
L 139.461431 254.109075 
z
" clip-path="url(#p2cd27a752d)" style="fill: #1f77b4; opacity: 0.5"/>
   </g>
   <g id="patch_44">
    <path d="M 141.082761 288.645994 
L 142.704091 288.645994 
L 142.704091 256.382665 
L 141.082761 256.382665 
z
" clip-path="url(#p2cd27a752d)" style="fill: #1f77b4; opacity: 0.5"/>
   </g>
   <g id="patch_45">
    <path d="M 142.704091 288.645994 
L 144.325421 288.645994 
L 144.325421 253.567744 
L 142.704091 253.567744 
z
" clip-path="url(#p2cd27a752d)" style="fill: #1f77b4; opacity: 0.5"/>
   </g>
   <g id="patch_46">
    <path d="M 144.325421 288.645994 
L 145.946751 288.645994 
L 145.946751 260.82158 
L 144.325421 260.82158 
z
" clip-path="url(#p2cd27a752d)" style="fill: #1f77b4; opacity: 0.5"/>
   </g>
   <g id="patch_47">
    <path d="M 145.946751 288.645994 
L 147.568081 288.645994 
L 147.568081 266.343156 
L 145.946751 266.343156 
z
" clip-path="url(#p2cd27a752d)" style="fill: #1f77b4; opacity: 0.5"/>
   </g>
   <g id="patch_48">
    <path d="M 147.568081 288.645994 
L 149.189411 288.645994 
L 149.189411 266.343156 
L 147.568081 266.343156 
z
" clip-path="url(#p2cd27a752d)" style="fill: #1f77b4; opacity: 0.5"/>
   </g>
   <g id="patch_49">
    <path d="M 149.189411 288.645994 
L 150.810741 288.645994 
L 150.810741 269.699408 
L 149.189411 269.699408 
z
" clip-path="url(#p2cd27a752d)" style="fill: #1f77b4; opacity: 0.5"/>
   </g>
   <g id="patch_50">
    <path d="M 150.810741 288.645994 
L 152.432071 288.645994 
L 152.432071 269.915941 
L 150.810741 269.915941 
z
" clip-path="url(#p2cd27a752d)" style="fill: #1f77b4; opacity: 0.5"/>
   </g>
   <g id="patch_51">
    <path d="M 152.432071 288.645994 
L 154.053401 288.645994 
L 154.053401 270.240739 
L 152.432071 270.240739 
z
" clip-path="url(#p2cd27a752d)" style="fill: #1f77b4; opacity: 0.5"/>
   </g>
   <g id="patch_52">
    <path d="M 154.053401 288.645994 
L 155.674731 288.645994 
L 155.674731 272.839128 
L 154.053401 272.839128 
z
" clip-path="url(#p2cd27a752d)" style="fill: #1f77b4; opacity: 0.5"/>
   </g>
   <g id="patch_53">
    <path d="M 155.674731 288.645994 
L 157.296061 288.645994 
L 157.296061 267.101019 
L 155.674731 267.101019 
z
" clip-path="url(#p2cd27a752d)" style="fill: #1f77b4; opacity: 0.5"/>
   </g>
   <g id="patch_54">
    <path d="M 157.296061 288.645994 
L 158.917391 288.645994 
L 158.917391 270.78207 
L 157.296061 270.78207 
z
" clip-path="url(#p2cd27a752d)" style="fill: #1f77b4; opacity: 0.5"/>
   </g>
   <g id="patch_55">
    <path d="M 158.917391 288.645994 
L 160.538721 288.645994 
L 160.538721 270.565538 
L 158.917391 270.565538 
z
" clip-path="url(#p2cd27a752d)" style="fill: #1f77b4; opacity: 0.5"/>
   </g>
   <g id="patch_56">
    <path d="M 160.538721 288.645994 
L 162.160051 288.645994 
L 162.160051 277.602841 
L 160.538721 277.602841 
z
" clip-path="url(#p2cd27a752d)" style="fill: #1f77b4; opacity: 0.5"/>
   </g>
   <g id="patch_57">
    <path d="M 162.160051 288.645994 
L 163.781381 288.645994 
L 163.781381 276.520179 
L 162.160051 276.520179 
z
" clip-path="url(#p2cd27a752d)" style="fill: #1f77b4; opacity: 0.5"/>
   </g>
   <g id="patch_58">
    <path d="M 163.781381 288.645994 
L 165.402711 288.645994 
L 165.402711 276.844978 
L 163.781381 276.844978 
z
" clip-path="url(#p2cd27a752d)" style="fill: #1f77b4; opacity: 0.5"/>
   </g>
   <g id="patch_59">
    <path d="M 165.402711 288.645994 
L 167.024041 288.645994 
L 167.024041 278.035906 
L 165.402711 278.035906 
z
" clip-path="url(#p2cd27a752d)" style="fill: #1f77b4; opacity: 0.5"/>
   </g>
   <g id="patch_60">
    <path d="M 167.024041 288.645994 
L 168.645371 288.645994 
L 168.645371 278.468971 
L 167.024041 278.468971 
z
" clip-path="url(#p2cd27a752d)" style="fill: #1f77b4; opacity: 0.5"/>
   </g>
   <g id="patch_61">
    <path d="M 168.645371 288.645994 
L 170.266701 288.645994 
L 170.266701 277.06151 
L 168.645371 277.06151 
z
" clip-path="url(#p2cd27a752d)" style="fill: #1f77b4; opacity: 0.5"/>
   </g>
   <g id="patch_62">
    <path d="M 170.266701 288.645994 
L 171.888031 288.645994 
L 171.888031 279.3351 
L 170.266701 279.3351 
z
" clip-path="url(#p2cd27a752d)" style="fill: #1f77b4; opacity: 0.5"/>
   </g>
   <g id="patch_63">
    <path d="M 171.888031 288.645994 
L 173.509361 288.645994 
L 173.509361 280.526028 
L 171.888031 280.526028 
z
" clip-path="url(#p2cd27a752d)" style="fill: #1f77b4; opacity: 0.5"/>
   </g>
   <g id="patch_64">
    <path d="M 173.509361 288.645994 
L 175.130691 288.645994 
L 175.130691 280.850827 
L 173.509361 280.850827 
z
" clip-path="url(#p2cd27a752d)" style="fill: #1f77b4; opacity: 0.5"/>
   </g>
   <g id="patch_65">
    <path d="M 175.130691 288.645994 
L 176.752021 288.645994 
L 176.752021 277.169776 
L 175.130691 277.169776 
z
" clip-path="url(#p2cd27a752d)" style="fill: #1f77b4; opacity: 0.5"/>
   </g>
   <g id="patch_66">
    <path d="M 176.752021 288.645994 
L 178.373351 288.645994 
L 178.373351 276.844978 
L 176.752021 276.844978 
z
" clip-path="url(#p2cd27a752d)" style="fill: #1f77b4; opacity: 0.5"/>
   </g>
   <g id="patch_67">
    <path d="M 178.373351 288.645994 
L 179.994681 288.645994 
L 179.994681 281.175626 
L 178.373351 281.175626 
z
" clip-path="url(#p2cd27a752d)" style="fill: #1f77b4; opacity: 0.5"/>
   </g>
   <g id="patch_68">
    <path d="M 179.994681 288.645994 
L 181.616011 288.645994 
L 181.616011 280.309496 
L 179.994681 280.309496 
z
" clip-path="url(#p2cd27a752d)" style="fill: #1f77b4; opacity: 0.5"/>
   </g>
   <g id="patch_69">
    <path d="M 181.616011 288.645994 
L 183.237341 288.645994 
L 183.237341 280.309496 
L 181.616011 280.309496 
z
" clip-path="url(#p2cd27a752d)" style="fill: #1f77b4; opacity: 0.5"/>
   </g>
   <g id="patch_70">
    <path d="M 183.237341 288.645994 
L 184.858671 288.645994 
L 184.858671 283.016151 
L 183.237341 283.016151 
z
" clip-path="url(#p2cd27a752d)" style="fill: #1f77b4; opacity: 0.5"/>
   </g>
   <g id="patch_71">
    <path d="M 184.858671 288.645994 
L 186.480001 288.645994 
L 186.480001 285.61454 
L 184.858671 285.61454 
z
" clip-path="url(#p2cd27a752d)" style="fill: #1f77b4; opacity: 0.5"/>
   </g>
   <g id="patch_72">
    <path d="M 186.480001 288.645994 
L 188.101331 288.645994 
L 188.101331 284.74841 
L 186.480001 284.74841 
z
" clip-path="url(#p2cd27a752d)" style="fill: #1f77b4; opacity: 0.5"/>
   </g>
   <g id="patch_73">
    <path d="M 188.101331 288.645994 
L 189.722661 288.645994 
L 189.722661 285.61454 
L 188.101331 285.61454 
z
" clip-path="url(#p2cd27a752d)" style="fill: #1f77b4; opacity: 0.5"/>
   </g>
   <g id="patch_74">
    <path d="M 189.722661 288.645994 
L 191.343991 288.645994 
L 191.343991 285.61454 
L 189.722661 285.61454 
z
" clip-path="url(#p2cd27a752d)" style="fill: #1f77b4; opacity: 0.5"/>
   </g>
   <g id="patch_75">
    <path d="M 191.343991 288.645994 
L 192.965321 288.645994 
L 192.965321 283.557482 
L 191.343991 283.557482 
z
" clip-path="url(#p2cd27a752d)" style="fill: #1f77b4; opacity: 0.5"/>
   </g>
   <g id="patch_76">
    <path d="M 192.965321 288.645994 
L 194.586651 288.645994 
L 194.586651 285.181475 
L 192.965321 285.181475 
z
" clip-path="url(#p2cd27a752d)" style="fill: #1f77b4; opacity: 0.5"/>
   </g>
   <g id="patch_77">
    <path d="M 194.586651 288.645994 
L 196.207981 288.645994 
L 196.207981 279.984697 
L 194.586651 279.984697 
z
" clip-path="url(#p2cd27a752d)" style="fill: #1f77b4; opacity: 0.5"/>
   </g>
   <g id="patch_78">
    <path d="M 196.207981 288.645994 
L 197.829311 288.645994 
L 197.829311 284.74841 
L 196.207981 284.74841 
z
" clip-path="url(#p2cd27a752d)" style="fill: #1f77b4; opacity: 0.5"/>
   </g>
   <g id="patch_79">
    <path d="M 197.829311 288.645994 
L 199.450641 288.645994 
L 199.450641 284.207079 
L 197.829311 284.207079 
z
" clip-path="url(#p2cd27a752d)" style="fill: #1f77b4; opacity: 0.5"/>
   </g>
   <g id="patch_80">
    <path d="M 199.450641 288.645994 
L 201.071971 288.645994 
L 201.071971 285.939338 
L 199.450641 285.939338 
z
" clip-path="url(#p2cd27a752d)" style="fill: #1f77b4; opacity: 0.5"/>
   </g>
   <g id="patch_81">
    <path d="M 201.071971 288.645994 
L 202.693301 288.645994 
L 202.693301 287.238533 
L 201.071971 287.238533 
z
" clip-path="url(#p2cd27a752d)" style="fill: #1f77b4; opacity: 0.5"/>
   </g>
   <g id="patch_82">
    <path d="M 202.693301 288.645994 
L 204.314631 288.645994 
L 204.314631 285.289741 
L 202.693301 285.289741 
z
" clip-path="url(#p2cd27a752d)" style="fill: #1f77b4; opacity: 0.5"/>
   </g>
   <g id="patch_83">
    <path d="M 204.314631 288.645994 
L 205.935961 288.645994 
L 205.935961 287.88813 
L 204.314631 287.88813 
z
" clip-path="url(#p2cd27a752d)" style="fill: #1f77b4; opacity: 0.5"/>
   </g>
   <g id="patch_84">
    <path d="M 205.935961 288.645994 
L 207.557291 288.645994 
L 207.557291 287.130267 
L 205.935961 287.130267 
z
" clip-path="url(#p2cd27a752d)" style="fill: #1f77b4; opacity: 0.5"/>
   </g>
   <g id="patch_85">
    <path d="M 207.557291 288.645994 
L 209.178621 288.645994 
L 209.178621 286.264137 
L 207.557291 286.264137 
z
" clip-path="url(#p2cd27a752d)" style="fill: #1f77b4; opacity: 0.5"/>
   </g>
   <g id="patch_86">
    <path d="M 209.178621 288.645994 
L 210.799951 288.645994 
L 210.799951 287.563332 
L 209.178621 287.563332 
z
" clip-path="url(#p2cd27a752d)" style="fill: #1f77b4; opacity: 0.5"/>
   </g>
   <g id="patch_87">
    <path d="M 210.799951 288.645994 
L 212.421281 288.645994 
L 212.421281 287.779864 
L 210.799951 287.779864 
z
" clip-path="url(#p2cd27a752d)" style="fill: #1f77b4; opacity: 0.5"/>
   </g>
   <g id="patch_88">
    <path d="M 212.421281 288.645994 
L 214.042611 288.645994 
L 214.042611 287.779864 
L 212.421281 287.779864 
z
" clip-path="url(#p2cd27a752d)" style="fill: #1f77b4; opacity: 0.5"/>
   </g>
   <g id="patch_89">
    <path d="M 214.042611 288.645994 
L 215.663941 288.645994 
L 215.663941 285.831072 
L 214.042611 285.831072 
z
" clip-path="url(#p2cd27a752d)" style="fill: #1f77b4; opacity: 0.5"/>
   </g>
   <g id="patch_90">
    <path d="M 215.663941 288.645994 
L 217.285271 288.645994 
L 217.285271 286.480669 
L 215.663941 286.480669 
z
" clip-path="url(#p2cd27a752d)" style="fill: #1f77b4; opacity: 0.5"/>
   </g>
   <g id="patch_91">
    <path d="M 217.285271 288.645994 
L 218.906601 288.645994 
L 218.906601 286.913734 
L 217.285271 286.913734 
z
" clip-path="url(#p2cd27a752d)" style="fill: #1f77b4; opacity: 0.5"/>
   </g>
   <g id="patch_92">
    <path d="M 218.906601 288.645994 
L 220.527931 288.645994 
L 220.527931 287.779864 
L 218.906601 287.779864 
z
" clip-path="url(#p2cd27a752d)" style="fill: #1f77b4; opacity: 0.5"/>
   </g>
   <g id="patch_93">
    <path d="M 220.527931 288.645994 
L 222.149261 288.645994 
L 222.149261 287.996396 
L 220.527931 287.996396 
z
" clip-path="url(#p2cd27a752d)" style="fill: #1f77b4; opacity: 0.5"/>
   </g>
   <g id="patch_94">
    <path d="M 222.149261 288.645994 
L 223.770591 288.645994 
L 223.770591 287.996396 
L 222.149261 287.996396 
z
" clip-path="url(#p2cd27a752d)" style="fill: #1f77b4; opacity: 0.5"/>
   </g>
   <g id="patch_95">
    <path d="M 223.770591 288.645994 
L 225.39192 288.645994 
L 225.39192 288.429461 
L 223.770591 288.429461 
z
" clip-path="url(#p2cd27a752d)" style="fill: #1f77b4; opacity: 0.5"/>
   </g>
   <g id="patch_96">
    <path d="M 225.39192 288.645994 
L 227.01325 288.645994 
L 227.01325 285.073209 
L 225.39192 285.073209 
z
" clip-path="url(#p2cd27a752d)" style="fill: #1f77b4; opacity: 0.5"/>
   </g>
   <g id="patch_97">
    <path d="M 227.01325 288.645994 
L 228.63458 288.645994 
L 228.63458 287.88813 
L 227.01325 287.88813 
z
" clip-path="url(#p2cd27a752d)" style="fill: #1f77b4; opacity: 0.5"/>
   </g>
   <g id="patch_98">
    <path d="M 228.63458 288.645994 
L 230.25591 288.645994 
L 230.25591 287.238533 
L 228.63458 287.238533 
z
" clip-path="url(#p2cd27a752d)" style="fill: #1f77b4; opacity: 0.5"/>
   </g>
   <g id="patch_99">
    <path d="M 230.25591 288.645994 
L 231.87724 288.645994 
L 231.87724 288.321195 
L 230.25591 288.321195 
z
" clip-path="url(#p2cd27a752d)" style="fill: #1f77b4; opacity: 0.5"/>
   </g>
   <g id="patch_100">
    <path d="M 231.87724 288.645994 
L 233.49857 288.645994 
L 233.49857 288.537727 
L 231.87724 288.537727 
z
" clip-path="url(#p2cd27a752d)" style="fill: #1f77b4; opacity: 0.5"/>
   </g>
   <g id="patch_101">
    <path d="M 233.49857 288.645994 
L 235.1199 288.645994 
L 235.1199 288.429461 
L 233.49857 288.429461 
z
" clip-path="url(#p2cd27a752d)" style="fill: #1f77b4; opacity: 0.5"/>
   </g>
   <g id="patch_102">
    <path d="M 235.1199 288.645994 
L 236.74123 288.645994 
L 236.74123 287.671598 
L 235.1199 287.671598 
z
" clip-path="url(#p2cd27a752d)" style="fill: #1f77b4; opacity: 0.5"/>
   </g>
   <g id="patch_103">
    <path d="M 236.74123 288.645994 
L 238.36256 288.645994 
L 238.36256 288.429461 
L 236.74123 288.429461 
z
" clip-path="url(#p2cd27a752d)" style="fill: #1f77b4; opacity: 0.5"/>
   </g>
   <g id="patch_104">
    <path d="M 238.36256 288.645994 
L 239.98389 288.645994 
L 239.98389 288.537727 
L 238.36256 288.537727 
z
" clip-path="url(#p2cd27a752d)" style="fill: #1f77b4; opacity: 0.5"/>
   </g>
   <g id="patch_105">
    <path d="M 239.98389 288.645994 
L 241.60522 288.645994 
L 241.60522 288.212929 
L 239.98389 288.212929 
z
" clip-path="url(#p2cd27a752d)" style="fill: #1f77b4; opacity: 0.5"/>
   </g>
   <g id="patch_106">
    <path d="M 241.60522 288.645994 
L 243.22655 288.645994 
L 243.22655 288.645994 
L 241.60522 288.645994 
z
" clip-path="url(#p2cd27a752d)" style="fill: #1f77b4; opacity: 0.5"/>
   </g>
   <g id="patch_107">
    <path d="M 243.22655 288.645994 
L 244.84788 288.645994 
L 244.84788 287.563332 
L 243.22655 287.563332 
z
" clip-path="url(#p2cd27a752d)" style="fill: #1f77b4; opacity: 0.5"/>
   </g>
   <g id="patch_108">
    <path d="M 244.84788 288.645994 
L 246.46921 288.645994 
L 246.46921 288.429461 
L 244.84788 288.429461 
z
" clip-path="url(#p2cd27a752d)" style="fill: #1f77b4; opacity: 0.5"/>
   </g>
   <g id="patch_109">
    <path d="M 246.46921 288.645994 
L 248.09054 288.645994 
L 248.09054 288.429461 
L 246.46921 288.429461 
z
" clip-path="url(#p2cd27a752d)" style="fill: #1f77b4; opacity: 0.5"/>
   </g>
   <g id="patch_110">
    <path d="M 248.09054 288.645994 
L 249.71187 288.645994 
L 249.71187 288.537727 
L 248.09054 288.537727 
z
" clip-path="url(#p2cd27a752d)" style="fill: #1f77b4; opacity: 0.5"/>
   </g>
   <g id="patch_111">
    <path d="M 249.71187 288.645994 
L 251.3332 288.645994 
L 251.3332 288.645994 
L 249.71187 288.645994 
z
" clip-path="url(#p2cd27a752d)" style="fill: #1f77b4; opacity: 0.5"/>
   </g>
   <g id="patch_112">
    <path d="M 251.3332 288.645994 
L 252.95453 288.645994 
L 252.95453 288.645994 
L 251.3332 288.645994 
z
" clip-path="url(#p2cd27a752d)" style="fill: #1f77b4; opacity: 0.5"/>
   </g>
   <g id="patch_113">
    <path d="M 252.95453 288.645994 
L 254.57586 288.645994 
L 254.57586 288.429461 
L 252.95453 288.429461 
z
" clip-path="url(#p2cd27a752d)" style="fill: #1f77b4; opacity: 0.5"/>
   </g>
   <g id="patch_114">
    <path d="M 254.57586 288.645994 
L 256.19719 288.645994 
L 256.19719 288.645994 
L 254.57586 288.645994 
z
" clip-path="url(#p2cd27a752d)" style="fill: #1f77b4; opacity: 0.5"/>
   </g>
   <g id="patch_115">
    <path d="M 256.19719 288.645994 
L 257.81852 288.645994 
L 257.81852 288.645994 
L 256.19719 288.645994 
z
" clip-path="url(#p2cd27a752d)" style="fill: #1f77b4; opacity: 0.5"/>
   </g>
   <g id="patch_116">
    <path d="M 257.81852 288.645994 
L 259.43985 288.645994 
L 259.43985 288.645994 
L 257.81852 288.645994 
z
" clip-path="url(#p2cd27a752d)" style="fill: #1f77b4; opacity: 0.5"/>
   </g>
   <g id="patch_117">
    <path d="M 259.43985 288.645994 
L 261.06118 288.645994 
L 261.06118 288.645994 
L 259.43985 288.645994 
z
" clip-path="url(#p2cd27a752d)" style="fill: #1f77b4; opacity: 0.5"/>
   </g>
   <g id="patch_118">
    <path d="M 261.06118 288.645994 
L 262.68251 288.645994 
L 262.68251 288.537727 
L 261.06118 288.537727 
z
" clip-path="url(#p2cd27a752d)" style="fill: #1f77b4; opacity: 0.5"/>
   </g>
   <g id="patch_119">
    <path d="M 262.68251 288.645994 
L 264.30384 288.645994 
L 264.30384 288.645994 
L 262.68251 288.645994 
z
" clip-path="url(#p2cd27a752d)" style="fill: #1f77b4; opacity: 0.5"/>
   </g>
   <g id="patch_120">
    <path d="M 264.30384 288.645994 
L 265.92517 288.645994 
L 265.92517 288.645994 
L 264.30384 288.645994 
z
" clip-path="url(#p2cd27a752d)" style="fill: #1f77b4; opacity: 0.5"/>
   </g>
   <g id="patch_121">
    <path d="M 265.92517 288.645994 
L 267.5465 288.645994 
L 267.5465 288.645994 
L 265.92517 288.645994 
z
" clip-path="url(#p2cd27a752d)" style="fill: #1f77b4; opacity: 0.5"/>
   </g>
   <g id="patch_122">
    <path d="M 267.5465 288.645994 
L 269.16783 288.645994 
L 269.16783 288.645994 
L 267.5465 288.645994 
z
" clip-path="url(#p2cd27a752d)" style="fill: #1f77b4; opacity: 0.5"/>
   </g>
   <g id="patch_123">
    <path d="M 269.16783 288.645994 
L 270.78916 288.645994 
L 270.78916 288.429461 
L 269.16783 288.429461 
z
" clip-path="url(#p2cd27a752d)" style="fill: #1f77b4; opacity: 0.5"/>
   </g>
   <g id="patch_124">
    <path d="M 270.78916 288.645994 
L 272.41049 288.645994 
L 272.41049 288.429461 
L 270.78916 288.429461 
z
" clip-path="url(#p2cd27a752d)" style="fill: #1f77b4; opacity: 0.5"/>
   </g>
   <g id="patch_125">
    <path d="M 272.41049 288.645994 
L 274.03182 288.645994 
L 274.03182 288.429461 
L 272.41049 288.429461 
z
" clip-path="url(#p2cd27a752d)" style="fill: #1f77b4; opacity: 0.5"/>
   </g>
   <g id="patch_126">
    <path d="M 274.03182 288.645994 
L 275.65315 288.645994 
L 275.65315 288.537727 
L 274.03182 288.537727 
z
" clip-path="url(#p2cd27a752d)" style="fill: #1f77b4; opacity: 0.5"/>
   </g>
   <g id="patch_127">
    <path d="M 275.65315 288.645994 
L 277.27448 288.645994 
L 277.27448 288.537727 
L 275.65315 288.537727 
z
" clip-path="url(#p2cd27a752d)" style="fill: #1f77b4; opacity: 0.5"/>
   </g>
   <g id="patch_128">
    <path d="M 277.27448 288.645994 
L 278.89581 288.645994 
L 278.89581 288.645994 
L 277.27448 288.645994 
z
" clip-path="url(#p2cd27a752d)" style="fill: #1f77b4; opacity: 0.5"/>
   </g>
   <g id="patch_129">
    <path d="M 278.89581 288.645994 
L 280.51714 288.645994 
L 280.51714 288.645994 
L 278.89581 288.645994 
z
" clip-path="url(#p2cd27a752d)" style="fill: #1f77b4; opacity: 0.5"/>
   </g>
   <g id="patch_130">
    <path d="M 280.51714 288.645994 
L 282.13847 288.645994 
L 282.13847 288.645994 
L 280.51714 288.645994 
z
" clip-path="url(#p2cd27a752d)" style="fill: #1f77b4; opacity: 0.5"/>
   </g>
   <g id="patch_131">
    <path d="M 282.13847 288.645994 
L 283.7598 288.645994 
L 283.7598 288.645994 
L 282.13847 288.645994 
z
" clip-path="url(#p2cd27a752d)" style="fill: #1f77b4; opacity: 0.5"/>
   </g>
   <g id="patch_132">
    <path d="M 283.7598 288.645994 
L 285.38113 288.645994 
L 285.38113 288.537727 
L 283.7598 288.537727 
z
" clip-path="url(#p2cd27a752d)" style="fill: #1f77b4; opacity: 0.5"/>
   </g>
   <g id="patch_133">
    <path d="M 285.38113 288.645994 
L 287.00246 288.645994 
L 287.00246 288.645994 
L 285.38113 288.645994 
z
" clip-path="url(#p2cd27a752d)" style="fill: #1f77b4; opacity: 0.5"/>
   </g>
   <g id="patch_134">
    <path d="M 287.00246 288.645994 
L 288.62379 288.645994 
L 288.62379 288.537727 
L 287.00246 288.537727 
z
" clip-path="url(#p2cd27a752d)" style="fill: #1f77b4; opacity: 0.5"/>
   </g>
   <g id="patch_135">
    <path d="M 288.62379 288.645994 
L 290.24512 288.645994 
L 290.24512 288.537727 
L 288.62379 288.537727 
z
" clip-path="url(#p2cd27a752d)" style="fill: #1f77b4; opacity: 0.5"/>
   </g>
   <g id="patch_136">
    <path d="M 290.24512 288.645994 
L 291.86645 288.645994 
L 291.86645 288.537727 
L 290.24512 288.537727 
z
" clip-path="url(#p2cd27a752d)" style="fill: #1f77b4; opacity: 0.5"/>
   </g>
   <g id="patch_137">
    <path d="M 291.86645 288.645994 
L 293.48778 288.645994 
L 293.48778 288.645994 
L 291.86645 288.645994 
z
" clip-path="url(#p2cd27a752d)" style="fill: #1f77b4; opacity: 0.5"/>
   </g>
   <g id="patch_138">
    <path d="M 293.48778 288.645994 
L 295.10911 288.645994 
L 295.10911 288.645994 
L 293.48778 288.645994 
z
" clip-path="url(#p2cd27a752d)" style="fill: #1f77b4; opacity: 0.5"/>
   </g>
   <g id="patch_139">
    <path d="M 295.10911 288.645994 
L 296.73044 288.645994 
L 296.73044 288.645994 
L 295.10911 288.645994 
z
" clip-path="url(#p2cd27a752d)" style="fill: #1f77b4; opacity: 0.5"/>
   </g>
   <g id="patch_140">
    <path d="M 296.73044 288.645994 
L 298.35177 288.645994 
L 298.35177 288.645994 
L 296.73044 288.645994 
z
" clip-path="url(#p2cd27a752d)" style="fill: #1f77b4; opacity: 0.5"/>
   </g>
   <g id="patch_141">
    <path d="M 298.35177 288.645994 
L 299.9731 288.645994 
L 299.9731 288.537727 
L 298.35177 288.537727 
z
" clip-path="url(#p2cd27a752d)" style="fill: #1f77b4; opacity: 0.5"/>
   </g>
   <g id="patch_142">
    <path d="M 299.9731 288.645994 
L 301.59443 288.645994 
L 301.59443 288.645994 
L 299.9731 288.645994 
z
" clip-path="url(#p2cd27a752d)" style="fill: #1f77b4; opacity: 0.5"/>
   </g>
   <g id="patch_143">
    <path d="M 301.59443 288.645994 
L 303.21576 288.645994 
L 303.21576 288.645994 
L 301.59443 288.645994 
z
" clip-path="url(#p2cd27a752d)" style="fill: #1f77b4; opacity: 0.5"/>
   </g>
   <g id="patch_144">
    <path d="M 303.21576 288.645994 
L 304.83709 288.645994 
L 304.83709 288.645994 
L 303.21576 288.645994 
z
" clip-path="url(#p2cd27a752d)" style="fill: #1f77b4; opacity: 0.5"/>
   </g>
   <g id="patch_145">
    <path d="M 304.83709 288.645994 
L 306.45842 288.645994 
L 306.45842 288.645994 
L 304.83709 288.645994 
z
" clip-path="url(#p2cd27a752d)" style="fill: #1f77b4; opacity: 0.5"/>
   </g>
   <g id="patch_146">
    <path d="M 306.45842 288.645994 
L 308.07975 288.645994 
L 308.07975 288.429461 
L 306.45842 288.429461 
z
" clip-path="url(#p2cd27a752d)" style="fill: #1f77b4; opacity: 0.5"/>
   </g>
   <g id="patch_147">
    <path d="M 308.07975 288.645994 
L 309.70108 288.645994 
L 309.70108 288.429461 
L 308.07975 288.429461 
z
" clip-path="url(#p2cd27a752d)" style="fill: #1f77b4; opacity: 0.5"/>
   </g>
   <g id="patch_148">
    <path d="M 309.70108 288.645994 
L 311.32241 288.645994 
L 311.32241 288.537727 
L 309.70108 288.537727 
z
" clip-path="url(#p2cd27a752d)" style="fill: #1f77b4; opacity: 0.5"/>
   </g>
   <g id="patch_149">
    <path d="M 311.32241 288.645994 
L 312.94374 288.645994 
L 312.94374 287.996396 
L 311.32241 287.996396 
z
" clip-path="url(#p2cd27a752d)" style="fill: #1f77b4; opacity: 0.5"/>
   </g>
   <g id="patch_150">
    <path d="M 312.94374 288.645994 
L 314.56507 288.645994 
L 314.56507 288.645994 
L 312.94374 288.645994 
z
" clip-path="url(#p2cd27a752d)" style="fill: #1f77b4; opacity: 0.5"/>
   </g>
   <g id="patch_151">
    <path d="M 314.56507 288.645994 
L 316.1864 288.645994 
L 316.1864 288.645994 
L 314.56507 288.645994 
z
" clip-path="url(#p2cd27a752d)" style="fill: #1f77b4; opacity: 0.5"/>
   </g>
   <g id="patch_152">
    <path d="M 316.1864 288.645994 
L 317.80773 288.645994 
L 317.80773 288.645994 
L 316.1864 288.645994 
z
" clip-path="url(#p2cd27a752d)" style="fill: #1f77b4; opacity: 0.5"/>
   </g>
   <g id="patch_153">
    <path d="M 317.80773 288.645994 
L 319.42906 288.645994 
L 319.42906 288.645994 
L 317.80773 288.645994 
z
" clip-path="url(#p2cd27a752d)" style="fill: #1f77b4; opacity: 0.5"/>
   </g>
   <g id="patch_154">
    <path d="M 319.42906 288.645994 
L 321.05039 288.645994 
L 321.05039 288.645994 
L 319.42906 288.645994 
z
" clip-path="url(#p2cd27a752d)" style="fill: #1f77b4; opacity: 0.5"/>
   </g>
   <g id="patch_155">
    <path d="M 321.05039 288.645994 
L 322.67172 288.645994 
L 322.67172 288.645994 
L 321.05039 288.645994 
z
" clip-path="url(#p2cd27a752d)" style="fill: #1f77b4; opacity: 0.5"/>
   </g>
   <g id="patch_156">
    <path d="M 322.67172 288.645994 
L 324.29305 288.645994 
L 324.29305 288.645994 
L 322.67172 288.645994 
z
" clip-path="url(#p2cd27a752d)" style="fill: #1f77b4; opacity: 0.5"/>
   </g>
   <g id="patch_157">
    <path d="M 324.29305 288.645994 
L 325.91438 288.645994 
L 325.91438 288.645994 
L 324.29305 288.645994 
z
" clip-path="url(#p2cd27a752d)" style="fill: #1f77b4; opacity: 0.5"/>
   </g>
   <g id="patch_158">
    <path d="M 325.91438 288.645994 
L 327.53571 288.645994 
L 327.53571 288.645994 
L 325.91438 288.645994 
z
" clip-path="url(#p2cd27a752d)" style="fill: #1f77b4; opacity: 0.5"/>
   </g>
   <g id="patch_159">
    <path d="M 327.53571 288.645994 
L 329.15704 288.645994 
L 329.15704 288.645994 
L 327.53571 288.645994 
z
" clip-path="url(#p2cd27a752d)" style="fill: #1f77b4; opacity: 0.5"/>
   </g>
   <g id="patch_160">
    <path d="M 329.15704 288.645994 
L 330.77837 288.645994 
L 330.77837 288.645994 
L 329.15704 288.645994 
z
" clip-path="url(#p2cd27a752d)" style="fill: #1f77b4; opacity: 0.5"/>
   </g>
   <g id="patch_161">
    <path d="M 330.77837 288.645994 
L 332.3997 288.645994 
L 332.3997 288.645994 
L 330.77837 288.645994 
z
" clip-path="url(#p2cd27a752d)" style="fill: #1f77b4; opacity: 0.5"/>
   </g>
   <g id="patch_162">
    <path d="M 332.3997 288.645994 
L 334.02103 288.645994 
L 334.02103 288.645994 
L 332.3997 288.645994 
z
" clip-path="url(#p2cd27a752d)" style="fill: #1f77b4; opacity: 0.5"/>
   </g>
   <g id="patch_163">
    <path d="M 334.02103 288.645994 
L 335.64236 288.645994 
L 335.64236 288.645994 
L 334.02103 288.645994 
z
" clip-path="url(#p2cd27a752d)" style="fill: #1f77b4; opacity: 0.5"/>
   </g>
   <g id="patch_164">
    <path d="M 335.64236 288.645994 
L 337.26369 288.645994 
L 337.26369 288.645994 
L 335.64236 288.645994 
z
" clip-path="url(#p2cd27a752d)" style="fill: #1f77b4; opacity: 0.5"/>
   </g>
   <g id="patch_165">
    <path d="M 337.26369 288.645994 
L 338.88502 288.645994 
L 338.88502 288.645994 
L 337.26369 288.645994 
z
" clip-path="url(#p2cd27a752d)" style="fill: #1f77b4; opacity: 0.5"/>
   </g>
   <g id="patch_166">
    <path d="M 338.88502 288.645994 
L 340.50635 288.645994 
L 340.50635 288.645994 
L 338.88502 288.645994 
z
" clip-path="url(#p2cd27a752d)" style="fill: #1f77b4; opacity: 0.5"/>
   </g>
   <g id="patch_167">
    <path d="M 340.50635 288.645994 
L 342.12768 288.645994 
L 342.12768 288.645994 
L 340.50635 288.645994 
z
" clip-path="url(#p2cd27a752d)" style="fill: #1f77b4; opacity: 0.5"/>
   </g>
   <g id="patch_168">
    <path d="M 342.12768 288.645994 
L 343.74901 288.645994 
L 343.74901 288.645994 
L 342.12768 288.645994 
z
" clip-path="url(#p2cd27a752d)" style="fill: #1f77b4; opacity: 0.5"/>
   </g>
   <g id="patch_169">
    <path d="M 343.74901 288.645994 
L 345.37034 288.645994 
L 345.37034 288.645994 
L 343.74901 288.645994 
z
" clip-path="url(#p2cd27a752d)" style="fill: #1f77b4; opacity: 0.5"/>
   </g>
   <g id="patch_170">
    <path d="M 345.37034 288.645994 
L 346.99167 288.645994 
L 346.99167 288.645994 
L 345.37034 288.645994 
z
" clip-path="url(#p2cd27a752d)" style="fill: #1f77b4; opacity: 0.5"/>
   </g>
   <g id="patch_171">
    <path d="M 346.99167 288.645994 
L 348.613 288.645994 
L 348.613 288.645994 
L 346.99167 288.645994 
z
" clip-path="url(#p2cd27a752d)" style="fill: #1f77b4; opacity: 0.5"/>
   </g>
   <g id="patch_172">
    <path d="M 348.613 288.645994 
L 350.23433 288.645994 
L 350.23433 288.645994 
L 348.613 288.645994 
z
" clip-path="url(#p2cd27a752d)" style="fill: #1f77b4; opacity: 0.5"/>
   </g>
   <g id="patch_173">
    <path d="M 350.23433 288.645994 
L 351.85566 288.645994 
L 351.85566 288.645994 
L 350.23433 288.645994 
z
" clip-path="url(#p2cd27a752d)" style="fill: #1f77b4; opacity: 0.5"/>
   </g>
   <g id="patch_174">
    <path d="M 351.85566 288.645994 
L 353.47699 288.645994 
L 353.47699 288.645994 
L 351.85566 288.645994 
z
" clip-path="url(#p2cd27a752d)" style="fill: #1f77b4; opacity: 0.5"/>
   </g>
   <g id="patch_175">
    <path d="M 353.47699 288.645994 
L 355.09832 288.645994 
L 355.09832 288.645994 
L 353.47699 288.645994 
z
" clip-path="url(#p2cd27a752d)" style="fill: #1f77b4; opacity: 0.5"/>
   </g>
   <g id="patch_176">
    <path d="M 355.09832 288.645994 
L 356.71965 288.645994 
L 356.71965 288.645994 
L 355.09832 288.645994 
z
" clip-path="url(#p2cd27a752d)" style="fill: #1f77b4; opacity: 0.5"/>
   </g>
   <g id="patch_177">
    <path d="M 356.71965 288.645994 
L 358.34098 288.645994 
L 358.34098 288.645994 
L 356.71965 288.645994 
z
" clip-path="url(#p2cd27a752d)" style="fill: #1f77b4; opacity: 0.5"/>
   </g>
   <g id="patch_178">
    <path d="M 358.34098 288.645994 
L 359.96231 288.645994 
L 359.96231 288.645994 
L 358.34098 288.645994 
z
" clip-path="url(#p2cd27a752d)" style="fill: #1f77b4; opacity: 0.5"/>
   </g>
   <g id="patch_179">
    <path d="M 359.96231 288.645994 
L 361.58364 288.645994 
L 361.58364 288.645994 
L 359.96231 288.645994 
z
" clip-path="url(#p2cd27a752d)" style="fill: #1f77b4; opacity: 0.5"/>
   </g>
   <g id="patch_180">
    <path d="M 361.58364 288.645994 
L 363.20497 288.645994 
L 363.20497 288.645994 
L 361.58364 288.645994 
z
" clip-path="url(#p2cd27a752d)" style="fill: #1f77b4; opacity: 0.5"/>
   </g>
   <g id="patch_181">
    <path d="M 363.20497 288.645994 
L 364.8263 288.645994 
L 364.8263 288.429461 
L 363.20497 288.429461 
z
" clip-path="url(#p2cd27a752d)" style="fill: #1f77b4; opacity: 0.5"/>
   </g>
   <g id="patch_182">
    <path d="M 364.8263 288.645994 
L 366.44763 288.645994 
L 366.44763 288.645994 
L 364.8263 288.645994 
z
" clip-path="url(#p2cd27a752d)" style="fill: #1f77b4; opacity: 0.5"/>
   </g>
   <g id="patch_183">
    <path d="M 366.44763 288.645994 
L 368.06896 288.645994 
L 368.06896 288.645994 
L 366.44763 288.645994 
z
" clip-path="url(#p2cd27a752d)" style="fill: #1f77b4; opacity: 0.5"/>
   </g>
   <g id="patch_184">
    <path d="M 368.06896 288.645994 
L 369.69029 288.645994 
L 369.69029 288.645994 
L 368.06896 288.645994 
z
" clip-path="url(#p2cd27a752d)" style="fill: #1f77b4; opacity: 0.5"/>
   </g>
   <g id="patch_185">
    <path d="M 369.69029 288.645994 
L 371.31162 288.645994 
L 371.31162 288.645994 
L 369.69029 288.645994 
z
" clip-path="url(#p2cd27a752d)" style="fill: #1f77b4; opacity: 0.5"/>
   </g>
   <g id="patch_186">
    <path d="M 371.31162 288.645994 
L 372.93295 288.645994 
L 372.93295 288.645994 
L 371.31162 288.645994 
z
" clip-path="url(#p2cd27a752d)" style="fill: #1f77b4; opacity: 0.5"/>
   </g>
   <g id="patch_187">
    <path d="M 372.93295 288.645994 
L 374.55428 288.645994 
L 374.55428 288.645994 
L 372.93295 288.645994 
z
" clip-path="url(#p2cd27a752d)" style="fill: #1f77b4; opacity: 0.5"/>
   </g>
   <g id="patch_188">
    <path d="M 374.55428 288.645994 
L 376.17561 288.645994 
L 376.17561 288.645994 
L 374.55428 288.645994 
z
" clip-path="url(#p2cd27a752d)" style="fill: #1f77b4; opacity: 0.5"/>
   </g>
   <g id="patch_189">
    <path d="M 376.17561 288.645994 
L 377.79694 288.645994 
L 377.79694 288.645994 
L 376.17561 288.645994 
z
" clip-path="url(#p2cd27a752d)" style="fill: #1f77b4; opacity: 0.5"/>
   </g>
   <g id="patch_190">
    <path d="M 377.79694 288.645994 
L 379.41827 288.645994 
L 379.41827 288.645994 
L 377.79694 288.645994 
z
" clip-path="url(#p2cd27a752d)" style="fill: #1f77b4; opacity: 0.5"/>
   </g>
   <g id="patch_191">
    <path d="M 379.41827 288.645994 
L 381.0396 288.645994 
L 381.0396 288.645994 
L 379.41827 288.645994 
z
" clip-path="url(#p2cd27a752d)" style="fill: #1f77b4; opacity: 0.5"/>
   </g>
   <g id="patch_192">
    <path d="M 381.0396 288.645994 
L 382.66093 288.645994 
L 382.66093 288.645994 
L 381.0396 288.645994 
z
" clip-path="url(#p2cd27a752d)" style="fill: #1f77b4; opacity: 0.5"/>
   </g>
   <g id="patch_193">
    <path d="M 382.66093 288.645994 
L 384.28226 288.645994 
L 384.28226 288.645994 
L 382.66093 288.645994 
z
" clip-path="url(#p2cd27a752d)" style="fill: #1f77b4; opacity: 0.5"/>
   </g>
   <g id="patch_194">
    <path d="M 384.28226 288.645994 
L 385.90359 288.645994 
L 385.90359 288.645994 
L 384.28226 288.645994 
z
" clip-path="url(#p2cd27a752d)" style="fill: #1f77b4; opacity: 0.5"/>
   </g>
   <g id="patch_195">
    <path d="M 385.90359 288.645994 
L 387.52492 288.645994 
L 387.52492 288.645994 
L 385.90359 288.645994 
z
" clip-path="url(#p2cd27a752d)" style="fill: #1f77b4; opacity: 0.5"/>
   </g>
   <g id="patch_196">
    <path d="M 387.52492 288.645994 
L 389.14625 288.645994 
L 389.14625 288.645994 
L 387.52492 288.645994 
z
" clip-path="url(#p2cd27a752d)" style="fill: #1f77b4; opacity: 0.5"/>
   </g>
   <g id="patch_197">
    <path d="M 389.14625 288.645994 
L 390.76758 288.645994 
L 390.76758 288.645994 
L 389.14625 288.645994 
z
" clip-path="url(#p2cd27a752d)" style="fill: #1f77b4; opacity: 0.5"/>
   </g>
   <g id="patch_198">
    <path d="M 390.76758 288.645994 
L 392.38891 288.645994 
L 392.38891 288.645994 
L 390.76758 288.645994 
z
" clip-path="url(#p2cd27a752d)" style="fill: #1f77b4; opacity: 0.5"/>
   </g>
   <g id="patch_199">
    <path d="M 392.38891 288.645994 
L 394.01024 288.645994 
L 394.01024 288.645994 
L 392.38891 288.645994 
z
" clip-path="url(#p2cd27a752d)" style="fill: #1f77b4; opacity: 0.5"/>
   </g>
   <g id="patch_200">
    <path d="M 394.01024 288.645994 
L 395.63157 288.645994 
L 395.63157 288.645994 
L 394.01024 288.645994 
z
" clip-path="url(#p2cd27a752d)" style="fill: #1f77b4; opacity: 0.5"/>
   </g>
   <g id="patch_201">
    <path d="M 395.63157 288.645994 
L 397.2529 288.645994 
L 397.2529 288.645994 
L 395.63157 288.645994 
z
" clip-path="url(#p2cd27a752d)" style="fill: #1f77b4; opacity: 0.5"/>
   </g>
   <g id="patch_202">
    <path d="M 397.2529 288.645994 
L 398.87423 288.645994 
L 398.87423 288.645994 
L 397.2529 288.645994 
z
" clip-path="url(#p2cd27a752d)" style="fill: #1f77b4; opacity: 0.5"/>
   </g>
   <g id="patch_203">
    <path d="M 398.87423 288.645994 
L 400.49556 288.645994 
L 400.49556 288.645994 
L 398.87423 288.645994 
z
" clip-path="url(#p2cd27a752d)" style="fill: #1f77b4; opacity: 0.5"/>
   </g>
   <g id="patch_204">
    <path d="M 400.49556 288.645994 
L 402.11689 288.645994 
L 402.11689 288.645994 
L 400.49556 288.645994 
z
" clip-path="url(#p2cd27a752d)" style="fill: #1f77b4; opacity: 0.5"/>
   </g>
   <g id="patch_205">
    <path d="M 402.11689 288.645994 
L 403.73822 288.645994 
L 403.73822 288.645994 
L 402.11689 288.645994 
z
" clip-path="url(#p2cd27a752d)" style="fill: #1f77b4; opacity: 0.5"/>
   </g>
   <g id="patch_206">
    <path d="M 403.73822 288.645994 
L 405.35955 288.645994 
L 405.35955 288.645994 
L 403.73822 288.645994 
z
" clip-path="url(#p2cd27a752d)" style="fill: #1f77b4; opacity: 0.5"/>
   </g>
   <g id="patch_207">
    <path d="M 405.35955 288.645994 
L 406.98088 288.645994 
L 406.98088 288.645994 
L 405.35955 288.645994 
z
" clip-path="url(#p2cd27a752d)" style="fill: #1f77b4; opacity: 0.5"/>
   </g>
   <g id="patch_208">
    <path d="M 406.98088 288.645994 
L 408.60221 288.645994 
L 408.60221 288.645994 
L 406.98088 288.645994 
z
" clip-path="url(#p2cd27a752d)" style="fill: #1f77b4; opacity: 0.5"/>
   </g>
   <g id="patch_209">
    <path d="M 408.60221 288.645994 
L 410.22354 288.645994 
L 410.22354 288.645994 
L 408.60221 288.645994 
z
" clip-path="url(#p2cd27a752d)" style="fill: #1f77b4; opacity: 0.5"/>
   </g>
   <g id="patch_210">
    <path d="M 410.22354 288.645994 
L 411.84487 288.645994 
L 411.84487 288.645994 
L 410.22354 288.645994 
z
" clip-path="url(#p2cd27a752d)" style="fill: #1f77b4; opacity: 0.5"/>
   </g>
   <g id="patch_211">
    <path d="M 411.84487 288.645994 
L 413.4662 288.645994 
L 413.4662 288.645994 
L 411.84487 288.645994 
z
" clip-path="url(#p2cd27a752d)" style="fill: #1f77b4; opacity: 0.5"/>
   </g>
   <g id="patch_212">
    <path d="M 413.4662 288.645994 
L 415.08753 288.645994 
L 415.08753 288.645994 
L 413.4662 288.645994 
z
" clip-path="url(#p2cd27a752d)" style="fill: #1f77b4; opacity: 0.5"/>
   </g>
   <g id="patch_213">
    <path d="M 415.08753 288.645994 
L 416.70886 288.645994 
L 416.70886 288.645994 
L 415.08753 288.645994 
z
" clip-path="url(#p2cd27a752d)" style="fill: #1f77b4; opacity: 0.5"/>
   </g>
   <g id="patch_214">
    <path d="M 416.70886 288.645994 
L 418.33019 288.645994 
L 418.33019 288.645994 
L 416.70886 288.645994 
z
" clip-path="url(#p2cd27a752d)" style="fill: #1f77b4; opacity: 0.5"/>
   </g>
   <g id="patch_215">
    <path d="M 418.33019 288.645994 
L 419.95152 288.645994 
L 419.95152 288.645994 
L 418.33019 288.645994 
z
" clip-path="url(#p2cd27a752d)" style="fill: #1f77b4; opacity: 0.5"/>
   </g>
   <g id="patch_216">
    <path d="M 419.95152 288.645994 
L 421.57285 288.645994 
L 421.57285 288.537727 
L 419.95152 288.537727 
z
" clip-path="url(#p2cd27a752d)" style="fill: #1f77b4; opacity: 0.5"/>
   </g>
   <g id="matplotlib.axis_1">
    <g id="xtick_1">
     <g id="line2d_1">
      <defs>
       <path id="mc2713dec9f" d="M 0 0 
L 0 3.5 
" style="stroke: #000000; stroke-width: 0.8"/>
      </defs>
      <g>
       <use xlink:href="#mc2713dec9f" x="73.590869" y="288.645994" style="stroke: #000000; stroke-width: 0.8"/>
      </g>
     </g>
     <g id="text_1">
      <!-- 0 -->
      <g transform="translate(73.292558 305.517867) rotate(-45) scale(0.1 -0.1)">
       <defs>
        <path id="DejaVuSans-30" d="M 2034 4250 
Q 1547 4250 1301 3770 
Q 1056 3291 1056 2328 
Q 1056 1369 1301 889 
Q 1547 409 2034 409 
Q 2525 409 2770 889 
Q 3016 1369 3016 2328 
Q 3016 3291 2770 3770 
Q 2525 4250 2034 4250 
z
M 2034 4750 
Q 2819 4750 3233 4129 
Q 3647 3509 3647 2328 
Q 3647 1150 3233 529 
Q 2819 -91 2034 -91 
Q 1250 -91 836 529 
Q 422 1150 422 2328 
Q 422 3509 836 4129 
Q 1250 4750 2034 4750 
z
" transform="scale(0.015625)"/>
       </defs>
       <use xlink:href="#DejaVuSans-30"/>
      </g>
     </g>
    </g>
    <g id="xtick_2">
     <g id="line2d_2">
      <g>
       <use xlink:href="#mc2713dec9f" x="125.558287" y="288.645994" style="stroke: #000000; stroke-width: 0.8"/>
      </g>
     </g>
     <g id="text_2">
      <!-- 1000 -->
      <g transform="translate(118.511526 319.014768) rotate(-45) scale(0.1 -0.1)">
       <defs>
        <path id="DejaVuSans-31" d="M 794 531 
L 1825 531 
L 1825 4091 
L 703 3866 
L 703 4441 
L 1819 4666 
L 2450 4666 
L 2450 531 
L 3481 531 
L 3481 0 
L 794 0 
L 794 531 
z
" transform="scale(0.015625)"/>
       </defs>
       <use xlink:href="#DejaVuSans-31"/>
       <use xlink:href="#DejaVuSans-30" x="63.623047"/>
       <use xlink:href="#DejaVuSans-30" x="127.246094"/>
       <use xlink:href="#DejaVuSans-30" x="190.869141"/>
      </g>
     </g>
    </g>
    <g id="xtick_3">
     <g id="line2d_3">
      <g>
       <use xlink:href="#mc2713dec9f" x="177.525706" y="288.645994" style="stroke: #000000; stroke-width: 0.8"/>
      </g>
     </g>
     <g id="text_3">
      <!-- 2000 -->
      <g transform="translate(170.478945 319.014768) rotate(-45) scale(0.1 -0.1)">
       <defs>
        <path id="DejaVuSans-32" d="M 1228 531 
L 3431 531 
L 3431 0 
L 469 0 
L 469 531 
Q 828 903 1448 1529 
Q 2069 2156 2228 2338 
Q 2531 2678 2651 2914 
Q 2772 3150 2772 3378 
Q 2772 3750 2511 3984 
Q 2250 4219 1831 4219 
Q 1534 4219 1204 4116 
Q 875 4013 500 3803 
L 500 4441 
Q 881 4594 1212 4672 
Q 1544 4750 1819 4750 
Q 2544 4750 2975 4387 
Q 3406 4025 3406 3419 
Q 3406 3131 3298 2873 
Q 3191 2616 2906 2266 
Q 2828 2175 2409 1742 
Q 1991 1309 1228 531 
z
" transform="scale(0.015625)"/>
       </defs>
       <use xlink:href="#DejaVuSans-32"/>
       <use xlink:href="#DejaVuSans-30" x="63.623047"/>
       <use xlink:href="#DejaVuSans-30" x="127.246094"/>
       <use xlink:href="#DejaVuSans-30" x="190.869141"/>
      </g>
     </g>
    </g>
    <g id="xtick_4">
     <g id="line2d_4">
      <g>
       <use xlink:href="#mc2713dec9f" x="229.493124" y="288.645994" style="stroke: #000000; stroke-width: 0.8"/>
      </g>
     </g>
     <g id="text_4">
      <!-- 3000 -->
      <g transform="translate(222.446363 319.014768) rotate(-45) scale(0.1 -0.1)">
       <defs>
        <path id="DejaVuSans-33" d="M 2597 2516 
Q 3050 2419 3304 2112 
Q 3559 1806 3559 1356 
Q 3559 666 3084 287 
Q 2609 -91 1734 -91 
Q 1441 -91 1130 -33 
Q 819 25 488 141 
L 488 750 
Q 750 597 1062 519 
Q 1375 441 1716 441 
Q 2309 441 2620 675 
Q 2931 909 2931 1356 
Q 2931 1769 2642 2001 
Q 2353 2234 1838 2234 
L 1294 2234 
L 1294 2753 
L 1863 2753 
Q 2328 2753 2575 2939 
Q 2822 3125 2822 3475 
Q 2822 3834 2567 4026 
Q 2313 4219 1838 4219 
Q 1578 4219 1281 4162 
Q 984 4106 628 3988 
L 628 4550 
Q 988 4650 1302 4700 
Q 1616 4750 1894 4750 
Q 2613 4750 3031 4423 
Q 3450 4097 3450 3541 
Q 3450 3153 3228 2886 
Q 3006 2619 2597 2516 
z
" transform="scale(0.015625)"/>
       </defs>
       <use xlink:href="#DejaVuSans-33"/>
       <use xlink:href="#DejaVuSans-30" x="63.623047"/>
       <use xlink:href="#DejaVuSans-30" x="127.246094"/>
       <use xlink:href="#DejaVuSans-30" x="190.869141"/>
      </g>
     </g>
    </g>
    <g id="xtick_5">
     <g id="line2d_5">
      <g>
       <use xlink:href="#mc2713dec9f" x="281.460543" y="288.645994" style="stroke: #000000; stroke-width: 0.8"/>
      </g>
     </g>
     <g id="text_5">
      <!-- 4000 -->
      <g transform="translate(274.413782 319.014768) rotate(-45) scale(0.1 -0.1)">
       <defs>
        <path id="DejaVuSans-34" d="M 2419 4116 
L 825 1625 
L 2419 1625 
L 2419 4116 
z
M 2253 4666 
L 3047 4666 
L 3047 1625 
L 3713 1625 
L 3713 1100 
L 3047 1100 
L 3047 0 
L 2419 0 
L 2419 1100 
L 313 1100 
L 313 1709 
L 2253 4666 
z
" transform="scale(0.015625)"/>
       </defs>
       <use xlink:href="#DejaVuSans-34"/>
       <use xlink:href="#DejaVuSans-30" x="63.623047"/>
       <use xlink:href="#DejaVuSans-30" x="127.246094"/>
       <use xlink:href="#DejaVuSans-30" x="190.869141"/>
      </g>
     </g>
    </g>
    <g id="xtick_6">
     <g id="line2d_6">
      <g>
       <use xlink:href="#mc2713dec9f" x="333.427961" y="288.645994" style="stroke: #000000; stroke-width: 0.8"/>
      </g>
     </g>
     <g id="text_6">
      <!-- 5000 -->
      <g transform="translate(326.3812 319.014768) rotate(-45) scale(0.1 -0.1)">
       <defs>
        <path id="DejaVuSans-35" d="M 691 4666 
L 3169 4666 
L 3169 4134 
L 1269 4134 
L 1269 2991 
Q 1406 3038 1543 3061 
Q 1681 3084 1819 3084 
Q 2600 3084 3056 2656 
Q 3513 2228 3513 1497 
Q 3513 744 3044 326 
Q 2575 -91 1722 -91 
Q 1428 -91 1123 -41 
Q 819 9 494 109 
L 494 744 
Q 775 591 1075 516 
Q 1375 441 1709 441 
Q 2250 441 2565 725 
Q 2881 1009 2881 1497 
Q 2881 1984 2565 2268 
Q 2250 2553 1709 2553 
Q 1456 2553 1204 2497 
Q 953 2441 691 2322 
L 691 4666 
z
" transform="scale(0.015625)"/>
       </defs>
       <use xlink:href="#DejaVuSans-35"/>
       <use xlink:href="#DejaVuSans-30" x="63.623047"/>
       <use xlink:href="#DejaVuSans-30" x="127.246094"/>
       <use xlink:href="#DejaVuSans-30" x="190.869141"/>
      </g>
     </g>
    </g>
    <g id="xtick_7">
     <g id="line2d_7">
      <g>
       <use xlink:href="#mc2713dec9f" x="385.39538" y="288.645994" style="stroke: #000000; stroke-width: 0.8"/>
      </g>
     </g>
     <g id="text_7">
      <!-- 6000 -->
      <g transform="translate(378.348619 319.014768) rotate(-45) scale(0.1 -0.1)">
       <defs>
        <path id="DejaVuSans-36" d="M 2113 2584 
Q 1688 2584 1439 2293 
Q 1191 2003 1191 1497 
Q 1191 994 1439 701 
Q 1688 409 2113 409 
Q 2538 409 2786 701 
Q 3034 994 3034 1497 
Q 3034 2003 2786 2293 
Q 2538 2584 2113 2584 
z
M 3366 4563 
L 3366 3988 
Q 3128 4100 2886 4159 
Q 2644 4219 2406 4219 
Q 1781 4219 1451 3797 
Q 1122 3375 1075 2522 
Q 1259 2794 1537 2939 
Q 1816 3084 2150 3084 
Q 2853 3084 3261 2657 
Q 3669 2231 3669 1497 
Q 3669 778 3244 343 
Q 2819 -91 2113 -91 
Q 1303 -91 875 529 
Q 447 1150 447 2328 
Q 447 3434 972 4092 
Q 1497 4750 2381 4750 
Q 2619 4750 2861 4703 
Q 3103 4656 3366 4563 
z
" transform="scale(0.015625)"/>
       </defs>
       <use xlink:href="#DejaVuSans-36"/>
       <use xlink:href="#DejaVuSans-30" x="63.623047"/>
       <use xlink:href="#DejaVuSans-30" x="127.246094"/>
       <use xlink:href="#DejaVuSans-30" x="190.869141"/>
      </g>
     </g>
    </g>
    <g id="xtick_8">
     <g id="line2d_8">
      <g>
       <use xlink:href="#mc2713dec9f" x="437.362798" y="288.645994" style="stroke: #000000; stroke-width: 0.8"/>
      </g>
     </g>
     <g id="text_8">
      <!-- 7000 -->
      <g transform="translate(430.316037 319.014768) rotate(-45) scale(0.1 -0.1)">
       <defs>
        <path id="DejaVuSans-37" d="M 525 4666 
L 3525 4666 
L 3525 4397 
L 1831 0 
L 1172 0 
L 2766 4134 
L 525 4134 
L 525 4666 
z
" transform="scale(0.015625)"/>
       </defs>
       <use xlink:href="#DejaVuSans-37"/>
       <use xlink:href="#DejaVuSans-30" x="63.623047"/>
       <use xlink:href="#DejaVuSans-30" x="127.246094"/>
       <use xlink:href="#DejaVuSans-30" x="190.869141"/>
      </g>
     </g>
    </g>
    <g id="text_9">
     <!-- Werte -->
     <g transform="translate(233.27179 332.083766) scale(0.1 -0.1)">
      <defs>
       <path id="DejaVuSans-57" d="M 213 4666 
L 850 4666 
L 1831 722 
L 2809 4666 
L 3519 4666 
L 4500 722 
L 5478 4666 
L 6119 4666 
L 4947 0 
L 4153 0 
L 3169 4050 
L 2175 0 
L 1381 0 
L 213 4666 
z
" transform="scale(0.015625)"/>
       <path id="DejaVuSans-65" d="M 3597 1894 
L 3597 1613 
L 953 1613 
Q 991 1019 1311 708 
Q 1631 397 2203 397 
Q 2534 397 2845 478 
Q 3156 559 3463 722 
L 3463 178 
Q 3153 47 2828 -22 
Q 2503 -91 2169 -91 
Q 1331 -91 842 396 
Q 353 884 353 1716 
Q 353 2575 817 3079 
Q 1281 3584 2069 3584 
Q 2775 3584 3186 3129 
Q 3597 2675 3597 1894 
z
M 3022 2063 
Q 3016 2534 2758 2815 
Q 2500 3097 2075 3097 
Q 1594 3097 1305 2825 
Q 1016 2553 972 2059 
L 3022 2063 
z
" transform="scale(0.015625)"/>
       <path id="DejaVuSans-72" d="M 2631 2963 
Q 2534 3019 2420 3045 
Q 2306 3072 2169 3072 
Q 1681 3072 1420 2755 
Q 1159 2438 1159 1844 
L 1159 0 
L 581 0 
L 581 3500 
L 1159 3500 
L 1159 2956 
Q 1341 3275 1631 3429 
Q 1922 3584 2338 3584 
Q 2397 3584 2469 3576 
Q 2541 3569 2628 3553 
L 2631 2963 
z
" transform="scale(0.015625)"/>
       <path id="DejaVuSans-74" d="M 1172 4494 
L 1172 3500 
L 2356 3500 
L 2356 3053 
L 1172 3053 
L 1172 1153 
Q 1172 725 1289 603 
Q 1406 481 1766 481 
L 2356 481 
L 2356 0 
L 1766 0 
Q 1100 0 847 248 
Q 594 497 594 1153 
L 594 3053 
L 172 3053 
L 172 3500 
L 594 3500 
L 594 4494 
L 1172 4494 
z
" transform="scale(0.015625)"/>
      </defs>
      <use xlink:href="#DejaVuSans-57"/>
      <use xlink:href="#DejaVuSans-65" x="93.001953"/>
      <use xlink:href="#DejaVuSans-72" x="154.525391"/>
      <use xlink:href="#DejaVuSans-74" x="195.638672"/>
      <use xlink:href="#DejaVuSans-65" x="234.847656"/>
     </g>
    </g>
   </g>
   <g id="matplotlib.axis_2">
    <g id="ytick_1">
     <g id="line2d_9">
      <defs>
       <path id="m379004b95a" d="M 0 0 
L -3.5 0 
" style="stroke: #000000; stroke-width: 0.8"/>
      </defs>
      <g>
       <use xlink:href="#m379004b95a" x="57.26" y="288.645994" style="stroke: #000000; stroke-width: 0.8"/>
      </g>
     </g>
     <g id="text_10">
      <!-- 0 -->
      <g transform="translate(43.8975 292.445212) scale(0.1 -0.1)">
       <use xlink:href="#DejaVuSans-30"/>
      </g>
     </g>
    </g>
    <g id="ytick_2">
     <g id="line2d_10">
      <g>
       <use xlink:href="#m379004b95a" x="57.26" y="234.512893" style="stroke: #000000; stroke-width: 0.8"/>
      </g>
     </g>
     <g id="text_11">
      <!-- 500 -->
      <g transform="translate(31.1725 238.312111) scale(0.1 -0.1)">
       <use xlink:href="#DejaVuSans-35"/>
       <use xlink:href="#DejaVuSans-30" x="63.623047"/>
       <use xlink:href="#DejaVuSans-30" x="127.246094"/>
      </g>
     </g>
    </g>
    <g id="ytick_3">
     <g id="line2d_11">
      <g>
       <use xlink:href="#m379004b95a" x="57.26" y="180.379791" style="stroke: #000000; stroke-width: 0.8"/>
      </g>
     </g>
     <g id="text_12">
      <!-- 1000 -->
      <g transform="translate(24.81 184.17901) scale(0.1 -0.1)">
       <use xlink:href="#DejaVuSans-31"/>
       <use xlink:href="#DejaVuSans-30" x="63.623047"/>
       <use xlink:href="#DejaVuSans-30" x="127.246094"/>
       <use xlink:href="#DejaVuSans-30" x="190.869141"/>
      </g>
     </g>
    </g>
    <g id="ytick_4">
     <g id="line2d_12">
      <g>
       <use xlink:href="#m379004b95a" x="57.26" y="126.24669" style="stroke: #000000; stroke-width: 0.8"/>
      </g>
     </g>
     <g id="text_13">
      <!-- 1500 -->
      <g transform="translate(24.81 130.045909) scale(0.1 -0.1)">
       <use xlink:href="#DejaVuSans-31"/>
       <use xlink:href="#DejaVuSans-35" x="63.623047"/>
       <use xlink:href="#DejaVuSans-30" x="127.246094"/>
       <use xlink:href="#DejaVuSans-30" x="190.869141"/>
      </g>
     </g>
    </g>
    <g id="ytick_5">
     <g id="line2d_13">
      <g>
       <use xlink:href="#m379004b95a" x="57.26" y="72.113589" style="stroke: #000000; stroke-width: 0.8"/>
      </g>
     </g>
     <g id="text_14">
      <!-- 2000 -->
      <g transform="translate(24.81 75.912808) scale(0.1 -0.1)">
       <use xlink:href="#DejaVuSans-32"/>
       <use xlink:href="#DejaVuSans-30" x="63.623047"/>
       <use xlink:href="#DejaVuSans-30" x="127.246094"/>
       <use xlink:href="#DejaVuSans-30" x="190.869141"/>
      </g>
     </g>
    </g>
    <g id="text_15">
     <!-- Hufigkeit -->
     <g transform="translate(18.730313 182.859247) rotate(-90) scale(0.1 -0.1)">
      <defs>
       <path id="DejaVuSans-48" d="M 628 4666 
L 1259 4666 
L 1259 2753 
L 3553 2753 
L 3553 4666 
L 4184 4666 
L 4184 0 
L 3553 0 
L 3553 2222 
L 1259 2222 
L 1259 0 
L 628 0 
L 628 4666 
z
" transform="scale(0.015625)"/>
       <path id="DejaVuSans-e4" d="M 2194 1759 
Q 1497 1759 1228 1600 
Q 959 1441 959 1056 
Q 959 750 1161 570 
Q 1363 391 1709 391 
Q 2188 391 2477 730 
Q 2766 1069 2766 1631 
L 2766 1759 
L 2194 1759 
z
M 3341 1997 
L 3341 0 
L 2766 0 
L 2766 531 
Q 2569 213 2275 61 
Q 1981 -91 1556 -91 
Q 1019 -91 701 211 
Q 384 513 384 1019 
Q 384 1609 779 1909 
Q 1175 2209 1959 2209 
L 2766 2209 
L 2766 2266 
Q 2766 2663 2505 2880 
Q 2244 3097 1772 3097 
Q 1472 3097 1187 3025 
Q 903 2953 641 2809 
L 641 3341 
Q 956 3463 1253 3523 
Q 1550 3584 1831 3584 
Q 2591 3584 2966 3190 
Q 3341 2797 3341 1997 
z
M 2150 4850 
L 2784 4850 
L 2784 4219 
L 2150 4219 
L 2150 4850 
z
M 928 4850 
L 1563 4850 
L 1563 4219 
L 928 4219 
L 928 4850 
z
" transform="scale(0.015625)"/>
       <path id="DejaVuSans-75" d="M 544 1381 
L 544 3500 
L 1119 3500 
L 1119 1403 
Q 1119 906 1312 657 
Q 1506 409 1894 409 
Q 2359 409 2629 706 
Q 2900 1003 2900 1516 
L 2900 3500 
L 3475 3500 
L 3475 0 
L 2900 0 
L 2900 538 
Q 2691 219 2414 64 
Q 2138 -91 1772 -91 
Q 1169 -91 856 284 
Q 544 659 544 1381 
z
M 1991 3584 
L 1991 3584 
z
" transform="scale(0.015625)"/>
       <path id="DejaVuSans-66" d="M 2375 4863 
L 2375 4384 
L 1825 4384 
Q 1516 4384 1395 4259 
Q 1275 4134 1275 3809 
L 1275 3500 
L 2222 3500 
L 2222 3053 
L 1275 3053 
L 1275 0 
L 697 0 
L 697 3053 
L 147 3053 
L 147 3500 
L 697 3500 
L 697 3744 
Q 697 4328 969 4595 
Q 1241 4863 1831 4863 
L 2375 4863 
z
" transform="scale(0.015625)"/>
       <path id="DejaVuSans-69" d="M 603 3500 
L 1178 3500 
L 1178 0 
L 603 0 
L 603 3500 
z
M 603 4863 
L 1178 4863 
L 1178 4134 
L 603 4134 
L 603 4863 
z
" transform="scale(0.015625)"/>
       <path id="DejaVuSans-67" d="M 2906 1791 
Q 2906 2416 2648 2759 
Q 2391 3103 1925 3103 
Q 1463 3103 1205 2759 
Q 947 2416 947 1791 
Q 947 1169 1205 825 
Q 1463 481 1925 481 
Q 2391 481 2648 825 
Q 2906 1169 2906 1791 
z
M 3481 434 
Q 3481 -459 3084 -895 
Q 2688 -1331 1869 -1331 
Q 1566 -1331 1297 -1286 
Q 1028 -1241 775 -1147 
L 775 -588 
Q 1028 -725 1275 -790 
Q 1522 -856 1778 -856 
Q 2344 -856 2625 -561 
Q 2906 -266 2906 331 
L 2906 616 
Q 2728 306 2450 153 
Q 2172 0 1784 0 
Q 1141 0 747 490 
Q 353 981 353 1791 
Q 353 2603 747 3093 
Q 1141 3584 1784 3584 
Q 2172 3584 2450 3431 
Q 2728 3278 2906 2969 
L 2906 3500 
L 3481 3500 
L 3481 434 
z
" transform="scale(0.015625)"/>
       <path id="DejaVuSans-6b" d="M 581 4863 
L 1159 4863 
L 1159 1991 
L 2875 3500 
L 3609 3500 
L 1753 1863 
L 3688 0 
L 2938 0 
L 1159 1709 
L 1159 0 
L 581 0 
L 581 4863 
z
" transform="scale(0.015625)"/>
      </defs>
      <use xlink:href="#DejaVuSans-48"/>
      <use xlink:href="#DejaVuSans-e4" x="75.195312"/>
      <use xlink:href="#DejaVuSans-75" x="136.474609"/>
      <use xlink:href="#DejaVuSans-66" x="199.853516"/>
      <use xlink:href="#DejaVuSans-69" x="235.058594"/>
      <use xlink:href="#DejaVuSans-67" x="262.841797"/>
      <use xlink:href="#DejaVuSans-6b" x="326.318359"/>
      <use xlink:href="#DejaVuSans-65" x="380.603516"/>
      <use xlink:href="#DejaVuSans-69" x="442.126953"/>
      <use xlink:href="#DejaVuSans-74" x="469.910156"/>
     </g>
    </g>
   </g>
   <g id="patch_217">
    <path d="M 57.26 288.645994 
L 57.26 26.16 
" style="fill: none; stroke: #000000; stroke-width: 0.8; stroke-linejoin: miter; stroke-linecap: square"/>
   </g>
   <g id="patch_218">
    <path d="M 438.921081 288.645994 
L 438.921081 26.16 
" style="fill: none; stroke: #000000; stroke-width: 0.8; stroke-linejoin: miter; stroke-linecap: square"/>
   </g>
   <g id="patch_219">
    <path d="M 57.26 288.645994 
L 438.921081 288.645994 
" style="fill: none; stroke: #000000; stroke-width: 0.8; stroke-linejoin: miter; stroke-linecap: square"/>
   </g>
   <g id="patch_220">
    <path d="M 57.26 26.16 
L 438.921081 26.16 
" style="fill: none; stroke: #000000; stroke-width: 0.8; stroke-linejoin: miter; stroke-linecap: square"/>
   </g>
   <g id="text_16">
    <!-- rest_index -->
    <g transform="translate(217.172728 20.16) scale(0.12 -0.12)">
     <defs>
      <path id="DejaVuSans-73" d="M 2834 3397 
L 2834 2853 
Q 2591 2978 2328 3040 
Q 2066 3103 1784 3103 
Q 1356 3103 1142 2972 
Q 928 2841 928 2578 
Q 928 2378 1081 2264 
Q 1234 2150 1697 2047 
L 1894 2003 
Q 2506 1872 2764 1633 
Q 3022 1394 3022 966 
Q 3022 478 2636 193 
Q 2250 -91 1575 -91 
Q 1294 -91 989 -36 
Q 684 19 347 128 
L 347 722 
Q 666 556 975 473 
Q 1284 391 1588 391 
Q 1994 391 2212 530 
Q 2431 669 2431 922 
Q 2431 1156 2273 1281 
Q 2116 1406 1581 1522 
L 1381 1569 
Q 847 1681 609 1914 
Q 372 2147 372 2553 
Q 372 3047 722 3315 
Q 1072 3584 1716 3584 
Q 2034 3584 2315 3537 
Q 2597 3491 2834 3397 
z
" transform="scale(0.015625)"/>
      <path id="DejaVuSans-5f" d="M 3263 -1063 
L 3263 -1509 
L -63 -1509 
L -63 -1063 
L 3263 -1063 
z
" transform="scale(0.015625)"/>
      <path id="DejaVuSans-6e" d="M 3513 2113 
L 3513 0 
L 2938 0 
L 2938 2094 
Q 2938 2591 2744 2837 
Q 2550 3084 2163 3084 
Q 1697 3084 1428 2787 
Q 1159 2491 1159 1978 
L 1159 0 
L 581 0 
L 581 3500 
L 1159 3500 
L 1159 2956 
Q 1366 3272 1645 3428 
Q 1925 3584 2291 3584 
Q 2894 3584 3203 3211 
Q 3513 2838 3513 2113 
z
" transform="scale(0.015625)"/>
      <path id="DejaVuSans-64" d="M 2906 2969 
L 2906 4863 
L 3481 4863 
L 3481 0 
L 2906 0 
L 2906 525 
Q 2725 213 2448 61 
Q 2172 -91 1784 -91 
Q 1150 -91 751 415 
Q 353 922 353 1747 
Q 353 2572 751 3078 
Q 1150 3584 1784 3584 
Q 2172 3584 2448 3432 
Q 2725 3281 2906 2969 
z
M 947 1747 
Q 947 1113 1208 752 
Q 1469 391 1925 391 
Q 2381 391 2643 752 
Q 2906 1113 2906 1747 
Q 2906 2381 2643 2742 
Q 2381 3103 1925 3103 
Q 1469 3103 1208 2742 
Q 947 2381 947 1747 
z
" transform="scale(0.015625)"/>
      <path id="DejaVuSans-78" d="M 3513 3500 
L 2247 1797 
L 3578 0 
L 2900 0 
L 1881 1375 
L 863 0 
L 184 0 
L 1544 1831 
L 300 3500 
L 978 3500 
L 1906 2253 
L 2834 3500 
L 3513 3500 
z
" transform="scale(0.015625)"/>
     </defs>
     <use xlink:href="#DejaVuSans-72"/>
     <use xlink:href="#DejaVuSans-65" x="38.863281"/>
     <use xlink:href="#DejaVuSans-73" x="100.386719"/>
     <use xlink:href="#DejaVuSans-74" x="152.486328"/>
     <use xlink:href="#DejaVuSans-5f" x="191.695312"/>
     <use xlink:href="#DejaVuSans-69" x="241.695312"/>
     <use xlink:href="#DejaVuSans-6e" x="269.478516"/>
     <use xlink:href="#DejaVuSans-64" x="332.857422"/>
     <use xlink:href="#DejaVuSans-65" x="396.333984"/>
     <use xlink:href="#DejaVuSans-78" x="456.107422"/>
    </g>
   </g>
  </g>
 </g>
 <defs>
  <clipPath id="p2cd27a752d">
   <rect x="57.26" y="26.16" width="381.661081" height="262.485994"/>
  </clipPath>
 </defs>
</svg>
